<svg width="237" height="336" viewBox="0 0 237 336" fill="none" xmlns="http://www.w3.org/2000/svg">
<g opacity="0.5">
<path fill-rule="evenodd" clip-rule="evenodd" d="M176.431 328.301L186.326 345.44L196.399 327.998L215.486 327.998L205.59 345.137L226.085 345.137L226.172 344.985L235.492 328.843C235.592 328.87 235.696 328.889 235.804 328.889C236.465 328.889 237 328.353 237 327.693C237 327.033 236.465 326.497 235.804 326.497C235.249 326.497 234.788 326.877 234.652 327.388L216.189 327.388L206.294 310.249L186.503 310.249L186.327 309.945L186.151 310.249L185.799 310.249L185.975 310.554L176.431 327.084L166.712 310.249L156.993 293.414L167.065 275.97L127.13 275.97L117.902 259.985C118.121 259.768 118.257 259.468 118.257 259.135C118.257 258.802 118.12 258.502 117.902 258.285L127.483 241.691L106.988 241.691L106.9 241.843L97.0922 258.83L96.7413 258.83L96.9168 259.134L96.7407 259.439L97.0928 259.439L106.989 276.578L126.43 276.578L116.887 293.109L97.4486 293.109L87.554 275.969L68.737 275.969C68.6011 275.457 68.1394 275.078 67.585 275.078C67.0307 275.078 66.5684 275.457 66.4331 275.969L47.6192 275.969L47.5315 276.121L37.7319 293.095L17.5833 293.095L27.6539 310.54L17.5833 327.983L17.6028 327.983L7.69113 345.15L28.1864 345.15L28.2741 344.998L38.0974 327.984L76.3271 327.984C76.4624 328.495 76.9247 328.875 77.479 328.875C78.1394 328.875 78.6748 328.339 78.6748 327.679C78.6748 327.346 78.5396 327.047 78.3209 326.83L87.9018 310.234L47.9707 310.234L38.4355 293.718L57.8665 293.718L57.9542 293.565L67.2732 277.423C67.3731 277.45 67.4766 277.47 67.585 277.47C67.6941 277.47 67.7983 277.449 67.8994 277.422L77.3067 293.717L97.0965 293.717L106.992 310.857L145.594 310.857C145.648 311.066 145.755 311.254 145.904 311.401L136.674 327.387L116.531 327.387L116.539 327.401L97.0934 327.401L97.0057 327.553L86.8467 345.149L107.34 345.149L107.427 344.997L117.062 328.308L126.777 345.136L146.568 345.136L146.744 345.44L146.92 345.136L166.711 345.136L166.799 344.983L176.431 328.301ZM87.9018 344.541L97.4449 328.01L116.531 328.01L106.987 344.541L87.9018 344.541ZM175.903 327.996L166.359 344.527L147.272 344.527L156.816 327.996L175.903 327.996ZM136.674 327.996L146.217 344.527L127.131 344.527L117.586 327.996L136.674 327.996ZM146.745 344.222L137.201 327.692L146.433 311.702C146.533 311.729 146.636 311.748 146.745 311.748C146.854 311.748 146.957 311.729 147.057 311.702L156.289 327.692L151.08 336.713L146.745 344.222ZM145.594 310.248L127.133 310.248L122.361 301.983L117.59 293.718L136.676 293.718L141.447 301.983L145.904 309.703C145.755 309.851 145.649 310.04 145.594 310.248ZM38.4276 327.374L47.9707 310.844L67.0569 310.844L57.5138 327.374L38.4276 327.374ZM67.7611 310.844L86.8467 310.844L77.7915 326.53C77.6916 326.502 77.5881 326.483 77.4797 326.483C76.9253 326.483 76.4636 326.862 76.3277 327.374L58.218 327.374L67.7611 310.844ZM8.74681 344.541L18.2905 328.01L37.378 328.01L27.8343 344.541L8.74681 344.541ZM47.2671 310.844L37.724 327.374L18.6384 327.374L28.1815 310.844L47.2671 310.844ZM28.1815 310.234L18.6384 293.705L37.3798 293.705L37.3725 293.718L37.7319 293.718L47.2671 310.234L28.1815 310.234ZM66.7426 277.123L57.5138 293.109L38.4276 293.109L47.9707 276.579L66.4325 276.579C66.4879 276.787 66.5939 276.976 66.7426 277.123ZM68.7364 276.578L87.2013 276.578L96.7444 293.109L77.6588 293.109L68.4287 277.121C68.5762 276.973 68.6815 276.786 68.7364 276.578ZM126.429 310.248L107.343 310.248L97.7994 293.718L116.886 293.718L121.657 301.983L126.429 310.248ZM107.34 242.3L126.426 242.3L117.371 257.985C117.271 257.958 117.169 257.939 117.061 257.939C116.506 257.939 116.044 258.319 115.909 258.83L97.7958 258.83L107.34 242.3ZM97.7964 259.439L115.909 259.439C116.044 259.951 116.506 260.33 117.06 260.33C117.168 260.33 117.271 260.311 117.371 260.284L126.426 275.969L107.34 275.969L97.7964 259.439ZM117.59 293.109L127.133 276.578L146.218 276.578L136.674 293.109L117.59 293.109ZM137.379 293.109L146.922 276.578L166.01 276.578L156.466 293.109L137.379 293.109ZM137.379 293.718L156.465 293.718L166.008 310.248L147.897 310.248C147.761 309.736 147.299 309.357 146.745 309.357C146.636 309.357 146.534 309.376 146.434 309.403L142.151 301.983L137.379 293.718ZM147.586 311.402C147.735 311.254 147.841 311.066 147.896 310.858L166.359 310.858L175.902 327.388L156.816 327.388L147.586 311.402ZM176.783 327.692L176.958 327.387L186.326 311.162L195.87 327.692L186.326 344.222L176.958 327.996L176.959 327.996L176.783 327.692ZM196.398 327.388L186.855 310.858L205.941 310.858L215.485 327.388L196.398 327.388ZM225.732 344.527L206.645 344.527L216.189 327.997L234.652 327.997C234.707 328.205 234.813 328.393 234.961 328.54L225.732 344.527ZM87.0624 243.145C87.1623 243.172 87.2658 243.191 87.3743 243.191C88.0346 243.191 88.57 242.656 88.5707 241.997C88.5707 241.336 88.0352 240.801 87.3749 240.801C86.8199 240.801 86.3582 241.181 86.2229 241.692L68.1132 241.692L77.8324 224.857L67.9371 207.718L77.8324 190.578L67.9365 173.438L78.0072 155.994L57.5138 155.994L57.4267 156.147L48.1071 172.289C48.0066 172.262 47.9037 172.242 47.7952 172.242C47.2403 172.242 46.7785 172.622 46.6433 173.134L28.1796 173.134L18.6365 156.603L38.0755 156.603L38.1632 156.451L47.9713 139.463L66.4362 139.463C66.572 139.975 67.0338 140.355 67.5881 140.355C68.2484 140.355 68.7839 139.819 68.7839 139.159C68.7839 138.827 68.6486 138.527 68.43 138.31L78.0114 121.715L57.5162 121.715L57.4285 121.867L47.621 138.854L8.74192 138.854L18.285 122.324L38.427 122.324L28.3551 104.88L37.8976 88.3512L47.6161 105.185L68.1101 105.185L58.2149 88.046L78.0041 88.046L67.758 70.2969L48.9441 70.2969C48.8893 70.0886 48.7827 69.9003 48.634 69.7529L58.2149 53.1581L38.0736 53.1581L28.5305 36.628L47.9695 36.6279L48.0572 36.4757L58.2174 18.8794L38.0742 18.8794L28.8448 2.89322C29.0629 2.67697 29.1988 2.37666 29.1988 2.04467C29.1988 1.38434 28.6633 0.848875 28.003 0.848875C27.3426 0.848875 26.8072 1.38434 26.8072 2.04467C26.8072 2.37666 26.943 2.67636 27.1611 2.89322L17.9323 18.8794L-2.2108 18.8794L7.68442 36.0188L17.9311 53.7673L37.3707 53.7673L27.8275 70.2969L7.68624 70.2969L17.7563 87.7414L8.03834 104.576L7.68686 104.576L7.86229 104.88L7.68686 105.185L8.03834 105.185L17.5815 121.715L-1.85626 121.715L-1.94398 121.867L-12.103 139.463L-12.0987 139.463L-21.9945 156.602L-1.85687 156.602L7.37131 172.588C7.22268 172.736 7.11608 172.924 7.06064 173.133L-12.106 173.133L-2.03413 190.577L-2.21018 190.882L-1.8587 190.882L7.68503 207.412L-11.7533 207.412L-11.8404 207.564L-22 225.16L-1.50599 225.16L-1.41827 225.008L8.38862 208.021L27.8276 208.021L28.0036 208.325L28.1796 208.021L47.9695 208.021L48.0572 207.869L57.6898 191.186L67.2336 207.716L57.515 224.55L37.3719 224.551L19.2628 224.551C19.1275 224.039 18.6652 223.66 18.1108 223.66C17.4505 223.66 16.915 224.195 16.915 224.856C16.915 225.516 17.4505 226.051 18.1108 226.051C18.2199 226.051 18.3228 226.032 18.4227 226.005L27.6539 241.996L18.1047 258.536L8.39532 241.718L-12.0993 241.718L-1.8526 259.466L17.5869 259.466L7.68991 276.606L27.0771 276.606C27.2123 277.117 27.6746 277.497 28.229 277.497C28.8893 277.497 29.4248 276.962 29.4248 276.301C29.4248 275.9 29.2256 275.546 28.9216 275.33L38.0962 259.44L77.6551 259.44L77.7428 259.287L87.0624 243.145ZM86.5324 242.844L77.3036 258.83L58.2174 258.83L67.585 242.604L67.7611 242.3L86.2223 242.3C86.2778 242.509 86.3838 242.696 86.5324 242.844ZM47.9707 241.691L38.4276 225.16L57.5138 225.16L67.0575 241.691L47.9707 241.691ZM38.4276 258.83L47.9707 242.3L67.0569 242.3L57.5138 258.83L38.4276 258.83ZM47.2671 242.3L37.724 258.83L18.6384 258.83L28.1815 242.3L47.2671 242.3ZM27.0789 275.996L8.74681 275.996L18.2905 259.466L37.378 259.466L28.3423 275.117C28.3244 275.115 28.3069 275.113 28.2893 275.11C28.2699 275.108 28.2504 275.105 28.2302 275.105C27.6759 275.105 27.2141 275.484 27.0789 275.996ZM-1.5005 258.857L-11.0442 242.327L8.04261 242.327L17.5863 258.857L-1.5005 258.857ZM18.9527 225.705C19.1013 225.557 19.2073 225.369 19.2628 225.161L37.724 225.161L47.2671 241.691L28.1821 241.691L18.9527 225.705ZM28.0036 174.047L37.5473 190.578L32.339 199.598L28.0036 207.107L18.4599 190.577L23.6682 181.557L28.0036 174.047ZM9.05442 174.287C9.20306 174.139 9.30906 173.951 9.36449 173.743L27.4761 173.743L18.1078 189.968L9.05442 174.287ZM8.52506 174.587L17.5809 190.272L-1.15389 190.272L7.90189 174.587C8.00179 174.614 8.10475 174.633 8.21318 174.633C8.32161 174.633 8.42516 174.614 8.52506 174.587ZM57.1623 190.272L38.0749 190.272L28.5311 173.742L46.6433 173.742C46.7792 174.254 47.2409 174.633 47.7952 174.633C47.9031 174.633 48.006 174.614 48.1059 174.587L57.1623 190.272ZM48.6359 174.287C48.7851 174.139 48.8911 173.952 48.9465 173.743L67.0575 173.743L57.6898 189.968L48.6359 174.287ZM57.1623 190.882L47.618 207.412L28.5311 207.412L38.0749 190.882L57.1623 190.882ZM-20.9437 224.551L-11.4006 208.021L7.68564 208.021L-1.85747 224.551L-20.9437 224.551ZM27.4761 207.412L8.38922 207.412L-1.1545 190.882L17.9323 190.882L27.4761 207.412ZM7.37192 174.287L-1.68204 189.968L-11.0503 173.742L7.06125 173.742C7.11668 173.951 7.22268 174.139 7.37192 174.287ZM-1.85626 155.994L-20.9388 155.994L-11.3951 139.463L7.68686 139.463L-1.85626 155.994ZM27.8269 104.576L8.74131 104.576L18.2844 88.046L37.3701 88.046L27.8269 104.576ZM8.74167 70.9067L18.2844 87.4369L37.3701 87.4369L32.5985 79.1718L27.8269 70.9067L8.74167 70.9067ZM52.3877 79.1718L57.1593 87.4369L38.073 87.4369L33.3015 79.1718L28.5299 70.9067L46.6403 70.9067C46.7755 71.4184 47.2378 71.7979 47.7922 71.7979C47.9012 71.7979 48.0042 71.779 48.1041 71.7516L52.3877 79.1718ZM27.8263 36.628L37.3701 53.1581L18.2832 53.1581L8.73948 36.628L27.8263 36.628ZM8.38861 36.0188L-1.15573 19.4886L17.9317 19.4886L27.4754 36.0188L8.38861 36.0188ZM18.4593 19.184L27.6911 3.19415C27.791 3.22096 27.8946 3.24045 28.003 3.24045C28.1114 3.24045 28.215 3.22096 28.3149 3.19415L37.5467 19.184L32.3384 28.2051L28.003 35.7142L18.4593 19.184ZM57.1617 19.4886L47.6174 36.0188L28.5305 36.0188L38.0742 19.4886L57.1617 19.4886ZM38.0736 53.7673L57.1593 53.7673L48.1047 69.4526C48.0042 69.4258 47.9012 69.4063 47.7928 69.4063C47.2385 69.4063 46.7761 69.7858 46.6409 70.2975L28.5305 70.2975L38.0736 53.7673ZM67.4066 70.9061L76.9497 87.4369L57.8635 87.4369L53.0919 79.1718L48.6347 71.4506C48.7833 71.3026 48.8899 71.115 48.9447 70.9061L67.4066 70.9061ZM57.5114 88.046L67.0551 104.576L47.9682 104.576L38.4251 88.046L57.5114 88.046ZM27.8282 105.185L37.3719 121.715L18.285 121.715L8.74131 105.185L27.8282 105.185ZM-1.50416 122.324L17.5815 122.324L8.03834 138.854L-11.0473 138.854L-1.50416 122.324ZM17.9329 155.994L-1.14902 155.994L8.39409 139.463L27.4761 139.463L17.9329 155.994ZM57.8677 122.324L76.9552 122.324L67.8994 138.009C67.7995 137.983 67.6965 137.963 67.5875 137.963C67.0325 137.963 66.5708 138.343 66.4356 138.854L48.324 138.854L57.8677 122.324ZM47.2677 139.463L37.7234 155.994L18.6365 155.994L28.1803 139.463L47.2677 139.463ZM7.9025 172.288L-1.15268 156.603L17.9329 156.603L27.4761 173.133L9.3651 173.133C9.22986 172.621 8.76751 172.242 8.21318 172.242C8.10536 172.242 8.00241 172.261 7.9025 172.288ZM48.6371 172.589L57.8665 156.603L57.8665 156.602L76.9521 156.602L67.409 173.133L48.9472 173.133C48.8917 172.925 48.7857 172.736 48.6371 172.589ZM67.5857 174.047L77.1294 190.577L67.5857 207.107L58.218 190.882L58.0419 190.577L58.218 190.272L67.5857 174.047ZM58.0419 224.855L67.5857 208.325L77.1294 224.855L67.5857 241.386L58.0419 224.855Z" fill="url(#paint0_linear_230_2303)"/>
</g>
<defs>
<linearGradient id="paint0_linear_230_2303" x1="392.783" y1="-36.507" x2="-56.9181" y2="275.115" gradientUnits="userSpaceOnUse">
<stop stop-color="#C8CACC"/>
<stop offset="0.1387" stop-color="#D5D6D7"/>
<stop offset="0.3812" stop-color="#E4E5E6"/>
<stop offset="0.5713" stop-color="#EAEBEB"/>
<stop offset="0.7471" stop-color="#EEEFEF"/>
<stop offset="0.9274" stop-color="#FAFAFB"/>
<stop offset="0.976" stop-color="white"/>
</linearGradient>
</defs>
</svg>
