<?xml version="1.0" standalone="no"?>
<!DOCTYPE svg PUBLIC "-//W3C//DTD SVG 20010904//EN"
 "http://www.w3.org/TR/2001/REC-SVG-20010904/DTD/svg10.dtd">
<svg version="1.0" xmlns="http://www.w3.org/2000/svg"
 width="800.000000pt" height="800.000000pt" viewBox="0 0 800.000000 800.000000"
 preserveAspectRatio="xMidYMid meet">

<g transform="translate(0.000000,800.000000) scale(0.100000,-0.100000)"
fill="#000000" stroke="none">
<path d="M882 7485 c-132 -36 -268 -144 -326 -259 -60 -118 -56 126 -56 -3380
l0 -3220 20 -42 c51 -104 227 -111 288 -12 l22 35 0 3209 c0 3096 1 3210 19
3249 23 50 58 83 102 95 22 7 767 9 2079 8 l2045 -3 43 -23 c31 -17 49 -35 63
-65 18 -41 19 -118 19 -3246 0 -3173 0 -3205 20 -3246 24 -50 65 -75 133 -81
65 -7 132 25 159 74 17 31 18 181 18 3295 0 2925 -1 3268 -15 3307 -52 149
-198 274 -360 308 -35 8 -679 11 -2135 11 -1770 0 -2093 -2 -2138 -14z"/>
<path d="M5737 5956 c-51 -19 -67 -34 -89 -84 -37 -83 -5 -180 71 -219 l44
-22 616 -1 c339 0 623 -2 631 -4 41 -8 67 -26 100 -70 13 -17 16 -335 20
-2480 5 -2438 5 -2461 25 -2495 27 -46 62 -70 113 -77 89 -12 166 30 191 105
8 24 11 694 11 2495 0 2674 3 2507 -56 2615 -32 60 -113 144 -155 163 -16 7
-29 16 -29 19 0 3 -20 14 -44 23 -44 17 -58 21 -131 36 -22 5 -319 9 -660 9
-493 0 -628 -3 -658 -13z"/>
<path d="M2225 5256 c-74 -17 -160 -54 -222 -97 -60 -41 -163 -145 -163 -165
0 -8 -4 -14 -9 -14 -5 0 -22 -25 -36 -56 -84 -178 -82 -348 7 -534 74 -154
228 -278 385 -310 87 -19 224 -8 306 24 86 32 208 116 255 175 20 25 39 48 43
51 15 14 52 85 75 146 76 203 17 457 -144 620 -70 72 -168 132 -249 153 -69
19 -183 22 -248 7z m177 -350 c53 -26 124 -100 143 -151 13 -33 16 -61 11
-112 -8 -92 -8 -93 -18 -93 -4 0 -8 -7 -8 -15 0 -27 -94 -112 -136 -124 -53
-15 -66 -14 -135 9 -76 26 -139 83 -169 153 -51 118 7 278 123 337 50 25 131
24 189 -4z"/>
<path d="M3659 4952 c-24 -16 -57 -44 -73 -63 -15 -19 -84 -92 -154 -164 -166
-172 -388 -403 -727 -755 -66 -69 -178 -186 -250 -260 -388 -403 -481 -503
-492 -528 -26 -59 -8 -140 43 -187 35 -32 107 -34 165 -5 46 24 70 47 314 304
99 104 207 217 240 250 56 57 115 119 435 452 69 71 179 186 245 255 66 68
197 205 290 303 94 98 179 181 191 186 60 24 22 178 -54 223 -47 27 -119 23
-173 -11z"/>
<path d="M3620 3914 c-123 -33 -276 -143 -320 -229 -8 -17 -20 -36 -27 -43
-26 -27 -65 -177 -70 -268 -18 -310 197 -590 486 -635 232 -35 466 95 583 324
83 163 77 408 -14 580 -35 66 -156 197 -182 197 -9 0 -16 4 -16 8 0 12 -108
59 -162 72 -63 14 -214 11 -278 -6z m245 -308 c86 -39 130 -118 130 -231 0
-109 -55 -208 -140 -253 -69 -37 -194 -13 -252 50 -73 77 -86 228 -29 333 60
112 179 154 291 101z"/>
</g>
</svg>
