<svg width="460" height="652" viewBox="0 0 460 652" fill="none" xmlns="http://www.w3.org/2000/svg">
<g opacity="0.5">
<path fill-rule="evenodd" clip-rule="evenodd" d="M117.114 628.542L98.1193 661.44L78.7852 627.959L42.147 627.959L61.1419 660.858L21.8039 660.858L21.6355 660.566L3.74671 629.581C3.55377 629.634 3.35498 629.67 3.14685 629.67C1.87937 629.67 0.851566 628.642 0.851566 627.375C0.851566 626.107 1.87937 625.079 3.14685 625.079C4.21207 625.079 5.09842 625.808 5.358 626.79L40.7977 626.79L59.7914 593.891L97.7802 593.891L98.1181 593.307L98.456 593.891L99.1318 593.891L98.7939 594.476L117.113 626.205L135.769 593.891L154.424 561.576L135.092 528.092L211.746 528.092L229.46 497.409C229.039 496.993 228.778 496.416 228.778 495.778C228.778 495.14 229.04 494.563 229.46 494.147L211.069 462.295L250.409 462.295L250.577 462.587L269.404 495.192L270.077 495.192L269.74 495.776L270.078 496.362L269.402 496.362L250.407 529.26L213.09 529.26L231.408 560.99L268.719 560.99L287.712 528.091L323.831 528.091C324.092 527.109 324.978 526.38 326.042 526.38C327.106 526.38 327.994 527.109 328.253 528.091L364.367 528.091L364.535 528.383L383.345 560.964L422.02 560.964L402.69 594.449L422.02 627.931L421.983 627.931L441.008 660.884L401.668 660.884L401.499 660.592L382.644 627.932L309.262 627.932C309.002 628.915 308.115 629.643 307.051 629.643C305.783 629.643 304.755 628.615 304.755 627.348C304.755 626.709 305.015 626.134 305.435 625.718L287.044 593.863L363.692 593.863L381.995 562.159L344.697 562.159L344.529 561.867L326.641 530.882C326.449 530.934 326.25 530.971 326.042 530.971C325.833 530.971 325.633 530.932 325.439 530.88L307.382 562.158L269.395 562.158L250.402 595.058L176.305 595.058C176.2 595.459 175.996 595.819 175.71 596.102L193.426 626.788L232.091 626.788L232.075 626.813L269.401 626.813L269.57 627.106L289.07 660.882L249.734 660.882L249.567 660.589L231.072 628.556L212.423 660.856L174.435 660.856L174.097 661.44L173.76 660.856L135.771 660.856L135.603 660.564L117.114 628.542ZM287.044 659.713L268.726 627.984L232.092 627.984L250.41 659.713L287.044 659.713ZM118.127 627.957L136.446 659.687L173.083 659.687L154.764 627.957L118.127 627.957ZM193.427 627.957L175.108 659.687L211.745 659.687L230.065 627.957L193.427 627.957ZM174.096 659.102L192.415 627.372L174.694 596.68C174.502 596.731 174.305 596.769 174.096 596.769C173.886 596.769 173.689 596.731 173.497 596.68L155.776 627.373L165.774 644.688L174.096 659.102ZM176.305 593.89L211.74 593.89L220.899 578.024L230.058 562.159L193.424 562.159L184.265 578.024L175.709 592.843C175.996 593.128 176.199 593.489 176.305 593.89ZM382.01 626.762L363.692 595.032L327.056 595.032L345.374 626.762L382.01 626.762ZM325.704 595.032L289.07 595.032L306.451 625.141C306.643 625.089 306.841 625.052 307.05 625.052C308.114 625.052 309 625.78 309.261 626.762L344.022 626.762L325.704 595.032ZM438.982 659.713L420.663 627.984L384.024 627.984L402.344 659.713L438.982 659.713ZM365.042 595.032L383.36 626.762L419.995 626.762L401.677 595.032L365.042 595.032ZM401.677 593.863L419.995 562.135L384.021 562.135L384.035 562.159L383.345 562.159L365.042 593.863L401.677 593.863ZM327.659 530.306L345.374 560.99L382.01 560.99L363.692 529.262L328.255 529.262C328.148 529.661 327.945 530.023 327.659 530.306ZM323.832 529.26L288.389 529.26L270.071 560.99L306.706 560.99L324.423 530.302C324.14 530.018 323.938 529.659 323.832 529.26ZM213.092 593.89L249.727 593.89L268.046 562.16L231.41 562.16L222.251 578.025L213.092 593.89ZM249.734 463.464L213.097 463.464L230.478 493.57C230.67 493.519 230.866 493.483 231.075 493.483C232.14 493.483 233.026 494.211 233.286 495.193L268.053 495.193L249.734 463.464ZM268.052 496.362L233.286 496.362C233.026 497.345 232.139 498.072 231.076 498.072C230.868 498.072 230.67 498.036 230.479 497.984L213.098 528.091L249.733 528.091L268.052 496.362ZM230.058 560.99L211.74 529.26L175.107 529.26L193.426 560.99L230.058 560.99ZM192.073 560.99L173.755 529.26L137.117 529.26L155.436 560.99L192.073 560.99ZM192.073 562.159L155.438 562.159L137.121 593.889L171.884 593.889C172.145 592.907 173.031 592.178 174.096 592.178C174.304 592.178 174.5 592.216 174.692 592.267L182.914 578.024L192.073 562.159ZM172.481 596.103C172.195 595.82 171.992 595.459 171.886 595.059L136.447 595.059L118.128 626.789L154.765 626.789L172.481 596.103ZM116.438 627.372L116.102 626.788L98.1193 595.644L79.8001 627.373L98.1193 659.102L116.102 627.957L116.1 627.957L116.438 627.372ZM78.7863 626.789L97.1055 595.059L60.4685 595.059L42.1494 626.789L78.7863 626.789ZM22.4809 659.687L59.1179 659.687L40.7989 627.958L5.35913 627.958C5.25391 628.358 5.05045 628.718 4.76514 629.001L22.4809 659.687ZM288.656 465.086C288.464 465.137 288.265 465.174 288.057 465.174C286.79 465.174 285.762 464.147 285.761 462.881C285.761 461.614 286.788 460.586 288.056 460.586C289.121 460.586 290.007 461.315 290.267 462.297L325.028 462.297L306.373 429.982L325.366 397.083L306.373 364.184L325.368 331.284L306.037 297.8L345.374 297.8L345.541 298.093L363.43 329.077C363.623 329.026 363.82 328.989 364.029 328.989C365.094 328.989 365.98 329.717 366.24 330.699L401.681 330.699L419.999 298.968L382.686 298.968L382.517 298.676L363.691 266.07L328.248 266.07C327.987 267.052 327.1 267.78 326.036 267.78C324.769 267.78 323.741 266.752 323.741 265.485C323.741 264.848 324.001 264.272 324.42 263.856L306.029 232.001L345.369 232.001L345.538 232.294L364.363 264.9L438.991 264.9L420.673 233.171L382.011 233.171L401.344 199.686L383.027 167.96L364.372 200.273L325.034 200.273L344.028 167.374L306.043 167.374L325.71 133.305L361.823 133.305C361.929 132.905 362.133 132.544 362.419 132.261L344.028 100.407L382.689 100.407L401.007 68.6776L363.694 68.6776L363.526 68.3853L344.023 34.6095L382.688 34.6095L400.404 3.92411C399.985 3.50901 399.724 2.93256 399.724 2.29531C399.724 1.02781 400.752 -4.25084e-06 402.02 -4.19543e-06C403.287 -4.14003e-06 404.315 1.02781 404.315 2.29531C404.315 2.93256 404.054 3.50784 403.636 3.92411L421.35 34.6095L460.015 34.6095L441.021 67.5084L421.353 101.576L384.039 101.576L402.356 133.305L441.018 133.305L421.688 166.79L440.342 199.103L441.016 199.103L440.68 199.687L441.016 200.272L440.342 200.272L422.024 232.001L459.334 232.001L459.503 232.294L479.003 266.068L478.995 266.068L497.989 298.967L459.335 298.967L441.622 329.651C441.907 329.936 442.112 330.297 442.218 330.698L479.009 330.698L459.676 364.181L460.014 364.766L459.339 364.766L441.02 396.496L478.332 396.496L478.499 396.788L498 430.564L458.662 430.564L458.494 430.272L439.669 397.665L402.356 397.665L402.019 398.25L401.681 397.665L363.694 397.665L363.526 397.373L345.036 365.351L326.717 397.08L345.372 429.393L384.036 429.395L418.796 429.395C419.056 428.411 419.944 427.684 421.008 427.684C422.275 427.684 423.303 428.712 423.303 429.979C423.303 431.247 422.275 432.275 421.008 432.275C420.798 432.275 420.601 432.237 420.409 432.186L402.69 462.879L421.019 494.627L439.656 462.346L478.996 462.346L459.327 496.413L422.013 496.413L441.01 529.313L403.797 529.313C403.537 530.295 402.65 531.024 401.586 531.024C400.318 531.024 399.291 529.996 399.291 528.728C399.291 527.958 399.673 527.28 400.256 526.863L382.646 496.363L306.713 496.363L306.544 496.07L288.656 465.086ZM289.673 464.507L307.388 495.192L344.023 495.192L326.042 464.047L325.704 463.463L290.268 463.463C290.162 463.864 289.958 464.224 289.673 464.507ZM363.692 462.295L382.01 430.564L345.374 430.564L327.055 462.295L363.692 462.295ZM382.01 495.193L363.692 463.464L327.056 463.464L345.374 495.193L382.01 495.193ZM365.042 463.463L383.36 495.192L419.995 495.192L401.677 463.463L365.042 463.463ZM403.793 528.143L438.982 528.143L420.663 496.414L384.024 496.414L401.368 526.455C401.394 526.453 401.419 526.449 401.444 526.446C401.49 526.439 401.536 526.433 401.584 526.433C402.648 526.433 403.534 527.16 403.793 528.143ZM458.651 495.245L476.97 463.515L440.333 463.515L422.014 495.245L458.651 495.245ZM419.392 431.609C419.106 431.326 418.903 430.965 418.796 430.565L383.36 430.565L365.042 462.295L401.676 462.295L419.392 431.609ZM402.019 332.453L383.699 364.183L393.697 381.497L402.019 395.911L420.338 364.181L410.34 346.867L402.019 332.453ZM438.391 332.913C438.106 332.628 437.903 332.268 437.796 331.868L403.031 331.868L421.013 363.013L438.391 332.913ZM439.407 333.489L422.025 363.597L457.986 363.597L440.604 333.489C440.412 333.541 440.214 333.578 440.006 333.578C439.798 333.578 439.599 333.541 439.407 333.489ZM346.049 363.597L382.687 363.597L401.006 331.867L366.24 331.867C365.979 332.851 365.093 333.578 364.029 333.578C363.822 333.578 363.624 333.541 363.432 333.489L346.049 363.597ZM362.415 332.914C362.129 332.63 361.925 332.269 361.819 331.868L327.055 331.868L345.036 363.013L362.415 332.914ZM346.049 364.766L364.369 396.496L401.006 396.496L382.687 364.766L346.049 364.766ZM495.972 429.395L477.655 397.665L441.019 397.665L459.337 429.395L495.972 429.395ZM403.031 396.496L439.668 396.496L457.987 364.766L421.35 364.766L403.031 396.496ZM441.621 332.913L459 363.012L476.982 331.867L442.217 331.867C442.111 332.268 441.907 332.63 441.621 332.913ZM459.334 297.799L495.963 297.799L477.644 266.07L441.016 266.07L459.334 297.799ZM402.358 199.104L438.992 199.104L420.674 167.374L384.04 167.374L402.358 199.104ZM438.992 134.475L420.674 166.205L384.04 166.205L393.199 150.34L402.358 134.475L438.992 134.475ZM355.213 150.34L346.054 166.205L382.69 166.205L391.849 150.34L401.008 134.475L366.246 134.475C365.986 135.458 365.099 136.186 364.034 136.186C363.825 136.186 363.628 136.15 363.436 136.097L355.213 150.34ZM402.359 68.6776L384.04 100.407L420.677 100.407L438.996 68.6776L402.359 68.6776ZM439.669 67.5084L457.99 35.7788L421.351 35.7788L403.032 67.5084L439.669 67.5084ZM420.339 35.1942L402.618 4.50174C402.427 4.55319 402.228 4.5906 402.02 4.5906C401.812 4.5906 401.613 4.55319 401.421 4.50174L383.701 35.1942L393.698 52.51L402.02 66.9237L420.339 35.1942ZM346.05 35.7788L364.37 67.5083L401.007 67.5083L382.688 35.7788L346.05 35.7788ZM382.689 101.576L346.054 101.576L363.435 131.684C363.628 131.633 363.825 131.595 364.033 131.595C365.097 131.595 365.985 132.324 366.244 133.306L401.007 133.306L382.689 101.576ZM326.385 134.474L308.067 166.205L344.703 166.205L353.862 150.34L362.417 135.519C362.132 135.235 361.927 134.875 361.822 134.474L326.385 134.474ZM345.379 167.374L327.06 199.104L363.697 199.104L382.014 167.374L345.379 167.374ZM402.355 200.272L384.036 232.001L420.673 232.001L438.992 200.272L402.355 200.272ZM458.658 233.171L422.024 233.171L440.342 264.9L476.976 264.9L458.658 233.171ZM421.349 297.799L457.977 297.799L439.659 266.07L403.031 266.07L421.349 297.799ZM344.695 233.171L308.056 233.171L325.439 263.278C325.631 263.227 325.828 263.19 326.038 263.19C327.103 263.19 327.989 263.918 328.249 264.9L363.014 264.9L344.695 233.171ZM365.041 266.07L383.362 297.799L419.999 297.799L401.679 266.07L365.041 266.07ZM440.602 329.076L457.984 298.968L421.349 298.968L403.031 330.698L437.795 330.698C438.055 329.716 438.942 328.987 440.006 328.987C440.213 328.987 440.411 329.025 440.602 329.076ZM362.413 329.654L344.697 298.968L344.697 298.967L308.062 298.967L326.38 330.698L361.818 330.698C361.924 330.298 362.127 329.937 362.413 329.654ZM326.041 332.452L307.722 364.181L326.041 395.911L344.022 364.766L344.36 364.181L344.022 363.597L326.041 332.452ZM344.36 429.978L326.041 398.25L307.722 429.978L326.041 461.709L344.36 429.978Z" fill="url(#paint0_linear_134_824)"/>
</g>
<defs>
<linearGradient id="paint0_linear_134_824" x1="-298.173" y1="-71.7042" x2="565.025" y2="526.451" gradientUnits="userSpaceOnUse">
<stop stop-color="#C8CACC"/>
<stop offset="0.1387" stop-color="#D5D6D7"/>
<stop offset="0.3812" stop-color="#E4E5E6"/>
<stop offset="0.5713" stop-color="#EAEBEB"/>
<stop offset="0.7471" stop-color="#EEEFEF"/>
<stop offset="0.9274" stop-color="#FAFAFB"/>
<stop offset="0.976" stop-color="white"/>
</linearGradient>
</defs>
</svg>
