<svg width="341" height="303" viewBox="0 0 341 303" fill="none" xmlns="http://www.w3.org/2000/svg">
<g opacity="0.1">
<path d="M284.248 226.223H233.473L251.727 207.971H302.502L284.248 226.223ZM242.845 222.343H282.641L293.13 211.851H253.334L242.845 222.343Z" fill="white"/>
<path d="M294.197 124.038H243.422L224.564 105.177H275.334L294.197 124.038ZM245.032 120.158H284.828L273.729 109.058H233.934L245.032 120.158Z" fill="white"/>
<path d="M106.842 226.223H56.067L37.8125 207.971H88.5877L106.842 226.223ZM57.6768 222.343H97.4725L86.9831 211.851H47.1874L57.6768 222.343Z" fill="white"/>
<path d="M317.14 193.331H266.365L289.542 170.157L258.063 138.678H308.836L340.315 170.157L317.14 193.331ZM275.738 189.451H315.533L334.827 170.157L307.229 142.558H267.436L295.029 170.157L275.738 189.451Z" fill="white"/>
<path d="M73.9468 193.331H23.1742L0 170.157L98.4753 71.6792H149.25L50.7701 170.157L73.9468 193.331ZM24.784 189.451H64.577L45.2829 170.157L139.878 75.5592H100.082L5.48719 170.157L24.784 189.451Z" fill="white"/>
<path d="M170.158 340.314L80.3271 250.486H131.1L170.16 289.544L209.218 250.486H259.993L170.158 340.314ZM89.6995 254.366L170.158 334.827L250.618 254.366H210.823L170.158 295.031L129.49 254.366H89.6995Z" fill="white"/>
<path d="M227.199 57.0389H113.113L170.155 0L227.199 57.0389ZM122.488 53.1589H217.829L170.157 5.48459L122.488 53.1589Z" fill="white"/>
<path d="M260.699 90.54H209.924L191.066 71.6792H241.836L260.699 90.54ZM211.531 86.66H251.327L240.229 75.5592H200.433L211.531 86.66Z" fill="white"/>
</g>
</svg>
