<svg width="195" height="195" viewBox="0 0 195 195" fill="none" xmlns="http://www.w3.org/2000/svg">
<g opacity="0.1">
<path d="M158.079 161.61L131.832 146.875L118.825 150.527L145.071 165.263L158.079 161.61Z" fill="#7BDAFF"/>
<path d="M151.786 79.7228L155.594 93.2795L181.841 108.013L178.033 94.4584L151.786 79.7228Z" fill="#7BDAFF"/>
<path d="M13.7555 91.5358L40.0022 106.271L36.3492 93.2642L10.1025 78.5311L13.7555 91.5358Z" fill="#7BDAFF"/>
<path d="M160.303 110.038L167.81 136.77L148.593 142.167L174.837 156.902L194.057 151.505L186.547 124.774L160.303 110.038Z" fill="#7BDAFF"/>
<path d="M31.641 76.506L26.2441 57.2867L113.606 32.7504L87.3616 18.0148L0 42.5536L5.39688 61.7704L31.641 76.506Z" fill="#7BDAFF"/>
<path d="M93.3597 157.679L57.2866 167.812L47.1533 131.736L20.9092 117.003L42.551 194.056L119.606 172.414L93.3597 157.679Z" fill="#7BDAFF"/>
<path d="M104.122 13.3091L130.366 28.0448L138.565 32.6471L164.811 47.3828L151.502 0L104.122 13.3091Z" fill="#7BDAFF"/>
<path d="M143.273 49.4078L147.081 62.962L173.325 77.6977L169.517 64.1409L143.273 49.4078Z" fill="#7BDAFF"/>
</g>
</svg>
