<svg width="451" height="340" viewBox="0 0 451 340" fill="none" xmlns="http://www.w3.org/2000/svg">
<g opacity="0.2">
<mask id="mask0_20_31795" style="mask-type:alpha" maskUnits="userSpaceOnUse" x="0" y="0" width="451" height="340">
<rect x="450.15" y="0.858067" width="337.965" height="449.681" transform="rotate(90 450.15 0.858067)" fill="url(#paint0_linear_20_31795)" stroke="#6246E5" stroke-width="0.938791"/>
</mask>
<g mask="url(#mask0_20_31795)">
<path d="M222.029 422.769C159.019 422.769 107.929 371.616 107.929 308.502C107.929 245.388 159.019 194.234 222.029 194.234C285.039 194.234 336.129 245.388 336.129 308.502C336.129 371.616 285.039 422.769 222.029 422.769Z" stroke="#56DDE8" stroke-width="8.44911"/>
<path d="M234.485 427.447C163.736 427.447 106.372 370.011 106.372 299.147C106.372 228.284 163.736 170.848 234.485 170.848C305.233 170.848 362.597 228.284 362.597 299.147C362.597 370.011 305.233 427.447 234.485 427.447Z" stroke="#56DDE8" stroke-width="8.44911"/>
<path d="M244.604 432.124C166.976 432.124 104.036 369.104 104.036 291.352C104.036 213.6 166.976 150.58 244.604 150.58C322.231 150.58 385.171 213.6 385.171 291.352C385.171 369.104 322.231 432.124 244.604 432.124Z" stroke="#56DDE8" stroke-width="8.44911"/>
<path d="M259.395 435.242C175.749 435.242 107.929 367.336 107.929 283.556C107.929 199.777 175.749 131.87 259.395 131.87C343.042 131.87 410.861 199.777 410.861 283.556C410.861 367.336 343.042 435.242 259.395 435.242Z" stroke="#56DDE8" stroke-width="8.44911"/>
<path d="M273.796 438.36C184.346 438.36 111.821 365.742 111.821 276.15C111.821 186.559 184.346 113.94 273.796 113.94C363.247 113.94 435.771 186.559 435.771 276.15C435.771 365.742 363.247 438.36 273.796 438.36Z" stroke="#56DDE8" stroke-width="8.44911"/>
<path d="M290.144 442.258C191.664 442.258 111.821 362.311 111.821 263.678C111.821 165.045 191.664 85.0971 290.144 85.0971C388.623 85.0971 468.466 165.045 468.466 263.678C468.466 362.311 388.623 442.258 290.144 442.258Z" stroke="#56DDE8" stroke-width="8.44911"/>
</g>
</g>
<defs>
<linearGradient id="paint0_linear_20_31795" x1="690.983" y1="13.0313" x2="457.852" y2="454.825" gradientUnits="userSpaceOnUse">
<stop stop-color="#747DEF"/>
<stop offset="1" stop-color="#5E3BE1"/>
</linearGradient>
</defs>
</svg>
