<svg width="34" height="37" viewBox="0 0 34 37" fill="none" xmlns="http://www.w3.org/2000/svg">
<path d="M2.00362 31.8001H11.6576L10.5132 36.0387H8.24247C7.99436 36.0387 7.79306 36.2458 7.79306 36.5011C7.79306 36.7567 7.99436 36.9635 8.24247 36.9635H25.372C25.6201 36.9635 25.8214 36.7567 25.8214 36.5011C25.8214 36.2458 25.6201 36.0387 25.372 36.0387H23.101L21.9569 31.8001H31.6106C32.0963 31.8013 32.5621 31.603 32.9047 31.2489C33.2476 30.8949 33.4387 30.4148 33.4355 29.9151V9.26745C33.439 8.76653 33.2485 8.28517 32.9059 7.92905C32.5635 7.57323 32.0975 7.37214 31.6106 7.37063H24.597V6.52292H28.5065C28.625 6.52021 28.7377 6.46873 28.8196 6.38023C28.9012 6.29142 28.9451 6.17312 28.9413 6.0509V3.25008C28.9425 2.54144 28.6683 1.86141 28.1797 1.36169C27.6914 0.861974 27.029 0.583819 26.3399 0.588937H10.7166C9.32856 0.588937 8.19975 1.72474 8.19975 3.13478L8.17079 7.37063H2.00362C1.51705 7.37214 1.05096 7.57323 0.708335 7.92905C0.366007 8.28517 0.175533 8.76653 0.178751 9.26745V29.9151C0.175825 30.4148 0.366885 30.8949 0.709505 31.2489C1.05213 31.603 1.51822 31.8013 2.00362 31.8001ZM22.1685 36.0387H11.446L12.59 31.8001H21.0242L22.1685 36.0387ZM31.6106 30.8754H2.00362C1.75638 30.8769 1.5191 30.7757 1.34471 30.5951C1.17062 30.4145 1.07436 30.1694 1.07758 29.9151V26.2515H32.5366V29.9151C32.5398 30.1694 32.4436 30.4145 32.2695 30.5951C32.0954 30.7757 31.8578 30.8769 31.6106 30.8754ZM26.3358 1.51371H26.3393C26.7911 1.50829 27.2264 1.69012 27.5468 2.01825C27.8672 2.34637 28.0457 2.79311 28.0425 3.2582V5.59814H24.597V3.2576C24.5987 2.7916 24.7822 2.34577 25.1064 2.02005C25.4317 1.69012 25.8715 1.50799 26.3282 1.51371H26.3358ZM10.7166 1.51371H24.3603C23.9372 1.99085 23.7013 2.61249 23.6981 3.2582V19.6248C23.7016 20.2976 23.4442 20.9443 22.983 21.4214C22.5219 21.8985 21.8949 22.1668 21.2407 22.1671H21.2381C19.8711 22.1628 18.7625 21.0258 18.7546 19.6191V18.4484C18.7581 18.3298 18.7136 18.2151 18.632 18.1311C18.5503 18.0474 18.4386 18.0019 18.3233 18.0056H8.99793L9.09829 3.14863C9.10678 2.2374 9.83093 1.50589 10.7166 1.51371ZM5.57173 19.6191V18.9303H17.8557V19.6185C17.8581 20.589 18.2569 21.5141 18.9547 22.1671H8.02537C7.37144 22.1643 6.74559 21.8943 6.28535 21.4163C5.82511 20.9385 5.56851 20.2919 5.57173 19.6191ZM2.00362 8.29541H8.16435L8.09881 18.0056H5.10798C4.99211 18.0016 4.88005 18.0471 4.79783 18.1308C4.71562 18.2145 4.67056 18.3295 4.6729 18.4484V19.6257C4.67436 21.4792 6.094 23.0027 7.89371 23.0825V23.0918H21.0016V23.0789C21.0765 23.0834 21.174 23.0918 21.2433 23.0918H21.2468C22.1392 23.09 22.9942 22.7225 23.6226 22.071C24.2511 21.4193 24.6019 20.5373 24.597 19.6191V8.29541H31.6106C31.8593 8.29691 32.0969 8.40017 32.2707 8.58289C32.4448 8.76532 32.5404 9.01187 32.5366 9.26745V25.3267H1.07758V9.26745C1.07407 9.01187 1.16975 8.76532 1.34354 8.58289C1.51763 8.40017 1.75521 8.29691 2.00362 8.29541Z" fill="#3ABBC6"/>
<path d="M13.563 8.32792C13.563 8.58829 13.755 8.79898 13.9915 8.79898H17.5436C17.3561 9.81103 16.5425 10.5351 15.6031 10.5262H13.9915C13.8161 10.5259 13.6584 10.6434 13.5934 10.8225C13.5284 11.0016 13.5697 11.2061 13.6972 11.3383L17.7249 15.5214C17.8979 15.6901 18.1616 15.6772 18.3203 15.4926C18.4794 15.308 18.4763 15.0182 18.3136 14.8375L15.0691 11.4683H15.6031C17.009 11.4567 18.2001 10.3263 18.4155 8.79898H19.623C19.8599 8.79898 20.0516 8.58829 20.0516 8.32792C20.0516 8.06785 19.8599 7.85686 19.623 7.85686H18.4155C18.3164 7.20914 18.0452 6.60805 17.6359 6.12963H19.6236C19.8602 6.12963 20.0521 5.91894 20.0521 5.65856C20.0521 5.3985 19.8602 5.1875 19.6236 5.1875H13.9915C13.755 5.1875 13.563 5.3985 13.563 5.65856C13.563 5.91894 13.755 6.12963 13.9915 6.12963H15.6031C16.552 6.12963 17.3472 6.91473 17.5436 7.85686H13.9915C13.755 7.85686 13.563 8.06785 13.563 8.32792Z" fill="#3ABBC6"/>
</svg>
