<svg width="24" height="24" viewBox="0 0 24 24" fill="none" xmlns="http://www.w3.org/2000/svg">
<path d="M2 12C2 10.1308 2 9.19615 2.40192 8.5C2.66523 8.04394 3.04394 7.66523 3.5 7.40192C4.19615 7 5.13077 7 7 7H17C18.8692 7 19.8038 7 20.5 7.40192C20.9561 7.66523 21.3348 8.04394 21.5981 8.5C22 9.19615 22 10.1308 22 12C22 13.8692 22 14.8038 21.5981 15.5C21.3348 15.9561 20.9561 16.3348 20.5 16.5981C19.8038 17 18.8692 17 17 17H7C5.13077 17 4.19615 17 3.5 16.5981C3.04394 16.3348 2.66523 15.9561 2.40192 15.5C2 14.8038 2 13.8692 2 12Z" stroke="white" stroke-width="1.5"/>
<path d="M11 4C11 2.89543 10.6162 2 10.1429 2H5.85714C5.38376 2 5 2.89543 5 4" stroke="white" stroke-width="1.5"/>
<path d="M19 4C19 2.89543 18.6162 2 18.1429 2H13.8571C13.3838 2 13 2.89543 13 4" stroke="white" stroke-width="1.5"/>
<path d="M11 20C11 21.1046 10.6162 22 10.1429 22H5.85714C5.38376 22 5 21.1046 5 20" stroke="white" stroke-width="1.5"/>
<path d="M19 20C19 21.1046 18.6162 22 18.1429 22H13.8571C13.3838 22 13 21.1046 13 20" stroke="white" stroke-width="1.5"/>
<path d="M12 10L12 14" stroke="white" stroke-width="1.5" stroke-linecap="round" stroke-linejoin="round"/>
<path d="M14 12L10 12" stroke="white" stroke-width="1.5" stroke-linecap="round" stroke-linejoin="round"/>
</svg>