<svg width="70" height="134" viewBox="0 0 70 134" fill="none" xmlns="http://www.w3.org/2000/svg">
<rect y="20.8108" width="70" height="92.7027" rx="5.67568" fill="#00D649"/>
<!-- <path d="M31.4922 60.5938V72H29.4219V63.0078L26.6797 63.9141V62.2422L31.2578 60.5938H31.4922ZM41.0625 60.5312H41.3438V62.1953H41.2109C40.5807 62.1953 40.026 62.2917 39.5469 62.4844C39.0729 62.6771 38.6771 62.9479 38.3594 63.2969C38.0469 63.6406 37.8099 64.0495 37.6484 64.5234C37.487 64.9922 37.4062 65.5052 37.4062 66.0625V67.9062C37.4062 68.3385 37.4505 68.7188 37.5391 69.0469C37.6328 69.3698 37.7604 69.6432 37.9219 69.8672C38.0885 70.0859 38.2812 70.25 38.5 70.3594C38.724 70.4688 38.9688 70.5234 39.2344 70.5234C39.5 70.5234 39.7396 70.4688 39.9531 70.3594C40.1667 70.25 40.349 70.0964 40.5 69.8984C40.6562 69.6953 40.7734 69.4583 40.8516 69.1875C40.9349 68.9167 40.9766 68.6198 40.9766 68.2969C40.9766 67.9792 40.9375 67.6849 40.8594 67.4141C40.7812 67.1432 40.6667 66.9062 40.5156 66.7031C40.3646 66.4948 40.1771 66.3359 39.9531 66.2266C39.7344 66.112 39.4844 66.0547 39.2031 66.0547C38.8385 66.0547 38.513 66.1406 38.2266 66.3125C37.9401 66.4792 37.7135 66.6979 37.5469 66.9688C37.3802 67.2396 37.2891 67.526 37.2734 67.8281L36.5781 67.4844C36.6042 67.0417 36.6979 66.6354 36.8594 66.2656C37.026 65.8958 37.2474 65.5729 37.5234 65.2969C37.8047 65.0208 38.1354 64.8073 38.5156 64.6562C38.901 64.5052 39.3281 64.4297 39.7969 64.4297C40.3385 64.4297 40.8125 64.5339 41.2188 64.7422C41.625 64.9453 41.9609 65.224 42.2266 65.5781C42.4974 65.9323 42.7005 66.3411 42.8359 66.8047C42.9714 67.263 43.0391 67.7474 43.0391 68.2578C43.0391 68.8047 42.9505 69.3151 42.7734 69.7891C42.6016 70.263 42.3516 70.6771 42.0234 71.0312C41.6953 71.3854 41.2995 71.6615 40.8359 71.8594C40.3724 72.0573 39.8516 72.1562 39.2734 72.1562C38.6641 72.1562 38.1172 72.0417 37.6328 71.8125C37.1536 71.5833 36.7422 71.2656 36.3984 70.8594C36.0547 70.4531 35.7917 69.9792 35.6094 69.4375C35.4271 68.8958 35.3359 68.3099 35.3359 67.6797V66.8516C35.3359 65.9609 35.4583 65.1328 35.7031 64.3672C35.9479 63.6016 36.3099 62.9323 36.7891 62.3594C37.2734 61.7812 37.8724 61.3333 38.5859 61.0156C39.2995 60.6927 40.125 60.5312 41.0625 60.5312Z" fill="white"/> -->
<path d="M20.8109 2.48092e-07C17.6763 1.11074e-07 15.1353 2.54109 15.1353 5.67568L15.1353 15.1351L54.865 15.1351L54.865 5.67568C54.865 2.54109 52.3239 1.62557e-06 49.1893 1.48855e-06L20.8109 2.48092e-07Z" fill="#019E1A"/>
<path d="M20.8109 133.378C17.6763 133.378 15.1353 130.837 15.1353 127.703L15.1353 118.243L54.865 118.243L54.865 127.703C54.865 130.837 52.3239 133.378 49.1893 133.378L20.8109 133.378Z" fill="#019E1A"/>
</svg>