<svg width="135" height="133" viewBox="0 0 135 133" fill="none" xmlns="http://www.w3.org/2000/svg">
<rect x="21.5251" y="19.8086" width="92.4397" height="92.4397" rx="5.65957" fill="#00D649"/>
<!-- <path d="M64.7373 60.5938V72H62.667V63.0078L59.9248 63.9141V62.2422L64.5029 60.5938H64.7373ZM76.0967 65.3359V67.25C76.0967 68.125 76.0081 68.8724 75.8311 69.4922C75.654 70.112 75.3988 70.6198 75.0654 71.0156C74.7321 71.4062 74.3337 71.6953 73.8701 71.8828C73.4066 72.0651 72.891 72.1562 72.3232 72.1562C71.8701 72.1562 71.4482 72.099 71.0576 71.9844C70.667 71.8646 70.3154 71.6823 70.0029 71.4375C69.6956 71.1875 69.43 70.8698 69.2061 70.4844C68.9873 70.099 68.818 69.638 68.6982 69.1016C68.5837 68.5651 68.5264 67.9479 68.5264 67.25V65.3359C68.5264 64.4609 68.6149 63.7161 68.792 63.1016C68.9743 62.487 69.2321 61.9844 69.5654 61.5938C69.8988 61.2031 70.2972 60.9193 70.7607 60.7422C71.2243 60.5599 71.7399 60.4688 72.3076 60.4688C72.766 60.4688 73.1878 60.526 73.5732 60.6406C73.9639 60.7552 74.3128 60.9349 74.6201 61.1797C74.9326 61.4193 75.1982 61.7318 75.417 62.1172C75.6357 62.4974 75.8024 62.9557 75.917 63.4922C76.0368 64.0234 76.0967 64.638 76.0967 65.3359ZM74.0342 67.5312V65.0469C74.0342 64.6094 74.0081 64.2292 73.9561 63.9062C73.9092 63.5781 73.8389 63.2995 73.7451 63.0703C73.6514 62.8411 73.5342 62.6562 73.3936 62.5156C73.2529 62.3698 73.0915 62.263 72.9092 62.1953C72.7269 62.1276 72.5264 62.0938 72.3076 62.0938C72.0368 62.0938 71.7946 62.1484 71.5811 62.2578C71.3675 62.362 71.1878 62.5286 71.042 62.7578C70.8962 62.987 70.7842 63.2917 70.7061 63.6719C70.6331 64.0469 70.5967 64.5052 70.5967 65.0469V67.5312C70.5967 67.9688 70.6201 68.3516 70.667 68.6797C70.7191 69.0078 70.792 69.2891 70.8857 69.5234C70.9847 69.7578 71.1019 69.9505 71.2373 70.1016C71.3779 70.2474 71.5394 70.3568 71.7217 70.4297C71.904 70.4974 72.1045 70.5312 72.3232 70.5312C72.5993 70.5312 72.8415 70.4766 73.0498 70.3672C73.2633 70.2578 73.443 70.0859 73.5889 69.8516C73.7347 69.612 73.8441 69.3021 73.917 68.9219C73.9951 68.5365 74.0342 68.0729 74.0342 67.5312Z" fill="white"/> -->
<path d="M0.773438 51.8795C0.773438 48.7538 3.30732 46.22 6.43301 46.22H15.8656V85.837H6.43301C3.30732 85.837 0.773438 83.3031 0.773438 80.1774V51.8795Z" fill="#019E1A"/>
<path d="M134.717 51.8795C134.717 48.7538 132.183 46.22 129.057 46.22H119.625V85.837H129.057C132.183 85.837 134.717 83.3031 134.717 80.1774V51.8795Z" fill="#019E1A"/>
<path d="M53.5961 2.47388e-07C50.4704 1.10759e-07 47.9365 2.53388 47.9365 5.65957L47.9365 15.0922L87.5535 15.0922L87.5535 5.65958C87.5535 2.53388 85.0197 1.62096e-06 81.894 1.48433e-06L53.5961 2.47388e-07Z" fill="#019E1A"/>
<path d="M53.5961 133C50.4704 133 47.9365 130.466 47.9365 127.34L47.9365 117.908L87.5535 117.908L87.5535 127.34C87.5535 130.466 85.0197 133 81.894 133L53.5961 133Z" fill="#019E1A"/>
</svg>