<svg width="133" height="234" viewBox="0 0 133 234" fill="none" xmlns="http://www.w3.org/2000/svg">
<rect x="20.1763" y="20.1763" width="91.7105" height="192.592" rx="5.61971" fill="#00D649"/>
<!-- <path d="M65.7839 116.601V118.502C65.7839 119.371 65.696 120.113 65.5201 120.728C65.3443 121.344 65.0909 121.848 64.7599 122.241C64.4289 122.629 64.0333 122.916 63.573 123.102C63.1127 123.283 62.6007 123.373 62.037 123.373C61.5871 123.373 61.1682 123.317 60.7803 123.203C60.3924 123.084 60.0433 122.903 59.7331 122.66C59.4279 122.411 59.1642 122.096 58.9418 121.713C58.7246 121.331 58.5565 120.873 58.4376 120.34C58.3238 119.808 58.2669 119.195 58.2669 118.502V116.601C58.2669 115.732 58.3548 114.993 58.5306 114.383C58.7117 113.772 58.9676 113.273 59.2986 112.885C59.6296 112.497 60.0252 112.216 60.4855 112.04C60.9458 111.859 61.4578 111.768 62.0215 111.768C62.4766 111.768 62.8955 111.825 63.2782 111.939C63.6661 112.053 64.0126 112.231 64.3177 112.474C64.628 112.712 64.8918 113.022 65.109 113.405C65.3262 113.783 65.4917 114.238 65.6055 114.77C65.7244 115.298 65.7839 115.908 65.7839 116.601ZM63.7359 118.781V116.314C63.7359 115.88 63.71 115.502 63.6583 115.182C63.6118 114.856 63.542 114.579 63.4489 114.351C63.3558 114.124 63.2394 113.94 63.0998 113.801C62.9602 113.656 62.7998 113.55 62.6188 113.483C62.4378 113.415 62.2387 113.382 62.0215 113.382C61.7526 113.382 61.5121 113.436 61.3001 113.545C61.088 113.648 60.9096 113.814 60.7648 114.041C60.62 114.269 60.5088 114.571 60.4312 114.949C60.3588 115.321 60.3226 115.776 60.3226 116.314V118.781C60.3226 119.215 60.3459 119.596 60.3924 119.921C60.4442 120.247 60.5166 120.526 60.6096 120.759C60.7079 120.992 60.8243 121.183 60.9587 121.333C61.0984 121.478 61.2587 121.587 61.4397 121.659C61.6207 121.726 61.8198 121.76 62.037 121.76C62.3111 121.76 62.5516 121.706 62.7585 121.597C62.9705 121.488 63.1489 121.318 63.2937 121.085C63.4385 120.847 63.5471 120.539 63.6195 120.162C63.6971 119.779 63.7359 119.319 63.7359 118.781ZM73.0837 111.83H73.3629V113.483H73.2311C72.6053 113.483 72.0545 113.578 71.5787 113.77C71.1081 113.961 70.715 114.23 70.3996 114.576C70.0893 114.918 69.854 115.324 69.6936 115.794C69.5333 116.26 69.4532 116.769 69.4532 117.323V119.153C69.4532 119.583 69.4971 119.96 69.585 120.286C69.6781 120.607 69.8048 120.878 69.9652 121.1C70.1306 121.318 70.322 121.481 70.5392 121.589C70.7616 121.698 71.0047 121.752 71.2684 121.752C71.5322 121.752 71.7701 121.698 71.9821 121.589C72.1941 121.481 72.3751 121.328 72.5251 121.132C72.6803 120.93 72.7966 120.694 72.8742 120.426C72.957 120.157 72.9983 119.862 72.9983 119.541C72.9983 119.226 72.9595 118.934 72.882 118.665C72.8044 118.396 72.6906 118.16 72.5406 117.959C72.3907 117.752 72.2045 117.594 71.9821 117.485C71.7649 117.372 71.5166 117.315 71.2374 117.315C70.8754 117.315 70.5521 117.4 70.2677 117.571C69.9833 117.736 69.7583 117.954 69.5928 118.222C69.4273 118.491 69.3368 118.776 69.3213 119.076L68.6309 118.734C68.6567 118.295 68.7498 117.891 68.9101 117.524C69.0756 117.157 69.2954 116.836 69.5695 116.562C69.8488 116.288 70.1772 116.076 70.5547 115.926C70.9374 115.776 71.3615 115.701 71.8269 115.701C72.3648 115.701 72.8354 115.805 73.2388 116.012C73.6422 116.213 73.9758 116.49 74.2395 116.842C74.5084 117.193 74.7101 117.599 74.8446 118.06C74.9791 118.515 75.0463 118.996 75.0463 119.502C75.0463 120.045 74.9584 120.552 74.7825 121.023C74.6119 121.494 74.3636 121.905 74.0378 122.256C73.712 122.608 73.319 122.882 72.8587 123.079C72.3984 123.275 71.8813 123.373 71.3072 123.373C70.7021 123.373 70.1591 123.26 69.6781 123.032C69.2023 122.805 68.7938 122.489 68.4524 122.086C68.1111 121.682 67.85 121.212 67.6689 120.674C67.4879 120.136 67.3974 119.554 67.3974 118.928V118.106C67.3974 117.222 67.519 116.399 67.762 115.639C68.0051 114.879 68.3645 114.214 68.8403 113.646C69.3213 113.071 69.916 112.627 70.6245 112.311C71.3331 111.991 72.1528 111.83 73.0837 111.83Z" fill="white"/> -->
<path d="M0 40.4698C0 37.3661 2.51603 34.8501 5.61971 34.8501H14.9859V74.1881H5.61971C2.51603 74.1881 0 71.672 0 68.5684V40.4698Z" fill="#019E1A"/>
<path d="M0 102.833C0 99.7294 2.51603 97.2134 5.61971 97.2134H14.9859V136.551H5.61971C2.51603 136.551 0 134.035 0 130.932V102.833Z" fill="#019E1A"/>
<path d="M0 165.196C0 162.092 2.51603 159.576 5.61971 159.576H14.9859V198.914H5.61971C2.51603 198.914 0 196.398 0 193.294V165.196Z" fill="#019E1A"/>
<path d="M133 40.4698C133 37.3661 130.484 34.8501 127.38 34.8501H118.014V74.1881H127.38C130.484 74.1881 133 71.672 133 68.5684V40.4698Z" fill="#019E1A"/>
<path d="M133 102.833C133 99.7294 130.484 97.2134 127.38 97.2134H118.014V136.551H127.38C130.484 136.551 133 134.035 133 130.932V102.833Z" fill="#019E1A"/>
<path d="M133 165.196C133 162.092 130.484 159.576 127.38 159.576H118.014V198.914H127.38C130.484 198.914 133 196.398 133 193.294V165.196Z" fill="#019E1A"/>
<path d="M53.3092 2.45645e-07C50.2055 1.09979e-07 47.6895 2.51603 47.6895 5.61971L47.6895 14.9859L87.0274 14.9859L87.0274 5.61971C87.0274 2.51603 84.5114 1.60954e-06 81.4077 1.47387e-06L53.3092 2.45645e-07Z" fill="#019E1A"/>
<path d="M53.3092 233.257C50.2055 233.257 47.6895 230.741 47.6895 227.637L47.6895 218.271L87.0274 218.271L87.0274 227.637C87.0274 230.741 84.5114 233.257 81.4077 233.257L53.3092 233.257Z" fill="#019E1A"/>
</svg>