<svg width="133" height="173" viewBox="0 0 133 173" fill="none" xmlns="http://www.w3.org/2000/svg">
<rect x="20.1763" y="20.1763" width="91.7105" height="132.063" rx="5.61971" fill="#00D649"/>
<!-- <path d="M63.5808 80.7107V92.0366H61.525V83.1078L58.8022 84.0076V82.3475L63.348 80.7107H63.5808ZM74.8601 85.4195V87.3201C74.8601 88.1889 74.7722 88.931 74.5964 89.5465C74.4205 90.1619 74.1671 90.6661 73.8361 91.0592C73.5051 91.4471 73.1095 91.7341 72.6492 91.9203C72.189 92.1013 71.677 92.1918 71.1133 92.1918C70.6633 92.1918 70.2444 92.1349 69.8566 92.0211C69.4687 91.9022 69.1196 91.7212 68.8093 91.4781C68.5042 91.2298 68.2404 90.9144 68.018 90.5317C67.8008 90.149 67.6327 89.6913 67.5138 89.1586C67.4 88.6259 67.3431 88.0131 67.3431 87.3201V85.4195C67.3431 84.5507 67.431 83.8111 67.6069 83.2009C67.7879 82.5906 68.0439 82.0915 68.3749 81.7037C68.7059 81.3158 69.1015 81.0339 69.5618 80.8581C70.022 80.6771 70.534 80.5866 71.0977 80.5866C71.5529 80.5866 71.9718 80.6435 72.3545 80.7573C72.7423 80.871 73.0888 81.0495 73.394 81.2925C73.7043 81.5304 73.968 81.8407 74.1852 82.2234C74.4024 82.601 74.5679 83.0561 74.6817 83.5887C74.8006 84.1162 74.8601 84.7265 74.8601 85.4195ZM72.8121 87.5993V85.1325C72.8121 84.6981 72.7863 84.3205 72.7346 83.9999C72.688 83.6741 72.6182 83.3974 72.5251 83.1698C72.432 82.9423 72.3157 82.7587 72.176 82.6191C72.0364 82.4742 71.8761 82.3682 71.6951 82.301C71.5141 82.2338 71.315 82.2001 71.0977 82.2001C70.8288 82.2001 70.5883 82.2544 70.3763 82.3631C70.1643 82.4665 69.9858 82.632 69.841 82.8595C69.6962 83.0871 69.585 83.3896 69.5075 83.7672C69.4351 84.1395 69.3989 84.5946 69.3989 85.1325V87.5993C69.3989 88.0338 69.4221 88.4139 69.4687 88.7397C69.5204 89.0655 69.5928 89.3448 69.6859 89.5775C69.7841 89.8102 69.9005 90.0016 70.035 90.1516C70.1746 90.2964 70.3349 90.405 70.5159 90.4774C70.6969 90.5446 70.8961 90.5782 71.1133 90.5782C71.3874 90.5782 71.6278 90.5239 71.8347 90.4153C72.0467 90.3067 72.2252 90.136 72.37 89.9033C72.5148 89.6654 72.6234 89.3577 72.6958 88.9802C72.7734 88.5975 72.8121 88.1372 72.8121 87.5993Z" fill="white"/> -->
<path d="M0 40.4698C0 37.3661 2.51603 34.8501 5.61971 34.8501H14.9859V74.1881H5.61971C2.51603 74.1881 0 71.672 0 68.5684V40.4698Z" fill="#019E1A"/>
<path d="M0 102.833C0 99.7294 2.51603 97.2134 5.61971 97.2134H14.9859V136.551H5.61971C2.51603 136.551 0 134.035 0 130.932V102.833Z" fill="#019E1A"/>
<path d="M133 40.4698C133 37.3661 130.484 34.8501 127.38 34.8501H118.014V74.1881H127.38C130.484 74.1881 133 71.672 133 68.5684V40.4698Z" fill="#019E1A"/>
<path d="M133 102.833C133 99.7294 130.484 97.2134 127.38 97.2134H118.014V136.551H127.38C130.484 136.551 133 134.035 133 130.932V102.833Z" fill="#019E1A"/>
<path d="M53.3092 2.45645e-07C50.2055 1.09979e-07 47.6895 2.51603 47.6895 5.61971L47.6895 14.9859L87.0274 14.9859L87.0274 5.61971C87.0274 2.51603 84.5114 1.60954e-06 81.4077 1.47387e-06L53.3092 2.45645e-07Z" fill="#019E1A"/>
<path d="M53.3092 172.728C50.2055 172.728 47.6895 170.212 47.6895 167.108L47.6895 157.742L87.0274 157.742L87.0274 167.108C87.0274 170.212 84.5114 172.728 81.4077 172.728L53.3092 172.728Z" fill="#019E1A"/>
</svg>