<svg width="37" height="64" viewBox="0 0 37 64" fill="none" xmlns="http://www.w3.org/2000/svg">
<rect width="24.871" height="52.2291" rx="1.52401" transform="matrix(1 0 0 -1 5.9375 57.7871)" fill="#2AA0F4"/>
<path d="M0.46582 52.2826C0.46582 53.1243 1.14814 53.8066 1.98983 53.8066H4.52985V43.1386H1.98983C1.14814 43.1386 0.46582 43.8209 0.46582 44.6626V52.2826Z" fill="#006CB9"/>
<path d="M0.46582 35.3705C0.46582 36.2122 1.14814 36.8945 1.98983 36.8945H4.52985V26.2265H1.98983C1.14814 26.2265 0.46582 26.9088 0.46582 27.7505V35.3705Z" fill="#006CB9"/>
<path d="M0.46582 18.4584C0.46582 19.3001 1.14814 19.9824 1.98983 19.9824H4.52985V9.31435H1.98983C1.14814 9.31435 0.46582 9.99667 0.46582 10.8384V18.4584Z" fill="#006CB9"/>
<path d="M36.5342 52.2826C36.5342 53.1243 35.8519 53.8066 35.0102 53.8066H32.4702V43.1386H35.0102C35.8519 43.1386 36.5342 43.8209 36.5342 44.6626V52.2826Z" fill="#006CB9"/>
<path d="M36.5342 35.3705C36.5342 36.2122 35.8519 36.8945 35.0102 36.8945H32.4702V26.2265H35.0102C35.8519 26.2265 36.5342 26.9088 36.5342 27.7505V35.3705Z" fill="#006CB9"/>
<path d="M36.5342 18.4584C36.5342 19.3001 35.8519 19.9824 35.0102 19.9824H32.4702V9.31435H35.0102C35.8519 9.31435 36.5342 9.99667 36.5342 10.8384V18.4584Z" fill="#006CB9"/>
<path d="M14.9229 63.2578C14.0813 63.2578 13.3989 62.5755 13.3989 61.7338L13.3989 59.1938L24.067 59.1938L24.067 61.7338C24.067 62.5755 23.3847 63.2578 22.543 63.2578L14.9229 63.2578Z" fill="#006CB9"/>
<path d="M14.9229 6.66167e-08C14.0813 2.98253e-08 13.3989 0.682323 13.3989 1.52401L13.3989 4.06403L24.067 4.06403L24.067 1.52401C24.067 0.682323 23.3847 4.36491e-07 22.543 3.997e-07L14.9229 6.66167e-08Z" fill="#006CB9"/>
</svg>
