<svg width="49" height="64" viewBox="0 0 49 64" fill="none" xmlns="http://www.w3.org/2000/svg">
<rect x="7.43359" y="7.43359" width="33.7881" height="48.6549" rx="2.07042" fill="#2AA0F4"/>
<path d="M0 14.9103C0 13.7668 0.926959 12.8398 2.07042 12.8398H5.52112V27.3328H2.07042C0.926959 27.3328 0 26.4058 0 25.2624V14.9103Z" fill="#006CB9"/>
<path d="M0 37.8849C0 36.7414 0.926959 35.8145 2.07042 35.8145H5.52112V50.3074H2.07042C0.926959 50.3074 0 49.3804 0 48.237V37.8849Z" fill="#006CB9"/>
<path d="M49 14.9103C49 13.7668 48.073 12.8398 46.9296 12.8398H43.4789V27.3328H46.9296C48.073 27.3328 49 26.4058 49 25.2624V14.9103Z" fill="#006CB9"/>
<path d="M49 37.8849C49 36.7414 48.073 35.8145 46.9296 35.8145H43.4789V50.3074H46.9296C48.073 50.3074 49 49.3804 49 48.237V37.8849Z" fill="#006CB9"/>
<path d="M19.6402 9.05008e-08C18.4968 4.05186e-08 17.5698 0.926959 17.5698 2.07042L17.5698 5.52112L32.0628 5.52112L32.0628 2.07042C32.0628 0.926959 31.1358 5.92988e-07 29.9923 5.43006e-07L19.6402 9.05008e-08Z" fill="#006CB9"/>
<path d="M19.6402 63.6367C18.4968 63.6367 17.5698 62.7098 17.5698 61.5663L17.5698 58.1156L32.0628 58.1156L32.0628 61.5663C32.0628 62.7098 31.1358 63.6367 29.9923 63.6367L19.6402 63.6367Z" fill="#006CB9"/>
</svg>