<svg width="63" height="62" viewBox="0 0 63 62" fill="none" xmlns="http://www.w3.org/2000/svg">
<rect x="10.2061" y="9.23242" width="43.0922" height="43.0922" rx="2.6383" fill="#2AA0F4"/>
<path d="M0.532227 24.1852C0.532227 22.7281 1.71343 21.5469 3.17052 21.5469H7.56769V40.015H3.17052C1.71343 40.015 0.532227 38.8338 0.532227 37.3767V24.1852Z" fill="#006CB9"/>
<path d="M62.9717 24.1852C62.9717 22.7281 61.7905 21.5469 60.3334 21.5469H55.9362V40.015H60.3334C61.7905 40.015 62.9717 38.8338 62.9717 37.3767V24.1852Z" fill="#006CB9"/>
<path d="M25.1564 1.15324e-07C23.6993 5.16322e-08 22.5181 1.18121 22.5181 2.6383L22.5181 7.03546L40.9861 7.03546L40.9861 2.6383C40.9861 1.18121 39.8049 7.55633e-07 38.3479 6.91942e-07L25.1564 1.15324e-07Z" fill="#006CB9"/>
<path d="M25.1564 62C23.6993 62 22.5181 60.8188 22.5181 59.3617L22.5181 54.9645L40.9861 54.9645L40.9861 59.3617C40.9861 60.8188 39.8049 62 38.3479 62L25.1564 62Z" fill="#006CB9"/>
</svg>
