<svg width="70" height="134" viewBox="0 0 70 134" fill="none" xmlns="http://www.w3.org/2000/svg">
<rect y="20.8108" width="70" height="92.7027" rx="5.67568" fill="#2AA0F4"/>
<!-- <path d="M33.7109 65.3359V67.25C33.7109 68.125 33.6224 68.8724 33.4453 69.4922C33.2682 70.112 33.013 70.6198 32.6797 71.0156C32.3464 71.4062 31.9479 71.6953 31.4844 71.8828C31.0208 72.0651 30.5052 72.1562 29.9375 72.1562C29.4844 72.1562 29.0625 72.099 28.6719 71.9844C28.2812 71.8646 27.9297 71.6823 27.6172 71.4375C27.3099 71.1875 27.0443 70.8698 26.8203 70.4844C26.6016 70.099 26.4323 69.638 26.3125 69.1016C26.1979 68.5651 26.1406 67.9479 26.1406 67.25V65.3359C26.1406 64.4609 26.2292 63.7161 26.4062 63.1016C26.5885 62.487 26.8464 61.9844 27.1797 61.5938C27.513 61.2031 27.9115 60.9193 28.375 60.7422C28.8385 60.5599 29.3542 60.4688 29.9219 60.4688C30.3802 60.4688 30.8021 60.526 31.1875 60.6406C31.5781 60.7552 31.9271 60.9349 32.2344 61.1797C32.5469 61.4193 32.8125 61.7318 33.0312 62.1172C33.25 62.4974 33.4167 62.9557 33.5312 63.4922C33.651 64.0234 33.7109 64.638 33.7109 65.3359ZM31.6484 67.5312V65.0469C31.6484 64.6094 31.6224 64.2292 31.5703 63.9062C31.5234 63.5781 31.4531 63.2995 31.3594 63.0703C31.2656 62.8411 31.1484 62.6562 31.0078 62.5156C30.8672 62.3698 30.7057 62.263 30.5234 62.1953C30.3411 62.1276 30.1406 62.0938 29.9219 62.0938C29.651 62.0938 29.4089 62.1484 29.1953 62.2578C28.9818 62.362 28.8021 62.5286 28.6562 62.7578C28.5104 62.987 28.3984 63.2917 28.3203 63.6719C28.2474 64.0469 28.2109 64.5052 28.2109 65.0469V67.5312C28.2109 67.9688 28.2344 68.3516 28.2812 68.6797C28.3333 69.0078 28.4062 69.2891 28.5 69.5234C28.599 69.7578 28.7161 69.9505 28.8516 70.1016C28.9922 70.2474 29.1536 70.3568 29.3359 70.4297C29.5182 70.4974 29.7188 70.5312 29.9375 70.5312C30.2135 70.5312 30.4557 70.4766 30.6641 70.3672C30.8776 70.2578 31.0573 70.0859 31.2031 69.8516C31.349 69.612 31.4583 69.3021 31.5312 68.9219C31.6094 68.5365 31.6484 68.0729 31.6484 67.5312ZM37.5781 65.3984H38.7422C39.1536 65.3984 39.4922 65.3281 39.7578 65.1875C40.0286 65.0417 40.2292 64.8438 40.3594 64.5938C40.4948 64.3385 40.5625 64.0443 40.5625 63.7109C40.5625 63.3828 40.5026 63.099 40.3828 62.8594C40.263 62.6146 40.0807 62.4271 39.8359 62.2969C39.5964 62.1615 39.2891 62.0938 38.9141 62.0938C38.612 62.0938 38.3333 62.1536 38.0781 62.2734C37.8281 62.3932 37.6276 62.5651 37.4766 62.7891C37.3307 63.0078 37.2578 63.2708 37.2578 63.5781H35.1875C35.1875 62.9635 35.349 62.4245 35.6719 61.9609C36 61.4922 36.4427 61.125 37 60.8594C37.5573 60.5938 38.1797 60.4609 38.8672 60.4609C39.6172 60.4609 40.2734 60.5859 40.8359 60.8359C41.4036 61.0807 41.8438 61.4427 42.1562 61.9219C42.474 62.401 42.6328 62.9948 42.6328 63.7031C42.6328 64.0417 42.5521 64.3802 42.3906 64.7188C42.2344 65.0521 42.0026 65.3542 41.6953 65.625C41.3932 65.8906 41.0208 66.1068 40.5781 66.2734C40.1406 66.4349 39.638 66.5156 39.0703 66.5156H37.5781V65.3984ZM37.5781 66.9922V65.8906H39.0703C39.7109 65.8906 40.2656 65.9661 40.7344 66.1172C41.2083 66.263 41.599 66.4714 41.9062 66.7422C42.2135 67.0078 42.4401 67.3177 42.5859 67.6719C42.737 68.026 42.8125 68.4062 42.8125 68.8125C42.8125 69.3438 42.7135 69.8177 42.5156 70.2344C42.3177 70.6458 42.0391 70.9948 41.6797 71.2812C41.3255 71.5677 40.9089 71.7865 40.4297 71.9375C39.9505 72.0833 39.4323 72.1562 38.875 72.1562C38.3906 72.1562 37.9193 72.0911 37.4609 71.9609C37.0078 71.8255 36.599 71.625 36.2344 71.3594C35.8698 71.0885 35.5807 70.75 35.3672 70.3438C35.1536 69.9323 35.0469 69.4557 35.0469 68.9141H37.1172C37.1172 69.2266 37.1927 69.5052 37.3438 69.75C37.5 69.9948 37.7135 70.1875 37.9844 70.3281C38.2604 70.4635 38.5703 70.5312 38.9141 70.5312C39.2943 70.5312 39.6198 70.4635 39.8906 70.3281C40.1667 70.1875 40.3776 69.9896 40.5234 69.7344C40.6693 69.474 40.7422 69.1641 40.7422 68.8047C40.7422 68.3776 40.6615 68.0312 40.5 67.7656C40.3385 67.5 40.1068 67.3047 39.8047 67.1797C39.5078 67.0547 39.1536 66.9922 38.7422 66.9922H37.5781Z" fill="white"/> -->
<path d="M20.8108 2.48092e-07C17.6762 1.11074e-07 15.1351 2.54109 15.1351 5.67568L15.1351 15.1351L54.8649 15.1351L54.8649 5.67568C54.8649 2.54109 52.3238 1.62557e-06 49.1892 1.48855e-06L20.8108 2.48092e-07Z" fill="#006CB9"/>
<path d="M20.8108 133.378C17.6762 133.378 15.1351 130.837 15.1351 127.703L15.1351 118.243L54.8649 118.243L54.8649 127.703C54.8649 130.837 52.3238 133.378 49.1892 133.378L20.8108 133.378Z" fill="#006CB9"/>
</svg>