<svg width="135" height="133" viewBox="0 0 135 133" fill="none" xmlns="http://www.w3.org/2000/svg">
<rect x="21.6952" y="19.8086" width="92.4397" height="92.4397" rx="5.65957" fill="#2AA0F4"/>
<!-- <path d="M67.126 65.3359V67.25C67.126 68.125 67.0374 68.8724 66.8604 69.4922C66.6833 70.112 66.4281 70.6198 66.0947 71.0156C65.7614 71.4062 65.363 71.6953 64.8994 71.8828C64.4359 72.0651 63.9202 72.1562 63.3525 72.1562C62.8994 72.1562 62.4775 72.099 62.0869 71.9844C61.6963 71.8646 61.3447 71.6823 61.0322 71.4375C60.7249 71.1875 60.4593 70.8698 60.2354 70.4844C60.0166 70.099 59.8473 69.638 59.7275 69.1016C59.613 68.5651 59.5557 67.9479 59.5557 67.25V65.3359C59.5557 64.4609 59.6442 63.7161 59.8213 63.1016C60.0036 62.487 60.2614 61.9844 60.5947 61.5938C60.9281 61.2031 61.3265 60.9193 61.79 60.7422C62.2536 60.5599 62.7692 60.4688 63.3369 60.4688C63.7952 60.4688 64.2171 60.526 64.6025 60.6406C64.9932 60.7552 65.3421 60.9349 65.6494 61.1797C65.9619 61.4193 66.2275 61.7318 66.4463 62.1172C66.665 62.4974 66.8317 62.9557 66.9463 63.4922C67.0661 64.0234 67.126 64.638 67.126 65.3359ZM65.0635 67.5312V65.0469C65.0635 64.6094 65.0374 64.2292 64.9854 63.9062C64.9385 63.5781 64.8682 63.2995 64.7744 63.0703C64.6807 62.8411 64.5635 62.6562 64.4229 62.5156C64.2822 62.3698 64.1208 62.263 63.9385 62.1953C63.7562 62.1276 63.5557 62.0938 63.3369 62.0938C63.0661 62.0938 62.8239 62.1484 62.6104 62.2578C62.3968 62.362 62.2171 62.5286 62.0713 62.7578C61.9255 62.987 61.8135 63.2917 61.7354 63.6719C61.6624 64.0469 61.626 64.5052 61.626 65.0469V67.5312C61.626 67.9688 61.6494 68.3516 61.6963 68.6797C61.7484 69.0078 61.8213 69.2891 61.915 69.5234C62.014 69.7578 62.1312 69.9505 62.2666 70.1016C62.4072 70.2474 62.5687 70.3568 62.751 70.4297C62.9333 70.4974 63.1338 70.5312 63.3525 70.5312C63.6286 70.5312 63.8708 70.4766 64.0791 70.3672C64.2926 70.2578 64.4723 70.0859 64.6182 69.8516C64.764 69.612 64.8734 69.3021 64.9463 68.9219C65.0244 68.5365 65.0635 68.0729 65.0635 67.5312ZM76.4385 70.375V72H68.7354V70.6094L72.4307 66.6172C72.8161 66.1797 73.1208 65.7995 73.3447 65.4766C73.5687 65.1536 73.7275 64.862 73.8213 64.6016C73.9202 64.3359 73.9697 64.0833 73.9697 63.8438C73.9697 63.4948 73.9072 63.1901 73.7822 62.9297C73.6572 62.6641 73.4749 62.4583 73.2354 62.3125C73.001 62.1667 72.7119 62.0938 72.3682 62.0938C71.988 62.0938 71.6624 62.1823 71.3916 62.3594C71.126 62.5312 70.9229 62.7708 70.7822 63.0781C70.6468 63.3854 70.5791 63.737 70.5791 64.1328H68.5088C68.5088 63.4609 68.665 62.849 68.9775 62.2969C69.29 61.7396 69.738 61.2943 70.3213 60.9609C70.9046 60.6276 71.5973 60.4609 72.3994 60.4609C73.1807 60.4609 73.8421 60.5911 74.3838 60.8516C74.9255 61.1068 75.3369 61.4714 75.6182 61.9453C75.8994 62.4193 76.04 62.9844 76.04 63.6406C76.04 64.0052 75.9801 64.3646 75.8604 64.7188C75.7406 65.0729 75.5713 65.4245 75.3525 65.7734C75.139 66.1172 74.8838 66.4661 74.5869 66.8203C74.29 67.1745 73.9593 67.5365 73.5947 67.9062L71.376 70.375H76.4385Z" fill="white"/> -->
<path d="M0.94342 51.8795C0.94342 48.7538 3.4773 46.22 6.603 46.22H16.0356V85.837H6.603C3.4773 85.837 0.94342 83.3031 0.94342 80.1774V51.8795Z" fill="#006CB9"/>
<path d="M134.887 51.8795C134.887 48.7538 132.353 46.22 129.227 46.22H119.794V85.837H129.227C132.353 85.837 134.887 83.3031 134.887 80.1774V51.8795Z" fill="#006CB9"/>
<path d="M53.7661 2.47388e-07C50.6404 1.10759e-07 48.1065 2.53388 48.1065 5.65957L48.1065 15.0922L87.7235 15.0922L87.7235 5.65958C87.7235 2.53388 85.1896 1.62096e-06 82.064 1.48433e-06L53.7661 2.47388e-07Z" fill="#006CB9"/>
<path d="M53.7661 133C50.6404 133 48.1065 130.466 48.1065 127.34L48.1065 117.908L87.7235 117.908L87.7235 127.34C87.7235 130.466 85.1896 133 82.064 133L53.7661 133Z" fill="#006CB9"/>
</svg>