<svg width="135" height="133" viewBox="0 0 135 133" fill="none" xmlns="http://www.w3.org/2000/svg">
<rect x="21.5818" y="19.8086" width="92.4397" height="92.4397" rx="5.65957" fill="#2AA0F4"/>
<!-- <path d="M64.7939 60.5938V72H62.7236V63.0078L59.9814 63.9141V62.2422L64.5596 60.5938H64.7939ZM76.5205 67.8516V69.4766H68.3252L68.2393 68.2266L73.0596 60.625H74.708L72.9268 63.6484L70.3408 67.8516H76.5205ZM75.1689 60.625V72H73.0986V60.625H75.1689Z" fill="white"/> -->
<path d="M0.830078 51.8795C0.830078 48.7538 3.36396 46.22 6.48965 46.22H15.9223V85.837H6.48965C3.36396 85.837 0.830078 83.3031 0.830078 80.1774V51.8795Z" fill="#006CB9"/>
<path d="M134.773 51.8795C134.773 48.7538 132.24 46.22 129.114 46.22H119.681V85.837H129.114C132.24 85.837 134.773 83.3031 134.773 80.1774V51.8795Z" fill="#006CB9"/>
<path d="M53.6527 2.47388e-07C50.527 1.10759e-07 47.9932 2.53388 47.9932 5.65957L47.9932 15.0922L87.6102 15.0922L87.6102 5.65958C87.6102 2.53388 85.0763 1.62096e-06 81.9506 1.48433e-06L53.6527 2.47388e-07Z" fill="#006CB9"/>
<path d="M53.6527 133C50.527 133 47.9932 130.466 47.9932 127.34L47.9932 117.908L87.6102 117.908L87.6102 127.34C87.6102 130.466 85.0763 133 81.9506 133L53.6527 133Z" fill="#006CB9"/>
</svg>