<svg width="133" height="173" viewBox="0 0 133 173" fill="none" xmlns="http://www.w3.org/2000/svg">
<rect x="20.1763" y="20.1763" width="91.7105" height="132.063" rx="5.61971" fill="#5D7898"/>
<!-- <path d="M65.7839 85.4197V87.3203C65.7839 88.1892 65.696 88.9313 65.5202 89.5467C65.3443 90.1621 65.0909 90.6664 64.76 91.0594C64.429 91.4473 64.0333 91.7343 63.5731 91.9205C63.1128 92.1015 62.6008 92.192 62.0371 92.192C61.5871 92.192 61.1682 92.1351 60.7804 92.0214C60.3925 91.9024 60.0434 91.7214 59.7331 91.4783C59.428 91.2301 59.1642 90.9146 58.9418 90.5319C58.7246 90.1492 58.5566 89.6915 58.4376 89.1588C58.3238 88.6262 58.2669 88.0133 58.2669 87.3203V85.4197C58.2669 84.5509 58.3549 83.8114 58.5307 83.2011C58.7117 82.5909 58.9677 82.0918 59.2987 81.7039C59.6297 81.316 60.0253 81.0342 60.4856 80.8583C60.9459 80.6773 61.4579 80.5868 62.0216 80.5868C62.4767 80.5868 62.8956 80.6437 63.2783 80.7575C63.6661 80.8713 64.0126 81.0497 64.3178 81.2928C64.6281 81.5307 64.8918 81.841 65.109 82.2237C65.3262 82.6012 65.4917 83.0563 65.6055 83.589C65.7245 84.1165 65.7839 84.7267 65.7839 85.4197ZM63.736 87.5996V85.1327C63.736 84.6983 63.7101 84.3208 63.6584 84.0001C63.6118 83.6743 63.542 83.3976 63.4489 83.1701C63.3559 82.9425 63.2395 82.7589 63.0999 82.6193C62.9602 82.4745 62.7999 82.3685 62.6189 82.3012C62.4379 82.234 62.2388 82.2004 62.0216 82.2004C61.7526 82.2004 61.5122 82.2547 61.3001 82.3633C61.0881 82.4667 60.9097 82.6322 60.7649 82.8598C60.62 83.0873 60.5089 83.3899 60.4313 83.7674C60.3589 84.1398 60.3227 84.5949 60.3227 85.1327V87.5996C60.3227 88.034 60.346 88.4141 60.3925 88.7399C60.4442 89.0658 60.5166 89.345 60.6097 89.5777C60.708 89.8105 60.8243 90.0018 60.9588 90.1518C61.0984 90.2966 61.2587 90.4052 61.4398 90.4776C61.6208 90.5448 61.8199 90.5785 62.0371 90.5785C62.3112 90.5785 62.5517 90.5242 62.7585 90.4156C62.9706 90.3069 63.149 90.1363 63.2938 89.9036C63.4386 89.6657 63.5472 89.358 63.6196 88.9804C63.6972 88.5977 63.736 88.1374 63.736 87.5996ZM72.6571 80.711V92.0369H70.6013V83.108L67.8785 84.0079V82.3478L72.4243 80.711H72.6571Z" fill="white"/> -->
<path d="M0 40.4698C0 37.3661 2.51603 34.8501 5.61971 34.8501H14.9859V74.1881H5.61971C2.51603 74.1881 0 71.672 0 68.5684V40.4698Z" fill="#394C61"/>
<path d="M0 102.833C0 99.7292 2.51603 97.2131 5.61971 97.2131H14.9859V136.551H5.61971C2.51603 136.551 0 134.035 0 130.931V102.833Z" fill="#394C61"/>
<path d="M133 40.4698C133 37.3661 130.484 34.8501 127.38 34.8501H118.014V74.1881H127.38C130.484 74.1881 133 71.672 133 68.5684V40.4698Z" fill="#394C61"/>
<path d="M133 102.833C133 99.7292 130.484 97.2131 127.38 97.2131H118.014V136.551H127.38C130.484 136.551 133 134.035 133 130.931V102.833Z" fill="#394C61"/>
<path d="M53.3092 2.45645e-07C50.2055 1.09979e-07 47.6895 2.51603 47.6895 5.61971L47.6895 14.9859L87.0274 14.9859L87.0274 5.61971C87.0274 2.51603 84.5114 1.60954e-06 81.4077 1.47387e-06L53.3092 2.45645e-07Z" fill="#394C61"/>
<path d="M53.3092 172.728C50.2055 172.728 47.6895 170.212 47.6895 167.108L47.6895 157.742L87.0274 157.742L87.0274 167.108C87.0274 170.212 84.5114 172.728 81.4077 172.728L53.3092 172.728Z" fill="#394C61"/>
</svg>