<svg width="133" height="234" viewBox="0 0 133 234" fill="none" xmlns="http://www.w3.org/2000/svg">
<rect x="20.1763" y="20.1763" width="91.7105" height="192.592" rx="5.61971" fill="#2AA0F4"/>
<!-- <path d="M63.5808 111.892V123.218H61.525V114.289L58.8022 115.189V113.529L63.348 111.892H63.5808ZM74.8601 116.601V118.502C74.8601 119.371 74.7722 120.113 74.5964 120.728C74.4205 121.344 74.1671 121.848 73.8361 122.241C73.5051 122.629 73.1095 122.916 72.6492 123.102C72.189 123.283 71.677 123.373 71.1133 123.373C70.6633 123.373 70.2444 123.317 69.8566 123.203C69.4687 123.084 69.1196 122.903 68.8093 122.66C68.5042 122.411 68.2404 122.096 68.018 121.713C67.8008 121.331 67.6327 120.873 67.5138 120.34C67.4 119.808 67.3431 119.195 67.3431 118.502V116.601C67.3431 115.732 67.431 114.993 67.6069 114.383C67.7879 113.772 68.0439 113.273 68.3749 112.885C68.7059 112.497 69.1015 112.216 69.5618 112.04C70.022 111.859 70.534 111.768 71.0977 111.768C71.5529 111.768 71.9718 111.825 72.3545 111.939C72.7423 112.053 73.0888 112.231 73.394 112.474C73.7043 112.712 73.968 113.022 74.1852 113.405C74.4024 113.783 74.5679 114.238 74.6817 114.77C74.8006 115.298 74.8601 115.908 74.8601 116.601ZM72.8121 118.781V116.314C72.8121 115.88 72.7863 115.502 72.7346 115.182C72.688 114.856 72.6182 114.579 72.5251 114.351C72.432 114.124 72.3157 113.94 72.176 113.801C72.0364 113.656 71.8761 113.55 71.6951 113.483C71.5141 113.415 71.315 113.382 71.0977 113.382C70.8288 113.382 70.5883 113.436 70.3763 113.545C70.1643 113.648 69.9858 113.814 69.841 114.041C69.6962 114.269 69.585 114.571 69.5075 114.949C69.4351 115.321 69.3989 115.776 69.3989 116.314V118.781C69.3989 119.215 69.4221 119.596 69.4687 119.921C69.5204 120.247 69.5928 120.526 69.6859 120.759C69.7841 120.992 69.9005 121.183 70.035 121.333C70.1746 121.478 70.3349 121.587 70.5159 121.659C70.6969 121.726 70.8961 121.76 71.1133 121.76C71.3874 121.76 71.6278 121.706 71.8347 121.597C72.0467 121.488 72.2252 121.318 72.37 121.085C72.5148 120.847 72.6234 120.539 72.6958 120.162C72.7734 119.779 72.8121 119.319 72.8121 118.781Z" fill="white"/> -->
<path d="M0 40.4698C0 37.3661 2.51603 34.8501 5.61971 34.8501H14.9859V74.1881H5.61971C2.51603 74.1881 0 71.672 0 68.5684V40.4698Z" fill="#006CB9"/>
<path d="M0 102.833C0 99.7294 2.51603 97.2134 5.61971 97.2134H14.9859V136.551H5.61971C2.51603 136.551 0 134.035 0 130.932V102.833Z" fill="#006CB9"/>
<path d="M0 165.196C0 162.092 2.51603 159.576 5.61971 159.576H14.9859V198.914H5.61971C2.51603 198.914 0 196.398 0 193.294V165.196Z" fill="#006CB9"/>
<path d="M133 40.4698C133 37.3661 130.484 34.8501 127.38 34.8501H118.014V74.1881H127.38C130.484 74.1881 133 71.672 133 68.5684V40.4698Z" fill="#006CB9"/>
<path d="M133 102.833C133 99.7294 130.484 97.2134 127.38 97.2134H118.014V136.551H127.38C130.484 136.551 133 134.035 133 130.932V102.833Z" fill="#006CB9"/>
<path d="M133 165.196C133 162.092 130.484 159.576 127.38 159.576H118.014V198.914H127.38C130.484 198.914 133 196.398 133 193.294V165.196Z" fill="#006CB9"/>
<path d="M53.3092 2.45645e-07C50.2055 1.09979e-07 47.6895 2.51603 47.6895 5.61971L47.6895 14.9859L87.0274 14.9859L87.0274 5.61971C87.0274 2.51603 84.5114 1.60954e-06 81.4077 1.47387e-06L53.3092 2.45645e-07Z" fill="#006CB9"/>
<path d="M53.3092 233.257C50.2055 233.257 47.6895 230.741 47.6895 227.637L47.6895 218.271L87.0274 218.271L87.0274 227.637C87.0274 230.741 84.5114 233.257 81.4077 233.257L53.3092 233.257Z" fill="#006CB9"/>
</svg>