<svg width="134" height="133" viewBox="0 0 134 133" fill="none" xmlns="http://www.w3.org/2000/svg">
<rect x="20.7518" y="19.8086" width="92.4397" height="92.4397" rx="5.65957" fill="#5D7898"/>
<!-- <path d="M66.1826 65.3359V67.25C66.1826 68.125 66.0941 68.8724 65.917 69.4922C65.7399 70.112 65.4847 70.6198 65.1514 71.0156C64.818 71.4062 64.4196 71.6953 63.9561 71.8828C63.4925 72.0651 62.9769 72.1562 62.4092 72.1562C61.9561 72.1562 61.5342 72.099 61.1436 71.9844C60.7529 71.8646 60.4014 71.6823 60.0889 71.4375C59.7816 71.1875 59.516 70.8698 59.292 70.4844C59.0732 70.099 58.904 69.638 58.7842 69.1016C58.6696 68.5651 58.6123 67.9479 58.6123 67.25V65.3359C58.6123 64.4609 58.7008 63.7161 58.8779 63.1016C59.0602 62.487 59.318 61.9844 59.6514 61.5938C59.9847 61.2031 60.3831 60.9193 60.8467 60.7422C61.3102 60.5599 61.8258 60.4688 62.3936 60.4688C62.8519 60.4688 63.2738 60.526 63.6592 60.6406C64.0498 60.7552 64.3988 60.9349 64.7061 61.1797C65.0186 61.4193 65.2842 61.7318 65.5029 62.1172C65.7217 62.4974 65.8883 62.9557 66.0029 63.4922C66.1227 64.0234 66.1826 64.638 66.1826 65.3359ZM64.1201 67.5312V65.0469C64.1201 64.6094 64.0941 64.2292 64.042 63.9062C63.9951 63.5781 63.9248 63.2995 63.8311 63.0703C63.7373 62.8411 63.6201 62.6562 63.4795 62.5156C63.3389 62.3698 63.1774 62.263 62.9951 62.1953C62.8128 62.1276 62.6123 62.0938 62.3936 62.0938C62.1227 62.0938 61.8805 62.1484 61.667 62.2578C61.4535 62.362 61.2738 62.5286 61.1279 62.7578C60.9821 62.987 60.8701 63.2917 60.792 63.6719C60.7191 64.0469 60.6826 64.5052 60.6826 65.0469V67.5312C60.6826 67.9688 60.7061 68.3516 60.7529 68.6797C60.805 69.0078 60.8779 69.2891 60.9717 69.5234C61.0706 69.7578 61.1878 69.9505 61.3232 70.1016C61.4639 70.2474 61.6253 70.3568 61.8076 70.4297C61.9899 70.4974 62.1904 70.5312 62.4092 70.5312C62.6852 70.5312 62.9274 70.4766 63.1357 70.3672C63.3493 70.2578 63.529 70.0859 63.6748 69.8516C63.8206 69.612 63.93 69.3021 64.0029 68.9219C64.0811 68.5365 64.1201 68.0729 64.1201 67.5312ZM73.1045 60.5938V72H71.0342V63.0078L68.292 63.9141V62.2422L72.8701 60.5938H73.1045Z" fill="white"/> -->
<path d="M0 51.8795C0 48.7538 2.53388 46.22 5.65957 46.22H15.0922V85.837H5.65958C2.53388 85.837 0 83.3031 0 80.1774V51.8795Z" fill="#394C61"/>
<path d="M133.943 51.8795C133.943 48.7538 131.409 46.22 128.284 46.22H118.851V85.837H128.284C131.409 85.837 133.943 83.3031 133.943 80.1774V51.8795Z" fill="#394C61"/>
<path d="M52.8228 2.47388e-07C49.6971 1.10759e-07 47.1632 2.53388 47.1632 5.65957L47.1632 15.0922L86.7802 15.0922L86.7802 5.65958C86.7802 2.53388 84.2463 1.62096e-06 81.1207 1.48433e-06L52.8228 2.47388e-07Z" fill="#394C61"/>
<path d="M52.8228 133C49.6971 133 47.1632 130.466 47.1632 127.34L47.1632 117.908L86.7802 117.908L86.7802 127.34C86.7802 130.466 84.2463 133 81.1207 133L52.8228 133Z" fill="#394C61"/>
</svg>