<svg width="70" height="134" viewBox="0 0 70 134" fill="none" xmlns="http://www.w3.org/2000/svg">
<rect y="20.8108" width="70" height="92.7027" rx="5.67568" fill="#5D7898"/>
<!-- <path d="M33.7109 65.3359V67.25C33.7109 68.125 33.6224 68.8724 33.4453 69.4922C33.2682 70.112 33.013 70.6198 32.6797 71.0156C32.3464 71.4062 31.9479 71.6953 31.4844 71.8828C31.0208 72.0651 30.5052 72.1562 29.9375 72.1562C29.4844 72.1562 29.0625 72.099 28.6719 71.9844C28.2812 71.8646 27.9297 71.6823 27.6172 71.4375C27.3099 71.1875 27.0443 70.8698 26.8203 70.4844C26.6016 70.099 26.4323 69.638 26.3125 69.1016C26.1979 68.5651 26.1406 67.9479 26.1406 67.25V65.3359C26.1406 64.4609 26.2292 63.7161 26.4062 63.1016C26.5885 62.487 26.8464 61.9844 27.1797 61.5938C27.513 61.2031 27.9115 60.9193 28.375 60.7422C28.8385 60.5599 29.3542 60.4688 29.9219 60.4688C30.3802 60.4688 30.8021 60.526 31.1875 60.6406C31.5781 60.7552 31.9271 60.9349 32.2344 61.1797C32.5469 61.4193 32.8125 61.7318 33.0312 62.1172C33.25 62.4974 33.4167 62.9557 33.5312 63.4922C33.651 64.0234 33.7109 64.638 33.7109 65.3359ZM31.6484 67.5312V65.0469C31.6484 64.6094 31.6224 64.2292 31.5703 63.9062C31.5234 63.5781 31.4531 63.2995 31.3594 63.0703C31.2656 62.8411 31.1484 62.6562 31.0078 62.5156C30.8672 62.3698 30.7057 62.263 30.5234 62.1953C30.3411 62.1276 30.1406 62.0938 29.9219 62.0938C29.651 62.0938 29.4089 62.1484 29.1953 62.2578C28.9818 62.362 28.8021 62.5286 28.6562 62.7578C28.5104 62.987 28.3984 63.2917 28.3203 63.6719C28.2474 64.0469 28.2109 64.5052 28.2109 65.0469V67.5312C28.2109 67.9688 28.2344 68.3516 28.2812 68.6797C28.3333 69.0078 28.4062 69.2891 28.5 69.5234C28.599 69.7578 28.7161 69.9505 28.8516 70.1016C28.9922 70.2474 29.1536 70.3568 29.3359 70.4297C29.5182 70.4974 29.7188 70.5312 29.9375 70.5312C30.2135 70.5312 30.4557 70.4766 30.6641 70.3672C30.8776 70.2578 31.0573 70.0859 31.2031 69.8516C31.349 69.612 31.4583 69.3021 31.5312 68.9219C31.6094 68.5365 31.6484 68.0729 31.6484 67.5312ZM40.6328 60.5938V72H38.5625V63.0078L35.8203 63.9141V62.2422L40.3984 60.5938H40.6328Z" fill="white"/> -->
<path d="M20.8108 2.48092e-07C17.6762 1.11074e-07 15.1351 2.54109 15.1351 5.67568L15.1351 15.1351L54.8649 15.1351L54.8649 5.67568C54.8649 2.54109 52.3238 1.62557e-06 49.1892 1.48855e-06L20.8108 2.48092e-07Z" fill="#394C61"/>
<path d="M20.8108 133.378C17.6762 133.378 15.1351 130.837 15.1351 127.703L15.1351 118.243L54.8649 118.243L54.8649 127.703C54.8649 130.837 52.3238 133.378 49.1892 133.378L20.8108 133.378Z" fill="#394C61"/>
</svg>