<svg width="133" height="234" viewBox="0 0 133 234" fill="none" xmlns="http://www.w3.org/2000/svg">
<rect x="20.1763" y="20.1763" width="91.7105" height="192.592" rx="5.61971" fill="#2AA0F4"/>
<!-- <path d="M65.7839 116.601V118.502C65.7839 119.371 65.696 120.113 65.5202 120.728C65.3443 121.344 65.0909 121.848 64.76 122.241C64.429 122.629 64.0333 122.916 63.5731 123.102C63.1128 123.283 62.6008 123.373 62.0371 123.373C61.5871 123.373 61.1682 123.317 60.7804 123.203C60.3925 123.084 60.0434 122.903 59.7331 122.66C59.428 122.411 59.1642 122.096 58.9418 121.713C58.7246 121.331 58.5566 120.873 58.4376 120.34C58.3238 119.808 58.2669 119.195 58.2669 118.502V116.601C58.2669 115.732 58.3549 114.993 58.5307 114.383C58.7117 113.772 58.9677 113.273 59.2987 112.885C59.6297 112.497 60.0253 112.216 60.4856 112.04C60.9459 111.859 61.4579 111.768 62.0216 111.768C62.4767 111.768 62.8956 111.825 63.2783 111.939C63.6661 112.053 64.0126 112.231 64.3178 112.474C64.6281 112.712 64.8918 113.022 65.109 113.405C65.3262 113.783 65.4917 114.238 65.6055 114.77C65.7245 115.298 65.7839 115.908 65.7839 116.601ZM63.736 118.781V116.314C63.736 115.88 63.7101 115.502 63.6584 115.182C63.6118 114.856 63.542 114.579 63.4489 114.351C63.3559 114.124 63.2395 113.94 63.0999 113.801C62.9602 113.656 62.7999 113.55 62.6189 113.483C62.4379 113.415 62.2388 113.382 62.0216 113.382C61.7526 113.382 61.5122 113.436 61.3001 113.545C61.0881 113.648 60.9097 113.814 60.7649 114.041C60.62 114.269 60.5089 114.571 60.4313 114.949C60.3589 115.321 60.3227 115.776 60.3227 116.314V118.781C60.3227 119.215 60.346 119.596 60.3925 119.921C60.4442 120.247 60.5166 120.526 60.6097 120.759C60.708 120.992 60.8243 121.183 60.9588 121.333C61.0984 121.478 61.2587 121.587 61.4398 121.659C61.6208 121.726 61.8199 121.76 62.0371 121.76C62.3112 121.76 62.5517 121.706 62.7585 121.597C62.9706 121.488 63.149 121.318 63.2938 121.085C63.4386 120.847 63.5472 120.539 63.6196 120.162C63.6972 119.779 63.736 119.319 63.736 118.781ZM75.0308 121.605V123.218H67.382V121.837L71.0513 117.873C71.434 117.439 71.7365 117.061 71.9589 116.741C72.1813 116.42 72.339 116.131 72.4321 115.872C72.5304 115.608 72.5795 115.357 72.5795 115.119C72.5795 114.773 72.5174 114.47 72.3933 114.212C72.2692 113.948 72.0882 113.744 71.8503 113.599C71.6176 113.454 71.3305 113.382 70.9892 113.382C70.6117 113.382 70.2884 113.47 70.0195 113.646C69.7558 113.816 69.5541 114.054 69.4144 114.359C69.28 114.664 69.2127 115.013 69.2127 115.406H67.157C67.157 114.739 67.3122 114.132 67.6225 113.583C67.9328 113.03 68.3775 112.588 68.9567 112.257C69.536 111.926 70.2238 111.76 71.0202 111.76C71.796 111.76 72.4528 111.89 72.9906 112.148C73.5285 112.402 73.937 112.764 74.2163 113.234C74.4956 113.705 74.6352 114.266 74.6352 114.918C74.6352 115.28 74.5757 115.637 74.4568 115.988C74.3378 116.34 74.1698 116.689 73.9526 117.036C73.7405 117.377 73.4871 117.723 73.1923 118.075C72.8975 118.427 72.5691 118.786 72.2071 119.153L70.004 121.605H75.0308Z" fill="white"/> -->
<path d="M0 40.4698C0 37.3661 2.51603 34.8501 5.61971 34.8501H14.9859V74.1881H5.61971C2.51603 74.1881 0 71.672 0 68.5684V40.4698Z" fill="#006CB9"/>
<path d="M0 102.833C0 99.7294 2.51603 97.2134 5.61971 97.2134H14.9859V136.551H5.61971C2.51603 136.551 0 134.035 0 130.932V102.833Z" fill="#006CB9"/>
<path d="M0 165.196C0 162.092 2.51603 159.576 5.61971 159.576H14.9859V198.914H5.61971C2.51603 198.914 0 196.398 0 193.294V165.196Z" fill="#006CB9"/>
<path d="M133 40.4698C133 37.3661 130.484 34.8501 127.38 34.8501H118.014V74.1881H127.38C130.484 74.1881 133 71.672 133 68.5684V40.4698Z" fill="#006CB9"/>
<path d="M133 102.833C133 99.7294 130.484 97.2134 127.38 97.2134H118.014V136.551H127.38C130.484 136.551 133 134.035 133 130.932V102.833Z" fill="#006CB9"/>
<path d="M133 165.196C133 162.092 130.484 159.576 127.38 159.576H118.014V198.914H127.38C130.484 198.914 133 196.398 133 193.294V165.196Z" fill="#006CB9"/>
<path d="M53.3092 2.45645e-07C50.2055 1.09979e-07 47.6895 2.51603 47.6895 5.61971L47.6895 14.9859L87.0275 14.9859L87.0275 5.61971C87.0275 2.51603 84.5115 1.60954e-06 81.4078 1.47387e-06L53.3092 2.45645e-07Z" fill="#006CB9"/>
<path d="M53.3092 233.257C50.2055 233.257 47.6895 230.741 47.6895 227.637L47.6895 218.271L87.0275 218.271L87.0275 227.637C87.0275 230.741 84.5115 233.257 81.4078 233.257L53.3092 233.257Z" fill="#006CB9"/>
</svg>