<svg width="70" height="134" viewBox="0 0 70 134" fill="none" xmlns="http://www.w3.org/2000/svg">
<rect y="20.8108" width="70" height="92.7027" rx="5.67568" fill="#2AA0F4"/>
<!-- <path d="M33.7109 65.3359V67.25C33.7109 68.125 33.6224 68.8724 33.4453 69.4922C33.2682 70.112 33.013 70.6198 32.6797 71.0156C32.3464 71.4062 31.9479 71.6953 31.4844 71.8828C31.0208 72.0651 30.5052 72.1562 29.9375 72.1562C29.4844 72.1562 29.0625 72.099 28.6719 71.9844C28.2812 71.8646 27.9297 71.6823 27.6172 71.4375C27.3099 71.1875 27.0443 70.8698 26.8203 70.4844C26.6016 70.099 26.4323 69.638 26.3125 69.1016C26.1979 68.5651 26.1406 67.9479 26.1406 67.25V65.3359C26.1406 64.4609 26.2292 63.7161 26.4062 63.1016C26.5885 62.487 26.8464 61.9844 27.1797 61.5938C27.513 61.2031 27.9115 60.9193 28.375 60.7422C28.8385 60.5599 29.3542 60.4688 29.9219 60.4688C30.3802 60.4688 30.8021 60.526 31.1875 60.6406C31.5781 60.7552 31.9271 60.9349 32.2344 61.1797C32.5469 61.4193 32.8125 61.7318 33.0312 62.1172C33.25 62.4974 33.4167 62.9557 33.5312 63.4922C33.651 64.0234 33.7109 64.638 33.7109 65.3359ZM31.6484 67.5312V65.0469C31.6484 64.6094 31.6224 64.2292 31.5703 63.9062C31.5234 63.5781 31.4531 63.2995 31.3594 63.0703C31.2656 62.8411 31.1484 62.6562 31.0078 62.5156C30.8672 62.3698 30.7057 62.263 30.5234 62.1953C30.3411 62.1276 30.1406 62.0938 29.9219 62.0938C29.651 62.0938 29.4089 62.1484 29.1953 62.2578C28.9818 62.362 28.8021 62.5286 28.6562 62.7578C28.5104 62.987 28.3984 63.2917 28.3203 63.6719C28.2474 64.0469 28.2109 64.5052 28.2109 65.0469V67.5312C28.2109 67.9688 28.2344 68.3516 28.2812 68.6797C28.3333 69.0078 28.4062 69.2891 28.5 69.5234C28.599 69.7578 28.7161 69.9505 28.8516 70.1016C28.9922 70.2474 29.1536 70.3568 29.3359 70.4297C29.5182 70.4974 29.7188 70.5312 29.9375 70.5312C30.2135 70.5312 30.4557 70.4766 30.6641 70.3672C30.8776 70.2578 31.0573 70.0859 31.2031 69.8516C31.349 69.612 31.4583 69.3021 31.5312 68.9219C31.6094 68.5365 31.6484 68.0729 31.6484 67.5312ZM42.8672 68.8906C42.8672 69.599 42.7005 70.1979 42.3672 70.6875C42.0391 71.1719 41.5885 71.5391 41.0156 71.7891C40.4479 72.0339 39.8021 72.1562 39.0781 72.1562C38.3594 72.1562 37.7109 72.0339 37.1328 71.7891C36.5599 71.5391 36.1042 71.1719 35.7656 70.6875C35.4323 70.1979 35.2656 69.599 35.2656 68.8906C35.2656 68.4167 35.3594 67.987 35.5469 67.6016C35.7396 67.2161 36.0052 66.8854 36.3438 66.6094C36.6823 66.3281 37.0833 66.1146 37.5469 65.9688C38.0104 65.8177 38.5156 65.7422 39.0625 65.7422C39.7917 65.7422 40.4427 65.875 41.0156 66.1406C41.5938 66.401 42.0469 66.7682 42.375 67.2422C42.7031 67.7109 42.8672 68.2604 42.8672 68.8906ZM40.7891 68.7656C40.7891 68.401 40.7161 68.0859 40.5703 67.8203C40.4297 67.5495 40.2292 67.3411 39.9688 67.1953C39.7083 67.0495 39.4062 66.9766 39.0625 66.9766C38.7135 66.9766 38.4089 67.0495 38.1484 67.1953C37.8932 67.3411 37.6927 67.5495 37.5469 67.8203C37.4062 68.0859 37.3359 68.401 37.3359 68.7656C37.3359 69.1354 37.4062 69.4531 37.5469 69.7188C37.6927 69.9792 37.8958 70.1797 38.1562 70.3203C38.4167 70.4609 38.724 70.5312 39.0781 70.5312C39.4323 70.5312 39.737 70.4609 39.9922 70.3203C40.2474 70.1797 40.4427 69.9792 40.5781 69.7188C40.7188 69.4531 40.7891 69.1354 40.7891 68.7656ZM42.6172 63.625C42.6172 64.1979 42.4661 64.7083 42.1641 65.1562C41.862 65.599 41.4427 65.9453 40.9062 66.1953C40.375 66.4453 39.7656 66.5703 39.0781 66.5703C38.3906 66.5703 37.776 66.4453 37.2344 66.1953C36.6979 65.9453 36.276 65.599 35.9688 65.1562C35.6667 64.7083 35.5156 64.1979 35.5156 63.625C35.5156 62.9479 35.6693 62.375 35.9766 61.9062C36.2839 61.4323 36.7031 61.0729 37.2344 60.8281C37.7708 60.5833 38.3802 60.4609 39.0625 60.4609C39.7552 60.4609 40.3698 60.5833 40.9062 60.8281C41.4427 61.0729 41.862 61.4323 42.1641 61.9062C42.4661 62.375 42.6172 62.9479 42.6172 63.625ZM40.5547 63.7109C40.5547 63.388 40.4948 63.1068 40.375 62.8672C40.2552 62.6224 40.0833 62.4323 39.8594 62.2969C39.6406 62.1615 39.375 62.0938 39.0625 62.0938C38.7604 62.0938 38.5 62.1589 38.2812 62.2891C38.0625 62.4193 37.8932 62.6068 37.7734 62.8516C37.6536 63.0911 37.5938 63.3776 37.5938 63.7109C37.5938 64.0391 37.6536 64.3255 37.7734 64.5703C37.8932 64.8151 38.0625 65.0078 38.2812 65.1484C38.5052 65.2839 38.7708 65.3516 39.0781 65.3516C39.3854 65.3516 39.6484 65.2839 39.8672 65.1484C40.0859 65.0078 40.2552 64.8151 40.375 64.5703C40.4948 64.3255 40.5547 64.0391 40.5547 63.7109Z" fill="white"/> -->
<path d="M20.8109 2.48092e-07C17.6763 1.11074e-07 15.1353 2.54109 15.1353 5.67568L15.1353 15.1351L54.865 15.1351L54.865 5.67568C54.865 2.54109 52.3239 1.62557e-06 49.1893 1.48855e-06L20.8109 2.48092e-07Z" fill="#006CB9"/>
<path d="M20.8109 133.378C17.6763 133.378 15.1353 130.837 15.1353 127.703L15.1353 118.243L54.865 118.243L54.865 127.703C54.865 130.837 52.3239 133.378 49.1893 133.378L20.8109 133.378Z" fill="#006CB9"/>
</svg>