<svg width="133" height="173" viewBox="0 0 133 173" fill="none" xmlns="http://www.w3.org/2000/svg">
<rect x="20.1763" y="20.1763" width="91.7105" height="132.063" rx="5.61971" fill="#2AA0F4"/>
<!-- <path d="M65.7839 85.4197V87.3203C65.7839 88.1892 65.696 88.9313 65.5201 89.5467C65.3443 90.1621 65.0909 90.6664 64.7599 91.0594C64.4289 91.4473 64.0333 91.7343 63.573 91.9205C63.1127 92.1015 62.6007 92.192 62.037 92.192C61.5871 92.192 61.1682 92.1351 60.7803 92.0214C60.3924 91.9024 60.0433 91.7214 59.7331 91.4783C59.4279 91.2301 59.1642 90.9146 58.9418 90.5319C58.7246 90.1492 58.5565 89.6915 58.4376 89.1588C58.3238 88.6262 58.2669 88.0133 58.2669 87.3203V85.4197C58.2669 84.5509 58.3548 83.8114 58.5306 83.2011C58.7117 82.5909 58.9676 82.0918 59.2986 81.7039C59.6296 81.316 60.0252 81.0342 60.4855 80.8583C60.9458 80.6773 61.4578 80.5868 62.0215 80.5868C62.4766 80.5868 62.8955 80.6437 63.2782 80.7575C63.6661 80.8713 64.0126 81.0497 64.3177 81.2928C64.628 81.5307 64.8918 81.841 65.109 82.2237C65.3262 82.6012 65.4917 83.0563 65.6055 83.589C65.7244 84.1165 65.7839 84.7267 65.7839 85.4197ZM63.7359 87.5996V85.1327C63.7359 84.6983 63.71 84.3208 63.6583 84.0001C63.6118 83.6743 63.542 83.3976 63.4489 83.1701C63.3558 82.9425 63.2394 82.7589 63.0998 82.6193C62.9602 82.4745 62.7998 82.3685 62.6188 82.3012C62.4378 82.234 62.2387 82.2004 62.0215 82.2004C61.7526 82.2004 61.5121 82.2547 61.3001 82.3633C61.088 82.4667 60.9096 82.6322 60.7648 82.8598C60.62 83.0873 60.5088 83.3899 60.4312 83.7674C60.3588 84.1398 60.3226 84.5949 60.3226 85.1327V87.5996C60.3226 88.034 60.3459 88.4141 60.3924 88.7399C60.4442 89.0658 60.5166 89.345 60.6096 89.5777C60.7079 89.8105 60.8243 90.0018 60.9587 90.1518C61.0984 90.2966 61.2587 90.4052 61.4397 90.4776C61.6207 90.5448 61.8198 90.5785 62.037 90.5785C62.3111 90.5785 62.5516 90.5242 62.7585 90.4156C62.9705 90.3069 63.1489 90.1363 63.2937 89.9036C63.4385 89.6657 63.5471 89.358 63.6195 88.9804C63.6971 88.5977 63.7359 88.1374 63.7359 87.5996ZM75.2247 87.9176V89.5312H67.0871L67.0018 88.29L71.7882 80.742H73.425L71.6563 83.7441L69.0886 87.9176H75.2247ZM73.8827 80.742V92.0369H71.8269V80.742H73.8827Z" fill="white"/> -->
<path d="M0 40.4698C0 37.3661 2.51603 34.8501 5.61971 34.8501H14.9859V74.1881H5.61971C2.51603 74.1881 0 71.672 0 68.5684V40.4698Z" fill="#006CB9"/>
<path d="M0 102.833C0 99.7292 2.51603 97.2131 5.61971 97.2131H14.9859V136.551H5.61971C2.51603 136.551 0 134.035 0 130.931V102.833Z" fill="#006CB9"/>
<path d="M133 40.4698C133 37.3661 130.484 34.8501 127.38 34.8501H118.014V74.1881H127.38C130.484 74.1881 133 71.672 133 68.5684V40.4698Z" fill="#006CB9"/>
<path d="M133 102.833C133 99.7292 130.484 97.2131 127.38 97.2131H118.014V136.551H127.38C130.484 136.551 133 134.035 133 130.931V102.833Z" fill="#006CB9"/>
<path d="M53.3092 2.45645e-07C50.2055 1.09979e-07 47.6895 2.51603 47.6895 5.61971L47.6895 14.9859L87.0274 14.9859L87.0274 5.61971C87.0274 2.51603 84.5114 1.60954e-06 81.4077 1.47387e-06L53.3092 2.45645e-07Z" fill="#006CB9"/>
<path d="M53.3092 172.728C50.2055 172.728 47.6895 170.212 47.6895 167.108L47.6895 157.742L87.0274 157.742L87.0274 167.108C87.0274 170.212 84.5114 172.728 81.4077 172.728L53.3092 172.728Z" fill="#006CB9"/>
</svg>