<svg width="73" height="73" viewBox="0 0 73 73" fill="none" xmlns="http://www.w3.org/2000/svg">
<path opacity="0.21" fill-rule="evenodd" clip-rule="evenodd" d="M0 36.5V45.0167C0 60.4714 12.5286 73 27.9833 73H36.5H45.0167C60.4714 73 73 60.4714 73 45.0167V36.5V27.9833C73 12.5286 60.4714 0 45.0167 0H36.5H27.9833C12.5286 0 0 12.5286 0 27.9833V36.5Z" fill="#4AD991"/>
<path d="M17.6665 37.0007C17.6665 33.5737 17.6665 31.8603 18.4034 30.584C18.8861 29.7479 19.5804 29.0536 20.4165 28.5708C21.6928 27.834 23.4062 27.834 26.8332 27.834H45.1665C48.5934 27.834 50.3069 27.834 51.5832 28.5708C52.4193 29.0536 53.1136 29.7479 53.5963 30.584C54.3332 31.8603 54.3332 33.5737 54.3332 37.0007C54.3332 40.4276 54.3332 42.141 53.5963 43.4173C53.1136 44.2534 52.4193 44.9477 51.5832 45.4305C50.3069 46.1673 48.5934 46.1673 45.1665 46.1673H26.8332C23.4062 46.1673 21.6928 46.1673 20.4165 45.4305C19.5804 44.9477 18.8861 44.2534 18.4034 43.4173C17.6665 42.141 17.6665 40.4276 17.6665 37.0007Z" stroke="#02B033" stroke-width="2.75"/>
<path d="M43.3332 22.3327C43.3332 20.3076 42.3951 18.666 41.2379 18.666H30.7617C29.6046 18.666 28.6665 20.3076 28.6665 22.3327" stroke="#02B033" stroke-width="2.75"/>
<path d="M43.3332 51.666C43.3332 53.6911 42.3951 55.3327 41.2379 55.3327H30.7617C29.6046 55.3327 28.6665 53.6911 28.6665 51.666" stroke="#02B033" stroke-width="2.75"/>
</svg>