<svg width="73" height="73" viewBox="0 0 73 73" fill="none" xmlns="http://www.w3.org/2000/svg">
<path opacity="0.3" fill-rule="evenodd" clip-rule="evenodd" d="M0 36.5V45.0167C0 60.4714 12.5286 73 27.9833 73H36.5H45.0167C60.4714 73 73 60.4714 73 45.0167V36.5V27.9833C73 12.5286 60.4714 0 45.0167 0H36.5H27.9833C12.5286 0 0 12.5286 0 27.9833V36.5Z" fill="#FF9066"/>
<path d="M15 37.0007C15 33.5737 15 31.8603 15.8842 30.584C16.4635 29.7479 17.2967 29.0536 18.3 28.5708C19.8315 27.834 21.8877 27.834 26 27.834H48C52.1123 27.834 54.1685 27.834 55.7 28.5708C56.7033 29.0536 57.5365 29.7479 58.1158 30.584C59 31.8603 59 33.5737 59 37.0007C59 40.4276 59 42.141 58.1158 43.4173C57.5365 44.2534 56.7033 44.9477 55.7 45.4305C54.1685 46.1673 52.1123 46.1673 48 46.1673H26C21.8877 46.1673 19.8315 46.1673 18.3 45.4305C17.2967 44.9477 16.4635 44.2534 15.8842 43.4173C15 42.141 15 40.4276 15 37.0007Z" stroke="#DB5F32" stroke-width="2.75"/>
<path d="M24.1668 22.3327C24.1668 20.3076 23.6978 18.666 23.1192 18.666H17.8811C17.3025 18.666 16.8335 20.3076 16.8335 22.3327" stroke="#DB5F32" stroke-width="2.75"/>
<path d="M35.1668 22.3327C35.1668 20.3076 34.6978 18.666 34.1192 18.666H28.8811C28.3025 18.666 27.8335 20.3076 27.8335 22.3327" stroke="#DB5F32" stroke-width="2.75"/>
<path d="M46.1668 22.3327C46.1668 20.3076 45.6978 18.666 45.1192 18.666H39.8811C39.3025 18.666 38.8335 20.3076 38.8335 22.3327" stroke="#DB5F32" stroke-width="2.75"/>
<path d="M57.1668 22.3327C57.1668 20.3076 56.6978 18.666 56.1192 18.666H50.8811C50.3025 18.666 49.8335 20.3076 49.8335 22.3327" stroke="#DB5F32" stroke-width="2.75"/>
<path d="M24.1668 51.666C24.1668 53.6911 23.6978 55.3327 23.1192 55.3327H17.8811C17.3025 55.3327 16.8335 53.6911 16.8335 51.666" stroke="#DB5F32" stroke-width="2.75"/>
<path d="M35.1668 51.666C35.1668 53.6911 34.6978 55.3327 34.1192 55.3327H28.8811C28.3025 55.3327 27.8335 53.6911 27.8335 51.666" stroke="#DB5F32" stroke-width="2.75"/>
<path d="M46.1668 51.666C46.1668 53.6911 45.6978 55.3327 45.1192 55.3327H39.8811C39.3025 55.3327 38.8335 53.6911 38.8335 51.666" stroke="#DB5F32" stroke-width="2.75"/>
<path d="M57.1668 51.666C57.1668 53.6911 56.6978 55.3327 56.1192 55.3327H50.8811C50.3025 55.3327 49.8335 53.6911 49.8335 51.666" stroke="#DB5F32" stroke-width="2.75"/>
</svg>