<svg width="73" height="73" viewBox="0 0 73 73" fill="none" xmlns="http://www.w3.org/2000/svg">
<path opacity="0.21" fill-rule="evenodd" clip-rule="evenodd" d="M0 36.5V45.0167C0 60.4714 12.5286 73 27.9833 73H36.5H45.0167C60.4714 73 73 60.4714 73 45.0167V36.5V27.9833C73 12.5286 60.4714 0 45.0167 0H36.5H27.9833C12.5286 0 0 12.5286 0 27.9833V36.5Z" fill="#8280FF"/>
<path d="M18.6665 37.0007C18.6665 33.5737 18.6665 31.8603 19.4034 30.584C19.8861 29.7479 20.5804 29.0536 21.4165 28.5708C22.6928 27.834 24.4062 27.834 27.8332 27.834H46.1665C49.5934 27.834 51.3069 27.834 52.5832 28.5708C53.4193 29.0536 54.1136 29.7479 54.5963 30.584C55.3332 31.8603 55.3332 33.5737 55.3332 37.0007C55.3332 40.4276 55.3332 42.141 54.5963 43.4173C54.1136 44.2534 53.4193 44.9477 52.5832 45.4305C51.3069 46.1673 49.5934 46.1673 46.1665 46.1673H27.8332C24.4062 46.1673 22.6928 46.1673 21.4165 45.4305C20.5804 44.9477 19.8861 44.2534 19.4034 43.4173C18.6665 42.141 18.6665 40.4276 18.6665 37.0007Z" stroke="#514FC8" stroke-width="2.75"/>
<path d="M27.8333 22.3327C27.8333 20.3076 27.3643 18.666 26.7857 18.666H21.5476C20.969 18.666 20.5 20.3076 20.5 22.3327" stroke="#514FC8" stroke-width="2.75"/>
<path d="M40.6668 22.3327C40.6668 20.3076 40.1978 18.666 39.6192 18.666H34.3811C33.8025 18.666 33.3335 20.3076 33.3335 22.3327" stroke="#514FC8" stroke-width="2.75"/>
<path d="M53.4998 22.3327C53.4998 20.3076 53.0308 18.666 52.4522 18.666H47.2141C46.6355 18.666 46.1665 20.3076 46.1665 22.3327" stroke="#514FC8" stroke-width="2.75"/>
<path d="M27.8333 51.666C27.8333 53.6911 27.3643 55.3327 26.7857 55.3327H21.5476C20.969 55.3327 20.5 53.6911 20.5 51.666" stroke="#514FC8" stroke-width="2.75"/>
<path d="M40.6668 51.666C40.6668 53.6911 40.1978 55.3327 39.6192 55.3327H34.3811C33.8025 55.3327 33.3335 53.6911 33.3335 51.666" stroke="#514FC8" stroke-width="2.75"/>
<path d="M53.4998 51.666C53.4998 53.6911 53.0308 55.3327 52.4522 55.3327H47.2141C46.6355 55.3327 46.1665 53.6911 46.1665 51.666" stroke="#514FC8" stroke-width="2.75"/>
</svg>
