<svg width="46" height="45" viewBox="0 0 46 45" fill="none" xmlns="http://www.w3.org/2000/svg">
<path fill-rule="evenodd" clip-rule="evenodd" d="M20.182 22.4442V33.2705C20.182 33.4264 20.3084 33.5522 20.4637 33.5522H24.4839C24.6399 33.5522 24.7656 33.4258 24.7656 33.2705V22.2676H27.6809C27.8273 22.2676 27.9496 22.1554 27.962 22.0095L28.2419 18.6944C28.2555 18.5302 28.1262 18.3885 27.9608 18.3885H24.7656V16.0367C24.7656 15.4857 25.2127 15.0386 25.7638 15.0386H28.0098C28.1657 15.0386 28.2915 14.9122 28.2915 14.7563V11.4412C28.2915 11.2853 28.1657 11.1589 28.0098 11.1589H24.214C21.9869 11.1589 20.1814 12.965 20.1814 15.1922V18.3885H18.171C18.0151 18.3885 17.8887 18.5149 17.8887 18.6702V21.9853C17.8887 22.1412 18.0151 22.2676 18.171 22.2676H20.1814L20.182 22.4442Z" fill="url(#paint0_linear_749_16610)"/>
<path d="M23.0908 0.225342C10.8884 0.225342 0.960938 10.1528 0.960938 22.3552C0.960938 34.5577 10.8884 44.4851 23.0908 44.4851C35.2933 44.4851 45.2207 34.5577 45.2207 22.3552C45.2207 10.1528 35.2933 0.225342 23.0908 0.225342ZM42.3823 22.3552C42.3823 32.9926 33.7282 41.6473 23.0908 41.6473C12.4529 41.6473 3.79878 32.9932 3.79878 22.3552C3.79878 11.7173 12.4529 3.06319 23.0908 3.06319C33.7282 3.06319 42.3823 11.7173 42.3823 22.3552Z" fill="url(#paint1_linear_749_16610)"/>
<defs>
<linearGradient id="paint0_linear_749_16610" x1="23.0901" y1="11.1589" x2="23.0901" y2="33.5522" gradientUnits="userSpaceOnUse">
<stop stop-color="#125B8F"/>
<stop offset="1" stop-color="#051A29"/>
</linearGradient>
<linearGradient id="paint1_linear_749_16610" x1="23.0908" y1="0.225342" x2="23.0908" y2="44.4851" gradientUnits="userSpaceOnUse">
<stop stop-color="#125B8F"/>
<stop offset="1" stop-color="#051A29"/>
</linearGradient>
</defs>
</svg>
