<svg width="45" height="45" viewBox="0 0 45 45" fill="none" xmlns="http://www.w3.org/2000/svg">
<path d="M30.2128 16.2515C30.2128 16.9838 29.6192 17.5774 28.8869 17.5774C28.1545 17.5774 27.561 16.9838 27.561 16.2515C27.561 15.5191 28.1545 14.9256 28.8869 14.9256C29.6192 14.9256 30.2128 15.5191 30.2128 16.2515ZM28.562 22.1941C28.562 25.2647 26.0638 27.7629 22.9938 27.7629C19.9233 27.7629 17.425 25.2647 17.425 22.1941C17.425 19.1236 19.9233 16.6259 22.9938 16.6259C26.0644 16.6259 28.562 19.1242 28.562 22.1941ZM26.5611 22.1941C26.5611 20.2274 24.9605 18.6269 22.9938 18.6269C21.0271 18.6269 19.4266 20.2274 19.4266 22.1941C19.4266 24.1614 21.0271 25.7614 22.9938 25.7614C24.9605 25.7614 26.5611 24.1614 26.5611 22.1941ZM34.2643 17.7209C34.2643 13.97 31.2233 10.929 27.4724 10.929H18.204C14.4531 10.929 11.4121 13.97 11.4121 17.7209V26.9898C11.4121 30.7407 14.4531 33.7817 18.204 33.7817H27.4724C31.2239 33.7817 34.2643 30.7407 34.2643 26.9898V17.7209ZM32.0348 26.8876C32.0348 29.4638 29.9458 31.5522 27.3696 31.5522H18.3062C15.73 31.5522 13.641 29.4638 13.641 26.8876V17.8231C13.641 15.2469 15.7294 13.1585 18.3062 13.1585H27.3702C29.9464 13.1585 32.0354 15.2469 32.0354 17.8231L32.0348 26.8876Z" fill="url(#paint0_linear_749_16615)"/>
<path d="M22.8408 0.225342C10.6384 0.225342 0.710938 10.1528 0.710938 22.3552C0.710938 34.5577 10.6384 44.4851 22.8408 44.4851C35.0433 44.4851 44.9707 34.5577 44.9707 22.3552C44.9707 10.1528 35.0433 0.225342 22.8408 0.225342ZM22.8408 41.6467C12.2035 41.6467 3.54937 32.9926 3.54937 22.3552C3.54937 11.7179 12.2035 3.06319 22.8408 3.06319C33.4788 3.06319 42.1329 11.7173 42.1329 22.3552C42.1329 32.9926 33.4788 41.6467 22.8408 41.6467Z" fill="url(#paint1_linear_749_16615)"/>
<defs>
<linearGradient id="paint0_linear_749_16615" x1="22.8382" y1="10.929" x2="22.8382" y2="33.7817" gradientUnits="userSpaceOnUse">
<stop stop-color="#125B8F"/>
<stop offset="1" stop-color="#051A29"/>
</linearGradient>
<linearGradient id="paint1_linear_749_16615" x1="22.8408" y1="0.225342" x2="22.8408" y2="44.4851" gradientUnits="userSpaceOnUse">
<stop stop-color="#125B8F"/>
<stop offset="1" stop-color="#051A29"/>
</linearGradient>
</defs>
</svg>
