<svg width="45" height="45" viewBox="0 0 45 45" fill="none" xmlns="http://www.w3.org/2000/svg">
<path d="M12.4827 16.6529H16.7351V30.3125H12.4827V16.6529ZM14.6095 9.86499C15.9692 9.86499 17.0709 10.9684 17.0709 12.3252C17.0709 13.6837 15.9692 14.7889 14.6095 14.7889C13.2462 14.7889 12.1445 13.6843 12.1445 12.3252C12.1445 10.9684 13.2462 9.86499 14.6095 9.86499ZM19.3988 30.3119H23.6423V23.5554C23.6423 21.7738 23.9792 20.0487 26.1891 20.0487C28.3645 20.0487 28.3954 22.0859 28.3954 23.671V30.3119H32.6383V22.8203C32.6383 19.1416 31.8457 16.3142 27.547 16.3142C25.4795 16.3142 24.0943 17.4455 23.5266 18.5211H23.472V16.6523H19.3994L19.3988 30.3119Z" fill="url(#paint0_linear_749_16631)"/>
<path d="M22.3911 0.125977C10.134 0.125977 0.162109 10.0979 0.162109 22.355C0.162109 34.612 10.134 44.5845 22.3911 44.5845C34.6482 44.5845 44.6207 34.612 44.6207 22.355C44.6207 10.0973 34.6482 0.125977 22.3911 0.125977ZM22.3911 41.7334C11.7061 41.7334 3.01326 33.0405 3.01326 22.355C3.01326 11.67 11.7061 2.97712 22.3911 2.97712C33.0767 2.97712 41.7695 11.67 41.7695 22.355C41.7695 33.0399 33.0767 41.7334 22.3911 41.7334Z" fill="url(#paint1_linear_749_16631)"/>
<defs>
<linearGradient id="paint0_linear_749_16631" x1="22.3914" y1="9.86499" x2="22.3914" y2="30.3125" gradientUnits="userSpaceOnUse">
<stop stop-color="#125B8F"/>
<stop offset="1" stop-color="#051A29"/>
</linearGradient>
<linearGradient id="paint1_linear_749_16631" x1="22.3914" y1="0.125977" x2="22.3914" y2="44.5845" gradientUnits="userSpaceOnUse">
<stop stop-color="#125B8F"/>
<stop offset="1" stop-color="#051A29"/>
</linearGradient>
</defs>
</svg>
