<svg width="45" height="45" viewBox="0 0 45 45" fill="none" xmlns="http://www.w3.org/2000/svg">
<path d="M26.8759 23.7691C26.4135 23.4922 25.8117 23.1839 25.2671 23.4065C24.8496 23.5778 24.5826 24.2316 24.3115 24.5659C24.1722 24.7371 24.0062 24.7643 23.793 24.6781C22.2243 24.0532 21.0219 23.0055 20.1561 21.5627C20.0096 21.3382 20.0356 21.1616 20.2128 20.9537C20.4744 20.646 20.8028 20.2964 20.8736 19.8812C20.9445 19.466 20.7496 18.9811 20.5777 18.6114C20.3586 18.1389 20.1135 17.4656 19.6405 17.1987C19.2058 16.953 18.6329 17.0906 18.2455 17.406C17.5769 17.9505 17.2544 18.8034 17.2639 19.6491C17.2668 19.8895 17.2958 20.1293 17.3525 20.3608C17.4871 20.9189 17.7452 21.4392 18.0352 21.9347C18.2537 22.308 18.4917 22.6706 18.7481 23.0191C19.5873 24.159 20.6315 25.1494 21.8399 25.89C22.4441 26.2597 23.0943 26.5846 23.7682 26.8072C24.5236 27.057 25.1968 27.3169 26.0131 27.1616C26.8671 26.9991 27.7093 26.4706 28.0483 25.6479C28.1487 25.4039 28.1989 25.1329 28.1428 24.8754C28.027 24.3432 27.3065 24.0266 26.8759 23.7691Z" fill="url(#paint0_linear_749_16620)"/>
<path d="M22.6993 10.9705C16.5039 10.9705 11.4637 16.0107 11.4637 22.2061C11.4637 24.1007 11.9497 25.9682 12.8734 27.6337L11.2422 33.7187L17.3585 32.0804C19.0027 32.9722 20.8395 33.4417 22.6993 33.4417C28.8947 33.4417 33.9349 28.4015 33.9349 22.2061C33.9349 16.0107 28.8947 10.9705 22.6993 10.9705ZM22.6993 31.3179C21.0704 31.3179 19.4616 30.8726 18.0477 30.0298L17.6626 29.8001L14.246 30.7155L15.1567 27.3178L14.9205 26.9297C14.0487 25.4981 13.5881 23.8645 13.5881 22.2055C13.5881 17.1812 17.6756 13.0937 22.6999 13.0937C27.7241 13.0937 31.8117 17.1812 31.8117 22.2055C31.8117 27.2298 27.7235 31.3179 22.6993 31.3179Z" fill="url(#paint1_linear_749_16620)"/>
<path d="M22.5928 0.225342C10.3903 0.225342 0.462891 10.1528 0.462891 22.3552C0.462891 34.5577 10.3903 44.4851 22.5928 44.4851C34.7952 44.4851 44.7232 34.5577 44.7232 22.3552C44.7232 10.1522 34.7952 0.225342 22.5928 0.225342ZM22.5928 41.6461C11.9554 41.6461 3.30133 32.992 3.30133 22.3546C3.30133 11.7167 11.9554 3.06259 22.5928 3.06259C33.2307 3.06259 41.8848 11.7167 41.8848 22.3546C41.8848 32.992 33.2307 41.6461 22.5928 41.6461Z" fill="url(#paint2_linear_749_16620)"/>
<defs>
<linearGradient id="paint0_linear_749_16620" x1="22.7149" y1="17.0728" x2="22.7149" y2="27.2084" gradientUnits="userSpaceOnUse">
<stop stop-color="#125B8F"/>
<stop offset="1" stop-color="#051A29"/>
</linearGradient>
<linearGradient id="paint1_linear_749_16620" x1="22.5886" y1="10.9705" x2="22.5886" y2="33.7187" gradientUnits="userSpaceOnUse">
<stop stop-color="#125B8F"/>
<stop offset="1" stop-color="#051A29"/>
</linearGradient>
<linearGradient id="paint2_linear_749_16620" x1="22.5931" y1="0.225342" x2="22.5931" y2="44.4851" gradientUnits="userSpaceOnUse">
<stop stop-color="#125B8F"/>
<stop offset="1" stop-color="#051A29"/>
</linearGradient>
</defs>
</svg>
