<svg width="45" height="45" viewBox="0 0 45 45" fill="none" xmlns="http://www.w3.org/2000/svg">
<path d="M34.3155 19.4233C34.3155 16.5561 31.9905 14.2312 29.1234 14.2312H15.7605C12.8927 14.2312 10.5684 16.5555 10.5684 19.4233V25.2876C10.5684 28.1553 12.8927 30.4797 15.7605 30.4797H29.1234C31.9911 30.4797 34.3155 28.1553 34.3155 25.2876V19.4233ZM26.9669 22.51L20.9905 25.4554C20.7574 25.5818 19.9417 25.4127 19.9417 25.147V19.1006C19.9417 18.8318 20.7639 18.6628 20.9971 18.7962L26.7077 21.8965C26.9467 22.0336 27.209 22.3789 26.9669 22.51Z" fill="url(#paint0_linear_749_16627)"/>
<path d="M22.4419 0.125977C10.1848 0.125977 0.212891 10.0979 0.212891 22.355C0.212891 34.6121 10.1848 44.5845 22.4419 44.5845C34.699 44.5845 44.6709 34.6121 44.6709 22.355C44.6709 10.0973 34.699 0.125977 22.4419 0.125977ZM22.4419 41.7328C11.7563 41.7328 3.06345 33.0399 3.06345 22.3544C3.06345 11.6694 11.7563 2.97653 22.4419 2.97653C33.1275 2.97653 41.8203 11.6694 41.8203 22.3544C41.8203 33.0399 33.1275 41.7328 22.4419 41.7328Z" fill="url(#paint1_linear_749_16627)"/>
<defs>
<linearGradient id="paint0_linear_749_16627" x1="22.4419" y1="14.2312" x2="22.4419" y2="30.4797" gradientUnits="userSpaceOnUse">
<stop stop-color="#125B8F"/>
<stop offset="1" stop-color="#051A29"/>
</linearGradient>
<linearGradient id="paint1_linear_749_16627" x1="22.4419" y1="0.125977" x2="22.4419" y2="44.5845" gradientUnits="userSpaceOnUse">
<stop stop-color="#125B8F"/>
<stop offset="1" stop-color="#051A29"/>
</linearGradient>
</defs>
</svg>
