<svg width="196" height="121" viewBox="0 0 196 121" fill="none" xmlns="http://www.w3.org/2000/svg">
<path d="M0 73.0065V17.8887C4.51113 31.9142 26.1318 59.9652 76.5252 59.9652C126.919 59.9652 124.425 119.266 76.5252 119.266H45.1934C11.2696 119.266 0.929567 88.4264 0 73.0065Z" fill="#4C77BD"/>
<path d="M56.2477 16.5063C49.0796 16.5064 49.0796 16.5063 49.0796 28.0338C49.0796 39.5613 49.0796 68.0241 49.0796 79.4833H166.71" stroke="black" stroke-width="0.146288"/>
<path d="M135.316 1H59.3929C57.5347 1 56.0283 2.50639 56.0283 4.36462V72.681C56.0283 74.5393 57.5347 76.0457 59.3929 76.0457H135.316C137.175 76.0457 138.681 74.5393 138.681 72.681V4.36462C138.681 2.50639 137.175 1 135.316 1Z" fill="white" stroke="black" stroke-width="0.146288"/>
<path d="M65.6831 20.6025H128.879" stroke="black" stroke-width="0.146288"/>
<path d="M65.6831 25.2842H128.879" stroke="black" stroke-width="0.146288"/>
<path d="M65.6831 29.6729H128.879" stroke="black" stroke-width="0.146288"/>
<path d="M65.6831 34.5H128.879" stroke="black" stroke-width="0.146288"/>
<path d="M65.6831 39.0352H128.879" stroke="black" stroke-width="0.146288"/>
<path d="M65.6831 43.8628H128.879" stroke="black" stroke-width="0.146288"/>
<path d="M65.6831 48.3975H128.879" stroke="black" stroke-width="0.146288"/>
<path d="M65.6831 53.0786H128.879" stroke="black" stroke-width="0.146288"/>
<path d="M65.6831 57.6138H128.879" stroke="black" stroke-width="0.146288"/>
<path d="M65.6831 62.1489H128.879" stroke="black" stroke-width="0.146288"/>
<circle cx="148.586" cy="39.6487" r="12.1419" fill="#768CB0"/>
<circle cx="148.586" cy="37.388" r="12.0513" fill="#FED201" stroke="black" stroke-width="0.181222"/>
<circle cx="148.586" cy="37.4456" r="8.2118" stroke="black" stroke-width="0.248842" stroke-linecap="square" stroke-dasharray="4.23 4.23"/>
<path d="M166.622 79.422V25.7226C166.646 22.553 164.852 16.2139 157.479 16.2139C150.106 16.2139 137.974 16.2139 132.829 16.2139" stroke="black" stroke-width="0.146288"/>
<path d="M148.189 18.7007H156.674C159.137 19.0664 164.062 21.1437 164.062 26.5271C164.062 31.9105 164.062 55.297 164.062 66.3174" stroke="black" stroke-width="0.146288"/>
<circle cx="134" cy="16.0259" r="9.80128" fill="#768CB0"/>
<circle cx="134" cy="13.7271" r="9.72814" fill="#FED201" stroke="black" stroke-width="0.146288"/>
<circle cx="134" cy="13.7273" r="6.6288" stroke="black" stroke-width="0.200873" stroke-linecap="square" stroke-dasharray="3.41 3.41"/>
<g clip-path="url(#clip0_444_298)">
<path d="M132.244 11.5327C132.244 11.5327 132.754 11.5327 133.268 11.5327M134.585 16.2139L132.536 14.1659C132.536 14.1659 132.975 14.1659 133.268 14.1659C133.56 14.1659 134.877 14.184 134.877 12.8493C134.877 11.5146 133.56 11.5327 133.268 11.5327M135.755 11.5327C135.755 11.5327 134.125 11.5327 133.268 11.5327M132.244 12.703H135.755" stroke="black" stroke-width="0.292576"/>
</g>
<g clip-path="url(#clip1_444_298)">
<path d="M146.392 34.7017C146.392 34.7017 147.029 34.7017 147.672 34.7017M149.318 40.5532L146.758 37.9932C146.758 37.9932 147.306 37.9932 147.672 37.9932C148.038 37.9932 149.683 38.0157 149.683 36.3474C149.683 34.6791 148.038 34.7017 147.672 34.7017M150.78 34.7017C150.78 34.7017 148.743 34.7017 147.672 34.7017M146.392 36.1646H150.78" stroke="black" stroke-width="0.36572"/>
</g>
<path d="M66.2011 9.84364V13.4609H65.8708V9.84364H66.2011ZM70.5271 9.84364V13.4609H70.2057L68.0685 10.4318H68.0402V13.4609H67.7099V9.84364H68.0296L70.1739 12.8763H70.2021V9.84364H70.5271ZM72.0413 9.84364L73.1717 13.0317H73.2035L74.3339 9.84364H74.6801L73.3642 13.4609H73.0109L71.6951 9.84364H72.0413ZM78.6427 11.6523C78.6427 12.0291 78.5756 12.357 78.4413 12.6361C78.3071 12.914 78.1222 13.1295 77.8867 13.2825C77.6524 13.4344 77.3827 13.5104 77.0778 13.5104C76.7728 13.5104 76.5026 13.4344 76.2671 13.2825C76.0327 13.1295 75.8485 12.914 75.7142 12.6361C75.5812 12.357 75.5146 12.0291 75.5146 11.6523C75.5146 11.2755 75.5812 10.9481 75.7142 10.6702C75.8485 10.3912 76.0333 10.1757 76.2688 10.0238C76.5043 9.87072 76.774 9.79418 77.0778 9.79418C77.3827 9.79418 77.6524 9.87072 77.8867 10.0238C78.1222 10.1757 78.3071 10.3912 78.4413 10.6702C78.5756 10.9481 78.6427 11.2755 78.6427 11.6523ZM78.3212 11.6523C78.3212 11.3285 78.2671 11.0512 78.1587 10.8204C78.0504 10.5884 77.9026 10.4112 77.7154 10.2887C77.5282 10.1663 77.3156 10.105 77.0778 10.105C76.8411 10.105 76.6291 10.1663 76.4419 10.2887C76.2547 10.4112 76.1063 10.5878 75.9968 10.8186C75.8885 11.0494 75.8343 11.3273 75.8343 11.6523C75.8343 11.9761 75.8885 12.2534 75.9968 12.4842C76.1052 12.715 76.2529 12.8922 76.4402 13.0158C76.6274 13.1383 76.8399 13.1995 77.0778 13.1995C77.3156 13.1995 77.5282 13.1383 77.7154 13.0158C77.9038 12.8934 78.0522 12.7168 78.1605 12.486C78.2688 12.254 78.3224 11.9761 78.3212 11.6523ZM80.3189 9.84364V13.4609H79.9886V9.84364H80.3189ZM84.6608 10.974H84.3287C84.304 10.8504 84.2593 10.7362 84.1945 10.6314C84.1309 10.5254 84.0509 10.433 83.9543 10.3541C83.8577 10.2752 83.7482 10.214 83.6258 10.1704C83.5033 10.1268 83.3708 10.105 83.2284 10.105C82.9999 10.105 82.7915 10.1645 82.6031 10.2834C82.4159 10.4024 82.2658 10.5772 82.1527 10.808C82.0408 11.0376 81.9849 11.3191 81.9849 11.6523C81.9849 11.9879 82.0408 12.2705 82.1527 12.5001C82.2658 12.7297 82.4159 12.904 82.6031 13.0229C82.7915 13.1407 82.9999 13.1995 83.2284 13.1995C83.3708 13.1995 83.5033 13.1777 83.6258 13.1342C83.7482 13.0906 83.8577 13.03 83.9543 12.9523C84.0509 12.8734 84.1309 12.7809 84.1945 12.675C84.2593 12.569 84.304 12.4542 84.3287 12.3305H84.6608C84.6314 12.4966 84.576 12.6514 84.4948 12.7951C84.4147 12.9375 84.3123 13.0624 84.1874 13.1695C84.0638 13.2767 83.9213 13.3603 83.76 13.4203C83.5987 13.4804 83.4215 13.5104 83.2284 13.5104C82.9246 13.5104 82.6549 13.4344 82.4194 13.2825C82.1839 13.1295 81.999 12.914 81.8648 12.6361C81.7318 12.3582 81.6652 12.0303 81.6652 11.6523C81.6652 11.2743 81.7318 10.9464 81.8648 10.6685C81.999 10.3906 82.1839 10.1757 82.4194 10.0238C82.6549 9.87072 82.9246 9.79418 83.2284 9.79418C83.4215 9.79418 83.5987 9.82421 83.76 9.88426C83.9213 9.94314 84.0638 10.0267 84.1874 10.1351C84.3123 10.2422 84.4147 10.367 84.4948 10.5095C84.576 10.652 84.6314 10.8068 84.6608 10.974ZM85.9837 13.4609V9.84364H88.0821V10.1404H86.314V11.5022H87.9708V11.7989H86.314V13.1642H88.1174V13.4609H85.9837Z" fill="black"/>
<path d="M82.1897 115.932C76.1478 119.808 68.5999 119.611 61.3427 118.703C60.3293 118.576 59.3238 118.438 58.328 118.293C58.3221 118.291 58.3141 118.291 58.3081 118.289C58.2602 118.282 58.2123 118.275 58.1664 118.27C57.9609 118.239 57.7553 118.209 57.5518 118.178L57.5951 118.273L57.7313 118.567C57.682 118.469 57.6326 118.372 57.5832 118.273C57.5688 118.243 57.5523 118.214 57.538 118.184C55.8281 114.798 54.1402 111.292 53.8653 107.517C53.582 103.598 55.207 99.2651 58.736 97.5369C59.1988 97.311 59.6854 97.1375 60.1867 97.0195C60.3949 96.9683 60.6053 96.929 60.8177 96.8956C63.0399 96.5665 65.4198 97.2362 67.0734 98.7698C69.2607 100.802 70.0255 104.222 68.9143 106.993C71.9796 104.172 71.6987 99.311 70.9149 95.219C70.1291 91.1271 69.1566 86.5684 71.3941 83.0519C72.6381 81.0946 74.7016 79.9499 76.9687 79.5663C77.0382 79.5552 77.1076 79.5441 77.1771 79.535C79.8084 79.1455 82.6873 79.7671 84.8726 81.3159C89.0096 84.246 90.9329 89.4818 91.3761 94.533C92.0907 102.661 89.059 111.526 82.1897 115.932Z" fill="#1B3A6C"/>
<path d="M81.0105 102.901C80.7455 104.671 80.2239 106.393 79.462 108.013C78.7631 109.445 77.8541 110.764 76.7651 111.927C74.5391 114.328 71.6732 116.069 68.6036 117.167C66.2577 117.983 63.8181 118.499 61.3428 118.703C60.3294 118.577 59.3239 118.438 58.3281 118.293C58.3221 118.291 58.3142 118.291 58.3081 118.289C58.2603 118.282 58.2123 118.275 58.1665 118.27C57.961 118.239 57.7554 118.209 57.5518 118.178L57.5952 118.273L57.7314 118.568C57.6821 118.469 57.6327 118.372 57.5833 118.273C57.5688 118.244 57.5524 118.214 57.538 118.185C59.4792 116.449 60.9761 114.273 61.9032 111.839C62.8304 109.406 63.1607 106.786 62.8666 104.198C62.5514 101.628 61.6331 99.168 60.1867 97.0198C60.395 96.9686 60.6054 96.9293 60.8178 96.896C61.3661 97.7373 61.839 98.6256 62.2309 99.5503C63.6382 102.848 63.9461 106.512 63.1091 109.999C62.3357 113.153 60.6783 116.022 58.3317 118.267C58.5267 118.264 58.7237 118.259 58.9167 118.252C62.5697 118.14 66.241 117.554 69.6258 116.131C72.4846 114.931 75.1099 113.085 77.0689 110.668C79.2152 108.021 80.2744 104.755 80.6075 101.395C80.9626 97.7977 80.6929 94.1034 80.0594 90.5524C79.4133 86.9122 78.3242 83.3648 76.8163 79.9892C76.7827 79.9127 76.7797 79.8261 76.8081 79.7475C76.8365 79.6688 76.894 79.6041 76.9687 79.5667C77.0314 79.5292 77.1063 79.5179 77.1772 79.5354C77.2117 79.5465 77.2433 79.5654 77.2696 79.5904C77.2959 79.6155 77.3161 79.6462 77.3289 79.6802C77.5149 80.0972 77.697 80.5142 77.8711 80.9354C79.321 84.4435 80.3295 88.1181 80.8734 91.8748C81.4026 95.4992 81.5859 99.2705 81.0105 102.901Z" fill="white"/>
<path d="M46.0296 32.6793C44.4582 35.3863 47.4172 39.9476 44.4351 40.8947L44.6807 40.6491C46.4808 38.4349 42.7184 33.7485 44.5185 31.5343C44.7982 31.2095 45.0383 30.8526 45.2337 30.4712" fill="#2F2E41"/>
<path d="M60.7458 72.3936C60.7973 72.1227 60.7889 71.8438 60.7209 71.5766C60.653 71.3093 60.5273 71.0602 60.3527 70.8468C60.1781 70.6334 59.9588 70.4608 59.7103 70.3413C59.4618 70.2218 59.1901 70.1582 58.9144 70.1551L55.0301 58.8701L52.8801 61.6106L56.9869 72.1551C57.0124 72.6187 57.2069 73.0568 57.5338 73.3865C57.8607 73.7162 58.2971 73.9146 58.7604 73.9439C59.2238 73.9733 59.6818 73.8318 60.0477 73.546C60.4136 73.2603 60.662 72.8503 60.7458 72.3936Z" fill="#FFB8B8"/>
<path d="M43.6719 45.1476C43.6719 45.1476 43.551 41.0626 47.204 43.4028C50.857 45.7429 58.8105 67.6643 58.8105 67.6643L54.8525 69.8057L45.8673 49.7451L43.6719 45.1476Z" fill="#FF639B"/>
<path d="M54.4488 115.162L52.6247 115.942L48.75 109.277L51.4423 108.126L54.4488 115.162Z" fill="#FFB6B6"/>
<path d="M56.7622 117.911L55.4541 118.47L54.6929 117.335L54.6226 118.825L51.1531 120.308C50.9868 120.379 50.8022 120.395 50.6261 120.354C50.45 120.312 50.2918 120.216 50.1744 120.078C50.0571 119.941 49.9868 119.769 49.9739 119.589C49.9609 119.408 50.006 119.229 50.1024 119.076L52.0554 115.978L51.5219 114.73L54.5104 113.658L56.7622 117.911Z" fill="#2F2E41"/>
<path d="M25.8542 117.423L23.873 117.326L23.3035 109.638L26.2278 109.781L25.8542 117.423Z" fill="#FFB6B6"/>
<path d="M26.7323 120.906L25.3114 120.837L25.1233 119.483L24.4082 120.793L20.6398 120.609C20.4591 120.6 20.2861 120.533 20.1458 120.419C20.0055 120.305 19.9054 120.149 19.8601 119.974C19.8148 119.799 19.8266 119.614 19.8938 119.446C19.9611 119.278 20.0802 119.136 20.2339 119.041L23.3448 117.11L23.4111 115.753L26.5672 116.097L26.7323 120.906Z" fill="#2F2E41"/>
<path d="M30.8592 67.4471C30.8592 67.4471 26.8302 78.4273 26.7651 79.6561C26.7 80.8848 25.5509 96.4231 24.5872 97.326C23.6236 98.2288 20.6774 112.226 22.9698 113.321C25.2622 114.416 32.4948 112.602 32.4948 112.602L35.0108 96.0679L35.8655 83.4009C35.8655 83.4009 38.4676 113.23 43.1871 113.142C47.9065 113.054 53.6575 111.257 53.6575 111.257L47.0518 93.1925C47.0518 93.1925 47.1452 71.8064 45.6141 67.493C44.083 63.1796 30.8592 67.4471 30.8592 67.4471Z" fill="#2F2E41"/>
<path d="M42.8149 39.1577L37.419 39.652L36.5498 42.3203C36.5498 42.3203 32.0342 44.8003 33.0341 45.9269C34.034 47.0535 32.8105 54.6461 32.8105 54.6461L33.0868 60.8091C33.0868 60.8091 32.79 65.0789 31.9016 66.0627C31.0133 67.0465 28.6892 69.4589 30.3314 68.3048C36.0892 64.258 46.1534 67.6726 46.1534 67.6726L44.7156 58.8665C44.7156 58.8665 47.9813 44.4488 46.6925 43.2312C45.4038 42.0135 44.1878 41.8596 44.1878 41.8596L42.8149 39.1577Z" fill="#FF639B"/>
<path d="M14.4619 67.0904C14.733 67.0399 14.9898 66.9306 15.214 66.7701C15.4383 66.6097 15.6247 66.4021 15.76 66.1618C15.8954 65.9216 15.9764 65.6545 15.9974 65.3796C16.0184 65.1046 15.9788 64.8284 15.8815 64.5704L24.9823 56.8494L21.6477 55.8428L13.3176 63.502C12.895 63.6942 12.5576 64.0347 12.3693 64.4591C12.181 64.8834 12.1549 65.3621 12.2959 65.8044C12.437 66.2467 12.7354 66.6219 13.1346 66.859C13.5338 67.096 14.0061 67.1783 14.4619 67.0904Z" fill="#FFB8B8"/>
<path d="M37.5747 46.8941C37.5747 46.8941 39.3678 43.2216 35.0751 43.849C30.7824 44.4763 14.5039 61.1741 14.5039 61.1741L17.2281 64.756L33.6801 50.1788L37.5747 46.8941Z" fill="#6C63FF"/>
<path d="M30.584 40.6649L13.5644 62.4692C13.27 62.8476 13.1376 63.3273 13.1962 63.8032C13.2549 64.2791 13.4998 64.7123 13.8773 65.0079C17.8297 74.6046 29.6541 81.7209 43.564 88.1802C43.9423 88.475 44.4221 88.6075 44.8981 88.5489C45.374 88.4902 45.8073 88.2451 46.1027 87.8673L63.1223 66.0631C63.417 65.6847 63.5496 65.2049 63.491 64.729C63.4323 64.253 63.1872 63.8197 62.8094 63.5243C51.1365 56.933 41.1036 49.2965 33.1228 40.352C32.7443 40.0576 32.2646 39.9252 31.7887 39.9838C31.3128 40.0425 30.8796 40.2874 30.584 40.6649Z" fill="#E6E6E6"/>
<path d="M61.9279 65.5674L56.7473 72.2044C53.5828 76.2343 48.952 78.8481 43.8666 79.4748C38.7811 80.1015 33.6543 78.6903 29.606 75.5493L15.0877 64.2168C14.8726 64.0489 14.7329 63.8025 14.6993 63.5317C14.6656 63.2609 14.7408 62.9878 14.9082 62.7723L31.3543 41.7028C31.5227 41.4881 31.7693 41.3488 32.0402 41.3157C32.311 41.2826 32.584 41.3583 32.7991 41.5261C40.1433 51.0096 49.9741 58.3896 61.75 64.1241C61.9647 64.2921 62.1041 64.5384 62.1374 64.809C62.1708 65.0796 62.0954 65.3523 61.9279 65.5674Z" fill="white"/>
<path d="M25.1418 59.2391L21.7679 63.5615C21.6783 63.676 21.547 63.7503 21.4027 63.768C21.2585 63.7857 21.1131 63.7454 20.9985 63.656C20.884 63.5665 20.8096 63.4353 20.7917 63.291C20.7739 63.1468 20.8141 63.0014 20.9034 62.8867L24.2773 58.5644C24.3216 58.5075 24.3766 58.46 24.4393 58.4244C24.5019 58.3889 24.571 58.366 24.6425 58.3572C24.714 58.3483 24.7865 58.3537 24.856 58.3729C24.9254 58.3921 24.9904 58.4248 25.0472 58.4691C25.104 58.5134 25.1515 58.5685 25.187 58.6312C25.2225 58.6939 25.2453 58.763 25.254 58.8345C25.2628 58.906 25.2574 58.9786 25.2382 59.048C25.2189 59.1174 25.1861 59.1824 25.1418 59.2391Z" fill="#666666"/>
<path d="M31.4702 56.0329L24.0609 65.5252C24.0166 65.582 23.9615 65.6295 23.8989 65.665C23.8362 65.7004 23.7672 65.7232 23.6957 65.732C23.6242 65.7409 23.5517 65.7355 23.4824 65.7163C23.413 65.6971 23.348 65.6644 23.2913 65.6201C23.2345 65.5758 23.187 65.5207 23.1515 65.4581C23.116 65.3954 23.0932 65.3264 23.0844 65.2549C23.0756 65.1834 23.081 65.1109 23.1002 65.0415C23.1194 64.9721 23.1521 64.9072 23.1964 64.8504L30.6057 55.3581C30.65 55.3013 30.705 55.2536 30.7677 55.218C30.8304 55.1824 30.8995 55.1595 30.971 55.1507C31.0426 55.1418 31.1151 55.1471 31.1846 55.1663C31.2541 55.1855 31.3191 55.2182 31.3759 55.2626C31.4328 55.3069 31.4803 55.3621 31.5158 55.4248C31.5513 55.4875 31.5741 55.5566 31.5828 55.6282C31.5916 55.6998 31.5861 55.7723 31.5668 55.8418C31.5475 55.9112 31.5147 55.9762 31.4702 56.0329Z" fill="#CCCCCC"/>
<path d="M36.9662 56.8639L27.8661 68.5224C27.7711 68.6191 27.6439 68.6774 27.5086 68.6864C27.3734 68.6953 27.2396 68.6541 27.1327 68.5707C27.0259 68.4873 26.9535 68.3675 26.9293 68.2341C26.9051 68.1008 26.9308 67.9632 27.0016 67.8476L36.1017 56.1891C36.1967 56.0924 36.3239 56.034 36.4592 56.0251C36.5944 56.0162 36.7282 56.0574 36.8351 56.1408C36.9419 56.2242 37.0143 56.344 37.0385 56.4773C37.0627 56.6107 37.037 56.7483 36.9662 56.8639Z" fill="#CCCCCC"/>
<path d="M42.8696 54.2023L30.1681 70.4746C30.0731 70.5713 29.9459 70.6297 29.8106 70.6386C29.6754 70.6476 29.5416 70.6064 29.4347 70.523C29.3279 70.4396 29.2555 70.3198 29.2313 70.1864C29.2071 70.0531 29.2328 69.9155 29.3036 69.7999L42.0052 53.5275C42.1001 53.4308 42.2274 53.3724 42.3626 53.3635C42.4979 53.3546 42.6317 53.3957 42.7385 53.4791C42.8453 53.5625 42.9178 53.6824 42.9419 53.8157C42.9661 53.9491 42.9404 54.0867 42.8696 54.2023Z" fill="#CCCCCC"/>
<path d="M42.8256 61.4376L33.7254 73.0961C33.6305 73.1928 33.5032 73.2512 33.368 73.2601C33.2327 73.269 33.0989 73.2278 32.9921 73.1444C32.8852 73.061 32.8128 72.9412 32.7886 72.8079C32.7645 72.6745 32.7902 72.5369 32.861 72.4213L41.9611 60.7629C42.0561 60.6661 42.1833 60.6078 42.3185 60.5989C42.4538 60.5899 42.5876 60.6311 42.6944 60.7145C42.8013 60.7979 42.8737 60.9177 42.8979 61.0511C42.9221 61.1844 42.8963 61.322 42.8256 61.4376Z" fill="#CCCCCC"/>
<path d="M54.8666 62.8756L45.7664 74.5341C45.6715 74.6308 45.5442 74.6892 45.409 74.6981C45.2737 74.707 45.1399 74.6658 45.0331 74.5824C44.9263 74.499 44.8538 74.3792 44.8297 74.2459C44.8055 74.1125 44.8312 73.9749 44.902 73.8593L54.0021 62.2008C54.0971 62.1041 54.2243 62.0458 54.3596 62.0368C54.4948 62.0279 54.6286 62.0691 54.7355 62.1525C54.8423 62.2359 54.9147 62.3557 54.9389 62.4891C54.9631 62.6224 54.9373 62.76 54.8666 62.8756Z" fill="#666666"/>
<path d="M48.729 58.7755L36.0274 75.0479C35.9325 75.1446 35.8052 75.203 35.67 75.2119C35.5347 75.2208 35.4009 75.1796 35.2941 75.0962C35.1872 75.0128 35.1148 74.893 35.0906 74.7597C35.0665 74.6263 35.0922 74.4887 35.163 74.3731L47.8645 58.1007C47.9595 58.004 48.0867 57.9457 48.222 57.9367C48.3572 57.9278 48.491 57.969 48.5979 58.0524C48.7047 58.1358 48.7771 58.2556 48.8013 58.389C48.8255 58.5223 48.7998 58.6599 48.729 58.7755Z" fill="#CCCCCC"/>
<path d="M33.7686 32.2693C33.7682 33.1467 33.9833 34.0106 34.3948 34.7854C34.8063 35.5602 35.4018 36.2222 36.1288 36.7131C36.8559 37.2041 37.6924 37.5091 38.5648 37.6013C39.4373 37.6935 40.319 37.5702 41.1327 37.242C41.9463 36.9139 42.667 36.3911 43.2314 35.7195C43.7959 35.0478 44.1868 34.2479 44.3699 33.3899C44.553 32.5319 44.5226 31.6421 44.2816 30.7985C44.0405 29.955 43.596 29.1835 42.9872 28.5519L42.9615 28.5262C42.9186 28.4811 42.8757 28.4361 42.8307 28.3932C42.8304 28.3932 42.8301 28.3932 42.8298 28.3931C42.8296 28.393 42.8293 28.3928 42.8291 28.3926C42.8289 28.3924 42.8288 28.3922 42.8287 28.3919C42.8286 28.3916 42.8285 28.3914 42.8285 28.3911C42.7728 28.3396 42.717 28.2882 42.6592 28.2389C41.8847 27.5599 40.9309 27.1185 39.9121 26.9675C38.8932 26.8166 37.8525 26.9625 36.9144 27.3877C35.9763 27.813 35.1807 28.4996 34.6228 29.3654C34.0649 30.2312 33.7683 31.2394 33.7686 32.2693Z" fill="#2F2E41"/>
<path d="M40.4486 38.0033C42.9308 38.0033 44.943 35.9911 44.943 33.509C44.943 31.0268 42.9308 29.0146 40.4486 29.0146C37.9665 29.0146 35.9543 31.0268 35.9543 33.509C35.9543 35.9911 37.9665 38.0033 40.4486 38.0033Z" fill="#FFB8B8"/>
<path d="M35.6572 34.7067C35.2179 32.727 35.8529 30.509 37.2372 29.1874C37.9335 28.5358 38.7995 28.0939 39.7357 27.9124C40.6719 27.731 41.6403 27.8173 42.5296 28.1616C42.6426 28.2072 42.7556 28.2571 42.8665 28.3093L42.9181 28.3336V28.3411C42.9281 28.3481 42.9382 28.3553 42.9482 28.3627C42.9691 28.3824 42.9946 28.3964 43.0224 28.4037C43.4126 28.3935 43.8006 28.4658 44.1609 28.616C44.5212 28.7662 44.8457 28.9909 45.1132 29.2752C45.8098 30.0311 46.1378 31.2525 46.0372 32.7145L46.0341 32.7602L45.9951 32.7845C45.4677 33.1187 44.9205 33.4205 44.3564 33.688C42.3834 34.6158 40.5822 34.7877 38.851 34.2129L38.8192 34.2024L38.0926 32.9846C37.9435 33.8245 38.0231 36.6103 37.1672 36.7613L35.6758 34.7906L35.6572 34.7067Z" fill="#2F2E41"/>
<path d="M26.1968 38.6198C27.7262 37.8304 25.7592 34.9654 26.1545 33.2903C26.5498 31.6152 29.396 31.0764 29.5774 29.3649C29.7587 27.6533 30.1852 25.8881 31.3146 24.5893C32.0363 23.7595 33.0997 23.1468 34.1946 23.2508C34.565 23.2859 34.9235 23.4005 35.2457 23.5867C35.5679 23.773 35.8461 24.0264 36.0615 24.3299C36.2769 24.6333 36.4243 24.9796 36.4938 25.3452C36.5633 25.7108 36.5531 26.087 36.4641 26.4483C36.7758 26.0066 37.5826 26.1023 37.7822 26.6047C37.9598 27.0514 37.5676 27.5924 37.106 27.6319C36.5021 28.3778 35.8105 29.1693 34.8644 29.3197C34.7136 29.3543 34.557 29.3543 34.4063 29.3195C34.2556 29.2847 34.1148 29.2161 33.9944 29.1189C33.7718 28.9052 33.7545 28.4778 34.0186 28.3181C32.8295 28.7904 32.1324 30.076 31.956 31.3432C31.7796 32.6103 32.0237 33.8925 32.1845 35.1617C32.3453 36.431 32.4146 37.7662 31.917 38.9448C31.329 40.3374 29.9752 41.3355 28.4978 41.6556C27.0204 41.9757 25.4471 41.6629 24.1098 40.9581C22.7725 40.2532 21.6573 39.1772 20.7463 37.9708C22.3156 39.0851 24.4866 39.5026 26.1968 38.6198Z" fill="#2F2E41"/>
<path d="M38.3016 33.2183C36.7302 35.9254 39.6891 40.4866 36.707 41.4338L36.9527 41.1881C38.7528 38.974 34.9904 34.2876 36.7905 32.0734C37.0701 31.7486 37.3102 31.3917 37.5057 31.0103" fill="#2F2E41"/>
<path d="M35.8672 34.6656C35.8672 34.6656 37.1985 29.6961 42.9055 28.5491C42.9119 28.547 42.9334 28.5384 42.9612 28.5255C42.9784 28.5148 42.9998 28.5041 43.0213 28.4934C42.957 28.4569 42.8948 28.4248 42.8305 28.3926L42.8296 28.3924L42.8289 28.392L42.8285 28.3913L42.8283 28.3904C42.7726 28.339 42.7168 28.2875 42.659 28.2382L42.496 28.2447C42.496 28.2447 36.7698 27.3378 35.8672 34.6656Z" fill="#FD6584"/>
<path opacity="0.1" d="M195.195 111.866C195.195 114.698 192.26 117.347 187.138 119.63H90.3912C85.9149 119.63 81.7226 118.01 78.1296 115.186C77.2264 114.115 76.7505 113.004 76.7505 111.865C76.7505 108.855 80.0694 106.045 85.8077 103.671L85.9697 103.606C87.5893 102.942 89.3995 102.315 91.3779 101.726C91.4277 101.711 91.4788 101.697 91.5286 101.68C93.0984 101.219 94.7682 100.782 96.5381 100.369C96.5942 100.357 96.649 100.343 96.7051 100.333C97.3878 100.171 98.0842 100.02 98.7956 99.8696L99.0697 99.8123C104.246 98.7384 110.13 97.8862 116.511 97.3082H116.519C117.413 97.2251 118.316 97.1508 119.229 97.0851C120.244 97.0042 121.272 96.9357 122.311 96.8721C123.104 96.821 123.908 96.7774 124.714 96.7376C124.717 96.7363 124.72 96.7356 124.723 96.7356C124.727 96.7356 124.73 96.7363 124.733 96.7376C128.369 96.5544 132.127 96.4585 135.969 96.4585C145.47 96.4585 154.45 97.0415 162.407 98.0781C162.414 98.0768 162.422 98.0768 162.429 98.0781C163.653 98.2376 164.854 98.4057 166.025 98.5851C166.36 98.6375 166.694 98.6898 167.021 98.7434C168.343 98.9568 169.63 99.1823 170.883 99.4198C185.622 102.222 195.195 106.755 195.195 111.866Z" fill="#4C77BD"/>
<path d="M171.11 59.6827C171.11 59.6827 169.792 59.1483 165.598 61.0706C161.405 62.9929 160.882 62.75 159.797 62.461C158.711 62.1719 158.106 62.0972 156.942 60.4913C156.942 60.4913 156.121 56.0424 155.323 55.3522C154.524 54.662 151.153 55.7459 151.153 55.7459C151.153 55.7459 147.105 56.674 146.334 51.2609C146.334 51.2609 146.881 47.1845 146.136 45.9337C146.136 45.9337 147.641 46.5815 150.123 45.535C152.604 44.4885 154.591 46.6625 154.591 46.6625C154.591 46.6625 155.214 48.2821 155.152 49.2488C155.09 50.2156 155.484 50.5782 156.667 50.111C156.667 50.111 157.249 49.2837 156.425 47.9158C155.602 46.5479 155.014 45.53 155.243 44.4686C155.472 43.4071 156.134 41.9333 158.258 41.197C160.382 40.4607 163.266 40.3249 164.65 39.7431C166.035 39.1613 166.376 38.79 166.376 38.79C166.376 38.79 165.524 39.6434 167.531 43.2626C169.538 46.8818 168.258 48.4515 168.258 48.4515C168.258 48.4515 167.191 50.9968 162.476 50.7899C162.476 50.7899 157.934 50.9556 160.411 52.8817C160.411 52.8817 161.997 52.559 164.368 51.8053C166.738 51.0516 168.45 54.1624 168.875 56.3264C169.3 58.4905 171.11 59.6827 171.11 59.6827Z" fill="#4C77BD"/>
<mask id="path-55-inside-1_444_298" fill="white">
<path d="M165.004 41.5304L165.029 41.5229C165.211 42.2131 163.181 44.9889 161.446 47.1952L161.426 47.1791C163.873 44.0719 165.145 42.0649 165.004 41.5304Z"/>
</mask>
<path d="M165.004 41.5304L165.029 41.5229C165.211 42.2131 163.181 44.9889 161.446 47.1952L161.426 47.1791C163.873 44.0719 165.145 42.0649 165.004 41.5304Z" fill="#444053"/>
<path d="M165.004 41.5304L164.956 41.3703L164.801 41.4167L164.842 41.573L165.004 41.5304ZM165.029 41.5229L165.191 41.4803L165.147 41.3131L164.981 41.3628L165.029 41.5229ZM161.446 47.1952L161.341 47.325L161.472 47.4321L161.577 47.2986L161.446 47.1952ZM161.426 47.1791L161.295 47.0756L161.193 47.205L161.321 47.3088L161.426 47.1791ZM165.052 41.6906L165.077 41.6831L164.981 41.3628L164.956 41.3703L165.052 41.6906ZM164.867 41.5656C164.878 41.6075 164.877 41.6907 164.838 41.8287C164.8 41.9616 164.733 42.1254 164.64 42.3166C164.453 42.6987 164.166 43.1723 163.817 43.698C163.119 44.7484 162.181 45.9898 161.315 47.0919L161.577 47.2986C162.446 46.1944 163.39 44.9447 164.096 43.8831C164.448 43.3528 164.744 42.8651 164.94 42.4637C165.038 42.2632 165.114 42.0796 165.159 41.92C165.203 41.7654 165.225 41.6109 165.191 41.4803L164.867 41.5656ZM161.551 47.0655L161.531 47.0493L161.321 47.3088L161.341 47.325L161.551 47.0655ZM161.557 47.2825C162.782 45.7271 163.716 44.4434 164.327 43.4795C164.632 42.998 164.859 42.5919 165.001 42.2691C165.073 42.1078 165.125 41.963 165.154 41.837C165.183 41.7143 165.194 41.5932 165.166 41.4878L164.842 41.573C164.85 41.6013 164.852 41.6598 164.828 41.7612C164.805 41.8595 164.762 41.9835 164.696 42.134C164.563 42.4349 164.345 42.8251 164.044 43.3005C163.442 44.2505 162.517 45.5239 161.295 47.0756L161.557 47.2825Z" fill="white" mask="url(#path-55-inside-1_444_298)"/>
<mask id="path-57-inside-2_444_298" fill="white">
<path d="M161.461 47.1367L161.472 47.1641C160.085 48.9257 158.343 51.0262 156.947 52.5873C156.814 52.7355 156.682 52.8912 156.555 53.0507L156.515 53.0183C156.639 52.8589 156.775 52.7019 156.909 52.5536C158.303 50.9988 160.073 48.8996 161.461 47.1367Z"/>
</mask>
<path d="M161.461 47.1367L161.472 47.1641C160.085 48.9257 158.343 51.0262 156.947 52.5873C156.814 52.7355 156.682 52.8912 156.555 53.0507L156.515 53.0183C156.639 52.8589 156.775 52.7019 156.909 52.5536C158.303 50.9988 160.073 48.8996 161.461 47.1367Z" fill="#444053"/>
<path d="M161.461 47.1367L161.616 47.0734L161.507 46.8078L161.329 47.0333L161.461 47.1367ZM161.472 47.1641L161.603 47.2675L161.664 47.191L161.627 47.1008L161.472 47.1641ZM156.947 52.5873L157.072 52.6991L157.072 52.6987L156.947 52.5873ZM156.555 53.0507L156.449 53.1805L156.58 53.2869L156.686 53.1549L156.555 53.0507ZM156.515 53.0183L156.383 52.9154L156.282 53.0446L156.409 53.1481L156.515 53.0183ZM156.909 52.5536L157.033 52.6654L157.033 52.6652L156.909 52.5536ZM161.306 47.2L161.317 47.2274L161.627 47.1008L161.616 47.0734L161.306 47.2ZM161.341 47.0607C159.956 48.8202 158.215 50.9179 156.823 52.4758L157.072 52.6987C158.47 51.1345 160.215 49.0312 161.603 47.2675L161.341 47.0607ZM156.823 52.4755C156.687 52.6261 156.553 52.7844 156.424 52.9465L156.686 53.1549C156.811 52.9981 156.94 52.8449 157.072 52.6991L156.823 52.4755ZM156.66 52.9209L156.62 52.8885L156.409 53.1481L156.449 53.1805L156.66 52.9209ZM156.647 53.1213C156.768 52.966 156.901 52.8122 157.033 52.6654L156.784 52.4418C156.65 52.5915 156.511 52.7517 156.383 52.9154L156.647 53.1213ZM157.033 52.6652C158.429 51.1079 160.202 49.0059 161.592 47.2402L161.329 47.0333C159.944 48.7933 158.176 50.8898 156.784 52.442L157.033 52.6652Z" fill="white" mask="url(#path-57-inside-2_444_298)"/>
<path d="M156.549 52.979L156.576 53.0263C154.037 56.197 153.869 61.1243 153.863 61.1629L153.327 60.54C153.333 60.5001 153.992 56.1721 156.549 52.979Z" fill="#444053"/>
<path d="M168.171 57.9636C168.171 57.9636 165.181 56.4063 162.844 56.967C160.506 57.5276 155.25 54.9861 155.25 54.9861C155.25 54.9861 153.02 54.0804 152.572 53.0476C152.572 53.0476 151.041 51.428 150.952 50.592C150.864 49.7561 149.375 47.6493 148.403 47.5684" stroke="white" stroke-width="0.124584" stroke-miterlimit="10"/>
<path d="M167.731 59.4624C167.731 59.4624 166.224 58.4458 166.399 57.2622" stroke="white" stroke-width="0.124584" stroke-miterlimit="10"/>
<path d="M165.419 60.7735C165.419 60.7735 163.262 59.9911 163.052 56.9214" stroke="white" stroke-width="0.124584" stroke-miterlimit="10"/>
<path d="M161.942 61.5684C161.942 61.5684 159.881 59.8591 160.565 56.8716" stroke="white" stroke-width="0.124584" stroke-miterlimit="10"/>
<path d="M157.757 60.7343C157.757 60.7343 156.386 57.8564 157.606 55.9839" stroke="#444053" stroke-width="0.124584" stroke-miterlimit="10"/>
<path d="M168.2 56.0659C168.2 56.0659 166.641 56.5643 166.975 57.3815" stroke="white" stroke-width="0.124584" stroke-miterlimit="10"/>
<path d="M166.318 53.2417C166.318 53.2417 164.232 53.9032 164.183 56.8546" stroke="white" stroke-width="0.124584" stroke-miterlimit="10"/>
<path d="M163.408 52.5542C163.408 52.5542 161.508 54.8989 161.648 57.0292" stroke="white" stroke-width="0.124584" stroke-miterlimit="10"/>
<path d="M160.082 53.4731C160.082 53.4731 158.196 55.2771 158.436 56.28" stroke="white" stroke-width="0.124584" stroke-miterlimit="10"/>
<path d="M158.945 52.8364C158.945 52.8364 157.175 53.1528 156.927 52.5723" stroke="white" stroke-width="0.124584" stroke-miterlimit="10"/>
<path d="M156.646 50.7017C156.646 50.7017 157.539 51.8852 157.767 51.6198" stroke="white" stroke-width="0.124584" stroke-miterlimit="10"/>
<path d="M165.506 49.9523C165.506 49.9523 161.046 50.2762 160.037 48.9307" stroke="white" stroke-width="0.124584" stroke-miterlimit="10"/>
<path d="M155.713 44.7363C155.713 44.7363 157.804 49.2276 159.326 49.7994" stroke="white" stroke-width="0.124584" stroke-miterlimit="10"/>
<path d="M157.903 42.5967C157.903 42.5967 159.187 46.7279 160.779 48.0173" stroke="white" stroke-width="0.124584" stroke-miterlimit="10"/>
<path d="M167.382 46.5428C167.382 46.5428 163.991 47.998 161.956 46.5254" stroke="white" stroke-width="0.0934378" stroke-miterlimit="10"/>
<path d="M160.923 41.7163C160.923 41.7163 161.698 44.7524 162.742 45.4862" stroke="white" stroke-width="0.0934378" stroke-miterlimit="10"/>
<path d="M166.87 43.1401C166.87 43.1401 164.964 43.8627 164.254 43.3096" stroke="white" stroke-width="0.0934378" stroke-miterlimit="10"/>
<path d="M155.012 51.6929C155.012 51.6929 155.012 54.3403 154.292 54.5284" stroke="#444053" stroke-width="0.124584" stroke-miterlimit="10"/>
<path d="M149.121 55.1228C149.121 55.1228 151.986 55.3719 153.303 53.8906" stroke="#444053" stroke-width="0.124584" stroke-miterlimit="10"/>
<path d="M154.275 48.5659C154.275 48.5659 153.582 51.2507 151.671 51.9745" stroke="white" stroke-width="0.124584" stroke-miterlimit="10"/>
<path d="M147.404 52.2944C147.404 52.2944 149.43 52.9983 151.173 51.2056" stroke="white" stroke-width="0.124584" stroke-miterlimit="10"/>
<path d="M152.021 46.2573C152.021 46.2573 151.83 48.5372 150.591 49.6049" stroke="white" stroke-width="0.124584" stroke-miterlimit="10"/>
<path d="M147.481 48.8202C147.481 48.8202 149.162 48.8314 149.556 48.2832" stroke="white" stroke-width="0.124584" stroke-miterlimit="10"/>
<path d="M159.637 57.4775H111.772V81.6393H159.637V57.4775Z" fill="#33323D"/>
<path d="M174.7 88.9795H96.8621V104.884H174.7V88.9795Z" fill="#33323D"/>
<path d="M115.425 92.9111H155.364L163.321 109.481H107.009L115.425 92.9111Z" fill="white"/>
<path d="M94.6443 79.4976V87.7562V89.4954V104.883H109.554V90.203H162.007V104.883H176.917V89.4954V87.7562V79.4976H94.6443Z" fill="#504F60"/>
<path opacity="0.1" d="M176.917 79.4976H94.6443V87.755H176.917V79.4976Z" fill="#33323D"/>
<path opacity="0.8" d="M172.483 84.8511C173.158 84.8511 173.706 84.3034 173.706 83.6277C173.706 82.952 173.158 82.4043 172.483 82.4043C171.807 82.4043 171.259 82.952 171.259 83.6277C171.259 84.3034 171.807 84.8511 172.483 84.8511Z" fill="#8CCF4D"/>
<path opacity="0.8" d="M166.977 84.8511C167.653 84.8511 168.201 84.3034 168.201 83.6277C168.201 82.952 167.653 82.4043 166.977 82.4043C166.302 82.4043 165.754 82.952 165.754 83.6277C165.754 84.3034 166.302 84.8511 166.977 84.8511Z" fill="#FA5959"/>
<path d="M113.615 77.884V51.7491H157.796V77.884H113.615Z" fill="#D5E5FF" stroke="black" stroke-width="0.167211"/>
<path d="M164.625 90.0548C164.719 91.0727 163.95 92.0606 164.174 93.0573C164.222 93.2704 164.314 93.4722 164.347 93.6802C164.44 94.272 164.087 94.8326 163.749 95.3285L160.855 99.5867C160.739 99.7736 160.6 99.9451 160.442 100.098C159.887 100.596 159.058 100.539 158.331 100.686C157.821 100.789 157.338 101.002 156.917 101.308C156.899 101.323 156.887 101.344 156.883 101.367C156.88 101.39 156.885 101.414 156.899 101.433C157.018 101.597 157.177 101.729 157.361 101.816C157.545 101.903 157.747 101.943 157.95 101.931C158.026 102.031 157.95 102.181 157.845 102.25C157.69 102.357 157.472 102.386 157.446 102.65C157.435 102.742 157.453 102.835 157.498 102.916C157.615 103.094 157.797 103.22 158.005 103.267C159.002 103.573 160.089 103.035 160.839 102.303C161.589 101.57 162.127 100.646 162.864 99.8995C163.271 99.4871 163.736 99.1333 164.154 98.7334C164.992 97.936 165.649 96.9655 166.272 95.9925C166.478 95.7104 166.633 95.3946 166.731 95.0594C166.808 94.728 166.773 94.3779 166.863 94.049C166.98 93.6192 167.295 93.2766 167.557 92.9153C168.071 92.2077 168.414 91.343 168.345 90.471C168.277 89.5989 167.739 88.7405 166.916 88.444C166.661 88.3425 166.381 88.3254 166.115 88.3954C165.778 88.4988 165.53 88.7779 165.299 89.0445L164.75 89.6786C164.613 89.819 164.504 89.9843 164.43 90.1657C164.394 90.2572 164.386 90.3569 164.406 90.4529C164.426 90.5488 164.474 90.6369 164.543 90.7064" fill="#FBBEBE"/>
<path opacity="0.05" d="M164.625 90.0548C164.719 91.0727 163.95 92.0606 164.174 93.0573C164.222 93.2704 164.314 93.4722 164.347 93.6802C164.44 94.272 164.087 94.8326 163.749 95.3285L160.855 99.5867C160.739 99.7736 160.6 99.9451 160.442 100.098C159.887 100.596 159.058 100.539 158.331 100.686C157.821 100.789 157.338 101.002 156.917 101.308C156.899 101.323 156.887 101.344 156.883 101.367C156.88 101.39 156.885 101.414 156.899 101.433C157.018 101.597 157.177 101.729 157.361 101.816C157.545 101.903 157.747 101.943 157.95 101.931C158.026 102.031 157.95 102.181 157.845 102.25C157.69 102.357 157.472 102.386 157.446 102.65C157.435 102.742 157.453 102.835 157.498 102.916C157.615 103.094 157.797 103.22 158.005 103.267C159.002 103.573 160.089 103.035 160.839 102.303C161.589 101.57 162.127 100.646 162.864 99.8995C163.271 99.4871 163.736 99.1333 164.154 98.7334C164.992 97.936 165.649 96.9655 166.272 95.9925C166.478 95.7104 166.633 95.3946 166.731 95.0594C166.808 94.728 166.773 94.3779 166.863 94.049C166.98 93.6192 167.295 93.2766 167.557 92.9153C168.071 92.2077 168.414 91.343 168.345 90.471C168.277 89.5989 167.739 88.7405 166.916 88.444C166.661 88.3425 166.381 88.3254 166.115 88.3954C165.778 88.4988 165.53 88.7779 165.299 89.0445L164.75 89.6786C164.613 89.819 164.504 89.9843 164.43 90.1657C164.394 90.2572 164.386 90.3569 164.406 90.4529C164.426 90.5488 164.474 90.6369 164.543 90.7064" fill="black"/>
<path d="M166.817 116.253C166.184 116.638 165.397 116.663 164.662 116.572C164.537 116.558 164.404 116.55 164.328 116.641C164.218 116.774 164.348 116.968 164.481 117.075C164.915 117.401 165.425 117.61 165.962 117.685C166.442 117.752 166.926 117.784 167.41 117.781C168.731 117.803 170.059 117.825 171.367 117.635C171.442 117.629 171.516 117.608 171.582 117.571C171.667 117.512 171.725 117.423 171.745 117.322C171.836 116.983 171.663 116.617 171.403 116.382C171.142 116.146 170.807 116.014 170.48 115.883L169.331 115.436C169.061 115.33 168.628 115.052 168.334 115.073C167.797 115.117 167.273 115.987 166.817 116.253Z" fill="#3F3D56"/>
<path opacity="0.05" d="M166.817 116.253C166.184 116.638 165.397 116.663 164.662 116.572C164.537 116.558 164.404 116.55 164.328 116.641C164.218 116.774 164.348 116.968 164.481 117.075C164.915 117.401 165.425 117.61 165.962 117.685C166.442 117.752 166.926 117.784 167.41 117.781C168.731 117.803 170.059 117.825 171.367 117.635C171.442 117.629 171.516 117.608 171.582 117.571C171.667 117.512 171.725 117.423 171.745 117.322C171.836 116.983 171.663 116.617 171.403 116.382C171.142 116.146 170.807 116.014 170.48 115.883L169.331 115.436C169.061 115.33 168.628 115.052 168.334 115.073C167.797 115.117 167.273 115.987 166.817 116.253Z" fill="black"/>
<path d="M167.618 100.998C167.141 101.635 166.645 102.369 166.763 103.157C166.827 103.582 167.065 103.957 167.239 104.349C167.458 104.889 167.619 105.45 167.721 106.024C167.901 106.857 168.08 107.693 168.19 108.539C168.314 109.495 167.729 112.259 167.674 113.222C167.66 113.454 167.634 113.706 167.472 113.873C167.409 113.939 167.324 113.997 167.297 114.078C167.279 114.161 167.292 114.247 167.334 114.32C167.604 114.929 168.156 115.381 168.769 115.64C169.382 115.9 170.873 116.344 171.539 116.368C171.627 116.379 171.717 116.367 171.799 116.333C171.889 116.279 171.959 116.199 172.001 116.103C172.482 115.184 172.02 111.915 172.027 110.878C172.027 110.006 172.238 109.153 172.2 108.289C172.169 107.595 171.983 106.918 171.916 106.226C171.805 105.091 172.013 103.952 172.223 102.831C172.382 101.972 172.542 101.113 172.746 100.263C172.87 99.746 173.015 99.2228 173.3 98.7681C173.526 98.4105 173.832 98.1128 174.09 97.7714C174.805 96.8345 175.122 95.6539 174.973 94.4849C174.958 94.3703 173.314 94.9022 173.171 94.9645C172.581 95.2155 172.037 95.5652 171.565 95.9986C171.191 96.3599 170.886 96.8445 170.552 97.2506C170.081 97.8237 169.616 98.4014 169.158 98.9836C168.637 99.6522 168.124 100.324 167.618 100.998Z" fill="#464353"/>
<path opacity="0.05" d="M167.618 100.957C167.141 101.594 166.645 102.328 166.763 103.118C166.827 103.541 167.065 103.916 167.239 104.309C167.457 104.849 167.619 105.41 167.721 105.983C167.901 106.817 168.08 107.653 168.19 108.498C168.314 109.454 167.729 112.22 167.674 113.183C167.66 113.413 167.634 113.666 167.472 113.832C167.409 113.898 167.324 113.956 167.297 114.037C167.278 114.122 167.291 114.211 167.334 114.287C167.604 114.895 168.156 115.348 168.769 115.606C169.382 115.864 170.873 116.104 171.539 116.125C171.627 116.136 171.717 116.124 171.799 116.091C171.889 116.037 171.959 115.956 172.001 115.86C172.482 114.942 172.02 111.881 172.027 110.844C172.027 109.972 172.238 109.119 172.2 108.254C172.169 107.56 171.983 106.884 171.916 106.191C171.805 105.056 172.013 103.918 172.223 102.797C172.382 101.938 172.542 101.078 172.746 100.229C172.87 99.7116 173.015 99.1883 173.3 98.7336C173.526 98.3773 173.832 98.0783 174.09 97.7444C174.804 96.807 175.121 95.6268 174.973 94.4579C174.958 94.342 173.314 94.874 173.171 94.9375C172.58 95.1887 172.037 95.5393 171.565 95.974C171.191 96.3366 170.886 96.82 170.552 97.2199C170.081 97.793 169.616 98.371 169.158 98.9541C168.637 99.6185 168.124 100.286 167.618 100.957Z" fill="black"/>
<path d="M162.299 86.9813C163.781 86.9813 164.982 85.7804 164.982 84.299C164.982 82.8176 163.781 81.6167 162.299 81.6167C160.818 81.6167 159.617 82.8176 159.617 84.299C159.617 85.7804 160.818 86.9813 162.299 86.9813Z" fill="#FBBEBE"/>
<path d="M164.714 84.1871C164.961 84.5826 165.286 84.9244 165.669 85.1919C166.051 85.4594 166.483 85.6473 166.94 85.7444L166.738 86.4757C166.389 87.7377 165.991 89.072 165.023 89.9466C165.129 89.5193 164.991 89.0595 164.75 88.692C164.491 88.3345 164.185 88.0142 163.839 87.7402L162.295 86.3972C162.249 86.3632 162.21 86.321 162.18 86.2726C162.142 86.1782 162.142 86.073 162.18 85.9786C162.376 85.3669 162.938 84.9819 163.393 84.5708C163.622 84.3565 163.826 84.118 164.004 83.8594C164.32 83.4196 164.511 83.8594 164.714 84.1871Z" fill="#FBBEBE"/>
<path d="M158.765 81.6029L158.705 81.1046C159.129 81.2142 159.53 80.8554 159.8 80.4817C160.071 80.1079 160.322 79.6694 160.735 79.5149C161.233 79.3255 161.766 79.6283 162.245 79.8774C162.781 80.1759 163.37 80.3684 163.979 80.4443C164.076 80.4476 164.172 80.4635 164.265 80.4916C164.577 80.6025 164.725 80.99 164.77 81.3475C164.815 81.7051 164.802 82.0788 164.957 82.3953C165.073 82.6345 165.273 82.8126 165.395 83.0481C165.723 83.6835 165.407 84.5506 165.753 85.1735L164.893 84.3849C164.814 84.3126 164.703 84.2379 164.617 84.2989C164.531 84.36 164.543 84.4522 164.515 84.5356C164.431 84.7848 164.126 84.8546 163.903 84.7586C163.68 84.6627 163.519 84.4509 163.356 84.2603C162.976 83.8118 162.524 83.4181 161.986 83.2263C161.753 83.1369 161.503 83.0984 161.254 83.1132C161.005 83.1281 160.762 83.1959 160.542 83.3122C160.141 83.539 159.846 84.0672 159.356 84.0859C158.682 84.1108 158.401 82.8562 158.089 82.3604C158.202 82.2742 158.283 82.1509 158.315 82.0118C158.347 81.8727 158.33 81.7267 158.266 81.5992C158.32 81.578 158.756 81.5219 158.765 81.6029Z" fill="#464353"/>
<path d="M169.945 116.232C169.415 116.705 168.726 116.961 168.016 116.951C167.836 116.951 167.585 116.986 167.584 117.166C167.587 117.22 167.605 117.272 167.636 117.316C167.861 117.69 168.216 117.967 168.633 118.096C169.019 118.213 169.433 118.193 169.836 118.173L171.014 118.112C171.236 118.1 171.459 118.088 171.68 118.061C171.902 118.034 172.141 117.987 172.373 117.954C172.941 117.873 173.515 117.846 174.087 117.873C174.239 117.879 174.415 117.873 174.51 117.758C174.604 117.644 174.553 117.437 174.518 117.271C174.449 116.93 174.518 116.572 174.454 116.23C174.34 115.628 173.823 115.168 173.253 114.95C172.723 114.748 171.784 114.518 171.282 114.853C170.743 115.214 170.42 115.802 169.945 116.232Z" fill="#3F3D56"/>
<path d="M171.111 96.0983C171.216 96.5967 171.693 96.9704 171.708 97.4687C171.719 97.8724 171.43 98.2162 171.223 98.5589C171.026 98.9178 170.859 99.2929 170.725 99.6801C170.332 100.685 169.844 101.651 169.27 102.564C168.993 103.002 168.684 103.477 168.748 103.992C168.791 104.232 168.875 104.463 168.997 104.675L169.825 106.32C170.007 106.649 170.149 106.998 170.249 107.361C170.32 107.673 170.327 107.997 170.373 108.316C170.504 109.325 170.978 110.342 170.699 111.32C170.674 111.405 170.587 111.507 170.52 111.445C170.793 111.955 171.019 112.471 170.993 113.05C170.981 113.354 170.888 113.673 171.001 113.955C171.066 114.065 171.108 114.186 171.126 114.311C171.126 114.393 171.087 114.472 171.079 114.56C171.056 114.793 171.269 114.988 171.492 115.059C171.715 115.13 171.956 115.127 172.18 115.195C172.612 115.319 172.919 115.693 173.289 115.952C173.663 116.212 174.106 116.356 174.562 116.367C174.627 116.374 174.692 116.361 174.749 116.329C174.782 116.301 174.808 116.266 174.826 116.227C174.844 116.187 174.853 116.145 174.854 116.101C174.873 115.895 174.842 115.687 174.763 115.496C174.683 115.304 174.558 115.135 174.398 115.004C174.328 114.96 174.27 114.899 174.229 114.827C174.208 114.763 174.203 114.695 174.213 114.629C174.28 113.723 174.264 112.813 174.165 111.91C174.12 111.625 174.105 111.335 174.121 111.046C174.146 110.805 174.218 110.566 174.191 110.326C174.163 110.085 174.042 109.869 173.97 109.637C173.846 109.226 173.878 108.785 173.864 108.354C173.842 107.606 173.671 106.874 173.501 106.146C173.434 105.861 173.36 105.56 173.157 105.349C172.985 105.169 172.707 104.996 172.772 104.757C172.807 104.668 172.861 104.588 172.929 104.521C173.009 104.421 173.068 104.305 173.102 104.181C173.136 104.057 173.145 103.927 173.127 103.8C173.2 103.819 173.277 103.813 173.345 103.781C173.414 103.749 173.469 103.694 173.501 103.626C174.847 102.992 175.936 101.721 176.416 100.31C176.443 100.207 176.485 100.107 176.54 100.015C176.665 99.8408 176.882 99.7661 177.074 99.6689C177.677 99.3662 178.094 98.7968 178.476 98.2399C178.699 97.916 178.921 97.5821 179.017 97.2021C179.07 96.9565 179.095 96.7058 179.092 96.4546L179.125 95.1565C179.132 95.0726 179.124 94.9882 179.101 94.9073C179.069 94.8298 179.021 94.7598 178.961 94.7017C178.596 94.3127 178.115 94.0508 177.591 93.9542C177.237 93.8907 176.875 93.9032 176.518 93.8733C175.824 93.8159 175.139 93.6017 174.445 93.6515C173.354 93.7312 172.383 94.4875 171.868 95.453C171.688 95.7981 171.498 96.0983 171.111 96.0983Z" fill="#464353"/>
<path d="M165.056 87.6564C165.072 87.8566 165.045 88.0578 164.978 88.2469C164.893 88.4288 164.679 88.5696 164.493 88.4961C164.549 88.3715 164.4 88.2233 164.261 88.2394C164.193 88.2547 164.129 88.2863 164.076 88.3317C164.022 88.3771 163.981 88.4348 163.955 88.4998C163.862 88.6849 163.831 88.895 163.866 89.0991C163.91 89.3482 164.057 89.5974 164.018 89.8466C163.987 90.0584 163.831 90.2702 163.915 90.4695C163.969 90.5591 164.036 90.6398 164.114 90.7087C164.224 90.843 164.277 91.0142 164.264 91.187C164.251 91.3597 164.172 91.5208 164.043 91.6368L166.134 91.678C166.058 92.028 166.213 92.3856 166.393 92.6958C166.895 93.5484 167.587 94.2733 168.416 94.8136C169.245 95.354 170.188 95.6951 171.171 95.8104C171.118 95.8417 171.072 95.8844 171.038 95.9354C171.003 95.9863 170.98 96.0443 170.971 96.1052C170.961 96.166 170.965 96.2283 170.983 96.2874C171 96.3465 171.03 96.401 171.071 96.447C171.24 96.6152 171.528 96.594 171.741 96.4844C171.954 96.3748 172.123 96.1941 172.317 96.0546C172.66 95.8103 173.079 95.6971 173.498 95.7357C173.76 95.7606 174.014 95.8453 174.277 95.8602C175.051 95.9014 175.717 95.3445 176.458 95.1127C177.001 94.9458 177.615 94.9458 178.078 94.6069C178.274 94.4612 178.435 94.222 178.378 93.984C178.329 93.8474 178.252 93.7226 178.152 93.6177C177.889 93.2789 177.735 92.8702 177.548 92.4853C177.175 91.7223 176.663 91.036 176.037 90.462C175.565 90.0488 175.066 89.6687 174.542 89.3246C174.414 89.2294 174.278 89.146 174.136 89.0754C173.945 89.0134 173.76 88.9381 173.58 88.8499C173.331 88.6954 173.193 88.4226 173.005 88.2021C172.59 87.7187 171.953 87.4957 171.442 87.1157C171.1 86.8665 170.798 86.5252 170.388 86.4018C170.19 86.342 169.978 86.3371 169.779 86.2773C169.328 86.1402 168.999 85.7391 168.556 85.5771C168.204 85.4525 167.818 85.4824 167.447 85.4363C167.038 85.3857 166.648 85.2374 166.309 85.004C166.197 84.9133 166.071 84.841 165.936 84.7897C165.376 84.619 165.33 85.6618 165.278 86.0244C165.194 86.5787 165.056 87.112 165.056 87.6564Z" fill="#6C63FF"/>
<path d="M165.602 91.1575C165.696 92.1754 164.927 93.1621 165.151 94.16C165.198 94.373 165.291 94.5749 165.324 94.7829C165.418 95.3747 165.064 95.9353 164.726 96.4299L161.832 100.678C161.716 100.865 161.577 101.037 161.419 101.189C160.864 101.687 160.034 101.63 159.308 101.777C158.798 101.881 158.315 102.093 157.894 102.4C157.876 102.415 157.864 102.435 157.86 102.459C157.857 102.482 157.862 102.505 157.875 102.525C157.995 102.689 158.154 102.821 158.338 102.908C158.521 102.995 158.724 103.035 158.927 103.023C159.003 103.124 158.927 103.272 158.822 103.342C158.667 103.45 158.448 103.479 158.422 103.743C158.411 103.835 158.43 103.928 158.475 104.008C158.592 104.186 158.774 104.312 158.982 104.36C159.978 104.666 161.066 104.128 161.816 103.395C162.566 102.663 163.104 101.738 163.842 100.992C164.249 100.58 164.714 100.226 165.131 99.8261C165.97 99.0287 166.62 98.0582 167.249 97.0852C167.455 96.8029 167.61 96.4872 167.708 96.1521C167.785 95.8207 167.75 95.4706 167.84 95.1417C167.957 94.7119 168.272 94.3681 168.534 94.008C169.048 93.3004 169.391 92.4358 169.322 91.5637C169.254 90.6916 168.715 89.8332 167.893 89.5367C167.638 89.4346 167.357 89.4175 167.092 89.4881C166.756 89.5915 166.507 89.8706 166.276 90.1372L165.727 90.7713C165.59 90.9114 165.481 91.0769 165.408 91.2585C165.372 91.3496 165.364 91.4491 165.384 91.5448C165.404 91.6406 165.451 91.7285 165.52 91.7979" fill="#FBBEBE"/>
<path d="M167.067 86.9749C166.686 86.9974 166.267 87.0347 165.998 87.3063C165.886 87.4311 165.795 87.5733 165.729 87.7274C165.469 88.2594 165.215 88.815 165.196 89.4068C165.18 89.8802 165.32 90.3424 165.389 90.8109C165.449 91.1996 165.297 91.5957 165.264 91.9894C165.737 91.8449 166.359 91.6481 166.788 91.4039C167.069 91.2202 167.367 91.0649 167.679 90.9404C168.134 90.7897 168.897 91.0488 169.326 91.2619C169.349 90.9579 169.123 90.4309 169.146 90.1269C169.15 89.9997 169.173 89.8737 169.214 89.7532C169.278 89.6255 169.355 89.5041 169.442 89.3906C169.607 89.1232 169.683 88.8102 169.659 88.4968C169.635 88.1834 169.512 87.8856 169.308 87.6464C168.926 87.2154 168.325 87.0534 167.754 86.9874C167.393 86.9453 167.03 86.9324 166.667 86.9488" fill="#6C63FF"/>
<path d="M110.625 78.2592L108.168 74.6961C108.168 74.6961 108.122 73.814 107.961 73.6085C107.8 73.4029 107.926 72.9444 107.926 72.9444C107.926 72.9444 108.099 72.6953 107.95 72.6691C107.8 72.6429 107.926 72.0848 107.926 72.0848L107.915 71.1915C107.915 71.1915 108.053 70.3319 107.939 70.1263C107.905 70.0706 107.888 70.0061 107.89 69.9409C107.892 69.8757 107.913 69.8124 107.95 69.7588C107.95 69.7588 108.087 69.2667 107.95 69.1359C107.813 69.0051 107.847 68.2426 107.88 67.6347C107.914 67.0267 107.64 66.6841 107.64 66.5932C107.64 66.5022 106.733 65.6077 106.733 65.5267C106.733 65.4457 106.158 65.1143 105.813 65.0284C105.468 64.9424 105.298 64.8677 105.309 64.8216C105.32 64.7755 104.769 64.5936 104.769 64.5936C104.769 64.5936 104.287 64.5587 104.103 64.3183C103.918 64.0778 103.355 64.008 103.342 64.0055L103.33 63.9582C103.33 63.9408 103.324 63.9233 103.32 63.9059C103.366 63.8334 103.408 63.7585 103.445 63.6816L103.477 63.6119C103.679 63.6132 103.876 63.5518 104.042 63.4362C104.123 63.3687 104.19 63.285 104.237 63.1904C104.285 63.0958 104.312 62.9924 104.317 62.8868C104.327 62.675 104.281 62.4644 104.183 62.2763C104.082 62.0708 103.933 61.8565 103.986 61.6322C104.008 61.5363 104.065 61.4516 104.095 61.3569C104.14 61.172 104.11 60.9771 104.013 60.8137C103.926 60.648 103.805 60.501 103.708 60.3403C103.585 60.1345 103.502 59.907 103.465 59.67C103.458 59.544 103.428 59.4202 103.377 59.305C103.324 59.2238 103.256 59.1546 103.175 59.1019C102.815 58.8455 102.381 58.7142 101.94 58.7282C101.627 58.7381 101.317 58.8229 101.006 58.7842C100.82 58.7523 100.638 58.7048 100.46 58.6422C100.075 58.5276 99.6303 58.4815 99.2951 58.702C98.96 58.9225 98.8267 59.3561 98.5987 59.6987C98.3981 59.9977 98.1004 60.2493 97.9509 60.5708C97.9509 60.5708 97.9509 60.5583 97.9509 60.5533C97.9133 60.6265 97.8844 60.7039 97.8649 60.7838C97.8222 61.0376 97.8396 61.298 97.916 61.5438C97.9329 61.6761 97.9992 61.7972 98.1016 61.8826C98.215 61.9561 98.3707 61.9387 98.5028 61.9624L98.4878 62.0272C98.3534 62.6712 98.4659 63.3422 98.8031 63.9071C99.1402 64.472 99.6774 64.8896 100.308 65.077C100.308 65.1006 100.308 65.1231 100.308 65.1467C100.308 65.2125 100.304 65.2783 100.296 65.3436C100.296 65.3436 99.1407 65.1056 98.8305 65.2663C98.5202 65.427 97.9123 65.5529 97.8201 65.6401C97.7279 65.7273 97.4987 65.6638 97.2918 66.202C97.085 66.7402 97.0626 67.2896 96.7935 67.5425C96.5244 67.7954 96.3923 67.9661 96.3799 68.1492C96.3674 68.3323 96.4148 68.3784 96.3114 68.4357C96.208 68.493 96.0622 68.7335 96.1046 68.8257C96.1204 68.8887 96.117 68.955 96.0948 69.0161C96.0726 69.0772 96.0326 69.1302 95.98 69.1683C95.9255 69.2066 95.882 69.2585 95.8538 69.3188C95.8256 69.3791 95.8137 69.4458 95.8193 69.5121C95.8193 69.5121 95.7495 69.7613 95.5888 69.8224C95.4281 69.8834 95.3247 70.2572 95.3247 70.2572L94.8039 70.8552L93.7724 69.714C93.6949 69.6287 93.5868 69.5775 93.4717 69.5717C93.3566 69.5658 93.2439 69.6058 93.1582 69.6828L92.6511 70.1388C92.4557 70.1863 92.2791 70.2913 92.144 70.4403C92.0342 70.5543 91.9452 70.6867 91.8812 70.8315L91.6046 71.0807C91.5172 71.1889 91.4637 71.3205 91.4509 71.4591C91.438 71.5976 91.4664 71.7368 91.5323 71.8593L92.1939 72.5906V72.5968C91.9595 72.6175 91.7368 72.7082 91.5548 72.8572C90.5681 73.7293 90.5581 74.5304 90.7051 74.8967C90.8521 75.2629 92.1054 76.672 92.1054 76.672C92.1054 76.672 92.833 77.6176 93.8832 78.1196L93.8758 78.1284C93.8541 78.1509 93.8338 78.1746 93.8147 78.1994L93.7973 78.2218L93.7811 78.2442L93.7624 78.2716C93.7574 78.2788 93.7528 78.2863 93.7487 78.2941L93.7287 78.3264C93.7241 78.3337 93.72 78.3411 93.7163 78.3489C93.7076 78.3638 93.7001 78.3788 93.6926 78.3937C93.6899 78.3986 93.6874 78.4036 93.6851 78.4087C93.6752 78.4286 93.6652 78.4485 93.6565 78.471L93.6465 78.4934C93.6403 78.5083 93.6353 78.5233 93.6291 78.5395C93.6252 78.5493 93.6219 78.5592 93.6191 78.5694L93.6042 78.6142C93.6001 78.6248 93.5968 78.6356 93.5942 78.6466C93.5942 78.6628 93.5842 78.679 93.5805 78.6965C93.5768 78.7139 93.5743 78.7164 93.5718 78.7276C93.5693 78.7388 93.5593 78.7812 93.5543 78.8098C93.5543 78.8198 93.5543 78.831 93.5481 78.8422C93.5419 78.8534 93.5419 78.8808 93.5381 78.9008C93.5344 78.9207 93.5381 78.9282 93.5381 78.9431L93.5307 78.9992V79.044C93.5307 79.0652 93.5307 79.0864 93.5244 79.1088C93.5182 79.1313 93.5244 79.135 93.5244 79.1487C93.5244 79.1848 93.5244 79.221 93.5244 79.2596C93.502 80.6001 93.5805 80.7945 93.5805 80.7945C93.6317 80.9183 93.7153 81.026 93.8225 81.1065C93.9297 81.1869 94.0565 81.2371 94.1897 81.2517C94.2551 81.2568 94.3208 81.2535 94.3853 81.2417C94.9833 81.1383 96.3786 80.8979 96.877 80.9925C97.1747 81.0474 97.7241 80.9651 98.1153 80.8916L98.2187 80.8717L98.2898 81.0997L98.5165 81.0374L98.7096 81.1483L98.8342 81.2193C99.0609 81.9867 99.9804 81.7251 99.9804 81.7251L100.198 81.8497L102.415 81.907C102.664 82.0569 102.926 82.1821 103.2 82.2807C103.236 82.2925 103.273 82.3009 103.31 82.3056C103.518 82.3225 103.726 82.3263 103.933 82.3169C104.103 82.3169 104.234 82.3056 104.234 82.3056C104.234 82.3056 104.211 81.7039 104.179 81.0299C104.866 81.0129 105.551 80.9568 106.232 80.8617C107.416 80.6549 107.909 79.5785 108.091 79.0029C108.145 79.2381 108.184 79.4765 108.207 79.7168C108.255 79.9281 108.317 80.1361 108.391 80.3397C108.454 80.5024 108.538 80.6564 108.64 80.7982C109.512 80.5004 108.984 80.0507 108.801 79.8588C108.618 79.667 108.925 79.5038 108.925 79.5038C108.925 79.5038 109.167 79.3431 109.143 79.1948C109.12 79.0465 109.109 78.8858 109.891 78.897C110.673 78.9083 110.625 78.2592 110.625 78.2592ZM98.5003 70.9449C98.5103 71.0096 98.6249 71.716 98.7171 71.9017C98.7446 72.0242 98.7534 72.1502 98.7432 72.2754C98.281 72.238 97.7989 72.2181 97.7989 72.2181C97.8124 72.235 97.8211 72.2552 97.8238 72.2767L97.7503 72.2605L97.6457 72.2355L98.4978 70.9386L98.5003 70.9449ZM96.8109 73.6309L97.612 73.7555L97.6793 73.7654C97.6566 73.8889 97.6429 74.0138 97.6382 74.1392C97.6382 74.1516 97.6556 74.1653 97.6818 74.1815C97.6706 74.2444 97.6656 74.3083 97.6668 74.3722C97.6793 74.4344 98.053 74.5715 98.4829 74.6849C98.4766 74.7085 98.4716 74.731 98.4654 74.7509C98.0854 74.5516 97.4887 74.4581 97.4202 74.3099C97.3516 74.1616 95.3184 73.4515 95.3184 73.4515L95.1166 73.3506L95.6511 73.4515L95.7981 73.4365C96.1311 73.5232 96.4695 73.5881 96.8109 73.6309Z" fill="url(#paint0_linear_444_298)"/>
<path d="M108.011 78.7573C108.011 78.7573 107.693 80.6809 106.078 80.9649C104.462 81.249 99.0672 81.1929 99.0672 81.1929C99.0672 81.1929 95.9825 80.7481 94.8675 78.1431C93.7524 75.5381 93.0348 74.5003 93.9954 74.4554C94.9559 74.4106 100.107 76.1996 100.403 76.2195C100.698 76.2395 108.296 72.259 108.011 78.7573Z" fill="#65617D"/>
<path opacity="0.05" d="M108.011 78.7573C108.011 78.7573 107.693 80.6809 106.078 80.9649C104.462 81.249 99.0672 81.1929 99.0672 81.1929C99.0672 81.1929 95.9825 80.7481 94.8675 78.1431C93.7524 75.5381 93.0348 74.5003 93.9954 74.4554C94.9559 74.4106 100.107 76.1996 100.403 76.2195C100.698 76.2395 108.296 72.259 108.011 78.7573Z" fill="black"/>
<path d="M93.5455 80.8992C93.5955 81.0224 93.678 81.1297 93.7842 81.2098C93.8904 81.2898 94.0162 81.3396 94.1484 81.3539C94.2139 81.358 94.2795 81.3542 94.344 81.3427C94.9358 81.2406 96.3237 81.0014 96.8133 81.0935C97.1073 81.1471 97.6517 81.0661 98.0392 80.9939C98.2971 80.9453 98.4865 80.8992 98.4865 80.8992C98.4865 80.8992 98.0305 79.3855 97.9744 79.3407C97.9183 79.2958 95.925 78.0948 95.925 78.0948L94.3478 77.9814C94.1354 78.0132 93.9435 78.1257 93.8121 78.2954C93.6464 78.4972 93.5031 78.8274 93.4931 79.3693C93.467 80.7036 93.5455 80.8992 93.5455 80.8992Z" fill="#3F3D56"/>
<path opacity="0.05" d="M93.5455 80.899C93.5956 81.0222 93.6781 81.1295 93.7843 81.2096C93.8905 81.2897 94.0163 81.3395 94.1485 81.3538C93.9941 81.1544 93.851 80.9464 93.72 80.7309L93.7287 79.627C93.6973 79.3243 93.7374 79.0184 93.8455 78.7339C93.9537 78.4494 94.127 78.1942 94.3516 77.9888C94.3516 77.9888 93.5206 78.0448 93.497 79.3766C93.4733 80.7084 93.5455 80.899 93.5455 80.899Z" fill="black"/>
<path opacity="0.1" d="M100.386 78.4845L101.855 77.3346L104.165 75.0584L103.542 75.0298C103.449 75.0896 103.187 75.2789 103.177 75.5057C103.166 75.7835 102.554 75.5256 102.234 75.6838C101.914 75.8421 100.356 77.8391 100.084 77.8254C99.8108 77.8117 99.594 77.6872 99.4794 77.8815L99.4719 77.894L100.386 78.4845Z" fill="black"/>
<path opacity="0.1" d="M93.8083 78.2979C93.8607 78.3229 93.9142 78.3478 93.9678 78.3702C95.0828 78.8486 96.4595 79.8503 96.5629 80.0321C96.6252 80.143 97.4238 80.6277 98.0392 80.9914C98.2971 80.9429 98.4865 80.8968 98.4865 80.8968C98.4865 80.8968 98.0305 79.3831 97.9744 79.3382C97.9184 79.2934 95.925 78.0924 95.925 78.0924L94.3478 77.979C94.1333 78.0111 93.9398 78.1255 93.8083 78.2979Z" fill="black"/>
<path d="M90.7136 75.0363C90.8607 75.4001 92.1015 76.8004 92.1015 76.8004C92.1015 76.8004 92.8864 77.8245 94.0027 78.2954C95.1189 78.7664 96.4943 79.7755 96.5965 79.9574C96.6625 80.0745 97.552 80.6102 98.1775 80.9777L98.3182 81.0599L98.6284 81.2406L98.7929 81.334C98.7929 81.334 99.1741 81.0288 99.5541 80.7211C99.9341 80.4134 100.302 80.1119 100.302 80.0982C100.302 80.0844 100.461 79.6771 100.426 79.6546C100.391 79.6322 100.33 79.4852 100.186 79.3021C100.033 79.099 99.8347 78.935 99.6064 78.8237C99.2762 78.6539 99.0129 78.3779 98.8589 78.04C98.8589 78.04 98.8091 78.0039 98.7343 77.9553C98.5794 77.8488 98.4063 77.7716 98.2236 77.7273C97.9744 77.6962 97.506 77.1841 97.506 77.1841C97.3238 77.0656 97.1719 76.906 97.0624 76.7182C96.9378 76.469 95.1775 75.2556 95.0143 75.1435L99.2925 77.8918L100.317 78.5496L101.785 77.4009L104.095 75.1248L103.333 75.0899C102.211 75.0413 100.218 74.9653 99.969 75.0226C99.7649 75.0696 99.5546 75.0835 99.3461 75.0637C99.3461 75.0637 98.778 75.0886 98.4017 74.8905C98.0255 74.6925 97.4337 74.599 97.3652 74.452C97.2966 74.305 95.2834 73.5999 95.2834 73.5999C95.2834 73.5999 92.5425 72.1435 91.5621 73.0081C90.5816 73.8727 90.5654 74.67 90.7136 75.0363Z" fill="#65617D"/>
<path d="M99.5557 66.6829L99.9082 67.8552L100.364 70.4952L102.037 70.6085L102.516 69.8112L102.999 69.0089C102.999 69.0089 103.301 67.9425 103.517 66.9109C103.708 65.9977 103.834 65.1107 103.626 65.0147C103.44 64.93 103.319 64.6223 103.24 64.2909C103.23 64.251 103.221 64.2087 103.213 64.1663C103.158 63.8863 103.12 63.6028 103.101 63.3179C103.101 63.3179 99.5968 63.136 100.086 64.5812C100.174 64.8281 100.218 65.088 100.218 65.3499C100.218 65.4171 100.218 65.4832 100.206 65.5455C100.182 65.7696 100.111 65.9863 99.9995 66.182C99.8876 66.3777 99.7365 66.5483 99.5557 66.6829Z" fill="#EE8E9E"/>
<path d="M98.8279 66.4895L98.9525 68.4829L99.2365 70.1785L99.5554 70.9646L99.8407 75.2602C99.8407 75.2602 102.582 75.5779 103.252 75.254C103.301 75.2351 103.344 75.2027 103.376 75.1606C104.182 73.9434 103.918 70.4177 103.918 70.4177L104.225 68.1415L104.021 66.9605L103.522 66.9081L103.141 66.867C103.141 66.867 103.055 66.9729 102.93 67.1374C102.593 67.5821 101.972 68.4592 102.015 68.8242C102.071 69.3226 101.946 69.8371 101.752 69.9168C101.558 69.9966 101.399 70.1336 101.366 69.9966C101.317 69.8817 101.305 69.7548 101.331 69.6328C101.366 69.4384 101.183 68.8467 101.183 68.8467C101.183 68.8467 100.876 68.1527 100.898 67.8575C100.921 67.5622 100.865 67.2196 100.774 67.1399C100.683 67.0601 100.557 66.9804 100.659 66.6166C100.761 66.2528 100.211 65.5439 100.211 65.5439L98.8279 66.4895Z" fill="#E3E8F4"/>
<path opacity="0.1" d="M102.452 71.4631L102.567 74.8655L103.223 75.2305C103.272 75.2107 103.316 75.178 103.348 75.1358C104.154 73.9186 103.89 70.3929 103.89 70.3929L104.197 68.1168L103.992 66.9357L103.494 66.8834C103.685 65.9702 103.81 65.0844 103.602 64.9872C103.416 64.9025 103.295 64.5948 103.217 64.2646L102.862 66.6716C102.862 66.6716 102.892 66.8884 102.902 67.1126C102.917 67.2544 102.907 67.3977 102.873 67.5362C102.827 67.7225 102.819 67.9162 102.851 68.1056C102.645 68.4669 102.543 69.1371 102.493 69.7837C102.426 70.6433 102.452 71.4631 102.452 71.4631Z" fill="black"/>
<path d="M103.227 64.2051C103.227 64.2051 103.801 64.2761 103.983 64.5153C104.165 64.7545 104.643 64.7894 104.643 64.7894C104.643 64.7894 105.189 64.9713 105.178 65.0161C105.167 65.061 105.337 65.1307 105.676 65.2217C106.015 65.3126 106.587 65.6428 106.587 65.72C106.587 65.7973 107.485 66.6868 107.485 66.7777C107.485 66.8687 107.758 67.21 107.724 67.813C107.691 68.416 107.656 69.1834 107.793 69.308C107.93 69.4326 107.793 69.9222 107.793 69.9222C107.756 69.9755 107.735 70.0383 107.733 70.1031C107.731 70.1678 107.748 70.2318 107.782 70.2873C107.895 70.4916 107.758 71.345 107.758 71.345L107.77 72.2333C107.77 72.2333 107.646 72.7901 107.793 72.8138C107.94 72.8375 107.77 73.0867 107.77 73.0867C107.77 73.0867 107.646 73.5414 107.804 73.7469C107.962 73.9525 108.008 74.8271 108.008 74.8271L110.444 78.3665C110.444 78.3665 110.479 79.0156 109.705 79.0044C108.932 78.9932 108.942 79.1526 108.965 79.2996C108.989 79.4467 108.748 79.6074 108.748 79.6074C108.748 79.6074 108.442 79.7668 108.624 79.9599C108.806 80.153 109.329 80.5978 108.464 80.8931C108.362 80.7526 108.279 80.5998 108.215 80.4383C108.142 80.2376 108.081 80.0324 108.033 79.8241C108.033 79.8241 107.954 78.9583 107.794 78.8449C107.635 78.7315 107.657 78.1846 107.657 78.1846C107.657 78.1846 107.885 77.7411 107.566 77.5617C107.247 77.3823 102.628 74.8209 102.628 74.8209L102.515 71.4172C102.515 71.4172 102.436 68.9019 102.914 68.0597C102.883 67.8704 102.891 67.6766 102.937 67.4904C103.016 67.286 102.925 66.6257 102.925 66.6257L103.227 64.2051Z" fill="#3F3D56"/>
<path opacity="0.1" d="M100.244 65.5752C100.244 65.5752 99.1006 65.3398 98.7929 65.4993C98.4852 65.6587 97.8834 65.7833 97.7962 65.873C97.709 65.9627 97.4785 65.8967 97.273 66.4311C97.0674 66.9656 97.0462 67.5125 96.7834 67.7629C96.5205 68.0134 96.3859 68.184 96.3747 68.3659C96.3635 68.5478 96.4084 68.5939 96.3062 68.65C96.2041 68.706 96.057 68.9465 96.1007 69.0374C96.1443 69.1284 98.4677 71.1317 98.4677 71.1317C98.4677 71.1317 98.5824 71.8941 98.6845 72.0872C98.7867 72.2803 98.5711 74.9439 98.3432 75.1258C98.1152 75.3077 99.8743 75.2928 99.8743 75.2928C99.8743 75.2928 99.954 73.5486 100.023 73.4539C100.091 73.3592 99.9764 71.4967 99.9764 71.4967C99.9764 71.4967 99.9652 69.9033 100.113 69.4822C100.262 69.0611 100.238 67.6608 100.238 67.6608C100.238 67.6608 100.369 66.8211 100.528 66.6255C100.688 66.4299 100.244 65.5752 100.244 65.5752Z" fill="black"/>
<path d="M100.211 65.5421C100.211 65.5421 99.0672 65.3066 98.7594 65.4648C98.4517 65.6231 97.8487 65.7501 97.7628 65.8386C97.6768 65.927 97.4438 65.861 97.2395 66.3967C97.0352 66.9324 97.0115 67.4769 96.7499 67.7273C96.4883 67.9777 96.3512 68.1484 96.34 68.3303C96.3288 68.5122 96.3749 68.5583 96.2715 68.6156C96.1681 68.6729 96.0223 68.9108 96.0672 69.0018C96.112 69.0927 98.4343 71.096 98.4343 71.096C98.4343 71.096 98.5476 71.8585 98.651 72.0516C98.7545 72.2447 98.5364 74.9083 98.3084 75.0902C98.0805 75.2721 99.8458 75.2559 99.8458 75.2559C99.8458 75.2559 99.9255 73.5117 99.9928 73.4183C100.06 73.3248 99.948 71.4598 99.948 71.4598C99.948 71.4598 99.9368 69.8676 100.085 69.4465C100.233 69.0254 100.216 67.6251 100.216 67.6251C100.216 67.6251 100.347 66.7854 100.506 66.5898C100.666 66.3942 100.211 65.5421 100.211 65.5421Z" fill="#3F3D56"/>
<path opacity="0.1" d="M100.091 64.5789C100.179 64.8257 100.223 65.0857 100.223 65.3475C100.782 65.5113 101.38 65.4838 101.922 65.2694C102.463 65.055 102.918 64.666 103.213 64.164C103.157 63.8839 103.12 63.6005 103.101 63.3156C103.101 63.3156 99.6015 63.1324 100.091 64.5789Z" fill="black"/>
<path d="M98.3606 62.7796C98.3602 63.4476 98.616 64.0902 99.0755 64.575C99.535 65.0599 100.163 65.3499 100.83 65.3852C101.497 65.4206 102.152 65.1987 102.66 64.7653C103.169 64.3318 103.491 63.7198 103.561 63.0556C103.631 62.3913 103.444 61.7255 103.038 61.1953C102.632 60.6651 102.037 60.3111 101.378 60.2062C100.718 60.1013 100.043 60.2535 99.4925 60.6315C98.9418 61.0095 98.5572 61.5844 98.4179 62.2377C98.3797 62.4158 98.3605 62.5975 98.3606 62.7796Z" fill="#EE8E9E"/>
<path d="M96.6877 68.8145L96.0648 69.0076C96.0807 69.0704 96.0773 69.1366 96.0551 69.1974C96.0329 69.2583 95.9928 69.3111 95.9402 69.3489C95.886 69.3867 95.8428 69.4383 95.815 69.4982C95.7872 69.5582 95.7758 69.6245 95.7819 69.6903C95.7819 69.6903 95.7134 69.9394 95.554 69.998C95.3945 70.0566 95.2923 70.4303 95.2923 70.4303L94.7691 71.0333C94.7691 71.0333 94.5747 71.1928 94.6096 71.2725C94.6445 71.3522 94.4041 71.3746 94.4041 71.3746L94.5286 73.4004L95.61 73.6059L96.2815 73.5374L96.8272 73.3331L97.3056 73.0478L97.5211 72.4909L98.4779 71.0333L96.6877 68.8145Z" fill="#3F3D56"/>
<path d="M94.5595 71.5303C94.5595 71.5303 93.1716 69.5283 92.1351 70.6084C91.0985 71.6886 92.5562 73.4427 92.8975 73.3854C93.2389 73.3281 94.8672 73.2371 94.8672 73.2371L94.5595 71.5303Z" fill="#EE8E9E"/>
<path d="M97.8293 70.6647L91.6985 67.5355C91.6041 67.4873 91.4885 67.5248 91.4404 67.6191L89.0497 72.303C89.0015 72.3974 89.039 72.5129 89.1334 72.5611L95.2642 75.6903C95.3586 75.7385 95.4741 75.701 95.5223 75.6066L97.913 70.9228C97.9611 70.8284 97.9237 70.7128 97.8293 70.6647Z" fill="#3F3D56"/>
<path d="M97.259 70.9434L91.8184 68.1665L89.7256 72.2667L95.1662 75.0436L97.259 70.9434Z" fill="#6C63FF"/>
<path d="M90.563 70.2076C90.6181 70.2076 90.6627 70.163 90.6627 70.108C90.6627 70.0529 90.6181 70.0083 90.563 70.0083C90.508 70.0083 90.4634 70.0529 90.4634 70.108C90.4634 70.163 90.508 70.2076 90.563 70.2076Z" fill="#E6E8EC"/>
<path d="M96.4521 73.2909C96.5436 73.2909 96.6178 73.2167 96.6178 73.1252C96.6178 73.0337 96.5436 72.9595 96.4521 72.9595C96.3606 72.9595 96.2864 73.0337 96.2864 73.1252C96.2864 73.2167 96.3606 73.2909 96.4521 73.2909Z" fill="#E6E8EC"/>
<path d="M93.6614 71.9518C93.649 73.4542 96.7561 73.7732 96.7561 73.7732L97.5497 73.8978L97.906 73.9538L98.0542 72.4862C98.0542 72.4862 97.891 72.4613 97.688 72.414C97.3865 72.3442 96.9965 72.2233 96.9155 72.0527C96.7847 71.7699 93.6701 70.4493 93.6614 71.9518Z" fill="#EE8E9E"/>
<path opacity="0.1" d="M98.4182 62.2383C98.4897 62.2436 98.557 62.2735 98.6088 62.323C98.696 62.4164 98.701 62.5821 98.8156 62.6394C98.8585 62.6575 98.9057 62.6627 98.9514 62.6544C99.2542 62.612 99.4286 62.2707 99.7201 62.176C99.8896 62.1324 100.069 62.1478 100.228 62.2196C100.293 62.2406 100.352 62.2779 100.398 62.328C100.495 62.4526 100.427 62.6394 100.471 62.7914C100.534 63.0032 100.787 63.0867 101.005 63.1141C101.223 63.1415 101.469 63.1577 101.615 63.3221C101.663 63.3838 101.698 63.455 101.717 63.531C101.735 63.6071 101.738 63.6862 101.723 63.7632C101.71 63.8168 101.71 63.8728 101.723 63.9264C101.783 64.0971 102.078 64.0709 102.156 63.9363C102.213 63.8379 102.196 63.7569 102.329 63.7295C102.424 63.722 102.52 63.7387 102.607 63.7781C102.839 63.8577 103.083 63.8953 103.328 63.889C103.484 63.5565 103.568 63.1947 103.574 62.8275C103.581 62.4602 103.509 62.0958 103.365 61.7581C103.22 61.4204 103.006 61.117 102.736 60.8678C102.467 60.6186 102.147 60.4293 101.799 60.3122C101.451 60.1951 101.082 60.153 100.716 60.1885C100.351 60.224 99.9969 60.3363 99.6778 60.5182C99.3587 60.7 99.0816 60.9473 98.8648 61.2437C98.6479 61.5402 98.4962 61.8791 98.4195 62.2383H98.4182Z" fill="black"/>
<path d="M101.722 63.8573C101.709 63.8037 101.709 63.7477 101.722 63.6941C101.736 63.6173 101.734 63.5384 101.715 63.4625C101.697 63.3867 101.662 63.3157 101.614 63.2543C101.468 63.0886 101.222 63.0737 101.003 63.045C100.784 63.0164 100.532 62.9341 100.47 62.7223C100.425 62.5704 100.494 62.3847 100.396 62.2601C100.351 62.2092 100.292 62.1717 100.227 62.1517C100.068 62.0796 99.8883 62.0638 99.7187 62.1069C99.4272 62.2016 99.2528 62.5429 98.95 62.5853C98.9043 62.5942 98.8569 62.589 98.8142 62.5704C98.6996 62.513 98.6897 62.3473 98.6074 62.2539C98.4691 62.1081 98.2063 62.2028 98.0381 62.0944C97.9361 62.0093 97.8702 61.8887 97.8537 61.7568C97.7784 61.5125 97.7613 61.2539 97.8039 61.0018C97.9023 60.5795 98.281 60.2892 98.5215 59.9267C98.747 59.5903 98.874 59.1642 99.2117 58.9412C99.5493 58.7182 99.9841 58.7681 100.367 58.8814C100.542 58.9442 100.723 58.9917 100.907 59.0235C101.215 59.0608 101.524 58.9774 101.833 58.9674C102.271 58.9532 102.701 59.0847 103.056 59.3411C103.136 59.3934 103.204 59.4622 103.256 59.543C103.307 59.6575 103.337 59.7803 103.345 59.9055C103.382 60.1407 103.463 60.3666 103.586 60.5708C103.68 60.7315 103.801 60.876 103.887 61.0417C103.983 61.2041 104.013 61.3975 103.97 61.5812C103.94 61.6746 103.882 61.7593 103.86 61.8552C103.81 62.077 103.956 62.29 104.055 62.4944C104.152 62.6814 104.198 62.8906 104.189 63.1011C104.183 63.2059 104.156 63.3086 104.11 63.4025C104.063 63.4964 103.997 63.5796 103.916 63.6468C103.747 63.7641 103.545 63.8256 103.339 63.8224C103.089 63.83 102.84 63.7925 102.604 63.7115C102.517 63.6727 102.421 63.656 102.326 63.6629C102.193 63.6904 102.21 63.7713 102.153 63.8698C102.077 64.0018 101.783 64.028 101.722 63.8573Z" fill="#3F3D56"/>
<path opacity="0.1" d="M100.318 78.5525L101.787 77.4038L104.097 75.1277L103.334 75.0928C103.245 75.1737 103.188 75.2844 103.173 75.4042C103.162 75.6821 102.551 75.4229 102.23 75.5824C101.91 75.7419 100.353 77.7377 100.08 77.724C99.8072 77.7103 99.5905 77.5857 99.4758 77.7788L99.4684 77.7913C99.4229 77.8436 99.3617 77.8799 99.2939 77.8947L100.318 78.5525Z" fill="black"/>
<path d="M97.3591 78.4725L98.0967 80.8284L98.2125 81.2022L98.5639 81.1062L99.3388 80.8932L102.787 79.9464C103.222 79.9275 103.647 79.8145 104.033 79.615C104.685 79.2497 105.431 79.087 106.176 79.1478C106.632 79.1901 107.139 78.9933 107.56 78.2159C107.56 78.2159 108.516 75.3941 106.104 74.5855C103.692 73.777 103.576 75.0153 103.576 75.0153L103.542 75.0353C103.449 75.0951 103.187 75.2844 103.177 75.5112C103.166 75.789 102.554 75.5311 102.234 75.6893C101.914 75.8476 100.357 77.8446 100.084 77.8309C99.8109 77.8172 99.5942 77.6926 99.4795 77.887L99.4721 77.8995C99.3874 78.0153 99.1345 78.0427 98.9663 78.0465C98.914 78.0492 98.8616 78.0492 98.8093 78.0465L98.7869 78.0527L98.6124 78.105L97.3591 78.4725Z" fill="#65617D"/>
<path opacity="0.1" d="M97.5498 73.8988L97.9061 73.9549L98.0544 72.4873C98.0544 72.4873 97.8912 72.4624 97.6881 72.415C97.7417 72.6206 97.6196 73.4117 97.5498 73.8988Z" fill="black"/>
<path opacity="0.1" d="M106.856 67.039C106.856 67.039 107.914 66.7313 107.652 69.7363C107.471 71.5703 106.691 73.2938 105.433 74.6411C105.433 74.6411 103.18 75.6303 102.167 75.4709C101.154 75.3114 100.415 75.2778 100.415 75.2778C100.096 75.1166 99.7468 75.0237 99.3898 75.0049C98.8217 74.9825 97.627 74.6312 97.6033 74.5153C97.5796 74.3995 97.8998 72.7288 97.7628 72.6042C97.7628 72.6042 99.3562 72.669 99.5157 72.7836C99.6751 72.8982 99.9031 72.8172 100.074 72.7836C100.244 72.75 100.768 72.2965 101.803 72.6951C101.803 72.6951 102.156 72.7288 102.293 72.6378C102.404 72.5858 102.532 72.5778 102.649 72.6154C102.738 72.586 102.821 72.544 102.898 72.4908C102.932 72.446 103.206 72.4908 103.206 72.4908C103.222 72.4981 103.24 72.5018 103.258 72.5017C103.276 72.5015 103.293 72.4975 103.309 72.49C103.326 72.4824 103.34 72.4714 103.352 72.4578C103.363 72.4442 103.372 72.4283 103.377 72.4111C103.413 72.3182 103.467 72.2335 103.536 72.1619C103.536 72.1619 103.842 70.4327 104.423 69.7836C104.469 69.7431 104.505 69.6918 104.527 69.6342C104.548 69.5766 104.556 69.5145 104.548 69.4535C104.5 69.2691 105.491 66.674 106.856 67.039Z" fill="black"/>
<path d="M106.827 66.8072C106.827 66.8072 107.886 66.5007 107.625 69.5045C107.444 71.3386 106.664 73.0622 105.406 74.4093C105.406 74.4093 103.152 75.3998 102.139 75.2403C101.126 75.0808 100.386 75.0435 100.386 75.0435C100.068 74.8822 99.719 74.7893 99.3624 74.7706C98.793 74.7469 97.5983 74.3969 97.5758 74.281C97.5534 74.1651 97.8711 72.4945 97.7353 72.3686C97.7353 72.3686 99.3287 72.4347 99.4882 72.5493C99.6477 72.6639 99.8744 72.5817 100.045 72.5493C100.216 72.5169 100.739 72.0622 101.776 72.4596C101.776 72.4596 102.128 72.4945 102.264 72.4035C102.376 72.3519 102.503 72.3435 102.62 72.3799C102.709 72.3497 102.792 72.3078 102.869 72.2553C102.903 72.2092 103.176 72.2553 103.176 72.2553C103.192 72.2626 103.21 72.2663 103.228 72.2661C103.246 72.266 103.263 72.262 103.279 72.2544C103.296 72.2468 103.31 72.2359 103.322 72.2223C103.333 72.2087 103.342 72.1927 103.347 72.1755C103.383 72.0827 103.437 71.998 103.506 71.9264C103.506 71.9264 103.814 70.1971 104.394 69.5481C104.441 69.5076 104.476 69.4562 104.498 69.3986C104.52 69.341 104.527 69.2789 104.519 69.2179C104.473 69.0385 105.462 66.4472 106.827 66.8072Z" fill="#3F3D56"/>
<path opacity="0.1" d="M98.6086 78.0982L100.111 79.9171L100.121 79.9072C100.132 79.8723 100.281 79.4861 100.246 79.4624C100.211 79.4387 99.9504 78.8706 99.4272 78.6314C99.161 78.5017 98.9375 78.2985 98.7831 78.0459L98.6086 78.0982Z" fill="black"/>
<path opacity="0.1" d="M98.6284 81.2464L98.7929 81.3398C98.7929 81.3398 99.1741 81.0346 99.5541 80.7269C99.9341 80.4191 100.302 80.1177 100.302 80.104C100.302 80.0902 100.461 79.6829 100.426 79.6604C100.391 79.638 100.33 79.491 100.186 79.3079C99.1666 79.0226 99.812 79.7302 99.9017 79.7626C99.9017 79.7626 98.662 79.4773 98.5935 80.829C98.5876 80.9691 98.5993 81.1093 98.6284 81.2464Z" fill="black"/>
<path d="M99.8856 81.8188L100.102 81.9433L102.299 81.9994C102.545 82.1492 102.805 82.2743 103.076 82.3732C103.112 82.3838 103.149 82.3918 103.186 82.3968C103.39 82.4135 103.594 82.4172 103.799 82.408C103.967 82.408 104.097 82.3968 104.097 82.3968C104.097 82.3968 103.993 79.6273 103.915 79.3358C103.877 79.1963 103.693 79.2262 103.511 79.2959C103.375 79.3517 103.243 79.4184 103.117 79.4953C103.117 79.4953 102.185 79.5862 102.037 79.666C101.889 79.7457 101.468 79.6199 101.206 79.666C100.945 79.712 100.477 79.3582 100.477 79.3582C99.2029 78.9371 99.9205 79.722 100.011 79.7569C100.011 79.7569 98.7656 79.4716 98.7021 80.8233C98.6385 82.1751 99.8856 81.8188 99.8856 81.8188Z" fill="#3F3D56"/>
<path d="M103.061 80.7497C103.085 81.3228 103.532 82.0342 103.799 82.4104C103.967 82.4104 104.096 82.3992 104.096 82.3992C104.096 82.3992 103.993 79.6297 103.915 79.3382C103.877 79.1987 103.693 79.2286 103.511 79.2983C103.29 79.712 103.041 80.2863 103.061 80.7497Z" fill="#565387"/>
<path opacity="0.1" d="M103.061 80.7497C103.085 81.3228 103.532 82.0342 103.799 82.4104C103.967 82.4104 104.096 82.3992 104.096 82.3992C104.096 82.3992 103.993 79.6297 103.915 79.3382C103.877 79.1987 103.693 79.2286 103.511 79.2983C103.29 79.712 103.041 80.2863 103.061 80.7497Z" fill="black"/>
<path opacity="0.05" d="M102.685 80.8257C102.837 81.3789 102.834 81.9993 103.076 82.3756C103.112 82.3863 103.148 82.3942 103.186 82.3992C103.389 82.4159 103.594 82.4196 103.798 82.4104C103.967 82.4104 104.096 82.3992 104.096 82.3992C104.096 82.3992 103.993 79.6297 103.914 79.3382C103.877 79.1987 103.693 79.2286 103.511 79.2983C103.374 79.3541 103.243 79.4208 103.117 79.4977C103.117 79.4977 102.492 80.1169 102.685 80.8257Z" fill="black"/>
<path opacity="0.1" d="M95.1077 75.2109C95.1077 75.2109 96.199 75.5648 97.1234 76.8231L95.1077 75.2109Z" fill="black"/>
<g opacity="0.1">
<path d="M103.973 61.5542C103.973 61.5629 103.973 61.5704 103.967 61.5791C103.957 61.6116 103.944 61.6432 103.928 61.6738C103.94 61.6329 103.955 61.5929 103.973 61.5542Z" fill="black"/>
<path d="M97.8015 61.0017C97.82 60.922 97.8485 60.845 97.8863 60.7725C97.8863 60.7911 97.8738 60.8111 97.8688 60.831C97.8273 61.0832 97.8448 61.3417 97.9199 61.586C97.9364 61.7175 98.0018 61.838 98.103 61.9236C98.2725 62.032 98.5353 61.9373 98.6736 62.0831C98.7608 62.1765 98.7658 62.3422 98.8804 62.3995C98.9231 62.4182 98.9705 62.4234 99.0162 62.4145C99.319 62.3721 99.4934 62.0308 99.7849 61.9361C99.9545 61.8924 100.134 61.9082 100.293 61.9809C100.359 62.0009 100.417 62.0384 100.463 62.0893C100.56 62.2139 100.491 62.3995 100.536 62.5515C100.598 62.7633 100.851 62.8468 101.069 62.8742C101.287 62.9016 101.534 62.9178 101.68 63.0835C101.728 63.1449 101.763 63.2159 101.781 63.2917C101.8 63.3675 101.802 63.4465 101.788 63.5233C101.775 63.5769 101.775 63.6329 101.788 63.6865C101.848 63.8572 102.143 63.831 102.221 63.6964C102.278 63.598 102.26 63.517 102.394 63.4896C102.489 63.4827 102.584 63.4994 102.672 63.5382C102.908 63.6191 103.157 63.6567 103.407 63.6491C103.612 63.6523 103.814 63.5908 103.983 63.4734C104.057 63.4153 104.118 63.3418 104.16 63.2579C104.122 63.4105 104.034 63.5462 103.911 63.6441C103.742 63.7615 103.54 63.8229 103.334 63.8198C103.085 63.8274 102.836 63.7898 102.599 63.7089C102.512 63.6701 102.417 63.6534 102.321 63.6603C102.188 63.6877 102.206 63.7687 102.15 63.8671C102.071 64.0017 101.776 64.0278 101.716 63.8572C101.704 63.8035 101.704 63.7476 101.716 63.6939C101.73 63.6172 101.728 63.5382 101.709 63.4624C101.691 63.3865 101.656 63.3156 101.608 63.2542C101.462 63.0885 101.216 63.0735 100.997 63.0449C100.778 63.0162 100.526 62.934 100.464 62.7222C100.419 62.5702 100.488 62.3846 100.39 62.26C100.345 62.2092 100.287 62.1718 100.222 62.1516C100.062 62.0795 99.8827 62.0637 99.7127 62.1068C99.4224 62.2014 99.2467 62.5428 98.944 62.5852C98.8982 62.5941 98.8509 62.5889 98.8082 62.5702C98.6936 62.5129 98.6836 62.3472 98.6014 62.2538C98.4631 62.108 98.2015 62.2027 98.032 62.0943C97.93 62.0092 97.8641 61.8885 97.8476 61.7567C97.7735 61.5121 97.7578 61.2535 97.8015 61.0017Z" fill="black"/>
</g>
<path opacity="0.1" d="M104.15 70.1111C103.941 70.3927 103.703 70.6531 103.519 70.9496C103.318 71.2419 103.221 71.5925 103.242 71.9462C103.433 71.7506 103.521 71.479 103.641 71.2336C103.845 70.8175 104.149 70.4649 104.407 70.0837C104.456 70.0102 104.769 69.5854 104.611 69.5679C104.479 69.5492 104.221 70.0152 104.15 70.1111Z" fill="black"/>
<path d="M105.271 96.7685C105.422 97.2519 105.574 97.7365 105.762 98.2062C106.101 99.0228 106.528 99.8001 107.034 100.525C107.361 101.002 107.712 101.462 108.086 101.903C108.554 102.455 109.082 103.01 109.242 103.715C109.338 104.123 109.306 104.548 109.345 104.961C109.385 105.375 109.521 105.818 109.859 106.067C110.099 106.246 110.407 106.299 110.702 106.345C110.914 106.379 111.178 106.39 111.288 106.207C111.326 106.132 111.346 106.049 111.346 105.965L111.397 105.356C111.407 105.224 111.455 105.056 111.587 105.05C111.719 105.043 111.785 105.219 111.897 105.299C112.046 105.403 112.271 105.299 112.353 105.141C112.421 104.969 112.426 104.779 112.365 104.605C112.275 104.258 112.111 103.934 111.887 103.655C111.662 103.376 111.38 103.148 111.061 102.985C110.839 102.896 110.626 102.785 110.426 102.655C110.222 102.478 110.053 102.264 109.927 102.025C108.771 100.121 107.609 98.2075 106.793 96.1356C106.632 95.7654 106.523 95.3746 106.47 94.9745C106.43 94.5671 106.494 94.1572 106.52 93.7486C106.568 93.0145 106.5 92.2774 106.318 91.5646C106.278 91.3775 106.208 91.1982 106.11 91.0339C105.774 90.5244 104.989 90.4484 104.49 90.7997C104.307 90.9409 104.155 91.1186 104.044 91.3218C103.933 91.5249 103.865 91.7489 103.845 91.9795C103.809 92.3931 104.047 92.8217 104.168 93.2067C104.534 94.3952 104.902 95.5825 105.271 96.7685Z" fill="#A1616A"/>
<path opacity="0.05" d="M105.271 96.7685C105.422 97.2519 105.574 97.7365 105.762 98.2062C106.101 99.0228 106.528 99.8001 107.034 100.525C107.361 101.002 107.712 101.462 108.086 101.903C108.554 102.455 109.082 103.01 109.242 103.715C109.338 104.123 109.306 104.548 109.345 104.961C109.385 105.375 109.521 105.818 109.859 106.067C110.099 106.246 110.407 106.299 110.702 106.345C110.914 106.379 111.178 106.39 111.288 106.207C111.326 106.132 111.346 106.049 111.346 105.965L111.397 105.356C111.407 105.224 111.455 105.056 111.587 105.05C111.719 105.043 111.785 105.219 111.897 105.299C112.046 105.403 112.271 105.299 112.353 105.141C112.421 104.969 112.426 104.779 112.365 104.605C112.275 104.258 112.111 103.934 111.887 103.655C111.662 103.376 111.38 103.148 111.061 102.985C110.839 102.896 110.626 102.785 110.426 102.655C110.222 102.478 110.053 102.264 109.927 102.025C108.771 100.121 107.609 98.2075 106.793 96.1356C106.632 95.7654 106.523 95.3746 106.47 94.9745C106.43 94.5671 106.494 94.1572 106.52 93.7486C106.568 93.0145 106.5 92.2774 106.318 91.5646C106.278 91.3775 106.208 91.1982 106.11 91.0339C105.774 90.5244 104.989 90.4484 104.49 90.7997C104.307 90.9409 104.155 91.1186 104.044 91.3218C103.933 91.5249 103.865 91.7489 103.845 91.9795C103.809 92.3931 104.047 92.8217 104.168 93.2067C104.534 94.3952 104.902 95.5825 105.271 96.7685Z" fill="black"/>
<path d="M98.0083 117.123C98.2337 117.202 98.4734 117.231 98.711 117.208C98.7284 117.014 98.99 116.97 99.1844 116.98C99.2784 116.977 99.3716 116.998 99.4547 117.042C99.5033 117.073 99.5407 117.118 99.588 117.151C99.6724 117.197 99.7671 117.221 99.8634 117.222L100.875 117.306C101.326 117.345 101.796 117.38 102.218 117.219C102.302 117.193 102.377 117.142 102.434 117.075C102.548 116.91 102.434 116.675 102.275 116.555C102.117 116.436 101.913 116.382 101.753 116.26C101.402 115.992 101.353 115.491 101.168 115.09C101.036 114.837 100.873 114.602 100.683 114.389C100.546 114.206 100.385 114.041 100.206 113.899C99.7998 113.606 99.3339 113.613 98.8567 113.57C98.5203 113.54 98.2039 113.52 97.9622 113.819C97.6632 114.193 97.7828 114.941 97.8015 115.377C97.8248 115.963 97.894 116.547 98.0083 117.123Z" fill="#514E7F"/>
<path opacity="0.05" d="M98.0083 117.123C98.2337 117.202 98.4734 117.231 98.711 117.208C98.7284 117.014 98.99 116.97 99.1844 116.98C99.2784 116.977 99.3716 116.998 99.4547 117.042C99.5033 117.073 99.5407 117.118 99.588 117.151C99.6724 117.197 99.7671 117.221 99.8634 117.222L100.875 117.306C101.326 117.345 101.796 117.38 102.218 117.219C102.302 117.193 102.377 117.142 102.434 117.075C102.548 116.91 102.434 116.675 102.275 116.555C102.117 116.436 101.913 116.382 101.753 116.26C101.402 115.992 101.353 115.491 101.168 115.09C101.036 114.837 100.873 114.602 100.683 114.389C100.546 114.206 100.385 114.041 100.206 113.899C99.7998 113.606 99.3339 113.613 98.8567 113.57C98.5203 113.54 98.2039 113.52 97.9622 113.819C97.6632 114.193 97.7828 114.941 97.8015 115.377C97.8248 115.963 97.894 116.547 98.0083 117.123Z" fill="black"/>
<path d="M98.4167 97.4449C98.1078 97.5446 97.9732 97.9296 98.0305 98.2497C98.0878 98.5699 98.2797 98.8465 98.4379 99.1305C98.8889 99.9366 99.0832 100.859 99.462 101.699C99.7448 102.322 100.127 102.908 100.406 103.538C100.685 104.169 100.859 104.88 100.689 105.549C100.607 105.874 100.447 106.172 100.342 106.492C100.237 106.839 100.168 107.196 100.137 107.557C100 108.784 99.9754 110.021 100.064 111.253C100.064 111.403 100.096 111.551 100.156 111.689C100.219 111.813 100.329 111.938 100.28 112.062C100.259 112.113 100.213 112.151 100.191 112.201C100.126 112.34 100.256 112.488 100.374 112.588C100.353 112.626 100.324 112.658 100.29 112.685C100.256 112.711 100.217 112.73 100.176 112.741C100.261 112.795 100.326 112.875 100.362 112.969C100.398 113.063 100.402 113.166 100.375 113.263C100.271 113.28 100.264 113.44 100.33 113.525C100.396 113.61 100.501 113.662 100.548 113.758C100.576 113.836 100.573 113.922 100.54 113.998C100.506 114.074 100.445 114.134 100.369 114.167C100.213 114.226 100.044 114.239 99.8806 114.204C99.6043 114.165 99.3315 114.105 99.0646 114.025C98.925 113.997 98.8001 113.92 98.7126 113.808C98.6252 113.696 98.5812 113.556 98.5886 113.414C98.527 112.907 98.5082 112.396 98.5326 111.885C98.5762 109.414 98.5326 106.939 98.4254 104.469C98.3818 103.472 98.0828 102.507 97.6979 101.59C97.4851 101.121 97.2485 100.664 96.989 100.219C96.4333 99.2028 95.9425 98.0766 96.0696 96.9242C96.0833 96.7996 96.1281 96.6513 96.2515 96.6314C96.2997 96.6262 96.3484 96.6344 96.3922 96.6551C96.6482 96.7746 96.8958 96.9111 97.1335 97.0637C97.5241 97.2927 97.9644 97.4235 98.4167 97.4449Z" fill="#464353"/>
<path opacity="0.05" d="M98.4167 97.4449C98.1078 97.5446 97.9732 97.9296 98.0305 98.2497C98.0878 98.5699 98.2797 98.8465 98.4379 99.1305C98.8889 99.9366 99.0832 100.859 99.462 101.699C99.7448 102.322 100.127 102.908 100.406 103.538C100.685 104.169 100.859 104.88 100.689 105.549C100.607 105.874 100.447 106.172 100.342 106.492C100.237 106.839 100.168 107.196 100.137 107.557C100 108.784 99.9754 110.021 100.064 111.253C100.064 111.403 100.096 111.551 100.156 111.689C100.219 111.813 100.329 111.938 100.28 112.062C100.259 112.113 100.213 112.151 100.191 112.201C100.126 112.34 100.256 112.488 100.374 112.588C100.353 112.626 100.324 112.658 100.29 112.685C100.256 112.711 100.217 112.73 100.176 112.741C100.261 112.795 100.326 112.875 100.362 112.969C100.398 113.063 100.402 113.166 100.375 113.263C100.271 113.28 100.264 113.44 100.33 113.525C100.396 113.61 100.501 113.662 100.548 113.758C100.576 113.836 100.573 113.922 100.54 113.998C100.506 114.074 100.445 114.134 100.369 114.167C100.213 114.226 100.044 114.239 99.8806 114.204C99.6043 114.165 99.3315 114.105 99.0646 114.025C98.925 113.997 98.8001 113.92 98.7126 113.808C98.6252 113.696 98.5812 113.556 98.5886 113.414C98.527 112.907 98.5082 112.396 98.5326 111.885C98.5762 109.414 98.5326 106.939 98.4254 104.469C98.3818 103.472 98.0828 102.507 97.6979 101.59C97.4851 101.121 97.2485 100.664 96.989 100.219C96.4333 99.2028 95.9425 98.0766 96.0696 96.9242C96.0833 96.7996 96.1281 96.6513 96.2515 96.6314C96.2997 96.6262 96.3484 96.6344 96.3922 96.6551C96.6482 96.7746 96.8958 96.9111 97.1335 97.0637C97.5241 97.2927 97.9644 97.4235 98.4167 97.4449Z" fill="black"/>
<path d="M94.2395 94.4404C94.0784 94.337 93.8926 94.2785 93.7013 94.271C93.4796 94.2822 93.2902 94.428 93.117 94.5675C92.9118 94.725 92.7171 94.8956 92.534 95.0783C92.1548 95.4825 91.8906 95.9807 91.7688 96.5213C91.647 97.0619 91.6721 97.6253 91.8413 98.153C92.0244 98.7024 92.3596 99.1871 92.691 99.6617L93.3637 100.629C94.3903 102.102 95.4168 103.576 96.492 105.015C96.4922 105.05 96.5037 105.085 96.5248 105.113C96.5458 105.142 96.5753 105.163 96.6091 105.173C96.6477 105.183 96.6963 105.182 96.72 105.214C96.7309 105.235 96.7357 105.258 96.7337 105.28C96.7313 105.387 96.7111 105.492 96.6739 105.592C96.6564 105.625 96.652 105.663 96.6614 105.699C96.6963 105.78 96.8433 105.734 96.8907 105.81C96.9218 105.86 96.8832 105.925 96.8421 105.967C96.801 106.009 96.7499 106.057 96.7574 106.115C96.7648 106.174 96.867 106.24 96.8633 106.312C96.8633 106.354 96.8259 106.387 96.7997 106.42C96.7631 106.474 96.7464 106.539 96.7526 106.603C96.7587 106.668 96.7873 106.728 96.8334 106.774C96.9044 107.477 96.5219 108.145 96.4459 108.845C96.3213 109.951 96.8259 111.031 96.8869 112.141C96.8833 112.266 96.9071 112.39 96.9567 112.505C97.0601 112.697 97.3305 112.813 97.3167 113.031C97.2972 113.12 97.2718 113.209 97.2408 113.295C97.2196 113.42 97.2794 113.544 97.2819 113.669C97.2844 113.793 97.1735 113.947 97.0564 113.897C97.1444 114.191 97.2229 114.487 97.2918 114.786L99.6465 114.981C99.6719 114.769 99.6647 114.555 99.6253 114.345C99.5767 114.117 99.4745 113.905 99.421 113.68C99.3861 113.569 99.3763 113.452 99.3923 113.336C99.4082 113.221 99.4495 113.111 99.5132 113.013C99.4518 113.014 99.3921 112.993 99.3447 112.954C99.2973 112.915 99.2652 112.861 99.254 112.8C99.2343 112.679 99.2364 112.555 99.2603 112.434C99.3225 111.82 99.0647 111.214 99.0721 110.598C99.0796 110.112 99.2503 109.645 99.3363 109.167C99.5206 108.146 99.3288 107.038 99.7835 106.105C100.059 105.543 100.44 104.92 100.131 104.376C99.9791 104.107 99.71 103.922 99.5343 103.668C99.3911 103.428 99.2837 103.168 99.2154 102.897C98.8529 101.776 98.2661 100.734 97.7515 99.668C97.6087 99.4007 97.5027 99.1153 97.4364 98.8196C97.4 98.56 97.3867 98.2978 97.3965 98.0359C97.3965 97.5658 97.3678 97.096 97.3105 96.6294C97.2989 96.4249 97.2405 96.2259 97.1398 96.0476C97.0382 95.9127 96.9112 95.7988 96.7661 95.7124C95.9937 95.183 95.0742 94.8802 94.2395 94.4404Z" fill="#464353"/>
<path d="M97.0612 117.986C97.2873 118.063 97.5272 118.092 97.7651 118.07C97.7826 117.875 98.0429 117.832 98.2373 117.842C98.3313 117.839 98.4245 117.86 98.5076 117.904C98.5562 117.935 98.5936 117.981 98.6422 118.012C98.7264 118.059 98.8212 118.084 98.9175 118.083L99.9279 118.168C100.38 118.207 100.849 118.243 101.272 118.081C101.356 118.055 101.431 118.004 101.486 117.936C101.601 117.772 101.486 117.538 101.328 117.418C101.17 117.298 100.966 117.244 100.807 117.122C100.455 116.854 100.408 116.354 100.221 115.953C100.09 115.699 99.9275 115.463 99.7373 115.25C99.5992 115.068 99.4384 114.904 99.2589 114.762C98.854 114.468 98.3868 114.474 97.9109 114.432C97.5733 114.402 97.2568 114.383 97.0164 114.681C96.7174 115.055 96.837 115.802 96.8544 116.24C96.8778 116.826 96.947 117.41 97.0612 117.986Z" fill="#514E7F"/>
<path d="M107.497 90.3627C108.786 90.3627 109.83 89.3185 109.83 88.0305C109.83 86.7424 108.786 85.6982 107.497 85.6982C106.209 85.6982 105.165 86.7424 105.165 88.0305C105.165 89.3185 106.209 90.3627 107.497 90.3627Z" fill="#A1616A"/>
<path d="M105.297 88.723C104.964 89.0107 104.484 89.0319 104.045 89.0768C103.108 89.1731 102.195 89.4373 101.351 89.8567C101.234 89.907 101.128 89.9798 101.039 90.0709C100.963 90.1698 100.909 90.2836 100.881 90.4048C100.801 90.6672 100.771 90.9424 100.793 91.2159C100.823 91.4811 100.899 91.7391 101.018 91.9783C101.342 92.6484 101.841 93.2181 102.463 93.6266C102.573 93.7082 102.697 93.7679 102.829 93.8022C103.136 93.8658 103.432 93.6889 103.735 93.6091C104.011 93.5373 104.301 93.5464 104.571 93.6353C104.82 93.72 105.093 93.8745 105.34 93.7711C105.498 93.6828 105.62 93.5429 105.687 93.3749C105.926 92.9247 106.138 92.4613 106.324 91.987C106.391 91.8019 106.468 91.6205 106.555 91.4439C106.825 90.9293 107.292 90.5319 107.525 89.9974C107.549 89.9567 107.563 89.9111 107.567 89.8642C107.571 89.8172 107.564 89.7699 107.547 89.7258C107.504 89.6663 107.444 89.6208 107.376 89.595C107.031 89.3978 106.717 89.1515 106.444 88.8637C106.29 88.7167 106.009 88.3193 105.788 88.2844C105.54 88.2421 105.466 88.5784 105.297 88.723Z" fill="#A1616A"/>
<path d="M105.352 93.4621C105.082 93.5867 104.763 93.5331 104.47 93.4721C103.715 93.3138 102.952 93.1544 102.253 92.828C102.034 92.7444 101.845 92.5989 101.708 92.4094C101.623 92.2473 101.572 92.0698 101.556 91.8874L101.432 91.0153C101.387 90.7125 101.464 90.4322 101.472 90.1257C101.476 90.0918 101.474 90.0572 101.465 90.0241C101.457 89.9909 101.441 89.9598 101.42 89.9326C101.378 89.8968 101.323 89.8793 101.267 89.8841C100.917 89.8903 100.705 90.2578 100.46 90.507C100.318 90.6508 100.149 90.7644 99.9616 90.8409C99.7373 90.933 99.4632 90.9978 99.3698 91.2221C99.3324 91.3155 99.3374 91.4214 99.2975 91.5149C99.1406 91.8886 98.4716 91.764 98.3009 92.1378C98.2523 92.2424 98.256 92.3732 98.1763 92.4555C98.0966 92.5377 97.9471 92.5364 97.8237 92.5564C97.3366 92.6361 97.1011 93.198 96.685 93.4633C96.3349 93.6876 95.8839 93.6826 95.5065 93.857C95.2972 93.9542 95.1115 94.1062 94.8898 94.1697C94.668 94.2333 94.4176 94.1996 94.1796 94.2059C94.1543 94.2035 94.1287 94.2063 94.1045 94.2143C94.0802 94.2222 94.0579 94.235 94.0389 94.252C94.0241 94.2745 94.0143 94.3 94.0102 94.3266C94.0061 94.3533 94.0078 94.3805 94.0152 94.4064C94.1306 95.1431 94.4358 95.837 94.9009 96.4199C95.366 97.0027 95.9749 97.4543 96.6676 97.7303C96.748 97.7559 96.8243 97.7928 96.8943 97.84C97.1061 97.9982 97.1435 98.3383 97.3839 98.4504C97.4707 98.481 97.5643 98.4869 97.6542 98.4675C97.7441 98.4482 97.8269 98.4043 97.8935 98.3408C98.0261 98.2131 98.1509 98.0774 98.2672 97.9347C98.4868 97.7053 98.7749 97.5536 99.0882 97.5024C99.3773 97.4563 99.6999 97.4899 99.9342 97.3117C100.03 97.2238 100.119 97.1289 100.201 97.0277C100.374 96.8658 100.58 96.7426 100.805 96.6664C101.419 96.4238 102.068 96.2812 102.727 96.2441C103.342 96.2104 103.973 96.2665 104.554 96.0671C104.704 96.0204 104.843 95.9418 104.961 95.8367C105.086 95.7017 105.179 95.5403 105.233 95.3645C105.442 94.7525 105.483 94.0955 105.352 93.4621Z" fill="#6C63FF"/>
<path d="M102.346 90.0252C102.518 90.009 102.691 90.0252 102.864 90.0252C103.067 90.0252 103.268 89.9754 103.471 89.9741C103.792 89.9794 104.104 90.0872 104.36 90.282C104.616 90.4768 104.803 90.7482 104.894 91.0568C104.911 91.106 104.914 91.1591 104.902 91.21C104.896 91.2351 104.88 91.257 104.859 91.2716C104.837 91.2863 104.811 91.2927 104.785 91.2897C104.718 91.1055 104.63 90.9295 104.522 90.7652C104.329 90.5016 104.054 90.3097 103.74 90.2195C103.427 90.1308 103.097 90.1189 102.778 90.1847C102.645 90.2096 102.515 90.2445 102.386 90.2806L101.763 90.4525C101.648 90.4837 101.532 90.5148 101.421 90.5559C101.336 90.5883 101.189 90.7067 101.104 90.7117C100.989 90.7117 101.081 90.612 101.132 90.5447C101.234 90.406 101.377 90.3023 101.54 90.2482C101.799 90.1422 102.069 90.0673 102.346 90.0252Z" fill="#6C63FF"/>
<path d="M103.918 97.0299C104.069 97.5133 104.22 97.9979 104.409 98.4676C104.748 99.2844 105.174 100.062 105.681 100.786C106.008 101.263 106.359 101.723 106.733 102.164C107.2 102.716 107.722 103.272 107.889 103.975C107.985 104.384 107.952 104.809 107.992 105.221C108.032 105.634 108.168 106.078 108.504 106.328C108.746 106.504 109.054 106.558 109.349 106.605C109.559 106.639 109.824 106.65 109.934 106.467C109.972 106.392 109.992 106.309 109.993 106.225L110.043 105.616C110.054 105.484 110.101 105.316 110.232 105.31C110.363 105.303 110.432 105.479 110.544 105.559C110.693 105.664 110.917 105.559 111 105.401C111.067 105.229 111.072 105.039 111.012 104.865C110.921 104.518 110.758 104.195 110.533 103.916C110.308 103.637 110.027 103.408 109.708 103.245C109.486 103.156 109.272 103.045 109.071 102.915C108.867 102.738 108.698 102.524 108.573 102.284C107.415 100.381 106.253 98.4676 105.438 96.3945C105.277 96.0246 105.168 95.6343 105.114 95.2346C105.076 94.8272 105.138 94.4174 105.165 94.0087C105.214 93.2747 105.146 92.5376 104.964 91.8248C104.924 91.6374 104.853 91.4581 104.754 91.2941C104.419 90.7833 103.633 90.7085 103.135 91.0598C102.951 91.2009 102.799 91.3787 102.687 91.5818C102.576 91.7849 102.508 92.0089 102.488 92.2396C102.452 92.6533 102.691 93.0818 102.811 93.4668C103.179 94.6562 103.548 95.8438 103.918 97.0299Z" fill="#A1616A"/>
<path d="M110.89 86.3805C110.909 86.1862 110.734 86.0068 110.536 85.8822C110.328 85.7753 110.127 85.6529 109.937 85.5159C109.76 85.3627 109.663 85.1634 109.486 85.0101C109.285 84.857 109.057 84.7433 108.813 84.675C108.296 84.4935 107.752 84.3963 107.204 84.3872C106.649 84.3872 106.083 84.5118 105.665 84.7946C105.562 84.8593 105.473 84.9441 105.404 85.0438C105.338 85.1634 105.295 85.2945 105.279 85.43C105.179 85.848 105.045 86.2568 104.877 86.6521C104.703 87.0919 104.519 87.5479 104.112 87.888C103.676 88.2505 103.009 88.4599 102.721 88.8984C102.689 88.9374 102.667 88.9832 102.656 89.0323C102.645 89.0814 102.646 89.1324 102.658 89.1812C102.699 89.2921 102.831 89.3681 102.953 89.4378C103.661 89.844 104.271 90.371 104.585 91.0001C104.899 91.6293 104.89 92.3705 104.443 92.9498C104.279 93.1641 104.052 93.4183 104.213 93.6338C104.462 93.9615 105.295 93.7733 105.489 94.1197C105.551 94.2306 105.514 94.3564 105.514 94.4772C105.514 94.841 105.864 95.1637 106.289 95.3319C106.714 95.5001 107.206 95.5399 107.685 95.5611C107.812 95.2757 107.824 94.9523 107.72 94.6579C107.688 94.5944 107.675 94.5229 107.683 94.4523C107.719 94.3739 107.774 94.3061 107.844 94.2555C108.355 93.7721 108.247 93.062 107.94 92.4876C107.634 91.9133 107.155 91.3888 106.977 90.7846C106.889 90.4843 106.889 90.1467 107.127 89.8975C107.263 89.7777 107.41 89.6705 107.566 89.5774C107.845 89.3882 108.06 89.1188 108.182 88.8049C108.325 88.4075 108.306 87.9329 108.722 87.665C109.122 87.4158 109.684 87.4881 110.126 87.3174C110.467 87.1829 110.863 86.6658 110.89 86.3805Z" fill="#464353"/>
<path d="M130.334 54.3385V56.1733H130.167V54.3385H130.334ZM132.529 54.3385V56.1733H132.366L131.282 54.6368H131.267V56.1733H131.1V54.3385H131.262L132.35 55.8768H132.364V54.3385H132.529ZM133.297 54.3385L133.87 55.9556H133.886L134.46 54.3385H134.635L133.968 56.1733H133.789L133.121 54.3385H133.297ZM136.645 55.2559C136.645 55.447 136.611 55.6134 136.543 55.7549C136.475 55.8959 136.381 56.0052 136.262 56.0829C136.143 56.1599 136.006 56.1984 135.851 56.1984C135.697 56.1984 135.56 56.1599 135.44 56.0829C135.321 56.0052 135.228 55.8959 135.16 55.7549C135.092 55.6134 135.059 55.447 135.059 55.2559C135.059 55.0648 135.092 54.8987 135.16 54.7578C135.228 54.6162 135.322 54.5069 135.441 54.4299C135.561 54.3522 135.697 54.3134 135.851 54.3134C136.006 54.3134 136.143 54.3522 136.262 54.4299C136.381 54.5069 136.475 54.6162 136.543 54.7578C136.611 54.8987 136.645 55.0648 136.645 55.2559ZM136.482 55.2559C136.482 55.0917 136.455 54.951 136.4 54.8339C136.345 54.7163 136.27 54.6264 136.175 54.5643C136.08 54.5021 135.972 54.4711 135.851 54.4711C135.731 54.4711 135.624 54.5021 135.529 54.5643C135.434 54.6264 135.359 54.716 135.303 54.833C135.248 54.9501 135.221 55.0911 135.221 55.2559C135.221 55.4202 135.248 55.5608 135.303 55.6779C135.358 55.795 135.433 55.8849 135.528 55.9476C135.623 56.0097 135.731 56.0407 135.851 56.0407C135.972 56.0407 136.08 56.0097 136.175 55.9476C136.27 55.8854 136.346 55.7959 136.401 55.6788C136.456 55.5611 136.483 55.4202 136.482 55.2559ZM137.496 54.3385V56.1733H137.328V54.3385H137.496ZM139.698 54.9119H139.53C139.517 54.8492 139.494 54.7912 139.461 54.7381C139.429 54.6843 139.389 54.6374 139.34 54.5974C139.291 54.5574 139.235 54.5263 139.173 54.5042C139.111 54.4821 139.044 54.4711 138.971 54.4711C138.855 54.4711 138.75 54.5012 138.654 54.5616C138.559 54.6219 138.483 54.7106 138.426 54.8277C138.369 54.9441 138.341 55.0869 138.341 55.2559C138.341 55.4261 138.369 55.5695 138.426 55.686C138.483 55.8024 138.559 55.8908 138.654 55.9511C138.75 56.0109 138.855 56.0407 138.971 56.0407C139.044 56.0407 139.111 56.0297 139.173 56.0076C139.235 55.9855 139.291 55.9547 139.34 55.9153C139.389 55.8753 139.429 55.8284 139.461 55.7747C139.494 55.7209 139.517 55.6627 139.53 55.5999H139.698C139.683 55.6842 139.655 55.7627 139.614 55.8356C139.573 55.9078 139.521 55.9712 139.458 56.0255C139.395 56.0799 139.323 56.1223 139.241 56.1527C139.159 56.1832 139.069 56.1984 138.971 56.1984C138.817 56.1984 138.68 56.1599 138.561 56.0829C138.442 56.0052 138.348 55.8959 138.28 55.7549C138.212 55.614 138.178 55.4476 138.178 55.2559C138.178 55.0642 138.212 54.8978 138.28 54.7569C138.348 54.6159 138.442 54.5069 138.561 54.4299C138.68 54.3522 138.817 54.3134 138.971 54.3134C139.069 54.3134 139.159 54.3286 139.241 54.3591C139.323 54.3889 139.395 54.4314 139.458 54.4863C139.521 54.5407 139.573 54.604 139.614 54.6762C139.655 54.7485 139.683 54.8271 139.698 54.9119ZM140.369 56.1733V54.3385H141.433V54.489H140.537V55.1798H141.377V55.3303H140.537V56.0228H141.451V56.1733H140.369Z" fill="black"/>
<path d="M118.552 59.1899H152.831" stroke="black" stroke-width="0.146288"/>
<path d="M118.552 63.8716H152.831" stroke="black" stroke-width="0.146288"/>
<path d="M118.552 68.2192H152.831" stroke="black" stroke-width="0.146288"/>
<path d="M118.552 72.5664H152.831" stroke="black" stroke-width="0.146288"/>
<defs>
<linearGradient id="paint0_linear_444_298" x1="100.634" y1="82.3293" x2="100.634" y2="58.5463" gradientUnits="userSpaceOnUse">
<stop stop-color="#808080" stop-opacity="0.25"/>
<stop offset="0.54" stop-color="#808080" stop-opacity="0.12"/>
<stop offset="1" stop-color="#808080" stop-opacity="0.1"/>
</linearGradient>
<clipPath id="clip0_444_298">
<rect width="3.51091" height="4.68122" fill="white" transform="translate(132.244 11.3867)"/>
</clipPath>
<clipPath id="clip1_444_298">
<rect width="4.38864" height="5.85153" fill="white" transform="translate(146.392 34.519)"/>
</clipPath>
</defs>
</svg>
