<svg width="664" height="66" viewBox="0 0 664 66" fill="none" xmlns="http://www.w3.org/2000/svg">
<path d="M25.7617 36.9189H9.32617L9.23828 27.8662H23.0371C25.4688 27.8662 27.4609 27.5586 29.0137 26.9434C30.5664 26.2988 31.7236 25.376 32.4854 24.1748C33.2764 22.9443 33.6719 21.4502 33.6719 19.6924C33.6719 17.7002 33.291 16.0889 32.5293 14.8584C31.7969 13.6279 30.6396 12.7344 29.0576 12.1777C27.5049 11.6211 25.498 11.3428 23.0371 11.3428H13.8965V65H0.712891V1.01562H23.0371C26.7578 1.01562 30.083 1.36719 33.0127 2.07031C35.9717 2.77344 38.4766 3.84277 40.5273 5.27832C42.5781 6.71387 44.1455 8.53027 45.2295 10.7275C46.3135 12.8955 46.8555 15.4736 46.8555 18.4619C46.8555 21.0986 46.2549 23.5303 45.0537 25.7568C43.8818 27.9834 42.0215 29.7998 39.4727 31.2061C36.9531 32.6123 33.6572 33.3887 29.585 33.5352L25.7617 36.9189ZM25.1904 65H5.72266L10.8643 54.7168H25.1904C27.5049 54.7168 29.3945 54.3506 30.8594 53.6182C32.3242 52.8564 33.4082 51.8311 34.1113 50.542C34.8145 49.2529 35.166 47.7734 35.166 46.1035C35.166 44.2285 34.8438 42.6025 34.1992 41.2256C33.584 39.8486 32.5879 38.7939 31.2109 38.0615C29.834 37.2998 28.0176 36.9189 25.7617 36.9189H13.0615L13.1494 27.8662H28.9697L32.002 31.4258C35.8984 31.3672 39.0332 32.0557 41.4062 33.4912C43.8086 34.8975 45.5518 36.7285 46.6357 38.9844C47.749 41.2402 48.3057 43.6572 48.3057 46.2354C48.3057 50.3369 47.4121 53.7939 45.625 56.6064C43.8379 59.3896 41.2158 61.4844 37.7588 62.8906C34.3311 64.2969 30.1416 65 25.1904 65ZM58.1934 1.01562H82.0557C86.9482 1.01562 91.1523 1.74805 94.668 3.21289C98.2129 4.67773 100.938 6.8457 102.842 9.7168C104.746 12.5879 105.698 16.1182 105.698 20.3076C105.698 23.7354 105.112 26.6797 103.94 29.1406C102.798 31.5723 101.172 33.6084 99.0625 35.249C96.9824 36.8604 94.5361 38.1494 91.7236 39.1162L87.5488 41.3135H66.8066L66.7188 31.0303H82.1436C84.458 31.0303 86.377 30.6201 87.9004 29.7998C89.4238 28.9795 90.5664 27.8369 91.3281 26.3721C92.1191 24.9072 92.5146 23.208 92.5146 21.2744C92.5146 19.2236 92.1338 17.4512 91.3721 15.957C90.6104 14.4629 89.4531 13.3203 87.9004 12.5293C86.3477 11.7383 84.3994 11.3428 82.0557 11.3428H71.377V65H58.1934V1.01562ZM93.9648 65L79.375 36.4795L93.3057 36.3916L108.071 64.3848V65H93.9648ZM168.408 31.5137V34.5459C168.408 39.4092 167.749 43.7744 166.431 47.6416C165.112 51.5088 163.252 54.8047 160.85 57.5293C158.447 60.2246 155.576 62.29 152.236 63.7256C148.926 65.1611 145.249 65.8789 141.206 65.8789C137.192 65.8789 133.516 65.1611 130.176 63.7256C126.865 62.29 123.994 60.2246 121.562 57.5293C119.131 54.8047 117.241 51.5088 115.894 47.6416C114.575 43.7744 113.916 39.4092 113.916 34.5459V31.5137C113.916 26.6211 114.575 22.2559 115.894 18.418C117.212 14.5508 119.072 11.2549 121.475 8.53027C123.906 5.80566 126.777 3.72559 130.088 2.29004C133.428 0.854492 137.104 0.136719 141.118 0.136719C145.161 0.136719 148.838 0.854492 152.148 2.29004C155.488 3.72559 158.359 5.80566 160.762 8.53027C163.193 11.2549 165.068 14.5508 166.387 18.418C167.734 22.2559 168.408 26.6211 168.408 31.5137ZM155.093 34.5459V31.4258C155.093 28.0273 154.785 25.0391 154.17 22.4609C153.555 19.8828 152.646 17.7148 151.445 15.957C150.244 14.1992 148.779 12.8809 147.051 12.002C145.322 11.0937 143.345 10.6396 141.118 10.6396C138.892 10.6396 136.914 11.0937 135.186 12.002C133.486 12.8809 132.036 14.1992 130.835 15.957C129.663 17.7148 128.77 19.8828 128.154 22.4609C127.539 25.0391 127.231 28.0273 127.231 31.4258V34.5459C127.231 37.915 127.539 40.9033 128.154 43.5107C128.77 46.0889 129.678 48.2715 130.879 50.0586C132.08 51.8164 133.545 53.1494 135.273 54.0576C137.002 54.9658 138.979 55.4199 141.206 55.4199C143.433 55.4199 145.41 54.9658 147.139 54.0576C148.867 53.1494 150.317 51.8164 151.489 50.0586C152.661 48.2715 153.555 46.0889 154.17 43.5107C154.785 40.9033 155.093 37.915 155.093 34.5459ZM183.921 1.01562H195.083L211.519 47.9932L227.954 1.01562H239.116L216.001 65H207.036L183.921 1.01562ZM177.9 1.01562H189.019L191.04 46.8066V65H177.9V1.01562ZM234.019 1.01562H245.181V65H231.997V46.8066L234.019 1.01562ZM283.545 11.958L266.143 65H252.124L275.898 1.01562H284.819L283.545 11.958ZM298.003 65L280.557 11.958L279.15 1.01562H288.159L312.065 65H298.003ZM297.212 41.1816V51.5088H263.418V41.1816H297.212ZM367.92 31.5576V56.9141C366.924 58.1152 365.386 59.4189 363.306 60.8252C361.226 62.2021 358.545 63.3887 355.264 64.3848C351.982 65.3809 348.013 65.8789 343.354 65.8789C339.224 65.8789 335.459 65.2051 332.061 63.8574C328.662 62.4805 325.732 60.4736 323.271 57.8369C320.84 55.2002 318.965 51.9775 317.646 48.1689C316.328 44.3311 315.669 39.9512 315.669 35.0293V31.0303C315.669 26.1084 316.299 21.7285 317.559 17.8906C318.848 14.0527 320.679 10.8154 323.052 8.17871C325.425 5.54199 328.252 3.53516 331.533 2.1582C334.814 0.78125 338.462 0.0927734 342.476 0.0927734C348.042 0.0927734 352.612 1.00098 356.187 2.81738C359.761 4.60449 362.485 7.09473 364.36 10.2881C366.265 13.4521 367.437 17.085 367.876 21.1865H355.088C354.766 19.0186 354.15 17.1289 353.242 15.5176C352.334 13.9062 351.03 12.6465 349.331 11.7383C347.661 10.8301 345.493 10.376 342.827 10.376C340.63 10.376 338.667 10.8301 336.938 11.7383C335.239 12.6172 333.804 13.9209 332.632 15.6494C331.46 17.3779 330.566 19.5166 329.951 22.0654C329.336 24.6143 329.028 27.5732 329.028 30.9424V35.0293C329.028 38.3691 329.351 41.3281 329.995 43.9062C330.64 46.4551 331.592 48.6084 332.852 50.3662C334.141 52.0947 335.723 53.3984 337.598 54.2773C339.473 55.1562 341.655 55.5957 344.146 55.5957C346.226 55.5957 347.954 55.4199 349.331 55.0684C350.737 54.7168 351.865 54.292 352.715 53.7939C353.594 53.2666 354.268 52.7686 354.736 52.2998V40.9619H342.695V31.5576H367.92ZM403.604 36.9189H387.168L387.08 27.8662H400.879C403.311 27.8662 405.303 27.5586 406.855 26.9434C408.408 26.2988 409.565 25.376 410.327 24.1748C411.118 22.9443 411.514 21.4502 411.514 19.6924C411.514 17.7002 411.133 16.0889 410.371 14.8584C409.639 13.6279 408.481 12.7344 406.899 12.1777C405.347 11.6211 403.34 11.3428 400.879 11.3428H391.738V65H378.555V1.01562H400.879C404.6 1.01562 407.925 1.36719 410.854 2.07031C413.813 2.77344 416.318 3.84277 418.369 5.27832C420.42 6.71387 421.987 8.53027 423.071 10.7275C424.155 12.8955 424.697 15.4736 424.697 18.4619C424.697 21.0986 424.097 23.5303 422.896 25.7568C421.724 27.9834 419.863 29.7998 417.314 31.2061C414.795 32.6123 411.499 33.3887 407.427 33.5352L403.604 36.9189ZM403.032 65H383.564L388.706 54.7168H403.032C405.347 54.7168 407.236 54.3506 408.701 53.6182C410.166 52.8564 411.25 51.8311 411.953 50.542C412.656 49.2529 413.008 47.7734 413.008 46.1035C413.008 44.2285 412.686 42.6025 412.041 41.2256C411.426 39.8486 410.43 38.7939 409.053 38.0615C407.676 37.2998 405.859 36.9189 403.604 36.9189H390.903L390.991 27.8662H406.812L409.844 31.4258C413.74 31.3672 416.875 32.0557 419.248 33.4912C421.65 34.8975 423.394 36.7285 424.478 38.9844C425.591 41.2402 426.147 43.6572 426.147 46.2354C426.147 50.3369 425.254 53.7939 423.467 56.6064C421.68 59.3896 419.058 61.4844 415.601 62.8906C412.173 64.2969 407.983 65 403.032 65ZM488.594 31.5137V34.5459C488.594 39.4092 487.935 43.7744 486.616 47.6416C485.298 51.5088 483.438 54.8047 481.035 57.5293C478.633 60.2246 475.762 62.29 472.422 63.7256C469.111 65.1611 465.435 65.8789 461.392 65.8789C457.378 65.8789 453.701 65.1611 450.361 63.7256C447.051 62.29 444.18 60.2246 441.748 57.5293C439.316 54.8047 437.427 51.5088 436.079 47.6416C434.761 43.7744 434.102 39.4092 434.102 34.5459V31.5137C434.102 26.6211 434.761 22.2559 436.079 18.418C437.397 14.5508 439.258 11.2549 441.66 8.53027C444.092 5.80566 446.963 3.72559 450.273 2.29004C453.613 0.854492 457.29 0.136719 461.304 0.136719C465.347 0.136719 469.023 0.854492 472.334 2.29004C475.674 3.72559 478.545 5.80566 480.947 8.53027C483.379 11.2549 485.254 14.5508 486.572 18.418C487.92 22.2559 488.594 26.6211 488.594 31.5137ZM475.278 34.5459V31.4258C475.278 28.0273 474.971 25.0391 474.355 22.4609C473.74 19.8828 472.832 17.7148 471.631 15.957C470.43 14.1992 468.965 12.8809 467.236 12.002C465.508 11.0937 463.53 10.6396 461.304 10.6396C459.077 10.6396 457.1 11.0937 455.371 12.002C453.672 12.8809 452.222 14.1992 451.021 15.957C449.849 17.7148 448.955 19.8828 448.34 22.4609C447.725 25.0391 447.417 28.0273 447.417 31.4258V34.5459C447.417 37.915 447.725 40.9033 448.34 43.5107C448.955 46.0889 449.863 48.2715 451.064 50.0586C452.266 51.8164 453.73 53.1494 455.459 54.0576C457.188 54.9658 459.165 55.4199 461.392 55.4199C463.618 55.4199 465.596 54.9658 467.324 54.0576C469.053 53.1494 470.503 51.8164 471.675 50.0586C472.847 48.2715 473.74 46.0889 474.355 43.5107C474.971 40.9033 475.278 37.915 475.278 34.5459ZM550.645 31.5137V34.5459C550.645 39.4092 549.985 43.7744 548.667 47.6416C547.349 51.5088 545.488 54.8047 543.086 57.5293C540.684 60.2246 537.812 62.29 534.473 63.7256C531.162 65.1611 527.485 65.8789 523.442 65.8789C519.429 65.8789 515.752 65.1611 512.412 63.7256C509.102 62.29 506.23 60.2246 503.799 57.5293C501.367 54.8047 499.478 51.5088 498.13 47.6416C496.812 43.7744 496.152 39.4092 496.152 34.5459V31.5137C496.152 26.6211 496.812 22.2559 498.13 18.418C499.448 14.5508 501.309 11.2549 503.711 8.53027C506.143 5.80566 509.014 3.72559 512.324 2.29004C515.664 0.854492 519.341 0.136719 523.354 0.136719C527.397 0.136719 531.074 0.854492 534.385 2.29004C537.725 3.72559 540.596 5.80566 542.998 8.53027C545.43 11.2549 547.305 14.5508 548.623 18.418C549.971 22.2559 550.645 26.6211 550.645 31.5137ZM537.329 34.5459V31.4258C537.329 28.0273 537.021 25.0391 536.406 22.4609C535.791 19.8828 534.883 17.7148 533.682 15.957C532.48 14.1992 531.016 12.8809 529.287 12.002C527.559 11.0937 525.581 10.6396 523.354 10.6396C521.128 10.6396 519.15 11.0937 517.422 12.002C515.723 12.8809 514.272 14.1992 513.071 15.957C511.899 17.7148 511.006 19.8828 510.391 22.4609C509.775 25.0391 509.468 28.0273 509.468 31.4258V34.5459C509.468 37.915 509.775 40.9033 510.391 43.5107C511.006 46.0889 511.914 48.2715 513.115 50.0586C514.316 51.8164 515.781 53.1494 517.51 54.0576C519.238 54.9658 521.216 55.4199 523.442 55.4199C525.669 55.4199 527.646 54.9658 529.375 54.0576C531.104 53.1494 532.554 51.8164 533.726 50.0586C534.897 48.2715 535.791 46.0889 536.406 43.5107C537.021 40.9033 537.329 37.915 537.329 34.5459ZM573.32 1.01562V65H560.137V1.01562H573.32ZM611.641 1.01562L586.284 32.6123L571.65 48.3447L569.277 35.8643L579.165 22.3291L595.469 1.01562H611.641ZM596.655 65L577.803 35.4248L587.559 27.251L612.256 65H596.655ZM650.664 48.2568C650.664 47.1143 650.488 46.0889 650.137 45.1807C649.814 44.2432 649.199 43.3936 648.291 42.6318C647.383 41.8408 646.108 41.0645 644.468 40.3027C642.827 39.541 640.703 38.75 638.096 37.9297C635.195 36.9922 632.441 35.9375 629.834 34.7656C627.256 33.5938 624.971 32.2314 622.979 30.6787C621.016 29.0967 619.463 27.2656 618.32 25.1855C617.207 23.1055 616.65 20.6885 616.65 17.9346C616.65 15.2686 617.236 12.8516 618.408 10.6836C619.58 8.48633 621.221 6.61133 623.33 5.05859C625.439 3.47656 627.93 2.26074 630.801 1.41113C633.701 0.561523 636.88 0.136719 640.337 0.136719C645.054 0.136719 649.17 0.986328 652.686 2.68555C656.201 4.38477 658.926 6.71387 660.859 9.67285C662.822 12.6318 663.804 16.0156 663.804 19.8242H650.708C650.708 17.9492 650.312 16.3086 649.521 14.9023C648.76 13.4668 647.588 12.3389 646.006 11.5186C644.453 10.6982 642.49 10.2881 640.117 10.2881C637.832 10.2881 635.928 10.6396 634.404 11.3428C632.881 12.0166 631.738 12.9395 630.977 14.1113C630.215 15.2539 629.834 16.543 629.834 17.9785C629.834 19.0625 630.098 20.0439 630.625 20.9229C631.182 21.8018 632.002 22.6221 633.086 23.3838C634.17 24.1455 635.503 24.8633 637.085 25.5371C638.667 26.2109 640.498 26.8701 642.578 27.5146C646.064 28.5693 649.126 29.7559 651.763 31.0742C654.429 32.3926 656.655 33.8721 658.442 35.5127C660.229 37.1533 661.577 39.0137 662.485 41.0938C663.394 43.1738 663.848 45.5322 663.848 48.1689C663.848 50.9521 663.306 53.4424 662.222 55.6396C661.138 57.8369 659.57 59.6973 657.52 61.2207C655.469 62.7441 653.022 63.9014 650.181 64.6924C647.339 65.4834 644.16 65.8789 640.645 65.8789C637.48 65.8789 634.36 65.4688 631.284 64.6484C628.208 63.7988 625.41 62.5244 622.891 60.8252C620.4 59.126 618.408 56.958 616.914 54.3213C615.42 51.6846 614.673 48.5645 614.673 44.9609H627.9C627.9 46.9531 628.208 48.6377 628.823 50.0146C629.438 51.3916 630.303 52.5049 631.416 53.3545C632.559 54.2041 633.906 54.8193 635.459 55.2002C637.041 55.5811 638.77 55.7715 640.645 55.7715C642.93 55.7715 644.805 55.4492 646.27 54.8047C647.764 54.1602 648.862 53.2666 649.565 52.124C650.298 50.9814 650.664 49.6924 650.664 48.2568Z" fill="#1D5798"/>
</svg>
