<svg width="172" height="148" viewBox="0 0 172 148" fill="none" xmlns="http://www.w3.org/2000/svg">
<path opacity="0.3" d="M89 147.577C129.869 147.577 163 146.473 163 145.11C163 143.748 129.869 142.644 89 142.644C48.1309 142.644 15 143.748 15 145.11C15 146.473 48.1309 147.577 89 147.577Z" fill="#3F5A84"/>
<path opacity="0.5" d="M53.11 5.76548C58.9459 0.706849 68.1062 -0.324127 76.4443 0.078836C102.634 1.34453 126.276 13.6437 146.725 27.5555C154.128 32.5917 161.417 38.0193 166.222 44.9547C176.005 59.0728 173.103 78.6311 159.501 90.2619C154.873 94.2191 149.262 97.2526 143.503 99.9418C133.262 104.723 122.212 108.562 110.589 109.654C102.3 110.433 93.9096 109.8 85.6695 108.713C62.6471 105.676 40.049 98.9599 21.1086 87.4697C12.8014 82.4302 4.97136 76.165 1.54727 68.0123C-1.87682 59.8597 0.314549 49.5287 8.79706 44.7031C12.3053 42.7073 16.4999 41.8059 20.6066 40.9595C26.6514 39.7136 32.7932 38.4855 38.2481 35.9527C43.8824 33.3367 50.554 28.2778 49.4384 22.4874C48.2414 16.2746 47.281 10.8182 53.11 5.76548Z" fill="#538FF0"/>
<path d="M88.7344 55.9661C88.4317 55.3803 86.832 51.7401 86.832 51.7401L84.1515 44.7944C84.1515 44.7944 82.2492 41.8655 82.2492 41.3215C82.2492 40.7776 78.7905 38.6018 78.7905 38.6018C78.7905 38.6018 75.9803 37.765 75.7641 37.6813C75.5479 37.5976 72.2189 36.4964 72.2189 36.4964C72.2189 36.4964 70.908 34.7725 70.7212 35.2227L70.7211 35.2239C70.7143 35.2125 70.7073 35.2026 70.7005 35.1909C70.4327 34.6905 70.263 34.1434 70.2007 33.5792C70.1936 33.5291 70.1875 33.4761 70.1812 33.4239C71.0446 32.8386 71.7523 32.0517 72.243 31.1312C72.7337 30.2108 72.9925 29.1845 72.9971 28.1415C72.9965 27.8668 72.978 27.5926 72.9418 27.3203C72.9656 27.3055 72.9904 27.2924 73.0161 27.2812C73.0699 27.2578 73.0563 27.2388 73.0168 27.219C73.0303 27.2119 73.0438 27.2043 73.0574 27.1986C73.129 27.1675 73.0812 27.1439 73.0119 27.1159L73.0161 27.1138C73.1136 27.0715 72.9903 27.0434 72.8912 26.9986C72.8859 26.9696 72.8809 26.9406 72.8752 26.9117C72.8971 26.8566 72.9105 26.7985 72.9149 26.7393C72.9237 26.7437 72.9317 26.7484 72.941 26.7525C72.9651 26.6446 72.9645 26.5328 72.9392 26.4252C72.933 26.447 72.9255 26.4685 72.9167 26.4895C72.9229 26.3919 72.9028 26.2946 72.8586 26.2074C72.8143 26.1203 72.7475 26.0467 72.6651 25.9942C72.6601 25.9898 72.6546 25.9852 72.6496 25.9808L72.833 24.1037C75.5366 23.9759 76.0109 19.3762 75.3943 19.1207C74.7777 18.8652 75.3943 18.3115 75.3943 17.2042C75.3943 16.0968 73.3547 14.8617 73.3547 14.8617C73.3547 14.8617 72.5009 15.2876 71.1729 13.1582C69.8448 11.0287 64.9593 10.688 64.6273 11.2416C64.2953 11.7953 62.1134 12.5193 59.2675 13.3285C56.4216 14.1377 56.9434 17.5023 57.4177 18.2263C57.8084 18.8249 58.0372 19.5146 58.0817 20.228C58.0817 20.6539 58.9829 22.4427 58.9829 22.4427C58.6987 23.0625 59.4221 26.4581 59.6363 27.4232C59.6329 27.4528 59.6294 27.4824 59.6264 27.5122C59.6246 27.5151 59.6222 27.5176 59.6204 27.5205C59.6102 27.5361 59.601 27.5523 59.5927 27.5691C59.5468 27.6691 59.5316 27.7805 59.549 27.8892C59.5334 28.008 59.55 28.1288 59.597 28.239C59.6133 29.1482 59.8237 30.0434 60.214 30.8647C60.6044 31.686 61.1657 32.4144 61.8605 33.0012C61.8638 33.0593 61.8671 33.1177 61.8703 33.1775C61.9101 33.9658 61.9326 34.898 61.8911 35.7901C61.8889 35.8357 61.8855 35.8804 61.883 35.9258C61.7262 35.9576 61.579 36.0257 61.4533 36.1248C61.3276 36.2239 61.227 36.3512 61.1596 36.4964C60.8915 37.0119 59.3351 37.8069 59.3351 37.8069C59.3351 37.8069 56.6113 37.9324 56.3519 38.4345C56.0925 38.9366 52.1582 40.6102 52.1582 40.6102C52.1582 40.6102 50.0829 41.8236 50.3856 43.2044C50.5437 43.9259 50.0998 45.0468 49.6398 45.9531C48.6778 45.5883 47.676 45.3385 46.6552 45.2089L48.8593 47.3175C48.8131 47.3896 48.7859 47.4304 48.7859 47.4304L47.5321 51.8656C47.5321 51.8656 47.0998 53.4137 46.6674 53.7903C46.2351 54.1669 47.0566 57.5979 47.0566 57.5979C47.0566 57.5979 46.581 60.0247 46.1919 60.6523C45.8028 61.28 46.7971 62.8281 46.7971 62.8281L48.7859 67.347L54.0605 68.6859C54.0605 68.6859 54.412 68.7603 54.98 68.8819C54.9621 68.9899 54.9438 69.0975 54.9252 69.2047C54.671 70.6441 54.3372 71.9679 53.9308 72.3261C52.9364 73.2048 52.9796 77.1379 52.9796 77.1379L53.0229 82.7028C53.0229 82.7028 53.3687 89.5648 53.1958 89.8158C53.0866 89.9743 53.3057 90.2327 53.8837 90.4649C53.8671 90.5682 53.8509 90.673 53.8357 90.7799C53.6731 91.918 53.6005 93.2167 53.974 93.7908C54.1362 94.1012 54.225 94.4448 54.2334 94.795C54.2334 95.3389 55.0549 96.4686 55.0549 96.4686C55.0549 96.4686 54.4064 101.113 55.4872 102.703C56.5681 104.293 57.476 107.18 56.9572 107.85C56.9572 107.85 56.0493 109.816 56.4816 110.695C56.914 111.573 56.4816 112.076 55.9196 112.285C55.3575 112.494 55.4059 114.209 55.4059 114.209L56.4384 122.369C56.4384 122.369 57.0004 124.042 56.5248 124.628C56.0493 125.214 56.0493 128.143 56.7843 129.147C57.5192 130.151 55.7466 131.992 55.7466 131.992C55.7466 131.992 54.6658 133.54 56.3951 134.042C56.3951 134.042 56.741 134.126 56.0925 134.795C55.444 135.465 55.3143 136.302 55.7466 136.595C55.8363 136.648 55.93 136.695 56.0271 136.734C56.011 136.833 55.9936 136.936 55.9732 137.045C55.8071 137.918 55.4941 139.057 54.9252 139.607C53.8224 140.737 52.8709 142.005 52.0942 143.38C51.501 144.504 51.2416 145.557 51.8988 146.051C53.4552 147.222 55.444 147.599 56.6113 147.139C57.7786 146.678 59.4215 145.256 59.4215 145.256L59.8106 143.624C59.8106 143.624 59.5512 142.62 60.8483 142.243C62.1453 141.867 63.3559 140.528 63.3559 140.528V138.359C63.6699 138.179 63.9731 137.981 64.2638 137.766C64.2638 137.766 64.8691 135.632 64.2638 134.921C63.6585 134.21 63.4423 133.959 64.2205 133.498C64.9987 133.038 65.1042 132.034 64.5336 131.155C63.9611 130.277 63.0532 128.98 63.8314 127.138C64.6096 125.297 64.895 119.649 64.895 119.649C64.895 119.649 64.5318 115.799 64.895 114.921C65.2582 114.042 64.4799 112.285 64.4799 112.285C64.4799 112.285 64.7394 110.109 65.2149 109.105C65.6905 108.101 66.0796 102.787 66.0796 102.787C66.0796 102.787 66.9443 100.527 66.9443 99.0628C66.9443 97.5984 65.604 94.0837 67.5928 93.1632C67.5928 93.1632 68.4575 93.9163 68.1116 96.9289C68.1116 96.9289 69.106 100.444 69.106 101.531C69.106 102.619 69.841 106.552 69.841 106.552C69.841 106.552 69.9275 107.808 70.2301 108.268C70.5327 108.728 70.2301 109.983 70.2301 109.983C70.2301 109.983 71.3542 111.03 71.0515 111.699C70.7489 112.368 71.1034 113.878 71.1034 113.878L70.8354 123.247C70.8354 123.247 70.0572 127.264 71.873 129.691C71.873 129.691 71.2245 133.247 70.8354 133.498C70.4463 133.749 72.2621 135.925 72.2621 135.925C72.2621 135.925 71.7588 137.335 72.7809 137.404V139.733C73.1358 140.36 73.6226 140.902 74.2076 141.323C75.1588 141.992 74.7697 144.294 74.7697 144.294C74.7697 144.294 75.9803 147.222 79.1796 146.595C82.3789 145.967 82.8113 145.674 82.6383 144.628C82.5761 144.247 82.4377 143.565 82.2388 142.792C81.8947 141.448 81.3672 139.827 80.736 139.027C79.7416 137.766 78.9202 135.13 78.9202 135.13C78.9202 135.13 78.5311 134.252 78.9202 133.959C79.3093 133.666 79.1364 133.122 79.1364 133.122C79.1364 133.122 79.5151 132.034 79.1744 131.365C78.8337 130.695 79.8281 129.314 79.8281 129.314L79.5254 122.871L79.8281 113.498C79.8281 113.498 78.4878 111.95 79.0499 111.03C79.6119 110.109 78.4014 108.812 78.4014 108.812C78.4014 108.812 78.2717 108.77 78.6175 107.724C78.8245 107.108 78.7937 106.436 78.5311 105.841C78.5311 105.841 77.7961 103.247 79.0931 101.28C79.0931 101.28 79.6552 98.6863 79.8281 97.3474C79.9474 96.4168 80.6945 92.9406 81.139 90.9071C81.1641 90.7922 81.1882 90.6822 81.2112 90.577C81.8514 90.612 82.3357 90.6527 82.3357 90.6527C82.3357 90.6527 81.3413 83.7489 82.3357 82.3263C83.3301 80.9037 81.5575 70.0248 81.5575 70.0248C81.5575 70.0248 81.1338 68.1236 80.8727 66.1838C80.8577 66.0733 80.8441 65.9629 80.8304 65.8524C81.6331 65.7882 82.4388 65.7703 83.2436 65.7989C85.3189 65.9244 87.3509 65.1294 87.3941 64.3344C87.4373 63.5394 88.5614 60.4013 88.7344 59.69C88.9073 58.9787 89.037 56.5518 88.7344 55.9661Z" fill="url(#paint0_linear_449_85)"/>
<path d="M63.5071 136.683V140.557C63.5071 140.557 62.3406 141.89 61.0908 142.265C59.8411 142.64 60.091 143.64 60.091 143.64L59.7161 145.265C59.7161 145.265 58.1331 146.681 57.0083 147.139C55.8835 147.598 53.9671 147.223 52.4674 146.056C51.8342 145.565 52.0841 144.517 52.6557 143.397C53.4004 142.033 54.3172 140.771 55.3836 139.641C55.9318 139.093 56.2334 137.959 56.3934 137.09C56.5117 136.438 56.55 135.933 56.55 135.933L63.5071 136.683Z" fill="#4C495A"/>
<path opacity="0.1" d="M63.5071 139.574V140.557C63.5071 140.557 62.3406 141.89 61.0908 142.265C59.8411 142.64 60.091 143.64 60.091 143.64L59.7161 145.264C59.7161 145.264 58.1331 146.681 57.0083 147.139C55.8835 147.597 53.9671 147.222 52.4674 146.056C51.8342 145.564 52.0841 144.516 52.6557 143.396C52.629 144.573 52.9773 145.894 54.6753 145.848C56.508 145.789 58.2742 145.147 59.7161 144.015C59.7161 144.015 59.6744 141.265 61.5908 140.64C62.2912 140.409 62.9414 140.047 63.5071 139.574Z" fill="black"/>
<path d="M78.7542 146.598C75.6714 147.222 74.5049 144.306 74.5049 144.306C74.5049 144.306 74.8799 142.015 73.9634 141.348C73.3966 140.926 72.9277 140.386 72.5886 139.765V135.933L76.3379 133.267L78.3676 135.063L78.5042 135.183C78.5042 135.183 79.2957 137.807 80.2539 139.062C80.8621 139.859 81.3704 141.473 81.702 142.812C81.8936 143.581 82.0269 144.26 82.0869 144.64C82.2535 145.681 81.8369 145.973 78.7542 146.598Z" fill="#4C495A"/>
<path opacity="0.1" d="M78.7542 146.598C75.6714 147.222 74.5049 144.306 74.5049 144.306C74.5049 144.306 74.8799 142.015 73.9634 141.349C73.3966 140.926 72.9277 140.386 72.5886 139.766V138.281C73.1835 138.909 74.305 140.125 74.5466 140.64C74.8799 141.349 74.9215 143.931 76.4629 144.39C78.0043 144.848 81.0038 145.265 81.2537 144.098C81.3577 143.655 81.5079 143.224 81.702 142.812C81.8936 143.581 82.0269 144.26 82.0869 144.64C82.2535 145.681 81.8369 145.973 78.7542 146.598Z" fill="black"/>
<path opacity="0.1" d="M56.5499 135.933L63.507 136.683V138.731C62.7222 139.196 61.5974 139.689 60.9658 139.183C60.0326 138.436 57.2581 137.488 56.3933 137.09C56.5116 136.438 56.5499 135.933 56.5499 135.933Z" fill="black"/>
<path opacity="0.1" d="M78.5042 135.516C77.5461 135.183 75.838 136.641 73.5884 137.557C73.2757 137.705 72.9343 137.781 72.5886 137.781V135.933L76.338 133.267L78.3676 135.063C78.3989 135.218 78.4446 135.37 78.5042 135.516Z" fill="black"/>
<path d="M80.9621 89.6499C80.9621 89.6499 80.8305 90.2632 80.6422 91.153C80.2139 93.1776 79.494 96.6387 79.3791 97.5652C79.2124 98.8983 78.6709 101.481 78.6709 101.481C77.4211 103.439 78.1293 106.022 78.1293 106.022C78.3826 106.616 78.4122 107.282 78.2126 107.897C77.8793 108.938 78.0043 108.98 78.0043 108.98C78.0043 108.98 79.1708 110.271 78.6292 111.188C78.0876 112.104 79.3791 113.646 79.3791 113.646L79.0875 122.977L79.3791 129.393C79.3791 129.393 78.4209 130.767 78.7492 131.434C79.0774 132.101 78.7125 133.184 78.7125 133.184C78.7125 133.184 78.8792 133.725 78.5042 134.017C78.1293 134.309 78.5042 135.183 78.5042 135.183C77.5461 134.85 75.838 136.308 73.5885 137.225C71.3389 138.141 72.0887 135.975 72.0887 135.975C72.0887 135.975 70.339 133.809 70.714 133.559C71.0889 133.309 71.7138 129.768 71.7138 129.768C69.9641 127.351 70.714 123.352 70.714 123.352L70.9723 114.024C70.9723 114.024 70.6306 112.521 70.9223 111.854C71.2139 111.188 70.1307 110.146 70.1307 110.146C70.1307 110.146 70.4224 108.896 70.1307 108.438C69.8391 107.98 69.7558 106.73 69.7558 106.73C69.7558 106.73 69.0476 102.814 69.0476 101.731C69.0476 100.648 68.0894 97.1486 68.0894 97.1486C68.4227 94.1491 67.5895 93.3993 67.5895 93.3993C65.6732 94.3158 66.9647 97.8151 66.9647 99.2732C66.9647 100.731 66.1315 102.981 66.1315 102.981C66.1315 102.981 65.7565 108.272 65.2983 109.271C64.84 110.271 64.5901 112.437 64.5901 112.437C64.5901 112.437 65.3399 114.187 64.99 115.062C64.6401 115.937 64.99 119.769 64.99 119.769C64.99 119.769 64.7151 125.393 63.9652 127.226C63.2153 129.059 64.0902 130.351 64.6417 131.226C65.1916 132.101 65.09 133.1 64.3401 133.559C63.5903 134.017 63.7986 134.267 64.3818 134.975C64.965 135.683 64.3818 137.808 64.3818 137.808C64.3818 137.808 62.0072 139.683 60.9657 138.849C59.9243 138.016 56.5915 136.933 56.1749 136.641C55.7583 136.35 55.8833 135.517 56.5082 134.85C57.1331 134.184 56.7998 134.1 56.7998 134.1C55.1335 133.6 56.1749 132.059 56.1749 132.059C56.1749 132.059 57.883 130.226 57.1748 129.226C56.4666 128.226 56.4666 125.31 56.9248 124.727C57.3831 124.144 56.8415 122.477 56.8415 122.477L55.8467 114.354C55.8467 114.354 55.8 112.646 56.3416 112.437C56.8831 112.229 57.2997 111.729 56.8831 110.854C56.4666 109.98 57.3414 108.022 57.3414 108.022C57.8413 107.355 56.9665 104.481 55.925 102.898C54.8835 101.314 55.5084 96.6903 55.5084 96.6903C55.5084 96.6903 54.7169 95.5655 54.7169 95.024C54.7091 94.6762 54.6237 94.3346 54.4669 94.0242C54.107 93.4526 54.177 92.1595 54.3336 91.0264C54.4852 89.9299 54.7169 88.9834 54.7169 88.9834L80.9621 89.6499Z" fill="#5F5D7E"/>
<path d="M72.7971 42.4501L64.5903 44.3664C64.5903 44.3664 60.5494 40.9504 61.5492 39.1174C61.8925 38.4875 62.0441 37.4127 62.0958 36.2762C62.1357 35.388 62.1141 34.4599 62.0757 33.675C62.0174 32.5402 61.9241 31.702 61.9241 31.702C61.9241 31.702 70.3393 26.9529 70.0476 31.702C69.9884 32.4929 70.0068 33.2877 70.1026 34.0749C70.1621 34.6351 70.3254 35.1793 70.5842 35.6796C71.0341 36.4812 71.589 36.4928 71.589 36.4928L72.7971 42.4501Z" fill="#FDC2CC"/>
<path opacity="0.1" d="M70.1026 34.0749C68.9165 34.9257 67.4771 35.3494 66.0193 35.2767C64.5615 35.2041 63.1713 34.6395 62.0757 33.675C62.0174 32.5402 61.9241 31.702 61.9241 31.702C61.9241 31.702 70.3392 26.9529 70.0476 31.702C69.9883 32.4929 70.0067 33.2877 70.1026 34.0749Z" fill="black"/>
<path d="M66.34 35.1184C69.9062 35.1184 72.7971 32.2275 72.7971 28.6613C72.7971 25.0951 69.9062 22.2041 66.34 22.2041C62.7738 22.2041 59.8828 25.0951 59.8828 28.6613C59.8828 32.2275 62.7738 35.1184 66.34 35.1184Z" fill="#FDC2CC"/>
<path opacity="0.1" d="M72.7971 42.4496L64.5903 44.366C64.5903 44.366 60.5494 40.9499 61.5492 39.1169C61.8925 38.487 62.0441 37.4122 62.0958 36.2758C62.277 37.264 62.8075 38.1541 63.5905 38.7836C65.4651 40.0334 65.1735 41.5748 65.1735 41.5748L68.5479 41.4498C68.3396 40.0751 69.5894 39.3252 70.006 39.1586C70.4226 38.9919 70.2143 38.2421 70.2143 38.2421L70.5842 35.6792C71.0341 36.4807 71.589 36.4924 71.589 36.4924L72.7971 42.4496Z" fill="black"/>
<path opacity="0.1" d="M80.9622 89.6499C80.9622 89.6499 80.8306 90.2632 80.6423 91.153C79.7358 91.1047 78.5377 91.0697 78.0044 91.1913C77.0879 91.3996 73.4219 91.483 73.4219 91.483L64.3403 91.8045V91.5246C63.2956 91.533 62.2524 91.6026 61.2158 91.7329C59.6744 91.9412 57.2582 91.6496 55.7168 91.3996C55.2424 91.3316 54.778 91.2063 54.3337 91.0264C54.4854 89.9299 54.717 88.9834 54.717 88.9834L80.9622 89.6499Z" fill="black"/>
<path d="M80.2541 63.1964C80.1224 63.9746 80.2191 65.2643 80.3857 66.5374C80.6374 68.4688 81.0456 70.3617 81.0456 70.3617C81.0456 70.3617 82.7536 81.1931 81.7955 82.6095C80.8373 84.0259 81.7955 90.8997 81.7955 90.8997C81.7955 90.8997 78.921 90.6497 78.0045 90.858C77.088 91.0663 73.422 91.1496 73.422 91.1496L64.3403 91.4712V91.1913C63.2957 91.1997 62.2524 91.2693 61.2159 91.3996C59.6745 91.6079 57.2583 91.3163 55.7169 91.0663C54.1755 90.8164 53.5506 90.3164 53.7172 90.0665C53.8839 89.8165 53.5506 82.9844 53.5506 82.9844L53.509 77.4438C53.509 77.4438 53.4673 73.5278 54.4255 72.653C54.817 72.2964 55.1387 70.9783 55.3836 69.5452C55.7352 67.4706 55.9252 65.1544 55.9252 65.1544L49.593 48.1991L49.468 47.8658C49.468 47.8658 51.301 45.033 51.0094 43.6583C50.7178 42.2835 52.7174 41.0754 52.7174 41.0754C52.7174 41.0754 56.5084 39.409 56.7584 38.9091C57.0083 38.4092 59.6328 38.2842 59.6328 38.2842C59.6328 38.2842 61.1326 37.4927 61.3909 36.9795C61.4537 36.8361 61.5498 36.7098 61.6713 36.611C61.7927 36.5122 61.9359 36.4437 62.0891 36.4113C62.2656 37.4116 62.7991 38.314 63.5904 38.9508C65.4651 40.2006 65.1735 41.742 65.1735 41.742L68.5479 41.617C68.3396 40.2422 69.5894 39.4924 70.006 39.3257C70.4225 39.1591 70.2142 38.4092 70.2142 38.4092L70.6042 35.7114C70.7841 35.2631 72.0472 36.9795 72.0472 36.9795C72.0472 36.9795 75.255 38.076 75.4633 38.1593C75.6716 38.2426 78.3794 39.0758 78.3794 39.0758C78.3794 39.0758 81.7122 41.2421 81.7122 41.7836C81.7122 42.3252 83.5452 45.2413 83.5452 45.2413C83.5452 45.2413 83.5235 45.358 83.4835 45.5713C83.0603 47.8675 80.559 61.405 80.2541 63.1964Z" fill="#1B3A6C"/>
<path d="M66.9233 56.4478C66.9233 56.4478 59.7163 54.5315 59.0081 54.0733C58.2999 53.615 54.1339 56.2812 59.2164 59.9055C59.2164 59.9055 65.4312 61.197 67.0937 59.9055C68.7563 58.6141 66.9233 56.4478 66.9233 56.4478Z" fill="#FDC2CC"/>
<path opacity="0.1" d="M82.5036 45.0327L83.3784 45.0744L85.9613 51.9898C85.9613 51.9898 87.5027 55.6141 87.7943 56.1974C88.0859 56.7806 87.9609 59.1968 87.7943 59.905C87.6276 60.6132 86.5445 63.7376 86.5029 64.5292C86.4612 65.3207 84.5032 66.1122 82.5036 65.9872C80.5039 65.8623 75.8381 66.4872 75.8381 66.4872C75.8381 66.4872 70.8552 65.9663 67.7979 67.5286C67.7979 67.5286 65.8399 63.4877 66.0482 55.9474C66.0482 55.9474 69.5059 55.7391 70.3808 56.0724C71.2556 56.4056 75.5048 57.3638 76.0464 56.8639C76.588 56.364 79.0459 57.7804 79.0459 57.7804C79.1709 57.5057 79.2357 57.2074 79.2357 56.9056C79.2357 56.6037 79.1709 56.3054 79.0459 56.0307C78.6293 55.0309 77.9211 51.9065 78.8376 50.9066C79.7541 49.9068 82.5036 45.0327 82.5036 45.0327Z" fill="black"/>
<path opacity="0.1" d="M80.3855 66.5372C78.3175 66.6772 76.0046 66.9872 76.0046 66.9872C76.0046 66.9872 71.0222 66.4656 67.9644 68.0286C67.9644 68.0286 66.0064 63.9877 66.2147 56.4474C66.2147 56.4474 69.6724 56.2391 70.5473 56.5724C71.4221 56.9056 75.6713 57.8638 76.2129 57.3639C76.7545 56.864 79.2124 58.2804 79.2124 58.2804C79.3374 58.0057 79.4021 57.7074 79.4021 57.4056C79.4021 57.1037 79.3374 56.8054 79.2124 56.5307C78.7958 55.5309 78.0876 52.4065 79.0041 51.4066C79.9206 50.4068 82.6701 45.5327 82.6701 45.5327L83.4833 45.571C83.06 47.8673 80.5588 61.4048 80.2539 63.1962C80.1222 63.9744 80.2189 65.2641 80.3855 66.5372Z" fill="black"/>
<path d="M82.6701 45.1992L83.5449 45.2409L86.1278 52.1563C86.1278 52.1563 87.6692 55.7806 87.9608 56.3639C88.2524 56.9471 88.1274 59.3633 87.9608 60.0715C87.7941 60.7797 86.711 63.9042 86.6694 64.6957C86.6277 65.4872 84.6697 66.2787 82.6701 66.1537C80.6704 66.0288 76.0046 66.6537 76.0046 66.6537C76.0046 66.6537 71.0217 66.1328 67.9644 67.6951C67.9644 67.6951 66.0064 63.6542 66.2147 56.1139C66.2147 56.1139 69.6724 55.9056 70.5473 56.2389C71.4221 56.5722 75.6713 57.5303 76.2129 57.0304C76.7545 56.5305 79.2124 57.9469 79.2124 57.9469C79.3374 57.6722 79.4021 57.3739 79.4021 57.0721C79.4021 56.7702 79.3374 56.4719 79.2124 56.1972C78.7958 55.1974 78.0876 52.073 79.0041 51.0732C79.9206 50.0733 82.6701 45.1992 82.6701 45.1992Z" fill="#1B3A6C"/>
<path d="M73.8687 60.5019L74.9082 61.1455L80.7009 51.7902L79.6614 51.1465L73.8687 60.5019Z" fill="white"/>
<path d="M83.6711 50.5226C84.6948 48.8692 84.5847 46.9468 83.425 46.2287C82.2653 45.5107 80.4953 46.2689 79.4716 47.9223C78.4478 49.5757 78.558 51.4981 79.7177 52.2162C80.8773 52.9342 82.6473 52.176 83.6711 50.5226Z" fill="white"/>
<path opacity="0.8" d="M83.0788 50.1556C83.8137 48.9688 83.7346 47.5889 82.9022 47.0735C82.0698 46.5581 80.7993 47.1023 80.0644 48.2891C79.3296 49.4759 79.4087 50.8558 80.2411 51.3712C81.0735 51.8866 82.344 51.3424 83.0788 50.1556Z" fill="#80B1FF"/>
<path d="M70.908 65.2831L71.9475 65.9268L75.5518 60.1057L74.5124 59.462L70.908 65.2831Z" fill="#53526B"/>
<path d="M64.7985 65.6953L67.3397 64.9871C67.3397 64.9871 79.8791 65.3204 75.6715 60.1547C75.6715 60.1547 73.4636 58.0301 68.8394 59.7381C64.2153 61.4461 62.9238 61.6544 62.9238 61.6544L64.7985 65.6953Z" fill="#FDC2CC"/>
<path opacity="0.1" d="M62.924 43.908C63.2001 43.908 63.4239 43.6842 63.4239 43.4081C63.4239 43.132 63.2001 42.9082 62.924 42.9082C62.6479 42.9082 62.4241 43.132 62.4241 43.4081C62.4241 43.6842 62.6479 43.908 62.924 43.908Z" fill="black"/>
<path opacity="0.1" d="M71.5055 43.616C71.7816 43.616 72.0054 43.3922 72.0054 43.1161C72.0054 42.84 71.7816 42.6162 71.5055 42.6162C71.2294 42.6162 71.0056 42.84 71.0056 43.1161C71.0056 43.3922 71.2294 43.616 71.5055 43.616Z" fill="black"/>
<path d="M62.924 43.7415C63.2001 43.7415 63.4239 43.5177 63.4239 43.2416C63.4239 42.9655 63.2001 42.7417 62.924 42.7417C62.6479 42.7417 62.4241 42.9655 62.4241 43.2416C62.4241 43.5177 62.6479 43.7415 62.924 43.7415Z" fill="white"/>
<path opacity="0.1" d="M63.632 50.8235C63.9081 50.8235 64.1319 50.5997 64.1319 50.3236C64.1319 50.0475 63.9081 49.8237 63.632 49.8237C63.3559 49.8237 63.1321 50.0475 63.1321 50.3236C63.1321 50.5997 63.3559 50.8235 63.632 50.8235Z" fill="black"/>
<path opacity="0.1" d="M71.7555 50.324C72.0316 50.324 72.2554 50.1002 72.2554 49.8241C72.2554 49.548 72.0316 49.3242 71.7555 49.3242C71.4794 49.3242 71.2556 49.548 71.2556 49.8241C71.2556 50.1002 71.4794 50.324 71.7555 50.324Z" fill="black"/>
<path d="M63.632 50.657C63.9081 50.657 64.1319 50.4332 64.1319 50.1571C64.1319 49.881 63.9081 49.6572 63.632 49.6572C63.3559 49.6572 63.1321 49.881 63.1321 50.1571C63.1321 50.4332 63.3559 50.657 63.632 50.657Z" fill="white"/>
<path opacity="0.1" d="M71.5473 74.4471C71.8234 74.4471 72.0472 74.2233 72.0472 73.9472C72.0472 73.6711 71.8234 73.4473 71.5473 73.4473C71.2712 73.4473 71.0474 73.6711 71.0474 73.9472C71.0474 74.2233 71.2712 74.4471 71.5473 74.4471Z" fill="black"/>
<path opacity="0.1" d="M64.9679 74.4471C65.244 74.4471 65.4678 74.2233 65.4678 73.9472C65.4678 73.6711 65.244 73.4473 64.9679 73.4473C64.6918 73.4473 64.468 73.6711 64.468 73.9472C64.468 74.2233 64.6918 74.4471 64.9679 74.4471Z" fill="black"/>
<path d="M71.5473 74.2806C71.8234 74.2806 72.0472 74.0568 72.0472 73.7807C72.0472 73.5046 71.8234 73.2808 71.5473 73.2808C71.2712 73.2808 71.0474 73.5046 71.0474 73.7807C71.0474 74.0568 71.2712 74.2806 71.5473 74.2806Z" fill="white"/>
<path opacity="0.1" d="M65.4679 82.8177C65.744 82.8177 65.9678 82.5939 65.9678 82.3178C65.9678 82.0417 65.744 81.8179 65.4679 81.8179C65.1918 81.8179 64.968 82.0417 64.968 82.3178C64.968 82.5939 65.1918 82.8177 65.4679 82.8177Z" fill="black"/>
<path opacity="0.1" d="M71.7555 82.3182C72.0316 82.3182 72.2554 82.0944 72.2554 81.8183C72.2554 81.5422 72.0316 81.3184 71.7555 81.3184C71.4794 81.3184 71.2556 81.5422 71.2556 81.8183C71.2556 82.0944 71.4794 82.3182 71.7555 82.3182Z" fill="black"/>
<path d="M65.4679 82.6512C65.744 82.6512 65.9678 82.4274 65.9678 82.1513C65.9678 81.8752 65.744 81.6514 65.4679 81.6514C65.1918 81.6514 64.968 81.8752 64.968 82.1513C64.968 82.4274 65.1918 82.6512 65.4679 82.6512Z" fill="white"/>
<path d="M64.9679 74.2806C65.244 74.2806 65.4678 74.0568 65.4678 73.7807C65.4678 73.5046 65.244 73.2808 64.9679 73.2808C64.6918 73.2808 64.468 73.5046 64.468 73.7807C64.468 74.0568 64.6918 74.2806 64.9679 74.2806Z" fill="white"/>
<path d="M71.7555 82.1507C72.0316 82.1507 72.2554 81.9269 72.2554 81.6508C72.2554 81.3747 72.0316 81.1509 71.7555 81.1509C71.4794 81.1509 71.2556 81.3747 71.2556 81.6508C71.2556 81.9269 71.4794 82.1507 71.7555 82.1507Z" fill="white"/>
<path d="M71.5055 43.4495C71.7816 43.4495 72.0054 43.2257 72.0054 42.9496C72.0054 42.6735 71.7816 42.4497 71.5055 42.4497C71.2294 42.4497 71.0056 42.6735 71.0056 42.9496C71.0056 43.2257 71.2294 43.4495 71.5055 43.4495Z" fill="white"/>
<path d="M71.7555 50.1566C72.0316 50.1566 72.2554 49.9327 72.2554 49.6566C72.2554 49.3806 72.0316 49.1567 71.7555 49.1567C71.4794 49.1567 71.2556 49.3806 71.2556 49.6566C71.2556 49.9327 71.4794 50.1566 71.7555 50.1566Z" fill="white"/>
<path opacity="0.1" d="M72.5054 67.1953C72.5054 67.1953 72.5887 78.6099 72.8386 80.6512C72.8386 80.6512 72.9294 67.7334 72.5054 67.1953Z" fill="black"/>
<path opacity="0.1" d="M74.6302 72.4863C74.4585 72.4863 78.0463 85.8589 78.2129 86.8171C78.3795 87.7752 75.6301 72.4863 74.6302 72.4863Z" fill="black"/>
<path opacity="0.1" d="M77.4629 70.3198C77.4629 70.4448 79.4625 77.5685 80.4624 77.9434C81.4622 78.3184 77.4629 70.3198 77.4629 70.3198Z" fill="black"/>
<path opacity="0.1" d="M85.3362 56.4473C85.3362 56.4473 81.087 56.6367 80.962 57.2502C80.8371 57.8637 85.3362 56.4473 85.3362 56.4473Z" fill="black"/>
<path opacity="0.1" d="M77.8377 110.771C77.8377 110.771 74.7965 112.062 75.2548 112.146C75.7131 112.229 77.8377 110.771 77.8377 110.771Z" fill="black"/>
<path opacity="0.1" d="M71.5472 108.855C71.4287 108.589 73.5885 109.938 73.5885 110.105C73.5885 110.271 71.7138 109.23 71.5472 108.855Z" fill="black"/>
<path opacity="0.1" d="M74.3801 113.229C74.3801 113.229 76.7547 113.109 76.9213 114.023C77.088 114.937 74.3801 113.229 74.3801 113.229Z" fill="black"/>
<path opacity="0.1" d="M57.2998 113.224C57.2998 113.224 59.8827 112.718 60.091 113.224C60.2993 113.729 57.2998 113.224 57.2998 113.224Z" fill="black"/>
<path opacity="0.1" d="M58.2582 128.934C58.2582 128.934 58.4276 131.059 57.8014 131.559C57.1751 132.059 58.2582 128.934 58.2582 128.934Z" fill="black"/>
<path opacity="0.1" d="M57.9424 133.433C58.7578 133.517 63.0486 132.767 63.007 133.433C62.9653 134.1 57.9424 133.433 57.9424 133.433Z" fill="black"/>
<path opacity="0.1" d="M77.6297 130.851C77.6297 130.851 76.1663 130.626 76.5231 131.613L77.6297 130.851Z" fill="black"/>
<path opacity="0.1" d="M50.4262 47.6992H49.6346L48.4265 52.1151C48.4265 52.1151 48.0099 53.6564 47.5933 54.0314C47.1768 54.4063 47.9683 57.8224 47.9683 57.8224C47.9683 57.8224 47.51 60.2386 47.1351 60.8635C46.7602 61.4884 47.7183 63.0297 47.7183 63.0297L49.6346 67.5289L54.7171 68.862C54.7171 68.862 63.6738 70.82 64.0903 71.1116C64.5069 71.4032 64.8819 70.9866 65.1735 68.2788C65.4651 65.571 66.2566 60.3219 66.8815 60.072C66.8815 60.072 61.8824 60.6135 61.4658 60.5302C61.0492 60.4469 59.0496 60.5719 59.0496 60.5719C59.0496 60.5719 56.4251 60.4052 56.0085 60.6552C55.5919 60.9051 56.5501 59.4452 56.5501 59.4452C56.7255 58.7767 56.7255 58.0743 56.5501 57.4058C56.2584 56.281 56.0918 43.5333 50.4262 47.6992Z" fill="black"/>
<path opacity="0.1" d="M66.7149 60.5715C66.09 60.8214 65.2985 66.0705 65.0069 68.7783C64.7153 71.4861 64.3403 71.9027 63.9237 71.6111C63.5855 71.3745 57.6149 70.0381 55.3836 69.5448C55.7352 67.4702 55.9252 65.154 55.9252 65.154L49.593 48.1987H50.2596C55.9252 44.0328 56.0918 56.7805 56.3835 57.9053C56.5589 58.5738 56.5589 59.2763 56.3835 59.9449C56.3835 59.9449 55.4253 61.4046 55.8419 61.1547C56.2585 60.9047 58.883 61.0714 58.883 61.0714C58.883 61.0714 60.8826 60.9464 61.2992 61.0297C61.7158 61.113 66.7149 60.5715 66.7149 60.5715Z" fill="black"/>
<path d="M50.2594 47.8657H49.4679L48.2598 52.2816C48.2598 52.2816 47.8432 53.823 47.4266 54.1979C47.01 54.5728 47.8015 57.9889 47.8015 57.9889C47.8015 57.9889 47.3433 60.4051 46.9684 61.03C46.5934 61.6549 47.5516 63.1962 47.5516 63.1962L49.4679 67.6954L54.5503 69.0285C54.5503 69.0285 63.507 70.9865 63.9236 71.2781C64.3402 71.5697 64.7151 71.1531 65.0067 68.4453C65.2984 65.7375 66.0899 60.4884 66.7148 60.2385C66.7148 60.2385 61.7157 60.78 61.2991 60.6967C60.8825 60.6134 58.8829 60.7384 58.8829 60.7384C58.8829 60.7384 56.2583 60.5717 55.8417 60.8217C55.4252 61.0717 56.3833 59.6117 56.3833 59.6117C56.5587 58.9432 56.5587 58.2408 56.3833 57.5723C56.0917 56.4475 55.9251 43.6998 50.2594 47.8657Z" fill="#1B3A6C"/>
<path opacity="0.1" d="M52.9673 62.9463C52.9673 62.9463 50.676 67.2788 50.2594 66.7789C49.8428 66.279 52.9673 62.9463 52.9673 62.9463Z" fill="black"/>
<path opacity="0.1" d="M50.5928 60.479C50.5928 60.479 48.4681 62.2379 49.468 62.6962C50.4678 63.1544 50.5928 60.479 50.5928 60.479Z" fill="black"/>
<path opacity="0.1" d="M52.5923 58.3223C52.7589 58.3639 55.6751 58.9431 55.7167 59.1951C55.7584 59.4471 52.5923 58.3223 52.5923 58.3223Z" fill="black"/>
<path opacity="0.1" d="M72.8154 27.8046C72.7248 27.8365 72.6476 27.8978 72.5959 27.9788C72.5442 28.0597 72.5212 28.1556 72.5305 28.2512C72.3605 28.4012 72.1222 28.2246 71.9839 28.0329C71.8439 27.843 71.6856 27.608 71.474 27.6347C71.3735 27.6667 71.2759 27.7074 71.1824 27.7563C70.8491 27.8629 70.5675 27.4714 70.3809 27.1281C70.0559 26.5265 69.731 25.9255 69.406 25.3251C68.7545 25.7033 67.9846 25.3068 67.3381 24.9151C66.6915 24.5235 65.9217 24.1253 65.2685 24.5036C64.3103 25.0568 64.2753 26.9015 63.2822 27.3564C62.9622 27.503 62.5906 27.4713 62.294 27.673C62.0007 27.8729 61.8424 28.2579 61.7108 28.6261C61.662 28.8358 61.5476 29.0244 61.3842 29.1644C61.2803 29.2187 61.1647 29.2467 61.0476 29.246C60.7531 29.2961 60.4504 29.2536 60.1811 29.1244C60.0399 29.0357 59.9332 28.9014 59.8787 28.7439C59.8241 28.5863 59.825 28.4149 59.8811 28.2579C59.889 28.2412 59.8979 28.2251 59.9078 28.2096C60.0145 28.0805 60.1104 27.9428 60.1944 27.798C60.2944 27.533 60.1511 27.2247 60.1827 26.9381C60.2344 26.4482 60.7526 26.1899 60.8409 25.7083C60.8776 25.52 60.8393 25.3184 60.8742 25.1285C60.8791 25.1036 60.8858 25.0791 60.8943 25.0551L60.5893 25.2651C60.9309 24.8668 61.1026 24.3136 61.3525 23.8303C61.6302 23.3012 62.0123 22.834 62.4757 22.4567C62.9391 22.0795 63.4742 21.8002 64.0487 21.6357C65.1352 21.3191 66.2833 21.4058 67.3797 21.6741C68.4224 21.9338 69.4212 22.3454 70.3442 22.8955C70.6739 23.0723 70.9669 23.3104 71.2074 23.5971C71.4089 23.8942 71.5802 24.2107 71.719 24.5419C72.0422 25.2118 72.9254 25.8316 72.2222 25.925C71.6373 26.0033 72.1705 26.4132 72.4772 26.6898C72.5463 26.7441 72.606 26.8094 72.6538 26.8831C72.7047 26.9885 72.728 27.1051 72.7216 27.222C72.7152 27.3388 72.6792 27.4521 72.6171 27.5513C72.4988 27.7013 72.9787 27.7313 72.8154 27.8046Z" fill="black"/>
<path d="M72.8154 27.6381C72.7248 27.67 72.6476 27.7313 72.5959 27.8123C72.5443 27.8932 72.5212 27.9891 72.5305 28.0847C72.3605 28.2347 72.1222 28.0581 71.9839 27.8664C71.8439 27.6765 71.6857 27.4415 71.474 27.4682C71.3735 27.5002 71.2759 27.5409 71.1824 27.5898C70.8491 27.6964 70.5675 27.3049 70.3809 26.9616C70.0559 26.36 69.731 25.759 69.406 25.1586C68.7545 25.5369 67.9846 25.1403 67.3381 24.7487C66.6915 24.357 65.9217 23.9588 65.2685 24.3371C64.3103 24.8903 64.2753 26.735 63.2822 27.1899C62.9622 27.3365 62.5906 27.3049 62.294 27.5065C62.0007 27.7064 61.8424 28.0914 61.7108 28.4596C61.6621 28.6693 61.5476 28.8579 61.3842 28.9979C61.2803 29.0522 61.1647 29.0802 61.0476 29.0795C60.7531 29.1296 60.4504 29.0871 60.1811 28.9579C60.0399 28.8692 59.9332 28.7349 59.8787 28.5774C59.8241 28.4198 59.825 28.2484 59.8811 28.0914C59.889 28.0747 59.8979 28.0586 59.9078 28.0431C60.0145 27.914 60.1104 27.7763 60.1944 27.6315C60.2944 27.3665 60.1511 27.0582 60.1827 26.7716C60.2344 26.2817 60.7526 26.0234 60.8409 25.5418C60.8776 25.3535 60.8393 25.1519 60.8743 24.9619C60.8791 24.9371 60.8858 24.9126 60.8943 24.8886L60.5893 25.0986C60.9309 24.7003 61.1026 24.1471 61.3525 23.6639C61.6302 23.1347 62.0123 22.6675 62.4757 22.2902C62.9391 21.913 63.4742 21.6337 64.0487 21.4692C65.1352 21.1526 66.2833 21.2393 67.3798 21.5076C68.4224 21.7673 69.4212 22.1789 70.3442 22.729C70.6739 22.9058 70.9669 23.1439 71.2074 23.4306C71.4089 23.7277 71.5802 24.0442 71.719 24.3754C72.0422 25.0453 72.9254 25.6651 72.2222 25.7585C71.6373 25.8368 72.1706 26.2467 72.4772 26.5233C72.5463 26.5776 72.606 26.6429 72.6538 26.7166C72.7047 26.822 72.728 26.9386 72.7216 27.0555C72.7152 27.1723 72.6792 27.2856 72.6171 27.3848C72.4988 27.5348 72.9787 27.5648 72.8154 27.6381Z" fill="#865A61"/>
<path opacity="0.1" d="M72.4771 26.5233L72.4104 27.2249C72.4104 27.2249 65.4184 18.3632 59.9794 28.3697C59.9794 28.3697 59.9527 28.248 59.9077 28.0431C60.0145 27.914 60.1103 27.7763 60.1943 27.6315C60.2943 27.3665 60.151 27.0582 60.1827 26.7716C60.2343 26.2817 60.7526 26.0234 60.8409 25.5418C60.8775 25.3535 60.8392 25.1519 60.8742 24.9619C60.8791 24.9371 60.8858 24.9126 60.8942 24.8886L60.5893 25.0986C60.9309 24.7003 61.1025 24.1471 61.3525 23.6639C61.6301 23.1347 62.0122 22.6675 62.4756 22.2902C62.9391 21.913 63.4742 21.6337 64.0486 21.4692C65.1351 21.1526 66.2832 21.2393 67.3797 21.5076C68.4223 21.7673 69.4212 22.1789 70.3442 22.729C70.6739 22.9058 70.9668 23.1439 71.2073 23.4306C71.4088 23.7277 71.5802 24.0442 71.7189 24.3754C72.0422 25.0453 72.9254 25.6651 72.2222 25.7585C71.6373 25.8368 72.1705 26.2467 72.4771 26.5233Z" fill="black"/>
<g opacity="0.1">
<path d="M72.6496 27.5466C72.6151 27.5854 72.59 27.6316 72.5763 27.6816C72.5625 27.7316 72.5605 27.7841 72.5703 27.835C72.4004 27.985 72.1621 27.8084 72.0238 27.6167C71.8838 27.4268 71.7255 27.1918 71.5139 27.2185C71.4133 27.2506 71.3158 27.2913 71.2222 27.3401C70.889 27.4468 70.6073 27.0552 70.4207 26.7119C70.0958 26.1104 69.7708 25.5094 69.4459 24.9089C68.7943 25.2872 68.0245 24.8906 67.3779 24.499C66.7314 24.1074 65.9615 23.7091 65.3083 24.0874C64.3502 24.6406 64.3152 26.4853 63.322 26.9402C63.0021 27.0868 62.6305 27.0552 62.3338 27.2568C62.0406 27.4568 61.8823 27.8417 61.7506 28.21C61.7019 28.4196 61.5875 28.6082 61.424 28.7482C61.3202 28.8025 61.2046 28.8305 61.0874 28.8299C60.7929 28.8799 60.4902 28.8374 60.2209 28.7082C60.0595 28.6012 59.9437 28.4379 59.8962 28.2501C59.8631 28.3994 59.8765 28.5552 59.9345 28.6967C59.9926 28.8382 60.0925 28.9585 60.2209 29.0415C60.4902 29.1707 60.7929 29.2132 61.0874 29.1631C61.2046 29.1638 61.3202 29.1358 61.424 29.0815C61.5875 28.9415 61.7019 28.7529 61.7506 28.5432C61.8823 28.175 62.0406 27.79 62.3338 27.5901C62.6305 27.3885 63.0021 27.4201 63.322 27.2735C64.3152 26.8186 64.3502 24.9739 65.3083 24.4207C65.9615 24.0424 66.7314 24.4407 67.3779 24.8322C68.0245 25.2238 68.7943 25.6204 69.4459 25.2422C69.7708 25.8421 70.0958 26.4431 70.4207 27.0452C70.6073 27.3885 70.889 27.78 71.2222 27.6734C71.3158 27.6245 71.4133 27.5838 71.5139 27.5518C71.7255 27.5251 71.8838 27.7601 72.0238 27.95C72.1621 28.1417 72.4004 28.3183 72.5703 28.1683C72.5611 28.0727 72.5841 27.9768 72.6358 27.8959C72.6874 27.8149 72.7647 27.7536 72.8553 27.7217C72.9852 27.6634 72.7089 27.6323 72.6496 27.5466Z" fill="black"/>
<path d="M72.1047 25.8817C72.1552 25.8614 72.2081 25.8481 72.2621 25.842C72.5721 25.8008 72.5734 25.6572 72.4506 25.4521C72.3923 25.4836 72.3281 25.5029 72.2621 25.5087C71.9275 25.5535 71.9593 25.7069 72.1047 25.8817Z" fill="black"/>
<path d="M72.7431 27.2775C72.7663 27.1701 72.7657 27.0589 72.7413 26.9517C72.7265 27.0181 72.6977 27.0806 72.6569 27.1351C72.6047 27.2013 72.669 27.244 72.7431 27.2775Z" fill="black"/>
<path d="M60.2321 26.7979C60.2285 26.8169 60.2245 26.8357 60.2224 26.8555C60.2156 27.0056 60.2265 27.1559 60.255 27.3034C60.2746 27.1348 60.2669 26.964 60.2321 26.7979Z" fill="black"/>
<path d="M60.9085 24.7646C60.8301 24.9132 60.7364 25.0532 60.6289 25.1823L60.8979 24.9971C60.8966 24.9195 60.9001 24.8418 60.9085 24.7646Z" fill="black"/>
</g>
<path d="M59.979 28.2023C59.979 28.2023 58.9735 23.7074 59.2934 22.9866C59.2934 22.9866 58.4251 21.2056 58.4251 20.7816C58.3829 20.074 58.1629 19.3885 57.7852 18.7886C57.3282 18.0677 56.8255 14.7178 59.5677 13.9121C62.3099 13.1065 64.4122 12.3856 64.7322 11.8344C65.0521 11.2831 69.7595 11.6223 71.0392 13.7425C72.3189 15.8627 73.1416 15.4387 73.1416 15.4387C73.1416 15.4387 75.1068 16.6684 75.1068 17.7709C75.1068 18.8734 74.5127 19.4247 75.1068 19.6791C75.701 19.9335 75.2439 24.5131 72.6389 24.6403L72.4103 27.0574C72.4103 27.0574 65.4177 18.1949 59.979 28.2023Z" fill="#1B3A6C"/>
<path opacity="0.1" d="M60.2782 14.7881C60.2782 14.7881 59.6741 18.3291 60.7781 19.5164L60.2782 14.7881Z" fill="black"/>
<path opacity="0.1" d="M63.1112 13.9761C63.1112 13.9761 61.5698 17.7671 61.9448 18.4961L63.1112 13.9761Z" fill="black"/>
<path opacity="0.1" d="M64.4444 12.7676C64.4444 12.7676 63.403 17.7042 63.9029 18.0999L64.4444 12.7676Z" fill="black"/>
<path opacity="0.1" d="M66.2357 14.1006C66.2357 14.1006 64.9443 17.2667 65.465 17.7041L66.2357 14.1006Z" fill="black"/>
<path opacity="0.1" d="M68.6728 14.4761C68.6728 14.4761 67.1522 17.0589 67.4647 17.5172L68.6728 14.4761Z" fill="black"/>
<path opacity="0.1" d="M71.7972 16.9961C71.7972 16.9961 70.1725 17.4335 70.5058 17.9543L71.7972 16.9961Z" fill="black"/>
<path opacity="0.1" d="M73.3387 19.6831C73.3387 19.6831 71.8807 20.3913 72.1515 20.7662L73.3387 19.6831Z" fill="black"/>
<path opacity="0.1" d="M59.2935 22.9868C59.2935 22.9868 68.6064 19.204 72.6389 24.6406C72.6389 24.6406 67.7442 20.479 59.2935 22.9868Z" fill="black"/>
<path d="M55.928 54.0695L57.2257 52.7568L60.8946 56.3835L59.5969 57.6964L56.2227 54.361L55.928 54.0695Z" fill="#53526B"/>
<path d="M47.4148 45.6543C47.4148 45.6543 53.0944 46.1376 58.3805 52.0875L56.1773 54.3163L47.4148 45.6543Z" fill="white"/>
<path d="M64.4508 56.2921C64.4508 56.2921 58.9918 54.3021 58.4554 53.8262C57.919 53.3503 54.7635 56.119 58.6132 59.8827C58.6132 59.8827 63.3205 61.2238 64.5798 59.8827C65.8392 58.5416 64.4508 56.2921 64.4508 56.2921Z" fill="#FDC2CC"/>
<path d="M133.443 60.9561C133.158 60.4023 131.648 56.9609 131.648 56.9609L129.118 50.3946C129.118 50.3946 127.322 47.6257 127.322 47.1115C127.322 46.5972 124.058 44.5403 124.058 44.5403C124.058 44.5403 121.405 43.7492 121.201 43.6701C120.997 43.591 117.855 42.5498 117.855 42.5498C117.855 42.5498 116.618 40.9201 116.441 41.3458L116.441 41.3468C116.435 41.3361 116.428 41.3268 116.422 41.3157C116.169 40.8426 116.009 40.3254 115.95 39.792C115.943 39.7446 115.938 39.6946 115.932 39.6452C116.746 39.0919 117.414 38.348 117.878 37.4778C118.341 36.6076 118.585 35.6374 118.589 34.6513C118.589 34.3917 118.571 34.1324 118.537 33.875C118.56 33.861 118.583 33.8486 118.607 33.838C118.658 33.8159 118.645 33.798 118.608 33.7792C118.621 33.7725 118.633 33.7654 118.646 33.7599C118.714 33.7305 118.669 33.7082 118.603 33.6818L118.607 33.6798C118.699 33.6397 118.583 33.6132 118.489 33.5708C118.484 33.5435 118.48 33.516 118.474 33.4888C118.495 33.4366 118.508 33.3817 118.512 33.3258C118.52 33.3299 118.528 33.3344 118.536 33.3382C118.559 33.2362 118.559 33.1305 118.535 33.0288C118.529 33.0494 118.522 33.0697 118.514 33.0896C118.519 32.9974 118.5 32.9053 118.459 32.8229C118.417 32.7406 118.354 32.6709 118.276 32.6213C118.271 32.6172 118.266 32.6128 118.261 32.6086L118.434 30.8341C120.986 30.7133 121.434 26.3649 120.852 26.1233C120.27 25.8817 120.852 25.3583 120.852 24.3114C120.852 23.2646 118.927 22.0969 118.927 22.0969C118.927 22.0969 118.121 22.4996 116.868 20.4864C115.614 18.4733 111.003 18.1512 110.689 18.6746C110.376 19.198 108.317 19.8825 105.631 20.6475C102.944 21.4125 103.437 24.5933 103.885 25.2778C104.253 25.8436 104.469 26.4957 104.511 27.1701C104.511 27.5728 105.362 29.2638 105.362 29.2638C105.094 29.8498 105.776 33.0599 105.979 33.9723C105.975 34.0003 105.972 34.0282 105.969 34.0564C105.968 34.0592 105.965 34.0615 105.964 34.0643C105.954 34.079 105.945 34.0944 105.937 34.1102C105.894 34.2047 105.88 34.3101 105.896 34.4128C105.881 34.5251 105.897 34.6393 105.942 34.7435C105.957 35.603 106.155 36.4494 106.524 37.2258C106.892 38.0023 107.422 38.6909 108.078 39.2456C108.081 39.3005 108.084 39.3557 108.087 39.4123C108.125 40.1575 108.146 41.0388 108.107 41.8821C108.105 41.9253 108.102 41.9676 108.099 42.0105C107.951 42.0405 107.812 42.1049 107.694 42.1986C107.575 42.2923 107.48 42.4126 107.416 42.5499C107.163 43.0372 105.694 43.7888 105.694 43.7888C105.694 43.7888 103.123 43.9074 102.879 44.3821C102.634 44.8568 98.9202 46.439 98.9202 46.439C98.9202 46.439 96.9615 47.5861 97.2471 48.8915C97.3964 49.5736 96.9774 50.6332 96.5433 51.49C95.6352 51.1451 94.6896 50.909 93.7262 50.7865L95.8066 52.7799C95.763 52.8481 95.7373 52.8866 95.7373 52.8866L94.5539 57.0796C94.5539 57.0796 94.1458 58.5432 93.7377 58.8992C93.3297 59.2552 94.105 62.4988 94.105 62.4988C94.105 62.4988 93.6561 64.793 93.2888 65.3864C92.9216 65.9797 93.8601 67.4433 93.8601 67.4433L95.7373 71.7153L100.716 72.9811C100.716 72.9811 101.048 73.0514 101.584 73.1664C101.567 73.2685 101.55 73.3702 101.532 73.4716C101.292 74.8323 100.977 76.0839 100.593 76.4225C99.6548 77.2532 99.6956 80.9714 99.6956 80.9714L99.7364 86.2324C99.7364 86.2324 100.063 92.7196 99.8996 92.9569C99.7966 93.1067 100.003 93.351 100.549 93.5705C100.533 93.6682 100.518 93.7672 100.504 93.8683C100.35 94.9442 100.282 96.172 100.634 96.7147C100.787 97.0082 100.871 97.333 100.879 97.6641C100.879 98.1783 101.654 99.2463 101.654 99.2463C101.654 99.2463 101.042 103.637 102.062 105.14C103.083 106.643 103.94 109.373 103.45 110.006C103.45 110.006 102.593 111.865 103.001 112.695C103.409 113.526 103.001 114.001 102.47 114.199C101.94 114.396 101.986 116.018 101.986 116.018L102.96 123.731C102.96 123.731 103.491 125.314 103.042 125.868C102.593 126.421 102.593 129.19 103.287 130.14C103.98 131.089 102.307 132.829 102.307 132.829C102.307 132.829 101.287 134.293 102.919 134.768C102.919 134.768 103.246 134.847 102.634 135.48C102.022 136.113 101.899 136.904 102.307 137.181C102.392 137.231 102.48 137.275 102.572 137.312C102.557 137.406 102.54 137.503 102.521 137.606C102.364 138.432 102.069 139.508 101.532 140.029C100.491 141.097 99.5929 142.295 98.8599 143.595C98.3 144.658 98.0551 145.653 98.6754 146.12C100.144 147.228 102.022 147.584 103.123 147.149C104.225 146.714 105.776 145.369 105.776 145.369L106.143 143.826C106.143 143.826 105.898 142.877 107.123 142.521C108.347 142.165 109.489 140.899 109.489 140.899V138.848C109.786 138.679 110.072 138.492 110.346 138.288C110.346 138.288 110.918 136.271 110.346 135.598C109.775 134.926 109.571 134.689 110.305 134.253C111.04 133.818 111.14 132.869 110.601 132.038C110.061 131.208 109.204 129.981 109.938 128.241C110.673 126.5 110.942 121.16 110.942 121.16C110.942 121.16 110.599 117.521 110.942 116.691C111.285 115.86 110.55 114.199 110.55 114.199C110.55 114.199 110.795 112.142 111.244 111.192C111.693 110.243 112.06 105.219 112.06 105.219C112.06 105.219 112.876 103.083 112.876 101.699C112.876 100.314 111.611 96.9916 113.488 96.1214C113.488 96.1214 114.305 96.8334 113.978 99.6814C113.978 99.6814 114.917 103.004 114.917 104.033C114.917 105.061 115.61 108.779 115.61 108.779C115.61 108.779 115.692 109.966 115.978 110.401C116.263 110.836 115.978 112.023 115.978 112.023C115.978 112.023 117.039 113.012 116.753 113.645C116.467 114.278 116.802 115.705 116.802 115.705L116.549 124.562C116.549 124.562 115.814 128.36 117.528 130.654C117.528 130.654 116.916 134.016 116.549 134.253C116.182 134.491 117.896 136.548 117.896 136.548C117.896 136.548 117.421 137.88 118.385 137.946V140.147C118.72 140.74 119.18 141.253 119.732 141.65C120.63 142.283 120.262 144.459 120.262 144.459C120.262 144.459 121.405 147.228 124.425 146.634C127.445 146.041 127.853 145.764 127.689 144.775C127.631 144.415 127.5 143.771 127.312 143.04C126.987 141.769 126.49 140.236 125.894 139.48C124.955 138.288 124.18 135.796 124.18 135.796C124.18 135.796 123.813 134.965 124.18 134.689C124.547 134.412 124.384 133.897 124.384 133.897C124.384 133.897 124.741 132.869 124.42 132.236C124.098 131.603 125.037 130.298 125.037 130.298L124.751 124.206L125.037 115.346C125.037 115.346 123.772 113.882 124.302 113.012C124.833 112.142 123.69 110.915 123.69 110.915C123.69 110.915 123.568 110.876 123.894 109.887C124.09 109.304 124.061 108.669 123.813 108.107C123.813 108.107 123.119 105.654 124.343 103.795C124.343 103.795 124.874 101.343 125.037 100.077C125.15 99.1973 125.855 95.911 126.274 93.9886C126.298 93.8799 126.321 93.7759 126.342 93.6765C126.947 93.7096 127.404 93.7481 127.404 93.7481C127.404 93.7481 126.465 87.2213 127.404 85.8764C128.342 84.5315 126.669 74.2469 126.669 74.2469C126.669 74.2469 126.269 72.4495 126.023 70.6157C126.009 70.5112 125.996 70.4068 125.983 70.3024C126.741 70.2417 127.501 70.2248 128.261 70.2518C130.219 70.3704 132.137 69.6189 132.178 68.8673C132.219 68.1157 133.28 65.1491 133.443 64.4766C133.606 63.8042 133.729 61.5099 133.443 60.9561Z" fill="url(#paint1_linear_449_85)"/>
<path d="M109.632 137.265V140.927C109.632 140.927 108.531 142.188 107.352 142.542C106.172 142.896 106.408 143.842 106.408 143.842L106.054 145.378C106.054 145.378 104.56 146.717 103.498 147.15C102.436 147.583 100.628 147.229 99.2121 146.126C98.6145 145.661 98.8504 144.67 99.3899 143.612C100.093 142.322 100.958 141.129 101.965 140.061C102.482 139.543 102.767 138.471 102.918 137.649C103.029 137.033 103.066 136.556 103.066 136.556L109.632 137.265Z" fill="#4C495A"/>
<path opacity="0.1" d="M109.632 139.998V140.927C109.632 140.927 108.531 142.188 107.352 142.542C106.172 142.897 106.408 143.842 106.408 143.842L106.054 145.378C106.054 145.378 104.56 146.717 103.498 147.15C102.436 147.583 100.628 147.229 99.2121 146.126C98.6145 145.661 98.8504 144.671 99.3899 143.612C99.3647 144.724 99.6934 145.973 101.296 145.929C103.026 145.874 104.693 145.267 106.054 144.196C106.054 144.196 106.015 141.597 107.823 141.006C108.484 140.788 109.098 140.446 109.632 139.998Z" fill="black"/>
<path d="M124.024 146.638C121.114 147.229 120.013 144.472 120.013 144.472C120.013 144.472 120.367 142.306 119.502 141.676C118.967 141.276 118.524 140.766 118.204 140.179V136.556L121.743 134.035L123.659 135.733L123.788 135.847C123.788 135.847 124.535 138.328 125.439 139.514C126.013 140.267 126.493 141.794 126.806 143.059C126.987 143.787 127.113 144.428 127.169 144.787C127.326 145.771 126.933 146.047 124.024 146.638Z" fill="#4C495A"/>
<path opacity="0.1" d="M124.024 146.638C121.114 147.229 120.013 144.472 120.013 144.472C120.013 144.472 120.367 142.306 119.502 141.676C118.967 141.276 118.524 140.766 118.204 140.179V138.775C118.766 139.369 119.824 140.519 120.052 141.006C120.367 141.676 120.406 144.117 121.861 144.551C123.316 144.984 126.147 145.378 126.383 144.275C126.481 143.856 126.623 143.448 126.806 143.059C126.987 143.787 127.113 144.428 127.169 144.787C127.326 145.771 126.933 146.047 124.024 146.638Z" fill="black"/>
<path opacity="0.1" d="M103.066 136.556L109.632 137.265V139.201C108.891 139.64 107.83 140.106 107.234 139.628C106.353 138.922 103.734 138.025 102.918 137.649C103.029 137.033 103.066 136.556 103.066 136.556Z" fill="black"/>
<path opacity="0.1" d="M123.788 136.162C122.883 135.847 121.271 137.225 119.148 138.092C118.853 138.231 118.53 138.303 118.204 138.303V136.556L121.743 134.035L123.659 135.733C123.688 135.88 123.731 136.023 123.788 136.162Z" fill="black"/>
<path d="M126.107 92.8001C126.107 92.8001 125.983 93.3798 125.805 94.221C125.401 96.1351 124.722 99.4071 124.613 100.283C124.456 101.543 123.945 103.985 123.945 103.985C122.765 105.836 123.434 108.278 123.434 108.278C123.673 108.84 123.701 109.469 123.512 110.05C123.198 111.035 123.316 111.074 123.316 111.074C123.316 111.074 124.417 112.295 123.905 113.161C123.394 114.028 124.613 115.485 124.613 115.485L124.338 124.307L124.613 130.372C124.613 130.372 123.709 131.672 124.019 132.302C124.329 132.932 123.984 133.956 123.984 133.956C123.984 133.956 124.141 134.468 123.787 134.744C123.434 135.019 123.787 135.846 123.787 135.846C122.883 135.531 121.271 136.91 119.148 137.776C117.024 138.643 117.732 136.595 117.732 136.595C117.732 136.595 116.081 134.547 116.435 134.31C116.788 134.074 117.378 130.726 117.378 130.726C115.727 128.442 116.435 124.661 116.435 124.661L116.678 115.843C116.678 115.843 116.356 114.422 116.631 113.792C116.906 113.161 115.884 112.177 115.884 112.177C115.884 112.177 116.159 110.995 115.884 110.562C115.609 110.129 115.53 108.947 115.53 108.947C115.53 108.947 114.862 105.245 114.862 104.221C114.862 103.197 113.957 99.8891 113.957 99.8891C114.272 97.0535 113.485 96.3446 113.485 96.3446C111.677 97.211 112.896 100.519 112.896 101.898C112.896 103.276 112.109 105.403 112.109 105.403C112.109 105.403 111.755 110.405 111.323 111.35C110.89 112.295 110.654 114.343 110.654 114.343C110.654 114.343 111.362 115.997 111.032 116.824C110.702 117.651 111.032 121.274 111.032 121.274C111.032 121.274 110.772 126.591 110.065 128.324C109.357 130.057 110.183 131.278 110.703 132.105C111.222 132.932 111.126 133.877 110.418 134.31C109.711 134.744 109.907 134.98 110.458 135.649C111.008 136.319 110.458 138.327 110.458 138.327C110.458 138.327 108.217 140.1 107.233 139.312C106.25 138.524 103.105 137.5 102.712 137.225C102.318 136.949 102.436 136.161 103.026 135.531C103.616 134.901 103.301 134.822 103.301 134.822C101.729 134.35 102.712 132.893 102.712 132.893C102.712 132.893 104.324 131.16 103.655 130.214C102.987 129.269 102.987 126.512 103.419 125.961C103.852 125.41 103.341 123.834 103.341 123.834L102.402 116.155C102.402 116.155 102.358 114.54 102.869 114.343C103.38 114.146 103.773 113.673 103.38 112.846C102.987 112.019 103.813 110.168 103.813 110.168C104.284 109.538 103.459 106.821 102.476 105.324C101.493 103.827 102.082 99.4559 102.082 99.4559C102.082 99.4559 101.335 98.3925 101.335 97.8805C101.328 97.5518 101.247 97.2289 101.099 96.9353C100.76 96.395 100.826 95.1725 100.974 94.1013C101.117 93.0647 101.335 92.1699 101.335 92.1699L126.107 92.8001Z" fill="#5F5D7E"/>
<path d="M118.401 48.1784L110.655 49.99C110.655 49.99 106.84 46.7606 107.784 45.0277C108.108 44.4322 108.251 43.4161 108.3 42.3417C108.338 41.5021 108.317 40.6246 108.281 39.8826C108.226 38.8098 108.138 38.0174 108.138 38.0174C108.138 38.0174 116.081 33.5277 115.806 38.0174C115.75 38.7651 115.767 39.5164 115.857 40.2607C115.914 40.7903 116.068 41.3047 116.312 41.7777C116.737 42.5355 117.26 42.5465 117.26 42.5465L118.401 48.1784Z" fill="#FDC2CC"/>
<path opacity="0.1" d="M115.857 40.2607C115.676 40.8011 114.562 42.2205 112.437 42.4233C110.311 42.0177 109.315 40.7944 108.281 39.8826C108.226 38.8098 108.138 38.0174 108.138 38.0174C108.138 38.0174 116.081 33.5277 115.805 38.0174C115.75 38.7651 115.767 39.5164 115.857 40.2607Z" fill="black"/>
<path d="M112.538 42.3221C114.866 42.3221 118.4 38.5139 118.4 35.1425C118.4 31.7711 115.672 29.0381 112.306 29.0381C108.94 29.0381 106.211 31.7711 106.211 35.1425C106.211 38.5139 110.209 42.3221 112.538 42.3221Z" fill="#FDC2CC"/>
<path opacity="0.1" d="M118.401 48.1789L110.655 49.9906C110.655 49.9906 106.84 46.7611 107.784 45.0283C108.108 44.4328 108.251 43.4167 108.3 42.3423C108.471 43.2765 108.972 44.118 109.711 44.7132C111.48 45.8947 111.205 47.3519 111.205 47.3519L114.39 47.2337C114.193 45.9341 115.373 45.2252 115.766 45.0676C116.159 44.9101 115.963 44.2012 115.963 44.2012L116.312 41.7783C116.737 42.5361 117.26 42.5471 117.26 42.5471L118.401 48.1789Z" fill="black"/>
<path opacity="0.1" d="M126.107 92.8001C126.107 92.8001 125.983 93.3798 125.805 94.221C124.95 94.1753 123.819 94.1422 123.316 94.2573C122.451 94.4542 118.99 94.5329 118.99 94.5329L110.418 94.837V94.5723C109.432 94.5803 108.448 94.646 107.469 94.7692C106.015 94.9662 103.734 94.6905 102.279 94.4542C101.831 94.3899 101.393 94.2714 100.974 94.1013C101.117 93.0647 101.335 92.1699 101.335 92.1699L126.107 92.8001Z" fill="black"/>
<path d="M125.439 67.7916C125.315 68.5273 125.406 69.7466 125.563 70.9502C125.801 72.776 126.186 74.5656 126.186 74.5656C126.186 74.5656 127.798 84.8053 126.894 86.1443C125.989 87.4834 126.894 93.9817 126.894 93.9817C126.894 93.9817 124.181 93.7454 123.316 93.9423C122.451 94.1392 118.99 94.218 118.99 94.218L110.419 94.522V94.2574C109.433 94.2653 108.448 94.3311 107.47 94.4543C106.015 94.6512 103.734 94.3755 102.279 94.1392C100.824 93.9029 100.235 93.4303 100.392 93.194C100.549 92.9577 100.235 86.4988 100.235 86.4988L100.195 81.2608C100.195 81.2608 100.156 77.5587 101.06 76.7317C101.43 76.3945 101.733 75.1485 101.965 73.7937C102.296 71.8323 102.476 69.6426 102.476 69.6426L96.4991 53.6135L96.3811 53.2984C96.3811 53.2984 98.1112 50.6204 97.836 49.3207C97.5607 48.021 99.4481 46.8789 99.4481 46.8789C99.4481 46.8789 103.026 45.3036 103.262 44.831C103.498 44.3584 105.975 44.2402 105.975 44.2402C105.975 44.2402 107.391 43.4919 107.635 43.0067C107.694 42.8712 107.785 42.7518 107.899 42.6583C108.014 42.5649 108.149 42.5002 108.294 42.4695C108.46 43.4153 108.964 44.2683 109.711 44.8704C111.48 46.0519 111.205 47.5091 111.205 47.5091L114.39 47.3909C114.193 46.0913 115.373 45.3823 115.766 45.2248C116.159 45.0673 115.963 44.3584 115.963 44.3584L116.331 41.8079C116.501 41.3841 117.693 43.0067 117.693 43.0067C117.693 43.0067 120.721 44.0433 120.917 44.1221C121.114 44.2008 123.67 44.9885 123.67 44.9885C123.67 44.9885 126.815 47.0365 126.815 47.5484C126.815 48.0604 128.545 50.8173 128.545 50.8173C128.545 50.8173 128.525 50.9276 128.487 51.1292C128.088 53.3 125.727 66.0981 125.439 67.7916Z" fill="#1B3A6C"/>
<path d="M115.863 65.4627C115.863 65.4627 109.592 68.6657 108.806 68.7906C108.019 68.9154 106.774 73.4219 112.629 72.7622C112.629 72.7622 117.809 69.7462 118.162 67.7877C118.516 65.8293 115.863 65.4627 115.863 65.4627Z" fill="#FDC2CC"/>
<path opacity="0.1" d="M127.562 50.6206L128.388 50.66L130.826 57.1977C130.826 57.1977 132.281 60.624 132.556 61.1754C132.831 61.7268 132.713 64.011 132.556 64.6805C132.399 65.3501 131.376 68.3038 131.337 69.0521C131.298 69.8004 129.45 70.5487 127.562 70.4305C125.675 70.3124 121.271 70.9031 121.271 70.9031C121.271 70.9031 116.568 70.4108 113.682 71.8877C113.682 71.8877 111.834 68.0675 112.031 60.9391C112.031 60.9391 115.294 60.7422 116.12 61.0573C116.946 61.3723 120.956 62.2781 121.467 61.8055C121.979 61.3329 124.299 62.672 124.299 62.672C124.417 62.4123 124.478 62.1303 124.478 61.8449C124.478 61.5596 124.417 61.2776 124.299 61.0179C123.905 60.0727 123.237 57.1189 124.102 56.1737C124.967 55.2285 127.562 50.6206 127.562 50.6206Z" fill="black"/>
<path opacity="0.1" d="M125.563 70.9505C123.611 71.0828 121.428 71.3758 121.428 71.3758C121.428 71.3758 116.726 70.8827 113.839 72.3604C113.839 72.3604 111.991 68.5402 112.188 61.4118C112.188 61.4118 115.452 61.2148 116.277 61.5299C117.103 61.845 121.114 62.7508 121.625 62.2782C122.136 61.8056 124.456 63.1446 124.456 63.1446C124.574 62.8849 124.635 62.6029 124.635 62.3176C124.635 62.0322 124.574 61.7502 124.456 61.4905C124.063 60.5453 123.394 57.5916 124.259 56.6463C125.124 55.7011 127.72 51.0933 127.72 51.0933L128.487 51.1295C128.088 53.3003 125.727 66.0984 125.439 67.7919C125.315 68.5276 125.406 69.7469 125.563 70.9505Z" fill="black"/>
<path d="M127.72 50.7778L128.545 50.8172L130.983 57.3549C130.983 57.3549 132.438 60.7813 132.713 61.3326C132.989 61.884 132.871 64.1683 132.713 64.8378C132.556 65.5073 131.534 68.4611 131.494 69.2093C131.455 69.9576 129.607 70.7059 127.72 70.5878C125.832 70.4696 121.428 71.0604 121.428 71.0604C121.428 71.0604 116.725 70.568 113.839 72.045C113.839 72.045 111.991 68.2248 112.188 61.0963C112.188 61.0963 115.452 60.8994 116.277 61.2145C117.103 61.5295 121.114 62.4354 121.625 61.9628C122.136 61.4902 124.456 62.8292 124.456 62.8292C124.574 62.5695 124.635 62.2875 124.635 62.0022C124.635 61.7168 124.574 61.4348 124.456 61.1751C124.063 60.2299 123.394 57.2761 124.259 56.3309C125.124 55.3857 127.72 50.7778 127.72 50.7778Z" fill="#1B3A6C"/>
<path d="M116.618 69.7646L117.599 70.373L121.001 64.8699L120.02 64.2614L116.618 69.7646Z" fill="#53526B"/>
<path d="M107.93 72.1042L110.329 71.4346C110.329 71.4346 122.164 71.7497 118.193 66.8661C118.193 66.8661 116.109 64.8576 111.744 66.4723C107.38 68.087 106.161 68.284 106.161 68.284L107.93 72.1042Z" fill="#FDC2CC"/>
<path opacity="0.1" d="M109.081 49.557C109.342 49.557 109.553 49.3454 109.553 49.0844C109.553 48.8234 109.342 48.6118 109.081 48.6118C108.821 48.6118 108.61 48.8234 108.61 49.0844C108.61 49.3454 108.821 49.557 109.081 49.557Z" fill="black"/>
<path opacity="0.1" d="M117.182 49.2816C117.442 49.2816 117.654 49.07 117.654 48.809C117.654 48.548 117.442 48.3364 117.182 48.3364C116.921 48.3364 116.71 48.548 116.71 48.809C116.71 49.07 116.921 49.2816 117.182 49.2816Z" fill="black"/>
<path d="M109.081 49.3998C109.342 49.3998 109.553 49.1882 109.553 48.9272C109.553 48.6662 109.342 48.4546 109.081 48.4546C108.821 48.4546 108.61 48.6662 108.61 48.9272C108.61 49.1882 108.821 49.3998 109.081 49.3998Z" fill="white"/>
<path opacity="0.1" d="M109.75 56.0946C110.011 56.0946 110.222 55.883 110.222 55.622C110.222 55.361 110.011 55.1494 109.75 55.1494C109.489 55.1494 109.278 55.361 109.278 55.622C109.278 55.883 109.489 56.0946 109.75 56.0946Z" fill="black"/>
<path opacity="0.1" d="M117.418 55.6225C117.678 55.6225 117.889 55.4109 117.889 55.1498C117.889 54.8888 117.678 54.6772 117.418 54.6772C117.157 54.6772 116.946 54.8888 116.946 55.1498C116.946 55.4109 117.157 55.6225 117.418 55.6225Z" fill="black"/>
<path d="M109.75 55.9369C110.011 55.9369 110.222 55.7253 110.222 55.4643C110.222 55.2033 110.011 54.9917 109.75 54.9917C109.489 54.9917 109.278 55.2033 109.278 55.4643C109.278 55.7253 109.489 55.9369 109.75 55.9369Z" fill="white"/>
<path opacity="0.1" d="M117.221 78.4276C117.481 78.4276 117.693 78.216 117.693 77.955C117.693 77.694 117.481 77.4824 117.221 77.4824C116.96 77.4824 116.749 77.694 116.749 77.955C116.749 78.216 116.96 78.4276 117.221 78.4276Z" fill="black"/>
<path opacity="0.1" d="M111.011 78.4276C111.272 78.4276 111.483 78.216 111.483 77.955C111.483 77.694 111.272 77.4824 111.011 77.4824C110.75 77.4824 110.539 77.694 110.539 77.955C110.539 78.216 110.75 78.4276 111.011 78.4276Z" fill="black"/>
<path d="M117.221 78.2709C117.481 78.2709 117.693 78.0593 117.693 77.7983C117.693 77.5373 117.481 77.3257 117.221 77.3257C116.96 77.3257 116.749 77.5373 116.749 77.7983C116.749 78.0593 116.96 78.2709 117.221 78.2709Z" fill="white"/>
<path opacity="0.1" d="M111.483 86.3412C111.744 86.3412 111.955 86.1296 111.955 85.8686C111.955 85.6076 111.744 85.396 111.483 85.396C111.222 85.396 111.011 85.6076 111.011 85.8686C111.011 86.1296 111.222 86.3412 111.483 86.3412Z" fill="black"/>
<path opacity="0.1" d="M117.418 85.8685C117.678 85.8685 117.889 85.657 117.889 85.3959C117.889 85.1349 117.678 84.9233 117.418 84.9233C117.157 84.9233 116.946 85.1349 116.946 85.3959C116.946 85.657 117.157 85.8685 117.418 85.8685Z" fill="black"/>
<path d="M111.483 86.184C111.744 86.184 111.955 85.9724 111.955 85.7114C111.955 85.4504 111.744 85.2388 111.483 85.2388C111.222 85.2388 111.011 85.4504 111.011 85.7114C111.011 85.9724 111.222 86.184 111.483 86.184Z" fill="white"/>
<path d="M111.011 78.2709C111.272 78.2709 111.483 78.0593 111.483 77.7983C111.483 77.5373 111.272 77.3257 111.011 77.3257C110.75 77.3257 110.539 77.5373 110.539 77.7983C110.539 78.0593 110.75 78.2709 111.011 78.2709Z" fill="white"/>
<path d="M117.418 85.7108C117.678 85.7108 117.889 85.4992 117.889 85.2382C117.889 84.9772 117.678 84.7656 117.418 84.7656C117.157 84.7656 116.946 84.9772 116.946 85.2382C116.946 85.4992 117.157 85.7108 117.418 85.7108Z" fill="white"/>
<path d="M117.182 49.1234C117.442 49.1234 117.654 48.9118 117.654 48.6508C117.654 48.3898 117.442 48.1782 117.182 48.1782C116.921 48.1782 116.71 48.3898 116.71 48.6508C116.71 48.9118 116.921 49.1234 117.182 49.1234Z" fill="white"/>
<path d="M117.418 55.4647C117.678 55.4647 117.889 55.2531 117.889 54.9921C117.889 54.7311 117.678 54.5195 117.418 54.5195C117.157 54.5195 116.946 54.7311 116.946 54.9921C116.946 55.2531 117.157 55.4647 117.418 55.4647Z" fill="white"/>
<path opacity="0.1" d="M118.125 71.5723C118.125 71.5723 118.204 82.3634 118.44 84.2932C118.44 84.2932 118.525 72.081 118.125 71.5723Z" fill="black"/>
<path opacity="0.1" d="M120.131 76.5742C119.969 76.5742 123.355 89.2163 123.512 90.1222C123.67 91.028 121.075 76.5742 120.131 76.5742Z" fill="black"/>
<path opacity="0.1" d="M122.804 74.5269C122.804 74.645 124.692 81.3796 125.635 81.7341C126.579 82.0885 122.804 74.5269 122.804 74.5269Z" fill="black"/>
<path opacity="0.1" d="M130.236 61.4116C130.236 61.4116 126.225 61.5907 126.107 62.1707C125.989 62.7507 130.236 61.4116 130.236 61.4116Z" fill="black"/>
<path opacity="0.1" d="M123.159 112.768C123.159 112.768 120.288 113.988 120.721 114.067C121.153 114.146 123.159 112.768 123.159 112.768Z" fill="black"/>
<path opacity="0.1" d="M117.221 110.956C117.109 110.704 119.148 111.98 119.148 112.138C119.148 112.295 117.378 111.311 117.221 110.956Z" fill="black"/>
<path opacity="0.1" d="M119.895 115.092C119.895 115.092 122.136 114.979 122.293 115.843C122.45 116.707 119.895 115.092 119.895 115.092Z" fill="black"/>
<path opacity="0.1" d="M103.773 115.087C103.773 115.087 106.211 114.609 106.408 115.087C106.604 115.564 103.773 115.087 103.773 115.087Z" fill="black"/>
<path opacity="0.1" d="M104.677 129.939C104.677 129.939 104.837 131.948 104.246 132.42C103.655 132.893 104.677 129.939 104.677 129.939Z" fill="black"/>
<path opacity="0.1" d="M104.38 134.193C105.149 134.271 109.2 133.562 109.16 134.193C109.121 134.823 104.38 134.193 104.38 134.193Z" fill="black"/>
<path opacity="0.1" d="M122.962 131.75C122.962 131.75 121.58 131.538 121.917 132.471L122.962 131.75Z" fill="black"/>
<path opacity="0.1" d="M97.2851 53.141H96.538L95.3977 57.3156C95.3977 57.3156 95.0045 58.7728 94.6113 59.1273C94.2181 59.4817 94.9652 62.7112 94.9652 62.7112C94.9652 62.7112 94.5327 64.9954 94.1788 65.5862C93.8249 66.1769 94.7293 67.6341 94.7293 67.6341L96.538 71.8876L101.335 73.1478C101.335 73.1478 109.789 74.9989 110.182 75.2746C110.575 75.5502 110.929 75.1564 111.205 72.5965C111.48 70.0365 112.227 65.0742 112.817 64.8379C112.817 64.8379 108.098 65.3499 107.705 65.2711C107.312 65.1924 105.424 65.3105 105.424 65.3105C105.424 65.3105 102.947 65.153 102.554 65.3893C102.161 65.6256 103.065 64.2454 103.065 64.2454C103.231 63.6134 103.231 62.9493 103.065 62.3174C102.79 61.254 102.633 49.2026 97.2851 53.141Z" fill="black"/>
<path opacity="0.1" d="M112.66 65.3106C112.07 65.5469 111.323 70.5092 111.048 73.0691C110.772 75.6291 110.419 76.0229 110.025 75.7472C109.706 75.5235 104.071 74.2601 101.965 73.7938C102.296 71.8325 102.476 69.6427 102.476 69.6427L96.499 53.6136H97.1282C102.476 49.6753 102.633 61.7266 102.908 62.79C103.074 63.422 103.074 64.0862 102.908 64.7182C102.908 64.7182 102.004 66.0982 102.397 65.8619C102.79 65.6256 105.268 65.7832 105.268 65.7832C105.268 65.7832 107.155 65.665 107.548 65.7438C107.941 65.8225 112.66 65.3106 112.66 65.3106Z" fill="black"/>
<path d="M97.1281 53.2987H96.3811L95.2408 57.4733C95.2408 57.4733 94.8476 58.9305 94.4543 59.285C94.0611 59.6394 94.8082 62.8689 94.8082 62.8689C94.8082 62.8689 94.3757 65.1532 94.0218 65.7439C93.6679 66.3347 94.5723 67.7918 94.5723 67.7918L96.3811 72.0453L101.178 73.3055C101.178 73.3055 109.632 75.1566 110.025 75.4323C110.418 75.708 110.772 75.3141 111.048 72.7542C111.323 70.1943 112.07 65.2319 112.66 64.9956C112.66 64.9956 107.941 65.5076 107.548 65.4289C107.155 65.3501 105.268 65.4682 105.268 65.4682C105.268 65.4682 102.79 65.3107 102.397 65.547C102.004 65.7833 102.908 64.4031 102.908 64.4031C103.074 63.7711 103.074 63.1071 102.908 62.4751C102.633 61.4117 102.476 49.3603 97.1281 53.2987Z" fill="#1B3A6C"/>
<path opacity="0.1" d="M99.6842 67.5552C99.6842 67.5552 97.5216 71.6511 97.1284 71.1785C96.7352 70.7059 99.6842 67.5552 99.6842 67.5552Z" fill="black"/>
<path opacity="0.1" d="M97.4428 65.2231C97.4428 65.2231 95.4375 66.886 96.3812 67.3192C97.3249 67.7524 97.4428 65.2231 97.4428 65.2231Z" fill="black"/>
<path opacity="0.1" d="M99.3301 63.1836C99.4874 63.223 102.24 63.7705 102.279 64.0087C102.318 64.247 99.3301 63.1836 99.3301 63.1836Z" fill="black"/>
<path opacity="0.1" d="M118.099 33.1219L118.036 33.7852C118.036 33.7852 111.436 25.4075 106.303 34.8674C106.303 34.8674 106.277 34.7524 106.235 34.5587C106.336 34.4367 106.426 34.3065 106.505 34.1695C106.6 33.9191 106.464 33.6276 106.494 33.3567C106.543 32.8935 107.032 32.6493 107.116 32.1941C107.15 32.016 107.114 31.8254 107.147 31.6458C107.152 31.6223 107.158 31.5991 107.166 31.5765L106.878 31.775C107.201 31.3985 107.363 30.8755 107.599 30.4187C107.861 29.9184 108.221 29.4767 108.659 29.1201C109.096 28.7635 109.601 28.4994 110.143 28.3439C111.169 28.0446 112.252 28.1265 113.287 28.3802C114.272 28.6257 115.214 29.0148 116.085 29.5349C116.397 29.702 116.673 29.9271 116.9 30.1981C117.09 30.479 117.252 30.7782 117.383 31.0913C117.688 31.7246 118.522 32.3106 117.858 32.3988C117.306 32.4729 117.809 32.8604 118.099 33.1219Z" fill="black"/>
<g opacity="0.1">
<path d="M117.747 32.5159C117.795 32.4968 117.845 32.4842 117.896 32.4784C118.188 32.4395 118.189 32.3037 118.074 32.1099C118.018 32.1396 117.958 32.1578 117.896 32.1633C117.58 32.2057 117.61 32.3507 117.747 32.5159Z" fill="black"/>
<path d="M118.35 33.8354C118.372 33.7338 118.371 33.6287 118.348 33.5273C118.334 33.5901 118.307 33.6493 118.268 33.7008C118.219 33.7633 118.28 33.8038 118.35 33.8354Z" fill="black"/>
<path d="M106.541 33.3813C106.538 33.3994 106.534 33.4171 106.532 33.4358C106.526 33.5777 106.536 33.7198 106.563 33.8593C106.581 33.6999 106.574 33.5385 106.541 33.3813Z" fill="black"/>
<path d="M107.179 31.4595C107.105 31.5999 107.017 31.7323 106.916 31.8543L107.169 31.6793C107.168 31.6059 107.171 31.5325 107.179 31.4595Z" fill="black"/>
</g>
<path opacity="0.1" d="M117.457 24.1152C117.457 24.1152 115.924 24.5288 116.238 25.0211L117.457 24.1152Z" fill="black"/>
<path opacity="0.1" d="M118.912 26.6553C118.912 26.6553 117.536 27.3248 117.791 27.6792L118.912 26.6553Z" fill="black"/>
<path opacity="0.1" d="M105.655 29.7787C105.655 29.7787 114.445 26.2025 118.252 31.3421C118.252 31.3421 113.632 27.4078 105.655 29.7787Z" fill="black"/>
<path d="M113.165 27.3135C112.981 27.4212 112.734 27.2582 112.675 27.0528C112.615 26.8474 112.684 26.6293 112.753 26.4267L113.096 25.4072C113.34 24.6841 113.599 23.9357 114.127 23.3853C114.923 22.5546 116.155 23.2095 117.295 23.3626C118.759 23.5592 118.437 24.4832 119.117 25.7961C119.798 27.1089 117.194 31.0683 118.105 33.1974C119.858 35.2097 119.421 36.2389 119.725 37.7597C119.421 40.3958 119.347 40.8123 117.453 42.6923C117.03 42.4356 116.646 41.2324 116.878 40.7952C117.111 40.3581 116.778 39.8517 117.066 39.4491C117.354 39.0465 117.595 39.6876 117.303 39.2873C117.12 39.0346 117.837 38.4535 117.564 38.3023C116.243 37.5709 115.803 35.9219 114.974 34.659C113.973 33.1358 112.261 32.1043 110.448 31.9332C109.45 31.8389 108.395 32.0096 107.577 32.5902C106.758 33.1707 106.229 34.2082 106.418 35.1945C105.927 34.6946 105.682 33.9622 105.775 33.2668C105.867 32.5714 106.294 31.9283 106.899 31.5744C106.531 30.3564 106.846 28.9554 107.7 28.013C108.553 27.0705 112.015 27.231 113.261 27.479" fill="#403E56"/>
<path d="M113.359 31.9702C115.009 32.1487 116.2 33.5805 117.207 34.9028C117.786 35.6649 118.394 36.5065 118.379 37.4647C118.365 38.4334 117.718 39.2643 117.409 40.1823C116.904 41.6829 117.396 43.4682 118.599 44.4964C117.41 44.7222 116.126 43.8299 115.921 42.6362C115.682 41.2465 116.734 39.9052 116.609 38.5007C116.5 37.2632 115.526 36.3108 114.698 35.3856C113.871 34.4604 113.093 33.2326 113.474 32.0503" fill="#403E56"/>
<path d="M110.388 30.9673C108.738 31.1457 107.546 32.5775 106.54 33.8998C105.96 34.662 105.353 35.5036 105.367 36.4618C105.382 37.4305 106.029 38.2613 106.338 39.1794C106.843 40.68 106.351 42.4653 105.148 43.4935C106.336 43.7193 107.621 42.827 107.826 41.6332C108.065 40.2436 107.013 38.9023 107.137 37.4977C107.247 36.2603 108.221 35.3079 109.049 34.3827C109.876 33.4574 110.654 32.2297 110.273 31.0474" fill="#403E56"/>
<path d="M98.7412 52.2799L107.432 58.9459L106.949 59.5771L98.2586 52.9111C98.1325 52.8143 98.1085 52.6332 98.2051 52.5068L98.3376 52.3335C98.4342 52.2072 98.615 52.1831 98.7412 52.2799Z" fill="#80B1FF"/>
<path d="M112.056 60.8483C110.732 61.0873 109.743 62.198 109.64 63.541C109.511 65.2226 109.165 66.7124 108.248 63.9626C107.239 60.9353 104.482 59.3838 105.487 58.0699C106.491 56.756 108.842 58.2623 111.886 59.2045C114.708 60.0777 113.542 60.58 112.056 60.8483Z" fill="#80B1FF"/>
<path d="M103.943 59.9711L123.179 59.9711L123.148 62.0289C123.121 65.8855 119.974 68.9951 116.123 68.9685L110.841 68.9321C106.991 68.9055 103.886 65.7527 103.913 61.896L103.943 59.9711Z" fill="white"/>
<path d="M106.302 34.7095C106.302 34.7095 105.353 30.4602 105.655 29.7787C105.655 29.7787 104.835 28.095 104.835 27.6941C104.795 27.0252 104.588 26.3771 104.231 25.81C103.8 25.1285 103.325 21.9616 105.914 21.1999C108.502 20.4382 110.486 19.7568 110.788 19.2356C111.09 18.7145 115.533 19.0352 116.741 21.0396C117.949 23.044 118.726 22.6431 118.726 22.6431C118.726 22.6431 120.581 23.8056 120.581 24.8479C120.581 25.8902 120.02 26.4113 120.581 26.6518C121.141 26.8924 120.71 31.2218 118.251 31.3421L118.409 33.603C118.409 33.603 111.435 25.2488 106.302 34.7095Z" fill="#1B3A6C"/>
<path opacity="0.1" d="M106.585 22.0278C106.585 22.0278 106.014 25.3754 107.056 26.4979L106.585 22.0278Z" fill="black"/>
<path opacity="0.1" d="M109.259 21.2598C109.259 21.2598 107.804 24.8437 108.158 25.5329L109.259 21.2598Z" fill="black"/>
<path opacity="0.1" d="M110.517 20.1177C110.517 20.1177 109.534 24.7846 110.006 25.1588L110.517 20.1177Z" fill="black"/>
<path opacity="0.1" d="M112.208 21.3779C112.208 21.3779 110.989 24.3711 111.48 24.7846L112.208 21.3779Z" fill="black"/>
<path opacity="0.1" d="M114.508 21.7324C114.508 21.7324 113.073 24.1742 113.368 24.6074L114.508 21.7324Z" fill="black"/>
<path opacity="0.1" d="M117.261 23.4639C117.261 23.4639 115.826 25.9057 116.12 26.3389L117.261 23.4639Z" fill="black"/>
<path opacity="0.1" d="M118.678 25.0859C118.678 25.0859 117.243 27.5277 117.538 27.9609L118.678 25.0859Z" fill="black"/>
<path opacity="0.1" d="M119.488 25.4922C119.488 25.4922 118.053 27.934 118.348 28.3672L119.488 25.4922Z" fill="black"/>
<defs>
<linearGradient id="paint0_linear_449_85" x1="67.5087" y1="147.329" x2="67.5087" y2="11.0063" gradientUnits="userSpaceOnUse">
<stop stop-color="#808080" stop-opacity="0.25"/>
<stop offset="0.53514" stop-color="#808080" stop-opacity="0.12"/>
<stop offset="1" stop-color="#808080" stop-opacity="0.1"/>
</linearGradient>
<linearGradient id="paint1_linear_449_85" x1="113.409" y1="147.329" x2="113.409" y2="18.4521" gradientUnits="userSpaceOnUse">
<stop stop-color="#808080" stop-opacity="0.25"/>
<stop offset="0.53514" stop-color="#808080" stop-opacity="0.12"/>
<stop offset="1" stop-color="#808080" stop-opacity="0.1"/>
</linearGradient>
</defs>
</svg>
