<svg width="206" height="114" viewBox="0 0 206 114" fill="none" xmlns="http://www.w3.org/2000/svg">
<path d="M165.167 46.0398C165.167 46.0398 163.588 45.3994 158.563 47.7027C153.539 50.0061 152.912 49.715 151.611 49.3687C150.311 49.0223 149.586 48.9328 148.192 47.0086C148.192 47.0086 147.208 41.678 146.251 40.851C145.294 40.024 141.255 41.3227 141.255 41.3227C141.255 41.3227 136.405 42.4348 135.481 35.9488C135.481 35.9488 136.136 31.0645 135.243 29.5658C135.243 29.5658 137.047 30.342 140.02 29.0881C142.994 27.8342 145.375 30.4391 145.375 30.4391C145.375 30.4391 146.121 32.3796 146.046 33.538C145.972 34.6964 146.444 35.1308 147.862 34.571C147.862 34.571 148.559 33.5798 147.572 31.9408C146.585 30.3017 145.881 29.0821 146.155 27.8103C146.43 26.5385 147.223 24.7726 149.768 23.8903C152.313 23.0081 155.769 22.8454 157.427 22.1483C159.086 21.4512 159.495 21.0063 159.495 21.0063C159.495 21.0063 158.474 22.0289 160.878 26.3653C163.283 30.7018 161.75 32.5827 161.75 32.5827C161.75 32.5827 160.471 35.6323 154.822 35.3845C154.822 35.3845 149.38 35.5831 152.347 37.8909C152.347 37.8909 154.248 37.5043 157.088 36.6011C159.929 35.698 161.98 39.4254 162.489 42.0183C162.998 44.6113 165.167 46.0398 165.167 46.0398Z" fill="#1B3A6C"/>
<path d="M157.851 24.2902L157.881 24.2812C158.099 25.1082 155.668 28.4341 153.588 31.0778L153.564 31.0583C156.496 27.3354 158.02 24.9306 157.851 24.2902Z" fill="white"/>
<path d="M153.606 31.0078L153.619 31.0407C151.958 33.1514 149.87 35.6682 148.198 37.5386C148.038 37.7162 147.88 37.9028 147.727 38.0939L147.68 38.0551C147.829 37.864 147.992 37.6759 148.151 37.4983C149.822 35.6353 151.943 33.1201 153.606 31.0078Z" fill="white"/>
<path d="M147.72 38.0073L147.753 38.064C144.71 41.8631 144.509 47.7669 144.502 47.8132L143.86 47.0668C143.867 47.0191 144.657 41.8333 147.72 38.0073Z" fill="white"/>
<path d="M161.646 43.9795C161.646 43.9795 158.063 42.1135 155.263 42.7853C152.462 43.457 146.164 40.4118 146.164 40.4118C146.164 40.4118 143.492 39.3265 142.955 38.0891C142.955 38.0891 141.12 36.1485 141.014 35.1468C140.908 34.1452 139.125 31.621 137.96 31.5239" stroke="white" stroke-width="0.149275" stroke-miterlimit="10"/>
<path d="M161.119 45.7759C161.119 45.7759 159.313 44.5578 159.523 43.1396" stroke="white" stroke-width="0.149275" stroke-miterlimit="10"/>
<path d="M158.348 47.3475C158.348 47.3475 155.764 46.4101 155.512 42.7319" stroke="white" stroke-width="0.149275" stroke-miterlimit="10"/>
<path d="M154.182 48.3C154.182 48.3 151.713 46.252 152.533 42.6724" stroke="white" stroke-width="0.149275" stroke-miterlimit="10"/>
<path d="M149.168 47.2998C149.168 47.2998 147.526 43.8515 148.987 41.6079" stroke="white" stroke-width="0.149275" stroke-miterlimit="10"/>
<path d="M161.68 41.7065C161.68 41.7065 159.813 42.3036 160.213 43.2829" stroke="white" stroke-width="0.149275" stroke-miterlimit="10"/>
<path d="M159.426 38.3223C159.426 38.3223 156.926 39.1149 156.868 42.6513" stroke="white" stroke-width="0.149275" stroke-miterlimit="10"/>
<path d="M155.939 37.4985C155.939 37.4985 153.663 40.3079 153.83 42.8605" stroke="white" stroke-width="0.149275" stroke-miterlimit="10"/>
<path d="M151.953 38.6001C151.953 38.6001 149.693 40.7616 149.981 41.9633" stroke="white" stroke-width="0.149275" stroke-miterlimit="10"/>
<path d="M150.59 37.837C150.59 37.837 148.471 38.2161 148.174 37.5205" stroke="white" stroke-width="0.149275" stroke-miterlimit="10"/>
<path d="M147.836 35.2788C147.836 35.2788 148.906 36.6969 149.18 36.379" stroke="white" stroke-width="0.149275" stroke-miterlimit="10"/>
<path d="M158.453 34.3818C158.453 34.3818 153.109 34.7699 151.9 33.1577" stroke="white" stroke-width="0.149275" stroke-miterlimit="10"/>
<path d="M146.718 28.1313C146.718 28.1313 149.225 33.5127 151.047 34.1979" stroke="white" stroke-width="0.149275" stroke-miterlimit="10"/>
<path d="M149.342 25.5684C149.342 25.5684 150.881 30.5183 152.789 32.0633" stroke="white" stroke-width="0.149275" stroke-miterlimit="10"/>
<path d="M160.701 30.2953C160.701 30.2953 156.638 32.0388 154.198 30.2744" stroke="white" stroke-width="0.111956" stroke-miterlimit="10"/>
<path d="M152.961 24.5127C152.961 24.5127 153.889 28.1505 155.14 29.0298" stroke="white" stroke-width="0.111956" stroke-miterlimit="10"/>
<path d="M160.088 26.2192C160.088 26.2192 157.804 27.085 156.953 26.4223" stroke="white" stroke-width="0.111956" stroke-miterlimit="10"/>
<path d="M145.879 36.4668C145.879 36.4668 145.879 39.6389 145.016 39.8643" stroke="white" stroke-width="0.149275" stroke-miterlimit="10"/>
<path d="M138.82 40.5769C138.82 40.5769 142.253 40.8755 143.831 39.1006" stroke="white" stroke-width="0.149275" stroke-miterlimit="10"/>
<path d="M144.996 32.7197C144.996 32.7197 144.166 35.9366 141.876 36.8039" stroke="white" stroke-width="0.149275" stroke-miterlimit="10"/>
<path d="M136.763 37.188C136.763 37.188 139.19 38.0314 141.279 35.8833" stroke="white" stroke-width="0.149275" stroke-miterlimit="10"/>
<path d="M142.295 29.9536C142.295 29.9536 142.067 32.6854 140.581 33.9646" stroke="white" stroke-width="0.149275" stroke-miterlimit="10"/>
<path d="M136.856 33.0247C136.856 33.0247 138.869 33.0382 139.341 32.3813" stroke="white" stroke-width="0.149275" stroke-miterlimit="10"/>
<path d="M151.664 27.4254C151.664 28.6621 150.661 29.6646 149.425 29.6646H102.851C101.614 29.6646 100.612 28.6621 100.612 27.4254V2.49646C100.612 1.25982 101.614 0.257324 102.851 0.257324H149.425C150.661 0.257324 151.664 1.25982 151.664 2.49645V27.4254Z" fill="white"/>
<path d="M151.664 29.6646H100.612V0.257324H151.664V29.6646ZM100.845 29.4499H151.431V0.471976H100.845V29.4499Z" fill="#3F3D56"/>
<path d="M146.68 25.305H105.537C105.503 25.305 105.47 25.2914 105.446 25.2673C105.422 25.2431 105.408 25.2104 105.408 25.1762V5.4564C105.408 5.42225 105.422 5.3895 105.446 5.36535C105.47 5.3412 105.503 5.32764 105.537 5.32764C105.571 5.32764 105.604 5.3412 105.628 5.36535C105.652 5.3895 105.666 5.42225 105.666 5.4564V25.0475H146.68C146.697 25.0474 146.714 25.0507 146.73 25.0572C146.745 25.0636 146.76 25.0731 146.772 25.085C146.784 25.097 146.793 25.1112 146.8 25.1269C146.806 25.1425 146.809 25.1593 146.809 25.1762C146.809 25.1932 146.806 25.21 146.8 25.2256C146.793 25.2413 146.784 25.2555 146.772 25.2674C146.76 25.2794 146.745 25.2889 146.73 25.2953C146.714 25.3018 146.697 25.3051 146.68 25.305Z" fill="#3F3D56"/>
<path d="M114.327 23.8887H110.585C110.484 23.8886 110.387 23.8483 110.315 23.7767C110.244 23.705 110.203 23.6079 110.203 23.5065V18.348C110.203 18.2467 110.244 18.1495 110.315 18.0779C110.387 18.0062 110.484 17.9659 110.585 17.9658H114.327C114.429 17.9659 114.526 18.0062 114.598 18.0779C114.669 18.1495 114.71 18.2467 114.71 18.348V23.5065C114.71 23.6079 114.669 23.705 114.598 23.7767C114.526 23.8483 114.429 23.8886 114.327 23.8887Z" fill="#1B3A6C"/>
<path d="M121.152 23.889H117.41C117.308 23.8889 117.211 23.8486 117.14 23.7769C117.068 23.7053 117.028 23.6081 117.028 23.5068V13.4554C117.028 13.3541 117.068 13.257 117.14 13.1853C117.211 13.1137 117.308 13.0734 117.41 13.0732H121.152C121.253 13.0734 121.35 13.1137 121.422 13.1853C121.494 13.257 121.534 13.3541 121.534 13.4554V23.5068C121.534 23.6081 121.494 23.7053 121.422 23.7769C121.35 23.8486 121.253 23.8889 121.152 23.889Z" fill="#1B3A6C"/>
<path d="M127.976 23.8887H124.234C124.133 23.8886 124.036 23.8483 123.964 23.7767C123.892 23.705 123.852 23.6079 123.852 23.5065V18.348C123.852 18.2467 123.892 18.1495 123.964 18.0779C124.036 18.0062 124.133 17.9659 124.234 17.9658H127.976C128.077 17.9659 128.175 18.0062 128.246 18.0779C128.318 18.1495 128.358 18.2467 128.358 18.348V23.5065C128.358 23.6079 128.318 23.705 128.246 23.7767C128.175 23.8483 128.077 23.8886 127.976 23.8887Z" fill="#1B3A6C"/>
<path d="M134.8 23.8888H131.058C130.959 23.8909 130.863 23.8537 130.792 23.7853C130.72 23.717 130.678 23.623 130.676 23.5239V11.5066C130.678 11.4075 130.72 11.3135 130.792 11.2452C130.863 11.1768 130.959 11.1396 131.058 11.1417H134.8C134.899 11.1396 134.995 11.1768 135.067 11.2452C135.139 11.3135 135.18 11.4075 135.183 11.5066V23.5239C135.18 23.623 135.139 23.717 135.067 23.7853C134.995 23.8537 134.899 23.8909 134.8 23.8888Z" fill="#1B3A6C"/>
<path d="M141.625 23.8887H137.882C137.781 23.8885 137.684 23.8482 137.612 23.7766C137.541 23.7049 137.5 23.6078 137.5 23.5065V8.04723C137.5 7.9459 137.541 7.84875 137.612 7.7771C137.684 7.70545 137.781 7.66515 137.882 7.66504H141.625C141.726 7.66515 141.823 7.70545 141.895 7.7771C141.966 7.84875 142.007 7.9459 142.007 8.04723V23.5065C142.007 23.6078 141.966 23.7049 141.895 23.7766C141.823 23.8482 141.726 23.8885 141.625 23.8887Z" fill="#1B3A6C"/>
<path d="M112.457 16.4206C112.884 16.4206 113.229 16.0747 113.229 15.648C113.229 15.2214 112.884 14.8755 112.457 14.8755C112.03 14.8755 111.684 15.2214 111.684 15.648C111.684 16.0747 112.03 16.4206 112.457 16.4206Z" fill="#3F3D56"/>
<path d="M119.281 11.3991C119.708 11.3991 120.054 11.0532 120.054 10.6266C120.054 10.1999 119.708 9.854 119.281 9.854C118.854 9.854 118.509 10.1999 118.509 10.6266C118.509 11.0532 118.854 11.3991 119.281 11.3991Z" fill="#3F3D56"/>
<path d="M126.105 16.4206C126.531 16.4206 126.877 16.0747 126.877 15.648C126.877 15.2214 126.531 14.8755 126.105 14.8755C125.678 14.8755 125.332 15.2214 125.332 15.648C125.332 16.0747 125.678 16.4206 126.105 16.4206Z" fill="#3F3D56"/>
<path d="M132.929 8.95282C133.356 8.95282 133.702 8.60694 133.702 8.18027C133.702 7.7536 133.356 7.40771 132.929 7.40771C132.503 7.40771 132.157 7.7536 132.157 8.18027C132.157 8.60694 132.503 8.95282 132.929 8.95282Z" fill="#3F3D56"/>
<path d="M139.754 6.1203C140.18 6.1203 140.526 5.77442 140.526 5.34775C140.526 4.92108 140.18 4.5752 139.754 4.5752C139.327 4.5752 138.981 4.92108 138.981 5.34775C138.981 5.77442 139.327 6.1203 139.754 6.1203Z" fill="#3F3D56"/>
<path d="M126.121 15.8217L119.281 10.6981L112.534 15.7517L112.379 15.5455L119.281 10.3763L126.089 15.4755L132.854 8.07222L132.881 8.06117L139.705 5.31152L139.802 5.55051L133.004 8.28912L126.121 15.8217Z" fill="#3F3D56"/>
<path d="M63.1094 12.8428C66.5963 11.3661 70.9672 11.5285 73.82 14.0186C69.7642 14.7314 66.0914 16.8559 63.4513 20.0161C62.4375 21.2386 61.4372 22.7038 59.8783 23.007C58.9083 23.1956 57.8949 22.8709 57.0669 22.3317C56.2388 21.7925 55.5647 21.0524 54.9005 20.3208L54.6692 20.2349C56.8988 17.1742 59.6225 14.3196 63.1094 12.8428Z" fill="#1B3A6C"/>
<path d="M73.4849 14.0178C70.4684 13.3802 67.3316 13.7284 64.5201 15.013C63.9101 15.2785 63.3448 15.6405 62.8453 16.0856C62.3724 16.5353 62.0262 17.1059 61.8426 17.7382C61.6598 18.3243 61.5393 18.9453 61.22 19.4759C61.0527 19.7449 60.8314 19.9749 60.5708 20.1506C60.3102 20.3264 60.0161 20.4439 59.7078 20.4956C58.943 20.6447 58.1712 20.5046 57.4212 20.3409C56.5884 20.159 55.7263 19.9567 54.8798 20.17C54.7772 20.1958 54.7439 20.0319 54.8463 20.0061C56.319 19.6351 57.7435 20.4614 59.2171 20.3868C59.9048 20.352 60.5863 20.1056 60.9981 19.515C61.3582 18.9985 61.483 18.3582 61.663 17.7631C61.8333 17.1436 62.1496 16.576 62.5845 16.11C63.0602 15.6404 63.6108 15.2568 64.2127 14.9756C65.5579 14.3205 66.9956 13.8852 68.4733 13.6858C70.1586 13.4486 71.8712 13.5072 73.5371 13.8591C73.6402 13.881 73.5873 14.0395 73.4849 14.0178Z" fill="white"/>
<path d="M65.5524 14.6115C65.4026 14.1024 65.4387 13.5566 65.6541 13.0716C65.8696 12.5866 66.2504 12.194 66.7286 11.9639C66.8255 11.9177 66.9019 12.0661 66.8049 12.1124C66.3592 12.3258 66.0045 12.6916 65.8048 13.1436C65.605 13.5956 65.5735 14.1042 65.7158 14.5774C65.7466 14.6803 65.583 14.7138 65.5524 14.6115Z" fill="white"/>
<path d="M61.9864 17.4876C62.9342 18.0155 64.0461 18.1668 65.1004 17.9113C65.2048 17.8859 65.2388 18.0493 65.1344 18.0746C64.0368 18.3385 62.88 18.1787 61.895 17.6272C61.8011 17.5746 61.8931 17.4353 61.9864 17.4876Z" fill="white"/>
<path d="M70.3027 13.749C70.3174 13.9272 70.3771 14.0991 70.4763 14.2492C70.5756 14.3993 70.7113 14.5229 70.8713 14.6088C70.9535 14.6527 70.8734 14.7714 70.7917 14.7279C70.6154 14.6321 70.4657 14.4954 70.3556 14.3298C70.2456 14.1643 70.1786 13.9748 70.1605 13.778C70.1573 13.7596 70.1612 13.7406 70.1717 13.725C70.1821 13.7094 70.1983 13.6982 70.2168 13.6938C70.2357 13.6901 70.2552 13.6938 70.2713 13.7041C70.2874 13.7144 70.2987 13.7305 70.3027 13.749Z" fill="white"/>
<path d="M73.4791 26.8351C73.4192 26.8046 73.3593 26.7742 73.2981 26.7444C72.4907 26.3395 71.6516 26.0009 70.7893 25.7319C70.723 25.7101 70.6554 25.6889 70.5886 25.669C68.5042 25.0431 66.3216 24.8096 64.152 24.9804C63.2887 25.0491 62.4319 25.1835 61.5889 25.3822C60.4249 25.6568 59.1845 26.0471 58.0317 25.9246C57.9113 25.9132 57.7917 25.8943 57.6736 25.8681L54.5828 20.5238C54.5819 20.5081 54.5797 20.4931 54.5787 20.4774L54.4456 20.2697C54.4883 20.2564 54.5329 20.2435 54.5757 20.2302C54.6005 20.2224 54.6259 20.2158 54.6507 20.208C54.6674 20.2032 54.6842 20.1984 54.699 20.1931C54.7046 20.1914 54.7102 20.1899 54.7145 20.1889C54.7294 20.1836 54.7437 20.1803 54.7573 20.1756C55.0066 20.1031 55.2568 20.0321 55.508 19.9628C55.5092 19.9621 55.5092 19.9621 55.5111 19.9626C57.4199 19.416 59.3868 19.0978 61.3705 19.0146C61.4298 19.0129 61.4902 19.0104 61.5508 19.0112C62.4384 18.9906 63.3261 19.0427 64.2052 19.1667C64.6863 19.2362 65.1636 19.33 65.6352 19.4478C66.8533 19.7544 68.0156 20.2506 69.0794 20.9184C71.2 22.2499 72.8711 24.2448 73.4376 26.6508C73.4521 26.7124 73.4659 26.7728 73.4791 26.8351Z" fill="#1B3A6C"/>
<path d="M73.1387 26.6494C71.0933 24.3881 68.3657 22.8097 65.3432 22.1384C64.6952 21.9826 64.0259 21.927 63.3601 21.9735C62.7129 22.0392 62.0957 22.2718 61.5726 22.6472C61.0775 22.9878 60.6118 23.3917 60.04 23.6095C59.7457 23.7168 59.4313 23.7625 59.1175 23.7436C58.8036 23.7247 58.4975 23.6417 58.219 23.4999C57.5158 23.1641 56.9788 22.6032 56.4733 22.0369C55.9121 21.4082 55.3394 20.7465 54.5325 20.4117C54.4347 20.3712 54.5053 20.2263 54.6029 20.2668C56.0068 20.8492 56.6608 22.3186 57.8893 23.1282C58.4626 23.5059 59.1566 23.7183 59.8385 23.509C60.4347 23.3259 60.9153 22.9097 61.4135 22.5607C61.9183 22.1872 62.5097 21.9393 63.136 21.8388C63.7973 21.7595 64.4676 21.79 65.1184 21.929C66.5885 22.2192 68.0025 22.732 69.3085 23.4485C70.8038 24.2581 72.1452 25.3101 73.2749 26.5587C73.3448 26.636 73.2082 26.7262 73.1387 26.6494Z" fill="white"/>
<path d="M66.5212 22.3302C66.7081 21.8335 67.0655 21.4194 67.5295 21.1619C67.9936 20.9044 68.534 20.8202 69.0544 20.9244C69.1596 20.9458 69.1312 21.1104 69.0259 21.0889C68.5415 20.991 68.038 21.0695 67.6064 21.3101C67.1748 21.5508 66.8435 21.9378 66.6722 22.4014C66.6348 22.5021 66.4841 22.4303 66.5212 22.3302Z" fill="white"/>
<path d="M61.9424 22.4799C62.3813 23.472 63.178 24.2622 64.1736 24.693C64.2723 24.7356 64.201 24.8865 64.1024 24.8439C63.0672 24.3937 62.2397 23.5697 61.7853 22.5363C61.742 22.4378 61.8993 22.3819 61.9424 22.4799Z" fill="white"/>
<path d="M70.8964 24.5391C70.7614 24.6876 70.6814 24.8572 70.6635 25.0326C70.6456 25.2081 70.6904 25.3839 70.794 25.5443C70.8474 25.6264 70.6583 25.6732 70.6052 25.5916C70.4921 25.414 70.4429 25.2198 70.462 25.0259C70.4812 24.832 70.5681 24.6444 70.7151 24.4793C70.7271 24.463 70.7475 24.4504 70.7723 24.4442C70.7971 24.438 70.8243 24.4386 70.8485 24.4459C70.8725 24.4539 70.8909 24.4682 70.8999 24.4856C70.9089 24.503 70.9076 24.5223 70.8964 24.5391Z" fill="white"/>
<path d="M138.167 113.079H56.4045V31.3169H138.167V113.079Z" fill="white"/>
<path d="M138.167 113.079H56.4045V31.3169H138.167V113.079ZM57.6126 111.871H136.959V32.5249H57.6126V111.871Z" fill="#1B3A6C"/>
<path d="M125.699 66.4648H73.2627V68.3159H125.699V66.4648Z" fill="#1B3A6C"/>
<path d="M125.699 71.2783H73.2627V73.1294H125.699V71.2783Z" fill="#1B3A6C"/>
<path d="M125.699 76.0908H73.2627V77.9419H125.699V76.0908Z" fill="#1B3A6C"/>
<path d="M70.0799 68.8697C70.747 68.8697 71.2879 68.3288 71.2879 67.6616C71.2879 66.9945 70.747 66.4536 70.0799 66.4536C69.4127 66.4536 68.8718 66.9945 68.8718 67.6616C68.8718 68.3288 69.4127 68.8697 70.0799 68.8697Z" fill="#1B3A6C"/>
<path d="M125.699 87.4043H73.2627V89.2553H125.699V87.4043Z" fill="#C3DAFF"/>
<path d="M125.699 92.2173H73.2627V94.0683H125.699V92.2173Z" fill="#C3DAFF"/>
<path d="M125.699 97.0303H73.2627V98.8813H125.699V97.0303Z" fill="#C3DAFF"/>
<path d="M70.0799 89.6075C70.747 89.6075 71.2879 89.0666 71.2879 88.3994C71.2879 87.7323 70.747 87.1914 70.0799 87.1914C69.4127 87.1914 68.8718 87.7323 68.8718 88.3994C68.8718 89.0666 69.4127 89.6075 70.0799 89.6075Z" fill="#C3DAFF"/>
<path d="M182.057 80.7803H134.483C133.77 80.7785 133.193 79.597 133.192 78.1382V42.7461C133.192 41.2876 133.77 40.1064 134.483 40.104H182.057C182.769 40.1058 183.347 41.2873 183.348 42.7461V78.1379C183.347 79.5964 182.768 80.7785 182.057 80.7803Z" fill="white"/>
<path d="M182.057 80.7803H134.483C133.77 80.7785 133.193 79.597 133.192 78.1382V42.7461C133.192 41.2876 133.77 40.1064 134.483 40.104H182.057C182.769 40.1058 183.347 41.2873 183.348 42.7461V78.1379C183.347 79.5964 182.768 80.7785 182.057 80.7803ZM134.483 41.1608C134.055 41.1608 133.709 41.871 133.708 42.7461V78.1379C133.708 79.0129 134.055 79.7223 134.483 79.7232H182.057C182.485 79.7232 182.831 79.0132 182.832 78.1379V42.7461C182.832 41.8711 182.485 41.1617 182.057 41.1608L134.483 41.1608Z" fill="#80AAF1"/>
<path d="M164.711 68.9614H151.906V69.9239H164.711V68.9614Z" fill="#1B3A6C"/>
<path d="M166.308 71.4629H150.192V72.4254H166.308V71.4629Z" fill="#1B3A6C"/>
<path d="M166.631 56.8204C166.631 58.267 166.255 59.6887 165.541 60.9467C164.827 62.2047 163.799 63.256 162.557 63.9979C161.315 64.7398 159.902 65.147 158.456 65.1796C157.009 65.2122 155.579 64.8692 154.305 64.184L154.304 64.1824C153.002 63.4813 151.91 62.4478 151.138 61.187C150.366 59.9263 149.942 58.4835 149.91 57.0057C149.877 55.5278 150.237 54.0677 150.952 52.7741C151.668 51.4805 152.713 50.3997 153.982 49.6417C155.251 48.8838 156.699 48.4759 158.177 48.4595C159.655 48.4431 161.111 48.8189 162.397 49.5485C163.682 50.2781 164.752 51.3355 165.496 52.6129C166.239 53.8903 166.631 55.3421 166.631 56.8204Z" fill="#1B3A6C"/>
<path d="M158.313 56.4146C159.568 56.4146 160.586 55.397 160.586 54.1416C160.586 52.8863 159.568 51.8687 158.313 51.8687C157.057 51.8687 156.04 52.8863 156.04 54.1416C156.04 55.397 157.057 56.4146 158.313 56.4146Z" fill="white"/>
<path d="M163.755 62.0961C160.226 63.2509 156.379 63.237 152.86 62.0568L152.858 62.0553L155.209 57.7275H161.522L163.755 62.0961Z" fill="white"/>
<path d="M124.753 93.4353H160.449V77.7837H159.9V92.8859H124.753V93.4353Z" fill="#3F3D56"/>
<path d="M160.175 83.3402C161.843 83.3402 163.195 81.9879 163.195 80.3198C163.195 78.6516 161.843 77.2993 160.175 77.2993C158.507 77.2993 157.154 78.6516 157.154 80.3198C157.154 81.9879 158.507 83.3402 160.175 83.3402Z" fill="#3F3D56"/>
<path d="M58.7476 59.105H11.1741C10.4614 59.1032 9.88372 57.9217 9.88281 56.463V21.0708C9.88281 19.6123 10.4614 18.4311 11.1741 18.4287H58.7476C59.4603 18.4305 60.038 19.612 60.0389 21.0708V56.4626C60.038 57.9211 59.4594 59.1032 58.7476 59.105Z" fill="white"/>
<path d="M58.7476 59.105H11.1741C10.4614 59.1032 9.88372 57.9217 9.88281 56.463V21.0708C9.88281 19.6123 10.4614 18.4311 11.1741 18.4287H58.7476C59.4603 18.4305 60.038 19.612 60.0389 21.0708V56.4626C60.038 57.9211 59.4594 59.1032 58.7476 59.105ZM11.1741 19.4855C10.7463 19.4855 10.3998 20.1957 10.3992 21.0708V56.4626C10.3992 57.3377 10.7463 58.047 11.1741 58.0479H58.7476C59.1754 58.0479 59.5219 57.3379 59.5225 56.4626V21.0708C59.5225 20.1958 59.1754 19.4864 58.7476 19.4855L11.1741 19.4855Z" fill="#4578C9"/>
<path d="M45.5224 29.4849C43.4055 27.2373 40.4912 25.9099 37.406 25.7881V37.6013L45.5224 29.4849Z" fill="#3F3D56"/>
<path d="M45.5224 30.9565L37.406 39.073H48.7489C48.7529 36.0541 47.598 33.1488 45.5224 30.9565Z" fill="#E4E4E4"/>
<path d="M48.7611 39.9214C48.7615 40.6577 48.6934 41.3924 48.5576 42.1161C48.547 42.1734 48.5359 42.2301 48.5242 42.2868C48.2681 43.5492 47.8058 44.7607 47.1558 45.8727C47.1213 45.9324 47.0856 45.992 47.05 46.0505V46.0511C46.4094 47.1051 45.6084 48.0527 44.6758 48.8598C44.6296 48.9001 44.5834 48.9399 44.5366 48.9791C42.5324 50.6653 40.0231 51.6349 37.4058 51.7346V39.9214H48.7611Z" fill="#C3DAFF"/>
<path d="M36.2583 51.7447C36.4153 51.7447 36.5714 51.7407 36.7269 51.7346V39.9209L28.1355 48.5123C30.3284 50.5915 33.2364 51.7487 36.2583 51.7447Z" fill="#CACACA"/>
<path d="M36.2745 27.2485C34.7217 27.2485 33.1842 27.5544 31.7497 28.1486C30.3152 28.7428 29.0117 29.6137 27.9138 30.7116C26.8158 31.8096 25.9449 33.113 25.3507 34.5475C24.7565 35.9821 24.4507 37.5196 24.4507 39.0723H36.7553V27.2591C36.5958 27.2527 36.4356 27.2485 36.2745 27.2485Z" fill="#1B3A6C"/>
<path d="M33.4539 39.9214L30.968 42.4073L30.8867 42.4886L30.8849 42.4903L28.7171 44.6575L28.6347 44.74L26.2926 47.082L26.2101 47.1645V47.1651L24.8622 48.5124C23.6918 47.4087 22.7597 46.0771 22.1232 44.5997C21.4867 43.1222 21.1593 41.5301 21.1611 39.9214H33.4539Z" fill="#6C63FF"/>
<path d="M73.3992 72.2419H37.7034V56.5903H38.2525V71.6926H73.3992V72.2419Z" fill="#3F3D56"/>
<path d="M37.978 62.1463C39.6461 62.1463 40.9984 60.794 40.9984 59.1259C40.9984 57.4578 39.6461 56.1055 37.978 56.1055C36.3098 56.1055 34.9575 57.4578 34.9575 59.1259C34.9575 60.794 36.3098 62.1463 37.978 62.1463Z" fill="#3F3D56"/>
<path d="M12.3897 74.9112C12.5857 74.7934 12.7534 74.6341 12.8811 74.4445C13.0088 74.2549 13.0934 74.0396 13.1289 73.8138C13.1644 73.588 13.15 73.3571 13.0866 73.1375C13.0232 72.9179 12.9125 72.7148 12.7621 72.5426L14.7941 52.1519L11.4011 52.377L10.4611 72.4557C10.1886 72.7274 10.0252 73.0897 10.0019 73.4739C9.97862 73.858 10.0971 74.2374 10.3348 74.5401C10.5725 74.8427 10.913 75.0477 11.2917 75.1161C11.6705 75.1845 12.0612 75.1116 12.3897 74.9112Z" fill="#FFB8B8"/>
<path d="M10.0266 51.3966L10.9162 58.1575L10.7927 62.3011L14.5244 62.6428L15.2724 59.1965L15.6844 50.0726C15.7155 49.3845 15.4846 48.7101 15.0382 48.1855C14.5918 47.6608 13.9631 47.3248 13.2789 47.2453C12.569 47.1627 11.8551 47.3626 11.2913 47.8018C10.7275 48.241 10.3589 48.8843 10.2652 49.5928L10.0266 51.3966Z" fill="#2F2E41"/>
<path d="M24.3179 110.885H26.5815L27.6583 102.153H24.3174L24.3179 110.885Z" fill="#FFB7B7"/>
<path d="M23.7405 110.146L28.1985 110.146C28.952 110.146 29.6747 110.445 30.2075 110.978C30.7403 111.511 31.0396 112.233 31.0397 112.987V113.079L23.7406 113.08L23.7405 110.146Z" fill="#2F2E41"/>
<path d="M5.62622 110.885H7.88985L8.96664 102.153H5.62573L5.62622 110.885Z" fill="#FFB7B7"/>
<path d="M5.04858 110.146L9.50662 110.146C10.2601 110.146 10.9828 110.445 11.5156 110.978C12.0484 111.511 12.3477 112.233 12.3478 112.987V113.079L5.04872 113.08L5.04858 110.146Z" fill="#2F2E41"/>
<path d="M14.4287 44.0316C17.1392 44.0316 19.3365 41.8343 19.3365 39.1237C19.3365 36.4132 17.1392 34.2158 14.4287 34.2158C11.7181 34.2158 9.52075 36.4132 9.52075 39.1237C9.52075 41.8343 11.7181 44.0316 14.4287 44.0316Z" fill="#FFB8B8"/>
<path d="M15.0628 46.0244L11.6568 46.4137C10.8286 47.5882 10.2915 48.9429 10.09 50.366C9.88851 51.789 10.0283 53.2396 10.4979 54.5979L13.0678 62.0325C13.0678 62.0325 9.50027 69.1845 9.50027 75.8248C9.50027 82.465 2.70605 106.167 2.70605 106.167L12.2696 107.165L16.4425 81.9152L22.1929 107.063L28.7576 105.995L25.1419 73.0228L22.7527 62.1703L22.6509 56.8779C22.6509 56.8779 23.6668 52.9067 21.1242 50.3641L18.02 46.0386L15.0628 46.0244Z" fill="#2F2E41"/>
<path d="M39.0739 63.5076C39.0639 63.2574 38.9992 63.0123 38.8843 62.7898C38.7694 62.5672 38.6071 62.3726 38.4088 62.2195C38.2106 62.0665 37.9811 61.9588 37.7367 61.904C37.4923 61.8492 37.2389 61.8487 36.9943 61.9024L18.4733 49.2109L16.9026 52.5895L35.6989 64.0674C35.8165 64.4724 36.0785 64.8201 36.4353 65.0448C36.7921 65.2695 37.219 65.3555 37.635 65.2865C38.051 65.2176 38.4273 64.9984 38.6924 64.6705C38.9576 64.3426 39.0933 63.9289 39.0739 63.5076Z" fill="#FFB8B8"/>
<path d="M15.2366 53.3935L22.201 56.0996L26.1171 58.4006L28.4108 54.9951L25.4935 52.4614L16.9444 47.2603C16.2996 46.868 15.5301 46.7347 14.7909 46.8873C14.0517 47.0398 13.3978 47.4669 12.961 48.0824C12.5078 48.721 12.3239 49.5122 12.4489 50.2852C12.5739 51.0582 12.9979 51.7511 13.6292 52.2143L15.2366 53.3935Z" fill="#2F2E41"/>
<path d="M20.1497 37.3713H12.9377V34.2276C14.5207 33.5987 16.0697 33.0639 17.0061 34.2276C17.8398 34.2276 18.6394 34.5588 19.229 35.1484C19.8185 35.7379 20.1497 36.5375 20.1497 37.3713Z" fill="#2F2E41"/>
<path d="M14.2243 33.9131C9.91288 33.9322 8.70605 39.3174 8.70605 42.3662C8.70605 44.0665 9.475 44.6746 10.6833 44.8804L11.1101 42.6045L12.1095 44.9783C12.4489 44.98 12.8055 44.9734 13.1752 44.9666L13.5141 44.2688L14.2697 44.9541C17.2963 44.9586 21.6945 44.6883 19.7425 42.3662C17.1275 39.2554 17.9823 33.8965 14.2243 33.9131Z" fill="#2F2E41"/>
<path d="M181.117 110.426H178.381L177.079 99.8716L181.117 99.8718L181.117 110.426Z" fill="#A0616A"/>
<path d="M181.815 113.079L172.992 113.079V112.967C172.992 112.057 173.354 111.183 173.998 110.539C174.642 109.895 175.515 109.533 176.426 109.533L181.815 109.533L181.815 113.079Z" fill="#2F2E41"/>
<path d="M202.423 109.242L199.717 109.651L196.852 99.4102L200.399 98.8066L202.423 109.242Z" fill="#A0616A"/>
<path d="M203.509 111.76L194.785 113.079L194.769 112.969C194.632 112.068 194.86 111.15 195.4 110.417C195.941 109.684 196.75 109.196 197.651 109.06L202.979 108.254L203.509 111.76Z" fill="#2F2E41"/>
<path d="M193.986 58.1206L190.948 58.9166L191.15 63.8424L191.175 72.8107C190.876 73.0177 190.646 73.3107 190.517 73.651C190.388 73.9912 190.365 74.3627 190.451 74.7162C190.538 75.0697 190.73 75.3886 191.001 75.6308C191.273 75.8729 191.612 76.0268 191.973 76.0722C192.334 76.1176 192.701 76.0522 193.024 75.8849C193.347 75.7175 193.612 75.4559 193.783 75.1348C193.954 74.8137 194.024 74.4482 193.983 74.0865C193.942 73.7249 193.792 73.3842 193.554 73.1096L194.487 64.1084L193.986 58.1206Z" fill="#A0616A"/>
<path d="M194.836 61.0829L190.395 59.5875L190.385 59.5206C190.378 59.4785 189.727 55.2725 189.735 52.3869C189.726 52.0654 189.787 51.7459 189.915 51.4507C190.042 51.1554 190.232 50.8914 190.472 50.6772C190.806 50.3728 191.221 50.1724 191.667 50.1007C192.112 50.029 192.57 50.0891 192.982 50.2735C193.422 50.4551 193.801 50.7596 194.073 51.1508C194.345 51.5419 194.498 52.003 194.515 52.4791L194.836 61.0829Z" fill="#1B3A6C"/>
<path d="M186.574 60.6708L179.782 58.9126L176.642 69.487L176.531 108.881L181.725 108.848L183.896 76.964L197.734 106.426L203.314 105.756L191.15 74.174C191.15 74.174 191.82 68.5942 189.699 65.8043L190.146 62.9027L186.574 60.6708Z" fill="#2F2E41"/>
<path d="M190.347 63.6838L189.833 63.6757L179.395 59.5035L184.388 48.3813L186.759 48.8122L186.328 47.0857L191.566 45.8052L192.478 49.451L193.823 50.6736C194.161 50.9818 194.403 51.3817 194.519 51.8248C194.635 52.2678 194.62 52.735 194.475 53.1695L191.377 62.4643C191.402 62.6141 191.395 62.7677 191.354 62.9143C191.314 63.0609 191.243 63.197 191.145 63.3132C191.047 63.4293 190.925 63.5226 190.787 63.5866C190.649 63.6506 190.499 63.6838 190.347 63.6838Z" fill="#1B3A6C"/>
<path d="M182.497 55.3552L179.751 53.8311L176.493 57.5311L170.313 64.0307C169.954 63.9735 169.586 64.0267 169.257 64.1834C168.929 64.3401 168.655 64.5928 168.474 64.9081C168.292 65.2234 168.21 65.5865 168.239 65.9493C168.268 66.312 168.407 66.6575 168.636 66.9398C168.866 67.2221 169.176 67.4281 169.525 67.5305C169.875 67.6328 170.247 67.6267 170.592 67.513C170.938 67.3993 171.241 67.1833 171.461 66.8935C171.682 66.6038 171.809 66.2541 171.826 65.8905L178.721 60.0296L182.497 55.3552Z" fill="#A0616A"/>
<path d="M181.064 58.0834L178.888 53.9337L178.927 53.8782C178.951 53.8433 181.387 50.3528 183.387 48.2727C183.602 48.0342 183.867 47.8457 184.163 47.7202C184.459 47.5947 184.779 47.5353 185.101 47.5462C185.552 47.5569 185.991 47.699 186.362 47.9553C186.734 48.2116 187.023 48.5708 187.194 48.9889C187.387 49.4244 187.45 49.9062 187.376 50.3768C187.302 50.8473 187.095 51.2867 186.778 51.6423L181.064 58.0834Z" fill="#1B3A6C"/>
<path d="M187.69 45.1274C189.989 45.1274 191.852 43.2638 191.852 40.9651C191.852 38.6663 189.989 36.8027 187.69 36.8027C185.391 36.8027 183.528 38.6663 183.528 40.9651C183.528 43.2638 185.391 45.1274 187.69 45.1274Z" fill="#A0616A"/>
<path d="M182.681 38.524C183.381 37.2709 183.649 36.7475 184.552 35.9855C185.35 35.3116 186.331 35.1137 187.123 35.7522C188.06 35.3475 189.102 35.2557 190.095 35.4905C191.088 35.7253 191.979 36.2742 192.635 37.0555C193.291 37.8369 193.678 38.8091 193.737 39.8277C193.797 40.8463 193.527 41.857 192.966 42.7096C192.406 43.5622 191.585 44.2114 190.626 44.5605C189.668 44.9097 188.622 44.9402 187.644 44.6477C186.667 44.3551 185.81 43.7551 185.2 42.9366C184.591 42.1182 184.262 41.125 184.262 40.1047C184.263 39.9255 184.274 39.7465 184.294 39.5685C183.606 39.4719 183.37 38.6206 182.681 38.524Z" fill="#2F2E41"/>
<path d="M198.054 50.8372C197.864 50.1155 197.835 49.3606 197.971 48.6266C198.172 47.2092 198.624 45.8417 199.038 44.4712C199.452 43.1005 199.831 41.703 199.879 40.2721C199.927 38.8412 199.617 37.3579 198.764 36.2083C197.91 35.0586 196.456 34.3052 195.041 34.5214C193.688 34.7279 192.508 35.9476 192.501 37.301C192.258 37.739 192.571 38.3371 193.016 38.5969C193.483 38.8694 194.046 38.9055 194.564 39.0605C195.073 39.225 195.542 39.4927 195.942 39.8469C196.343 40.2011 196.665 40.6342 196.89 41.119C197.335 42.0977 197.453 43.1933 197.228 44.2443C197.024 45.2627 196.554 46.2052 196.202 47.1825C195.851 48.1598 195.615 49.2328 195.898 50.2323C196.133 50.9705 196.626 51.5989 197.288 52.002C197.949 52.405 198.734 52.5554 199.498 52.4255C199.149 52.2929 198.837 52.0799 198.586 51.8039C198.335 51.528 198.153 51.1967 198.054 50.8372Z" fill="#2F2E41"/>
<path d="M205.793 113.259H0.20662C0.151821 113.259 0.0992661 113.227 0.0605174 113.171C0.0217687 113.115 0 113.039 0 112.96C0 112.881 0.0217687 112.805 0.0605174 112.749C0.0992661 112.693 0.151821 112.662 0.20662 112.662H205.793C205.848 112.662 205.901 112.693 205.939 112.749C205.978 112.805 206 112.881 206 112.96C206 113.039 205.978 113.115 205.939 113.171C205.901 113.227 205.848 113.259 205.793 113.259Z" fill="#7599D2"/>
<path d="M175.045 101.493C174.578 97.7349 172.249 94.0324 168.665 92.8096C170.079 96.6773 170.078 100.92 168.664 104.788C168.114 106.277 167.346 107.877 167.864 109.378C168.186 110.312 168.975 111.027 169.856 111.474C170.737 111.921 171.716 112.134 172.681 112.343L172.872 112.5C174.405 109.037 175.512 105.25 175.045 101.493Z" fill="#4C77BD"/>
<path d="M168.63 92.8812C170.717 95.2196 172.014 98.1562 172.337 101.274C172.418 101.944 172.394 102.622 172.264 103.285C172.117 103.926 171.8 104.515 171.348 104.993C170.935 105.447 170.46 105.863 170.165 106.409C170.018 106.691 169.932 107 169.913 107.318C169.894 107.635 169.942 107.953 170.055 108.25C170.315 108.998 170.829 109.608 171.353 110.187C171.934 110.829 172.548 111.488 172.795 112.34C172.825 112.443 172.983 112.39 172.953 112.287C172.524 110.805 171.085 109.963 170.398 108.628C170.078 108.005 169.944 107.281 170.244 106.624C170.506 106.049 170.996 105.619 171.418 105.163C171.866 104.704 172.195 104.142 172.376 103.526C172.539 102.873 172.59 102.196 172.526 101.526C172.406 100.014 172.05 98.5304 171.469 97.1294C170.816 95.5266 169.893 94.0475 168.74 92.7561C168.669 92.6761 168.559 92.8018 168.63 92.8812Z" fill="white"/>
<path d="M172.292 100.264C172.808 100.138 173.262 99.8341 173.574 99.4047C173.886 98.9754 174.035 98.4492 173.995 97.92C173.986 97.813 173.82 97.8212 173.828 97.9284C173.867 98.4211 173.728 98.9112 173.436 99.3104C173.145 99.7096 172.721 99.9915 172.24 100.105C172.135 100.13 172.188 100.288 172.292 100.264Z" fill="white"/>
<path d="M171.587 104.79C170.656 104.234 169.968 103.348 169.662 102.307C169.631 102.204 169.473 102.256 169.503 102.359C169.824 103.441 170.542 104.363 171.512 104.94C171.605 104.994 171.679 104.845 171.587 104.79Z" fill="white"/>
<path d="M170.66 95.6846C170.471 95.7746 170.262 95.8162 170.053 95.8056C169.843 95.7949 169.64 95.7324 169.46 95.6237C169.369 95.5677 169.294 95.7171 169.385 95.7728C169.584 95.892 169.809 95.9607 170.04 95.973C170.272 95.9852 170.503 95.9407 170.713 95.8431C170.733 95.8356 170.75 95.8205 170.76 95.8009C170.77 95.7813 170.772 95.7587 170.766 95.7377C170.759 95.7167 170.744 95.6994 170.724 95.6895C170.704 95.6795 170.681 95.6778 170.66 95.6846Z" fill="white"/>
<path d="M157.741 99.5216C157.798 99.5582 157.854 99.5949 157.91 99.6329C158.665 100.129 159.378 100.686 160.043 101.298C160.095 101.344 160.147 101.392 160.198 101.44C161.783 102.931 163.078 104.703 164.016 106.667C164.389 107.449 164.702 108.258 164.952 109.087C165.297 110.232 165.58 111.501 166.263 112.438C166.333 112.537 166.409 112.631 166.491 112.72H172.665C172.679 112.713 172.693 112.707 172.707 112.7L172.954 112.711C172.944 112.668 172.932 112.623 172.923 112.579C172.917 112.553 172.91 112.528 172.904 112.503C172.9 112.486 172.896 112.469 172.893 112.453C172.892 112.448 172.89 112.442 172.889 112.438C172.886 112.423 172.882 112.408 172.879 112.394C172.817 112.142 172.753 111.89 172.687 111.638C172.687 111.637 172.687 111.637 172.686 111.635C172.203 109.709 171.494 107.847 170.573 106.088C170.545 106.036 170.517 105.983 170.486 105.931C170.059 105.152 169.57 104.409 169.022 103.711C168.721 103.329 168.401 102.963 168.063 102.613C167.188 101.712 166.176 100.955 165.066 100.368C162.851 99.1991 160.288 98.7511 157.921 99.4653C157.861 99.4836 157.802 99.5019 157.741 99.5216Z" fill="#4C77BD"/>
<path d="M157.755 99.5999C160.83 100.21 163.633 101.774 165.768 104.069C166.237 104.555 166.625 105.111 166.92 105.718C167.189 106.319 167.291 106.98 167.218 107.634C167.161 108.245 167.032 108.863 167.125 109.477C167.178 109.79 167.296 110.089 167.471 110.354C167.647 110.619 167.877 110.843 168.146 111.013C168.804 111.453 169.582 111.631 170.348 111.778C171.199 111.941 172.086 112.097 172.796 112.629C172.882 112.693 172.977 112.556 172.891 112.491C171.656 111.567 170 111.761 168.648 111.108C168.017 110.803 167.474 110.307 167.318 109.601C167.181 108.984 167.313 108.346 167.376 107.728C167.457 107.091 167.382 106.445 167.155 105.844C166.892 105.224 166.525 104.653 166.071 104.157C165.065 103.021 163.887 102.051 162.58 101.282C161.093 100.396 159.466 99.7708 157.768 99.4334C157.663 99.4126 157.651 99.5792 157.755 99.5999Z" fill="white"/>
<path d="M165.124 103.29C165.461 102.879 165.64 102.363 165.631 101.832C165.622 101.302 165.424 100.792 165.073 100.393C165.002 100.313 164.874 100.42 164.945 100.5C165.272 100.871 165.456 101.346 165.464 101.84C165.472 102.334 165.303 102.814 164.987 103.195C164.919 103.278 165.056 103.372 165.124 103.29Z" fill="white"/>
<path d="M167.287 107.328C166.209 107.445 165.126 107.151 164.254 106.504C164.168 106.44 164.073 106.578 164.159 106.642C165.067 107.312 166.195 107.616 167.317 107.492C167.424 107.48 167.393 107.316 167.287 107.328Z" fill="white"/>
<path d="M161.065 100.616C160.967 100.802 160.826 100.961 160.652 101.079C160.478 101.196 160.278 101.269 160.07 101.29C159.963 101.301 159.993 101.465 160.099 101.454C160.33 101.43 160.551 101.35 160.743 101.22C160.935 101.09 161.093 100.916 161.202 100.711C161.214 100.693 161.218 100.671 161.214 100.649C161.21 100.628 161.198 100.608 161.181 100.595C161.162 100.583 161.14 100.578 161.118 100.582C161.097 100.586 161.077 100.598 161.065 100.616Z" fill="white"/>
<path d="M134.645 97.229C135.287 92.0681 138.486 86.9832 143.408 85.3037C141.466 90.6157 141.467 96.443 143.409 101.755C144.165 103.8 145.219 105.997 144.508 108.059C144.065 109.342 142.982 110.323 141.772 110.937C140.562 111.551 139.218 111.843 137.892 112.13L137.631 112.346C135.525 107.591 134.004 102.39 134.645 97.229Z" fill="#1B3A6C"/>
<path d="M143.457 85.4019C140.59 88.6134 138.809 92.6465 138.365 96.9282C138.253 97.8483 138.287 98.7802 138.466 99.6897C138.668 100.57 139.102 101.38 139.724 102.036C140.291 102.659 140.943 103.231 141.349 103.981C141.551 104.368 141.668 104.793 141.695 105.229C141.721 105.664 141.654 106.101 141.5 106.509C141.142 107.536 140.436 108.374 139.717 109.169C138.919 110.052 138.075 110.956 137.736 112.126C137.695 112.268 137.477 112.196 137.519 112.054C138.109 110.018 140.085 108.862 141.028 107.028C141.467 106.172 141.652 105.179 141.24 104.276C140.879 103.486 140.207 102.896 139.628 102.27C139.012 101.639 138.56 100.867 138.312 100.022C138.088 99.1244 138.018 98.1953 138.106 97.2744C138.27 95.1981 138.76 93.1605 139.557 91.2362C140.455 89.0351 141.722 87.0037 143.305 85.23C143.403 85.1202 143.554 85.2928 143.457 85.4019Z" fill="white"/>
<path d="M138.427 95.5403C137.719 95.3684 137.094 94.9503 136.666 94.3607C136.238 93.771 136.033 93.0483 136.088 92.3216C136.1 92.1746 136.329 92.1858 136.317 92.333C136.264 93.0097 136.455 93.6829 136.855 94.2311C137.255 94.7793 137.838 95.1665 138.499 95.3227C138.642 95.3568 138.57 95.5743 138.427 95.5403Z" fill="white"/>
<path d="M139.395 101.757C140.674 100.993 141.618 99.7755 142.039 98.3463C142.081 98.2047 142.299 98.2767 142.257 98.4182C141.816 99.9046 140.831 101.17 139.498 101.962C139.371 102.037 139.268 101.832 139.395 101.757Z" fill="white"/>
<path d="M140.667 89.2511C140.927 89.3747 141.214 89.4318 141.502 89.4172C141.79 89.4026 142.069 89.3167 142.315 89.1674C142.442 89.0904 142.544 89.2956 142.419 89.3721C142.146 89.5358 141.837 89.6302 141.519 89.6471C141.201 89.6639 140.884 89.6027 140.595 89.4687C140.567 89.4584 140.544 89.4376 140.53 89.4107C140.517 89.3839 140.514 89.3528 140.522 89.3239C140.532 89.2952 140.553 89.2714 140.58 89.2577C140.607 89.2441 140.638 89.2417 140.667 89.2511Z" fill="white"/>
<path d="M158.41 94.5214C158.333 94.5717 158.255 94.622 158.178 94.6742C157.141 95.3558 156.162 96.1205 155.249 96.9608C155.178 97.0246 155.106 97.0904 155.036 97.1562C152.859 99.2039 151.081 101.638 149.792 104.335C149.28 105.409 148.851 106.52 148.508 107.659C148.034 109.231 147.645 110.974 146.707 112.261C146.61 112.396 146.505 112.525 146.393 112.648H137.914C137.895 112.638 137.876 112.63 137.856 112.62L137.518 112.636C137.531 112.576 137.547 112.514 137.56 112.454C137.568 112.419 137.578 112.384 137.585 112.35C137.591 112.326 137.597 112.303 137.601 112.282C137.603 112.274 137.605 112.266 137.607 112.261C137.611 112.239 137.616 112.22 137.62 112.201C137.705 111.854 137.793 111.508 137.883 111.162C137.883 111.16 137.883 111.16 137.885 111.158C138.548 108.513 139.522 105.956 140.787 103.54C140.826 103.468 140.864 103.395 140.907 103.323C141.493 102.254 142.165 101.234 142.917 100.275C143.33 99.7503 143.77 99.2474 144.234 98.7676C145.436 97.5303 146.825 96.4897 148.351 95.684C151.392 94.0784 154.913 93.4632 158.163 94.444C158.246 94.4692 158.327 94.4943 158.41 94.5214Z" fill="#1B3A6C"/>
<path d="M158.391 94.6295C154.169 95.4681 150.318 97.6157 147.386 100.767C146.743 101.435 146.209 102.199 145.804 103.033C145.435 103.857 145.294 104.766 145.396 105.663C145.473 106.502 145.65 107.351 145.522 108.194C145.451 108.625 145.289 109.036 145.047 109.399C144.805 109.763 144.49 110.071 144.121 110.304C143.216 110.909 142.148 111.153 141.096 111.354C139.927 111.579 138.709 111.793 137.734 112.523C137.616 112.611 137.485 112.423 137.603 112.335C139.3 111.064 141.575 111.331 143.431 110.434C144.297 110.016 145.043 109.334 145.258 108.365C145.445 107.517 145.264 106.641 145.178 105.793C145.066 104.918 145.17 104.03 145.481 103.205C145.842 102.354 146.346 101.57 146.971 100.888C148.352 99.3286 149.97 97.9965 151.765 96.9401C153.807 95.723 156.042 94.8642 158.373 94.4009C158.518 94.3723 158.534 94.6011 158.391 94.6295Z" fill="white"/>
<path d="M148.271 99.697C147.809 99.1333 147.562 98.4237 147.575 97.695C147.588 96.9663 147.86 96.2658 148.341 95.7188C148.439 95.6085 148.615 95.7553 148.517 95.8658C148.068 96.3744 147.815 97.0268 147.804 97.7054C147.794 98.3841 148.026 99.0441 148.459 99.5665C148.553 99.6801 148.364 99.81 148.271 99.697Z" fill="white"/>
<path d="M145.3 105.243C146.782 105.403 148.269 104.999 149.466 104.112C149.584 104.024 149.715 104.212 149.596 104.3C148.349 105.221 146.801 105.639 145.259 105.468C145.113 105.452 145.154 105.227 145.3 105.243Z" fill="white"/>
<path d="M153.846 96.0247C153.979 96.2801 154.174 96.4983 154.412 96.6599C154.651 96.8214 154.926 96.9212 155.212 96.9503C155.359 96.9647 155.317 97.1902 155.171 97.1758C154.855 97.1422 154.551 97.0317 154.288 96.8538C154.024 96.6758 153.807 96.436 153.657 96.1552C153.641 96.13 153.635 96.0994 153.64 96.0698C153.646 96.0401 153.662 96.0137 153.686 95.9958C153.712 95.9786 153.742 95.972 153.772 95.9774C153.802 95.9829 153.829 95.9999 153.846 96.0247Z" fill="white"/>
<path d="M36.5962 94.7456C37.3443 88.7294 41.0729 82.8016 46.8106 80.8438C44.5478 87.0362 44.5483 93.8294 46.812 100.021C47.6936 102.406 48.9226 104.967 48.0932 107.371C47.5773 108.866 46.3149 110.01 44.9039 110.726C43.4928 111.441 41.9268 111.782 40.3804 112.117L40.0761 112.368C37.6212 106.825 35.848 100.762 36.5962 94.7456Z" fill="#1B3A6C"/>
<path d="M46.8674 80.9577C43.5261 84.7016 41.4493 89.4031 40.9321 94.3945C40.8017 95.467 40.8412 96.5535 41.0491 97.6137C41.285 98.64 41.7914 99.5844 42.5157 100.349C43.1767 101.075 43.937 101.741 44.41 102.616C44.6455 103.067 44.7829 103.563 44.8133 104.071C44.8437 104.579 44.7664 105.087 44.5864 105.563C44.1688 106.761 43.3458 107.737 42.5077 108.664C41.5772 109.693 40.5944 110.747 40.1989 112.111C40.151 112.276 39.8973 112.192 39.9452 112.027C40.6333 109.654 42.9372 108.306 44.0359 106.168C44.5486 105.171 44.7638 104.013 44.2831 102.96C43.8628 102.039 43.0794 101.351 42.4038 100.622C41.6863 99.8865 41.1597 98.9867 40.8701 98.001C40.6089 96.9547 40.5276 95.8716 40.6298 94.7981C40.8213 92.3776 41.3922 90.0022 42.3215 87.7591C43.368 85.1931 44.8457 82.825 46.6907 80.7573C46.8049 80.6293 46.9809 80.8306 46.8674 80.9577Z" fill="white"/>
<path d="M41.0042 92.7773C40.1786 92.5768 39.4511 92.0894 38.9516 91.402C38.4521 90.7147 38.2133 89.8722 38.2776 89.025C38.2912 88.8536 38.5582 88.8667 38.5446 89.0383C38.4832 89.8271 38.7058 90.6119 39.1722 91.251C39.6386 91.8901 40.3181 92.3414 41.088 92.5235C41.2553 92.5633 41.1706 92.8168 41.0042 92.7773Z" fill="white"/>
<path d="M42.1323 100.024C43.6235 99.1338 44.7244 97.7141 45.2153 96.048C45.2639 95.8829 45.5175 95.9669 45.4691 96.1318C44.9549 97.8646 43.8063 99.3397 42.2524 100.263C42.1043 100.351 41.9849 100.112 42.1323 100.024Z" fill="white"/>
<path d="M43.616 85.4455C43.9194 85.5896 44.2537 85.6561 44.5891 85.6391C44.9245 85.6221 45.2504 85.522 45.5375 85.3479C45.6845 85.2582 45.8037 85.4974 45.6577 85.5866C45.3395 85.7775 44.9795 85.8875 44.609 85.9071C44.2385 85.9268 43.8688 85.8554 43.5323 85.6992C43.4993 85.6871 43.4722 85.663 43.4564 85.6316C43.4406 85.6003 43.4374 85.5641 43.4473 85.5304C43.4586 85.4969 43.4826 85.4692 43.5142 85.4533C43.5458 85.4374 43.5824 85.4345 43.616 85.4455Z" fill="white"/>
<path d="M64.3002 91.5889C64.21 91.6475 64.1198 91.7062 64.0295 91.7671C62.8212 92.5616 61.6793 93.4531 60.6153 94.4326C60.5319 94.507 60.4484 94.5837 60.3673 94.6604C57.829 97.0476 55.756 99.8852 54.2537 103.029C53.657 104.281 53.1564 105.576 52.7562 106.903C52.2037 108.737 51.7504 110.769 50.6567 112.268C50.5443 112.426 50.4223 112.577 50.2913 112.719H40.4071C40.3846 112.708 40.3621 112.699 40.3395 112.688L39.9448 112.706C39.9607 112.636 39.9786 112.564 39.9945 112.494C40.0035 112.453 40.0147 112.413 40.0238 112.372C40.0305 112.345 40.0373 112.318 40.0419 112.293C40.0441 112.284 40.0464 112.275 40.0486 112.268C40.0531 112.244 40.0599 112.221 40.0644 112.199C40.1637 111.795 40.2659 111.391 40.3711 110.988C40.3711 110.985 40.3711 110.985 40.3733 110.983C41.1457 107.899 42.2812 104.918 43.756 102.102C43.8011 102.019 43.8462 101.933 43.8958 101.85C44.5787 100.603 45.3624 99.4145 46.2389 98.2957C46.7209 97.6845 47.2335 97.0982 47.7747 96.5389C49.1759 95.0965 50.7953 93.8834 52.5736 92.9442C56.1187 91.0725 60.2229 90.3554 64.0116 91.4987C64.1085 91.528 64.2033 91.5573 64.3002 91.5889Z" fill="#1B3A6C"/>
<path d="M64.2777 91.7151C59.3557 92.6927 54.8669 95.1963 51.4488 98.8702C50.6989 99.6481 50.0764 100.539 49.604 101.511C49.1744 102.472 49.0102 103.531 49.1283 104.578C49.2188 105.556 49.4247 106.545 49.2759 107.528C49.1923 108.03 49.0035 108.509 48.722 108.933C48.4404 109.357 48.0724 109.716 47.6421 109.988C46.5876 110.693 45.3427 110.977 44.1156 111.212C42.7531 111.474 41.3339 111.723 40.1968 112.574C40.059 112.678 39.907 112.458 40.0446 112.355C42.023 110.874 44.6741 111.185 46.8383 110.14C47.8482 109.652 48.7172 108.857 48.9673 107.727C49.1861 106.739 48.9747 105.718 48.8745 104.728C48.7443 103.709 48.8656 102.674 49.2279 101.712C49.6492 100.72 50.2365 99.8061 50.9644 99.0105C52.5746 97.1931 54.4605 95.6402 56.5531 94.4087C58.9335 92.9899 61.5391 91.9888 64.2571 91.4487C64.4254 91.4153 64.4448 91.682 64.2777 91.7151Z" fill="white"/>
<path d="M52.48 97.6227C51.9414 96.9655 51.654 96.1383 51.669 95.2888C51.6841 94.4393 52.0006 93.6228 52.562 92.9851C52.6761 92.8564 52.8814 93.0276 52.7672 93.1564C52.2432 93.7493 51.9484 94.5099 51.9361 95.301C51.9237 96.0921 52.1945 96.8615 52.6996 97.4705C52.8092 97.603 52.589 97.7544 52.48 97.6227Z" fill="white"/>
<path d="M49.0172 104.088C50.744 104.275 52.4778 103.804 53.8728 102.769C54.011 102.667 54.163 102.886 54.025 102.989C52.5712 104.063 50.766 104.549 48.9695 104.351C48.7983 104.332 48.8469 104.069 49.0172 104.088Z" fill="white"/>
<path d="M42.8882 101.493C42.4209 97.7349 40.0921 94.0324 36.5083 92.8096C37.9217 96.6773 37.9214 100.92 36.5075 104.788C35.9568 106.277 35.1892 107.877 35.7072 109.378C36.0295 110.312 36.8179 111.027 37.6992 111.474C38.5806 111.921 39.5587 112.134 40.5246 112.343L40.7147 112.5C42.248 109.037 43.3556 105.25 42.8882 101.493Z" fill="#4C77BD"/>
<path d="M36.4729 92.8812C38.5599 95.2196 39.8571 98.1562 40.1801 101.274C40.2616 101.944 40.2369 102.622 40.1071 103.285C39.9597 103.926 39.6434 104.515 39.191 104.993C38.7781 105.447 38.3033 105.863 38.0078 106.409C37.8608 106.691 37.7749 107 37.7559 107.318C37.737 107.635 37.7853 107.953 37.8977 108.25C38.1585 108.998 38.6726 109.608 39.196 110.187C39.7772 110.829 40.391 111.488 40.6381 112.34C40.668 112.443 40.8265 112.39 40.7966 112.287C40.3667 110.805 38.9278 109.963 38.2415 108.628C37.9213 108.005 37.7869 107.281 38.0871 106.624C38.3496 106.049 38.8389 105.619 39.2609 105.163C39.7091 104.704 40.038 104.142 40.2189 103.526C40.382 102.873 40.4328 102.196 40.3689 101.526C40.2493 100.014 39.8928 98.5304 39.3123 97.1294C38.6587 95.5266 37.7357 94.0475 36.5834 92.7561C36.512 92.6761 36.402 92.8018 36.4729 92.8812Z" fill="white"/>
<path d="M40.135 100.264C40.6507 100.138 41.1051 99.8341 41.4171 99.4047C41.7291 98.9754 41.8783 98.4492 41.838 97.92C41.8295 97.813 41.6628 97.8212 41.6713 97.9284C41.7097 98.4211 41.5706 98.9112 41.2793 99.3104C40.988 99.7096 40.5636 99.9915 40.0827 100.105C39.9782 100.13 40.0311 100.288 40.135 100.264Z" fill="white"/>
<path d="M39.4306 104.79C38.4992 104.234 37.8116 103.348 37.5049 102.307C37.4746 102.204 37.3162 102.256 37.3465 102.359C37.6676 103.441 38.385 104.363 39.3555 104.94C39.4481 104.994 39.5226 104.845 39.4306 104.79Z" fill="white"/>
<path d="M38.5039 95.6846C38.3144 95.7746 38.1056 95.8162 37.8961 95.8056C37.6866 95.7949 37.4831 95.7324 37.3037 95.6237C37.2119 95.5677 37.1375 95.7171 37.2287 95.7728C37.4274 95.892 37.6523 95.9607 37.8837 95.973C38.1151 95.9852 38.346 95.9407 38.5562 95.8431C38.5768 95.8356 38.5937 95.8205 38.6036 95.8009C38.6134 95.7813 38.6155 95.7587 38.6093 95.7377C38.6022 95.7167 38.5872 95.6994 38.5675 95.6895C38.5477 95.6795 38.5249 95.6778 38.5039 95.6846Z" fill="white"/>
<path d="M25.5846 99.5216C25.6409 99.5582 25.6972 99.5949 25.7536 99.6329C26.5084 100.129 27.2215 100.686 27.8861 101.298C27.9382 101.344 27.9904 101.392 28.0411 101.44C29.6265 102.931 30.9212 104.703 31.8596 106.667C32.2323 107.449 32.545 108.258 32.7949 109.087C33.14 110.232 33.4231 111.501 34.1063 112.438C34.1765 112.537 34.2527 112.631 34.3345 112.72H40.5081C40.5222 112.713 40.5363 112.707 40.5504 112.7L40.7969 112.711C40.787 112.668 40.7758 112.623 40.7659 112.579C40.7602 112.553 40.7532 112.528 40.7476 112.503C40.7434 112.486 40.7391 112.469 40.7363 112.453C40.7349 112.448 40.7335 112.442 40.7321 112.438C40.7293 112.423 40.725 112.408 40.7222 112.394C40.6602 112.142 40.5963 111.89 40.5306 111.638C40.5306 111.637 40.5306 111.637 40.5293 111.635C40.0468 109.709 39.3376 107.847 38.4164 106.088C38.3882 106.036 38.3601 105.983 38.3291 105.931C37.9025 105.152 37.4131 104.409 36.8656 103.711C36.5646 103.329 36.2444 102.963 35.9064 102.613C35.0311 101.712 34.0197 100.955 32.909 100.368C30.6947 99.1991 28.1312 98.7511 25.7648 99.4653C25.7043 99.4836 25.6451 99.5019 25.5846 99.5216Z" fill="#4C77BD"/>
<path d="M25.5986 99.5999C28.6728 100.21 31.4765 101.774 33.6115 104.069C34.0798 104.555 34.4687 105.111 34.7637 105.718C35.032 106.319 35.1346 106.98 35.0609 107.634C35.0043 108.245 34.8757 108.863 34.9687 109.477C35.0209 109.79 35.1388 110.089 35.3147 110.354C35.4905 110.619 35.7204 110.843 35.9891 111.013C36.6478 111.453 37.4254 111.631 38.1918 111.778C39.0428 111.941 39.9292 112.097 40.6395 112.629C40.7255 112.693 40.8204 112.556 40.7345 112.491C39.4988 111.567 37.8429 111.761 36.4912 111.108C35.8604 110.803 35.3176 110.307 35.1614 109.601C35.0247 108.984 35.1568 108.346 35.2194 107.728C35.3007 107.091 35.2249 106.445 34.9986 105.844C34.7355 105.224 34.3687 104.653 33.914 104.157C32.9083 103.021 31.7304 102.051 30.4233 101.282C28.9365 100.396 27.3091 99.7708 25.6114 99.4334C25.5063 99.4126 25.4942 99.5792 25.5986 99.5999Z" fill="white"/>
<path d="M32.9675 103.29C33.3039 102.879 33.4834 102.363 33.474 101.832C33.4646 101.302 33.2669 100.792 32.9162 100.393C32.845 100.313 32.7168 100.42 32.7881 100.5C33.1154 100.871 33.2995 101.346 33.3072 101.84C33.315 102.334 33.1458 102.814 32.8303 103.195C32.7618 103.278 32.8994 103.372 32.9675 103.29Z" fill="white"/>
<path d="M35.1301 107.328C34.0516 107.445 32.9687 107.151 32.0973 106.504C32.011 106.44 31.9161 106.578 32.0023 106.642C32.9103 107.312 34.0378 107.616 35.1599 107.492C35.2668 107.48 35.2365 107.316 35.1301 107.328Z" fill="white"/>
<path d="M50.0929 100.616C50.19 100.802 50.3317 100.961 50.5054 101.079C50.679 101.196 50.8792 101.269 51.0878 101.29C51.1949 101.301 51.1644 101.465 51.058 101.454C50.8276 101.43 50.6066 101.35 50.4145 101.22C50.2223 101.09 50.0648 100.916 49.9557 100.711C49.9438 100.693 49.9394 100.671 49.9433 100.649C49.9472 100.628 49.9592 100.608 49.9768 100.595C49.995 100.583 50.0174 100.578 50.0392 100.582C50.0609 100.586 50.0802 100.598 50.0929 100.616Z" fill="white"/>
<path d="M87.9647 49.8325H83.8294C83.8001 49.4904 83.7218 49.18 83.5948 48.9014C83.4725 48.6227 83.3015 48.3832 83.0815 48.1828C82.8664 47.9775 82.6049 47.8211 82.297 47.7135C81.989 47.6011 81.6395 47.5449 81.2484 47.5449C80.5641 47.5449 79.9849 47.7111 79.5107 48.0435C79.0415 48.3759 78.6846 48.8525 78.4402 49.4733C78.2007 50.0941 78.0809 50.8395 78.0809 51.7096C78.0809 52.6286 78.2031 53.3984 78.4475 54.0192C78.6968 54.6351 79.0561 55.0995 79.5254 55.4124C79.9946 55.7203 80.5592 55.8743 81.2191 55.8743C81.5955 55.8743 81.9328 55.8279 82.231 55.735C82.5291 55.6372 82.7882 55.4979 83.0082 55.317C83.2281 55.1362 83.4066 54.9187 83.5434 54.6645C83.6852 54.4054 83.7805 54.1146 83.8294 53.7919L87.9647 53.8213C87.9159 54.4567 87.7374 55.1044 87.4295 55.7643C87.1215 56.4193 86.6841 57.0254 86.117 57.5827C85.5549 58.1351 84.8583 58.5799 84.0274 58.9172C83.1964 59.2544 82.231 59.4231 81.1311 59.4231C79.7527 59.4231 78.516 59.1273 77.421 58.5359C76.331 57.9444 75.4682 57.0743 74.8328 55.9256C74.2022 54.7769 73.8869 53.3716 73.8869 51.7096C73.8869 50.0379 74.2095 48.6301 74.8548 47.4862C75.5 46.3375 76.3701 45.4699 77.465 44.8833C78.56 44.2918 79.782 43.9961 81.1311 43.9961C82.0794 43.9961 82.952 44.1256 83.7487 44.3847C84.5455 44.6438 85.2445 45.0226 85.8457 45.5212C86.447 46.0149 86.9309 46.6235 87.2975 47.3469C87.6641 48.0704 87.8865 48.8989 87.9647 49.8325ZM92.0855 59.2178V44.2014H98.5672C99.6817 44.2014 100.657 44.4043 101.493 44.81C102.329 45.2157 102.979 45.7998 103.443 46.5624C103.907 47.3249 104.14 48.239 104.14 49.3046C104.14 50.38 103.9 51.2868 103.421 52.0249C102.947 52.763 102.28 53.3202 101.419 53.6966C100.564 54.073 99.5644 54.2612 98.4205 54.2612H94.5491V51.0937H97.5993C98.0784 51.0937 98.4865 51.035 98.8238 50.9177C99.166 50.7955 99.4275 50.6024 99.6084 50.3385C99.7941 50.0745 99.887 49.7299 99.887 49.3046C99.887 48.8745 99.7941 48.525 99.6084 48.2561C99.4275 47.9824 99.166 47.782 98.8238 47.6549C98.4865 47.5229 98.0784 47.4569 97.5993 47.4569H96.1622V59.2178H92.0855ZM100.884 52.3255L104.638 59.2178H100.21L96.5435 52.3255H100.884ZM108.149 44.2014H113.223L116.713 52.7068H116.889L120.379 44.2014H125.453V59.2178H121.464V50.5364H121.347L118.003 59.1005H115.598L112.255 50.4778H112.137V59.2178H108.149V44.2014Z" fill="#75A3EE"/>
</svg>
