<svg width="186" height="140" viewBox="0 0 186 140" fill="none" xmlns="http://www.w3.org/2000/svg">
<path d="M164.625 26.3119C164.625 26.3119 162.965 25.6388 157.684 28.0598C152.403 30.4807 151.744 30.1747 150.377 29.8107C149.011 29.4467 148.248 29.3526 146.783 27.3302C146.783 27.3302 145.749 21.7273 144.743 20.8581C143.737 19.9889 139.492 21.3539 139.492 21.3539C139.492 21.3539 134.394 22.5228 133.423 15.7056C133.423 15.7056 134.112 10.5718 133.173 8.99657C133.173 8.99657 135.069 9.81244 138.194 8.49449C141.32 7.17654 143.822 9.91442 143.822 9.91442C143.822 9.91442 144.607 11.9541 144.528 13.1716C144.45 14.3892 144.945 14.8457 146.436 14.2574C146.436 14.2574 147.169 13.2156 146.132 11.4928C145.094 9.77008 144.354 8.48822 144.643 7.15144C144.931 5.81466 145.764 3.95855 148.44 3.03128C151.115 2.10401 154.747 1.93299 156.49 1.20027C158.233 0.467557 158.663 0 158.663 0C158.663 0 157.59 1.07475 160.118 5.63266C162.645 10.1906 161.034 12.1675 161.034 12.1675C161.034 12.1675 159.689 15.3729 153.752 15.1125C153.752 15.1125 148.032 15.3211 151.151 17.7468C151.151 17.7468 153.148 17.3404 156.134 16.3912C159.12 15.442 161.275 19.3597 161.81 22.0851C162.346 24.8104 164.625 26.3119 164.625 26.3119Z" fill="#4C77BD"/>
<path d="M156.936 3.4518L156.967 3.44238C157.196 4.3116 154.64 7.8073 152.455 10.586L152.429 10.5656C155.511 6.65253 157.113 4.12489 156.936 3.4518Z" fill="white"/>
<path d="M152.473 10.5122L152.488 10.5467C150.741 12.7653 148.546 15.4106 146.789 17.3765C146.621 17.5632 146.455 17.7594 146.295 17.9602L146.245 17.9194C146.401 17.7186 146.572 17.5209 146.74 17.3342C148.496 15.3761 150.726 12.7323 152.473 10.5122Z" fill="white"/>
<path d="M146.287 17.8691L146.321 17.9288C143.124 21.9218 142.912 28.1272 142.904 28.1758L142.229 27.3913C142.237 27.3411 143.067 21.8905 146.287 17.8691Z" fill="white"/>
<path d="M160.924 24.1463C160.924 24.1463 157.158 22.1851 154.215 22.8911C151.272 23.5972 144.652 20.3964 144.652 20.3964C144.652 20.3964 141.843 19.2558 141.279 17.9551C141.279 17.9551 139.35 15.9154 139.239 14.8626C139.128 13.8098 137.253 11.1567 136.029 11.0547" stroke="white" stroke-width="0.156899" stroke-miterlimit="10"/>
<path d="M160.37 26.0345C160.37 26.0345 158.472 24.7542 158.693 23.2637" stroke="white" stroke-width="0.156899" stroke-miterlimit="10"/>
<path d="M157.458 27.6863C157.458 27.6863 154.742 26.7009 154.477 22.835" stroke="white" stroke-width="0.156899" stroke-miterlimit="10"/>
<path d="M153.079 28.6875C153.079 28.6875 150.484 26.5349 151.345 22.7725" stroke="white" stroke-width="0.156899" stroke-miterlimit="10"/>
<path d="M147.809 27.6364C147.809 27.6364 146.083 24.012 147.619 21.6538" stroke="white" stroke-width="0.156899" stroke-miterlimit="10"/>
<path d="M160.96 21.7568C160.96 21.7568 158.997 22.3844 159.418 23.4137" stroke="white" stroke-width="0.156899" stroke-miterlimit="10"/>
<path d="M158.591 18.2002C158.591 18.2002 155.963 19.0333 155.901 22.7503" stroke="white" stroke-width="0.156899" stroke-miterlimit="10"/>
<path d="M154.926 17.334C154.926 17.334 152.533 20.2868 152.709 22.9698" stroke="white" stroke-width="0.156899" stroke-miterlimit="10"/>
<path d="M150.737 18.4922C150.737 18.4922 148.361 20.7641 148.664 22.0271" stroke="white" stroke-width="0.156899" stroke-miterlimit="10"/>
<path d="M149.304 17.6905C149.304 17.6905 147.076 18.0891 146.764 17.3579" stroke="white" stroke-width="0.156899" stroke-miterlimit="10"/>
<path d="M146.409 15.001C146.409 15.001 147.534 16.4915 147.821 16.1573" stroke="white" stroke-width="0.156899" stroke-miterlimit="10"/>
<path d="M157.568 14.0585C157.568 14.0585 151.951 14.4665 150.68 12.772" stroke="white" stroke-width="0.156899" stroke-miterlimit="10"/>
<path d="M145.234 7.48877C145.234 7.48877 147.868 13.145 149.784 13.8651" stroke="white" stroke-width="0.156899" stroke-miterlimit="10"/>
<path d="M147.992 4.79492C147.992 4.79492 149.61 9.99768 151.615 11.6216" stroke="white" stroke-width="0.156899" stroke-miterlimit="10"/>
<path d="M159.931 9.76366C159.931 9.76366 155.66 11.5962 153.096 9.7417" stroke="white" stroke-width="0.117674" stroke-miterlimit="10"/>
<path d="M151.796 3.68555C151.796 3.68555 152.772 7.50917 154.086 8.4333" stroke="white" stroke-width="0.117674" stroke-miterlimit="10"/>
<path d="M159.286 5.47852C159.286 5.47852 156.885 6.38853 155.991 5.6919" stroke="white" stroke-width="0.117674" stroke-miterlimit="10"/>
<path d="M144.352 16.25C144.352 16.25 144.352 19.5841 143.445 19.821" stroke="white" stroke-width="0.156899" stroke-miterlimit="10"/>
<path d="M136.933 20.5693C136.933 20.5693 140.541 20.8831 142.2 19.0176" stroke="white" stroke-width="0.156899" stroke-miterlimit="10"/>
<path d="M143.423 12.3115C143.423 12.3115 142.551 15.6927 140.144 16.6043" stroke="white" stroke-width="0.156899" stroke-miterlimit="10"/>
<path d="M134.771 17.008C134.771 17.008 137.322 17.8945 139.517 15.6367" stroke="white" stroke-width="0.156899" stroke-miterlimit="10"/>
<path d="M140.585 9.4043C140.585 9.4043 140.345 12.2755 138.784 13.6202" stroke="white" stroke-width="0.156899" stroke-miterlimit="10"/>
<path d="M134.868 12.6318C134.868 12.6318 136.984 12.6459 137.48 11.9556" stroke="white" stroke-width="0.156899" stroke-miterlimit="10"/>
<path d="M38.0954 127.851C37.6482 131.355 36.0039 134.56 34.2497 137.648C34.1917 137.753 34.1321 137.857 34.0709 137.962H15.8393C15.4705 137.866 15.1066 137.761 14.7441 137.648C12.6849 137.021 10.7409 136.065 8.98751 134.816C2.2801 129.984 -0.300917 120.852 0.86487 112.67C1.58976 107.586 3.82082 102.396 8.16533 99.6581C10.4592 98.21 13.4057 97.7393 16.0463 98.2774C16.1155 98.29 16.1845 98.3057 16.255 98.3198C18.5269 98.8313 20.5509 100.102 21.7026 102.15C23.7736 105.829 22.5404 110.387 21.5222 114.482C20.507 118.577 19.9563 123.478 22.9029 126.499C21.93 123.635 22.8903 120.22 25.214 118.284C26.9697 116.823 29.4141 116.275 31.6437 116.729C31.857 116.774 32.0673 116.826 32.2744 116.889C32.7749 117.035 33.2575 117.237 33.7132 117.491C37.1884 119.432 38.5959 123.902 38.0954 127.851Z" fill="#4C77BD"/>
<path d="M27.2851 137.648C27.7902 137.766 28.297 137.869 28.8069 137.962H26.0503C25.6894 137.865 25.33 137.761 24.974 137.648C24.191 137.403 23.4201 137.123 22.6612 136.806C19.6174 135.528 16.8136 133.611 14.6924 131.06C13.6549 129.824 12.8077 128.44 12.1788 126.954C11.4969 125.274 11.0635 123.504 10.8923 121.699C10.5079 117.997 10.9001 114.192 11.6328 110.555C12.389 106.785 13.6096 103.124 15.2666 99.6551C15.4659 99.2394 15.672 98.8262 15.8848 98.4156C15.8994 98.3818 15.9216 98.3518 15.9496 98.3279C15.9776 98.304 16.0107 98.2868 16.0464 98.2776C16.1188 98.2635 16.1938 98.2788 16.2551 98.3199C16.3285 98.3621 16.383 98.4308 16.4073 98.512C16.4315 98.5932 16.4236 98.6806 16.3853 98.7561C14.6768 102.088 13.3817 105.616 12.5287 109.262C11.694 112.819 11.2202 116.541 11.3818 120.198C11.5355 123.615 12.4284 126.976 14.4539 129.77C16.3037 132.321 18.858 134.333 21.6838 135.703C23.4723 136.558 25.3512 137.211 27.2851 137.648Z" fill="white"/>
<path d="M33.3352 137.962H32.5224C32.4314 137.859 32.3435 137.753 32.2573 137.648C30.406 135.399 29.1519 132.719 28.6109 129.857C27.9539 126.285 28.465 122.596 30.0685 119.337C30.5158 118.423 31.043 117.55 31.6437 116.729C31.8571 116.775 32.0674 116.826 32.2745 116.889C30.6943 118.983 29.6314 121.42 29.1726 124.003C28.7633 126.423 28.8994 128.904 29.5709 131.264C30.2425 133.625 31.4325 135.806 33.0543 137.648C33.1453 137.753 33.2394 137.859 33.3352 137.962Z" fill="white"/>
<path d="M108.252 135.265C108.37 136.189 108.804 137.035 109.267 137.85C109.283 137.878 109.298 137.905 109.315 137.933H114.126C114.224 137.908 114.32 137.88 114.415 137.85C114.959 137.685 115.472 137.432 115.935 137.103C117.705 135.827 118.386 133.417 118.078 131.258C117.887 129.916 117.298 128.547 116.152 127.824C115.529 127.445 114.786 127.315 114.072 127.46C114.053 127.463 114.035 127.467 114.017 127.471C113.719 127.528 113.437 127.648 113.189 127.822C112.942 127.997 112.734 128.221 112.579 128.482C112.032 129.453 112.358 130.656 112.626 131.736C112.894 132.817 113.04 134.111 112.262 134.908C112.376 134.574 112.399 134.217 112.329 133.871C112.259 133.526 112.098 133.206 111.863 132.943C111.628 132.681 111.328 132.485 110.993 132.378C110.657 132.27 110.299 132.253 109.955 132.329C109.899 132.341 109.843 132.355 109.789 132.372C109.657 132.41 109.529 132.464 109.409 132.531C108.492 133.043 108.12 134.222 108.252 135.265Z" fill="#4C77BD"/>
<path d="M93 139.683C41.6375 139.683 0 139.082 0 138.341C0 137.601 41.6375 137 93 137C144.362 137 186 137.601 186 138.341C186 139.082 144.362 139.683 93 139.683Z" fill="#929292" fill-opacity="0.6"/>
<path d="M111.106 137.85C110.972 137.882 110.839 137.909 110.704 137.933H111.432C111.527 137.908 111.622 137.88 111.716 137.85C111.922 137.786 112.126 137.712 112.326 137.628C113.138 137.298 113.86 136.778 114.429 136.112C114.703 135.786 114.927 135.42 115.093 135.028C115.273 134.585 115.387 134.118 115.432 133.641C115.515 132.657 115.449 131.665 115.237 130.7C115.037 129.705 114.715 128.739 114.278 127.823C114.225 127.714 114.171 127.605 114.114 127.496C114.111 127.487 114.105 127.479 114.097 127.473C114.09 127.467 114.081 127.462 114.072 127.46C114.053 127.456 114.033 127.46 114.017 127.471C113.997 127.482 113.983 127.5 113.977 127.522C113.97 127.543 113.972 127.566 113.982 127.586C114.433 128.465 114.775 129.397 115 130.359C115.232 131.303 115.334 132.274 115.303 133.245C115.286 134.148 115.004 135.027 114.492 135.771C113.994 136.442 113.339 136.979 112.584 137.337C112.112 137.563 111.616 137.735 111.106 137.85Z" fill="white"/>
<path d="M109.509 137.933H109.723C109.747 137.906 109.77 137.878 109.793 137.851C110.282 137.257 110.613 136.55 110.756 135.794C110.929 134.851 110.794 133.878 110.371 133.018C110.253 132.777 110.114 132.546 109.955 132.33C109.899 132.342 109.843 132.355 109.789 132.372C110.206 132.924 110.486 133.568 110.607 134.249C110.715 134.888 110.679 135.543 110.502 136.166C110.325 136.789 110.011 137.364 109.583 137.851C109.559 137.878 109.534 137.906 109.509 137.933Z" fill="white"/>
<path d="M96.4591 51.7769H18.4805V99.9447H96.4591V51.7769Z" fill="#E6E6E6"/>
<path d="M91.9093 55.856H23.0308V96.1789H91.9093V55.856Z" fill="white"/>
<path d="M96.4591 48.9521H18.4805V53.3453H96.4591V48.9521Z" fill="#1B3A6C"/>
<path d="M21.7922 51.7524C22.2346 51.7524 22.5932 51.3938 22.5932 50.9514C22.5932 50.509 22.2346 50.1504 21.7922 50.1504C21.3498 50.1504 20.9912 50.509 20.9912 50.9514C20.9912 51.3938 21.3498 51.7524 21.7922 51.7524Z" fill="white"/>
<path d="M24.8323 51.7524C25.2746 51.7524 25.6333 51.3938 25.6333 50.9514C25.6333 50.509 25.2746 50.1504 24.8323 50.1504C24.3899 50.1504 24.0312 50.509 24.0312 50.9514C24.0312 51.3938 24.3899 51.7524 24.8323 51.7524Z" fill="white"/>
<path d="M27.8728 51.7524C28.3152 51.7524 28.6738 51.3938 28.6738 50.9514C28.6738 50.509 28.3152 50.1504 27.8728 50.1504C27.4304 50.1504 27.0718 50.509 27.0718 50.9514C27.0718 51.3938 27.4304 51.7524 27.8728 51.7524Z" fill="white"/>
<path d="M32.157 86.7323H80.631V78.424C80.6236 77.548 80.4413 76.6822 80.0948 75.8775C79.7483 75.0729 79.2446 74.3455 78.6132 73.7382L78.6 73.7253C77.7342 72.8566 74.8408 70.6519 71.8472 70.8388C70.2658 70.9373 68.9119 71.6994 67.8232 73.1041C64.4343 77.478 59.9827 76.0015 57.6307 74.7322C55.558 73.6133 53.4412 73.0881 51.3387 73.1717C48.3942 73.2868 44.2497 74.3716 41.2272 78.8856C40.0728 80.6082 37.5622 82.9466 32.157 84.3208V86.7323Z" fill="#D8E7FF"/>
<path d="M83.3737 86.9254H32.2503C32.2079 86.9254 32.1672 86.9086 32.1372 86.8786C32.1072 86.8486 32.0903 86.8079 32.0903 86.7655V62.262C32.0903 62.2196 32.1072 62.1789 32.1372 62.1489C32.1672 62.1189 32.2079 62.1021 32.2503 62.1021C32.2928 62.1021 32.3335 62.1189 32.3635 62.1489C32.3935 62.1789 32.4103 62.2196 32.4103 62.262V86.6055H83.3737C83.4161 86.6055 83.4568 86.6223 83.4868 86.6523C83.5168 86.6823 83.5336 86.723 83.5336 86.7655C83.5336 86.8079 83.5168 86.8486 83.4868 86.8786C83.4568 86.9086 83.4161 86.9254 83.3737 86.9254Z" fill="#3F3D56"/>
<path d="M41.9749 77.5024H41.6611V86.7001H41.9749V77.5024Z" fill="#3F3D56"/>
<path d="M51.3695 73.2065H51.0557V86.6998H51.3695V73.2065Z" fill="#3F3D56"/>
<path d="M60.7835 76.0308H60.4697V86.6999H60.7835V76.0308Z" fill="#3F3D56"/>
<path d="M70.1971 70.853H69.8833V86.6998H70.1971V70.853Z" fill="#3F3D56"/>
<path d="M79.6112 74.4614H79.2974V86.6995H79.6112V74.4614Z" fill="#3F3D56"/>
<path d="M51.2319 74.3833C51.7621 74.3833 52.1919 73.9535 52.1919 73.4233C52.1919 72.8932 51.7621 72.4634 51.2319 72.4634C50.7018 72.4634 50.272 72.8932 50.272 73.4233C50.272 73.9535 50.7018 74.3833 51.2319 74.3833Z" fill="#1B3A6C"/>
<path d="M70.0596 71.8726C70.5897 71.8726 71.0195 71.4428 71.0195 70.9126C71.0195 70.3824 70.5897 69.9526 70.0596 69.9526C69.5294 69.9526 69.0996 70.3824 69.0996 70.9126C69.0996 71.4428 69.5294 71.8726 70.0596 71.8726Z" fill="#1B3A6C"/>
<path d="M60.6455 77.0503C61.1757 77.0503 61.6055 76.6205 61.6055 76.0903C61.6055 75.5602 61.1757 75.1304 60.6455 75.1304C60.1153 75.1304 59.6855 75.5602 59.6855 76.0903C59.6855 76.6205 60.1153 77.0503 60.6455 77.0503Z" fill="#1B3A6C"/>
<path d="M41.8179 78.4629C42.348 78.4629 42.7778 78.0331 42.7778 77.5029C42.7778 76.9728 42.348 76.543 41.8179 76.543C41.2877 76.543 40.8579 76.9728 40.8579 77.5029C40.8579 78.0331 41.2877 78.4629 41.8179 78.4629Z" fill="#1B3A6C"/>
<path d="M79.4736 75.3247C80.0038 75.3247 80.4336 74.8949 80.4336 74.3647C80.4336 73.8346 80.0038 73.4048 79.4736 73.4048C78.9435 73.4048 78.5137 73.8346 78.5137 74.3647C78.5137 74.8949 78.9435 75.3247 79.4736 75.3247Z" fill="#1B3A6C"/>
<path d="M33.197 136.964H35.1205L36.0356 129.545L33.1966 129.545L33.197 136.964Z" fill="#9E616A"/>
<path d="M32.7065 138.828L38.9088 138.828V138.75C38.9088 138.109 38.6544 137.495 38.2017 137.043C37.749 136.59 37.1349 136.335 36.4947 136.335L32.7064 136.336L32.7065 138.828Z" fill="#2F2E41"/>
<path d="M40.1006 136.964H42.024L42.9392 129.545L40.1001 129.545L40.1006 136.964Z" fill="#9E616A"/>
<path d="M39.6099 138.828L45.8123 138.828V138.75C45.8122 138.109 45.5579 137.495 45.1051 137.043C44.6524 136.59 44.0384 136.335 43.3981 136.335L39.6098 136.336L39.6099 138.828Z" fill="#2F2E41"/>
<path d="M62.5034 84.9753C62.3496 85.1867 62.1514 85.3618 61.9227 85.4883C61.6939 85.6149 61.4402 85.6897 61.1794 85.7076C60.9186 85.7254 60.6571 85.6859 60.4132 85.5918C60.1694 85.4976 59.9491 85.3512 59.768 85.1627L55.9619 86.649L54.4945 84.5563L59.899 82.5329C60.2358 82.2495 60.6648 82.0996 61.1047 82.1115C61.5447 82.1234 61.965 82.2962 62.286 82.5973C62.607 82.8983 62.8065 83.3067 62.8465 83.745C62.8866 84.1832 62.7645 84.621 62.5034 84.9753Z" fill="#9E616A"/>
<path d="M40.1248 97.6538L45.1361 99.2885L43.462 134.778L39.5944 134.874L37.6152 109.846L37.1657 134.775L32.3835 135.039L30.6206 97.6538H40.1248Z" fill="#2F2E41"/>
<path d="M43.5061 76.7335L30.6443 73.939L29.2141 85.0137L30.405 90.3052L29.928 98.3469C29.928 98.3469 40.098 103.409 45.1361 99.2889C45.1361 99.2889 41.0867 88.6528 43.4339 83.6737L43.5061 76.7335Z" fill="#3F3D56"/>
<path d="M41.2787 78.2997L43.5061 76.7333C43.5061 76.7333 43.6377 76.551 45.4939 78.7211C47.3501 80.8911 51.1157 84.3428 51.1157 84.3428L57.3916 81.9894L58.535 86.2139L51.2411 89.6129L40.9147 82.7164L41.2787 78.2997Z" fill="#3F3D56"/>
<path d="M29.9257 102.498C29.6893 102.386 29.4803 102.224 29.3134 102.023C29.1465 101.822 29.0257 101.587 28.9595 101.334C28.8934 101.081 28.8835 100.816 28.9306 100.559C28.9776 100.302 29.0805 100.058 29.2319 99.8454L27.0626 96.3828L28.8452 94.5513L31.8401 99.4842C32.1812 99.7623 32.4084 100.156 32.4787 100.59C32.549 101.025 32.4575 101.47 32.2215 101.841C31.9856 102.213 31.6215 102.485 31.1984 102.606C30.7752 102.727 30.3224 102.689 29.9257 102.498Z" fill="#9E616A"/>
<path d="M32.6504 76.1202L30.6443 73.9385C30.6443 73.9385 28.4091 73.1601 26.5829 77.1824C24.7567 81.2047 22.717 89.3634 22.717 89.3634L27.4859 98.5494L31.1895 96.8946L27.4859 89.2986L31.4051 83.6733L32.6504 76.1202Z" fill="#3F3D56"/>
<path d="M36.052 73.0302C34.0288 71.9242 33.2853 69.3875 34.3913 67.3643C35.4972 65.3411 38.0339 64.5975 40.0571 65.7035C42.0803 66.8095 42.8239 69.3462 41.7179 71.3694C40.6119 73.3926 38.0752 74.1361 36.052 73.0302Z" fill="#9E616A"/>
<path d="M34.128 66.0292L33.9256 65.6218L34.944 65.1158C34.944 65.1158 36.0675 63.2878 38.1005 63.8015C40.1335 64.3152 41.0482 64.6226 41.0482 64.6226L42.064 65.1338L41.5542 65.6411L42.4688 65.9485L41.8577 66.2521L42.5687 66.6608L42.186 68.7557C42.186 68.7557 41.5503 67.1668 40.3282 67.774C39.1061 68.3812 36.8707 67.4601 36.8707 67.4601L34.9286 71.2186C34.9286 71.2186 34.528 69.9011 33.8137 70.2524C33.8137 70.2524 31.9887 67.346 34.128 66.0292Z" fill="#2F2E41"/>
<path d="M164.027 100.415H104.202C103.647 100.414 103.114 100.133 102.722 99.6326C102.329 99.1326 102.108 98.4546 102.107 97.7474V60.8763C102.108 60.1691 102.329 59.4911 102.722 58.9911C103.114 58.4911 103.647 58.2098 104.202 58.209H164.027C164.583 58.2098 165.115 58.4911 165.508 58.9911C165.901 59.4911 166.121 60.1691 166.122 60.8763V97.7474C166.121 98.4546 165.901 99.1326 165.508 99.6326C165.115 100.133 164.583 100.414 164.027 100.415ZM104.202 58.5228C103.712 58.5235 103.242 58.7717 102.896 59.2129C102.549 59.6541 102.354 60.2523 102.354 60.8763V97.7474C102.354 98.3714 102.549 98.9696 102.896 99.4108C103.242 99.852 103.712 100.1 104.202 100.101H164.027C164.517 100.1 164.987 99.852 165.334 99.4108C165.68 98.9696 165.875 98.3714 165.876 97.7474V60.8763C165.875 60.2523 165.68 59.6541 165.334 59.2129C164.987 58.7717 164.517 58.5235 164.027 58.5228H104.202Z" fill="#A3A3A3"/>
<path d="M109.168 67.3877C109.948 67.3877 110.58 66.7554 110.58 65.9756C110.58 65.1957 109.948 64.5635 109.168 64.5635C108.388 64.5635 107.756 65.1957 107.756 65.9756C107.756 66.7554 108.388 67.3877 109.168 67.3877Z" fill="#CCCCCC"/>
<path d="M109.168 72.7226C109.948 72.7226 110.58 72.0904 110.58 71.3105C110.58 70.5307 109.948 69.8984 109.168 69.8984C108.388 69.8984 107.756 70.5307 107.756 71.3105C107.756 72.0904 108.388 72.7226 109.168 72.7226Z" fill="#CCCCCC"/>
<path d="M109.168 78.0571C109.948 78.0571 110.58 77.4249 110.58 76.645C110.58 75.8651 109.948 75.2329 109.168 75.2329C108.388 75.2329 107.756 75.8651 107.756 76.645C107.756 77.4249 108.388 78.0571 109.168 78.0571Z" fill="#CCCCCC"/>
<path d="M109.168 83.392C109.948 83.392 110.58 82.7598 110.58 81.98C110.58 81.2001 109.948 80.5679 109.168 80.5679C108.388 80.5679 107.756 81.2001 107.756 81.98C107.756 82.7598 108.388 83.392 109.168 83.392Z" fill="#CCCCCC"/>
<path d="M129.761 94.061C130.541 94.061 131.173 93.4288 131.173 92.6489C131.173 91.869 130.541 91.2368 129.761 91.2368C128.981 91.2368 128.349 91.869 128.349 92.6489C128.349 93.4288 128.981 94.061 129.761 94.061Z" fill="#CCCCCC"/>
<path d="M140.548 94.061C141.328 94.061 141.96 93.4288 141.96 92.6489C141.96 91.869 141.328 91.2368 140.548 91.2368C139.768 91.2368 139.136 91.869 139.136 92.6489C139.136 93.4288 139.768 94.061 140.548 94.061Z" fill="#CCCCCC"/>
<path d="M119.562 94.061C120.342 94.061 120.975 93.4288 120.975 92.6489C120.975 91.869 120.342 91.2368 119.562 91.2368C118.783 91.2368 118.15 91.869 118.15 92.6489C118.15 93.4288 118.783 94.061 119.562 94.061Z" fill="#CCCCCC"/>
<path d="M150.785 94.061C151.565 94.061 152.197 93.4288 152.197 92.6489C152.197 91.869 151.565 91.2368 150.785 91.2368C150.006 91.2368 149.373 91.869 149.373 92.6489C149.373 93.4288 150.006 94.061 150.785 94.061Z" fill="#CCCCCC"/>
<path d="M150.864 94.061C151.644 94.061 152.276 93.4288 152.276 92.6489C152.276 91.869 151.644 91.2368 150.864 91.2368C150.084 91.2368 149.452 91.869 149.452 92.6489C149.452 93.4288 150.084 94.061 150.864 94.061Z" fill="#CCCCCC"/>
<path d="M159.493 66.1326H113.051C113.01 66.1326 112.97 66.1161 112.94 66.0867C112.911 66.0573 112.895 66.0174 112.895 65.9757C112.895 65.9341 112.911 65.8942 112.94 65.8648C112.97 65.8354 113.01 65.8188 113.051 65.8188H159.493C159.535 65.8188 159.575 65.8354 159.604 65.8648C159.634 65.8942 159.65 65.9341 159.65 65.9757C159.65 66.0174 159.634 66.0573 159.604 66.0867C159.575 66.1161 159.535 66.1326 159.493 66.1326Z" fill="#CCCCCC"/>
<path d="M159.493 71.4671H113.051C113.01 71.4671 112.97 71.4506 112.94 71.4212C112.911 71.3917 112.895 71.3518 112.895 71.3102C112.895 71.2686 112.911 71.2287 112.94 71.1993C112.97 71.1699 113.01 71.1533 113.051 71.1533H159.493C159.535 71.1533 159.575 71.1699 159.604 71.1993C159.634 71.2287 159.65 71.2686 159.65 71.3102C159.65 71.3518 159.634 71.3917 159.604 71.4212C159.575 71.4506 159.535 71.4671 159.493 71.4671Z" fill="#CCCCCC"/>
<path d="M159.493 76.8016H113.051C113.01 76.8016 112.97 76.7851 112.94 76.7556C112.911 76.7262 112.895 76.6863 112.895 76.6447C112.895 76.6031 112.911 76.5632 112.94 76.5337C112.97 76.5043 113.01 76.4878 113.051 76.4878H159.493C159.535 76.4878 159.575 76.5043 159.604 76.5337C159.634 76.5632 159.65 76.6031 159.65 76.6447C159.65 76.6863 159.634 76.7262 159.604 76.7556C159.575 76.7851 159.535 76.8016 159.493 76.8016Z" fill="#CCCCCC"/>
<path d="M159.493 82.1366H113.051C113.01 82.1366 112.97 82.12 112.94 82.0906C112.911 82.0612 112.895 82.0213 112.895 81.9797C112.895 81.938 112.911 81.8981 112.94 81.8687C112.97 81.8393 113.01 81.8228 113.051 81.8228H159.493C159.535 81.8228 159.575 81.8393 159.604 81.8687C159.634 81.8981 159.65 81.938 159.65 81.9797C159.65 82.0213 159.634 82.0612 159.604 82.0906C159.575 82.12 159.535 82.1366 159.493 82.1366Z" fill="#CCCCCC"/>
<path d="M121.837 87.4708H117.287C117.079 87.4705 116.88 87.3878 116.733 87.2407C116.586 87.0937 116.503 86.8943 116.503 86.6863V82.45C116.503 82.242 116.586 82.0426 116.733 81.8956C116.88 81.7485 117.079 81.6658 117.287 81.6655H121.837C122.045 81.6658 122.245 81.7485 122.392 81.8956C122.539 82.0426 122.622 82.242 122.622 82.45V86.6863C122.622 86.8943 122.539 87.0937 122.392 87.2407C122.245 87.3878 122.045 87.4705 121.837 87.4708Z" fill="#1B3A6C"/>
<path d="M132.036 87.4713H127.486C127.278 87.4711 127.079 87.3884 126.932 87.2413C126.785 87.0942 126.702 86.8948 126.702 86.6869V77.116C126.702 76.908 126.785 76.7087 126.932 76.5616C127.079 76.4145 127.278 76.3318 127.486 76.3315H132.036C132.244 76.3318 132.444 76.4145 132.591 76.5616C132.738 76.7087 132.82 76.908 132.821 77.116V86.6869C132.82 86.8948 132.738 87.0942 132.591 87.2413C132.444 87.3884 132.244 87.4711 132.036 87.4713Z" fill="#1B3A6C"/>
<path d="M142.391 87.4709H137.841C137.633 87.4707 137.434 87.388 137.287 87.2409C137.14 87.0938 137.057 86.8944 137.057 86.6864V71.7811C137.057 71.5731 137.14 71.3737 137.287 71.2266C137.434 71.0796 137.633 70.9968 137.841 70.9966H142.391C142.599 70.9968 142.799 71.0796 142.946 71.2266C143.093 71.3737 143.175 71.5731 143.176 71.7811V86.6864C143.175 86.8944 143.093 87.0938 142.946 87.2409C142.799 87.388 142.599 87.4707 142.391 87.4709Z" fill="#1B3A6C"/>
<path d="M153.06 87.4709H148.51C148.302 87.4706 148.103 87.3879 147.956 87.2408C147.809 87.0938 147.726 86.8944 147.726 86.6864V66.6033C147.726 66.3954 147.809 66.196 147.956 66.0489C148.103 65.9018 148.302 65.8191 148.51 65.8188H153.06C153.268 65.8191 153.468 65.9018 153.615 66.0489C153.762 66.196 153.845 66.3954 153.845 66.6033V86.6864C153.845 86.8944 153.762 87.0938 153.615 87.2408C153.468 87.3879 153.268 87.4706 153.06 87.4709Z" fill="#1B3A6C"/>
<path d="M159.966 137.092C158.555 135.9 157.698 134.017 157.923 132.183C158.148 130.35 159.54 128.664 161.346 128.275C163.151 127.886 165.21 128.964 165.758 130.727C166.06 127.327 166.408 123.784 168.216 120.888C169.853 118.265 172.688 116.389 175.761 116.053C178.835 115.718 182.07 116.985 183.987 119.411C185.903 121.836 186.372 125.363 185.03 128.147C184.041 130.199 182.22 131.725 180.311 132.968C174.143 136.947 166.745 138.566 159.479 137.525L159.966 137.092Z" fill="#4C77BD"/>
<path d="M180.948 117.056C178.412 119.121 176.086 121.431 174.003 123.952C170.743 127.884 168.105 132.293 166.18 137.024C166.04 137.369 166.6 137.519 166.739 137.178C169.888 129.489 174.914 122.711 181.358 117.466C181.647 117.23 181.235 116.822 180.948 117.056Z" fill="white"/>
<path d="M136.946 92.4377C137.145 92.5545 137.367 92.6264 137.596 92.6482C137.826 92.67 138.058 92.6411 138.275 92.5637C138.492 92.4863 138.69 92.3622 138.854 92.2001C139.018 92.038 139.145 91.842 139.225 91.6257L144.83 91.7426L143.277 89.2773L138.192 89.5443C137.82 89.4337 137.42 89.4636 137.069 89.6282C136.717 89.7928 136.438 90.0807 136.284 90.4373C136.13 90.794 136.113 91.1946 136.235 91.5632C136.357 91.9319 136.61 92.2431 136.946 92.4377Z" fill="#FFB8B8"/>
<path d="M139.381 91.542L139.352 89.8238C139.349 89.6465 139.414 89.4748 139.532 89.3425C139.65 89.2102 139.813 89.127 139.99 89.1091L150.063 88.137L158.455 85.3853C158.709 85.3022 158.976 85.2703 159.242 85.2915C159.507 85.3127 159.766 85.3865 160.003 85.5086C160.24 85.6307 160.451 85.7987 160.622 86.0028C160.794 86.2069 160.923 86.4431 161.002 86.6976C161.081 86.9521 161.109 87.2198 161.084 87.4852C161.059 87.7506 160.982 88.0084 160.856 88.2435C160.731 88.4787 160.56 88.6866 160.353 88.8551C160.147 89.0236 159.909 89.1493 159.653 89.225L150.364 91.9753L140.104 92.2359C139.949 92.2397 139.797 92.1924 139.672 92.1013C139.546 92.0102 139.454 91.8803 139.41 91.7318C139.391 91.6701 139.382 91.6063 139.381 91.542Z" fill="#3F3D56"/>
<path d="M154.287 135.838L152.364 135.837L151.449 128.418L154.288 128.418L154.287 135.838Z" fill="#FFB8B8"/>
<path d="M154.778 137.702L148.576 137.702V137.624C148.576 137.307 148.638 136.993 148.759 136.7C148.881 136.407 149.059 136.141 149.283 135.917C149.507 135.692 149.773 135.515 150.066 135.393C150.359 135.272 150.673 135.209 150.99 135.209H150.99L154.778 135.21L154.778 137.702Z" fill="#2F2E41"/>
<path d="M159.936 135.838L158.012 135.837L157.097 128.418L159.936 128.418L159.936 135.838Z" fill="#FFB8B8"/>
<path d="M160.426 137.702L154.224 137.702V137.624C154.224 137.307 154.287 136.993 154.408 136.7C154.529 136.407 154.707 136.141 154.931 135.917C155.155 135.692 155.422 135.515 155.714 135.393C156.007 135.272 156.321 135.209 156.638 135.209H156.638L160.427 135.21L160.426 137.702Z" fill="#2F2E41"/>
<path d="M161.227 105.853L160.767 133.106C160.766 133.192 160.747 133.277 160.711 133.356C160.675 133.434 160.623 133.504 160.559 133.562C160.495 133.62 160.42 133.664 160.338 133.691C160.256 133.718 160.169 133.728 160.083 133.72L157.832 133.515C157.685 133.502 157.546 133.437 157.442 133.331C157.338 133.226 157.275 133.087 157.263 132.939L155.946 115.94C155.942 115.9 155.924 115.863 155.895 115.836C155.865 115.809 155.826 115.794 155.786 115.795C155.746 115.796 155.708 115.812 155.679 115.84C155.651 115.868 155.634 115.906 155.632 115.946L154.974 133.334C154.967 133.497 154.899 133.65 154.782 133.763C154.665 133.875 154.509 133.938 154.346 133.938H151.933C151.773 133.938 151.619 133.877 151.502 133.768C151.386 133.658 151.316 133.508 151.306 133.349L149.616 105.696L159.658 103.186L161.227 105.853Z" fill="#2F2E41"/>
<path d="M153.943 80.2633C156.071 80.2633 157.797 78.538 157.797 76.4097C157.797 74.2815 156.071 72.5562 153.943 72.5562C151.815 72.5562 150.09 74.2815 150.09 76.4097C150.09 78.538 151.815 80.2633 153.943 80.2633Z" fill="#FFB8B8"/>
<path d="M149.272 106.664C149.206 106.599 149.152 106.522 149.116 106.437C149.079 106.352 149.059 106.26 149.058 106.167L148.798 87.5839C148.783 86.6386 149.067 85.7126 149.611 84.9391C150.154 84.1655 150.929 83.5841 151.824 83.2784C152.185 81.6405 154.106 81.4353 155.226 81.4598C155.506 81.4658 155.78 81.5392 156.025 81.6736C156.27 81.8081 156.48 81.9997 156.635 82.2322L157.438 83.4367L159.208 84.4741C160.027 84.9522 160.673 85.6781 161.053 86.5471C161.433 87.4161 161.527 88.3833 161.321 89.3092L161.049 90.5486C160.089 94.9354 160.181 99.4869 161.315 103.832L161.864 105.922C161.892 106.031 161.894 106.145 161.87 106.255C161.845 106.365 161.795 106.467 161.723 106.554C161.651 106.64 161.559 106.708 161.455 106.752C161.351 106.796 161.239 106.814 161.126 106.805L160.49 106.756C160.324 106.744 160.169 106.673 160.05 106.557C159.932 106.442 159.858 106.288 159.841 106.123L159.736 105.069C159.734 105.049 159.725 105.031 159.71 105.018C159.696 105.005 159.677 104.998 159.658 104.998C159.638 104.998 159.62 105.005 159.605 105.018C159.591 105.031 159.582 105.049 159.58 105.069L159.478 106.089C159.461 106.261 159.381 106.421 159.253 106.539C159.125 106.656 158.959 106.722 158.786 106.725L149.775 106.863C149.771 106.863 149.768 106.864 149.764 106.864C149.58 106.864 149.404 106.792 149.272 106.664Z" fill="#3F3D56"/>
<path d="M154.245 78.5807C154.261 79.1254 154.639 79.4406 155.103 79.7259C155.567 80.0112 156.11 80.135 156.642 80.2543C156.713 80.2922 156.793 80.3111 156.874 80.3091C156.955 80.3072 157.034 80.2844 157.103 80.243C157.173 80.2016 157.231 80.143 157.271 80.0728C157.311 80.0027 157.332 79.9234 157.333 79.8425L157.821 77.9875C157.993 77.3949 158.119 76.7896 158.196 76.1773C158.314 74.9991 158.035 73.7317 157.212 72.8799C156.39 72.028 154.964 71.7254 153.978 72.3818C152.809 70.8881 147.463 74.1881 148.782 75.2268C149.017 75.4116 149.375 75.1778 149.673 75.1551C149.971 75.1324 150.304 75.1848 150.493 75.4159C150.741 75.7178 150.633 76.1675 150.735 76.5441C150.777 76.6766 150.845 76.7995 150.935 76.9056C151.024 77.0118 151.134 77.0991 151.258 77.1625C151.382 77.2259 151.517 77.2642 151.656 77.2752C151.794 77.2861 151.934 77.2696 152.066 77.2264C152.312 77.1051 152.544 76.9562 152.756 76.7826C152.985 76.6304 153.273 76.518 153.53 76.614C153.869 76.7405 153.99 77.1553 154.02 77.5158C154.072 77.8752 154.147 78.231 154.245 78.5807Z" fill="#2F2E41"/>
<path opacity="0.2" d="M153.345 88.959L152.717 96.647L149.422 104.649L154.286 96.8039L153.345 88.959Z" fill="black"/>
<path d="M148.652 107.629C148.832 107.485 148.978 107.303 149.08 107.096C149.181 106.889 149.237 106.662 149.241 106.432C149.246 106.201 149.2 105.972 149.107 105.761C149.014 105.55 148.875 105.362 148.702 105.211L150.801 100.012L147.945 100.588L146.389 105.437C146.154 105.746 146.04 106.13 146.069 106.518C146.098 106.905 146.268 107.268 146.547 107.538C146.826 107.808 147.194 107.967 147.582 107.984C147.97 108.001 148.351 107.875 148.652 107.629Z" fill="#FFB8B8"/>
<path d="M148.499 105.336L146.882 104.753C146.716 104.692 146.578 104.571 146.496 104.414C146.415 104.256 146.395 104.074 146.441 103.903L149.108 94.1405L149.514 85.3177C149.526 85.0514 149.591 84.7902 149.706 84.5493C149.82 84.3084 149.981 84.0925 150.179 83.9143C150.377 83.7361 150.609 83.5991 150.861 83.5113C151.112 83.4234 151.379 83.3865 151.645 83.4026C151.911 83.4187 152.171 83.4876 152.411 83.6052C152.65 83.7228 152.863 83.8868 153.039 84.0877C153.214 84.2885 153.348 84.5222 153.432 84.7752C153.516 85.0281 153.549 85.2953 153.529 85.5611L152.803 95.2219L149.405 104.905C149.353 105.052 149.255 105.177 149.125 105.262C148.995 105.347 148.841 105.387 148.687 105.376C148.623 105.371 148.559 105.358 148.499 105.336Z" fill="#3F3D56"/>
<path d="M159.493 87.471H113.051C113.01 87.471 112.97 87.4545 112.94 87.4251C112.911 87.3956 112.895 87.3557 112.895 87.3141C112.895 87.2725 112.911 87.2326 112.94 87.2032C112.97 87.1738 113.01 87.1572 113.051 87.1572H159.493C159.535 87.1572 159.575 87.1738 159.604 87.2032C159.634 87.2326 159.65 87.2725 159.65 87.3141C159.65 87.3557 159.634 87.3956 159.604 87.4251C159.575 87.4545 159.535 87.471 159.493 87.471Z" fill="#3F3D56"/>
<path d="M96.3983 43.7316C96.3983 45.0314 95.3446 46.085 94.0448 46.085H38.8774C37.5776 46.085 36.5239 45.0314 36.5239 43.7316V10.9829C36.5239 9.68308 37.5776 8.62939 38.8774 8.62939H94.0448C95.3446 8.62939 96.3983 9.68308 96.3983 10.9829V43.7316Z" fill="white"/>
<path d="M96.3983 46.085H36.5239V8.62939H96.3983V46.085ZM36.7973 45.8116H96.1249V8.90279H36.7973V45.8116Z" fill="#3F3D56"/>
<path d="M88.0832 38.252H44.8391C44.8032 38.252 44.7688 38.2377 44.7434 38.2123C44.718 38.187 44.7037 38.1525 44.7037 38.1166V17.3897C44.7037 17.3538 44.718 17.3194 44.7434 17.294C44.7688 17.2687 44.8032 17.2544 44.8391 17.2544C44.875 17.2544 44.9094 17.2687 44.9348 17.294C44.9601 17.3194 44.9744 17.3538 44.9744 17.3897V37.9813H88.0832C88.101 37.9812 88.1187 37.9847 88.1351 37.9915C88.1516 37.9982 88.1666 38.0082 88.1792 38.0208C88.1918 38.0334 88.2018 38.0483 88.2086 38.0647C88.2155 38.0812 88.219 38.0988 88.219 38.1166C88.219 38.1344 88.2155 38.1521 88.2086 38.1685C88.2018 38.185 88.1918 38.1999 88.1792 38.2125C88.1666 38.2251 88.1516 38.235 88.1351 38.2418C88.1187 38.2486 88.101 38.252 88.0832 38.252Z" fill="#3F3D56"/>
<path d="M54.0785 36.763H50.1453C50.0388 36.7629 49.9367 36.7205 49.8613 36.6452C49.786 36.5699 49.7437 36.4678 49.7435 36.3613V30.9393C49.7437 30.8328 49.786 30.7307 49.8613 30.6554C49.9367 30.5801 50.0388 30.5377 50.1453 30.5376H54.0785C54.185 30.5377 54.2871 30.5801 54.3624 30.6554C54.4377 30.7307 54.4801 30.8328 54.4802 30.9393V36.3613C54.4801 36.4678 54.4377 36.5699 54.3624 36.6452C54.2871 36.7205 54.185 36.7629 54.0785 36.763Z" fill="#1B3A6C"/>
<path d="M61.2512 36.7631H57.318C57.2115 36.763 57.1094 36.7206 57.0341 36.6453C56.9588 36.57 56.9164 36.4679 56.9163 36.3614V25.7967C56.9164 25.6902 56.9588 25.5881 57.0341 25.5128C57.1094 25.4375 57.2115 25.3951 57.318 25.395H61.2512C61.3577 25.3951 61.4598 25.4375 61.5352 25.5128C61.6105 25.5881 61.6528 25.6902 61.653 25.7967V36.3614C61.6528 36.4679 61.6105 36.57 61.5352 36.6453C61.4598 36.7206 61.3577 36.763 61.2512 36.7631Z" fill="#1B3A6C"/>
<path d="M68.424 36.763H64.4907C64.3842 36.7629 64.2821 36.7205 64.2068 36.6452C64.1315 36.5699 64.0891 36.4678 64.089 36.3613V30.9393C64.0891 30.8328 64.1315 30.7307 64.2068 30.6554C64.2821 30.5801 64.3842 30.5377 64.4907 30.5376H68.424C68.5305 30.5377 68.6326 30.5801 68.7079 30.6554C68.7832 30.7307 68.8256 30.8328 68.8257 30.9393V36.3613C68.8256 36.4678 68.7832 36.5699 68.7079 36.6452C68.6326 36.7205 68.5305 36.7629 68.424 36.763Z" fill="#1B3A6C"/>
<path d="M75.5966 36.7629H71.6633C71.5593 36.7652 71.4585 36.7261 71.3832 36.6542C71.3079 36.5823 71.2642 36.4835 71.2616 36.3794V23.7483C71.2642 23.6443 71.3079 23.5455 71.3832 23.4736C71.4585 23.4017 71.5593 23.3626 71.6633 23.3648H75.5966C75.7006 23.3626 75.8014 23.4017 75.8767 23.4736C75.952 23.5455 75.9957 23.6443 75.9983 23.7483V36.3794C75.9957 36.4835 75.952 36.5823 75.8767 36.6542C75.8014 36.7261 75.7006 36.7652 75.5966 36.7629Z" fill="#1B3A6C"/>
<path d="M82.7694 36.7631H78.8362C78.7297 36.763 78.6276 36.7206 78.5523 36.6453C78.4769 36.57 78.4346 36.4679 78.4344 36.3614V20.1126C78.4346 20.0061 78.4769 19.904 78.5523 19.8287C78.6276 19.7534 78.7297 19.7111 78.8362 19.7109H82.7694C82.8759 19.7111 82.978 19.7534 83.0533 19.8287C83.1287 19.904 83.171 20.0061 83.1711 20.1126V36.3614C83.171 36.4679 83.1287 36.57 83.0533 36.6453C82.978 36.7206 82.8759 36.763 82.7694 36.7631Z" fill="#1B3A6C"/>
<path d="M52.1118 28.9136C52.5603 28.9136 52.9238 28.55 52.9238 28.1016C52.9238 27.6531 52.5603 27.2896 52.1118 27.2896C51.6634 27.2896 51.2998 27.6531 51.2998 28.1016C51.2998 28.55 51.6634 28.9136 52.1118 28.9136Z" fill="#3F3D56"/>
<path d="M59.2845 23.6352C59.733 23.6352 60.0965 23.2717 60.0965 22.8232C60.0965 22.3748 59.733 22.0112 59.2845 22.0112C58.8361 22.0112 58.4725 22.3748 58.4725 22.8232C58.4725 23.2717 58.8361 23.6352 59.2845 23.6352Z" fill="#3F3D56"/>
<path d="M66.4573 28.9136C66.9057 28.9136 67.2693 28.55 67.2693 28.1016C67.2693 27.6531 66.9057 27.2896 66.4573 27.2896C66.0088 27.2896 65.6453 27.6531 65.6453 28.1016C65.6453 28.55 66.0088 28.9136 66.4573 28.9136Z" fill="#3F3D56"/>
<path d="M73.63 21.064C74.0785 21.064 74.442 20.7004 74.442 20.2519C74.442 19.8035 74.0785 19.4399 73.63 19.4399C73.1815 19.4399 72.818 19.8035 72.818 20.2519C72.818 20.7004 73.1815 21.064 73.63 21.064Z" fill="#3F3D56"/>
<path d="M80.8026 18.0869C81.2511 18.0869 81.6146 17.7234 81.6146 17.2749C81.6146 16.8264 81.2511 16.4629 80.8026 16.4629C80.3541 16.4629 79.9906 16.8264 79.9906 17.2749C79.9906 17.7234 80.3541 18.0869 80.8026 18.0869Z" fill="#3F3D56"/>
<path d="M66.4743 28.2837L59.2845 22.8985L52.1929 28.2101L52.0306 27.9935L59.2845 22.5602L66.4401 27.9199L73.5509 20.1385L73.5794 20.1269L80.752 17.2368L80.8532 17.488L73.709 20.3665L66.4743 28.2837Z" fill="#3F3D56"/>
<path d="M145.187 55.6281H105.203C104.517 55.6273 103.859 55.3543 103.373 54.869C102.888 54.3837 102.615 53.7256 102.614 53.0393V21.6354C102.615 21.1326 102.815 20.6505 103.17 20.2949C103.526 19.9394 104.008 19.7393 104.511 19.7388H145.846C146.358 19.7394 146.848 19.9428 147.21 20.3045C147.572 20.6663 147.775 21.1567 147.776 21.6682V53.0393C147.775 53.7256 147.502 54.3837 147.017 54.869C146.531 55.3543 145.873 55.6273 145.187 55.6281Z" fill="white"/>
<path d="M107.714 53.039H142.677C143.342 53.039 143.981 52.7745 144.452 52.3037C144.923 51.8329 145.187 51.1944 145.187 50.5286V26.4371C145.187 25.7713 144.923 25.1328 144.452 24.662C143.981 24.1912 143.342 23.9268 142.677 23.9268H107.714C107.048 23.9268 106.409 24.1912 105.939 24.662C105.468 25.1328 105.203 25.7713 105.203 26.4371V50.5286C105.203 51.1944 105.468 51.8329 105.939 52.3037C106.409 52.7745 107.048 53.039 107.714 53.039Z" fill="#D0E2FF"/>
<path d="M147.74 21.4874H102.578V20.1694C102.579 19.4808 102.853 18.8206 103.34 18.3338C103.827 17.847 104.488 17.5733 105.176 17.5728H145.142C145.83 17.5733 146.491 17.847 146.978 18.3338C147.465 18.8206 147.739 19.4808 147.74 20.1694V21.4874Z" fill="#1B3A6C"/>
<path d="M107.3 20.2059C107.671 20.2059 107.972 19.905 107.972 19.5339C107.972 19.1627 107.671 18.8618 107.3 18.8618C106.929 18.8618 106.628 19.1627 106.628 19.5339C106.628 19.905 106.929 20.2059 107.3 20.2059Z" fill="white"/>
<path d="M109.851 20.2059C110.222 20.2059 110.523 19.905 110.523 19.5339C110.523 19.1627 110.222 18.8618 109.851 18.8618C109.48 18.8618 109.179 19.1627 109.179 19.5339C109.179 19.905 109.48 20.2059 109.851 20.2059Z" fill="white"/>
<path d="M112.402 20.2059C112.773 20.2059 113.074 19.905 113.074 19.5339C113.074 19.1627 112.773 18.8618 112.402 18.8618C112.031 18.8618 111.73 19.1627 111.73 19.5339C111.73 19.905 112.031 20.2059 112.402 20.2059Z" fill="white"/>
<path d="M110.287 35.2172H108.555C108.461 35.2171 108.371 35.1798 108.305 35.1134C108.238 35.047 108.201 34.957 108.201 34.8631V33.1315C108.201 33.0376 108.238 32.9476 108.305 32.8812C108.371 32.8148 108.461 32.7774 108.555 32.7773H110.287C110.38 32.7774 110.47 32.8148 110.537 32.8812C110.603 32.9476 110.641 33.0376 110.641 33.1315V34.8631C110.641 34.957 110.603 35.047 110.537 35.1134C110.47 35.1798 110.38 35.2171 110.287 35.2172Z" fill="#1B3A6C"/>
<path d="M110.287 39.7031H108.555C108.461 39.703 108.371 39.6656 108.305 39.5992C108.238 39.5328 108.201 39.4428 108.201 39.3489V37.6174C108.201 37.5235 108.238 37.4334 108.305 37.367C108.371 37.3006 108.461 37.2633 108.555 37.2632H110.287C110.38 37.2633 110.47 37.3006 110.537 37.367C110.603 37.4334 110.641 37.5235 110.641 37.6174V39.3489C110.641 39.4428 110.603 39.5328 110.537 39.5992C110.47 39.6656 110.38 39.703 110.287 39.7031Z" fill="#64617E"/>
<path d="M110.287 44.1894H108.555C108.461 44.1893 108.371 44.1519 108.305 44.0855C108.238 44.0191 108.201 43.9291 108.201 43.8352V42.1037C108.201 42.0098 108.238 41.9198 108.305 41.8534C108.371 41.787 108.461 41.7496 108.555 41.7495H110.287C110.38 41.7496 110.47 41.787 110.537 41.8534C110.603 41.9198 110.641 42.0098 110.641 42.1037V43.8352C110.641 43.9291 110.603 44.0191 110.537 44.0855C110.47 44.1519 110.38 44.1893 110.287 44.1894Z" fill="white"/>
<path d="M121.62 34.3514H113.277C113.184 34.3512 113.094 34.3138 113.028 34.2474C112.961 34.181 112.924 34.0911 112.924 33.9972C112.924 33.9034 112.961 33.8135 113.028 33.7471C113.094 33.6807 113.184 33.6433 113.277 33.6431H121.62C121.667 33.643 121.713 33.6521 121.756 33.6698C121.799 33.6876 121.838 33.7136 121.871 33.7465C121.904 33.7794 121.93 33.8185 121.948 33.8615C121.966 33.9046 121.975 33.9507 121.975 33.9972C121.975 34.0438 121.966 34.0899 121.948 34.133C121.93 34.176 121.904 34.2151 121.871 34.248C121.838 34.2808 121.799 34.3069 121.756 34.3247C121.713 34.3424 121.667 34.3515 121.62 34.3514Z" fill="white"/>
<path d="M121.62 38.8373H113.277C113.184 38.8371 113.094 38.7997 113.028 38.7333C112.961 38.6669 112.924 38.5769 112.924 38.4831C112.924 38.3893 112.961 38.2993 113.028 38.2329C113.094 38.1665 113.184 38.1291 113.277 38.1289H121.62C121.714 38.1289 121.804 38.1662 121.871 38.2326C121.937 38.2991 121.975 38.3892 121.975 38.4831C121.975 38.577 121.937 38.6671 121.871 38.7335C121.804 38.7999 121.714 38.8373 121.62 38.8373Z" fill="white"/>
<path d="M121.62 43.3236H113.277C113.184 43.3234 113.094 43.286 113.028 43.2196C112.961 43.1532 112.924 43.0632 112.924 42.9694C112.924 42.8756 112.961 42.7856 113.028 42.7192C113.094 42.6528 113.184 42.6154 113.277 42.6152H121.62C121.667 42.6151 121.713 42.6242 121.756 42.642C121.799 42.6597 121.838 42.6858 121.871 42.7187C121.904 42.7516 121.93 42.7907 121.948 42.8337C121.966 42.8767 121.975 42.9228 121.975 42.9694C121.975 43.016 121.966 43.0621 121.948 43.1051C121.93 43.1481 121.904 43.1872 121.871 43.2201C121.838 43.253 121.799 43.2791 121.756 43.2968C121.713 43.3146 121.667 43.3237 121.62 43.3236Z" fill="white"/>
<path d="M142.176 38.5952C142.185 38.4463 142.19 38.2964 142.19 38.1453C142.19 36.1763 141.407 34.2879 140.015 32.8957C138.623 31.5034 136.734 30.7212 134.766 30.7212V38.5952H142.176Z" fill="#1B3A6C"/>
<path d="M134.203 39.2705V31.3965C132.754 31.3964 131.336 31.8205 130.125 32.6164C128.914 33.4124 127.963 34.5453 127.388 35.8756C126.813 37.2059 126.64 38.6754 126.89 40.1028C127.141 41.5302 127.803 42.8532 128.796 43.9085C129.789 44.9639 131.07 45.7055 132.479 46.0419C133.889 46.3783 135.366 46.2948 136.729 45.8016C138.092 45.3085 139.28 44.4273 140.148 43.2668C141.016 42.1062 141.525 40.717 141.613 39.2705H134.203Z" fill="#64617E"/>
<path d="M97.7362 136.105H99.6597L100.575 128.686L97.7358 128.686L97.7362 136.105Z" fill="#FFB6B6"/>
<path d="M97.2456 135.477L101.034 135.477C101.674 135.477 102.288 135.731 102.741 136.184C103.194 136.636 103.448 137.25 103.448 137.891V137.969L97.2457 137.969L97.2456 135.477Z" fill="#2F2E41"/>
<path d="M106.836 136.105H108.76L109.675 128.686L106.836 128.686L106.836 136.105Z" fill="#FFB6B6"/>
<path d="M106.346 135.477L110.134 135.477C110.774 135.477 111.388 135.731 111.841 136.184C112.294 136.636 112.548 137.25 112.548 137.891V137.969L106.346 137.969L106.346 135.477Z" fill="#2F2E41"/>
<path d="M110.426 102.186C110.589 102.001 110.709 101.782 110.778 101.546C110.847 101.309 110.863 101.06 110.825 100.817C110.788 100.573 110.697 100.341 110.56 100.136C110.423 99.9314 110.243 99.7592 110.032 99.6317L106.902 84.6025L103.491 85.9462L107.641 100.297C107.45 100.665 107.401 101.091 107.503 101.493C107.605 101.895 107.851 102.246 108.194 102.479C108.538 102.712 108.954 102.81 109.366 102.756C109.777 102.702 110.154 102.5 110.426 102.186Z" fill="#FFB6B6"/>
<path d="M95.6732 99.2914L94.2554 100.731C94.2554 100.731 92.7353 106.301 95.6441 113.171L97.5896 133.089L101.09 133.353L102.135 110.18L106.956 117.872L106.114 133.271L109.984 133.182L111.732 116.119L106.956 98.313L95.6732 99.2914Z" fill="#2F2E41"/>
<path d="M100.631 101.23C98.4958 101.216 96.3635 101.075 94.2452 100.809L94.1599 100.797L96.2728 91.5111L95.5453 79.5632L102.415 79.3278C103.037 79.3053 103.646 79.5133 104.124 79.9118C104.602 80.3104 104.916 80.8715 105.005 81.4873L106.411 91.0198L107.712 99.477L107.694 99.5024C106.76 100.873 103.635 101.23 100.631 101.23Z" fill="#6C63FF"/>
<path d="M101.79 81.304L103.186 79.5541C103.186 79.5541 105.633 77.8806 106.408 81.4667C107.182 85.0527 108.621 90.8743 108.621 90.8743L103.836 91.2618L101.79 81.304Z" fill="#6C63FF"/>
<path d="M88.5625 102.342C88.3999 102.157 88.2799 101.939 88.2109 101.702C88.142 101.465 88.1257 101.217 88.1633 100.973C88.2009 100.73 88.2914 100.497 88.4285 100.292C88.5655 100.088 88.7459 99.9155 88.9567 99.7879L92.087 84.7588L95.4974 86.1024L91.348 100.453C91.5388 100.822 91.5878 101.247 91.4857 101.649C91.3837 102.051 91.1377 102.402 90.7943 102.635C90.451 102.868 90.0342 102.967 89.6228 102.913C89.2115 102.859 88.8342 102.656 88.5625 102.342Z" fill="#FFB6B6"/>
<path d="M97.1983 81.4607L95.8024 79.7108C95.8024 79.7108 93.3552 78.0373 92.5807 81.6234C91.8063 85.2095 90.3673 91.0311 90.3673 91.0311L95.1524 91.4186L97.1983 81.4607Z" fill="#6C63FF"/>
<path d="M103.081 77.5804H93.9808C93.7936 77.5802 93.6142 77.5058 93.4818 77.3734C93.3494 77.241 93.275 77.0616 93.2748 76.8744V72.9519C93.2748 71.5579 93.8285 70.221 94.8143 69.2353C95.8 68.2496 97.1369 67.6958 98.5309 67.6958C99.9249 67.6958 101.262 68.2496 102.248 69.2353C103.233 70.221 103.787 71.5579 103.787 72.9519V76.8744C103.787 77.0616 103.712 77.241 103.58 77.3734C103.448 77.5058 103.268 77.5802 103.081 77.5804Z" fill="#2F2E41"/>
<path d="M99.5356 77.3439C101.664 77.3439 103.389 75.6186 103.389 73.4903C103.389 71.362 101.664 69.6367 99.5356 69.6367C97.4073 69.6367 95.682 71.362 95.682 73.4903C95.682 75.6186 97.4073 77.3439 99.5356 77.3439Z" fill="#FFB6B6"/>
<path d="M105.031 73.3437H99.466L99.409 72.5448L99.1237 73.3437H98.2668L98.1538 71.7603L97.5883 73.3437H95.9304V73.2652C95.9317 72.1629 96.3701 71.1061 97.1496 70.3266C97.929 69.5471 98.9859 69.1087 100.088 69.1074H100.873C101.975 69.1087 103.032 69.5471 103.811 70.3266C104.591 71.1061 105.029 72.1629 105.031 73.2652V73.3437Z" fill="#2F2E41"/>
<path d="M99.4206 78.3127C99.3787 78.3126 99.3369 78.3089 99.2956 78.3016L95.2211 77.5827V70.8486H99.7064L99.5953 70.9781C98.0503 72.78 99.2143 75.7018 100.046 77.283C100.107 77.3988 100.134 77.5296 100.124 77.6602C100.115 77.7909 100.068 77.9161 99.9904 78.0215C99.9252 78.1117 99.8396 78.185 99.7405 78.2357C99.6415 78.2863 99.5318 78.3127 99.4206 78.3127Z" fill="#2F2E41"/>
</svg>
