<svg width="105" height="114" viewBox="0 0 105 114" fill="none" xmlns="http://www.w3.org/2000/svg">
<path d="M8.32208 103.476V104.747H1.03351V103.476H8.32208ZM5.35699 100.373V108.114H4.0059V100.373H5.35699Z" fill="#E5E5E5"/>
<path d="M32.118 79.6815V80.9522H24.8294V79.6815H32.118ZM29.1529 76.5776V84.319H27.8018V76.5776H29.1529Z" fill="#E5E5E5"/>
<path d="M55.9119 8.29622V9.56698H48.6234V8.29622H55.9119ZM52.9468 5.19238V12.9337H51.5957V5.19238H52.9468Z" fill="#E5E5E5"/>
<path d="M55.9119 32.0911V33.3619H48.6234V32.0911H55.9119ZM52.9468 28.9873V36.7287H51.5957V28.9873H52.9468Z" fill="#E5E5E5"/>
<path d="M55.9119 55.8866V57.1573H48.6234V55.8866H55.9119ZM52.9468 52.7827V60.5241H51.5957V52.7827H52.9468Z" fill="#6246E5"/>
<path d="M55.9119 79.6815V80.9522H48.6234V79.6815H55.9119ZM52.9468 76.5776V84.319H51.5957V76.5776H52.9468Z" fill="#E5E5E5"/>
<path d="M55.9119 103.476V104.747H48.6234V103.476H55.9119ZM52.9468 100.373V108.114H51.5957V100.373H52.9468Z" fill="#E5E5E5"/>
<path d="M79.7078 8.29622V9.56698H72.4193V8.29622H79.7078ZM76.7427 5.19238V12.9337H75.3916V5.19238H76.7427Z" fill="#E5E5E5"/>
<path d="M79.7078 32.0911V33.3619H72.4193V32.0911H79.7078ZM76.7427 28.9873V36.7287H75.3916V28.9873H76.7427Z" fill="#E5E5E5"/>
<path d="M79.7078 55.8866V57.1573H72.4193V55.8866H79.7078ZM76.7427 52.7827V60.5241H75.3916V52.7827H76.7427Z" fill="#E5E5E5"/>
<path d="M79.7078 79.6815V80.9522H72.4193V79.6815H79.7078ZM76.7427 76.5776V84.319H75.3916V76.5776H76.7427Z" fill="#E5E5E5"/>
<path d="M79.7078 103.476V104.747H72.4193V103.476H79.7078ZM76.7427 100.373V108.114H75.3916V100.373H76.7427Z" fill="#E5E5E5"/>
<path d="M103.502 8.29622V9.56698H96.2132V8.29622H103.502ZM100.537 5.19238V12.9337H99.1856V5.19238H100.537Z" fill="#FF7152"/>
<path d="M103.502 32.0911V33.3619H96.2132V32.0911H103.502ZM100.537 28.9873V36.7287H99.1856V28.9873H100.537Z" fill="#E5E5E5"/>
<path d="M103.502 55.8866V57.1573H96.2132V55.8866H103.502ZM100.537 52.7827V60.5241H99.1856V52.7827H100.537Z" fill="#E5E5E5"/>
<path d="M103.502 79.6815V80.9522H96.2132V79.6815H103.502ZM100.537 76.5776V84.319H99.1856V76.5776H100.537Z" fill="#E5E5E5"/>
<path d="M103.502 103.476V104.747H96.2132V103.476H103.502ZM100.537 100.373V108.114H99.1856V100.373H100.537Z" fill="#E5E5E5"/>
</svg>
