<svg width="285" height="587" viewBox="0 0 285 587" fill="none" xmlns="http://www.w3.org/2000/svg">
<mask id="mask0_546_6197" style="mask-type:luminance" maskUnits="userSpaceOnUse" x="-242" y="0" width="527" height="587">
<path d="M285 0H-242V587H285V0Z" fill="white"/>
</mask>
<g mask="url(#mask0_546_6197)">
<path d="M79.3736 342.094L115.406 277.442H43.415L79.3736 342.094Z" fill="#486072"/>
<path d="M-0.736969 185.192L75.5677 42.373H-77.0172L-0.736969 185.192Z" fill="#1F303C"/>
<path d="M40.0315 126.433L-36.2487 269.252H116.263L40.0315 126.433Z" fill="#56DDE8"/>
<path d="M59.2457 147.811L74.5164 120.427H44.0239L59.2457 147.811Z" fill="#486072"/>
<path d="M24.4656 303.573L39.6873 276.216H9.21936L24.4656 303.573Z" fill="#486072"/>
<path d="M81.8292 356.183L45.7971 420.835H117.861L81.8292 356.183Z" fill="#486072"/>
<path d="M122.103 278.642L86.0708 343.321H158.061L122.103 278.642Z" fill="#486072"/>
<path d="M122.054 417.915L158.061 353.263H86.0708L122.054 417.915Z" fill="#56DDE8"/>
<path d="M123.129 261.062L159.186 196.355H87.1709L123.129 261.062Z" fill="#1F303C"/>
<path d="M102.538 161.654L87.2676 188.983H117.711L102.538 161.654Z" fill="#486072"/>
<path d="M162.894 355.116L147.696 382.446H178.164L162.894 355.116Z" fill="#486072"/>
<path d="M141.241 396.07L126.019 423.4H156.463L141.241 396.07Z" fill="#486072"/>
<path d="M181.959 396.07L166.713 423.4H197.18L181.959 396.07Z" fill="#486072"/>
<path d="M163.604 200.015L148.333 227.399H178.776L163.604 200.015Z" fill="#486072"/>
<path d="M142.573 240.255L127.302 267.612H157.794L142.573 240.255Z" fill="#486072"/>
<path d="M182.596 240.255L167.374 267.612H197.842L182.596 240.255Z" fill="#486072"/>
<path d="M162.547 263.599L177.793 236.242H147.325L162.547 263.599Z" fill="#56DDE8"/>
</g>
</svg>
