<svg width="206" height="152" viewBox="0 0 206 152" fill="none" xmlns="http://www.w3.org/2000/svg">
<path d="M178.784 65.0783C179.516 59.1725 183.167 53.3535 188.784 51.4316C186.569 57.5104 186.569 64.1789 188.786 70.2574C189.649 72.5985 190.852 75.1122 190.04 77.4717C189.535 78.9398 188.299 80.0631 186.918 80.7654C185.536 81.4677 184.003 81.8025 182.489 82.1305L182.191 82.3776C179.787 76.936 178.051 70.9842 178.784 65.0783Z" fill="#4C77BD"/>
<path d="M188.84 51.5439C185.568 55.2191 183.535 59.8343 183.029 64.7341C182.901 65.787 182.94 66.8535 183.143 67.8943C183.374 68.9017 183.87 69.8288 184.579 70.5792C185.226 71.2921 185.971 71.9462 186.434 72.8045C186.664 73.2474 186.799 73.7341 186.829 74.2328C186.858 74.7314 186.783 75.2308 186.607 75.698C186.198 76.8738 185.392 77.8321 184.571 78.7418C183.66 79.7519 182.698 80.7865 182.311 82.1256C182.264 82.2878 182.016 82.2054 182.062 82.0434C182.736 79.7136 184.992 78.3903 186.068 76.2919C186.569 75.3127 186.78 74.176 186.31 73.1424C185.898 72.2386 185.131 71.5634 184.47 70.8472C183.767 70.1254 183.252 69.2421 182.968 68.2744C182.712 67.2474 182.633 66.1842 182.733 65.1303C182.92 62.7542 183.479 60.4225 184.389 58.2205C185.414 55.7015 186.86 53.3769 188.667 51.3472C188.779 51.2216 188.951 51.4191 188.84 51.5439Z" fill="white"/>
<path d="M183.1 63.146C182.291 62.9493 181.579 62.4708 181.09 61.7961C180.601 61.1213 180.367 60.2943 180.43 59.4626C180.443 59.2944 180.705 59.3072 180.691 59.4757C180.631 60.25 180.849 61.0204 181.306 61.6478C181.762 62.2752 182.428 62.7182 183.182 62.897C183.345 62.936 183.262 63.1849 183.1 63.146Z" fill="white"/>
<path d="M184.204 70.2602C185.664 69.3862 186.741 67.9925 187.222 66.357C187.27 66.1949 187.518 66.2774 187.471 66.4392C186.967 68.1402 185.843 69.5883 184.321 70.4945C184.176 70.5808 184.059 70.346 184.204 70.2602Z" fill="white"/>
<path d="M185.657 55.9494C185.954 56.0908 186.281 56.1562 186.61 56.1394C186.938 56.1227 187.257 56.0245 187.538 55.8536C187.682 55.7655 187.799 56.0004 187.656 56.0879C187.344 56.2753 186.992 56.3833 186.629 56.4026C186.266 56.4218 185.905 56.3518 185.575 56.1984C185.543 56.1866 185.516 56.1629 185.501 56.1321C185.485 56.1013 185.482 56.0658 185.492 56.0328C185.503 55.9998 185.526 55.9726 185.557 55.957C185.588 55.9414 185.624 55.9386 185.657 55.9494Z" fill="white"/>
<path d="M205.908 61.98C205.82 62.0376 205.731 62.0951 205.643 62.1549C204.46 62.9349 203.342 63.81 202.3 64.7715C202.219 64.8446 202.137 64.9199 202.057 64.9951C199.572 67.3385 197.543 70.1241 196.072 73.2103C195.488 74.4389 194.997 75.7104 194.606 77.0135C194.065 78.8133 193.621 80.8079 192.55 82.28C192.44 82.4349 192.321 82.5827 192.192 82.7228H182.515C182.493 82.7117 182.471 82.7028 182.449 82.6918L182.062 82.7095C182.078 82.6409 182.096 82.57 182.111 82.5014C182.12 82.4616 182.131 82.4217 182.14 82.3819C182.146 82.3553 182.153 82.3287 182.158 82.3044C182.16 82.2955 182.162 82.2867 182.164 82.28C182.168 82.2557 182.175 82.2335 182.18 82.2114C182.277 81.8151 182.377 81.4189 182.48 81.0226C182.48 81.0204 182.48 81.0204 182.482 81.0182C183.238 77.9912 184.35 75.0648 185.794 72.3005C185.838 72.2186 185.882 72.1344 185.931 72.0526C186.599 70.8289 187.367 69.662 188.225 68.5637C188.697 67.9638 189.199 67.3882 189.728 66.8392C191.1 65.4232 192.686 64.2324 194.427 63.3105C197.898 61.473 201.916 60.7691 205.625 61.8915C205.72 61.9202 205.813 61.949 205.908 61.98Z" fill="#4C77BD"/>
<path d="M205.885 62.1038C201.066 63.0634 196.671 65.521 193.325 69.1275C192.591 69.8911 191.981 70.766 191.519 71.7199C191.098 72.6637 190.937 73.7032 191.053 74.7304C191.142 75.6904 191.343 76.662 191.197 77.6268C191.116 78.1196 190.931 78.5894 190.655 79.0055C190.379 79.4216 190.019 79.7746 189.598 80.0413C188.565 80.7333 187.347 81.0121 186.145 81.2431C184.811 81.4996 183.422 81.7449 182.308 82.5803C182.174 82.6815 182.025 82.4658 182.159 82.3647C184.096 80.9112 186.692 81.2162 188.811 80.1901C189.8 79.7114 190.65 78.9309 190.895 77.8216C191.11 76.8515 190.903 75.8494 190.804 74.8783C190.677 73.8778 190.796 72.8614 191.15 71.9176C191.563 70.9432 192.138 70.0462 192.851 69.2652C194.427 67.4812 196.274 65.9568 198.322 64.7479C200.653 63.3552 203.204 62.3724 205.865 61.8422C206.03 61.8094 206.049 62.0712 205.885 62.1038Z" fill="white"/>
<path d="M194.336 67.9026C193.808 67.2575 193.527 66.4455 193.542 65.6116C193.556 64.7777 193.866 63.9761 194.416 63.3501C194.528 63.2239 194.729 63.3919 194.617 63.5183C194.104 64.1003 193.815 64.847 193.803 65.6235C193.791 66.4001 194.056 67.1555 194.551 67.7533C194.658 67.8833 194.442 68.0319 194.336 67.9026Z" fill="white"/>
<path d="M190.945 74.2491C192.636 74.4325 194.333 73.9704 195.699 72.9547C195.834 72.854 195.983 73.0697 195.848 73.1703C194.425 74.2246 192.657 74.702 190.898 74.5072C190.731 74.4885 190.778 74.2305 190.945 74.2491Z" fill="white"/>
<path d="M60.4106 14.5105C59.6781 8.60468 56.0276 2.78571 50.4101 0.86377C52.6255 6.94255 52.625 13.6111 50.4087 19.6895C49.5455 22.0306 48.3423 24.5444 49.1543 26.9039C49.6595 28.372 50.8953 29.4952 52.2768 30.1976C53.6583 30.8999 55.1916 31.2347 56.7056 31.5627L57.0036 31.8098C59.4071 26.3682 61.1432 20.4164 60.4106 14.5105Z" fill="#4C77BD"/>
<path d="M50.3535 0.97606C53.6249 4.65125 55.6582 9.26652 56.1646 14.1663C56.2923 15.2192 56.2536 16.2857 56.0501 17.3265C55.8191 18.3339 55.3233 19.261 54.6142 20.0114C53.967 20.7243 53.2226 21.3784 52.7595 22.2367C52.529 22.6796 52.3944 23.1663 52.3647 23.665C52.3349 24.1636 52.4106 24.663 52.5868 25.1302C52.9957 26.306 53.8015 27.2643 54.622 28.174C55.533 29.184 56.4952 30.2187 56.8825 31.5578C56.9294 31.72 57.1777 31.6375 57.1309 31.4755C56.4571 29.1458 54.2015 27.8224 53.1258 25.7241C52.6239 24.7449 52.4132 23.6082 52.8837 22.5746C53.2952 21.6708 54.0622 20.9956 54.7237 20.2794C55.4262 19.5576 55.9418 18.6743 56.2253 17.7066C56.481 16.6796 56.5606 15.6163 56.4606 14.5625C56.2731 12.1864 55.7142 9.85466 54.8043 7.65265C53.7798 5.13373 52.333 2.8091 50.5266 0.779341C50.4148 0.653754 50.2424 0.851298 50.3535 0.97606Z" fill="white"/>
<path d="M56.0958 12.5782C56.9042 12.3814 57.6165 11.9029 58.1055 11.2282C58.5945 10.5535 58.8283 9.72641 58.7653 8.89475C58.752 8.72652 58.4906 8.73937 58.504 8.90783C58.5641 9.68216 58.3462 10.4525 57.8895 11.0799C57.4329 11.7073 56.7676 12.1503 56.0138 12.3291C55.85 12.3681 55.9329 12.617 56.0958 12.5782Z" fill="white"/>
<path d="M54.9907 19.6924C53.5307 18.8183 52.4529 17.4246 51.9722 15.7891C51.9247 15.6271 51.6763 15.7095 51.7238 15.8714C52.2272 17.5723 53.3517 19.0204 54.8731 19.9267C55.0181 20.0129 55.135 19.7782 54.9907 19.6924Z" fill="white"/>
<path d="M53.5382 5.38155C53.2413 5.52303 52.9139 5.58835 52.5856 5.57164C52.2572 5.55492 51.9381 5.4567 51.657 5.28579C51.5131 5.19771 51.3964 5.43257 51.5393 5.52007C51.8508 5.70745 52.2034 5.81548 52.5661 5.83476C52.9288 5.85403 53.2908 5.78395 53.6203 5.63062C53.6525 5.61878 53.6791 5.59506 53.6945 5.56429C53.71 5.53352 53.7132 5.49799 53.7035 5.46495C53.6924 5.43203 53.6689 5.40482 53.638 5.3892C53.607 5.37358 53.5712 5.37083 53.5382 5.38155Z" fill="white"/>
<path d="M33.2874 11.4121C33.3757 11.4697 33.464 11.5272 33.5524 11.587C34.7354 12.367 35.8533 13.2421 36.8951 14.2037C36.9768 14.2767 37.0585 14.352 37.138 14.4272C39.6231 16.7706 41.6527 19.5562 43.1236 22.6424C43.7078 23.8711 44.1979 25.1425 44.5897 26.4457C45.1306 28.2454 45.5744 30.24 46.6452 31.7122C46.7552 31.867 46.8747 32.0149 47.0029 32.1549H56.6802C56.7022 32.1438 56.7243 32.135 56.7464 32.1239L57.1328 32.1416C57.1173 32.073 57.0997 32.0022 57.0842 31.9335C57.0753 31.8937 57.0644 31.8538 57.0555 31.814C57.0489 31.7874 57.0422 31.7609 57.0378 31.7365C57.0357 31.7277 57.0334 31.7188 57.0312 31.7122C57.0268 31.6878 57.0201 31.6657 57.0157 31.6435C56.9186 31.2473 56.8185 30.851 56.7155 30.4548C56.7155 30.4525 56.7155 30.4525 56.7133 30.4503C55.9571 27.4233 54.8453 24.497 53.4014 21.7326C53.3572 21.6507 53.3131 21.5666 53.2645 21.4847C52.5959 20.261 51.8287 19.0942 50.9705 17.9958C50.4986 17.3959 49.9968 16.8203 49.4669 16.2713C48.095 14.8553 46.5095 13.6645 44.7685 12.7426C41.2976 10.9052 37.2793 10.2012 33.5699 11.3236C33.4751 11.3524 33.3822 11.3811 33.2874 11.4121Z" fill="#4C77BD"/>
<path d="M33.3092 11.5359C38.1281 12.4956 42.5229 14.9532 45.8695 18.5597C46.6037 19.3233 47.2132 20.1982 47.6757 21.1521C48.0962 22.0959 48.257 23.1354 48.1414 24.1626C48.0528 25.1226 47.8512 26.0942 47.9969 27.059C48.0787 27.5517 48.2636 28.0216 48.5392 28.4377C48.8149 28.8538 49.1752 29.2068 49.5965 29.4735C50.6289 30.1655 51.8478 30.4442 53.0492 30.6753C54.3831 30.9318 55.7726 31.1771 56.8859 32.0125C57.0208 32.1137 57.1696 31.8979 57.0349 31.7969C55.098 30.3434 52.5024 30.6484 50.3834 29.6223C49.3947 29.1436 48.5439 28.3631 48.299 27.2538C48.0848 26.2837 48.2918 25.2816 48.3899 24.3104C48.5173 23.31 48.3986 22.2935 48.0439 21.3498C47.6313 20.3753 47.0564 19.4784 46.3438 18.6974C44.7673 16.9134 42.9208 15.389 40.8721 14.1801C38.5415 12.7874 35.9904 11.8046 33.3293 11.2744C33.1646 11.2416 33.1455 11.5034 33.3092 11.5359Z" fill="white"/>
<path d="M44.8598 17.3348C45.3871 16.6897 45.6685 15.8777 45.6537 15.0438C45.639 14.2098 45.3291 13.4083 44.7794 12.7823C44.6678 12.656 44.4668 12.8241 44.5786 12.9505C45.0916 13.5325 45.3802 14.2792 45.3923 15.0557C45.4044 15.8323 45.1393 16.5877 44.6447 17.1855C44.5374 17.3155 44.7531 17.4641 44.8598 17.3348Z" fill="white"/>
<path d="M48.2492 23.6812C46.5586 23.8647 44.8611 23.4025 43.4952 22.3869C43.36 22.2861 43.2112 22.5019 43.3463 22.6025C44.7696 23.6567 46.537 24.1341 48.2959 23.9393C48.4635 23.9206 48.4159 23.6627 48.2492 23.6812Z" fill="white"/>
<path opacity="0.6" d="M108.098 151.127C161.008 151.127 203.899 150.375 203.899 149.447C203.899 148.518 161.008 147.766 108.098 147.766C55.1886 147.766 12.2969 148.518 12.2969 149.447C12.2969 150.375 55.1886 151.127 108.098 151.127Z" fill="#929292"/>
<path d="M196.445 30.2279C196.445 30.2279 194.563 29.4623 188.575 32.2159C182.587 34.9695 181.84 34.6215 180.29 34.2075C178.741 33.7935 177.876 33.6864 176.215 31.3861C176.215 31.3861 175.042 25.0134 173.902 24.0247C172.762 23.0361 167.948 24.5887 167.948 24.5887C167.948 24.5887 162.168 25.9182 161.067 18.1642C161.067 18.1642 161.848 12.3251 160.784 10.5334C160.784 10.5334 162.933 11.4614 166.477 9.96233C170.02 8.46329 172.858 11.5774 172.858 11.5774C172.858 11.5774 173.747 13.8973 173.658 15.2821C173.569 16.667 174.132 17.1863 175.822 16.5171C175.822 16.5171 176.652 15.3321 175.476 13.3726C174.301 11.4132 173.461 9.95519 173.788 8.43474C174.116 6.91428 175.06 4.80313 178.093 3.74845C181.126 2.69377 185.245 2.49925 187.221 1.66586C189.197 0.83246 189.685 0.300659 189.685 0.300659C189.685 0.300659 188.468 1.52309 191.334 6.70727C194.2 11.8914 192.373 14.14 192.373 14.14C192.373 14.14 190.848 17.7859 184.117 17.4897C184.117 17.4897 177.631 17.727 181.167 20.4859C181.167 20.4859 183.432 20.0237 186.817 18.9441C190.202 17.8644 192.647 22.3205 193.253 25.4203C193.86 28.5201 196.445 30.2279 196.445 30.2279Z" fill="#4C77BD"/>
<path d="M187.726 4.22683L187.762 4.21613C188.022 5.20478 185.124 9.1808 182.646 12.3413L182.617 12.3181C186.111 7.86736 187.927 4.99241 187.726 4.22683Z" fill="white"/>
<path d="M182.667 12.2575L182.683 12.2968C180.703 14.8202 178.214 17.8289 176.222 20.065C176.031 20.2774 175.843 20.5004 175.661 20.7289L175.604 20.6825C175.782 20.454 175.976 20.2292 176.167 20.0168C178.157 17.7897 180.685 14.7827 182.667 12.2575Z" fill="white"/>
<path d="M175.653 20.6254L175.692 20.6932C172.067 25.235 171.827 32.293 171.818 32.3483L171.053 31.456C171.062 31.3989 172.003 25.1993 175.653 20.6254Z" fill="white"/>
<path d="M192.248 27.7652C192.248 27.7652 187.978 25.5344 184.641 26.3375C181.304 27.1406 173.799 23.5 173.799 23.5C173.799 23.5 170.614 22.2026 169.974 20.7232C169.974 20.7232 167.787 18.4033 167.661 17.2059C167.535 16.0084 165.409 12.9907 164.021 12.8747" stroke="white" stroke-width="0.177894" stroke-miterlimit="10"/>
<path d="M191.62 29.9119C191.62 29.9119 189.468 28.4557 189.719 26.7604" stroke="white" stroke-width="0.177894" stroke-miterlimit="10"/>
<path d="M188.319 31.7913C188.319 31.7913 185.24 30.6706 184.939 26.2734" stroke="white" stroke-width="0.177894" stroke-miterlimit="10"/>
<path d="M183.354 32.9299C183.354 32.9299 180.411 30.4814 181.388 26.202" stroke="white" stroke-width="0.177894" stroke-miterlimit="10"/>
<path d="M177.379 31.7342C177.379 31.7342 175.422 27.6118 177.163 24.9296" stroke="white" stroke-width="0.177894" stroke-miterlimit="10"/>
<path d="M192.289 25.0474C192.289 25.0474 190.064 25.7613 190.541 26.9319" stroke="white" stroke-width="0.177894" stroke-miterlimit="10"/>
<path d="M189.603 21.0017C189.603 21.0017 186.623 21.9493 186.554 26.177" stroke="white" stroke-width="0.177894" stroke-miterlimit="10"/>
<path d="M185.448 20.0167C185.448 20.0167 182.735 23.3752 182.934 26.4268" stroke="white" stroke-width="0.177894" stroke-miterlimit="10"/>
<path d="M180.698 21.3335C180.698 21.3335 178.004 23.9176 178.348 25.3541" stroke="white" stroke-width="0.177894" stroke-miterlimit="10"/>
<path d="M179.074 20.4216C179.074 20.4216 176.548 20.8749 176.194 20.0433" stroke="white" stroke-width="0.177894" stroke-miterlimit="10"/>
<path d="M175.792 17.3629C175.792 17.3629 177.067 19.0582 177.393 18.6781" stroke="white" stroke-width="0.177894" stroke-miterlimit="10"/>
<path d="M188.443 16.2906C188.443 16.2906 182.075 16.7545 180.634 14.8272" stroke="white" stroke-width="0.177894" stroke-miterlimit="10"/>
<path d="M174.459 8.81842C174.459 8.81842 177.446 15.2518 179.618 16.0709" stroke="white" stroke-width="0.177894" stroke-miterlimit="10"/>
<path d="M177.586 5.75427C177.586 5.75427 179.42 11.6719 181.693 13.5189" stroke="white" stroke-width="0.177894" stroke-miterlimit="10"/>
<path d="M191.123 11.4062C191.123 11.4062 186.281 13.4906 183.374 11.3812" stroke="white" stroke-width="0.13342" stroke-miterlimit="10"/>
<path d="M181.899 4.49268C181.899 4.49268 183.006 8.84167 184.497 9.89279" stroke="white" stroke-width="0.13342" stroke-miterlimit="10"/>
<path d="M190.392 6.53253C190.392 6.53253 187.67 7.56758 186.656 6.77523" stroke="white" stroke-width="0.13342" stroke-miterlimit="10"/>
<path d="M173.46 18.7836C173.46 18.7836 173.46 22.5758 172.432 22.8453" stroke="white" stroke-width="0.177894" stroke-miterlimit="10"/>
<path d="M165.047 23.6962C165.047 23.6962 169.138 24.0531 171.019 21.9313" stroke="white" stroke-width="0.177894" stroke-miterlimit="10"/>
<path d="M172.406 14.3041C172.406 14.3041 171.417 18.1499 168.688 19.1867" stroke="white" stroke-width="0.177894" stroke-miterlimit="10"/>
<path d="M162.596 19.6456C162.596 19.6456 165.488 20.6539 167.977 18.0859" stroke="white" stroke-width="0.177894" stroke-miterlimit="10"/>
<path d="M169.189 10.9973C169.189 10.9973 168.917 14.263 167.146 15.7924" stroke="white" stroke-width="0.177894" stroke-miterlimit="10"/>
<path d="M162.706 14.668C162.706 14.668 165.106 14.684 165.668 13.8988" stroke="white" stroke-width="0.177894" stroke-miterlimit="10"/>
<path d="M177.225 149.185C171.806 149.185 166.507 147.574 162.001 144.556C157.495 141.537 153.982 137.248 151.908 132.229C149.834 127.21 149.291 121.687 150.349 116.359C151.406 111.031 154.016 106.136 157.848 102.295C161.681 98.4536 166.564 95.8376 171.879 94.7778C177.195 93.7179 182.705 94.2619 187.712 96.3408C192.719 98.4197 196.999 101.94 200.01 106.457C203.021 110.974 204.628 116.285 204.628 121.717C204.62 129 201.731 135.981 196.593 141.131C191.456 146.28 184.491 149.176 177.225 149.185ZM177.225 95.3945C172.031 95.3945 166.954 96.9383 162.635 99.8307C158.317 102.723 154.951 106.834 152.963 111.644C150.975 116.454 150.455 121.747 151.469 126.853C152.482 131.959 154.983 136.649 158.656 140.33C162.329 144.012 167.008 146.519 172.102 147.534C177.196 148.55 182.477 148.029 187.275 146.036C192.074 144.044 196.175 140.67 199.061 136.342C201.946 132.013 203.487 126.924 203.487 121.717C203.479 114.739 200.709 108.048 195.786 103.113C190.863 98.1782 184.188 95.4024 177.225 95.3945Z" fill="#1B3A6C"/>
<path opacity="0.4" d="M65.6026 8.78196C71.7812 3.26396 81.4796 2.13936 90.3075 2.57892C118.036 3.95955 143.066 17.3756 164.717 32.5507C172.554 38.0443 180.271 43.9647 185.359 51.5299C202.274 76.6814 189.503 91.0314 178.242 100.951C173.342 105.268 167.403 108.577 161.305 111.51C150.462 116.726 138.764 120.913 126.458 122.105C117.682 122.954 108.799 122.264 100.074 121.078C75.6999 117.765 51.7745 110.439 31.7215 97.9057C22.9263 92.4086 14.6364 85.5744 11.0112 76.6814C7.38599 67.7885 9.70607 56.5193 18.6868 51.2555C22.4012 49.0784 26.8421 48.0952 31.19 47.1719C37.5899 45.8129 44.0924 44.4733 49.8678 41.7105C55.833 38.8569 62.8964 33.3386 61.7153 27.0224C60.448 20.2454 59.4313 14.2935 65.6026 8.78196Z" fill="#6C63FF"/>
<path d="M29.1036 90.5134C23.4378 90.5134 17.8993 88.8269 13.1884 85.667C8.47752 82.5072 4.80582 78.016 2.63763 72.7614C0.469443 67.5068 -0.0978534 61.7248 1.00748 56.1466C2.11281 50.5683 4.84114 45.4444 8.84742 41.4227C12.8537 37.401 17.958 34.6621 23.5149 33.5526C29.0718 32.443 34.8316 33.0125 40.0661 35.189C45.3006 37.3655 49.7746 41.0513 52.9223 45.7803C56.07 50.5094 57.7501 56.0692 57.7501 61.7567C57.7415 69.3808 54.7206 76.6902 49.3502 82.0812C43.9798 87.4723 36.6985 90.5048 29.1036 90.5134ZM29.1036 34.1982C23.6739 34.1982 18.3662 35.8145 13.8515 38.8427C9.33694 41.8708 5.81823 46.1749 3.74038 51.2105C1.66253 56.2462 1.11888 61.7873 2.17815 67.1331C3.23743 72.4789 5.85206 77.3894 9.69142 81.2435C13.5308 85.0976 18.4224 87.7223 23.7478 88.7857C29.0731 89.849 34.593 89.3033 39.6094 87.2174C44.6257 85.1316 48.9133 81.5994 51.9298 77.0674C54.9464 72.5354 56.5565 67.2073 56.5565 61.7567C56.5482 54.4503 53.6532 47.4455 48.5066 42.2791C43.36 37.1126 36.382 34.2065 29.1036 34.1982Z" fill="#1B3A6C"/>
<path d="M194.889 108.775H148.311C147.613 108.773 147.048 107.613 147.047 106.181V71.4386C147.047 70.0069 147.613 68.8474 148.311 68.845H194.889C195.586 68.8468 196.152 70.0066 196.153 71.4386V106.181C196.152 107.613 195.585 108.773 194.889 108.775Z" fill="white"/>
<path d="M194.889 108.775H148.311C147.613 108.773 147.048 107.613 147.047 106.181V71.4386C147.047 70.0069 147.613 68.8474 148.311 68.845H194.889C195.586 68.8468 196.152 70.0066 196.153 71.4386V106.181C196.152 107.613 195.585 108.773 194.889 108.775ZM148.311 69.8824C147.892 69.8824 147.553 70.5796 147.552 71.4386V106.181C147.552 107.04 147.892 107.736 148.311 107.737H194.889C195.307 107.737 195.647 107.04 195.647 106.181V71.4386C195.647 70.5797 195.307 69.8833 194.889 69.8824L148.311 69.8824Z" fill="#1B3A6C"/>
<path d="M177.434 97.1727H165.842C165.581 97.1727 165.369 97.3842 165.369 97.6451C165.369 97.9061 165.581 98.1176 165.842 98.1176H177.434C177.695 98.1176 177.907 97.9061 177.907 97.6451C177.907 97.3842 177.695 97.1727 177.434 97.1727Z" fill="#1B3A6C"/>
<path d="M178.998 99.6284H164.164C163.903 99.6284 163.691 99.84 163.691 100.101C163.691 100.362 163.903 100.573 164.164 100.573H178.998C179.258 100.573 179.47 100.362 179.47 100.101C179.47 99.84 179.258 99.6284 178.998 99.6284Z" fill="#73A2EE"/>
<path d="M179.787 85.2542C179.786 86.6743 179.418 88.0699 178.719 89.3048C178.02 90.5398 177.013 91.5718 175.797 92.3001C174.581 93.0284 173.198 93.428 171.782 93.46C170.366 93.4921 168.966 93.1553 167.719 92.4828L167.717 92.4812C166.443 91.7929 165.373 90.7783 164.618 89.5408C163.862 88.3032 163.447 86.8869 163.415 85.4361C163.383 83.9854 163.735 82.552 164.436 81.2822C165.136 80.0123 166.16 78.9513 167.402 78.2073C168.645 77.4633 170.062 77.0628 171.509 77.0468C172.956 77.0307 174.382 77.3996 175.641 78.1158C176.899 78.832 177.946 79.87 178.675 81.124C179.403 82.3779 179.787 83.8031 179.787 85.2542Z" fill="#1B3A6C"/>
<path d="M171.641 84.856C172.87 84.856 173.867 83.857 173.867 82.6247C173.867 81.3924 172.87 80.3934 171.641 80.3934C170.412 80.3934 169.416 81.3924 169.416 82.6247C169.416 83.857 170.412 84.856 171.641 84.856Z" fill="white"/>
<path d="M176.971 90.4337C173.516 91.5673 169.749 91.5536 166.304 90.395L166.302 90.3936L168.604 86.1453H174.784L176.971 90.4337Z" fill="white"/>
<path d="M144.8 139.634C145.217 142.923 146.749 145.933 148.383 148.831C148.437 148.93 148.492 149.027 148.549 149.126H165.532C165.875 149.036 166.214 148.937 166.552 148.831C168.47 148.243 170.281 147.345 171.914 146.173C178.162 141.636 180.566 133.063 179.48 125.381C178.805 120.609 176.727 115.736 172.68 113.166C170.543 111.806 167.799 111.364 165.339 111.87C165.275 111.881 165.21 111.896 165.145 111.909C163.028 112.39 161.143 113.583 160.07 115.505C158.141 118.959 159.29 123.238 160.238 127.083C161.184 130.927 161.697 135.529 158.952 138.364C159.858 135.676 158.964 132.469 156.799 130.652C155.164 129.28 152.887 128.766 150.81 129.192C150.611 129.235 150.415 129.283 150.223 129.342C149.756 129.48 149.307 129.67 148.882 129.908C145.645 131.73 144.334 135.927 144.8 139.634Z" fill="#4C77BD"/>
<path d="M154.87 148.831C154.399 148.942 153.927 149.039 153.452 149.126H156.02C156.356 149.035 156.691 148.937 157.023 148.831C157.752 148.602 158.47 148.338 159.177 148.04C162.012 146.841 164.624 145.041 166.6 142.646C167.566 141.486 168.355 140.187 168.941 138.791C169.576 137.215 169.98 135.553 170.139 133.858C170.498 130.382 170.132 126.81 169.45 123.396C168.745 119.857 167.608 116.42 166.065 113.163C165.879 112.773 165.687 112.385 165.489 111.999C165.475 111.967 165.455 111.939 165.429 111.917C165.403 111.894 165.372 111.878 165.338 111.87C165.271 111.856 165.201 111.871 165.144 111.909C165.076 111.949 165.025 112.013 165.002 112.09C164.98 112.166 164.987 112.248 165.023 112.319C166.614 115.447 167.821 118.759 168.615 122.182C169.393 125.521 169.834 129.015 169.684 132.449C169.54 135.657 168.709 138.812 166.822 141.435C165.099 143.831 162.719 145.719 160.087 147.005C158.421 147.808 156.671 148.421 154.87 148.831Z" fill="white"/>
<path d="M149.234 149.126H149.991C150.076 149.029 150.158 148.93 150.238 148.831C151.963 146.72 153.131 144.204 153.635 141.517C154.247 138.163 153.771 134.7 152.277 131.64C151.86 130.782 151.369 129.963 150.81 129.192C150.611 129.235 150.415 129.283 150.222 129.342C151.694 131.308 152.684 133.596 153.112 136.021C153.493 138.293 153.366 140.622 152.741 142.838C152.115 145.054 151.006 147.102 149.496 148.831C149.411 148.93 149.323 149.029 149.234 149.126Z" fill="white"/>
<path d="M50.1508 139.634C49.7342 142.923 48.2026 145.933 46.5686 148.831C46.5146 148.93 46.459 149.027 46.402 149.126H29.4194C29.0759 149.036 28.7369 148.937 28.3993 148.831C26.4811 148.243 24.6702 147.345 23.037 146.173C16.7891 141.636 14.3849 133.063 15.4708 125.381C16.1461 120.609 18.2243 115.736 22.2712 113.166C24.4079 111.806 27.1526 111.364 29.6123 111.87C29.6766 111.881 29.7409 111.896 29.8067 111.909C31.9229 112.39 33.8082 113.583 34.881 115.505C36.8102 118.959 35.6614 123.238 34.713 127.083C33.7673 130.927 33.2543 135.529 35.9991 138.364C35.0929 135.676 35.9874 132.469 38.1518 130.652C39.7873 129.28 42.0643 128.766 44.1411 129.192C44.3398 129.235 44.5357 129.283 44.7286 129.342C45.1948 129.48 45.6444 129.67 46.0688 129.908C49.306 131.73 50.617 135.927 50.1508 139.634Z" fill="#4C77BD"/>
<path d="M40.0815 148.831C40.552 148.942 41.0241 149.039 41.4991 149.126H38.9312C38.595 149.035 38.2604 148.937 37.9287 148.831C37.1993 148.602 36.4812 148.338 35.7744 148.04C32.9391 146.841 30.3274 145.041 28.3514 142.646C27.3851 141.486 26.5959 140.187 26.0101 138.791C25.3749 137.215 24.9712 135.553 24.8117 133.858C24.4536 130.382 24.819 126.81 25.5015 123.396C26.2058 119.857 27.3428 116.42 28.8864 113.163C29.072 112.773 29.2639 112.385 29.4622 111.999C29.4758 111.967 29.4965 111.939 29.5226 111.917C29.5486 111.894 29.5795 111.878 29.6127 111.87C29.6802 111.856 29.7501 111.871 29.8071 111.909C29.8755 111.949 29.9263 112.013 29.9488 112.09C29.9714 112.166 29.9641 112.248 29.9284 112.319C28.3369 115.447 27.1305 118.759 26.336 122.182C25.5585 125.521 25.1171 129.015 25.2677 132.449C25.4109 135.657 26.2425 138.812 28.1293 141.435C29.8524 143.831 32.2317 145.719 34.8639 147.005C36.5299 147.808 38.28 148.421 40.0815 148.831Z" fill="white"/>
<path d="M45.7151 149.126H44.958C44.8732 149.029 44.7914 148.93 44.711 148.831C42.9866 146.72 41.8184 144.204 41.3144 141.517C40.7024 138.163 41.1785 134.7 42.6722 131.64C43.0889 130.782 43.5799 129.963 44.1395 129.192C44.3383 129.235 44.5342 129.283 44.727 129.342C43.2551 131.308 42.265 133.596 41.8377 136.021C41.4564 138.293 41.5832 140.622 42.2087 142.838C42.8342 145.054 43.9428 147.102 45.4535 148.831C45.5382 148.93 45.6259 149.029 45.7151 149.126Z" fill="white"/>
<path d="M149.967 139.306L147.85 139.356L148.65 145.814L150.084 145.78L149.967 139.306Z" fill="#FFB6B6"/>
<path d="M145.165 148.779C145.165 148.603 145.256 148.445 145.396 148.375L146.976 147.593L148.053 145.09L148.069 142.568L150.288 142.306L150.609 143.913C150.609 143.913 149.948 143.814 150.764 144.524C151.58 145.234 151.187 146.623 151.187 146.623L151.365 149.218H149.897L149.818 147.604C148.676 148.09 148.396 149.218 148.396 149.218H145.549C145.337 149.218 145.165 149.021 145.165 148.779Z" fill="#2F2E41"/>
<path d="M146.867 139.377L144.751 139.427L145.55 145.885L146.984 145.851L146.867 139.377Z" fill="#FFB6B6"/>
<path d="M142.063 148.85C142.063 148.674 142.154 148.516 142.295 148.446L143.874 147.664L144.951 145.161L144.968 142.639L147.187 142.377L147.508 143.984C147.508 143.984 146.847 143.885 147.663 144.595C148.479 145.305 148.086 146.694 148.086 146.694L148.264 149.289H146.795L146.716 147.675C145.574 148.161 145.294 149.289 145.294 149.289H142.447C142.235 149.289 142.063 149.092 142.063 148.85Z" fill="#2F2E41"/>
<path d="M149.294 101.5L151.693 107.242C152.493 109.156 152.746 111.255 152.425 113.305L151.259 141.512H146.649L144.636 116.393L144.239 126.316L148.855 140.453H144.315L138.488 126.316L138.056 115.43L140.126 106.983L149.294 101.5Z" fill="#2F2E41"/>
<path d="M152.241 108.744C154.882 116.281 151.517 122.219 152.215 118.388C152.799 115.187 142.854 105.447 139.861 107.455C139.923 107.13 141.826 101.27 142.013 101.243C141.752 100.584 142.115 100.578 142.13 100.24C142.187 98.937 141.884 97.5841 141.296 96.1917C140.91 95.1159 140.903 94.1917 141.277 93.4464C141.599 92.8338 142.139 92.3656 142.791 92.1352L144.752 89.761C145.263 89.1431 146.017 87.8097 146.817 87.8147L151.116 87.6608C151.238 87.5868 152.748 88.8875 154.217 89.5258C155.811 90.2187 155.482 92.1098 155.478 92.1339L155.474 92.1565L155.457 92.1726L153.114 99.0834L150.998 101.072C151.105 101.383 151.078 101.617 150.877 101.751C151.165 101.965 152.448 108.359 152.241 108.583L152.241 108.744Z" fill="#6C63FF"/>
<path d="M130.157 95.0671C130.477 95.1949 130.761 95.3976 130.987 95.6581L134.391 96.8275L133.788 98.4343L130.4 97.0751C130.057 97.0992 129.713 97.0405 129.397 96.904C128.601 96.5732 128.127 95.8938 128.337 95.3866C128.547 94.8793 129.362 94.7362 130.157 95.0671Z" fill="#FFB6B6"/>
<path d="M148.314 89.9103L140.55 100.415L131.448 97.9027L131.843 95.523L138.774 96.8387L142.641 90.8812C143.903 88.4351 146.392 87.9425 148.314 89.9102V89.9103Z" fill="#6C63FF"/>
<path d="M145.816 86.7665L152.031 87.3337L152.215 80.8592L145.443 80.6665L145.816 86.7665Z" fill="#2F2E41"/>
<path d="M148.96 85.8972C147.158 85.8972 145.698 84.4336 145.698 82.628C145.698 80.8225 147.158 79.3588 148.96 79.3588C150.761 79.3588 152.222 80.8225 152.222 82.628C152.222 84.4336 150.761 85.8972 148.96 85.8972Z" fill="#FFB6B6"/>
<path d="M146.335 79.4426C146.358 78.6314 147.365 78.5435 148.15 78.3433L148.862 77.9732C149.56 77.795 150.301 77.9204 150.902 78.3184L152.8 79.4704C153.652 80.0342 153.787 80.9455 154.133 81.908L154.76 83.3169C155.102 84.2644 154.651 85.5199 154.306 86.466L154.162 86.8625L154.388 88.16L150.434 87.9749L150.082 85.9719L150.757 85.2115C150.996 84.9417 151.016 84.5411 150.804 84.2493C150.04 83.1997 150.182 81.7287 150.182 81.7287L149.215 82.2569C148.581 82.3437 148.015 82.3342 147.517 82.23C146.97 82.1153 146.504 81.886 146.12 81.5443L145.775 82.7055C145.687 84.1508 145.956 84.5344 147.241 85.9481L144.987 87.3663L145.071 86.5988C145.269 84.7731 144.665 83.3334 144.749 81.8475C144.808 80.82 145.418 79.9046 146.335 79.4426Z" fill="#2F2E41"/>
<path d="M145.795 107.009C146.113 106.878 146.458 106.826 146.801 106.856L150.059 105.327L150.74 106.902L147.362 108.284C147.131 108.54 146.843 108.737 146.521 108.859C145.72 109.175 144.908 109.017 144.707 108.506C144.507 107.995 144.993 107.325 145.795 107.009Z" fill="#FFB6B6"/>
<path d="M155.276 90.6556L156.976 103.617L148.688 108.15L147.323 106.163L153.219 102.282L151.869 95.305C151.081 92.6666 152.53 90.5793 155.276 90.6555L155.276 90.6556Z" fill="#6C63FF"/>
<path d="M84.6008 141.841C86.3721 143.031 88.3902 149.045 88.3902 149.045C88.3902 149.045 82.0728 149.458 80.302 148.269C79.8807 147.986 79.5191 147.623 79.2379 147.2C78.9567 146.777 78.7614 146.303 78.6631 145.804C78.5648 145.305 78.5655 144.792 78.6651 144.294C78.7647 143.796 78.9612 143.322 79.2436 142.9C79.5259 142.478 79.8885 142.115 80.3105 141.834C80.7326 141.552 81.2059 141.357 81.7034 141.258C82.2009 141.16 82.7128 141.161 83.21 141.261C83.7071 141.361 84.1797 141.558 84.6008 141.841Z" fill="#4C77BD"/>
<path d="M88.4652 149L88.3663 149.079C84.7562 144.54 79.3085 142.972 79.2539 142.957L79.288 142.835C79.343 142.85 84.8289 144.428 88.4652 149Z" fill="white"/>
<path d="M94.0758 139.442C93.9629 142.398 88.3571 149.147 88.3571 149.147C88.3571 149.147 83.2857 141.986 83.3983 139.031C83.4527 137.612 84.0673 136.273 85.107 135.308C86.1466 134.343 87.5262 133.832 88.9421 133.886C90.358 133.941 91.6943 134.557 92.6571 135.599C93.6199 136.641 94.1302 138.023 94.0758 139.442Z" fill="#4C77BD"/>
<path d="M88.4617 149.199L88.2969 149.139C91.0128 141.581 88.9014 134.009 88.8798 133.934L89.0481 133.885C89.0699 133.962 91.1973 141.586 88.4617 149.199Z" fill="white"/>
<path d="M73.9453 122.626H25.9004C25.0444 122.625 24.2238 122.284 23.6185 121.677C23.0133 121.071 22.6728 120.248 22.6719 119.39V64.3623C22.6728 63.5044 23.0133 62.682 23.6185 62.0754C24.2238 61.4688 25.0444 61.1276 25.9004 61.1266H73.9453C74.8012 61.1276 75.6218 61.4688 76.2271 62.0754C76.8323 62.682 77.1728 63.5044 77.1738 64.3623V119.39C77.1728 120.248 76.8323 121.071 76.2271 121.677C75.6218 122.284 74.8012 122.625 73.9453 122.626Z" fill="#1B3A6C"/>
<path d="M71.7026 119.929H28.1478C27.3878 119.928 26.6592 119.625 26.1218 119.087C25.5844 118.548 25.2821 117.818 25.2812 117.056V66.6963C25.2821 65.9346 25.5844 65.2044 26.1218 64.6658C26.6592 64.1272 27.3878 63.8242 28.1478 63.8234H71.7026C72.4626 63.8242 73.1913 64.1272 73.7286 64.6658C74.266 65.2044 74.5683 65.9346 74.5692 66.6963V117.056C74.5683 117.818 74.266 118.548 73.7286 119.087C73.1913 119.625 72.4626 119.928 71.7026 119.929Z" fill="white"/>
<path d="M69.9691 70.9909H47.9969C47.9027 70.9911 47.8094 70.9726 47.7224 70.9366C47.6353 70.9005 47.5562 70.8476 47.4895 70.7809C47.4229 70.7142 47.37 70.635 47.3339 70.5478C47.2979 70.4606 47.2793 70.3671 47.2793 70.2727C47.2793 70.1783 47.2979 70.0849 47.3339 69.9977C47.37 69.9105 47.4229 69.8313 47.4895 69.7646C47.5562 69.6979 47.6353 69.645 47.7224 69.6089C47.8094 69.5729 47.9027 69.5544 47.9969 69.5546H69.9691C70.0632 69.5544 70.1565 69.5729 70.2436 69.6089C70.3307 69.645 70.4098 69.6979 70.4764 69.7646C70.5431 69.8313 70.5959 69.9105 70.632 69.9977C70.6681 70.0849 70.6867 70.1783 70.6867 70.2727C70.6867 70.3671 70.6681 70.4606 70.632 70.5478C70.5959 70.635 70.5431 70.7142 70.4764 70.7809C70.4098 70.8476 70.3307 70.9005 70.2436 70.9366C70.1565 70.9726 70.0632 70.9911 69.9691 70.9909Z" fill="#1B3A6C"/>
<path d="M69.9681 73.8289H47.9959C47.8059 73.8289 47.6236 73.7532 47.4892 73.6185C47.3548 73.4838 47.2793 73.3011 47.2793 73.1106C47.2793 72.9202 47.3548 72.7375 47.4892 72.6028C47.6236 72.4681 47.8059 72.3924 47.9959 72.3924H69.9681C70.1581 72.3924 70.3404 72.4681 70.4748 72.6028C70.6092 72.7375 70.6847 72.9202 70.6847 73.1106C70.6847 73.3011 70.6092 73.4838 70.4748 73.6185C70.3404 73.7532 70.1581 73.8289 69.9681 73.8289Z" fill="#1B3A6C"/>
<path d="M57.5203 76.6668H47.9959C47.8059 76.6668 47.6236 76.5911 47.4892 76.4564C47.3548 76.3217 47.2793 76.139 47.2793 75.9486C47.2793 75.7581 47.3548 75.5754 47.4892 75.4407C47.6236 75.306 47.8059 75.2303 47.9959 75.2303H57.5203C57.7104 75.2303 57.8927 75.306 58.027 75.4407C58.1614 75.5754 58.2369 75.7581 58.2369 75.9486C58.2369 76.139 58.1614 76.3217 58.027 76.4564C57.8927 76.5911 57.7104 76.6668 57.5203 76.6668Z" fill="#1B3A6C"/>
<path d="M67.3189 88.1285H32.6317C32.5375 88.1286 32.4442 88.1101 32.3571 88.0741C32.2701 88.0381 32.191 87.9852 32.1243 87.9185C32.0577 87.8518 32.0048 87.7726 31.9687 87.6854C31.9326 87.5982 31.9141 87.5047 31.9141 87.4103C31.9141 87.3159 31.9326 87.2224 31.9687 87.1352C32.0048 87.048 32.0577 86.9688 32.1243 86.9021C32.191 86.8354 32.2701 86.7825 32.3571 86.7465C32.4442 86.7105 32.5375 86.692 32.6317 86.6921H67.3189C67.4131 86.692 67.5063 86.7105 67.5934 86.7465C67.6805 86.7825 67.7596 86.8354 67.8262 86.9021C67.8929 86.9688 67.9458 87.048 67.9818 87.1352C68.0179 87.2224 68.0365 87.3159 68.0365 87.4103C68.0365 87.5047 68.0179 87.5982 67.9818 87.6854C67.9458 87.7726 67.8929 87.8518 67.8262 87.9185C67.7596 87.9852 67.6805 88.0381 67.5934 88.0741C67.5063 88.1101 67.4131 88.1286 67.3189 88.1285Z" fill="#1B3A6C"/>
<path d="M67.3179 90.9662H32.6307C32.4406 90.9662 32.2583 90.8905 32.124 90.7559C31.9896 90.6212 31.9141 90.4385 31.9141 90.248C31.9141 90.0575 31.9896 89.8748 32.124 89.7401C32.2583 89.6055 32.4406 89.5298 32.6307 89.5298H67.3179C67.5079 89.5298 67.6902 89.6055 67.8246 89.7401C67.959 89.8748 68.0345 90.0575 68.0345 90.248C68.0345 90.4385 67.959 90.6212 67.8246 90.7559C67.6902 90.8905 67.5079 90.9662 67.3179 90.9662Z" fill="#1B3A6C"/>
<path d="M67.3178 97.4084H32.6306C32.4406 97.4084 32.2583 97.3327 32.1239 97.1981C31.9896 97.0634 31.9141 96.8807 31.9141 96.6902C31.9141 96.4998 31.9896 96.3171 32.1239 96.1824C32.2583 96.0477 32.4406 95.972 32.6306 95.972H67.3178C67.5079 95.972 67.6902 96.0477 67.8246 96.1824C67.9589 96.3171 68.0344 96.4998 68.0344 96.6902C68.0344 96.8807 67.9589 97.0634 67.8246 97.1981C67.6902 97.3327 67.5079 97.4084 67.3178 97.4084Z" fill="#1B3A6C"/>
<path d="M67.3179 100.246H32.6307C32.4406 100.246 32.2583 100.171 32.124 100.036C31.9896 99.9011 31.9141 99.7185 31.9141 99.528C31.9141 99.3375 31.9896 99.1548 32.124 99.0201C32.2583 98.8854 32.4406 98.8098 32.6307 98.8098H67.3179C67.5079 98.8098 67.6902 98.8854 67.8246 99.0201C67.959 99.1548 68.0345 99.3375 68.0345 99.528C68.0345 99.7185 67.959 99.9011 67.8246 100.036C67.6902 100.171 67.5079 100.246 67.3179 100.246Z" fill="#1B3A6C"/>
<path d="M67.3178 106.688H32.6306C32.4406 106.688 32.2583 106.612 32.1239 106.478C31.9896 106.343 31.9141 106.16 31.9141 105.97C31.9141 105.779 31.9896 105.597 32.1239 105.462C32.2583 105.327 32.4406 105.252 32.6306 105.252H67.3178C67.5079 105.252 67.6902 105.327 67.8246 105.462C67.9589 105.597 68.0344 105.779 68.0344 105.97C68.0344 106.16 67.9589 106.343 67.8246 106.478C67.6902 106.612 67.5079 106.688 67.3178 106.688Z" fill="#1B3A6C"/>
<path d="M67.3179 109.526H32.6307C32.4406 109.526 32.2583 109.45 32.124 109.315C31.9896 109.181 31.9141 108.998 31.9141 108.808C31.9141 108.617 31.9896 108.434 32.124 108.3C32.2583 108.165 32.4406 108.089 32.6307 108.089H67.3179C67.5079 108.089 67.6902 108.165 67.8246 108.3C67.959 108.434 68.0345 108.617 68.0345 108.808C68.0345 108.998 67.959 109.181 67.8246 109.315C67.6902 109.45 67.5079 109.526 67.3179 109.526Z" fill="#1B3A6C"/>
<path d="M67.3133 117.387H57.7889C57.5988 117.387 57.4166 117.311 57.2822 117.176C57.1478 117.042 57.0723 116.859 57.0723 116.669C57.0723 116.478 57.1478 116.295 57.2822 116.161C57.4166 116.026 57.5988 115.95 57.7889 115.95H67.3133C67.5033 115.95 67.6856 116.026 67.82 116.161C67.9544 116.295 68.0299 116.478 68.0299 116.669C68.0299 116.859 67.9544 117.042 67.82 117.176C67.6856 117.311 67.5033 117.387 67.3133 117.387Z" fill="#1B3A6C"/>
<path d="M41.4134 73.1948V73.1954C41.4152 74.6247 40.9324 76.0121 40.0443 77.13L40.0434 77.1312C39.7565 77.4947 39.4299 77.8247 39.0696 78.1152L39.0681 78.1165C38.084 78.9166 36.8817 79.3999 35.6189 79.5031L35.6164 79.5033C35.4466 79.518 35.274 79.5249 35.0984 79.5249H35.0983C34.7523 79.5249 34.4069 79.4964 34.0656 79.4394L34.0656 79.4394L34.0612 79.4387C33.9433 79.4201 33.8275 79.3974 33.7111 79.3706L33.7078 79.3699C33.5037 79.3244 33.3023 79.268 33.1042 79.2011L33.1024 79.2005C32.457 78.9852 31.8508 78.6663 31.3074 78.2562L31.306 78.2552C31.1625 78.1477 31.0237 78.0329 30.8881 77.9105L30.8854 77.9081C30.7212 77.7621 30.5656 77.6067 30.4194 77.4425L30.4194 77.4425L30.4169 77.4397C30.3778 77.3965 30.3391 77.3523 30.302 77.3085L30.3008 77.3071C29.6399 76.5319 29.1757 75.608 28.9477 74.6141C28.7197 73.6201 28.7347 72.5857 28.9914 71.5989C29.2482 70.612 29.7391 69.7021 30.4221 68.9465C31.1052 68.1908 31.9603 67.612 32.9145 67.259C33.8686 66.906 34.8938 66.7893 35.9026 66.9189C36.9114 67.0484 37.8741 67.4204 38.7087 68.0032C39.5434 68.586 40.2252 69.3624 40.6962 70.2663C41.1672 71.1702 41.4132 72.1749 41.4134 73.1948Z" fill="white" stroke="#1B3A6C"/>
<path d="M34.8631 75.5255C36.4055 75.5255 37.6558 74.2724 37.6558 72.7265C37.6558 71.1807 36.4055 69.9276 34.8631 69.9276C33.3207 69.9276 32.0703 71.1807 32.0703 72.7265C32.0703 74.2724 33.3207 75.5255 34.8631 75.5255Z" fill="#9E616A"/>
<path d="M37.9705 71.3623C37.9832 71.1122 37.9128 70.865 37.7703 70.6592L37.6694 70.5157C37.3055 69.8126 36.7048 69.1798 36.265 68.717C35.9346 68.3698 35.6044 68.2028 35.2872 68.219C35.0563 68.2355 34.8414 68.3429 34.6894 68.5178C34.2717 68.4922 33.8557 68.5893 33.4923 68.7972C33.1288 69.0051 32.8338 69.3147 32.6433 69.6881C31.3061 70.3956 31.7051 72.4843 31.7094 72.5063L32.0325 73.0497L32.069 72.9809C32.069 72.9794 32.0734 72.9735 32.0792 72.9618C32.1421 72.849 32.484 72.2221 32.715 71.8252C32.7993 71.6898 32.9114 71.5739 33.0438 71.4854C33.2601 71.3372 33.5087 71.2433 33.7687 71.2115L34.479 71.1192L34.2101 71.5234H36.1451L36.8889 71.4356C36.9635 71.7417 37.554 72.9296 37.6255 73.0731L37.6314 73.0849L37.6709 73.1654L37.8916 72.5576C38.0204 72.1727 38.0476 71.7609 37.9705 71.3623Z" fill="#2F2E41"/>
<path d="M31.0263 78.6699C31.1462 78.5118 31.7673 77.7735 33.1966 77.3824L33.9537 76.5373L36.9892 76.0524L38.534 76.9078L40.4355 77.441C40.1254 77.8338 39.7725 78.1905 39.3832 78.5044C38.3208 79.3682 37.0227 79.89 35.6593 80.0014C35.4737 80.0175 35.2866 80.0248 35.0981 80.0248C34.7244 80.0249 34.3515 79.9941 33.9829 79.9326C33.8529 79.9121 33.7257 79.8872 33.5986 79.8579C33.3772 79.8085 33.1587 79.7474 32.9438 79.6748C32.2549 79.4454 31.6074 79.1061 31.0263 78.6699C31.019 78.6656 31.0132 78.6597 31.0059 78.6553L31.0263 78.6699Z" fill="#6C63FF"/>
<path d="M107.601 118.083C107.477 117.948 107.384 117.787 107.329 117.612C107.274 117.437 107.257 117.252 107.281 117.07C107.305 116.888 107.368 116.714 107.466 116.559C107.565 116.405 107.696 116.273 107.85 116.175L106.824 111.836L108.996 112.631L109.637 116.63C109.785 116.901 109.829 117.216 109.76 117.517C109.691 117.818 109.514 118.084 109.263 118.263C109.012 118.442 108.704 118.522 108.398 118.489C108.091 118.456 107.808 118.311 107.601 118.083Z" fill="#9E616A"/>
<path d="M102.379 99.9009L103.25 102.147C103.25 102.147 102.877 104.393 103.499 104.892C104.122 105.391 103.873 105.391 103.873 105.765C103.894 106.034 103.972 106.295 104.101 106.531C104.229 106.768 104.406 106.975 104.62 107.138C105.118 107.512 107.359 115.124 107.359 115.124H109.6C109.528 114.544 109.528 113.957 109.6 113.377C109.724 112.504 109.226 110.258 108.977 109.883C108.728 109.509 108.977 109.01 108.977 108.261C108.977 107.512 108.479 107.138 108.479 105.89C108.479 104.642 106.985 94.9098 107.11 93.7868C107.234 92.6638 105.865 91.6655 105.865 91.6655H104.62L102.379 99.9009Z" fill="#E4E4E4"/>
<path d="M108.108 147.356H106.452L105.664 140.953L108.108 140.953L108.108 147.356Z" fill="#9E616A"/>
<path d="M108.532 148.965L103.191 148.965V148.897C103.191 148.344 103.41 147.814 103.8 147.424C104.19 147.033 104.719 146.814 105.27 146.814L106.246 146.072L108.066 146.814L108.532 146.814L108.532 148.965Z" fill="#2F2E41"/>
<path d="M92.9577 147.308L91.4023 146.738L92.857 140.454L95.1527 141.295L92.9577 147.308Z" fill="#9E616A"/>
<path d="M92.8025 148.965L87.7871 147.126L87.8103 147.062C87.9997 146.543 88.3871 146.121 88.8871 145.889C89.3871 145.656 89.9588 145.632 90.4766 145.822L91.6471 145.461L93.1021 146.784L93.5399 146.945L92.8025 148.965Z" fill="#2F2E41"/>
<path d="M104.46 117.416C104.46 117.416 103.34 122.906 105.207 122.407C107.075 121.908 106.328 117.167 106.328 117.167L104.46 117.416Z" fill="#A0616A"/>
<path d="M96.242 112.862C96.242 112.862 94.748 114.858 94.748 115.981C94.748 117.104 94.25 127.087 94.25 127.087C94.25 127.087 90.4699 141.951 91.2169 142.7C91.9639 143.449 94.5784 144.197 94.9519 143.823C95.3254 143.449 98.6075 128.085 98.6075 128.085L101.72 119.725L104.584 131.703L104.833 144.431C104.833 144.431 107.945 145.179 108.568 144.68C109.19 144.181 109.315 132.078 108.568 127.835C107.821 123.593 108.692 113.86 108.692 113.86L96.242 112.862Z" fill="#2F2E41"/>
<path d="M101.237 86.2215C103.3 86.2215 104.972 84.5455 104.972 82.4782C104.972 80.4108 103.3 78.7348 101.237 78.7348C99.1742 78.7348 97.502 80.4108 97.502 82.4782C97.502 84.5455 99.1742 86.2215 101.237 86.2215Z" fill="#9E616A"/>
<path d="M96.4936 91.6494C96.4936 91.6494 97.569 90.0434 99.6855 87.9222C100.806 87.5479 102.748 87.766 103.421 87.9222C106.533 92.0399 106.729 91.7663 107.539 94.0669C107.749 94.6635 107.854 95.2367 107.761 95.7047C107.387 97.5763 108.57 112.737 108.695 113.236C108.819 113.735 109.691 114.359 108.819 114.359C107.948 114.359 94.7506 113.86 94.9996 113.486C95.2486 113.111 96.4936 91.6494 96.4936 91.6494Z" fill="#E4E4E4"/>
<path opacity="0.1" d="M95.9219 113.321L99.6668 105.063L97.7943 113.846L95.9219 113.321Z" fill="black"/>
<path d="M100.106 85.9461C100.455 85.6853 100.777 85.3891 101.066 85.0622C101.357 84.7324 101.539 84.3209 101.587 83.8838C101.608 83.6658 101.574 83.4461 101.488 83.2449C101.401 83.0437 101.266 82.8677 101.093 82.7333C100.737 82.4814 100.195 82.4961 99.8997 82.817C100.042 82.3548 100.173 81.8097 99.8837 81.4221C99.6208 81.0694 99.1302 81.0095 98.7065 80.8932C97.8893 80.6652 97.1862 80.1402 96.7344 79.4208L97.4539 79.57L97.3737 79.0559L97.97 79.2637L97.9752 78.5476L98.5906 78.8927C99.344 78.2005 100.337 77.8297 101.359 77.8591C101.874 77.8677 102.379 78.0066 102.826 78.2629C103.275 78.5229 103.614 78.9365 103.783 79.4276C104.099 79.098 104.664 79.1235 105.042 79.3811C105.419 79.6386 105.641 80.0694 105.793 80.5008C106.094 81.3281 106.164 82.2223 105.996 83.0866C105.822 83.953 105.356 84.7331 104.677 85.296C104.052 85.7735 103.309 86.0698 102.528 86.1525C101.75 86.2333 100.965 86.1996 100.197 86.0526" fill="#2F2E41"/>
<path d="M94.7574 118.066C94.8813 117.931 94.9741 117.771 95.0293 117.596C95.0845 117.421 95.1008 117.236 95.077 117.054C95.0532 116.872 94.9899 116.698 94.8915 116.543C94.7932 116.388 94.6622 116.257 94.5078 116.159L95.5338 111.82L93.3622 112.615L92.7208 116.613C92.5729 116.884 92.5294 117.2 92.5984 117.501C92.6674 117.802 92.8441 118.067 93.0952 118.246C93.3462 118.426 93.6541 118.506 93.9604 118.473C94.2668 118.44 94.5504 118.295 94.7574 118.066Z" fill="#9E616A"/>
<path d="M97.738 91.6492H96.493C96.493 91.6492 95.1235 92.6475 95.248 93.7705C95.3725 94.8935 93.8784 104.626 93.8784 105.874C93.8784 107.122 93.3804 107.496 93.3804 108.245C93.3804 108.993 93.6294 109.493 93.3804 109.867C93.1314 110.241 92.6334 112.487 92.7579 113.361C92.8303 113.941 92.8303 114.528 92.7579 115.108H94.999C94.999 115.108 97.24 107.496 97.738 107.122C97.9516 106.958 98.1285 106.752 98.2572 106.515C98.3859 106.279 98.4635 106.018 98.485 105.749C98.485 105.375 98.236 105.375 98.8585 104.876C99.481 104.377 99.1075 102.131 99.1075 102.131L99.979 99.8846L97.738 91.6492Z" fill="#E4E4E4"/>
<path d="M103.195 55.0059H50.0202C49.3033 55.0051 48.6161 54.7194 48.1092 54.2114C47.6023 53.7034 47.3172 53.0146 47.3164 52.2961V19.7561C47.317 19.209 47.5341 18.6845 47.9201 18.2976C48.3061 17.9107 48.8295 17.6931 49.3754 17.6925H103.809C104.363 17.6931 104.894 17.914 105.286 18.3066C105.678 18.6992 105.898 19.2315 105.899 19.7867V52.2961C105.898 53.0146 105.613 53.7034 105.106 54.2114C104.599 54.7194 103.912 55.0051 103.195 55.0059Z" fill="white"/>
<path d="M103.195 55.0059H50.0202C49.3033 55.0051 48.6161 54.7194 48.1092 54.2114C47.6023 53.7034 47.3172 53.0146 47.3164 52.2961V19.7561C47.317 19.209 47.5341 18.6845 47.9201 18.2976C48.3061 17.9107 48.8295 17.6931 49.3754 17.6925H103.809C104.363 17.6931 104.894 17.914 105.286 18.3066C105.678 18.6992 105.898 19.2315 105.899 19.7867V52.2961C105.898 53.0146 105.613 53.7034 105.106 54.2114C104.599 54.7194 103.912 55.0051 103.195 55.0059ZM49.3754 18.2784C48.9845 18.2789 48.6097 18.4347 48.3333 18.7117C48.0569 18.9888 47.9014 19.3643 47.901 19.7561V52.2961C47.9016 52.8592 48.1251 53.3991 48.5224 53.7972C48.9197 54.1954 49.4583 54.4194 50.0202 54.42H103.195C103.757 54.4194 104.296 54.1954 104.693 53.7972C105.09 53.3991 105.314 52.8592 105.314 52.2961V19.7867C105.314 19.3868 105.155 19.0034 104.873 18.7207C104.591 18.4379 104.208 18.2789 103.809 18.2784H49.3754Z" fill="#1B3A6C"/>
<path d="M71.5937 46.7673H55.6604C55.2706 46.7667 54.8942 46.6244 54.6011 46.3668C54.308 46.1092 54.1181 45.7538 54.0666 45.3665C54.057 45.2968 54.0523 45.2264 54.0528 45.156V27.5424C54.0532 27.1152 54.2228 26.7057 54.5242 26.4036C54.8256 26.1015 55.2342 25.9316 55.6604 25.9312H71.5937C72.0199 25.9316 72.4285 26.1015 72.7299 26.4036C73.0313 26.7057 73.2008 27.1152 73.2013 27.5424V45.156C73.2008 45.5832 73.0313 45.9928 72.7299 46.2948C72.4285 46.5969 72.0199 46.7668 71.5937 46.7673ZM55.6604 26.81C55.4667 26.8102 55.2809 26.8875 55.1439 27.0248C55.0069 27.1621 54.9299 27.3482 54.9297 27.5424V45.156C54.9293 45.1861 54.9312 45.2162 54.9352 45.2461C54.9576 45.4232 55.0436 45.586 55.177 45.7042C55.3105 45.8225 55.4823 45.8879 55.6604 45.8884H71.5937C71.7874 45.8882 71.9732 45.811 72.1101 45.6737C72.2471 45.5364 72.3242 45.3502 72.3244 45.156V27.5424C72.3242 27.3482 72.2471 27.1621 72.1101 27.0248C71.9732 26.8875 71.7874 26.8102 71.5937 26.81H55.6604Z" fill="#73A2EE"/>
<path d="M97.9942 41.04H78.7024C78.3923 41.04 78.0949 40.9165 77.8757 40.6967C77.6564 40.477 77.5332 40.1789 77.5332 39.8682C77.5332 39.5574 77.6564 39.2593 77.8757 39.0396C78.0949 38.8198 78.3923 38.6964 78.7024 38.6964H97.9942C98.3043 38.6964 98.6017 38.8198 98.8209 39.0396C99.0402 39.2593 99.1634 39.5574 99.1634 39.8682C99.1634 40.1789 99.0402 40.477 98.8209 40.6967C98.6017 40.9165 98.3043 41.04 97.9942 41.04Z" fill="#73A2EE"/>
<path d="M89.2252 36.0599H78.7024C78.3923 36.0599 78.0949 35.9365 77.8757 35.7167C77.6564 35.4969 77.5332 35.1989 77.5332 34.8881C77.5332 34.5773 77.6564 34.2793 77.8757 34.0595C78.0949 33.8398 78.3923 33.7163 78.7024 33.7163H89.2252C89.5353 33.7163 89.8327 33.8398 90.0519 34.0595C90.2712 34.2793 90.3944 34.5773 90.3944 34.8881C90.3944 35.1989 90.2712 35.4969 90.0519 35.7167C89.8327 35.9365 89.5353 36.0599 89.2252 36.0599Z" fill="#1B3A6C"/>
<path d="M68.8818 35.8652C68.8818 38.4539 66.4935 38.0623 63.5474 38.0623C60.6012 38.0623 58.2129 38.4539 58.2129 35.8652C58.2129 33.2765 59.3795 28.6879 63.5474 28.6879C67.8588 28.6879 68.8818 33.2765 68.8818 35.8652Z" fill="#2F2E41"/>
<path d="M69.0953 40.2218C68.9924 39.9242 68.7873 39.6729 68.5166 39.5129C68.4643 39.4807 68.4096 39.4528 68.3529 39.4294C68.1154 39.3305 67.8544 39.303 67.6016 39.3503C67.3489 39.3977 67.1154 39.5178 66.9296 39.696C66.7439 39.8743 66.614 40.1028 66.5558 40.3539C66.4976 40.6049 66.5137 40.8675 66.602 41.1095L68.727 45.9505H71.5258L69.0953 40.2218Z" fill="#3F3D56"/>
<path d="M59.8218 40.4855C59.6539 40.4041 59.4706 40.3593 59.2842 40.3539C59.0977 40.3485 58.9122 40.3827 58.7398 40.4542C58.5675 40.5257 58.4121 40.6329 58.284 40.7688C58.1559 40.9047 58.0579 41.0662 57.9964 41.2427L56.0176 45.908C56.1189 45.9363 56.2237 45.9506 56.3289 45.9504H58.812L60.4897 42.1304C60.6016 41.822 60.5953 41.4829 60.4718 41.179C60.3484 40.8751 60.1168 40.6279 59.8218 40.4855Z" fill="#3F3D56"/>
<path d="M63.529 38.0578C65.5115 38.0578 67.1186 36.4471 67.1186 34.4602C67.1186 32.4733 65.5115 30.8626 63.529 30.8626C61.5466 30.8626 59.9395 32.4733 59.9395 34.4602C59.9395 36.4471 61.5466 38.0578 63.529 38.0578Z" fill="#FFB8B8"/>
<path d="M68.5788 39.57C68.5584 39.551 68.5379 39.5305 68.516 39.5129C68.2658 39.2868 67.9696 39.1177 67.6479 39.0173C67.3262 38.9169 66.9867 38.8876 66.6526 38.9314L60.0378 39.7707C59.4319 39.8458 58.879 40.1546 58.4964 40.6315C58.1139 41.1084 57.9318 41.716 57.9888 42.3252C58.0794 43.3476 58.2256 44.6381 58.4594 45.9505H68.9091L69.2935 41.4742C69.3244 41.1234 69.2762 40.7701 69.1525 40.4405C69.0288 40.1109 68.8327 39.8134 68.5788 39.57Z" fill="#3F3D56"/>
<path d="M59.3809 34.1075H60.8006L61.427 32.3498L61.5522 34.1075H62.2308L62.5962 33.0822L62.6692 34.1075H67.7114C67.7114 33.0975 67.3111 32.1288 66.5984 31.4146C65.8858 30.7004 64.9193 30.2991 63.9115 30.2991H63.1808C62.173 30.2991 61.2064 30.7004 60.4938 31.4146C59.7812 32.1288 59.3809 33.0975 59.3809 34.1075Z" fill="#2F2E41"/>
<path d="M119.99 52.2961V19.7867C119.991 19.2315 120.211 18.6992 120.603 18.3066C120.995 17.914 121.526 17.6931 122.08 17.6925H176.514C177.06 17.6931 177.583 17.9107 177.969 18.2976C178.355 18.6845 178.572 19.209 178.573 19.7561V52.2961C178.572 53.0146 178.287 53.7034 177.78 54.2114C177.273 54.7194 176.586 55.0051 175.869 55.0059H122.694C121.977 55.0051 121.29 54.7194 120.783 54.2114C120.276 53.7034 119.991 53.0146 119.99 52.2961Z" fill="white"/>
<path d="M119.99 52.2961V19.7867C119.991 19.2315 120.211 18.6992 120.603 18.3066C120.995 17.914 121.526 17.6931 122.08 17.6925H176.514C177.06 17.6931 177.583 17.9107 177.969 18.2976C178.355 18.6845 178.572 19.209 178.573 19.7561V52.2961C178.572 53.0146 178.287 53.7034 177.78 54.2114C177.273 54.7194 176.586 55.0051 175.869 55.0059H122.694C121.977 55.0051 121.29 54.7194 120.783 54.2114C120.276 53.7034 119.991 53.0146 119.99 52.2961ZM122.08 18.2784C121.681 18.2789 121.298 18.4379 121.016 18.7207C120.734 19.0034 120.575 19.3868 120.575 19.7867V52.2961C120.575 52.8592 120.799 53.3991 121.196 53.7972C121.594 54.1954 122.132 54.4194 122.694 54.42H175.869C176.431 54.4194 176.969 54.1954 177.367 53.7972C177.764 53.3991 177.987 52.8592 177.988 52.2961V19.7561C177.988 19.3643 177.832 18.9888 177.556 18.7117C177.279 18.4347 176.905 18.2789 176.514 18.2784H122.08Z" fill="#1B3A6C"/>
<path d="M152.688 45.156V27.5424C152.689 27.1152 152.858 26.7057 153.16 26.4036C153.461 26.1015 153.87 25.9316 154.296 25.9312H170.229C170.656 25.9316 171.064 26.1015 171.366 26.4036C171.667 26.7057 171.837 27.1152 171.837 27.5424V45.156C171.837 45.2264 171.833 45.2968 171.823 45.3665C171.772 45.7538 171.582 46.1092 171.289 46.3668C170.996 46.6244 170.619 46.7667 170.229 46.7673H154.296C153.87 46.7668 153.461 46.5969 153.16 46.2948C152.858 45.9928 152.689 45.5832 152.688 45.156ZM154.296 26.81C154.102 26.8102 153.917 26.8875 153.78 27.0248C153.643 27.1621 153.566 27.3482 153.565 27.5424V45.156C153.566 45.3502 153.643 45.5364 153.78 45.6737C153.917 45.811 154.102 45.8882 154.296 45.8884H170.229C170.408 45.8879 170.579 45.8225 170.713 45.7042C170.846 45.586 170.932 45.4232 170.955 45.2461C170.959 45.2162 170.96 45.1861 170.96 45.156V27.5424C170.96 27.3482 170.883 27.1621 170.746 27.0248C170.609 26.8875 170.423 26.8102 170.229 26.81H154.296Z" fill="#73A2EE"/>
<path d="M126.727 39.8682C126.727 39.5575 126.85 39.2596 127.069 39.04C127.289 38.8203 127.586 38.6967 127.896 38.6964H147.188C147.498 38.6964 147.795 38.8198 148.014 39.0396C148.234 39.2593 148.357 39.5574 148.357 39.8682C148.357 40.1789 148.234 40.477 148.014 40.6967C147.795 40.9165 147.498 41.04 147.188 41.04H127.896C127.586 41.0396 127.289 40.916 127.069 40.6963C126.85 40.4767 126.727 40.1788 126.727 39.8682Z" fill="#73A2EE"/>
<path d="M126.727 34.8881C126.727 34.5774 126.85 34.2796 127.069 34.0599C127.289 33.8402 127.586 33.7167 127.896 33.7163H138.419C138.729 33.7163 139.026 33.8398 139.245 34.0595C139.465 34.2793 139.588 34.5773 139.588 34.8881C139.588 35.1989 139.465 35.4969 139.245 35.7167C139.026 35.9365 138.729 36.0599 138.419 36.0599H127.896C127.586 36.0596 127.289 35.936 127.069 35.7163C126.85 35.4966 126.727 35.1988 126.727 34.8881Z" fill="#1B3A6C"/>
<path d="M158.326 32.7758C159.35 34.7948 160.158 36.8771 162.418 36.8771C163.503 36.8771 164.544 36.4451 165.311 35.6759C166.079 34.9068 166.51 33.8636 166.51 32.7758C166.51 31.6881 166.079 30.6449 165.311 29.8758C164.544 29.1066 163.503 28.6745 162.418 28.6745C160.121 28.6457 156.419 29.018 158.326 32.7758Z" fill="#2F2E41"/>
<path d="M162.216 36.9571C164.198 36.9571 165.805 35.3464 165.805 33.3595C165.805 31.3727 164.198 29.762 162.216 29.762C160.233 29.762 158.626 31.3727 158.626 33.3595C158.626 35.3464 160.233 36.9571 162.216 36.9571Z" fill="#A0616A"/>
<path d="M167.117 39.9171C166.885 39.6645 166.633 39.4313 166.364 39.2199C165.186 38.2944 163.709 37.8356 162.215 37.9309C162.155 37.9339 162.095 37.9383 162.035 37.9441C161.17 38.0134 160.329 38.2667 159.569 38.6869C158.809 39.1072 158.147 39.6848 157.627 40.3815C157.099 41.0887 156.728 41.9009 156.538 42.7635C156.349 43.6262 156.345 44.5195 156.528 45.3836C156.568 45.5667 156.603 45.7513 156.636 45.9358H168.536L168.673 45.013C168.81 44.101 168.742 43.1698 168.473 42.2878C168.203 41.4059 167.74 40.5958 167.117 39.9171Z" fill="#3F3D56"/>
<path d="M168.94 40.8795C168.856 40.3982 168.606 39.9616 168.234 39.6458C167.862 39.33 167.391 39.1549 166.904 39.1511C166.885 39.1511 166.864 39.1526 166.845 39.1526C166.683 39.1563 166.522 39.1789 166.364 39.22C166.1 39.2903 165.853 39.4123 165.636 39.5788C165.419 39.7453 165.237 39.9532 165.1 40.1904C164.964 40.4276 164.875 40.6895 164.84 40.9611C164.804 41.2327 164.823 41.5086 164.894 41.773L166.018 45.9359H169.801L168.94 40.8795Z" fill="#3F3D56"/>
<path d="M160.616 39.7882C160.474 39.5075 160.269 39.2631 160.019 39.0734C159.841 38.939 159.643 38.835 159.431 38.7658C159.345 38.7361 159.256 38.7127 159.167 38.6955C158.678 38.6027 158.172 38.6882 157.741 38.9364C157.309 39.1846 156.98 39.5791 156.814 40.0489L154.756 45.9357H158.661L160.653 41.6059C160.786 41.3202 160.851 41.0079 160.845 40.6928C160.839 40.3777 160.761 40.0682 160.616 39.7882Z" fill="#3F3D56"/>
<path d="M158.407 31.3263C159.228 31.8929 160.201 32.1944 161.197 32.1904C160.842 32.4374 160.437 32.6042 160.012 32.6794C161.336 32.9641 162.705 32.9719 164.033 32.702C164.328 32.6546 164.613 32.5566 164.874 32.4123C165.005 32.3392 165.119 32.2395 165.208 32.1195C165.298 31.9995 165.361 31.8619 165.394 31.7158C165.482 31.2107 165.09 30.7518 164.681 30.4425C164.057 29.9762 163.336 29.6549 162.572 29.5019C161.808 29.3489 161.02 29.368 160.264 29.5578C159.771 29.6857 159.276 29.9017 158.956 30.2988C158.635 30.696 158.54 31.3082 158.846 31.7172L158.407 31.3263Z" fill="#2F2E41"/>
<path d="M139.531 76.0983H86.3561C85.6393 76.0975 84.952 75.8118 84.4451 75.3038C83.9383 74.7958 83.6531 74.107 83.6523 73.3885V40.8485C83.6529 40.3014 83.8701 39.7769 84.2561 39.39C84.6421 39.0032 85.1654 38.7855 85.7113 38.7849H140.145C140.699 38.7855 141.23 39.0064 141.622 39.399C142.014 39.7916 142.234 40.3239 142.235 40.8791V73.3885C142.234 74.107 141.949 74.7958 141.442 75.3038C140.935 75.8118 140.248 76.0975 139.531 76.0983Z" fill="white"/>
<path d="M139.531 76.0983H86.3561C85.6393 76.0975 84.952 75.8118 84.4451 75.3038C83.9383 74.7958 83.6531 74.107 83.6523 73.3885V40.8485C83.6529 40.3014 83.8701 39.7769 84.2561 39.39C84.6421 39.0032 85.1654 38.7855 85.7113 38.7849H140.145C140.699 38.7855 141.23 39.0064 141.622 39.399C142.014 39.7916 142.234 40.3239 142.235 40.8791V73.3885C142.234 74.107 141.949 74.7958 141.442 75.3038C140.935 75.8118 140.248 76.0975 139.531 76.0983ZM85.7113 39.3708C85.3204 39.3713 84.9456 39.5271 84.6692 39.8041C84.3929 40.0812 84.2374 40.4567 84.2369 40.8485V73.3885C84.2376 73.9516 84.4611 74.4915 84.8583 74.8897C85.2556 75.2878 85.7943 75.5118 86.3561 75.5124H139.531C140.093 75.5118 140.632 75.2878 141.029 74.8897C141.426 74.4915 141.65 73.9516 141.65 73.3885V40.8791C141.65 40.4792 141.491 40.0958 141.209 39.8131C140.927 39.5303 140.544 39.3713 140.145 39.3708H85.7113Z" fill="#3F3D56"/>
<path d="M107.93 67.8597H91.9963C91.6065 67.8591 91.2301 67.7168 90.9371 67.4592C90.644 67.2016 90.4541 66.8462 90.4026 66.4589C90.3929 66.3892 90.3883 66.3188 90.3887 66.2484V48.6348C90.3892 48.2076 90.5587 47.7981 90.8601 47.496C91.1615 47.194 91.5701 47.024 91.9963 47.0236H107.93C108.356 47.024 108.764 47.194 109.066 47.496C109.367 47.7981 109.537 48.2076 109.537 48.6348V66.2484C109.537 66.6756 109.367 67.0852 109.066 67.3872C108.764 67.6893 108.356 67.8592 107.93 67.8597ZM91.9963 47.9024C91.8026 47.9026 91.6169 47.9799 91.4799 48.1172C91.3429 48.2545 91.2658 48.4406 91.2656 48.6348V66.2484C91.2653 66.2786 91.2671 66.3086 91.2712 66.3385C91.2935 66.5156 91.3795 66.6784 91.5129 66.7967C91.6464 66.9149 91.8182 66.9803 91.9963 66.9808H107.93C108.123 66.9806 108.309 66.9034 108.446 66.7661C108.583 66.6288 108.66 66.4426 108.66 66.2484V48.6348C108.66 48.4406 108.583 48.2545 108.446 48.1172C108.309 47.9799 108.123 47.9026 107.93 47.9024H91.9963Z" fill="#73A2EE"/>
<path d="M99.7339 50.2437C98.6966 49.7601 97.4232 49.6016 96.3678 50.051C95.3124 50.5003 94.5928 51.6522 94.9341 52.6715C95.0888 53.1337 95.4412 53.5882 95.3039 54.055C95.1983 54.4143 94.8296 54.6515 94.4676 54.8201C94.1055 54.9888 93.7095 55.1306 93.4477 55.415C93.1859 55.6995 93.1313 56.1892 93.4583 56.4098C93.5661 56.4825 93.7008 56.517 93.8053 56.5935C93.8943 56.6661 93.9586 56.7646 93.9891 56.8755C94.0196 56.9863 94.0148 57.104 93.9754 57.212C93.8883 57.4293 93.7444 57.6191 93.5588 57.7614C93.1875 58.0823 92.6968 58.4496 92.8121 58.9052C92.8548 59.0269 92.9263 59.1365 93.0203 59.2247C93.1144 59.3129 93.2283 59.377 93.3524 59.4116C93.61 59.4861 93.8774 59.5215 94.1455 59.5166L105.102 59.8625C105.463 59.8897 105.827 59.8693 106.184 59.8019C106.357 59.7702 106.522 59.7031 106.668 59.6047C106.814 59.5063 106.938 59.3787 107.033 59.2299C107.243 58.8407 107.105 58.3612 106.846 57.9978C106.587 57.6344 106.22 57.3476 105.917 57.0139C105.614 56.6802 105.366 56.2636 105.42 55.8322C105.463 55.4869 105.69 55.1885 105.853 54.8748C106.016 54.561 106.111 54.169 105.899 53.8804C105.602 53.4737 104.887 53.5104 104.549 53.1315C104.293 52.8455 104.342 52.4337 104.317 52.0649C104.256 51.1778 103.643 50.34 102.771 49.9509C102.327 49.7601 101.845 49.6777 101.363 49.7105C100.881 49.7434 100.414 49.8906 100.001 50.14L99.7339 50.2437Z" fill="#2F2E41"/>
<path d="M100.138 59.7773C102.121 59.7773 103.728 58.1666 103.728 56.1797C103.728 54.1928 102.121 52.5822 100.138 52.5822C98.1559 52.5822 96.5488 54.1928 96.5488 56.1797C96.5488 58.1666 98.1559 59.7773 100.138 59.7773Z" fill="#A0616A"/>
<path d="M104.851 64.4233C104.847 63.7927 104.673 63.1749 104.347 62.6358C104.02 62.0967 103.554 61.6564 102.998 61.362C102.953 61.3371 102.906 61.3151 102.859 61.2931C102.455 61.1012 102.018 60.9898 101.571 60.965L98.1544 60.7731C97.6718 60.7455 97.1888 60.8199 96.7367 60.9914C96.6266 61.0325 96.5188 61.0794 96.4137 61.132C96.0835 61.2951 95.7815 61.5102 95.5193 61.7692C95.1739 62.1108 94.9038 62.5211 94.7261 62.9737C94.5484 63.4262 94.4671 63.911 94.4874 64.3969L94.5489 65.8485L94.9786 66.9661H104.532C104.651 66.8222 104.754 66.6661 104.839 66.5003C105.001 66.1786 105.087 65.8236 105.089 65.4632C105.091 65.1028 105.009 64.7469 104.851 64.4233Z" fill="#3F3D56"/>
<path d="M104.618 62.4987C104.462 62.1597 104.217 61.8692 103.91 61.6579C103.689 61.5058 103.44 61.3974 103.178 61.3386C103.073 61.3155 102.967 61.3003 102.859 61.2932C102.648 61.2788 102.436 61.2971 102.231 61.3474C101.924 61.4239 101.639 61.5693 101.396 61.7725C101.154 61.9758 100.96 62.2316 100.831 62.5207C100.702 62.8098 100.64 63.1246 100.649 63.4412C100.659 63.7579 100.741 64.0682 100.888 64.3487L102.202 66.8417L102.267 66.9662H106.68L104.618 62.4987Z" fill="#3F3D56"/>
<path d="M97.3949 61.1995C97.1882 61.0941 96.9655 61.0238 96.7358 60.9915C96.5649 60.9671 96.3915 60.9646 96.2199 60.9842C95.7833 61.0337 95.3735 61.2203 95.049 61.5173C94.7246 61.8143 94.5021 62.2065 94.4135 62.6379L93.5234 66.9662H97.0047L97.6551 66.6996L98.4648 63.5856C98.5826 63.1252 98.5408 62.6384 98.3465 62.2049C98.1521 61.7714 97.8166 61.4169 97.3949 61.1995Z" fill="#3F3D56"/>
<path d="M96.4655 55.6683C97.5991 55.5771 98.5403 54.4421 98.4224 53.3085C98.4091 53.7757 98.5677 54.2316 98.8679 54.5893C99.1682 54.9471 99.5891 55.1817 100.051 55.2486C100.571 55.3061 101.141 55.1484 101.593 55.4113C102.095 55.7025 102.255 56.4096 102.777 56.6612C103.282 56.9042 103.923 56.5727 104.172 56.0704C104.421 55.568 104.36 54.9645 104.195 54.4284C103.959 53.6639 103.53 52.9735 102.95 52.4244C102.369 51.8753 101.656 51.4862 100.881 51.2948C100.106 51.1035 99.2945 51.1165 98.5258 51.3326C97.7571 51.5486 97.0573 51.9604 96.4944 52.5278C96.0178 53.0084 95.6393 53.6208 95.5779 54.2955C95.5165 54.9703 95.8289 55.7025 96.4335 56.0056L96.4655 55.6683Z" fill="#2F2E41"/>
<path d="M134.33 62.1325H115.038C114.728 62.1325 114.431 62.009 114.212 61.7893C113.992 61.5695 113.869 61.2715 113.869 60.9607C113.869 60.6499 113.992 60.3519 114.212 60.1321C114.431 59.9123 114.728 59.7889 115.038 59.7889H134.33C134.64 59.7889 134.938 59.9123 135.157 60.1321C135.376 60.3519 135.499 60.6499 135.499 60.9607C135.499 61.2715 135.376 61.5695 135.157 61.7893C134.938 62.009 134.64 62.1325 134.33 62.1325Z" fill="#73A2EE"/>
<path d="M125.561 57.1523H115.038C114.728 57.1523 114.431 57.0289 114.212 56.8091C113.992 56.5893 113.869 56.2913 113.869 55.9805C113.869 55.6697 113.992 55.3717 114.212 55.1519C114.431 54.9322 114.728 54.8087 115.038 54.8087H125.561C125.871 54.8087 126.169 54.9322 126.388 55.1519C126.607 55.3717 126.73 55.6697 126.73 55.9805C126.73 56.2913 126.607 56.5893 126.388 56.8091C126.169 57.0289 125.871 57.1523 125.561 57.1523Z" fill="#1B3A6C"/>
<path d="M131.207 65.7101C130.186 65.712 129.207 66.1199 128.486 66.8442C127.765 67.5686 127.359 68.5503 127.359 69.5738C127.359 70.5973 127.765 71.5789 128.486 72.3033C129.207 73.0277 130.186 73.4356 131.207 73.4375C132.229 73.4356 133.207 73.0277 133.929 72.3033C134.65 71.579 135.055 70.5973 135.055 69.5738C135.055 68.5503 134.65 67.5686 133.929 66.8443C133.207 66.1199 132.229 65.712 131.207 65.7101Z" fill="#1B3A6C"/>
<path d="M130.841 71.1783C130.74 71.1785 130.641 71.1456 130.56 71.0846L130.555 71.0808L129.495 70.268C129.396 70.1918 129.331 70.0792 129.315 69.9552C129.298 69.8311 129.332 69.7057 129.408 69.6064C129.484 69.5071 129.596 69.4421 129.72 69.4256C129.843 69.4091 129.969 69.4426 130.068 69.5186L130.755 70.0463L132.377 67.9246C132.415 67.8754 132.462 67.8342 132.515 67.8031C132.569 67.7721 132.628 67.752 132.689 67.7439C132.751 67.7358 132.813 67.7398 132.873 67.7558C132.932 67.7719 132.988 67.7995 133.037 67.8372L133.038 67.8373L133.028 67.8513L133.038 67.8373C133.137 67.9136 133.202 68.0261 133.218 68.1502C133.234 68.2743 133.201 68.3998 133.125 68.4992L131.216 70.9936C131.172 71.0511 131.115 71.0976 131.05 71.1296C130.985 71.1615 130.914 71.178 130.842 71.1778L130.841 71.1783Z" fill="white"/>
<path d="M123.917 102.021C122.19 102.021 120.502 102.535 119.066 103.498C117.63 104.46 116.511 105.829 115.85 107.431C115.189 109.032 115.016 110.794 115.353 112.494C115.69 114.194 116.522 115.756 117.743 116.982C118.964 118.208 120.519 119.042 122.213 119.38C123.907 119.719 125.662 119.545 127.257 118.881C128.853 118.218 130.216 117.094 131.175 115.653C132.134 114.212 132.646 112.517 132.646 110.784C132.643 108.461 131.723 106.233 130.086 104.591C128.45 102.948 126.231 102.024 123.917 102.021ZM123.917 119.065C122.286 119.065 120.691 118.579 119.334 117.67C117.978 116.76 116.921 115.467 116.296 113.954C115.672 112.442 115.508 110.777 115.826 109.171C116.144 107.565 116.929 106.089 118.083 104.931C119.236 103.773 120.706 102.984 122.306 102.665C123.905 102.345 125.564 102.509 127.071 103.135C128.578 103.761 129.867 104.823 130.773 106.184C131.68 107.545 132.163 109.146 132.164 110.784C132.161 112.979 131.292 115.083 129.746 116.636C128.2 118.188 126.104 119.061 123.917 119.065Z" fill="#1B3A6C"/>
<path d="M128.213 106.582C127.975 106.399 127.674 106.319 127.377 106.358C127.08 106.398 126.81 106.554 126.628 106.793L122.734 111.89L121.086 110.623C120.968 110.532 120.834 110.465 120.69 110.426C120.547 110.387 120.397 110.377 120.249 110.397C120.102 110.416 119.96 110.464 119.831 110.539C119.702 110.614 119.589 110.713 119.499 110.831C119.408 110.95 119.342 111.085 119.304 111.229C119.265 111.374 119.256 111.524 119.276 111.672C119.295 111.82 119.344 111.963 119.419 112.092C119.493 112.221 119.593 112.334 119.711 112.424L122.256 114.379L122.267 114.388C122.462 114.535 122.699 114.614 122.943 114.614C123.117 114.614 123.288 114.574 123.444 114.497C123.6 114.421 123.736 114.309 123.842 114.171L128.422 108.173C128.604 107.934 128.685 107.632 128.645 107.334C128.606 107.036 128.45 106.765 128.213 106.582Z" fill="#1B3A6C"/>
<path d="M186.546 89.8906C185.498 89.8904 184.473 90.2024 183.601 90.7869C182.729 91.3715 182.05 92.2025 181.649 93.1747C181.247 94.1469 181.142 95.2168 181.347 96.2489C181.551 97.281 182.056 98.2291 182.797 98.9733C183.539 99.7174 184.483 100.224 185.511 100.429C186.54 100.635 187.605 100.529 188.574 100.126C189.542 99.7237 190.37 99.0416 190.952 98.1666C191.535 97.2915 191.846 96.2628 191.845 95.2104C191.844 93.8 191.285 92.4478 190.291 91.4505C189.298 90.4532 187.951 89.8922 186.546 89.8906ZM186.546 100.238C185.556 100.238 184.587 99.9431 183.764 99.3909C182.94 98.8387 182.298 98.0538 181.919 97.1353C181.54 96.2169 181.441 95.2062 181.634 94.2311C181.827 93.256 182.304 92.3603 183.004 91.6573C183.704 90.9542 184.596 90.4753 185.568 90.2812C186.539 90.0871 187.546 90.1865 188.461 90.5669C189.376 90.9472 190.158 91.5914 190.708 92.4179C191.259 93.2444 191.552 94.2162 191.553 95.2104C191.551 96.543 191.023 97.8206 190.084 98.763C189.146 99.7054 187.873 100.236 186.546 100.238Z" fill="#557AB7"/>
<path d="M189.154 92.6597C189.01 92.5487 188.827 92.4998 188.647 92.5237C188.467 92.5477 188.303 92.6425 188.192 92.7875L185.828 95.8821L184.828 95.1129C184.756 95.0576 184.675 95.017 184.587 94.9934C184.5 94.9698 184.409 94.9637 184.32 94.9754C184.23 94.9872 184.144 95.0165 184.066 95.0618C183.988 95.1071 183.919 95.1675 183.864 95.2394C183.809 95.3113 183.769 95.3934 183.746 95.481C183.723 95.5686 183.717 95.6599 183.729 95.7497C183.741 95.8395 183.77 95.9261 183.816 96.0044C183.861 96.0828 183.921 96.1514 183.993 96.2063L185.538 97.3931L185.545 97.3985C185.663 97.4879 185.807 97.5361 185.955 97.5359C186.061 97.5359 186.165 97.5117 186.259 97.465C186.354 97.4184 186.437 97.3505 186.501 97.2667L189.282 93.6254C189.392 93.4803 189.441 93.2972 189.417 93.1161C189.393 92.9351 189.299 92.7709 189.154 92.6597Z" fill="#1B3A6C"/>
</svg>
