<svg width="181" height="130" viewBox="0 0 181 130" fill="none" xmlns="http://www.w3.org/2000/svg">
<path d="M145.261 113.477C145.261 113.477 143.093 112.598 136.194 115.76C129.296 118.922 128.435 118.522 126.65 118.047C124.865 117.571 123.869 117.448 121.955 114.807C121.955 114.807 120.604 107.488 119.291 106.353C117.977 105.218 112.431 107.001 112.431 107.001C112.431 107.001 105.773 108.527 104.504 99.6226C104.504 99.6226 105.404 92.9169 104.178 90.8593C104.178 90.8593 106.654 91.925 110.736 90.2035C114.819 88.482 118.088 92.0582 118.088 92.0582C118.088 92.0582 119.112 94.7225 119.01 96.3128C118.907 97.9032 119.555 98.4995 121.502 97.731C121.502 97.731 122.459 96.3702 121.104 94.1199C119.75 91.8697 118.782 90.1953 119.159 88.4492C119.537 86.7031 120.625 84.2786 124.119 83.0674C127.613 81.8562 132.358 81.6328 134.635 80.6757C136.912 79.7186 137.473 79.1079 137.473 79.1079C137.473 79.1079 136.071 80.5118 139.373 86.4653C142.675 92.4189 140.57 95.0012 140.57 95.0012C140.57 95.0012 138.813 99.1882 131.058 98.8479C131.058 98.8479 123.586 99.1205 127.661 102.289C127.661 102.289 130.269 101.758 134.169 100.518C138.07 99.2783 140.885 104.396 141.584 107.956C142.283 111.515 145.261 113.477 145.261 113.477Z" fill="#4C77BD"/>
<path d="M135.217 83.6168L135.258 83.6045C135.557 84.7399 132.218 89.306 129.363 92.9355L129.331 92.9089C133.356 87.7976 135.448 84.496 135.217 83.6168Z" fill="white"/>
<path d="M129.388 92.8389L129.406 92.884C127.125 95.7818 124.258 99.2372 121.963 101.805C121.744 102.049 121.526 102.305 121.317 102.567L121.252 102.514C121.457 102.252 121.68 101.994 121.899 101.75C124.193 99.1921 127.105 95.7388 129.388 92.8389Z" fill="white"/>
<path d="M121.307 102.448L121.352 102.526C117.176 107.742 116.899 115.847 116.889 115.911L116.008 114.886C116.018 114.821 117.102 107.701 121.307 102.448Z" fill="white"/>
<path d="M140.426 110.648C140.426 110.648 135.508 108.086 131.663 109.009C127.818 109.931 119.172 105.75 119.172 105.75C119.172 105.75 115.503 104.26 114.765 102.561C114.765 102.561 112.247 99.897 112.101 98.5218C111.956 97.1466 109.507 93.6811 107.908 93.5479" stroke="white" stroke-width="0.204942" stroke-miterlimit="10"/>
<path d="M139.703 113.114C139.703 113.114 137.223 111.442 137.512 109.495" stroke="white" stroke-width="0.204942" stroke-miterlimit="10"/>
<path d="M135.899 115.272C135.899 115.272 132.351 113.985 132.005 108.935" stroke="white" stroke-width="0.204942" stroke-miterlimit="10"/>
<path d="M130.179 116.579C130.179 116.579 126.789 113.768 127.915 108.853" stroke="white" stroke-width="0.204942" stroke-miterlimit="10"/>
<path d="M123.295 115.207C123.295 115.207 121.041 110.472 123.047 107.392" stroke="white" stroke-width="0.204942" stroke-miterlimit="10"/>
<path d="M140.474 107.527C140.474 107.527 137.91 108.347 138.459 109.692" stroke="white" stroke-width="0.204942" stroke-miterlimit="10"/>
<path d="M137.379 102.881C137.379 102.881 133.946 103.969 133.866 108.824" stroke="white" stroke-width="0.204942" stroke-miterlimit="10"/>
<path d="M132.591 101.75C132.591 101.75 129.466 105.607 129.696 109.111" stroke="white" stroke-width="0.204942" stroke-miterlimit="10"/>
<path d="M127.119 103.262C127.119 103.262 124.016 106.23 124.412 107.88" stroke="white" stroke-width="0.204942" stroke-miterlimit="10"/>
<path d="M125.248 102.215C125.248 102.215 122.338 102.736 121.93 101.781" stroke="white" stroke-width="0.204942" stroke-miterlimit="10"/>
<path d="M121.467 98.7026C121.467 98.7026 122.937 100.65 123.312 100.213" stroke="white" stroke-width="0.204942" stroke-miterlimit="10"/>
<path d="M136.043 97.4711C136.043 97.4711 128.706 98.0039 127.046 95.7905" stroke="white" stroke-width="0.204942" stroke-miterlimit="10"/>
<path d="M119.932 88.8896C119.932 88.8896 123.373 96.2778 125.875 97.2185" stroke="white" stroke-width="0.204942" stroke-miterlimit="10"/>
<path d="M123.535 85.3706C123.535 85.3706 125.648 92.1665 128.267 94.2876" stroke="white" stroke-width="0.204942" stroke-miterlimit="10"/>
<path d="M139.129 91.8607C139.129 91.8607 133.55 94.2544 130.202 91.832" stroke="white" stroke-width="0.153707" stroke-miterlimit="10"/>
<path d="M128.503 83.9219C128.503 83.9219 129.777 88.9163 131.495 90.1234" stroke="white" stroke-width="0.153707" stroke-miterlimit="10"/>
<path d="M138.287 86.2642C138.287 86.2642 135.151 87.4528 133.983 86.5429" stroke="white" stroke-width="0.153707" stroke-miterlimit="10"/>
<path d="M118.781 100.333C118.781 100.333 118.781 104.689 117.596 104.998" stroke="white" stroke-width="0.204942" stroke-miterlimit="10"/>
<path d="M109.089 105.976C109.089 105.976 113.802 106.385 115.969 103.949" stroke="white" stroke-width="0.204942" stroke-miterlimit="10"/>
<path d="M117.567 95.1895C117.567 95.1895 116.428 99.606 113.284 100.797" stroke="white" stroke-width="0.204942" stroke-miterlimit="10"/>
<path d="M106.264 101.323C106.264 101.323 109.597 102.481 112.464 99.5322" stroke="white" stroke-width="0.204942" stroke-miterlimit="10"/>
<path d="M113.86 91.3921C113.86 91.3921 113.546 95.1425 111.507 96.8989" stroke="white" stroke-width="0.204942" stroke-miterlimit="10"/>
<path d="M106.391 95.6074C106.391 95.6074 109.156 95.6259 109.804 94.7241" stroke="white" stroke-width="0.204942" stroke-miterlimit="10"/>
<path d="M132.665 0.0751953H0.533691V84.6979H132.665V0.0751953Z" fill="#E6E6E6"/>
<path d="M128.887 10.6885H4.31201V79.6911H128.887V10.6885Z" fill="white"/>
<path d="M132.609 0H0.477539V5.61337H132.609V0Z" fill="#1B3A6C"/>
<path d="M4.64889 3.91106C5.22354 3.91106 5.68938 3.44522 5.68938 2.87057C5.68938 2.29592 5.22354 1.83008 4.64889 1.83008C4.07424 1.83008 3.6084 2.29592 3.6084 2.87057C3.6084 3.44522 4.07424 3.91106 4.64889 3.91106Z" fill="white"/>
<path d="M8.59811 3.91106C9.17276 3.91106 9.6386 3.44522 9.6386 2.87057C9.6386 2.29592 9.17276 1.83008 8.59811 1.83008C8.02346 1.83008 7.55762 2.29592 7.55762 2.87057C7.55762 3.44522 8.02346 3.91106 8.59811 3.91106Z" fill="white"/>
<path d="M12.5473 3.91106C13.122 3.91106 13.5878 3.44522 13.5878 2.87057C13.5878 2.29592 13.122 1.83008 12.5473 1.83008C11.9727 1.83008 11.5068 2.29592 11.5068 2.87057C11.5068 3.44522 11.9727 3.91106 12.5473 3.91106Z" fill="white"/>
<path d="M44.0044 16.3643H19.6394V42.7981H44.0044V16.3643Z" fill="#C8DDFF"/>
<path d="M44.0044 47.5825H19.6394V74.0164H44.0044V47.5825Z" fill="#C8DDFF"/>
<path d="M78.782 47.5825H54.417V74.0164H78.782V47.5825Z" fill="#C8DDFF"/>
<path d="M113.559 47.5825H89.1938V74.0164H113.559V47.5825Z" fill="#C8DDFF"/>
<path d="M73.3997 102.213L73.7349 118.144L84.0487 123.595L102.831 120.241L103.293 103.68L91.3856 99.4873L73.3997 102.213Z" fill="white"/>
<path d="M84.0216 123.767L73.5722 118.245L73.2317 102.072L91.4014 99.3188L91.4402 99.3324L103.46 103.565L102.992 120.38L84.0216 123.767ZM73.8974 118.044L84.0754 123.423L102.67 120.102L103.124 103.796L91.3695 99.6568L73.5671 102.354L73.8974 118.044Z" fill="#CACACA"/>
<path d="M83.8183 106.532L83.778 106.516L73.3386 102.366L73.4602 102.06L83.8593 106.194L103.27 103.517L103.315 103.843L83.8183 106.532Z" fill="#CACACA"/>
<path d="M84.0037 106.361L83.6743 106.365L83.8839 123.597L84.2133 123.593L84.0037 106.361Z" fill="#CACACA"/>
<path d="M81.5877 105.333L78.7361 104.182L96.8519 101.295L99.7033 102.446L81.5877 105.333Z" fill="#CACACA"/>
<path d="M73.4645 106.834L73.3342 107.137L77.6987 109.016L77.829 108.713L73.4645 106.834Z" fill="#CACACA"/>
<path d="M75.4408 112.269L75.3105 112.572L79.6751 114.451L79.8053 114.148L75.4408 112.269Z" fill="#1B3A6C"/>
<path d="M91.3171 104.397L91.7065 122.891L103.679 129.218L125.483 125.325L126.018 106.1L112.196 101.233L91.3171 104.397Z" fill="#1B3A6C"/>
<path d="M103.648 129.418L91.5178 123.007L91.1226 104.233L112.215 101.037L112.26 101.053L126.213 105.966L125.67 125.485L103.648 129.418ZM91.8953 122.774L103.71 129.018L125.296 125.163L125.823 106.234L112.178 101.429L91.5119 104.561L91.8953 122.774Z" fill="#6885BC"/>
<path d="M103.412 109.411L103.365 109.393L91.2466 104.575L91.3878 104.219L103.459 109.019L125.992 105.911L126.044 106.29L103.412 109.411Z" fill="#6885BC"/>
<path d="M103.627 109.213L103.245 109.217L103.488 129.22L103.87 129.216L103.627 109.213Z" fill="#6885BC"/>
<path d="M101.016 108.028L97.5122 106.684L118.542 103.333L122.046 104.677L101.016 108.028Z" fill="#6885BC"/>
<path d="M91.3929 109.762L91.2417 110.113L96.3082 112.295L96.4594 111.943L91.3929 109.762Z" fill="#6885BC"/>
<path d="M93.6873 116.072L93.5361 116.423L98.6026 118.604L98.7539 118.253L93.6873 116.072Z" fill="white"/>
<path d="M26.468 102.213L26.8033 118.144L37.117 123.595L55.8996 120.241L56.3609 103.68L44.4539 99.4873L26.468 102.213Z" fill="white"/>
<path d="M37.09 123.767L26.6405 118.245L26.3 102.072L44.4698 99.3188L44.5085 99.3324L56.5287 103.565L56.0604 120.38L37.09 123.767ZM26.9658 118.044L37.1437 123.423L55.7386 120.102L56.1927 103.796L44.4379 99.6568L26.6355 102.354L26.9658 118.044Z" fill="#CACACA"/>
<path d="M36.8867 106.532L36.8463 106.516L26.407 102.366L26.5285 102.06L36.9277 106.194L56.3382 103.517L56.3833 103.843L36.8867 106.532Z" fill="#CACACA"/>
<path d="M37.0718 106.361L36.7424 106.365L36.952 123.597L37.2814 123.593L37.0718 106.361Z" fill="#CACACA"/>
<path d="M34.6558 105.333L31.8042 104.182L49.9201 101.295L52.7714 102.446L34.6558 105.333Z" fill="#CACACA"/>
<path d="M26.5326 106.834L26.4023 107.137L30.7669 109.016L30.8971 108.713L26.5326 106.834Z" fill="#CACACA"/>
<path d="M28.5092 112.269L28.3789 112.572L32.7434 114.451L32.8737 114.148L28.5092 112.269Z" fill="#4C77BD"/>
<path d="M44.3855 104.397L44.7749 122.891L56.7474 129.218L78.551 125.325L79.0863 106.1L65.2644 101.233L44.3855 104.397Z" fill="#4C77BD"/>
<path d="M56.7163 129.418L44.5862 123.007L44.1909 104.233L65.2831 101.037L65.328 101.053L79.2815 105.966L78.7379 125.485L56.7163 129.418ZM44.9637 122.774L56.7786 129.018L78.3643 125.163L78.8914 106.234L65.246 101.429L44.5803 104.561L44.9637 122.774Z" fill="#3F3D56"/>
<path d="M56.4801 109.411L56.4333 109.393L44.3147 104.575L44.4559 104.219L56.5276 109.019L79.06 105.911L79.1122 106.29L56.4801 109.411Z" fill="#3F3D56"/>
<path d="M56.6954 109.213L56.313 109.217L56.5563 129.22L56.9387 129.216L56.6954 109.213Z" fill="#3F3D56"/>
<path d="M54.0847 108.028L50.5806 106.684L71.6101 103.333L75.1144 104.677L54.0847 108.028Z" fill="#3F3D56"/>
<path d="M44.461 109.762L44.3098 110.113L49.3763 112.295L49.5275 111.943L44.461 109.762Z" fill="#3F3D56"/>
<path d="M46.7555 116.072L46.6042 116.423L51.6708 118.604L51.822 118.253L46.7555 116.072Z" fill="white"/>
<path d="M154.071 56.9436H165.753V50.6929C165.753 49.1438 165.138 47.6582 164.042 46.5628C162.947 45.4674 161.461 44.8521 159.912 44.8521C158.363 44.8521 156.877 45.4674 155.782 46.5628C154.687 47.6582 154.071 49.1438 154.071 50.6929V56.9436Z" fill="#2F2E41"/>
<path d="M148.856 126.489H146.344L145.149 116.797H148.857L148.856 126.489Z" fill="#FFB6B6"/>
<path d="M149.497 125.669H144.549C143.713 125.669 142.911 126.001 142.319 126.592C141.728 127.184 141.396 127.986 141.396 128.822V128.924H149.497V125.669Z" fill="#2F2E41"/>
<path d="M178.892 123.136L176.704 124.371L170.898 116.52L174.127 114.697L178.892 123.136Z" fill="#FFB6B6"/>
<path d="M179.046 122.107L174.738 124.539C174.009 124.95 173.474 125.634 173.25 126.439C173.026 127.245 173.131 128.107 173.542 128.835L173.592 128.924L180.647 124.941L179.046 122.107Z" fill="#2F2E41"/>
<path d="M162.834 82.9041L163.028 83.8735C163.028 83.8735 163.609 84.4551 163.318 84.7459C163.028 85.0367 163.124 86.394 163.124 86.394C163.287 88.8689 166.521 102.776 167.099 105.492C167.099 105.492 171.559 108.401 175.049 114.12C178.539 119.84 178.635 121.294 178.635 121.294L174.758 122.943L165.064 111.212C165.064 111.212 162.35 109.564 161.38 108.11C160.411 106.656 154.399 91.6291 154.399 91.6291L151.005 107.334C151.005 107.334 151.199 113.054 150.327 116.738C149.79 119.063 149.466 121.432 149.357 123.815L144.801 123.331C144.801 123.331 145.092 109.564 145.577 108.11C145.577 108.11 143.541 91.3383 147.612 84.649L150.894 75.9006L154.108 74.6636L162.834 82.9041Z" fill="#2F2E41"/>
<path d="M159.973 46.3799C153.856 46.4844 153.857 55.5832 159.973 55.6867C166.089 55.5822 166.088 46.4834 159.973 46.3799Z" fill="#FFB8B8"/>
<path d="M155.265 50.792H156.304L156.587 50.0841L156.446 50.792H162.132L161.947 49.3109L163.33 50.792H164.708V49.9894C164.709 49.3694 164.587 48.7554 164.35 48.1824C164.113 47.6094 163.766 47.0886 163.328 46.6499C162.89 46.2112 162.369 45.863 161.797 45.6253C161.224 45.3876 160.61 45.2651 159.99 45.2646C159.37 45.2642 158.756 45.3859 158.183 45.6228C157.61 45.8596 157.089 46.2071 156.651 46.6452C156.212 47.0833 155.864 47.6035 155.626 48.1762C155.388 48.7489 155.266 49.3627 155.265 49.9828V49.9894L155.265 50.792Z" fill="#2F2E41"/>
<path d="M153.665 58.4038L165.224 58.4975L162.782 83.2785C162.782 83.2785 149.264 82.5651 149.255 78.439L150.522 74.7723L153.665 58.4038Z" fill="#3F3D56"/>
<path d="M165.72 85.6741C165.543 85.4565 165.415 85.2026 165.346 84.9302C165.277 84.6579 165.269 84.3737 165.321 84.0978C165.374 83.8219 165.487 83.5609 165.651 83.3332C165.816 83.1055 166.028 82.9166 166.274 82.7799L165.771 78.4173L168.348 77.4653L168.971 83.6364C169.172 84.0637 169.209 84.55 169.076 85.0032C168.943 85.4564 168.649 85.8451 168.249 86.096C167.849 86.3469 167.37 86.4425 166.904 86.3647C166.439 86.287 166.017 86.0413 165.72 85.6741Z" fill="#FFB6B6"/>
<path d="M163.704 60.6322L165.225 58.5064C165.225 58.5064 166.265 58.2754 167.495 59.71C168.725 61.1446 169.442 79.077 169.442 79.077L164.933 80.1017L162.269 67.3953L163.704 60.6322Z" fill="#3F3D56"/>
<path d="M138.226 80.0793L138.562 96.0109L148.875 101.461L167.658 98.1073L168.119 81.5467L156.212 77.354L138.226 80.0793Z" fill="white"/>
<path d="M148.848 101.633L138.399 96.1112L138.058 79.9381L156.228 77.1851L156.267 77.1986L168.287 81.4311L167.819 98.2457L148.848 101.633ZM138.724 95.9105L148.902 101.289L167.497 97.9686L167.951 81.6621L156.196 77.523L138.394 80.2203L138.724 95.9105Z" fill="#CACACA"/>
<path d="M148.645 84.3984L148.605 84.3825L138.166 80.2318L138.287 79.9258L148.686 84.0603L168.097 81.3831L168.142 81.7094L148.645 84.3984Z" fill="#CACACA"/>
<path d="M148.83 84.2274L148.501 84.2314L148.711 101.463L149.04 101.459L148.83 84.2274Z" fill="#CACACA"/>
<path d="M147.326 83.5738L143.563 82.0482L161.679 79.1616L165.442 80.687L147.326 83.5738Z" fill="#CACACA"/>
<path d="M138.291 84.7004L138.161 85.0029L142.525 86.8821L142.656 86.5795L138.291 84.7004Z" fill="#CACACA"/>
<path d="M140.268 90.1354L140.137 90.438L144.502 92.3172L144.632 92.0146L140.268 90.1354Z" fill="#6C63FF"/>
<path d="M144.074 82.7133C144.328 82.5939 144.553 82.4202 144.733 82.2045C144.913 81.9888 145.043 81.7362 145.115 81.4646C145.187 81.193 145.198 80.909 145.148 80.6326C145.099 80.3561 144.989 80.094 144.827 79.8646L147.167 76.149L145.257 74.1758L142.024 79.4692C141.657 79.7673 141.412 80.1896 141.335 80.6563C141.259 81.123 141.356 81.6016 141.608 82.0014C141.861 82.4012 142.251 82.6946 142.706 82.8258C143.16 82.957 143.647 82.9171 144.074 82.7135V82.7133Z" fill="#FFB6B6"/>
<path d="M155.441 59.3809L153.764 58.2759C153.764 58.2759 152.47 58.5661 151.094 61.2135C149.717 63.861 144.167 75.6972 144.167 75.6972L146.448 78.013L152.535 68.7273L155.441 59.3809Z" fill="#3F3D56"/>
<path d="M67.9132 52.2603H65.8122C65.7384 52.2603 65.6675 52.2896 65.6153 52.3418C65.563 52.3941 65.5337 52.4649 65.5337 52.5388V53.461C65.5337 53.5349 65.563 53.6057 65.6153 53.658C65.6675 53.7102 65.7384 53.7395 65.8122 53.7395H66.1604V55.1213H67.5651V53.7395H67.9132C67.9871 53.7395 68.058 53.7102 68.1102 53.658C68.1624 53.6057 68.1918 53.5349 68.1918 53.461V52.5388C68.1918 52.4649 68.1624 52.3941 68.1102 52.3418C68.058 52.2896 67.9871 52.2603 67.9132 52.2603Z" fill="#6C63FF"/>
<path d="M70.0176 60.7003C68.7309 58.8175 68.0731 56.5758 68.1384 54.2962C68.1396 54.2436 68.1225 54.1922 68.0901 54.1508C68.0577 54.1094 68.012 54.0804 67.9606 54.0689V53.6704H65.7417V54.0633H65.7111C65.6798 54.0634 65.6489 54.0699 65.6202 54.0824C65.5915 54.095 65.5657 54.1133 65.5445 54.1362C65.5232 54.1592 65.5069 54.1863 65.4965 54.2158C65.4862 54.2453 65.482 54.2767 65.4844 54.3079C65.6592 56.7447 65.0689 58.93 63.7135 60.8638C63.6355 60.9749 63.5956 61.1083 63.5999 61.244L63.8425 68.7492C63.8484 68.9166 63.9186 69.0753 64.0387 69.1922C64.1587 69.309 64.3192 69.375 64.4867 69.3763H69.5056C69.675 69.3749 69.8372 69.3074 69.9576 69.1882C70.078 69.069 70.1471 68.9076 70.1501 68.7382L70.2436 61.4512C70.2464 61.1838 70.1675 60.9218 70.0176 60.7003Z" fill="#3F3D56"/>
<path opacity="0.2" d="M67.4754 52.561C67.4754 52.7204 67.412 52.8733 67.2993 52.986C67.1866 53.0987 67.0338 53.162 66.8744 53.162C66.715 53.162 66.5622 53.0987 66.4495 52.986C66.3368 52.8733 66.2734 52.7204 66.2734 52.561" fill="black"/>
<path d="M69.2231 63.1935H68.6153C68.5573 62.817 68.3664 62.4737 68.0773 62.2257C67.7881 61.9776 67.4198 61.8413 67.0388 61.8413C66.6579 61.8413 66.2895 61.9776 66.0003 62.2257C65.7112 62.4737 65.5203 62.817 65.4623 63.1935H64.8545C64.7898 63.1935 64.7259 63.2075 64.6672 63.2345C64.6084 63.2615 64.5562 63.3009 64.5141 63.3499C64.472 63.399 64.441 63.4566 64.4233 63.5188C64.4055 63.581 64.4014 63.6463 64.4112 63.7102L65.0714 68.0012H68.862L69.6639 63.7246C69.676 63.6599 69.6738 63.5932 69.6572 63.5294C69.6407 63.4656 69.6103 63.4063 69.5682 63.3555C69.5261 63.3048 69.4734 63.264 69.4137 63.236C69.3541 63.208 69.289 63.1935 69.2231 63.1935Z" fill="#6C63FF"/>
<path d="M35.2913 56.0405L35.1424 61.9904L34.9581 69.3685H28.6828L28.4668 60.7241L28.3496 56.0405H35.2913Z" fill="white"/>
<path d="M32.2367 52.875H31.3481V64.648H32.2367V52.875Z" fill="#6C63FF"/>
<path d="M34.847 60.5242L34.6789 68.9808H28.9591L28.7622 59.073C29.2775 58.9282 29.8171 58.8912 30.3474 58.9641C30.8777 59.037 31.3872 59.2184 31.8443 59.4969C32.8 60.0621 33.8736 60.3663 34.847 60.5242Z" fill="#3F3D56"/>
<path d="M30.3751 61.4756H29.5598V62.2909H30.3751V61.4756Z" fill="white"/>
<path d="M30.9303 59.8096H30.115V60.6249H30.9303V59.8096Z" fill="white"/>
<path d="M32.6812 60.9632L32.0264 60.4775L31.5407 61.1324L32.1955 61.6181L32.6812 60.9632Z" fill="white"/>
<path d="M34.1541 62.408L33.4993 61.9224L33.0136 62.5772L33.6684 63.0629L34.1541 62.408Z" fill="white"/>
<path d="M31.6551 63.2406L31.0002 62.7549L30.5146 63.4097L31.1694 63.8954L31.6551 63.2406Z" fill="white"/>
<path d="M33.5697 59.4836C33.6617 59.4836 33.7363 59.409 33.7363 59.317C33.7363 59.225 33.6617 59.1504 33.5697 59.1504C33.4777 59.1504 33.4031 59.225 33.4031 59.317C33.4031 59.409 33.4777 59.4836 33.5697 59.4836Z" fill="#3F3D56"/>
<path d="M30.182 58.3728C30.274 58.3728 30.3486 58.2982 30.3486 58.2062C30.3486 58.1141 30.274 58.0396 30.182 58.0396C30.09 58.0396 30.0154 58.1141 30.0154 58.2062C30.0154 58.2982 30.09 58.3728 30.182 58.3728Z" fill="#3F3D56"/>
<path d="M33.0145 57.2067C33.1065 57.2067 33.1811 57.1321 33.1811 57.0401C33.1811 56.9481 33.1065 56.8735 33.0145 56.8735C32.9225 56.8735 32.8479 56.9481 32.8479 57.0401C32.8479 57.1321 32.9225 57.2067 33.0145 57.2067Z" fill="#3F3D56"/>
<path d="M31.884 38.6299C36.8921 38.6299 40.9519 34.5701 40.9519 29.562C40.9519 24.554 36.8921 20.4941 31.884 20.4941C26.876 20.4941 22.8162 24.554 22.8162 29.562C22.8162 34.5701 26.876 38.6299 31.884 38.6299Z" fill="#6C63FF"/>
<path opacity="0.2" d="M31.8839 36.9442C30.1761 36.9442 28.521 36.352 27.2008 35.2685C25.8807 34.1851 24.977 32.6774 24.6438 31.0023C24.3106 29.3273 24.5686 27.5885 25.3736 26.0823C26.1787 24.5761 27.4812 23.3957 29.059 22.7421C30.6369 22.0885 32.3925 22.0023 34.0269 22.498C35.6612 22.9938 37.0731 24.0409 38.0219 25.461C38.9707 26.881 39.3978 28.5861 39.2304 30.2858C39.063 31.9854 38.3115 33.5744 37.1038 34.7821C36.4199 35.4697 35.6065 36.0148 34.7105 36.386C33.8145 36.7571 32.8537 36.9468 31.8839 36.9442ZM31.8839 22.6354C28.0645 22.6354 24.9571 25.7427 24.9571 29.5621C24.9571 33.3816 28.0645 36.4889 31.8839 36.4889C35.7033 36.4889 38.8107 33.3816 38.8107 29.5621C38.8107 25.7427 35.7033 22.6354 31.8839 22.6354Z" fill="black"/>
<path d="M31.8839 36.7165C35.8352 36.7165 39.0383 33.5134 39.0383 29.5621C39.0383 25.6109 35.8352 22.4077 31.8839 22.4077C27.9326 22.4077 24.7295 25.6109 24.7295 29.5621C24.7295 33.5134 27.9326 36.7165 31.8839 36.7165Z" fill="#3F3D56"/>
<path d="M26.5634 26.7012C26.5092 26.595 26.4764 26.4791 26.467 26.3601C26.4575 26.2412 26.4716 26.1215 26.5085 26.008C26.5453 25.8945 26.6041 25.7894 26.6816 25.6987C26.7591 25.608 26.8537 25.5334 26.9601 25.4792C27.0664 25.4251 27.1823 25.3924 27.3013 25.3831C27.4202 25.3738 27.5399 25.3881 27.6533 25.425C27.7668 25.462 27.8718 25.5209 27.9625 25.5985C28.0531 25.6761 28.1276 25.7708 28.1816 25.8772L30.2029 29.8464C30.2572 29.9527 30.29 30.0686 30.2994 30.1875C30.3088 30.3065 30.2947 30.4261 30.2579 30.5396C30.2211 30.6531 30.1622 30.7582 30.0847 30.8489C30.0072 30.9397 29.9126 31.0142 29.8063 31.0684C29.7 31.1225 29.584 31.1552 29.4651 31.1645C29.3461 31.1738 29.2265 31.1596 29.113 31.1226C28.9996 31.0857 28.8945 31.0267 28.8039 30.9491C28.7132 30.8715 28.6388 30.7768 28.5847 30.6705L26.5634 26.7012Z" fill="#FF6584"/>
<path opacity="0.2" d="M26.7888 27.1445L26.6956 26.9613C27.1611 26.5995 27.7079 26.3335 28.3138 26.1372L28.4071 26.3204C27.7513 26.457 27.1934 26.7097 26.7888 27.1445Z" fill="black"/>
<path opacity="0.2" d="M27.2244 27.999L27.1311 27.8158C27.5967 27.454 28.1434 27.188 28.7493 26.9917L28.8426 27.1749C28.1868 27.3115 27.6289 27.5642 27.2244 27.999Z" fill="black"/>
<path opacity="0.2" d="M27.6595 28.8539L27.5662 28.6708C28.0317 28.309 28.5785 28.0429 29.1844 27.8467L29.2777 28.0299C28.6219 28.1664 28.064 28.4192 27.6595 28.8539Z" fill="black"/>
<path opacity="0.2" d="M28.0948 29.7089L28.0015 29.5257C28.4671 29.164 29.0138 28.8979 29.6197 28.7017L29.713 28.8849C29.0572 29.0214 28.4993 29.2741 28.0948 29.7089Z" fill="black"/>
<path opacity="0.2" d="M28.5303 30.5639L28.437 30.3807C28.9026 30.0189 29.4493 29.7529 30.0552 29.5566L30.1485 29.7398C29.4927 29.8764 28.9348 30.1291 28.5303 30.5639Z" fill="black"/>
<path d="M25.047 28.1875C24.9928 28.0812 24.96 27.9653 24.9506 27.8464C24.9412 27.7274 24.9553 27.6078 24.9921 27.4943C25.029 27.3808 25.0878 27.2757 25.1653 27.185C25.2428 27.0943 25.3374 27.0197 25.4437 26.9656C25.55 26.9114 25.666 26.8788 25.7849 26.8695C25.9039 26.8602 26.0235 26.8744 26.1369 26.9113C26.2504 26.9483 26.3554 27.0072 26.4461 27.0848C26.5367 27.1624 26.6112 27.257 26.6652 27.3634L28.6865 31.3326C28.7955 31.5472 28.8149 31.7962 28.7403 32.025C28.6658 32.2539 28.5035 32.4437 28.289 32.5529C28.0746 32.6621 27.8256 32.6817 27.5967 32.6074C27.3678 32.5332 27.1778 32.371 27.0683 32.1567L25.047 28.1875Z" fill="#FF6584"/>
<path opacity="0.2" d="M25.2725 28.6303L25.1792 28.4471C25.6448 28.0854 26.1915 27.8193 26.7974 27.623L26.8907 27.8062C26.2349 27.9428 25.677 28.1955 25.2725 28.6303Z" fill="black"/>
<path opacity="0.2" d="M25.7078 29.4853L25.6145 29.3021C26.0801 28.9403 26.6268 28.6743 27.2327 28.478L27.326 28.6612C26.6702 28.7978 26.1123 29.0505 25.7078 29.4853Z" fill="black"/>
<path opacity="0.2" d="M26.1431 30.3403L26.0498 30.1571C26.5154 29.7953 27.0621 29.5293 27.668 29.333L27.7613 29.5162C27.1055 29.6528 26.5476 29.9055 26.1431 30.3403Z" fill="black"/>
<path opacity="0.2" d="M26.5784 31.1948L26.4851 31.0116C26.9507 30.6498 27.4974 30.3838 28.1033 30.1875L28.1966 30.3707C27.5408 30.5073 26.9829 30.76 26.5784 31.1948Z" fill="black"/>
<path opacity="0.2" d="M27.0139 32.0493L26.9207 31.8661C27.3862 31.5043 27.933 31.2382 28.5389 31.042L28.6322 31.2252C27.9764 31.3617 27.4185 31.6145 27.0139 32.0493Z" fill="black"/>
<path d="M36.6644 29.7896L36.6707 29.7896C36.8885 29.7915 37.1017 29.7276 37.2826 29.6065C37.4634 29.4853 37.6036 29.3124 37.6848 29.1104C37.8517 28.6884 37.9358 28.2383 37.9326 27.7845C37.9212 25.8638 36.3587 24.2881 34.4381 24.2616C33.6202 24.2501 32.8235 24.5219 32.1831 25.0307C31.5426 25.5396 31.0979 26.2542 30.9241 27.0536C30.7504 27.8529 30.8585 28.6877 31.2299 29.4165C31.6014 30.1453 32.2135 30.7232 32.9623 31.0522C33.1602 31.1398 33.38 31.1656 33.5928 31.1261C33.8056 31.0867 34.0015 30.9838 34.1549 30.8311C34.4837 30.5005 34.8748 30.2382 35.3055 30.0595C35.7362 29.8808 36.198 29.789 36.6644 29.7896Z" fill="#E6E6E6"/>
<path d="M34.8433 28.7164C35.4899 28.7164 36.0141 28.1923 36.0141 27.5457C36.0141 26.8992 35.4899 26.375 34.8433 26.375C34.1968 26.375 33.6726 26.8992 33.6726 27.5457C33.6726 28.1923 34.1968 28.7164 34.8433 28.7164Z" fill="#F9A825"/>
<path d="M32.2988 27.4145C32.375 27.4145 32.4367 27.3528 32.4367 27.2766C32.4367 27.2004 32.375 27.1387 32.2988 27.1387C32.2226 27.1387 32.1609 27.2004 32.1609 27.2766C32.1609 27.3528 32.2226 27.4145 32.2988 27.4145Z" fill="#3F3D56"/>
<path d="M27.7461 27.5444C27.8222 27.5444 27.884 27.4826 27.884 27.4065C27.884 27.3303 27.8222 27.2686 27.7461 27.2686C27.6699 27.2686 27.6082 27.3303 27.6082 27.4065C27.6082 27.4826 27.6699 27.5444 27.7461 27.5444Z" fill="#3F3D56"/>
<path d="M33.0337 25.9848C33.1098 25.9848 33.1716 25.9231 33.1716 25.8469C33.1716 25.7707 33.1098 25.709 33.0337 25.709C32.9575 25.709 32.8958 25.7707 32.8958 25.8469C32.8958 25.9231 32.9575 25.9848 33.0337 25.9848Z" fill="#3F3D56"/>
<path d="M33.0303 29.9604C33.1064 29.9604 33.1682 29.8987 33.1682 29.8225C33.1682 29.7463 33.1064 29.6846 33.0303 29.6846C32.9541 29.6846 32.8923 29.7463 32.8923 29.8225C32.8923 29.8987 32.9541 29.9604 33.0303 29.9604Z" fill="#3F3D56"/>
<path d="M35.7617 25.7001C35.8379 25.7001 35.8996 25.6384 35.8996 25.5622C35.8996 25.4861 35.8379 25.4243 35.7617 25.4243C35.6855 25.4243 35.6238 25.4861 35.6238 25.5622C35.6238 25.6384 35.6855 25.7001 35.7617 25.7001Z" fill="#3F3D56"/>
<path d="M26.8511 29.4726C26.9272 29.4726 26.989 29.4109 26.989 29.3347C26.989 29.2585 26.9272 29.1968 26.8511 29.1968C26.7749 29.1968 26.7131 29.2585 26.7131 29.3347C26.7131 29.4109 26.7749 29.4726 26.8511 29.4726Z" fill="#3F3D56"/>
<path d="M27.8594 31.456C27.9355 31.456 27.9973 31.3943 27.9973 31.3181C27.9973 31.2419 27.9355 31.1802 27.8594 31.1802C27.7832 31.1802 27.7214 31.2419 27.7214 31.3181C27.7214 31.3943 27.7832 31.456 27.8594 31.456Z" fill="#3F3D56"/>
<path d="M34.1929 32.0987C34.4803 32.0987 34.7133 31.8658 34.7133 31.5784C34.7133 31.2911 34.4803 31.0581 34.1929 31.0581C33.9056 31.0581 33.6726 31.2911 33.6726 31.5784C33.6726 31.8658 33.9056 32.0987 34.1929 32.0987Z" fill="#FF6584"/>
<path opacity="0.2" d="M34.5832 31.6108C34.5832 31.7143 34.5421 31.8136 34.4689 31.8868C34.3957 31.96 34.2965 32.0011 34.193 32.0011C34.0895 32.0011 33.9902 31.96 33.917 31.8868C33.8438 31.8136 33.8027 31.7143 33.8027 31.6108" fill="black"/>
<path opacity="0.2" d="M33.8027 31.546C33.8027 31.4425 33.8438 31.3432 33.917 31.2701C33.9902 31.1969 34.0895 31.1558 34.193 31.1558C34.2965 31.1558 34.3957 31.1969 34.4689 31.2701C34.5421 31.3432 34.5832 31.4425 34.5832 31.546" fill="black"/>
<path d="M33.9979 31.4486C34.0158 31.4486 34.0304 31.4268 34.0304 31.3999C34.0304 31.3729 34.0158 31.3511 33.9979 31.3511C33.9799 31.3511 33.9653 31.3729 33.9653 31.3999C33.9653 31.4268 33.9799 31.4486 33.9979 31.4486Z" fill="#FF6584"/>
<path d="M34.1929 31.3832C34.2109 31.3832 34.2254 31.3614 34.2254 31.3344C34.2254 31.3075 34.2109 31.2856 34.1929 31.2856C34.175 31.2856 34.1604 31.3075 34.1604 31.3344C34.1604 31.3614 34.175 31.3832 34.1929 31.3832Z" fill="#FF6584"/>
<path d="M34.1929 31.8065C34.2109 31.8065 34.2254 31.7847 34.2254 31.7578C34.2254 31.7308 34.2109 31.709 34.1929 31.709C34.175 31.709 34.1604 31.7308 34.1604 31.7578C34.1604 31.7847 34.175 31.8065 34.1929 31.8065Z" fill="#FF6584"/>
<path d="M34.388 31.5458C34.4059 31.5458 34.4205 31.524 34.4205 31.497C34.4205 31.4701 34.4059 31.4482 34.388 31.4482C34.37 31.4482 34.3555 31.4701 34.3555 31.497C34.3555 31.524 34.37 31.5458 34.388 31.5458Z" fill="#FF6584"/>
<path d="M34.3555 31.9037C34.3735 31.9037 34.388 31.8819 34.388 31.8549C34.388 31.828 34.3735 31.8062 34.3555 31.8062C34.3376 31.8062 34.323 31.828 34.323 31.8549C34.323 31.8819 34.3376 31.9037 34.3555 31.9037Z" fill="#FF6584"/>
<path d="M33.9654 31.7411C33.9833 31.7411 33.9979 31.7193 33.9979 31.6923C33.9979 31.6654 33.9833 31.6436 33.9654 31.6436C33.9474 31.6436 33.9329 31.6654 33.9329 31.6923C33.9329 31.7193 33.9474 31.7411 33.9654 31.7411Z" fill="#FF6584"/>
<path d="M35.2337 30.7003C35.5211 30.7003 35.754 30.4674 35.754 30.18C35.754 29.8926 35.5211 29.6597 35.2337 29.6597C34.9463 29.6597 34.7134 29.8926 34.7134 30.18C34.7134 30.4674 34.9463 30.7003 35.2337 30.7003Z" fill="#FF6584"/>
<path opacity="0.2" d="M35.6237 30.2129C35.6237 30.3164 35.5826 30.4156 35.5094 30.4888C35.4363 30.562 35.337 30.6031 35.2335 30.6031C35.13 30.6031 35.0307 30.562 34.9576 30.4888C34.8844 30.4156 34.8433 30.3164 34.8433 30.2129" fill="black"/>
<path opacity="0.2" d="M34.8433 30.1476C34.8433 30.0441 34.8844 29.9448 34.9576 29.8716C35.0307 29.7984 35.13 29.7573 35.2335 29.7573C35.337 29.7573 35.4363 29.7984 35.5094 29.8716C35.5826 29.9448 35.6237 30.0441 35.6237 30.1476" fill="black"/>
<path d="M35.0384 30.0497C35.0563 30.0497 35.0709 30.0279 35.0709 30.0009C35.0709 29.974 35.0563 29.9521 35.0384 29.9521C35.0204 29.9521 35.0059 29.974 35.0059 30.0009C35.0059 30.0279 35.0204 30.0497 35.0384 30.0497Z" fill="#FF6584"/>
<path d="M35.2334 29.9848C35.2514 29.9848 35.266 29.9629 35.266 29.936C35.266 29.909 35.2514 29.8872 35.2334 29.8872C35.2155 29.8872 35.2009 29.909 35.2009 29.936C35.2009 29.9629 35.2155 29.9848 35.2334 29.9848Z" fill="#FF6584"/>
<path d="M35.2334 30.4076C35.2514 30.4076 35.266 30.3858 35.266 30.3588C35.266 30.3319 35.2514 30.3101 35.2334 30.3101C35.2155 30.3101 35.2009 30.3319 35.2009 30.3588C35.2009 30.3858 35.2155 30.4076 35.2334 30.4076Z" fill="#FF6584"/>
<path d="M35.4285 30.1474C35.4465 30.1474 35.461 30.1255 35.461 30.0986C35.461 30.0716 35.4465 30.0498 35.4285 30.0498C35.4106 30.0498 35.396 30.0716 35.396 30.0986C35.396 30.1255 35.4106 30.1474 35.4285 30.1474Z" fill="#FF6584"/>
<path d="M35.396 30.5053C35.414 30.5053 35.4286 30.4834 35.4286 30.4565C35.4286 30.4296 35.414 30.4077 35.396 30.4077C35.3781 30.4077 35.3635 30.4296 35.3635 30.4565C35.3635 30.4834 35.3781 30.5053 35.396 30.5053Z" fill="#FF6584"/>
<path d="M35.0059 30.3427C35.0239 30.3427 35.0384 30.3208 35.0384 30.2939C35.0384 30.267 35.0239 30.2451 35.0059 30.2451C34.9879 30.2451 34.9734 30.267 34.9734 30.2939C34.9734 30.3208 34.9879 30.3427 35.0059 30.3427Z" fill="#FF6584"/>
<path d="M36.2742 31.4161C36.5616 31.4161 36.7945 31.1832 36.7945 30.8958C36.7945 30.6084 36.5616 30.3755 36.2742 30.3755C35.9869 30.3755 35.7539 30.6084 35.7539 30.8958C35.7539 31.1832 35.9869 31.4161 36.2742 31.4161Z" fill="#6C63FF"/>
<path opacity="0.2" d="M36.6643 30.9282C36.6643 31.0317 36.6232 31.131 36.55 31.2042C36.4768 31.2773 36.3775 31.3185 36.274 31.3185C36.1705 31.3185 36.0713 31.2773 35.9981 31.2042C35.9249 31.131 35.8838 31.0317 35.8838 30.9282" fill="black"/>
<path opacity="0.2" d="M35.8838 30.8629C35.8838 30.7594 35.9249 30.6601 35.9981 30.587C36.0713 30.5138 36.1705 30.4727 36.274 30.4727C36.3775 30.4727 36.4768 30.5138 36.55 30.587C36.6232 30.6601 36.6643 30.7594 36.6643 30.8629" fill="black"/>
<path d="M36.0792 30.7655C36.0971 30.7655 36.1117 30.7437 36.1117 30.7167C36.1117 30.6898 36.0971 30.668 36.0792 30.668C36.0612 30.668 36.0466 30.6898 36.0466 30.7167C36.0466 30.7437 36.0612 30.7655 36.0792 30.7655Z" fill="#6C63FF"/>
<path d="M36.2742 30.7006C36.2922 30.7006 36.3067 30.6787 36.3067 30.6518C36.3067 30.6249 36.2922 30.603 36.2742 30.603C36.2563 30.603 36.2417 30.6249 36.2417 30.6518C36.2417 30.6787 36.2563 30.7006 36.2742 30.7006Z" fill="#6C63FF"/>
<path d="M36.2742 31.123C36.2922 31.123 36.3067 31.1011 36.3067 31.0742C36.3067 31.0472 36.2922 31.0254 36.2742 31.0254C36.2563 31.0254 36.2417 31.0472 36.2417 31.0742C36.2417 31.1011 36.2563 31.123 36.2742 31.123Z" fill="#6C63FF"/>
<path d="M36.4693 30.8632C36.4872 30.8632 36.5018 30.8413 36.5018 30.8144C36.5018 30.7875 36.4872 30.7656 36.4693 30.7656C36.4513 30.7656 36.4368 30.7875 36.4368 30.8144C36.4368 30.8413 36.4513 30.8632 36.4693 30.8632Z" fill="#6C63FF"/>
<path d="M36.4368 31.2211C36.4548 31.2211 36.4693 31.1993 36.4693 31.1723C36.4693 31.1454 36.4548 31.1235 36.4368 31.1235C36.4189 31.1235 36.4043 31.1454 36.4043 31.1723C36.4043 31.1993 36.4189 31.2211 36.4368 31.2211Z" fill="#6C63FF"/>
<path d="M36.0464 31.0585C36.0644 31.0585 36.079 31.0367 36.079 31.0097C36.079 30.9828 36.0644 30.9609 36.0464 30.9609C36.0285 30.9609 36.0139 30.9828 36.0139 31.0097C36.0139 31.0367 36.0285 31.0585 36.0464 31.0585Z" fill="#6C63FF"/>
<path d="M33.6727 31.4811C33.96 31.4811 34.193 31.2481 34.193 30.9608C34.193 30.6734 33.96 30.4404 33.6727 30.4404C33.3853 30.4404 33.1523 30.6734 33.1523 30.9608C33.1523 31.2481 33.3853 31.4811 33.6727 31.4811Z" fill="#6C63FF"/>
<path opacity="0.2" d="M34.063 30.9932C34.063 31.0967 34.0218 31.1959 33.9487 31.2691C33.8755 31.3423 33.7762 31.3834 33.6727 31.3834C33.5692 31.3834 33.47 31.3423 33.3968 31.2691C33.3236 31.1959 33.2825 31.0967 33.2825 30.9932" fill="black"/>
<path opacity="0.2" d="M33.2825 30.9283C33.2825 30.8248 33.3236 30.7256 33.3968 30.6524C33.47 30.5792 33.5692 30.5381 33.6727 30.5381C33.7762 30.5381 33.8755 30.5792 33.9487 30.6524C34.0218 30.7256 34.063 30.8248 34.063 30.9283" fill="black"/>
<path d="M33.4776 30.8305C33.4955 30.8305 33.5101 30.8086 33.5101 30.7817C33.5101 30.7547 33.4955 30.7329 33.4776 30.7329C33.4596 30.7329 33.4451 30.7547 33.4451 30.7817C33.4451 30.8086 33.4596 30.8305 33.4776 30.8305Z" fill="#6C63FF"/>
<path d="M33.6727 30.7655C33.6906 30.7655 33.7052 30.7437 33.7052 30.7167C33.7052 30.6898 33.6906 30.668 33.6727 30.668C33.6547 30.668 33.6401 30.6898 33.6401 30.7167C33.6401 30.7437 33.6547 30.7655 33.6727 30.7655Z" fill="#6C63FF"/>
<path d="M33.6727 31.1879C33.6906 31.1879 33.7052 31.1661 33.7052 31.1391C33.7052 31.1122 33.6906 31.0903 33.6727 31.0903C33.6547 31.0903 33.6401 31.1122 33.6401 31.1391C33.6401 31.1661 33.6547 31.1879 33.6727 31.1879Z" fill="#6C63FF"/>
<path d="M33.8677 30.9276C33.8857 30.9276 33.9002 30.9058 33.9002 30.8789C33.9002 30.8519 33.8857 30.8301 33.8677 30.8301C33.8498 30.8301 33.8352 30.8519 33.8352 30.8789C33.8352 30.9058 33.8498 30.9276 33.8677 30.9276Z" fill="#6C63FF"/>
<path d="M33.8353 31.2855C33.8532 31.2855 33.8678 31.2637 33.8678 31.2368C33.8678 31.2098 33.8532 31.188 33.8353 31.188C33.8173 31.188 33.8027 31.2098 33.8027 31.2368C33.8027 31.2637 33.8173 31.2855 33.8353 31.2855Z" fill="#6C63FF"/>
<path d="M33.4451 31.123C33.4631 31.123 33.4776 31.1011 33.4776 31.0742C33.4776 31.0472 33.4631 31.0254 33.4451 31.0254C33.4272 31.0254 33.4126 31.0472 33.4126 31.0742C33.4126 31.1011 33.4272 31.123 33.4451 31.123Z" fill="#6C63FF"/>
<path d="M34.8433 31.7086C35.1307 31.7086 35.3636 31.4757 35.3636 31.1883C35.3636 30.9009 35.1307 30.668 34.8433 30.668C34.556 30.668 34.323 30.9009 34.323 31.1883C34.323 31.4757 34.556 31.7086 34.8433 31.7086Z" fill="#6C63FF"/>
<path opacity="0.2" d="M35.2336 31.2207C35.2336 31.272 35.2235 31.3227 35.2039 31.37C35.1843 31.4174 35.1555 31.4604 35.1193 31.4966C35.0831 31.5329 35.04 31.5616 34.9927 31.5812C34.9454 31.6008 34.8946 31.6109 34.8434 31.6109C34.7921 31.6109 34.7414 31.6008 34.694 31.5812C34.6467 31.5616 34.6037 31.5329 34.5674 31.4966C34.5312 31.4604 34.5024 31.4174 34.4828 31.37C34.4632 31.3227 34.4531 31.272 34.4531 31.2207" fill="black"/>
<path opacity="0.2" d="M34.4531 31.1559C34.4531 31.1046 34.4632 31.0539 34.4828 31.0065C34.5024 30.9592 34.5312 30.9162 34.5674 30.8799C34.6037 30.8437 34.6467 30.8149 34.694 30.7953C34.7414 30.7757 34.7921 30.7656 34.8434 30.7656C34.8946 30.7656 34.9454 30.7757 34.9927 30.7953C35.04 30.8149 35.0831 30.8437 35.1193 30.8799C35.1555 30.9162 35.1843 30.9592 35.2039 31.0065C35.2235 31.0539 35.2336 31.1046 35.2336 31.1559" fill="black"/>
<path d="M34.648 31.0585C34.666 31.0585 34.6805 31.0367 34.6805 31.0097C34.6805 30.9828 34.666 30.9609 34.648 30.9609C34.63 30.9609 34.6155 30.9828 34.6155 31.0097C34.6155 31.0367 34.63 31.0585 34.648 31.0585Z" fill="#6C63FF"/>
<path d="M34.8433 30.9931C34.8613 30.9931 34.8758 30.9712 34.8758 30.9443C34.8758 30.9173 34.8613 30.8955 34.8433 30.8955C34.8254 30.8955 34.8108 30.9173 34.8108 30.9443C34.8108 30.9712 34.8254 30.9931 34.8433 30.9931Z" fill="#6C63FF"/>
<path d="M34.8433 31.4159C34.8613 31.4159 34.8758 31.3941 34.8758 31.3671C34.8758 31.3402 34.8613 31.3184 34.8433 31.3184C34.8254 31.3184 34.8108 31.3402 34.8108 31.3671C34.8108 31.3941 34.8254 31.4159 34.8433 31.4159Z" fill="#6C63FF"/>
<path d="M35.0384 31.1557C35.0563 31.1557 35.0709 31.1338 35.0709 31.1069C35.0709 31.0799 35.0563 31.0581 35.0384 31.0581C35.0204 31.0581 35.0059 31.0799 35.0059 31.1069C35.0059 31.1338 35.0204 31.1557 35.0384 31.1557Z" fill="#6C63FF"/>
<path d="M35.0059 31.5131C35.0239 31.5131 35.0384 31.4912 35.0384 31.4643C35.0384 31.4374 35.0239 31.4155 35.0059 31.4155C34.9879 31.4155 34.9734 31.4374 34.9734 31.4643C34.9734 31.4912 34.9879 31.5131 35.0059 31.5131Z" fill="#6C63FF"/>
<path d="M34.6158 31.351C34.6337 31.351 34.6483 31.3291 34.6483 31.3022C34.6483 31.2753 34.6337 31.2534 34.6158 31.2534C34.5978 31.2534 34.5833 31.2753 34.5833 31.3022C34.5833 31.3291 34.5978 31.351 34.6158 31.351Z" fill="#6C63FF"/>
<path d="M35.6563 32.2613C35.9437 32.2613 36.1766 32.0284 36.1766 31.741C36.1766 31.4537 35.9437 31.2207 35.6563 31.2207C35.3689 31.2207 35.136 31.4537 35.136 31.741C35.136 32.0284 35.3689 32.2613 35.6563 32.2613Z" fill="#FF6584"/>
<path opacity="0.2" d="M36.0466 31.7734C36.0466 31.8769 36.0055 31.9762 35.9323 32.0494C35.8591 32.1226 35.7599 32.1637 35.6564 32.1637C35.5529 32.1637 35.4536 32.1226 35.3804 32.0494C35.3072 31.9762 35.2661 31.8769 35.2661 31.7734" fill="black"/>
<path opacity="0.2" d="M35.2661 31.7086C35.2661 31.6051 35.3072 31.5058 35.3804 31.4327C35.4536 31.3595 35.5529 31.3184 35.6564 31.3184C35.7599 31.3184 35.8591 31.3595 35.9323 31.4327C36.0055 31.5058 36.0466 31.6051 36.0466 31.7086" fill="black"/>
<path d="M35.461 31.6107C35.4789 31.6107 35.4935 31.5889 35.4935 31.562C35.4935 31.535 35.4789 31.5132 35.461 31.5132C35.443 31.5132 35.4285 31.535 35.4285 31.562C35.4285 31.5889 35.443 31.6107 35.461 31.6107Z" fill="#FF6584"/>
<path d="M35.6563 31.5458C35.6743 31.5458 35.6888 31.524 35.6888 31.497C35.6888 31.4701 35.6743 31.4482 35.6563 31.4482C35.6383 31.4482 35.6238 31.4701 35.6238 31.497C35.6238 31.524 35.6383 31.5458 35.6563 31.5458Z" fill="#FF6584"/>
<path d="M35.6563 31.9687C35.6743 31.9687 35.6888 31.9468 35.6888 31.9199C35.6888 31.8929 35.6743 31.8711 35.6563 31.8711C35.6383 31.8711 35.6238 31.8929 35.6238 31.9199C35.6238 31.9468 35.6383 31.9687 35.6563 31.9687Z" fill="#FF6584"/>
<path d="M35.8514 31.7084C35.8693 31.7084 35.8839 31.6866 35.8839 31.6596C35.8839 31.6327 35.8693 31.6108 35.8514 31.6108C35.8334 31.6108 35.8188 31.6327 35.8188 31.6596C35.8188 31.6866 35.8334 31.7084 35.8514 31.7084Z" fill="#FF6584"/>
<path d="M35.8189 32.0663C35.8369 32.0663 35.8514 32.0445 35.8514 32.0175C35.8514 31.9906 35.8369 31.9688 35.8189 31.9688C35.8009 31.9688 35.7864 31.9906 35.7864 32.0175C35.7864 32.0445 35.8009 32.0663 35.8189 32.0663Z" fill="#FF6584"/>
<path d="M35.4285 31.9037C35.4465 31.9037 35.461 31.8819 35.461 31.8549C35.461 31.828 35.4465 31.8062 35.4285 31.8062C35.4106 31.8062 35.396 31.828 35.396 31.8549C35.396 31.8819 35.4106 31.9037 35.4285 31.9037Z" fill="#FF6584"/>
<path d="M28.9651 29.895C29.0412 29.895 29.103 29.8332 29.103 29.7571C29.103 29.6809 29.0412 29.6191 28.9651 29.6191C28.8889 29.6191 28.8271 29.6809 28.8271 29.7571C28.8271 29.8332 28.8889 29.895 28.9651 29.895Z" fill="#3F3D56"/>
<path d="M32.7139 34.7634L29.4016 33.8448L29.5285 33.3735L32.8408 34.2921L32.7139 34.7634Z" fill="#F9A825"/>
<path d="M32.2281 34.6057C31.0939 34.8229 29.9287 34.8229 28.7944 34.6057V34.1172C29.9312 34.3056 31.0913 34.3056 32.2281 34.1172V34.6057Z" fill="#F9A825"/>
<path d="M32.5814 33.1404C31.4471 33.3576 30.282 33.3576 29.1477 33.1404V32.6519C30.2845 32.8403 31.4446 32.8403 32.5814 32.6519V33.1404Z" fill="#F9A825"/>
<path d="M33.7687 33.7264C32.6344 33.9435 31.4692 33.9435 30.335 33.7264V33.2378C31.4718 33.4262 32.6319 33.4262 33.7687 33.2378V33.7264Z" fill="#F9A825"/>
<path d="M34.0572 34.2801C32.923 34.4972 31.7578 34.4972 30.6235 34.2801V33.7915C31.7603 33.9799 32.9204 33.9799 34.0572 33.7915V34.2801Z" fill="#F9A825"/>
<path d="M35.0644 35.0035L31.6767 35.5725L31.5981 35.0905L34.9858 34.5215L35.0644 35.0035Z" fill="#F9A825"/>
<path d="M34.5583 35.066C33.6191 35.743 32.5606 36.2367 31.4383 36.5212L31.2373 36.0773C32.3498 35.7658 33.4037 35.2742 34.3574 34.6221L34.5583 35.066Z" fill="#F9A825"/>
<path d="M34.2761 33.585C33.3369 34.2621 32.2784 34.7558 31.1561 35.0402L30.9551 34.5963C32.0676 34.2848 33.1215 33.7932 34.0751 33.1411L34.2761 33.585Z" fill="#F9A825"/>
<path d="M35.5962 33.6143C34.657 34.2914 33.5984 34.7851 32.4761 35.0695L32.2751 34.6256C33.3876 34.3141 34.4416 33.8225 35.3952 33.1704L35.5962 33.6143Z" fill="#F9A825"/>
<path d="M36.0864 33.9952C35.1472 34.6722 34.0887 35.1659 32.9664 35.4504L32.7654 35.0065C33.8779 34.695 34.9318 34.2034 35.8854 33.5513L36.0864 33.9952Z" fill="#F9A825"/>
<path d="M31.9814 33.0415H31.8188V33.2041H31.9814V33.0415Z" fill="#00BF71"/>
<path d="M32.4695 35.8711H32.3069V36.0337H32.4695V35.8711Z" fill="#00BF71"/>
<path d="M29.8677 33.0415H29.7051V33.2041H29.8677V33.0415Z" fill="#00BF71"/>
<path d="M33.6399 35.0581H33.4773V35.2207H33.6399V35.0581Z" fill="#00BF71"/>
<path d="M33.7376 34.1147H33.575V34.2773H33.7376V34.1147Z" fill="#00BF71"/>
<path d="M31.0553 33.6698L30.8669 33.542L30.7939 33.6496L30.9823 33.7774L31.0553 33.6698Z" fill="#00BF71"/>
<path d="M32.974 34.0277L32.7856 33.8999L32.7126 34.0075L32.901 34.1354L32.974 34.0277Z" fill="#00BF71"/>
<path d="M30.6327 34.6454L30.4443 34.5176L30.3713 34.6252L30.5597 34.753L30.6327 34.6454Z" fill="#00BF71"/>
<path d="M31.8251 34.6361L31.9529 34.4478L31.8452 34.3747L31.7174 34.5631L31.8251 34.6361Z" fill="#00BF71"/>
<path d="M32.7032 34.8637L32.8311 34.6753L32.7234 34.6023L32.5956 34.7906L32.7032 34.8637Z" fill="#00BF71"/>
<path d="M35.0448 34.0829L35.1726 33.8945L35.065 33.8215L34.9372 34.0099L35.0448 34.0829Z" fill="#00BF71"/>
<path d="M101.359 70.1914C106.367 70.1914 110.427 66.1316 110.427 61.1235C110.427 56.1155 106.367 52.0557 101.359 52.0557C96.3513 52.0557 92.2915 56.1155 92.2915 61.1235C92.2915 66.1316 96.3513 70.1914 101.359 70.1914Z" fill="#6C63FF"/>
<path opacity="0.2" d="M101.36 68.5057C99.6516 68.5057 97.9966 67.9135 96.6764 66.83C95.3562 65.7466 94.4526 64.2389 94.1194 62.5638C93.7862 60.8888 94.0441 59.15 94.8492 57.6438C95.6543 56.1376 96.9567 54.9572 98.5346 54.3036C100.112 53.65 101.868 53.5638 103.502 54.0596C105.137 54.5553 106.549 55.6025 107.497 57.0225C108.446 58.4425 108.873 60.1476 108.706 61.8473C108.539 63.5469 107.787 65.1359 106.579 66.3436C105.896 67.0312 105.082 67.5764 104.186 67.9475C103.29 68.3186 102.329 68.5084 101.36 68.5057ZM101.36 54.1969C97.5401 54.1969 94.4327 57.3042 94.4327 61.1237C94.4327 64.9431 97.5401 68.0504 101.36 68.0504C105.179 68.0504 108.286 64.9431 108.286 61.1237C108.286 57.3042 105.179 54.1969 101.36 54.1969Z" fill="black"/>
<path d="M101.359 68.2776C105.311 68.2776 108.514 65.0744 108.514 61.1232C108.514 57.1719 105.311 53.9688 101.359 53.9688C97.4082 53.9688 94.2051 57.1719 94.2051 61.1232C94.2051 65.0744 97.4082 68.2776 101.359 68.2776Z" fill="#3F3D56"/>
<path d="M96.039 58.2623C95.9847 58.156 95.952 58.0401 95.9425 57.9211C95.9331 57.8022 95.9472 57.6826 95.9841 57.5691C96.0209 57.4556 96.0797 57.3505 96.1572 57.2597C96.2347 57.169 96.3293 57.0944 96.4356 57.0403C96.542 56.9861 96.6579 56.9535 96.7769 56.9442C96.8958 56.9349 97.0155 56.9491 97.1289 56.9861C97.2424 57.023 97.3474 57.082 97.4381 57.1596C97.5287 57.2371 97.6032 57.3318 97.6572 57.4382L99.6785 61.4074C99.7328 61.5137 99.7656 61.6296 99.775 61.7486C99.7844 61.8675 99.7703 61.9871 99.7335 62.1006C99.6966 62.2141 99.6378 62.3192 99.5603 62.41C99.4828 62.5007 99.3882 62.5753 99.2819 62.6294C99.1756 62.6836 99.0596 62.7162 98.9407 62.7255C98.8217 62.7348 98.7021 62.7206 98.5886 62.6836C98.4752 62.6467 98.3701 62.5877 98.2795 62.5102C98.1888 62.4326 98.1143 62.3379 98.0603 62.2315L96.039 58.2623Z" fill="#FF6584"/>
<path opacity="0.2" d="M96.2644 58.705L96.1711 58.5218C96.6367 58.1601 97.1835 57.894 97.7894 57.6978L97.8827 57.8809C97.2269 58.0175 96.669 58.2702 96.2644 58.705Z" fill="black"/>
<path opacity="0.2" d="M96.6997 59.56L96.6064 59.3768C97.072 59.015 97.6188 58.749 98.2247 58.5527L98.318 58.7359C97.6622 58.8725 97.1043 59.1252 96.6997 59.56Z" fill="black"/>
<path opacity="0.2" d="M97.135 60.4155L97.0417 60.2323C97.5073 59.8705 98.0541 59.6045 98.66 59.4082L98.7533 59.5914C98.0975 59.728 97.5396 59.9807 97.135 60.4155Z" fill="black"/>
<path opacity="0.2" d="M97.5703 61.27L97.4771 61.0868C97.9426 60.725 98.4894 60.459 99.0953 60.2627L99.1886 60.4459C98.5328 60.5825 97.9749 60.8352 97.5703 61.27Z" fill="black"/>
<path opacity="0.2" d="M98.0056 62.1249L97.9124 61.9417C98.3779 61.58 98.9247 61.3139 99.5306 61.1177L99.6239 61.3009C98.9681 61.4374 98.4102 61.6902 98.0056 62.1249Z" fill="black"/>
<path d="M94.5224 59.7485C94.4681 59.6423 94.4353 59.5263 94.4259 59.4074C94.4165 59.2885 94.4306 59.1688 94.4675 59.0554C94.5043 58.9419 94.5631 58.8368 94.6406 58.746C94.7181 58.6553 94.8127 58.5807 94.919 58.5266C95.0254 58.4725 95.1413 58.4398 95.2603 58.4305C95.3792 58.4212 95.4988 58.4354 95.6123 58.4724C95.7257 58.5093 95.8308 58.5683 95.9214 58.6458C96.0121 58.7234 96.0865 58.8181 96.1406 58.9245L98.1619 62.8937C98.2709 63.1082 98.2902 63.3573 98.2157 63.5861C98.1411 63.8149 97.9788 64.0048 97.7644 64.114C97.5499 64.2232 97.3009 64.2428 97.072 64.1685C96.8431 64.0942 96.6531 63.9321 96.5437 63.7177L94.5224 59.7485Z" fill="#FF6584"/>
<path opacity="0.2" d="M94.7481 60.1909L94.6548 60.0077C95.1204 59.6459 95.6671 59.3798 96.273 59.1836L96.3663 59.3668C95.7105 59.5033 95.1526 59.7561 94.7481 60.1909Z" fill="black"/>
<path opacity="0.2" d="M95.1831 61.0463L95.0898 60.8631C95.5554 60.5014 96.1022 60.2353 96.7081 60.0391L96.8014 60.2223C96.1456 60.3588 95.5877 60.6115 95.1831 61.0463Z" fill="black"/>
<path opacity="0.2" d="M95.6187 61.9008L95.5254 61.7176C95.991 61.3559 96.5377 61.0898 97.1436 60.8936L97.2369 61.0767C96.5811 61.2133 96.0232 61.466 95.6187 61.9008Z" fill="black"/>
<path opacity="0.2" d="M96.054 62.7558L95.9607 62.5726C96.4263 62.2108 96.973 61.9448 97.5789 61.7485L97.6722 61.9317C97.0164 62.0683 96.4585 62.321 96.054 62.7558Z" fill="black"/>
<path opacity="0.2" d="M96.4893 63.6108L96.396 63.4276C96.8616 63.0658 97.4083 62.7998 98.0142 62.6035L98.1075 62.7867C97.4517 62.9233 96.8938 63.176 96.4893 63.6108Z" fill="black"/>
<path d="M106.14 61.3507L106.146 61.3507C106.364 61.3525 106.577 61.2887 106.758 61.1675C106.939 61.0463 107.079 60.8735 107.16 60.6714C107.327 60.2495 107.411 59.7993 107.408 59.3455C107.397 57.4249 105.834 55.8492 103.914 55.8226C103.096 55.8112 102.299 56.0829 101.659 56.5918C101.018 57.1006 100.573 57.8153 100.4 58.6146C100.226 59.4139 100.334 60.2487 100.706 60.9775C101.077 61.7063 101.689 62.2842 102.438 62.6133C102.636 62.7009 102.856 62.7266 103.068 62.6872C103.281 62.6477 103.477 62.5449 103.63 62.3921C103.959 62.0615 104.35 61.7993 104.781 61.6205C105.212 61.4418 105.674 61.3501 106.14 61.3507Z" fill="#E6E6E6"/>
<path d="M104.319 60.2775C104.965 60.2775 105.489 59.7533 105.489 59.1068C105.489 58.4602 104.965 57.936 104.319 57.936C103.672 57.936 103.148 58.4602 103.148 59.1068C103.148 59.7533 103.672 60.2775 104.319 60.2775Z" fill="#F9A825"/>
<path d="M101.774 58.9755C101.851 58.9755 101.912 58.9138 101.912 58.8376C101.912 58.7615 101.851 58.6997 101.774 58.6997C101.698 58.6997 101.636 58.7615 101.636 58.8376C101.636 58.9138 101.698 58.9755 101.774 58.9755Z" fill="#3F3D56"/>
<path d="M97.2214 59.1054C97.2976 59.1054 97.3593 59.0437 97.3593 58.9675C97.3593 58.8913 97.2976 58.8296 97.2214 58.8296C97.1452 58.8296 97.0835 58.8913 97.0835 58.9675C97.0835 59.0437 97.1452 59.1054 97.2214 59.1054Z" fill="#3F3D56"/>
<path d="M102.509 57.5463C102.585 57.5463 102.647 57.4846 102.647 57.4084C102.647 57.3323 102.585 57.2705 102.509 57.2705C102.433 57.2705 102.371 57.3323 102.371 57.4084C102.371 57.4846 102.433 57.5463 102.509 57.5463Z" fill="#3F3D56"/>
<path d="M102.505 61.5214C102.582 61.5214 102.643 61.4597 102.643 61.3835C102.643 61.3074 102.582 61.2456 102.505 61.2456C102.429 61.2456 102.367 61.3074 102.367 61.3835C102.367 61.4597 102.429 61.5214 102.505 61.5214Z" fill="#3F3D56"/>
<path d="M105.237 57.2612C105.313 57.2612 105.375 57.1994 105.375 57.1233C105.375 57.0471 105.313 56.9854 105.237 56.9854C105.161 56.9854 105.099 57.0471 105.099 57.1233C105.099 57.1994 105.161 57.2612 105.237 57.2612Z" fill="#3F3D56"/>
<path d="M96.3266 61.0332C96.4028 61.0332 96.4646 60.9714 96.4646 60.8952C96.4646 60.8191 96.4028 60.7573 96.3266 60.7573C96.2505 60.7573 96.1887 60.8191 96.1887 60.8952C96.1887 60.9714 96.2505 61.0332 96.3266 61.0332Z" fill="#3F3D56"/>
<path d="M97.3347 63.0175C97.4109 63.0175 97.4726 62.9558 97.4726 62.8796C97.4726 62.8034 97.4109 62.7417 97.3347 62.7417C97.2585 62.7417 97.1968 62.8034 97.1968 62.8796C97.1968 62.9558 97.2585 63.0175 97.3347 63.0175Z" fill="#3F3D56"/>
<path d="M103.668 63.6603C103.956 63.6603 104.189 63.4273 104.189 63.1399C104.189 62.8526 103.956 62.6196 103.668 62.6196C103.381 62.6196 103.148 62.8526 103.148 63.1399C103.148 63.4273 103.381 63.6603 103.668 63.6603Z" fill="#FF6584"/>
<path opacity="0.2" d="M104.059 63.1719C104.059 63.2754 104.017 63.3746 103.944 63.4478C103.871 63.521 103.772 63.5621 103.668 63.5621C103.565 63.5621 103.466 63.521 103.392 63.4478C103.319 63.3746 103.278 63.2754 103.278 63.1719" fill="black"/>
<path opacity="0.2" d="M103.278 63.1066C103.278 63.0031 103.319 62.9038 103.392 62.8306C103.466 62.7574 103.565 62.7163 103.668 62.7163C103.772 62.7163 103.871 62.7574 103.944 62.8306C104.017 62.9038 104.059 63.0031 104.059 63.1066" fill="black"/>
<path d="M103.473 63.0097C103.491 63.0097 103.506 62.9878 103.506 62.9609C103.506 62.9339 103.491 62.9121 103.473 62.9121C103.455 62.9121 103.441 62.9339 103.441 62.9609C103.441 62.9878 103.455 63.0097 103.473 63.0097Z" fill="#FF6584"/>
<path d="M103.669 62.9447C103.686 62.9447 103.701 62.9229 103.701 62.8959C103.701 62.869 103.686 62.8472 103.669 62.8472C103.651 62.8472 103.636 62.869 103.636 62.8959C103.636 62.9229 103.651 62.9447 103.669 62.9447Z" fill="#FF6584"/>
<path d="M103.669 63.3671C103.686 63.3671 103.701 63.3453 103.701 63.3183C103.701 63.2914 103.686 63.2695 103.669 63.2695C103.651 63.2695 103.636 63.2914 103.636 63.3183C103.636 63.3453 103.651 63.3671 103.669 63.3671Z" fill="#FF6584"/>
<path d="M103.864 63.1073C103.882 63.1073 103.896 63.0855 103.896 63.0585C103.896 63.0316 103.882 63.0098 103.864 63.0098C103.846 63.0098 103.831 63.0316 103.831 63.0585C103.831 63.0855 103.846 63.1073 103.864 63.1073Z" fill="#FF6584"/>
<path d="M103.831 63.4647C103.849 63.4647 103.863 63.4429 103.863 63.416C103.863 63.389 103.849 63.3672 103.831 63.3672C103.813 63.3672 103.798 63.389 103.798 63.416C103.798 63.4429 103.813 63.4647 103.831 63.4647Z" fill="#FF6584"/>
<path d="M103.441 63.3026C103.459 63.3026 103.473 63.2808 103.473 63.2539C103.473 63.2269 103.459 63.2051 103.441 63.2051C103.423 63.2051 103.408 63.2269 103.408 63.2539C103.408 63.2808 103.423 63.3026 103.441 63.3026Z" fill="#FF6584"/>
<path d="M104.709 62.2613C104.996 62.2613 105.229 62.0284 105.229 61.741C105.229 61.4537 104.996 61.2207 104.709 61.2207C104.422 61.2207 104.189 61.4537 104.189 61.741C104.189 62.0284 104.422 62.2613 104.709 62.2613Z" fill="#FF6584"/>
<path opacity="0.2" d="M105.099 61.7734C105.099 61.8769 105.058 61.9762 104.985 62.0494C104.912 62.1226 104.812 62.1637 104.709 62.1637C104.605 62.1637 104.506 62.1226 104.433 62.0494C104.36 61.9762 104.319 61.8769 104.319 61.7734" fill="black"/>
<path opacity="0.2" d="M104.319 61.7086C104.319 61.6051 104.36 61.5058 104.433 61.4327C104.506 61.3595 104.605 61.3184 104.709 61.3184C104.812 61.3184 104.912 61.3595 104.985 61.4327C105.058 61.5058 105.099 61.6051 105.099 61.7086" fill="black"/>
<path d="M104.514 61.6112C104.532 61.6112 104.546 61.5894 104.546 61.5625C104.546 61.5355 104.532 61.5137 104.514 61.5137C104.496 61.5137 104.481 61.5355 104.481 61.5625C104.481 61.5894 104.496 61.6112 104.514 61.6112Z" fill="#FF6584"/>
<path d="M104.709 61.5463C104.727 61.5463 104.742 61.5245 104.742 61.4975C104.742 61.4706 104.727 61.4487 104.709 61.4487C104.691 61.4487 104.677 61.4706 104.677 61.4975C104.677 61.5245 104.691 61.5463 104.709 61.5463Z" fill="#FF6584"/>
<path d="M104.709 61.9691C104.727 61.9691 104.742 61.9473 104.742 61.9204C104.742 61.8934 104.727 61.8716 104.709 61.8716C104.691 61.8716 104.677 61.8934 104.677 61.9204C104.677 61.9473 104.691 61.9691 104.709 61.9691Z" fill="#FF6584"/>
<path d="M104.904 61.7084C104.922 61.7084 104.936 61.6866 104.936 61.6596C104.936 61.6327 104.922 61.6108 104.904 61.6108C104.886 61.6108 104.871 61.6327 104.871 61.6596C104.871 61.6866 104.886 61.7084 104.904 61.7084Z" fill="#FF6584"/>
<path d="M104.872 62.0663C104.89 62.0663 104.904 62.0445 104.904 62.0175C104.904 61.9906 104.89 61.9688 104.872 61.9688C104.854 61.9688 104.839 61.9906 104.839 62.0175C104.839 62.0445 104.854 62.0663 104.872 62.0663Z" fill="#FF6584"/>
<path d="M104.481 61.9037C104.499 61.9037 104.514 61.8819 104.514 61.8549C104.514 61.828 104.499 61.8062 104.481 61.8062C104.464 61.8062 104.449 61.828 104.449 61.8549C104.449 61.8819 104.464 61.9037 104.481 61.9037Z" fill="#FF6584"/>
<path d="M105.75 62.9772C106.037 62.9772 106.27 62.7442 106.27 62.4568C106.27 62.1695 106.037 61.9365 105.75 61.9365C105.462 61.9365 105.229 62.1695 105.229 62.4568C105.229 62.7442 105.462 62.9772 105.75 62.9772Z" fill="#6C63FF"/>
<path opacity="0.2" d="M106.14 62.4893C106.14 62.5928 106.099 62.692 106.026 62.7652C105.952 62.8384 105.853 62.8795 105.75 62.8795C105.646 62.8795 105.547 62.8384 105.474 62.7652C105.4 62.692 105.359 62.5928 105.359 62.4893" fill="black"/>
<path opacity="0.2" d="M105.359 62.4239C105.359 62.3204 105.4 62.2212 105.474 62.148C105.547 62.0748 105.646 62.0337 105.75 62.0337C105.853 62.0337 105.952 62.0748 106.026 62.148C106.099 62.2212 106.14 62.3204 106.14 62.4239" fill="black"/>
<path d="M105.554 62.3266C105.572 62.3266 105.587 62.3047 105.587 62.2778C105.587 62.2508 105.572 62.229 105.554 62.229C105.537 62.229 105.522 62.2508 105.522 62.2778C105.522 62.3047 105.537 62.3266 105.554 62.3266Z" fill="#6C63FF"/>
<path d="M105.75 62.2616C105.768 62.2616 105.782 62.2398 105.782 62.2128C105.782 62.1859 105.768 62.1641 105.75 62.1641C105.732 62.1641 105.717 62.1859 105.717 62.2128C105.717 62.2398 105.732 62.2616 105.75 62.2616Z" fill="#6C63FF"/>
<path d="M105.75 62.684C105.768 62.684 105.782 62.6621 105.782 62.6352C105.782 62.6083 105.768 62.5864 105.75 62.5864C105.732 62.5864 105.717 62.6083 105.717 62.6352C105.717 62.6621 105.732 62.684 105.75 62.684Z" fill="#6C63FF"/>
<path d="M105.945 62.4237C105.963 62.4237 105.977 62.4019 105.977 62.375C105.977 62.348 105.963 62.3262 105.945 62.3262C105.927 62.3262 105.912 62.348 105.912 62.375C105.912 62.4019 105.927 62.4237 105.945 62.4237Z" fill="#6C63FF"/>
<path d="M105.912 62.7816C105.93 62.7816 105.945 62.7598 105.945 62.7329C105.945 62.7059 105.93 62.6841 105.912 62.6841C105.894 62.6841 105.88 62.7059 105.88 62.7329C105.88 62.7598 105.894 62.7816 105.912 62.7816Z" fill="#6C63FF"/>
<path d="M105.522 62.619C105.54 62.619 105.555 62.5972 105.555 62.5703C105.555 62.5433 105.54 62.5215 105.522 62.5215C105.504 62.5215 105.49 62.5433 105.49 62.5703C105.49 62.5972 105.504 62.619 105.522 62.619Z" fill="#6C63FF"/>
<path d="M103.148 63.0416C103.435 63.0416 103.668 62.8087 103.668 62.5213C103.668 62.2339 103.435 62.001 103.148 62.001C102.861 62.001 102.628 62.2339 102.628 62.5213C102.628 62.8087 102.861 63.0416 103.148 63.0416Z" fill="#6C63FF"/>
<path opacity="0.2" d="M103.538 62.5542C103.538 62.6577 103.497 62.757 103.424 62.8301C103.351 62.9033 103.252 62.9444 103.148 62.9444C103.045 62.9444 102.945 62.9033 102.872 62.8301C102.799 62.757 102.758 62.6577 102.758 62.5542" fill="black"/>
<path opacity="0.2" d="M102.758 62.4894C102.758 62.3859 102.799 62.2866 102.872 62.2134C102.945 62.1402 103.045 62.0991 103.148 62.0991C103.252 62.0991 103.351 62.1402 103.424 62.2134C103.497 62.2866 103.538 62.3859 103.538 62.4894" fill="black"/>
<path d="M102.953 62.3915C102.971 62.3915 102.985 62.3697 102.985 62.3427C102.985 62.3158 102.971 62.2939 102.953 62.2939C102.935 62.2939 102.92 62.3158 102.92 62.3427C102.92 62.3697 102.935 62.3915 102.953 62.3915Z" fill="#6C63FF"/>
<path d="M103.148 62.3266C103.166 62.3266 103.181 62.3047 103.181 62.2778C103.181 62.2508 103.166 62.229 103.148 62.229C103.13 62.229 103.115 62.2508 103.115 62.2778C103.115 62.3047 103.13 62.3266 103.148 62.3266Z" fill="#6C63FF"/>
<path d="M103.148 62.7494C103.166 62.7494 103.181 62.7276 103.181 62.7006C103.181 62.6737 103.166 62.6519 103.148 62.6519C103.13 62.6519 103.115 62.6737 103.115 62.7006C103.115 62.7276 103.13 62.7494 103.148 62.7494Z" fill="#6C63FF"/>
<path d="M103.343 62.4892C103.361 62.4892 103.376 62.4673 103.376 62.4404C103.376 62.4134 103.361 62.3916 103.343 62.3916C103.325 62.3916 103.311 62.4134 103.311 62.4404C103.311 62.4673 103.325 62.4892 103.343 62.4892Z" fill="#6C63FF"/>
<path d="M103.311 62.8466C103.329 62.8466 103.343 62.8247 103.343 62.7978C103.343 62.7709 103.329 62.749 103.311 62.749C103.293 62.749 103.278 62.7709 103.278 62.7978C103.278 62.8247 103.293 62.8466 103.311 62.8466Z" fill="#6C63FF"/>
<path d="M102.92 62.684C102.938 62.684 102.953 62.6621 102.953 62.6352C102.953 62.6083 102.938 62.5864 102.92 62.5864C102.902 62.5864 102.888 62.6083 102.888 62.6352C102.888 62.6621 102.902 62.684 102.92 62.684Z" fill="#6C63FF"/>
<path d="M104.319 63.2696C104.606 63.2696 104.839 63.0367 104.839 62.7493C104.839 62.462 104.606 62.229 104.319 62.229C104.031 62.229 103.798 62.462 103.798 62.7493C103.798 63.0367 104.031 63.2696 104.319 63.2696Z" fill="#6C63FF"/>
<path opacity="0.2" d="M104.709 62.7817C104.709 62.833 104.699 62.8837 104.679 62.9311C104.66 62.9784 104.631 63.0214 104.595 63.0577C104.559 63.0939 104.516 63.1227 104.468 63.1423C104.421 63.1619 104.37 63.172 104.319 63.172C104.268 63.172 104.217 63.1619 104.17 63.1423C104.122 63.1227 104.079 63.0939 104.043 63.0577C104.007 63.0214 103.978 62.9784 103.958 62.9311C103.939 62.8837 103.929 62.833 103.929 62.7817" fill="black"/>
<path opacity="0.2" d="M103.929 62.7164C103.929 62.6652 103.939 62.6144 103.958 62.5671C103.978 62.5197 104.007 62.4767 104.043 62.4405C104.079 62.4042 104.122 62.3755 104.17 62.3559C104.217 62.3363 104.268 62.3262 104.319 62.3262C104.37 62.3262 104.421 62.3363 104.468 62.3559C104.516 62.3755 104.559 62.4042 104.595 62.4405C104.631 62.4767 104.66 62.5197 104.679 62.5671C104.699 62.6144 104.709 62.6652 104.709 62.7164" fill="black"/>
<path d="M104.124 62.619C104.142 62.619 104.156 62.5972 104.156 62.5703C104.156 62.5433 104.142 62.5215 104.124 62.5215C104.106 62.5215 104.091 62.5433 104.091 62.5703C104.091 62.5972 104.106 62.619 104.124 62.619Z" fill="#6C63FF"/>
<path d="M104.319 62.5546C104.337 62.5546 104.351 62.5328 104.351 62.5058C104.351 62.4789 104.337 62.457 104.319 62.457C104.301 62.457 104.286 62.4789 104.286 62.5058C104.286 62.5328 104.301 62.5546 104.319 62.5546Z" fill="#6C63FF"/>
<path d="M104.319 62.9765C104.337 62.9765 104.351 62.9546 104.351 62.9277C104.351 62.9007 104.337 62.8789 104.319 62.8789C104.301 62.8789 104.286 62.9007 104.286 62.9277C104.286 62.9546 104.301 62.9765 104.319 62.9765Z" fill="#6C63FF"/>
<path d="M104.514 62.7172C104.532 62.7172 104.546 62.6953 104.546 62.6684C104.546 62.6415 104.532 62.6196 104.514 62.6196C104.496 62.6196 104.481 62.6415 104.481 62.6684C104.481 62.6953 104.496 62.7172 104.514 62.7172Z" fill="#6C63FF"/>
<path d="M104.481 63.0746C104.499 63.0746 104.514 63.0528 104.514 63.0258C104.514 62.9989 104.499 62.9771 104.481 62.9771C104.464 62.9771 104.449 62.9989 104.449 63.0258C104.449 63.0528 104.464 63.0746 104.481 63.0746Z" fill="#6C63FF"/>
<path d="M104.091 62.9115C104.109 62.9115 104.124 62.8897 104.124 62.8627C104.124 62.8358 104.109 62.814 104.091 62.814C104.073 62.814 104.059 62.8358 104.059 62.8627C104.059 62.8897 104.073 62.9115 104.091 62.9115Z" fill="#6C63FF"/>
<path d="M105.132 63.8224C105.419 63.8224 105.652 63.5894 105.652 63.3021C105.652 63.0147 105.419 62.7817 105.132 62.7817C104.844 62.7817 104.611 63.0147 104.611 63.3021C104.611 63.5894 104.844 63.8224 105.132 63.8224Z" fill="#FF6584"/>
<path opacity="0.2" d="M105.522 63.3345C105.522 63.438 105.481 63.5372 105.408 63.6104C105.334 63.6836 105.235 63.7247 105.132 63.7247C105.028 63.7247 104.929 63.6836 104.856 63.6104C104.783 63.5372 104.741 63.438 104.741 63.3345" fill="black"/>
<path opacity="0.2" d="M104.741 63.2691C104.741 63.1656 104.783 63.0664 104.856 62.9932C104.929 62.92 105.028 62.8789 105.132 62.8789C105.235 62.8789 105.334 62.92 105.408 62.9932C105.481 63.0664 105.522 63.1656 105.522 63.2691" fill="black"/>
<path d="M104.937 63.1718C104.955 63.1718 104.969 63.1499 104.969 63.123C104.969 63.0961 104.955 63.0742 104.937 63.0742C104.919 63.0742 104.904 63.0961 104.904 63.123C104.904 63.1499 104.919 63.1718 104.937 63.1718Z" fill="#FF6584"/>
<path d="M105.132 63.1073C105.15 63.1073 105.164 63.0855 105.164 63.0585C105.164 63.0316 105.15 63.0098 105.132 63.0098C105.114 63.0098 105.099 63.0316 105.099 63.0585C105.099 63.0855 105.114 63.1073 105.132 63.1073Z" fill="#FF6584"/>
<path d="M105.132 63.5297C105.15 63.5297 105.164 63.5078 105.164 63.4809C105.164 63.454 105.15 63.4321 105.132 63.4321C105.114 63.4321 105.099 63.454 105.099 63.4809C105.099 63.5078 105.114 63.5297 105.132 63.5297Z" fill="#FF6584"/>
<path d="M105.327 63.2694C105.345 63.2694 105.359 63.2476 105.359 63.2207C105.359 63.1937 105.345 63.1719 105.327 63.1719C105.309 63.1719 105.294 63.1937 105.294 63.2207C105.294 63.2476 105.309 63.2694 105.327 63.2694Z" fill="#FF6584"/>
<path d="M105.294 63.6273C105.312 63.6273 105.327 63.6055 105.327 63.5786C105.327 63.5516 105.312 63.5298 105.294 63.5298C105.276 63.5298 105.262 63.5516 105.262 63.5786C105.262 63.6055 105.276 63.6273 105.294 63.6273Z" fill="#FF6584"/>
<path d="M104.904 63.4647C104.922 63.4647 104.936 63.4429 104.936 63.416C104.936 63.389 104.922 63.3672 104.904 63.3672C104.886 63.3672 104.871 63.389 104.871 63.416C104.871 63.4429 104.886 63.4647 104.904 63.4647Z" fill="#FF6584"/>
<path d="M98.4404 61.4565C98.5166 61.4565 98.5783 61.3947 98.5783 61.3186C98.5783 61.2424 98.5166 61.1807 98.4404 61.1807C98.3642 61.1807 98.3025 61.2424 98.3025 61.3186C98.3025 61.3947 98.3642 61.4565 98.4404 61.4565Z" fill="#3F3D56"/>
<path d="M102.189 66.3244L98.877 65.4059L99.0038 64.9346L102.316 65.8532L102.189 66.3244Z" fill="#F9A825"/>
<path d="M101.704 66.1673C100.569 66.3844 99.4043 66.3844 98.27 66.1673V65.6787C99.4068 65.8671 100.567 65.8671 101.704 65.6787V66.1673Z" fill="#F9A825"/>
<path d="M102.057 64.701C100.922 64.9181 99.7573 64.9181 98.623 64.701V64.2124C99.7599 64.4008 100.92 64.4008 102.057 64.2124V64.701Z" fill="#F9A825"/>
<path d="M103.244 65.2879C102.11 65.505 100.945 65.505 99.8103 65.2879V64.7993C100.947 64.9877 102.107 64.9877 103.244 64.7993V65.2879Z" fill="#F9A825"/>
<path d="M103.533 65.8416C102.399 66.0587 101.233 66.0587 100.099 65.8416V65.353C101.236 65.5414 102.396 65.5414 103.533 65.353V65.8416Z" fill="#F9A825"/>
<path d="M104.54 66.565L101.152 67.1341L101.073 66.652L104.461 66.083L104.54 66.565Z" fill="#F9A825"/>
<path d="M104.034 66.6275C103.094 67.3045 102.036 67.7982 100.914 68.0827L100.713 67.6388C101.825 67.3273 102.879 66.8357 103.833 66.1836L104.034 66.6275Z" fill="#F9A825"/>
<path d="M103.751 65.1461C102.812 65.8231 101.754 66.3168 100.631 66.6013L100.43 66.1573C101.543 65.8458 102.597 65.3543 103.55 64.7021L103.751 65.1461Z" fill="#F9A825"/>
<path d="M105.072 65.1754C104.133 65.8524 103.074 66.3461 101.952 66.6306L101.751 66.1866C102.863 65.8751 103.917 65.3836 104.871 64.7314L105.072 65.1754Z" fill="#F9A825"/>
<path d="M105.562 65.5562C104.623 66.2333 103.564 66.727 102.442 67.0114L102.241 66.5675C103.353 66.256 104.407 65.7644 105.361 65.1123L105.562 65.5562Z" fill="#F9A825"/>
<path d="M101.457 64.603H101.294V64.7656H101.457V64.603Z" fill="#00BF71"/>
<path d="M101.945 67.4326H101.782V67.5952H101.945V67.4326Z" fill="#00BF71"/>
<path d="M99.343 64.603H99.1804V64.7656H99.343V64.603Z" fill="#00BF71"/>
<path d="M103.115 66.6191H102.953V66.7817H103.115V66.6191Z" fill="#00BF71"/>
<path d="M103.213 65.6758H103.051V65.8384H103.213V65.6758Z" fill="#00BF71"/>
<path d="M100.531 65.2308L100.343 65.103L100.269 65.2107L100.458 65.3385L100.531 65.2308Z" fill="#00BF71"/>
<path d="M102.45 65.5887L102.261 65.4609L102.188 65.5686L102.377 65.6964L102.45 65.5887Z" fill="#00BF71"/>
<path d="M100.108 66.2064L99.9197 66.0786L99.8466 66.1863L100.035 66.3141L100.108 66.2064Z" fill="#00BF71"/>
<path d="M101.3 66.1967L101.428 66.0083L101.321 65.9353L101.193 66.1236L101.3 66.1967Z" fill="#00BF71"/>
<path d="M102.179 66.4247L102.306 66.2363L102.199 66.1633L102.071 66.3517L102.179 66.4247Z" fill="#00BF71"/>
<path d="M104.52 65.6444L104.648 65.4561L104.54 65.383L104.413 65.5714L104.52 65.6444Z" fill="#00BF71"/>
<path d="M110.97 42.8908H54.5538C54.5069 42.8908 54.462 42.8722 54.4289 42.8391C54.3958 42.806 54.3772 42.7611 54.3772 42.7142V15.6741C54.3772 15.6273 54.3958 15.5824 54.4289 15.5493C54.462 15.5162 54.5069 15.4976 54.5538 15.4976C54.6006 15.4976 54.6455 15.5162 54.6786 15.5493C54.7117 15.5824 54.7303 15.6273 54.7303 15.6741V42.5377H110.97C111.016 42.5377 111.061 42.5563 111.094 42.5894C111.128 42.6225 111.146 42.6674 111.146 42.7142C111.146 42.7611 111.128 42.806 111.094 42.8391C111.061 42.8722 111.016 42.8908 110.97 42.8908Z" fill="#3F3D56"/>
<path d="M66.6075 40.9482H61.4763C61.3373 40.9481 61.2041 40.8928 61.1058 40.7946C61.0076 40.6963 60.9523 40.5631 60.9521 40.4242V33.3507C60.9523 33.2118 61.0076 33.0786 61.1058 32.9803C61.2041 32.8821 61.3373 32.8268 61.4763 32.8267H66.6075C66.7464 32.8268 66.8797 32.8821 66.9779 32.9803C67.0762 33.0786 67.1314 33.2118 67.1316 33.3507V40.4242C67.1314 40.5631 67.0762 40.6963 66.9779 40.7946C66.8797 40.8928 66.7464 40.9481 66.6075 40.9482Z" fill="#1B3A6C"/>
<path d="M85.3223 40.8994H80.1911C80.0522 40.8993 79.9189 40.844 79.8207 40.7457C79.7224 40.6475 79.6672 40.5143 79.667 40.3753V33.3019C79.6672 33.1629 79.7224 33.0297 79.8207 32.9315C79.9189 32.8332 80.0522 32.778 80.1911 32.7778H85.3223C85.4613 32.778 85.5945 32.8332 85.6928 32.9315C85.791 33.0297 85.8463 33.1629 85.8464 33.3019V40.3753C85.8463 40.5143 85.791 40.6475 85.6928 40.7457C85.5945 40.844 85.4613 40.8993 85.3223 40.8994Z" fill="#1B3A6C"/>
<path d="M94.6798 40.8991H89.5485C89.4127 40.902 89.2813 40.851 89.1831 40.7572C89.0849 40.6634 89.0278 40.5345 89.0244 40.3988V23.9204C89.0278 23.7846 89.0849 23.6557 89.1831 23.5619C89.2813 23.4681 89.4127 23.4171 89.5485 23.42H94.6798C94.8155 23.4171 94.947 23.4681 95.0452 23.5619C95.1434 23.6557 95.2005 23.7846 95.2039 23.9204V40.3988C95.2005 40.5345 95.1434 40.6634 95.0452 40.7572C94.947 40.851 94.8155 40.902 94.6798 40.8991Z" fill="#1B3A6C"/>
<path d="M104.037 40.8989H98.9059C98.767 40.8987 98.6338 40.8435 98.5355 40.7452C98.4373 40.647 98.382 40.5138 98.3818 40.3748V19.1769C98.382 19.0379 98.4373 18.9047 98.5355 18.8065C98.6338 18.7082 98.767 18.653 98.9059 18.6528H104.037C104.176 18.653 104.309 18.7082 104.408 18.8065C104.506 18.9047 104.561 19.0379 104.561 19.1769V40.3748C104.561 40.5138 104.506 40.647 104.408 40.7452C104.309 40.8435 104.176 40.8987 104.037 40.8989Z" fill="#1B3A6C"/>
<path d="M64.0418 30.7085C64.6268 30.7085 65.1011 30.2342 65.1011 29.6492C65.1011 29.0641 64.6268 28.5898 64.0418 28.5898C63.4567 28.5898 62.9824 29.0641 62.9824 29.6492C62.9824 30.2342 63.4567 30.7085 64.0418 30.7085Z" fill="#3F3D56"/>
<path d="M73.3994 23.8228C73.9845 23.8228 74.4588 23.3485 74.4588 22.7634C74.4588 22.1784 73.9845 21.7041 73.3994 21.7041C72.8144 21.7041 72.3401 22.1784 72.3401 22.7634C72.3401 23.3485 72.8144 23.8228 73.3994 23.8228Z" fill="#3F3D56"/>
<path d="M82.7566 30.7085C83.3417 30.7085 83.8159 30.2342 83.8159 29.6492C83.8159 29.0641 83.3417 28.5898 82.7566 28.5898C82.1715 28.5898 81.6973 29.0641 81.6973 29.6492C81.6973 30.2342 82.1715 30.7085 82.7566 30.7085Z" fill="#3F3D56"/>
<path d="M92.1143 20.419C92.6993 20.419 93.1736 19.9447 93.1736 19.3596C93.1736 18.7746 92.6993 18.3003 92.1143 18.3003C91.5292 18.3003 91.0549 18.7746 91.0549 19.3596C91.0549 19.9447 91.5292 20.419 92.1143 20.419Z" fill="#3F3D56"/>
<path d="M101.471 16.5342C102.056 16.5342 102.531 16.0599 102.531 15.4749C102.531 14.8898 102.056 14.4155 101.471 14.4155C100.886 14.4155 100.412 14.8898 100.412 15.4749C100.412 16.0599 100.886 16.5342 101.471 16.5342Z" fill="#3F3D56"/>
<path d="M82.7789 29.8867L73.3992 22.8611L64.1477 29.7906L63.9358 29.5081L73.3992 22.4199L82.7344 29.4121L92.0108 19.2605L92.0481 19.2453L101.406 15.4751L101.538 15.8026L92.2174 19.5578L82.7789 29.8867Z" fill="#3F3D56"/>
</svg>
