<svg width="208" height="298" viewBox="0 0 208 298" fill="none" xmlns="http://www.w3.org/2000/svg">
<path d="M273.044 193.827C273.044 247.391 232.155 290.465 182.134 290.465C132.113 290.465 91.2241 247.391 91.2241 193.827C91.2241 140.262 132.113 97.1885 182.134 97.1885C232.155 97.1885 273.044 140.262 273.044 193.827Z" stroke="#56DDE8" stroke-width="6.84136"/>
<path d="M276.767 183.294C276.767 243.402 230.877 291.781 174.687 291.781C118.496 291.781 72.6062 243.402 72.6062 183.294C72.6062 123.185 118.496 74.8067 174.687 74.8067C230.877 74.8067 276.767 123.185 276.767 183.294Z" stroke="#56DDE8" stroke-width="6.84136"/>
<path d="M280.491 174.735C280.491 240.661 230.155 293.755 168.481 293.755C106.806 293.755 56.4707 240.661 56.4707 174.735C56.4707 108.81 106.806 55.7158 168.481 55.7158C230.155 55.7158 280.491 108.81 280.491 174.735Z" stroke="#56DDE8" stroke-width="6.84136"/>
<path d="M282.973 162.229C282.973 233.244 228.747 290.464 162.275 290.464C95.8021 290.464 41.5764 233.244 41.5764 162.229C41.5764 91.2132 95.8021 33.9929 162.275 33.9929C228.747 33.9929 282.973 91.2132 282.973 162.229Z" stroke="#56DDE8" stroke-width="6.84136"/>
<path d="M285.455 150.05C285.455 225.974 227.479 287.172 156.379 287.172C85.2792 287.172 27.3025 225.974 27.3025 150.05C27.3025 74.1267 85.2792 12.9278 156.379 12.9278C227.479 12.9278 285.455 74.1267 285.455 150.05Z" stroke="#56DDE8" stroke-width="6.84136"/>
<path d="M288.559 136.227C288.559 219.785 224.747 287.173 146.45 287.173C68.1526 287.173 4.34109 219.785 4.34109 136.227C4.34109 52.6687 68.1526 -14.7195 146.45 -14.7195C224.747 -14.7195 288.559 52.6687 288.559 136.227Z" stroke="#56DDE8" stroke-width="6.84136"/>
</svg>
