<svg width="187" height="138" viewBox="0 0 187 138" fill="none" xmlns="http://www.w3.org/2000/svg">
<path d="M134.756 91.4742C134.756 91.4742 132.772 90.6696 126.458 93.5637C120.145 96.4578 119.357 96.092 117.724 95.6569C116.09 95.2217 115.178 95.1092 113.427 92.6915C113.427 92.6915 112.191 85.9937 110.988 84.9546C109.786 83.9155 104.711 85.5473 104.711 85.5473C104.711 85.5473 98.6167 86.9446 97.4557 78.795C97.4557 78.795 98.2791 72.658 97.1575 70.7748C97.1575 70.7748 99.4232 71.7502 103.159 70.1746C106.896 68.5991 109.887 71.8721 109.887 71.8721C109.887 71.8721 110.825 74.3104 110.731 75.7659C110.638 77.2214 111.23 77.7672 113.012 77.0638C113.012 77.0638 113.888 75.8184 112.648 73.759C111.408 71.6995 110.523 70.1671 110.868 68.5691C111.213 66.9711 112.209 64.7522 115.407 63.6437C118.605 62.5352 122.947 62.3308 125.031 61.4549C127.115 60.579 127.629 60.02 127.629 60.02C127.629 60.02 126.346 61.3048 129.368 66.7535C132.389 72.2022 130.463 74.5655 130.463 74.5655C130.463 74.5655 128.856 78.3974 121.758 78.086C121.758 78.086 114.92 78.3355 118.648 81.2352C118.648 81.2352 121.036 80.7494 124.605 79.6147C128.175 78.4799 130.752 83.1633 131.391 86.4213C132.031 89.6793 134.756 91.4742 134.756 91.4742Z" fill="#4C77BD"/>
<path d="M125.564 64.1465L125.601 64.1353C125.875 65.1743 122.82 69.3532 120.207 72.675L120.177 72.6506C123.861 67.9728 125.776 64.9511 125.564 64.1465Z" fill="white"/>
<path d="M120.23 72.5869L120.247 72.6282C118.159 75.2803 115.535 78.4426 113.434 80.7928C113.234 81.016 113.035 81.2504 112.843 81.4905L112.783 81.4417C112.971 81.2017 113.175 80.9653 113.376 80.7421C115.475 78.4014 118.14 75.2409 120.23 72.5869Z" fill="white"/>
<path d="M112.834 81.3818L112.875 81.4531C109.053 86.2266 108.8 93.6447 108.79 93.7028L107.984 92.765C107.993 92.705 108.985 86.1891 112.834 81.3818Z" fill="white"/>
<path d="M130.332 88.886C130.332 88.886 125.83 86.5415 122.311 87.3855C118.793 88.2296 110.879 84.4033 110.879 84.4033C110.879 84.4033 107.522 83.0397 106.847 81.4848C106.847 81.4848 104.542 79.0465 104.409 77.788C104.275 76.5294 102.034 73.3578 100.571 73.2358" stroke="white" stroke-width="0.187562" stroke-miterlimit="10"/>
<path d="M129.669 91.1424C129.669 91.1424 127.4 89.6119 127.664 87.8301" stroke="white" stroke-width="0.187562" stroke-miterlimit="10"/>
<path d="M126.188 93.1173C126.188 93.1173 122.942 91.9394 122.625 87.3179" stroke="white" stroke-width="0.187562" stroke-miterlimit="10"/>
<path d="M120.953 94.3143C120.953 94.3143 117.851 91.7409 118.881 87.2432" stroke="white" stroke-width="0.187562" stroke-miterlimit="10"/>
<path d="M114.653 93.0575C114.653 93.0575 112.59 88.7248 114.426 85.9058" stroke="white" stroke-width="0.187562" stroke-miterlimit="10"/>
<path d="M130.375 86.0293C130.375 86.0293 128.028 86.7795 128.531 88.01" stroke="white" stroke-width="0.187562" stroke-miterlimit="10"/>
<path d="M127.543 81.7773C127.543 81.7773 124.401 82.7733 124.328 87.2167" stroke="white" stroke-width="0.187562" stroke-miterlimit="10"/>
<path d="M123.161 80.7422C123.161 80.7422 120.301 84.2721 120.511 87.4794" stroke="white" stroke-width="0.187562" stroke-miterlimit="10"/>
<path d="M118.153 82.1265C118.153 82.1265 115.313 84.8424 115.675 86.3523" stroke="white" stroke-width="0.187562" stroke-miterlimit="10"/>
<path d="M116.441 81.1677C116.441 81.1677 113.777 81.6441 113.404 80.77" stroke="white" stroke-width="0.187562" stroke-miterlimit="10"/>
<path d="M112.98 77.9531C112.98 77.9531 114.325 79.735 114.668 79.3355" stroke="white" stroke-width="0.187562" stroke-miterlimit="10"/>
<path d="M126.32 76.8256C126.32 76.8256 119.605 77.3133 118.086 75.2876" stroke="white" stroke-width="0.187562" stroke-miterlimit="10"/>
<path d="M111.575 68.9727C111.575 68.9727 114.725 75.7343 117.015 76.5952" stroke="white" stroke-width="0.187562" stroke-miterlimit="10"/>
<path d="M114.873 65.752C114.873 65.752 116.807 71.9715 119.204 73.9128" stroke="white" stroke-width="0.187562" stroke-miterlimit="10"/>
<path d="M129.144 71.6923C129.144 71.6923 124.039 73.883 120.974 71.666" stroke="white" stroke-width="0.140672" stroke-miterlimit="10"/>
<path d="M119.419 64.4258C119.419 64.4258 120.586 68.9967 122.158 70.1014" stroke="white" stroke-width="0.140672" stroke-miterlimit="10"/>
<path d="M128.373 66.5698C128.373 66.5698 125.504 67.6577 124.435 66.8249" stroke="white" stroke-width="0.140672" stroke-miterlimit="10"/>
<path d="M110.521 79.4458C110.521 79.4458 110.521 83.4315 109.437 83.7147" stroke="white" stroke-width="0.187562" stroke-miterlimit="10"/>
<path d="M101.651 84.6089C101.651 84.6089 105.965 84.984 107.948 82.7539" stroke="white" stroke-width="0.187562" stroke-miterlimit="10"/>
<path d="M109.411 74.7383C109.411 74.7383 108.368 78.7802 105.491 79.87" stroke="white" stroke-width="0.187562" stroke-miterlimit="10"/>
<path d="M99.0669 80.3522C99.0669 80.3522 102.117 81.4119 104.741 78.7129" stroke="white" stroke-width="0.187562" stroke-miterlimit="10"/>
<path d="M106.018 71.2627C106.018 71.2627 105.731 74.6951 103.865 76.3025" stroke="white" stroke-width="0.187562" stroke-miterlimit="10"/>
<path d="M99.1831 75.1209C99.1831 75.1209 101.713 75.1378 102.306 74.3125" stroke="white" stroke-width="0.187562" stroke-miterlimit="10"/>
<path d="M11.9095 128.964C19.6561 133.933 29.3337 133.681 38.6385 132.517C39.9377 132.354 41.2269 132.176 42.5037 131.991C42.5113 131.988 42.5215 131.988 42.5293 131.986C42.5907 131.977 42.6521 131.967 42.7109 131.961C42.9744 131.922 43.238 131.883 43.499 131.843L43.4434 131.965L43.2687 132.343C43.332 132.216 43.3954 132.092 43.4586 131.965C43.4772 131.927 43.4983 131.889 43.5167 131.851C45.709 127.51 47.8731 123.015 48.2256 118.174C48.5888 113.149 46.5053 107.594 41.9806 105.379C41.3872 105.089 40.7634 104.866 40.1207 104.715C39.8537 104.649 39.5839 104.599 39.3116 104.556C36.4624 104.134 33.411 104.993 31.2909 106.959C28.4865 109.565 27.5059 113.949 28.9305 117.503C25.0004 113.885 25.3605 107.653 26.3655 102.407C27.373 97.1601 28.6199 91.3152 25.751 86.8066C24.1561 84.297 21.5104 82.8294 18.6037 82.3376C18.5146 82.3233 18.4256 82.3091 18.3364 82.2974C14.9627 81.798 11.2716 82.595 8.46969 84.5807C3.16546 88.3376 0.699483 95.0507 0.131225 101.527C-0.785024 111.949 3.10207 123.314 11.9095 128.964Z" fill="#4C77BD"/>
<path d="M13.4213 112.256C13.761 114.525 14.4298 116.733 15.4066 118.81C16.3027 120.645 17.4682 122.337 18.8645 123.828C21.7185 126.907 25.3931 129.139 29.3288 130.547C32.3365 131.593 35.4644 132.255 38.6381 132.517C39.9374 132.354 41.2266 132.176 42.5034 131.99C42.511 131.988 42.5212 131.988 42.529 131.986C42.5904 131.977 42.6518 131.967 42.7106 131.961C42.9741 131.922 43.2377 131.883 43.4987 131.843L43.4431 131.965L43.2684 132.342C43.3317 132.216 43.395 132.092 43.4583 131.965C43.4769 131.927 43.4979 131.889 43.5164 131.851C41.0275 129.626 39.1082 126.836 37.9195 123.716C36.7308 120.596 36.3073 117.236 36.6844 113.919C37.0885 110.623 38.2658 107.469 40.1204 104.715C39.8534 104.649 39.5836 104.599 39.3113 104.556C38.6082 105.635 38.0019 106.774 37.4994 107.959C35.6951 112.188 35.3003 116.886 36.3735 121.356C37.3651 125.401 39.49 129.078 42.4988 131.957C42.2488 131.953 41.9961 131.946 41.7487 131.937C37.065 131.794 32.3579 131.043 28.0181 129.218C24.3527 127.68 20.9867 125.313 18.4749 122.214C15.723 118.82 14.365 114.632 13.9379 110.324C13.4827 105.712 13.8284 100.976 14.6407 96.4229C15.4691 91.7556 16.8655 87.2073 18.7988 82.8793C18.8419 82.7811 18.8457 82.6702 18.8093 82.5693C18.773 82.4685 18.6992 82.3855 18.6034 82.3375C18.5231 82.2895 18.427 82.275 18.3361 82.2974C18.2918 82.3117 18.2513 82.3359 18.2176 82.368C18.184 82.4002 18.158 82.4395 18.1416 82.4831C17.9032 83.0177 17.6697 83.5524 17.4465 84.0924C15.5874 88.5903 14.2944 93.3017 13.597 98.1184C12.9185 102.765 12.6835 107.601 13.4213 112.256Z" fill="white"/>
<path d="M164.595 130.795V117.227C164.595 117.227 169.883 126.846 164.595 130.795Z" fill="#F1F1F1"/>
<path d="M164.922 130.792L154.927 121.617C154.927 121.617 165.589 124.227 164.922 130.792Z" fill="#F1F1F1"/>
<path d="M107.803 31.332H107.078V11.4862C107.078 9.97781 106.781 8.48419 106.204 7.09062C105.627 5.69705 104.781 4.43083 103.714 3.36423C102.647 2.29764 101.381 1.45157 99.9876 0.874338C98.594 0.297101 97.1004 1.23158e-06 95.592 0H53.546C52.0376 -3.20201e-06 50.544 0.297093 49.1504 0.874325C47.7569 1.45156 46.4906 2.29762 45.4241 3.36421C44.3575 4.4308 43.5114 5.69702 42.9342 7.09059C42.3569 8.48416 42.0598 9.97778 42.0598 11.4862V120.362C42.0598 123.408 43.27 126.329 45.424 128.484C47.5781 130.638 50.4997 131.848 53.546 131.848H95.5919C98.6383 131.848 101.56 130.638 103.714 128.484C105.868 126.33 107.078 123.408 107.078 120.362V45.4585H107.803V31.332Z" fill="#3F3D56"/>
<path d="M96.0557 2.98829H90.5673C90.8197 3.60708 90.916 4.27845 90.8478 4.94325C90.7796 5.60805 90.549 6.24588 90.1763 6.80055C89.8035 7.35522 89.3 7.8097 88.7103 8.12397C88.1205 8.43823 87.4624 8.60263 86.7942 8.60268H62.7066C62.0383 8.60263 61.3803 8.43823 60.7905 8.12397C60.2007 7.80971 59.6972 7.35522 59.3245 6.80055C58.9517 6.24588 58.7211 5.60805 58.6529 4.94325C58.5847 4.27845 58.681 3.60708 58.9334 2.98828H53.8073C51.5323 2.98828 49.3505 3.892 47.7419 5.50064C46.1332 7.10928 45.2295 9.29107 45.2295 11.566V120.282C45.2295 121.408 45.4514 122.524 45.8824 123.564C46.3135 124.605 46.9453 125.551 47.7419 126.347C48.5384 127.144 49.484 127.775 50.5247 128.207C51.5654 128.638 52.6808 128.859 53.8072 128.859H96.0557C97.1821 128.859 98.2976 128.638 99.3383 128.207C100.379 127.775 101.325 127.144 102.121 126.347C102.918 125.551 103.549 124.605 103.981 123.564C104.412 122.524 104.633 121.408 104.633 120.282V11.566C104.633 10.4396 104.412 9.32417 103.981 8.28347C103.549 7.24277 102.918 6.29716 102.121 5.50065C101.325 4.70413 100.379 4.0723 99.3383 3.64123C98.2976 3.21015 97.1821 2.98829 96.0557 2.98829Z" fill="white"/>
<path d="M94.9881 126.98H54.8746C50.2654 126.98 46.5156 124.076 46.5156 120.507V115.821C46.5156 112.976 49.5019 110.662 53.1726 110.662H96.6901C100.361 110.662 103.347 112.976 103.347 115.821V120.507C103.347 124.076 99.5972 126.98 94.9881 126.98Z" fill="#E5E5E5"/>
<path d="M57.216 122.907H50.0137C49.8847 122.907 49.761 122.856 49.6698 122.764C49.5786 122.673 49.5273 122.549 49.5271 122.42V115.218C49.5273 115.089 49.5786 114.965 49.6698 114.874C49.761 114.783 49.8847 114.732 50.0137 114.731H57.216C57.3451 114.732 57.4688 114.783 57.56 114.874C57.6512 114.965 57.7025 115.089 57.7027 115.218V122.42C57.7025 122.549 57.6512 122.673 57.56 122.764C57.4688 122.856 57.3451 122.907 57.216 122.907Z" fill="white"/>
<path d="M71.2063 122.907H64.004C63.875 122.907 63.7513 122.856 63.66 122.764C63.5688 122.673 63.5175 122.549 63.5173 122.42V115.218C63.5175 115.089 63.5688 114.965 63.66 114.874C63.7513 114.783 63.875 114.732 64.004 114.731H71.2063C71.3353 114.732 71.459 114.783 71.5502 114.874C71.6414 114.965 71.6928 115.089 71.6929 115.218V122.42C71.6928 122.549 71.6414 122.673 71.5502 122.764C71.459 122.856 71.3353 122.907 71.2063 122.907Z" fill="white"/>
<path d="M85.1963 122.907H77.994C77.8649 122.907 77.7413 122.856 77.65 122.764C77.5588 122.673 77.5075 122.549 77.5073 122.42V115.218C77.5075 115.089 77.5588 114.965 77.65 114.874C77.7413 114.783 77.8649 114.732 77.994 114.731H85.1963C85.3253 114.732 85.449 114.783 85.5402 114.874C85.6314 114.965 85.6828 115.089 85.6829 115.218V122.42C85.6828 122.549 85.6314 122.673 85.5402 122.764C85.449 122.856 85.3253 122.907 85.1963 122.907Z" fill="white"/>
<path d="M99.1863 122.907H91.984C91.8549 122.907 91.7312 122.856 91.64 122.764C91.5488 122.673 91.4975 122.549 91.4973 122.42V115.218C91.4975 115.089 91.5488 114.965 91.64 114.874C91.7312 114.783 91.8549 114.732 91.984 114.731H99.1863C99.3153 114.732 99.439 114.783 99.5302 114.874C99.6214 114.965 99.6728 115.089 99.6729 115.218V122.42C99.6728 122.549 99.6214 122.673 99.5302 122.764C99.439 122.856 99.3153 122.907 99.1863 122.907Z" fill="white"/>
<path d="M125.737 113.74C125.376 113.571 124.963 113.55 124.586 113.681C124.21 113.812 123.899 114.085 123.72 114.441C123.685 114.514 123.656 114.59 123.633 114.668L118.303 114.986L117.513 117.748L124.768 116.522C125.098 116.591 125.441 116.549 125.745 116.402C126.048 116.255 126.295 116.012 126.445 115.711C126.529 115.538 126.579 115.351 126.59 115.159C126.602 114.968 126.576 114.776 126.514 114.595C126.451 114.413 126.354 114.246 126.227 114.102C126.1 113.959 125.945 113.841 125.773 113.757C125.761 113.751 125.749 113.746 125.737 113.74Z" fill="#FFB6B6"/>
<path d="M113.971 100.119C113.62 99.975 113.242 99.9086 112.863 99.9241C112.483 99.9395 112.112 100.036 111.774 100.208C111.435 100.38 111.138 100.623 110.902 100.92C110.665 101.217 110.496 101.561 110.405 101.93L108.939 107.848L109.215 118.201C109.215 118.201 116.864 119.669 118.148 118.725C119.432 117.782 119.312 117.079 119.432 117.782C119.553 118.484 120.104 118.779 120.112 118.499C120.119 118.22 120.182 118.268 120.502 118.184C120.822 118.099 122.234 117.579 122.234 117.579L122.297 114.627C122.297 114.627 119.962 113.742 119.396 114.006C118.829 114.27 119.516 114.708 118.829 114.27C118.142 113.832 118.067 112.449 117.95 113.695C117.832 114.942 117.488 115.174 116.973 114.62C116.458 114.065 114.072 114.419 114.072 114.419L115.59 102.911C115.667 102.332 115.549 101.744 115.256 101.239C114.963 100.734 114.511 100.34 113.971 100.119Z" fill="#6C63FF"/>
<path d="M165.484 130.821L165.564 128.641L157.194 127.293L157.075 130.511L165.484 130.821Z" fill="#FFB6B6"/>
<path d="M163.964 131.478L163.885 127.987L165.377 128.042L167.786 124.815C167.905 124.656 168.072 124.539 168.262 124.481C168.453 124.423 168.656 124.427 168.844 124.494C169.032 124.56 169.193 124.684 169.305 124.848C169.417 125.013 169.473 125.209 169.466 125.408L169.313 129.554L167.81 130.214L169.276 130.548L169.218 132.111L163.964 131.478Z" fill="#2F2E41"/>
<path d="M118.374 135.821L144.886 132.738C144.886 132.738 156.335 133.399 159.021 131.652L161.854 131.294L162.008 127.133C162.008 127.133 160.275 127.146 159.28 126.682C158.284 126.218 158.976 125.65 158.026 126.208C157.077 126.767 157.177 126.834 156.443 126.577C155.709 126.321 122.043 124.944 122.043 124.944L118.374 135.821Z" fill="#2F2E41"/>
<path d="M153.31 134.015L154.852 132.471L149.632 125.791L147.357 128.069L153.31 134.015Z" fill="#FFB6B6"/>
<path d="M151.75 133.462L154.066 130.85L155.122 131.905L159.083 131.178C159.278 131.142 159.48 131.169 159.659 131.256C159.838 131.343 159.984 131.485 160.077 131.661C160.17 131.837 160.203 132.038 160.174 132.235C160.144 132.432 160.052 132.614 159.911 132.754L156.979 135.69L155.428 135.152L156.276 136.394L155.171 137.5L151.75 133.462Z" fill="#2F2E41"/>
<path d="M107.914 121.301L108.177 127.428C108.488 134.64 116.431 139.006 122.59 135.24C122.704 135.17 122.818 135.098 122.932 135.024C122.932 135.024 125.267 134.397 125.196 133.404C125.125 132.411 125.696 131.928 126.2 132.198C126.705 132.469 133.315 123.089 133.315 123.089C133.315 123.089 147.047 129.939 150.077 131.552L153.273 130.681C153.273 130.681 154.476 131.249 154.043 130.427C153.61 129.605 153.532 129.999 153.399 129.103C153.266 128.208 152.925 127.098 152.719 127.145C152.512 127.191 135.73 115.445 135.73 115.445C135.73 115.445 132.996 112.678 129.604 114.505C129.534 114.774 129.594 114.783 129.594 114.783L118.391 123.912L116.808 120.905L107.914 121.301Z" fill="#2F2E41"/>
<path d="M115.444 98.7884L110.64 96.5371L109.202 99.0394C109.202 99.0394 105.34 104.551 105.284 108.527C105.228 112.503 105.913 113.686 105.913 113.686C105.913 113.686 104.248 114.931 105.081 115.692C105.913 116.453 107.757 116.781 106.341 117.111C104.925 117.441 105.284 120.781 106.865 121.374C108.446 121.967 116.938 121.962 116.938 121.962C116.862 121.703 116.856 121.428 116.922 121.166C116.987 120.904 117.122 120.665 117.311 120.473C117.97 119.813 118.563 120.286 117.97 119.259C117.377 118.232 116.389 118.825 117.179 117.441C117.97 116.058 117.969 115.644 117.969 115.644C117.969 115.644 119.581 112.577 117.153 109.249C117.006 109.047 117.13 109.039 117.13 109.039L115.17 102.47L115.444 98.7884Z" fill="#6C63FF"/>
<path d="M107.703 89.3228C107.743 90.3374 107.104 91.7749 106.789 92.6417C106.452 93.5685 107.911 94.7986 108.845 95.068C108.894 94.7469 109.054 94.4533 109.298 94.2385C109.23 94.5445 109.225 94.8608 109.28 95.169L117.176 96.9665C118.596 95.3216 120.024 92.9569 119.713 90.105C119.788 89.5634 119.7 89.0119 119.463 88.5196C119.225 88.0273 118.847 87.6163 118.377 87.3379L114.385 84.98C112.687 84.5934 110.549 84.3601 109.323 85.4106C108.775 85.8981 108.345 86.5033 108.064 87.1808C107.783 87.8584 107.66 88.5906 107.703 89.3228Z" fill="#2F2E41"/>
<path d="M114.76 96.0974C117.27 96.0974 119.306 94.0622 119.306 91.5517C119.306 89.0411 117.27 87.0059 114.76 87.0059C112.249 87.0059 110.214 89.0411 110.214 91.5517C110.214 94.0622 112.249 96.0974 114.76 96.0974Z" fill="#FFB6B6"/>
<path d="M109.434 89.1231L109.215 90.0867L113.05 90.9597C113.053 90.7649 113.097 90.5728 113.178 90.3956C113.259 90.2184 113.376 90.0598 113.522 89.93C113.439 90.3078 113.448 90.7 113.549 91.0734C115.617 92.2339 117.482 92.6451 119.153 92.3491C119.38 92.4007 119.617 92.3602 119.814 92.2365C120.01 92.1128 120.15 91.9161 120.201 91.6896C120.874 88.7354 119.112 85.7159 116.172 84.9826C115.458 84.804 114.715 84.7698 113.987 84.882C113.259 84.9943 112.56 85.2508 111.933 85.6364C111.305 86.022 110.761 86.5291 110.332 87.1278C109.903 87.7266 109.598 88.4049 109.434 89.1231Z" fill="#2F2E41"/>
<path d="M111.677 82.7657C112.183 82.6559 112.741 82.4949 113.198 82.1523L112.875 83.0282C113.706 82.8004 114.593 82.8889 115.363 83.2766C115.591 83.3793 115.787 83.5445 115.926 83.7534C116 83.8795 116.046 84.0208 116.059 84.1668C116.071 84.3129 116.051 84.4599 116 84.5971C115.951 84.7149 115.877 84.821 115.785 84.9089C115.692 84.9967 115.583 85.0643 115.463 85.1073C115.25 85.1713 115.027 85.1946 114.805 85.1761C113.872 85.1544 112.939 85.1327 112.005 85.1109C111.65 85.133 111.294 85.0639 110.973 84.9102C110.802 84.8047 110.665 84.6515 110.58 84.4695C110.495 84.2875 110.465 84.0847 110.494 83.8858C110.583 83.2601 111.171 82.8754 111.677 82.7657Z" fill="#2F2E41"/>
<path d="M136.336 118.393C136.325 118.38 136.312 118.369 136.298 118.359C136.265 118.32 136.223 118.287 136.177 118.264L135.844 118.086L133.636 115.634C133.508 115.567 133.359 115.553 133.221 115.594L133.215 115.596L132.269 115.889L131.456 116.141L130.319 116.493L122.578 118.89L117.49 120.466C117.353 120.509 117.238 120.605 117.17 120.733C117.102 120.86 117.087 121.009 117.128 121.147C117.152 121.223 117.192 121.294 117.245 121.354L117.407 121.534L117.746 121.912L118.533 123.543L118.751 123.787C118.821 123.864 118.911 123.92 119.011 123.948C119.112 123.976 119.218 123.975 119.318 123.945L136.081 119.284C136.168 119.256 136.247 119.207 136.31 119.141C136.374 119.075 136.42 118.995 136.446 118.907C136.471 118.819 136.474 118.726 136.455 118.636C136.436 118.547 136.395 118.463 136.336 118.393Z" fill="#CCCCCC"/>
<path d="M135.341 94.141L135.016 94.1936C134.927 94.2084 134.847 94.2578 134.795 94.331L134.652 94.5309L133.362 97.7568C133.309 97.8306 133.288 97.9222 133.303 98.0115L133.454 98.9306L132.883 115.336C132.897 115.421 132.943 115.497 133.011 115.55L135.515 118.901L135.574 118.947L135.7 119.046C135.765 119.096 135.845 119.122 135.927 119.118L136.139 119.108C136.188 119.106 136.235 119.093 136.278 119.071C136.321 119.049 136.359 119.018 136.39 118.98C136.42 118.943 136.442 118.9 136.455 118.853C136.467 118.806 136.469 118.757 136.461 118.71L135.734 94.4217C135.719 94.3325 135.67 94.2528 135.596 94.2001C135.523 94.1474 135.431 94.1261 135.342 94.1408L135.341 94.141Z" fill="#CCCCCC"/>
<path d="M134.797 95.416L133.654 98.8971L133.212 112.802L134.991 114.383L134.797 95.416Z" fill="#6C63FF"/>
<path d="M125.959 116.626C125.598 116.458 125.185 116.436 124.809 116.567C124.432 116.698 124.122 116.971 123.943 117.327C123.908 117.4 123.879 117.476 123.856 117.554L118.526 117.873L117.736 120.634L124.99 119.408C125.32 119.477 125.664 119.435 125.967 119.288C126.271 119.141 126.517 118.898 126.668 118.597C126.838 118.249 126.862 117.847 126.736 117.481C126.61 117.115 126.344 116.813 125.996 116.643C125.984 116.638 125.972 116.632 125.959 116.626Z" fill="#FFB6B6"/>
<path d="M114.194 103.005C113.843 102.861 113.465 102.795 113.086 102.81C112.707 102.826 112.335 102.923 111.997 103.094C111.658 103.266 111.361 103.509 111.125 103.806C110.888 104.103 110.719 104.447 110.628 104.816L109.162 110.734L109.438 121.087C109.438 121.087 117.087 122.555 118.371 121.611C119.655 120.668 119.535 119.966 119.655 120.668C119.776 121.37 120.327 121.665 120.335 121.386C120.342 121.106 120.405 121.154 120.725 121.07C121.045 120.986 122.457 120.465 122.457 120.465L122.52 117.513C122.52 117.513 120.185 116.628 119.619 116.892C119.053 117.156 119.74 117.595 119.053 117.156C118.366 116.718 118.29 115.335 118.173 116.581C118.056 117.828 117.712 118.06 117.197 117.506C116.681 116.952 114.295 117.306 114.295 117.306L115.814 105.797C115.89 105.218 115.773 104.63 115.48 104.125C115.187 103.62 114.735 103.226 114.194 103.005Z" fill="#6C63FF"/>
<path d="M98.7449 32.5041H51.1176C50.345 32.5032 49.6043 32.1959 49.0581 31.6496C48.5118 31.1034 48.2045 30.3627 48.2036 29.5901V23.1713C48.2045 22.3987 48.5118 21.6581 49.0581 21.1118C49.6043 20.5655 50.345 20.2582 51.1176 20.2573H98.7449C99.5175 20.2582 100.258 20.5655 100.804 21.1118C101.351 21.6581 101.658 22.3987 101.659 23.1713V29.5901C101.658 30.3627 101.351 31.1034 100.804 31.6496C100.258 32.1959 99.5175 32.5032 98.7449 32.5041Z" fill="#B1CFFF"/>
<path d="M77.4647 25.2819H63.4317C63.2652 25.2819 63.1055 25.2157 62.9878 25.098C62.8701 24.9803 62.804 24.8206 62.804 24.6541C62.804 24.4876 62.8701 24.328 62.9878 24.2102C63.1055 24.0925 63.2652 24.0264 63.4317 24.0264H77.4647C77.6312 24.0264 77.7909 24.0925 77.9086 24.2102C78.0263 24.328 78.0925 24.4876 78.0925 24.6541C78.0925 24.8206 78.0263 24.9803 77.9086 25.098C77.7909 25.2157 77.6312 25.2819 77.4647 25.2819Z" fill="white"/>
<path d="M90.9612 28.7345H63.2745C63.108 28.7345 62.9483 28.6684 62.8306 28.5507C62.7129 28.4329 62.6467 28.2733 62.6467 28.1068C62.6467 27.9403 62.7129 27.7806 62.8306 27.6629C62.9483 27.5451 63.108 27.479 63.2745 27.479H90.9612C91.1277 27.479 91.2874 27.5451 91.4051 27.6629C91.5229 27.7806 91.589 27.9403 91.589 28.1068C91.589 28.2733 91.5229 28.4329 91.4051 28.5507C91.2874 28.6684 91.1277 28.7345 90.9612 28.7345Z" fill="white"/>
<path d="M55.9765 30.5893C58.3011 30.5893 60.1855 28.7049 60.1855 26.3803C60.1855 24.0558 58.3011 22.1714 55.9765 22.1714C53.652 22.1714 51.7676 24.0558 51.7676 26.3803C51.7676 28.7049 53.652 30.5893 55.9765 30.5893Z" fill="white"/>
<path d="M98.7449 47.696H51.1176C50.345 47.6951 49.6043 47.3878 49.0581 46.8415C48.5118 46.2953 48.2045 45.5546 48.2036 44.782V38.3632C48.2045 37.5906 48.5118 36.85 49.0581 36.3037C49.6043 35.7574 50.345 35.4501 51.1176 35.4492H98.7449C99.5175 35.4501 100.258 35.7574 100.804 36.3037C101.351 36.85 101.658 37.5906 101.659 38.3632V44.782C101.658 45.5546 101.351 46.2953 100.804 46.8415C100.258 47.3878 99.5175 47.6951 98.7449 47.696Z" fill="#B1CFFF"/>
<path d="M77.4647 40.4743H63.4317C63.2652 40.4743 63.1055 40.4081 62.9878 40.2904C62.8701 40.1727 62.804 40.013 62.804 39.8465C62.804 39.68 62.8701 39.5203 62.9878 39.4026C63.1055 39.2849 63.2652 39.2188 63.4317 39.2188H77.4647C77.6312 39.2188 77.7909 39.2849 77.9086 39.4026C78.0263 39.5203 78.0925 39.68 78.0925 39.8465C78.0925 40.013 78.0263 40.1727 77.9086 40.2904C77.7909 40.4081 77.6312 40.4743 77.4647 40.4743Z" fill="white"/>
<path d="M90.9612 43.9274H63.2745C63.108 43.9274 62.9483 43.8613 62.8306 43.7435C62.7129 43.6258 62.6467 43.4661 62.6467 43.2996C62.6467 43.1331 62.7129 42.9735 62.8306 42.8557C62.9483 42.738 63.108 42.6719 63.2745 42.6719H90.9612C91.1277 42.6719 91.2874 42.738 91.4051 42.8557C91.5229 42.9735 91.589 43.1331 91.589 43.2996C91.589 43.4661 91.5229 43.6258 91.4051 43.7435C91.2874 43.8613 91.1277 43.9274 90.9612 43.9274Z" fill="white"/>
<path d="M55.9765 45.7817C58.3011 45.7817 60.1855 43.8973 60.1855 41.5727C60.1855 39.2482 58.3011 37.3638 55.9765 37.3638C53.652 37.3638 51.7676 39.2482 51.7676 41.5727C51.7676 43.8973 53.652 45.7817 55.9765 45.7817Z" fill="white"/>
<path d="M98.7449 62.8889H51.1176C50.345 62.888 49.6043 62.5807 49.0581 62.0344C48.5118 61.4881 48.2045 60.7475 48.2036 59.9749V53.5561C48.2045 52.7835 48.5118 52.0428 49.0581 51.4965C49.6043 50.9503 50.345 50.643 51.1176 50.6421H98.7449C99.5175 50.643 100.258 50.9503 100.804 51.4965C101.351 52.0428 101.658 52.7835 101.659 53.5561V59.9749C101.658 60.7475 101.351 61.4881 100.804 62.0344C100.258 62.5807 99.5175 62.888 98.7449 62.8889Z" fill="#B1CFFF"/>
<path d="M77.4647 55.6671H63.4317C63.2652 55.6671 63.1055 55.601 62.9878 55.4833C62.8701 55.3655 62.804 55.2059 62.804 55.0394C62.804 54.8729 62.8701 54.7132 62.9878 54.5955C63.1055 54.4778 63.2652 54.4116 63.4317 54.4116H77.4647C77.6312 54.4116 77.7909 54.4778 77.9086 54.5955C78.0263 54.7132 78.0925 54.8729 78.0925 55.0394C78.0925 55.2059 78.0263 55.3655 77.9086 55.4833C77.7909 55.601 77.6312 55.6671 77.4647 55.6671Z" fill="white"/>
<path d="M90.9612 59.1198H63.2745C63.108 59.1198 62.9483 59.0536 62.8306 58.9359C62.7129 58.8182 62.6467 58.6585 62.6467 58.492C62.6467 58.3255 62.7129 58.1659 62.8306 58.0481C62.9483 57.9304 63.108 57.8643 63.2745 57.8643H90.9612C91.1277 57.8643 91.2874 57.9304 91.4051 58.0481C91.5229 58.1659 91.589 58.3255 91.589 58.492C91.589 58.6585 91.5229 58.8182 91.4051 58.9359C91.2874 59.0536 91.1277 59.1198 90.9612 59.1198Z" fill="white"/>
<path d="M55.9765 60.9745C58.3011 60.9745 60.1855 59.0901 60.1855 56.7656C60.1855 54.4411 58.3011 52.5566 55.9765 52.5566C53.652 52.5566 51.7676 54.4411 51.7676 56.7656C51.7676 59.0901 53.652 60.9745 55.9765 60.9745Z" fill="white"/>
<path d="M98.7449 78.0813H51.1176C50.345 78.0804 49.6043 77.7731 49.0581 77.2268C48.5118 76.6805 48.2045 75.9398 48.2036 75.1673V68.7484C48.2045 67.9759 48.5118 67.2352 49.0581 66.6889C49.6043 66.1426 50.345 65.8354 51.1176 65.8345H98.7449C99.5175 65.8354 100.258 66.1426 100.804 66.6889C101.351 67.2352 101.658 67.9759 101.659 68.7484V75.1673C101.658 75.9398 101.351 76.6805 100.804 77.2268C100.258 77.7731 99.5175 78.0804 98.7449 78.0813Z" fill="#B1CFFF"/>
<path d="M77.4647 70.8595H63.4317C63.2652 70.8595 63.1055 70.7934 62.9878 70.6757C62.8701 70.5579 62.804 70.3983 62.804 70.2318C62.804 70.0653 62.8701 69.9056 62.9878 69.7879C63.1055 69.6701 63.2652 69.604 63.4317 69.604H77.4647C77.6312 69.604 77.7909 69.6701 77.9086 69.7879C78.0263 69.9056 78.0925 70.0653 78.0925 70.2318C78.0925 70.3983 78.0263 70.5579 77.9086 70.6757C77.7909 70.7934 77.6312 70.8595 77.4647 70.8595Z" fill="white"/>
<path d="M90.9612 74.3122H63.2745C63.108 74.3122 62.9483 74.246 62.8306 74.1283C62.7129 74.0106 62.6467 73.8509 62.6467 73.6844C62.6467 73.5179 62.7129 73.3582 62.8306 73.2405C62.9483 73.1228 63.108 73.0566 63.2745 73.0566H90.9612C91.1277 73.0566 91.2874 73.1228 91.4051 73.2405C91.5229 73.3582 91.589 73.5179 91.589 73.6844C91.589 73.8509 91.5229 74.0106 91.4051 74.1283C91.2874 74.246 91.1277 74.3122 90.9612 74.3122Z" fill="white"/>
<path d="M55.9765 76.1669C58.3011 76.1669 60.1855 74.2825 60.1855 71.958C60.1855 69.6334 58.3011 67.749 55.9765 67.749C53.652 67.749 51.7676 69.6334 51.7676 71.958C51.7676 74.2825 53.652 76.1669 55.9765 76.1669Z" fill="white"/>
<path d="M98.7449 93.2741H51.1176C50.345 93.2732 49.6043 92.9659 49.0581 92.4197C48.5118 91.8734 48.2045 91.1327 48.2036 90.3602V83.9413C48.2045 83.1687 48.5118 82.4281 49.0581 81.8818C49.6043 81.3355 50.345 81.0282 51.1176 81.0273H98.7449C99.5175 81.0282 100.258 81.3355 100.804 81.8818C101.351 82.4281 101.658 83.1687 101.659 83.9413V90.3602C101.658 91.1327 101.351 91.8734 100.804 92.4197C100.258 92.9659 99.5175 93.2732 98.7449 93.2741Z" fill="#B1CFFF"/>
<path d="M77.4647 86.0519H63.4317C63.2652 86.0519 63.1055 85.9858 62.9878 85.868C62.8701 85.7503 62.804 85.5906 62.804 85.4241C62.804 85.2577 62.8701 85.098 62.9878 84.9802C63.1055 84.8625 63.2652 84.7964 63.4317 84.7964H77.4647C77.6312 84.7964 77.7909 84.8625 77.9086 84.9802C78.0263 85.098 78.0925 85.2577 78.0925 85.4241C78.0925 85.5906 78.0263 85.7503 77.9086 85.868C77.7909 85.9858 77.6312 86.0519 77.4647 86.0519Z" fill="white"/>
<path d="M90.9612 89.5045H63.2745C63.108 89.5045 62.9483 89.4384 62.8306 89.3207C62.7129 89.2029 62.6467 89.0433 62.6467 88.8768C62.6467 88.7103 62.7129 88.5506 62.8306 88.4329C62.9483 88.3152 63.108 88.249 63.2745 88.249H90.9612C91.1277 88.249 91.2874 88.3152 91.4051 88.4329C91.5229 88.5506 91.589 88.7103 91.589 88.8768C91.589 89.0433 91.5229 89.2029 91.4051 89.3207C91.2874 89.4384 91.1277 89.5045 90.9612 89.5045Z" fill="white"/>
<path d="M55.9765 91.3593C58.3011 91.3593 60.1855 89.4749 60.1855 87.1504C60.1855 84.8258 58.3011 82.9414 55.9765 82.9414C53.652 82.9414 51.7676 84.8258 51.7676 87.1504C51.7676 89.4749 53.652 91.3593 55.9765 91.3593Z" fill="white"/>
<path d="M174.708 88.9602H127.08C126.308 88.9593 125.567 88.652 125.021 88.1057C124.475 87.5594 124.167 86.8187 124.167 86.0462V79.6273C124.167 78.8548 124.475 78.1141 125.021 77.5678C125.567 77.0215 126.308 76.7143 127.08 76.7134H174.708C175.48 76.7143 176.221 77.0215 176.767 77.5678C177.314 78.1141 177.621 78.8548 177.622 79.6273V86.0462C177.621 86.8187 177.314 87.5594 176.767 88.1057C176.221 88.652 175.48 88.9593 174.708 88.9602Z" fill="#B3D0FF"/>
<path d="M153.427 81.7379H139.394C139.228 81.7379 139.068 81.6718 138.95 81.5541C138.833 81.4363 138.767 81.2767 138.767 81.1102C138.767 80.9437 138.833 80.784 138.95 80.6663C139.068 80.5486 139.228 80.4824 139.394 80.4824H153.427C153.594 80.4824 153.754 80.5486 153.871 80.6663C153.989 80.784 154.055 80.9437 154.055 81.1102C154.055 81.2767 153.989 81.4363 153.871 81.5541C153.754 81.6718 153.594 81.7379 153.427 81.7379Z" fill="white"/>
<path d="M166.924 85.1906H139.237C139.071 85.1906 138.911 85.1244 138.793 85.0067C138.676 84.889 138.609 84.7293 138.609 84.5628C138.609 84.3963 138.676 84.2367 138.793 84.1189C138.911 84.0012 139.071 83.9351 139.237 83.9351H166.924C167.09 83.9351 167.25 84.0012 167.368 84.1189C167.486 84.2367 167.552 84.3963 167.552 84.5628C167.552 84.7293 167.486 84.889 167.368 85.0067C167.25 85.1244 167.09 85.1906 166.924 85.1906Z" fill="white"/>
<path d="M131.939 87.0453C134.264 87.0453 136.148 85.1609 136.148 82.8364C136.148 80.5119 134.264 78.6274 131.939 78.6274C129.615 78.6274 127.73 80.5119 127.73 82.8364C127.73 85.1609 129.615 87.0453 131.939 87.0453Z" fill="white"/>
<path d="M184.086 71.8918H136.459C135.686 71.8909 134.945 71.5836 134.399 71.0373C133.853 70.4911 133.546 69.7504 133.545 68.9778V62.559C133.546 61.7864 133.853 61.0458 134.399 60.4995C134.945 59.9532 135.686 59.6459 136.459 59.645H184.086C184.859 59.6459 185.599 59.9532 186.146 60.4995C186.692 61.0458 186.999 61.7864 187 62.559V68.9778C186.999 69.7504 186.692 70.4911 186.146 71.0373C185.599 71.5836 184.859 71.8909 184.086 71.8918Z" fill="#B3D0FF"/>
<path d="M162.806 64.6701H148.773C148.606 64.6701 148.446 64.6039 148.329 64.4862C148.211 64.3685 148.145 64.2088 148.145 64.0423C148.145 63.8758 148.211 63.7161 148.329 63.5984C148.446 63.4807 148.606 63.4146 148.773 63.4146H162.806C162.972 63.4146 163.132 63.4807 163.249 63.5984C163.367 63.7161 163.433 63.8758 163.433 64.0423C163.433 64.2088 163.367 64.3685 163.249 64.4862C163.132 64.6039 162.972 64.6701 162.806 64.6701Z" fill="white"/>
<path d="M176.302 68.1227H148.616C148.449 68.1227 148.289 68.0566 148.172 67.9388C148.054 67.8211 147.988 67.6614 147.988 67.4949C147.988 67.3285 148.054 67.1688 148.172 67.0511C148.289 66.9333 148.449 66.8672 148.616 66.8672H176.302C176.469 66.8672 176.628 66.9333 176.746 67.0511C176.864 67.1688 176.93 67.3285 176.93 67.4949C176.93 67.6614 176.864 67.8211 176.746 67.9388C176.628 68.0566 176.469 68.1227 176.302 68.1227Z" fill="white"/>
<path d="M141.317 69.9775C143.642 69.9775 145.526 68.0931 145.526 65.7685C145.526 63.444 143.642 61.5596 141.317 61.5596C138.993 61.5596 137.108 63.444 137.108 65.7685C137.108 68.0931 138.993 69.9775 141.317 69.9775Z" fill="white"/>
<path d="M31.0354 95.1136C31.2885 94.8606 31.483 94.5553 31.6053 94.219C31.7276 93.8827 31.7747 93.5237 31.7432 93.1673C31.7117 92.8109 31.6025 92.4657 31.4232 92.1561C31.2439 91.8464 30.9989 91.5798 30.7054 91.3751L33.0679 83.0044L28.7606 84.3742L27.1775 92.1132C26.8663 92.629 26.7551 93.2411 26.865 93.8334C26.9749 94.4257 27.2983 94.9571 27.7738 95.327C28.2494 95.6968 28.844 95.8794 29.4452 95.84C30.0463 95.8007 30.6121 95.5422 31.0354 95.1136Z" fill="#FFB7B7"/>
<path d="M32.2603 89.9824C32.1834 89.9972 32.1051 90.0038 32.0268 90.0022L27.8948 89.9194C27.7393 89.9163 27.5863 89.8801 27.4459 89.8132C27.3054 89.7463 27.1809 89.6503 27.0805 89.5315C26.98 89.4128 26.9061 89.274 26.8634 89.1244C26.8208 88.9748 26.8106 88.8179 26.8333 88.664L31.0249 60.3438C31.15 59.5247 31.564 58.7773 32.192 58.2367C32.82 57.6961 33.6206 57.3979 34.4493 57.396C34.9725 57.3973 35.4886 57.5175 35.9586 57.7475C36.4286 57.9774 36.8401 58.3112 37.1622 58.7235C37.4843 59.1359 37.7085 59.616 37.8179 60.1277C37.9272 60.6393 37.9189 61.1692 37.7935 61.6772L34.8224 73.7105L33.1375 89.027C33.1131 89.2593 33.0146 89.4775 32.8567 89.6496C32.6987 89.8216 32.4896 89.9383 32.2603 89.9824Z" fill="#3F3D56"/>
<path d="M33.9882 134.69H36.2877L37.3817 125.82L33.9878 125.82L33.9882 134.69Z" fill="#FFB7B7"/>
<path d="M33.4016 133.939L37.9301 133.939H37.9303C38.6957 133.939 39.4297 134.243 39.9709 134.784C40.5121 135.325 40.8162 136.059 40.8162 136.825V136.919L33.4017 136.919L33.4016 133.939Z" fill="#2F2E41"/>
<path d="M43.7932 133.943L46.0783 134.199L48.154 125.507L44.7813 125.129L43.7932 133.943Z" fill="#FFB7B7"/>
<path d="M43.2939 133.131L47.7942 133.635C48.5548 133.721 49.2505 134.105 49.7281 134.703C50.2056 135.301 50.4259 136.064 50.3407 136.825L50.3302 136.918L42.9619 136.092L43.2939 133.131Z" fill="#2F2E41"/>
<path d="M31.8298 85.3327C31.8298 85.3327 28.6773 92.3116 31.4612 96.8447L33.1198 132.138H36.9279L40.6223 103.628L47.187 112.069L43.1875 131.768L47.8449 132.029L54.3144 112.069C54.3144 112.069 49.3444 90.0585 47.703 89.5285L46.6243 84.4971L31.8298 85.3327Z" fill="#2F2E41"/>
<path d="M30.4269 91.46C30.4269 91.46 27.5869 94.7195 35.0894 95.8449C42.5919 96.9702 50.4695 95.2822 50.6571 93.0314C50.8446 90.7807 30.4269 91.46 30.4269 91.46Z" fill="#CBCBCB"/>
<path d="M68.0362 51.0274C68.0245 51.3456 67.9433 51.6573 67.7981 51.9407C67.653 52.2241 67.4475 52.4722 67.1961 52.6675C66.9447 52.8629 66.6535 53.0008 66.3431 53.0714C66.0326 53.1421 65.7104 53.1438 65.3993 53.0765L62.5633 57.1662L59.6577 56.0489L63.7437 50.3298C63.8915 49.8145 64.2231 49.3713 64.6758 49.0842C65.1284 48.7971 65.6707 48.686 66.1998 48.772C66.7289 48.858 67.2081 49.1351 67.5465 49.5508C67.885 49.9665 68.0592 50.4918 68.0362 51.0274Z" fill="#FFB7B7"/>
<path d="M44.0526 56.289L40.043 54.4751L34.9057 54.8423C34.9057 54.8423 28.7123 62.0834 31.1506 69.0232L29.6501 93.2188C39.2158 95.8447 43.5641 90.9197 50.4696 93.0312L48.3366 66.1405L44.0526 56.289Z" fill="#3F3D56"/>
<path d="M41.3726 58.0509L44.0523 56.2891C44.0523 56.2891 47.7748 55.7264 49.2627 57.17C49.2627 57.17 54.3132 57.5927 55.5329 58.8534L56.8759 59.1562L61.3374 53.3789L64.0676 54.8624L60.1288 65.5534L48.3364 66.1406L41.3726 58.0509Z" fill="#3F3D56"/>
<path d="M42.2973 52.44C45.3645 50.7634 46.4917 46.9177 44.8151 43.8505C43.1384 40.7833 39.2927 39.6561 36.2255 41.3328C33.1583 43.0094 32.0311 46.8551 33.7078 49.9223C35.3844 52.9895 39.2301 54.1167 42.2973 52.44Z" fill="#FFB7B7"/>
<path d="M33.7868 41.9382C34.9165 39.9062 36.3283 38.5905 38.6527 38.638C40.9772 38.6854 42.9878 38.5936 44.0337 40.67C44.3101 40.1525 44.4485 39.5724 44.4356 38.9858C44.7514 39.1908 45.0003 39.4838 45.1516 39.8286C45.3029 40.1734 45.35 40.5549 45.287 40.9261C45.4904 40.807 45.6607 40.6387 45.7822 40.4366C45.9037 40.2346 45.9726 40.0053 45.9825 39.7697C46.7582 40.0279 46.9599 41.1212 46.5674 41.8384C46.1749 42.5555 45.405 42.9703 44.6664 43.3208C43.9278 43.6714 44.2688 45.5257 43.7865 46.1858C43.4499 46.6466 43.2959 47.2112 43.0691 47.7348C43.0596 47.7555 43.0434 47.7724 43.0232 47.7827C42.5031 48.0727 42.1749 48.5909 42.2667 49.1792C42.2775 49.2233 42.275 49.2697 42.2593 49.3123C41.6009 50.5526 40.8902 51.8504 39.6968 52.5905C38.7393 53.1687 37.5923 53.346 36.5048 53.0839C35.285 52.7923 34.2304 51.9835 33.47 50.9861C32.7096 49.9888 32.2205 48.81 31.8529 47.6108C31.5269 46.5471 31.2898 45.4097 31.5483 44.3276C31.8068 43.2454 32.6825 42.2434 33.792 42.1598" fill="#2F2E41"/>
</svg>
