<svg width="75" height="73" viewBox="0 0 75 73" fill="none" xmlns="http://www.w3.org/2000/svg">
<mask id="mask0_607_2008" style="mask-type:luminance" maskUnits="userSpaceOnUse" x="0" y="0" width="75" height="73">
<path d="M74.6204 0.522949H0.950684V72.8791H74.6204V0.522949Z" fill="white"/>
</mask>
<g mask="url(#mask0_607_2008)">
<path d="M70.8885 19.1252C70.5099 16.1759 69.7698 13.3508 68.2174 10.7756C65.3389 5.98953 60.1679 3.1 54.9168 1.63402C50.5173 0.405298 45.7784 0.0501923 41.3899 1.31976C36.5724 2.7119 32.5296 5.92197 28.1914 8.43754C25.016 10.2523 21.7005 11.8102 18.2768 13.0963C15.5145 14.1538 12.0044 14.7477 9.73389 16.7557C8.34469 17.9967 7.11258 19.4028 6.06502 20.9431C1.82264 27.1181 0.446224 35.0105 1.10144 42.375C1.5571 47.5083 2.96809 52.7012 6.12944 56.7661C10.5714 62.4713 18.1966 65.2807 25.3914 64.5736C33.5619 63.7691 41.3003 58.8873 49.4205 60.0578C53.4634 60.6408 57.3318 62.7195 61.3982 62.333C65.4064 61.9512 68.8381 59.1905 71.2546 55.9773C73.1936 53.3957 74.4851 50.2737 74.6045 47.0212C74.7334 43.5016 73.1401 40.2946 72.3404 36.9337C70.953 31.062 71.6506 25.0551 70.8885 19.1252Z" fill="#B1CFFF"/>
<path opacity="0.7" d="M70.8885 19.1252C70.5099 16.1759 69.7698 13.3508 68.2174 10.7756C65.3389 5.98953 60.1679 3.1 54.9168 1.63402C50.5173 0.405298 45.7784 0.0501923 41.3899 1.31976C36.5724 2.7119 32.5296 5.92197 28.1914 8.43754C25.016 10.2523 21.7005 11.8102 18.2768 13.0963C15.5145 14.1538 12.0044 14.7477 9.73389 16.7557C8.34469 17.9967 7.11258 19.4028 6.06502 20.9431C1.82264 27.1181 0.446224 35.0105 1.10144 42.375C1.5571 47.5083 2.96809 52.7012 6.12944 56.7661C10.5714 62.4713 18.1966 65.2807 25.3914 64.5736C33.5619 63.7691 41.3003 58.8873 49.4205 60.0578C53.4634 60.6408 57.3318 62.7195 61.3982 62.333C65.4064 61.9512 68.8381 59.1905 71.2546 55.9773C73.1936 53.3957 74.4851 50.2737 74.6045 47.0212C74.7334 43.5016 73.1401 40.2946 72.3404 36.9337C70.953 31.062 71.6506 25.0551 70.8885 19.1252Z" fill="white"/>
<path d="M51.3569 47.0488H74.2878V46.1846H51.3569V47.0488Z" stroke="#263238" stroke-width="0.998772" stroke-linecap="round" stroke-linejoin="round"/>
<path d="M52.4199 70.423H73.2233V47.0742H52.4199V70.423Z" stroke="#263238" stroke-width="0.998772" stroke-linecap="round" stroke-linejoin="round"/>
<path d="M53.167 53.2278H72.4981V48.1621H53.167V53.2278Z" stroke="#263238" stroke-width="0.998772" stroke-linecap="round" stroke-linejoin="round"/>
<path d="M61.9014 51.1609H63.834V50.2275H61.9014V51.1609Z" fill="#263238" stroke="#263238" stroke-width="0.998772" stroke-linecap="round" stroke-linejoin="round"/>
<path d="M53.167 59.6253H72.4981V54.5596H53.167V59.6253Z" stroke="#263238" stroke-width="0.998772" stroke-linecap="round" stroke-linejoin="round"/>
<path d="M61.9014 57.5588H63.834V56.6255H61.9014V57.5588Z" fill="#263238" stroke="#263238" stroke-width="0.998772" stroke-linecap="round" stroke-linejoin="round"/>
<path d="M53.167 66.0535H72.4981V60.9878H53.167V66.0535Z" stroke="#263238" stroke-width="0.998772" stroke-linecap="round" stroke-linejoin="round"/>
<path d="M61.9014 63.9875H63.834V63.0542H61.9014V63.9875Z" fill="#263238" stroke="#263238" stroke-width="0.998772" stroke-linecap="round" stroke-linejoin="round"/>
<path d="M63.7723 35.9702C64.008 36.0723 64.5815 36.0597 64.5815 36.0597C64.5815 36.0597 64.4573 35.6842 64.4463 35.6606C64.3206 35.3982 63.9231 34.963 63.5994 35.007C63.5455 35.0152 63.494 35.0348 63.4483 35.0644C63.4026 35.0939 63.3636 35.1329 63.3339 35.1786C63.3042 35.2243 63.2846 35.2757 63.2761 35.3296C63.2677 35.3833 63.2707 35.4383 63.2852 35.4909C63.3264 35.6016 63.3914 35.7018 63.4755 35.7846C63.5597 35.8674 63.661 35.9307 63.7723 35.9702Z" fill="#4C77BD"/>
<path d="M69.5718 36.0961C69.5718 36.0961 69.6755 35.7143 69.6802 35.6892C69.7195 35.4016 69.6283 34.8187 69.3329 34.6773C69.2836 34.6561 69.2305 34.6454 69.1769 34.646C69.1232 34.6465 69.0704 34.6583 69.0215 34.6804C68.9726 34.7026 68.9291 34.7348 68.8935 34.7749C68.8578 34.8148 68.8308 34.8619 68.8144 34.913C68.7343 35.1298 68.8348 35.3954 68.9527 35.5792C69.0862 35.7897 69.5718 36.0961 69.5718 36.0961Z" fill="#4C77BD"/>
<path d="M71.283 34.0186C70.9578 33.9824 70.5728 34.4287 70.4534 34.6942C70.444 34.7178 70.3246 35.0965 70.3309 35.0965C70.2696 35.1656 70.2052 35.241 70.1345 35.3259C70.0088 35.483 69.8658 35.659 69.7244 35.8617C69.5699 36.0799 69.4279 36.3065 69.2985 36.5404C69.154 36.8024 69.0321 37.0762 68.934 37.3591C68.934 37.3591 68.934 37.3669 68.934 37.3701C68.934 37.2742 68.934 37.0071 68.934 36.9867C68.8963 36.6976 68.6543 36.1602 68.3338 36.1005C68.2801 36.092 68.2251 36.095 68.1726 36.1091C68.1201 36.1234 68.0712 36.1486 68.0291 36.183C67.987 36.2174 67.9526 36.2603 67.9283 36.3088C67.9037 36.3574 67.8899 36.4107 67.8876 36.465C67.8929 36.5825 67.9237 36.6976 67.9779 36.8021C68.0323 36.9065 68.1086 36.998 68.2018 37.0699C68.3857 37.2271 68.8947 37.3842 68.9356 37.4046C68.8435 37.6947 68.7717 37.9909 68.7203 38.2908C68.6889 38.4668 68.6622 38.6428 68.6386 38.8203C68.6386 38.7386 68.6386 38.6632 68.6386 38.6538C68.6009 38.3647 68.3574 37.8273 68.0368 37.7676C67.9831 37.7594 67.9283 37.7626 67.8759 37.7769C67.8235 37.7912 67.7747 37.8163 67.7326 37.8507C67.6905 37.885 67.6563 37.9279 67.6318 37.9762C67.6072 38.0248 67.5933 38.0779 67.5906 38.1321C67.5956 38.2498 67.6264 38.3648 67.6808 38.4693C67.735 38.5738 67.8115 38.6652 67.9048 38.737C68.1236 38.8814 68.363 38.9916 68.6151 39.0639C68.6056 39.133 68.5978 39.2006 68.5883 39.2697C68.5491 39.5965 68.5129 39.9233 68.4658 40.2439C68.4485 40.357 68.4281 40.467 68.4092 40.577C68.4092 40.5047 68.4092 40.4419 68.4092 40.4324C68.3715 40.1433 68.1295 39.6059 67.809 39.5478C67.7553 39.539 67.7004 39.5418 67.6479 39.5558C67.5955 39.5698 67.5466 39.5948 67.5043 39.6292C67.4622 39.6635 67.4278 39.7062 67.4035 39.7547C67.3789 39.8033 67.3651 39.8564 67.3628 39.9108C67.368 40.0283 67.3987 40.1435 67.4531 40.248C67.5073 40.3525 67.5837 40.4437 67.677 40.5157C67.8895 40.6551 68.1221 40.761 68.3668 40.83C68.3432 40.9431 68.3197 41.0562 68.2914 41.1646C68.2709 41.2369 68.2552 41.3092 68.2301 41.3815C68.205 41.4537 68.1845 41.526 68.161 41.5967C68.1123 41.7319 68.062 41.8701 68.0038 42.0005C67.9693 42.0917 67.9331 42.1781 67.8986 42.2645C67.9158 42.1529 67.9457 41.933 67.9473 41.9141C67.9429 41.6575 67.8737 41.4061 67.7461 41.1835C67.7485 41.1552 67.7485 41.1268 67.7461 41.0986C67.7391 41.0449 67.721 40.9934 67.693 40.9472C67.6649 40.9008 67.6275 40.8611 67.5831 40.8301C67.5387 40.7992 67.4883 40.7779 67.4352 40.7676C67.3821 40.7572 67.3274 40.7581 67.2748 40.7702C66.9605 40.8551 66.7594 41.4082 66.7453 41.7004C66.7453 41.7177 66.7547 41.9047 66.7641 42.0147C66.7484 41.9455 66.7327 41.8796 66.7154 41.8088C66.6824 41.669 66.6463 41.5307 66.607 41.3815L66.541 41.1662C66.5206 41.0939 66.4907 41.0201 66.4656 40.9447C66.4027 40.775 66.3305 40.6053 66.255 40.4356C66.51 40.3823 66.7555 40.2901 66.9825 40.1622C67.0803 40.0973 67.1627 40.0116 67.2242 39.9116C67.2855 39.8113 67.3243 39.699 67.3376 39.5824C67.339 39.528 67.3291 39.474 67.3084 39.4238C67.2877 39.3737 67.2564 39.3285 67.2171 39.2911C67.1777 39.2537 67.1307 39.2251 67.0795 39.207C67.0282 39.1889 66.9737 39.182 66.9197 39.1864C66.596 39.2226 66.3132 39.7395 66.255 40.0255C66.255 40.0428 66.2315 40.2517 66.2236 40.368C66.1765 40.2659 66.1309 40.1637 66.0806 40.0632C65.9361 39.7709 65.7805 39.4802 65.625 39.188C65.5778 39.0984 65.5323 39.0089 65.4851 38.9209C65.5291 38.9099 66.0461 38.7905 66.2409 38.6412C66.3383 38.576 66.4205 38.4904 66.4815 38.3903C66.5426 38.2902 66.5811 38.1778 66.5944 38.0614C66.5962 38.0072 66.5864 37.9531 66.5658 37.903C66.5452 37.8527 66.5143 37.8075 66.4749 37.7701C66.4356 37.7327 66.3887 37.7041 66.3377 37.686C66.2865 37.668 66.2321 37.6609 66.178 37.6655C65.8528 37.7 65.5715 38.2185 65.5118 38.5029C65.5118 38.5249 65.4804 38.8266 65.4773 38.9036C65.3751 38.7072 65.2746 38.5092 65.1834 38.3112C65.0615 38.0437 64.9565 37.7687 64.8692 37.4879C64.8896 37.4879 65.4301 37.3606 65.6297 37.2082C65.7271 37.143 65.8093 37.0574 65.8702 36.9573C65.9314 36.8572 65.9699 36.7449 65.9832 36.6284C65.9849 36.5742 65.9752 36.5202 65.9546 36.47C65.934 36.4198 65.9031 36.3745 65.8636 36.3371C65.8244 36.2997 65.7775 36.2711 65.7265 36.2531C65.6752 36.235 65.6209 36.2279 65.5668 36.2325C65.2416 36.267 64.9603 36.7856 64.9006 37.0699C64.9006 37.0888 64.8755 37.3198 64.8692 37.4282H64.8503C64.7691 37.143 64.7133 36.8512 64.6838 36.5561C64.6649 36.399 64.6571 36.2419 64.6524 36.0848C64.9163 36.0601 65.175 35.9949 65.4191 35.8915C65.5236 35.8378 65.6151 35.7619 65.687 35.669C65.7588 35.5762 65.8096 35.4687 65.8355 35.3541C65.8431 35.3004 65.8391 35.2457 65.824 35.1937C65.8091 35.1416 65.7832 35.0933 65.7481 35.052C65.7131 35.0105 65.6697 34.977 65.621 34.9536C65.5722 34.9301 65.5189 34.9172 65.4647 34.9158C65.1379 34.9158 64.8001 35.3981 64.7105 35.6762C64.7105 35.6904 64.6728 35.8491 64.6508 35.9654C64.6508 35.8962 64.6508 35.8255 64.6508 35.7595C64.6508 35.5128 64.6665 35.2881 64.6822 35.087C64.6916 34.9739 64.7026 34.8702 64.7136 34.7728C64.9358 34.6303 65.1346 34.4544 65.3029 34.2511C65.3704 34.155 65.4161 34.0453 65.437 33.9298C65.4579 33.8142 65.4534 33.6954 65.4238 33.5818C65.4058 33.5305 65.3772 33.4839 65.3398 33.4446C65.3025 33.4053 65.2573 33.3742 65.2072 33.3536C65.157 33.333 65.1031 33.3233 65.0489 33.3249C64.9947 33.3266 64.9415 33.3396 64.8928 33.3634C64.6021 33.5126 64.5251 34.0971 64.5785 34.3847C64.5785 34.4098 64.6916 34.7916 64.6979 34.7885C64.6854 34.8812 64.6728 34.9802 64.6618 35.0886C64.6414 35.2882 64.6209 35.5144 64.6146 35.7627C64.6055 36.0299 64.6118 36.2975 64.6335 36.564C64.6596 36.8624 64.7122 37.1579 64.7906 37.447C64.7898 37.4507 64.7898 37.4544 64.7906 37.458C64.7388 37.3763 64.5879 37.1564 64.5738 37.1438C64.3837 36.9223 63.8856 36.6096 63.5839 36.7368C63.5344 36.7592 63.4904 36.7918 63.4544 36.8324C63.4185 36.8731 63.3916 36.9208 63.3754 36.9727C63.3592 37.0244 63.3542 37.0791 63.3606 37.133C63.3671 37.1867 63.3847 37.2387 63.4126 37.2852C63.4811 37.3804 63.5696 37.4596 63.6719 37.5173C63.7743 37.5748 63.8879 37.6092 64.005 37.6183C64.2485 37.6545 64.7608 37.5068 64.8016 37.4942C64.8871 37.7868 64.9921 38.0733 65.1159 38.3521C65.1866 38.5092 65.262 38.6773 65.3406 38.8392C65.2934 38.77 65.251 38.7103 65.2447 38.7025C65.0546 38.4809 64.5549 38.1667 64.2548 38.2955C64.2053 38.3178 64.1613 38.3505 64.1254 38.3911C64.0894 38.4318 64.0625 38.4795 64.0463 38.5314C64.0301 38.5831 64.0251 38.6377 64.0316 38.6916C64.038 38.7454 64.0556 38.7974 64.0836 38.8439C64.1521 38.9391 64.2405 39.0183 64.3428 39.076C64.4453 39.1335 64.5589 39.1679 64.6759 39.177C64.9382 39.1783 65.199 39.1385 65.449 39.0592L65.5417 39.2446C65.6894 39.5384 65.8387 39.8322 65.9753 40.126C66.0241 40.2282 66.0681 40.3319 66.112 40.4403C66.0712 40.379 66.0351 40.3287 66.0288 40.3209C65.8386 40.1009 65.3406 39.7866 65.0389 39.9139C64.9895 39.9367 64.9455 39.9695 64.9099 40.0102C64.8741 40.0511 64.8472 40.099 64.831 40.1509C64.815 40.2027 64.8098 40.2572 64.8161 40.3111C64.8224 40.3652 64.84 40.417 64.8676 40.4639C64.9364 40.5588 65.0251 40.6378 65.1272 40.6953C65.2295 40.7528 65.3431 40.7875 65.46 40.797C65.7151 40.7979 65.9689 40.7597 66.2126 40.6838C66.255 40.7907 66.2975 40.8975 66.3336 40.9981C66.3572 41.0704 66.3839 41.1379 66.4027 41.2133L66.464 41.4302C66.497 41.57 66.5331 41.713 66.5614 41.8497C66.5834 41.9455 66.6007 42.0367 66.6196 42.1278C66.5724 42.0257 66.4766 41.8246 66.4624 41.8136C66.3053 41.5669 65.8622 41.1851 65.5448 41.262C65.4927 41.277 65.4443 41.3027 65.4028 41.3376C65.3613 41.3725 65.3274 41.4157 65.3036 41.4644C65.2798 41.5131 65.2664 41.5662 65.2644 41.6205C65.2623 41.6747 65.2717 41.7286 65.2919 41.779C65.3456 41.8833 65.4213 41.9749 65.5139 42.0474C65.6063 42.1196 65.7134 42.1713 65.8277 42.1985C66.0571 42.2676 66.5646 42.1985 66.629 42.1985C66.6588 42.3556 66.6871 42.4986 66.7107 42.6385C66.7657 42.9449 66.8065 43.2198 66.838 43.4539H65.515V46.1596H68.8979V43.4587H67.589C67.6739 43.2701 67.7666 43.0548 67.864 42.8176C67.9237 42.673 67.985 42.5159 68.0463 42.3556C68.1075 42.3682 68.6103 42.4703 68.8445 42.4169C68.9606 42.3987 69.0713 42.3555 69.1691 42.2901C69.2668 42.2246 69.349 42.1386 69.4101 42.0382C69.4338 41.9895 69.4472 41.9364 69.4492 41.8822C69.4513 41.828 69.4418 41.7741 69.4217 41.7237C69.4016 41.6734 69.3711 41.6278 69.3323 41.59C69.2935 41.5521 69.2472 41.5229 69.1964 41.504C68.8822 41.4003 68.4108 41.7523 68.2411 41.9864C68.2301 42.0005 68.1374 42.1639 68.084 42.2676C68.1075 42.2017 68.1327 42.1372 68.1578 42.0681C68.2065 41.9345 68.2521 41.7978 68.3008 41.6517L68.3668 41.4365C68.3888 41.3642 68.4045 41.2793 68.4249 41.2102C68.4658 41.0326 68.5004 40.852 68.5302 40.6681C68.7725 40.7652 69.0286 40.8241 69.2891 40.8425C69.4062 40.842 69.5218 40.8161 69.628 40.7665C69.7341 40.7168 69.8281 40.6447 69.9035 40.555C69.9347 40.5105 69.9563 40.4601 69.9668 40.4068C69.9773 40.3536 69.9764 40.2987 69.9643 40.2458C69.952 40.1928 69.9289 40.143 69.8963 40.0996C69.8636 40.0563 69.8221 40.0203 69.7746 39.994C69.484 39.8448 68.9639 40.1197 68.7565 40.3256C68.7439 40.3397 68.6119 40.5031 68.5412 40.5943C68.5585 40.4843 68.5773 40.3743 68.5915 40.2627C68.6308 39.9391 68.6622 39.6091 68.6936 39.2807C68.703 39.1801 68.714 39.0811 68.725 38.9806C68.7659 38.9963 69.264 39.1817 69.5107 39.1644C69.6282 39.1638 69.7442 39.1377 69.8505 39.0877C69.9567 39.0378 70.051 38.9653 70.1266 38.8753C70.1579 38.831 70.1794 38.7807 70.1899 38.7275C70.2003 38.6744 70.1993 38.6195 70.1872 38.5667C70.1751 38.5139 70.1519 38.4643 70.1192 38.4211C70.0865 38.3779 70.0452 38.342 69.9978 38.316C69.7071 38.1588 69.187 38.4417 68.9796 38.6475C68.9639 38.6632 68.7753 38.9005 68.7298 38.9617C68.7533 38.7418 68.7785 38.5218 68.8115 38.3065C68.8564 38.0154 68.9192 37.7272 69 37.4439C69.0204 37.4518 69.5374 37.6466 69.7856 37.6293C69.903 37.6284 70.019 37.6021 70.1252 37.5522C70.2316 37.5022 70.3258 37.4299 70.4016 37.3402C70.4325 37.2957 70.4537 37.2453 70.4639 37.1922C70.4742 37.1389 70.4731 37.0842 70.4608 37.0315C70.4485 36.9787 70.4253 36.9292 70.3926 36.886C70.3599 36.8427 70.3186 36.8069 70.2711 36.7808C69.9805 36.6316 69.4604 36.9065 69.253 37.1124C69.2404 37.1265 69.0959 37.3056 69.0283 37.3936L69.0126 37.3842C69.1021 37.1017 69.2168 36.8277 69.3551 36.5656C69.429 36.421 69.5122 36.2859 69.5877 36.1571C69.8218 36.2813 70.0735 36.3698 70.334 36.4195C70.4509 36.4317 70.5691 36.4185 70.6803 36.3805C70.7915 36.3425 70.8932 36.2807 70.9782 36.1995C71.014 36.1588 71.0411 36.111 71.0572 36.0593C71.0734 36.0076 71.0785 35.9529 71.0722 35.8992C71.0657 35.8453 71.048 35.7935 71.0202 35.7468C70.9924 35.7003 70.955 35.6602 70.9106 35.6291C70.6388 35.4484 70.0905 35.6653 69.8626 35.8475C69.8501 35.8569 69.7354 35.9716 69.6521 36.0549C69.6898 35.9984 69.7275 35.9371 69.7636 35.8821C69.9003 35.6762 70.037 35.4971 70.1612 35.3384C70.2319 35.2489 70.2979 35.1687 70.3607 35.0965C70.6267 35.0991 70.8916 35.0616 71.1463 34.9849C71.2559 34.942 71.3547 34.8759 71.4361 34.7908C71.5175 34.706 71.5795 34.6043 71.6177 34.4931C71.6304 34.4397 71.6317 34.3841 71.6215 34.3302C71.6111 34.2761 71.5894 34.225 71.5577 34.1801C71.526 34.1352 71.4851 34.0976 71.4378 34.0696C71.3904 34.0418 71.3376 34.0244 71.283 34.0186ZM67.688 42.7422C67.5702 43.014 67.4586 43.2528 67.3596 43.4587H67.0171C66.9794 43.2167 66.9307 42.9291 66.86 42.607C66.8301 42.4499 66.7955 42.2928 66.7563 42.1199C66.9098 42.0599 67.0594 41.99 67.2041 41.911C67.4006 42.0799 67.6195 42.2211 67.8546 42.3305C67.8027 42.4735 67.7446 42.6118 67.688 42.7422Z" fill="#4C77BD"/>
<path d="M3.20215 47.3179L5.0248 64.7808" stroke="#263238" stroke-width="1.99754" stroke-miterlimit="10"/>
<path d="M4.73078 61.4381L3.9043 60.5645" stroke="#263238" stroke-width="1.99754" stroke-miterlimit="10"/>
<path d="M4.15572 60.8278C4.15368 60.6944 4.12337 60.5628 4.06676 60.4422C4.01015 60.3213 3.92853 60.2139 3.82733 60.127C3.61521 59.9369 2.49963 59.4686 2.39278 59.8614C2.27808 60.2888 3.42038 61.1279 4.15572 60.8278Z" fill="#4C77BD" stroke="#263238" stroke-width="0.998772" stroke-miterlimit="10"/>
<path d="M4.1564 60.8276L3.09424 60.1646" stroke="#263238" stroke-width="0.499386" stroke-miterlimit="10"/>
<path d="M4.93878 63.4254L4.1123 62.5518" stroke="#263238" stroke-width="1.99754" stroke-miterlimit="10"/>
<path d="M4.36324 62.8131C4.3612 62.6797 4.33088 62.5483 4.27426 62.4275C4.21767 62.3067 4.13604 62.1992 4.03484 62.1123C3.82272 61.9222 2.70715 61.454 2.6003 61.8468C2.4856 62.2742 3.6279 63.1132 4.36324 62.8131Z" fill="#4C77BD" stroke="#263238" stroke-width="0.998772" stroke-miterlimit="10"/>
<path d="M4.36344 62.8135L3.30127 62.1504" stroke="#263238" stroke-width="0.499386" stroke-miterlimit="10"/>
<path d="M4.22492 56.5924L3.39844 55.7188" stroke="#263238" stroke-width="1.99754" stroke-miterlimit="10"/>
<path d="M3.65036 55.9818C3.64832 55.8484 3.61799 55.717 3.56138 55.5962C3.50477 55.4753 3.42317 55.3679 3.32197 55.281C3.10985 55.0909 1.99426 54.6211 1.88741 55.0154C1.77271 55.4428 2.91502 56.2819 3.65036 55.9818Z" fill="#4C77BD" stroke="#263238" stroke-width="0.998772" stroke-miterlimit="10"/>
<path d="M3.65006 55.9824L2.58789 55.3193" stroke="#263238" stroke-width="0.499386" stroke-miterlimit="10"/>
<path d="M4.43292 58.5792L3.60645 57.7056" stroke="#263238" stroke-width="1.99754" stroke-miterlimit="10"/>
<path d="M3.85787 57.9676C3.85584 57.8342 3.8255 57.7028 3.76891 57.582C3.71229 57.4612 3.63068 57.3537 3.52948 57.2668C3.31736 57.0767 2.20177 56.6069 2.09493 57.0013C1.98023 57.4287 3.12252 58.2677 3.85787 57.9676Z" fill="#4C77BD" stroke="#263238" stroke-width="0.998772" stroke-miterlimit="10"/>
<path d="M3.85758 57.9673L2.79541 57.3042" stroke="#263238" stroke-width="0.499386" stroke-miterlimit="10"/>
<path d="M3.888 53.3657L3.06152 52.4937" stroke="#263238" stroke-width="1.99754" stroke-miterlimit="10"/>
<path d="M3.31352 52.7552C3.31071 52.6213 3.27941 52.4897 3.2217 52.3688C3.164 52.248 3.08121 52.1408 2.97885 52.0544C2.76673 51.8643 1.65114 51.3945 1.5443 51.7889C1.43588 52.2163 2.57818 53.0553 3.31352 52.7552Z" fill="#4C77BD" stroke="#263238" stroke-width="0.998772" stroke-miterlimit="10"/>
<path d="M3.31411 52.7554L2.25195 52.0923" stroke="#263238" stroke-width="0.499386" stroke-miterlimit="10"/>
<path d="M3.55158 50.1264L2.7251 49.2544" stroke="#263238" stroke-width="1.99754" stroke-miterlimit="10"/>
<path d="M2.98001 49.516C2.97799 49.3826 2.94765 49.2511 2.89103 49.1305C2.83444 49.0096 2.75283 48.9022 2.65162 48.8153C2.4395 48.6251 1.32235 48.1553 1.21708 48.5481C1.09452 48.9771 2.24153 49.8161 2.98001 49.516Z" fill="#4C77BD" stroke="#263238" stroke-width="0.998772" stroke-miterlimit="10"/>
<path d="M2.97622 49.5145L1.91406 48.853" stroke="#263238" stroke-width="0.499386" stroke-miterlimit="10"/>
<path d="M4.59229 60.2632L5.22079 59.2388" stroke="#263238" stroke-width="1.99754" stroke-miterlimit="10"/>
<path d="M5.02989 59.5465C5.00416 59.4155 5.00653 59.2805 5.03687 59.1506C5.06721 59.0205 5.12481 58.8984 5.20587 58.7923C5.37557 58.5645 6.37017 57.8747 6.55401 58.2361C6.75041 58.6383 5.80766 59.6879 5.02989 59.5465Z" fill="#4C77BD" stroke="#263238" stroke-width="0.998772" stroke-miterlimit="10"/>
<path d="M5.02979 59.5473L5.98511 58.6328" stroke="#263238" stroke-width="0.499386" stroke-miterlimit="10"/>
<path d="M4.04736 55.0381L4.67429 54.0137" stroke="#263238" stroke-width="1.99754" stroke-miterlimit="10"/>
<path d="M4.4845 54.3205C4.45874 54.1896 4.46112 54.0544 4.49146 53.9245C4.5218 53.7944 4.5794 53.6723 4.66048 53.5663C4.8286 53.3384 5.82477 52.6486 6.00861 53.01C6.20973 53.4044 5.26541 54.4619 4.4845 54.3205Z" fill="#4C77BD" stroke="#263238" stroke-width="0.998772" stroke-miterlimit="10"/>
<path d="M4.48242 54.3207L5.43931 53.4062" stroke="#263238" stroke-width="0.499386" stroke-miterlimit="10"/>
<path d="M3.80664 52.7403L4.43514 51.7158" stroke="#263238" stroke-width="1.99754" stroke-miterlimit="10"/>
<path d="M4.24418 52.0232C4.21888 51.8924 4.22163 51.7577 4.25224 51.6279C4.28283 51.4981 4.34061 51.3764 4.42173 51.2706C4.58986 51.0412 5.58446 50.3514 5.76987 50.7144C5.9647 51.1088 5.02195 52.1662 4.24418 52.0232Z" fill="#4C77BD" stroke="#263238" stroke-width="0.998772" stroke-miterlimit="10"/>
<path d="M4.24414 52.0238L5.20103 51.1094" stroke="#263238" stroke-width="0.499386" stroke-miterlimit="10"/>
<path d="M3.45557 49.375L4.08407 48.3506" stroke="#263238" stroke-width="1.99754" stroke-miterlimit="10"/>
<path d="M3.89237 48.6581C3.86685 48.5271 3.86947 48.392 3.90008 48.262C3.93069 48.1319 3.98859 48.0098 4.06994 47.9039C4.23806 47.6745 5.23423 46.9847 5.41807 47.3477C5.61919 47.7421 4.67485 48.7995 3.89237 48.6581Z" fill="#4C77BD" stroke="#263238" stroke-width="0.998772" stroke-miterlimit="10"/>
<path d="M3.8916 48.6562L4.84849 47.7417" stroke="#263238" stroke-width="0.499386" stroke-miterlimit="10"/>
<path d="M3.18811 47.2221C3.16236 47.091 3.16473 46.9561 3.19507 46.8261C3.22541 46.696 3.28301 46.5739 3.36409 46.4679C3.53221 46.2385 4.52839 45.5487 4.71222 45.9117C4.91334 46.306 3.96902 47.3635 3.18811 47.2221Z" fill="#4C77BD" stroke="#263238" stroke-width="0.998772" stroke-miterlimit="10"/>
<path d="M3.18652 47.2226L4.14342 46.3081" stroke="#263238" stroke-width="0.499386" stroke-miterlimit="10"/>
<path d="M3.24361 47.2613C3.11032 47.2743 2.97581 47.2587 2.84902 47.2155C2.72222 47.1725 2.60606 47.1029 2.50827 47.0114C2.29772 46.8213 1.72264 45.7544 2.0966 45.613C2.50827 45.448 3.46673 46.4976 3.24361 47.2613Z" fill="#4C77BD" stroke="#263238" stroke-width="0.998772" stroke-miterlimit="10"/>
<path d="M3.24376 47.2614L2.43457 46.2134" stroke="#263238" stroke-width="0.499386" stroke-miterlimit="10"/>
<path d="M8.00892 49.7227L6.19727 67.1855" stroke="#263238" stroke-width="1.99754" stroke-miterlimit="10"/>
<path d="M6.59872 63.8545L5.97021 62.8301" stroke="#263238" stroke-width="1.99754" stroke-miterlimit="10"/>
<path d="M6.16104 63.1385C6.18634 63.0076 6.18359 62.8729 6.15298 62.7432C6.12237 62.6134 6.0646 62.4916 5.98349 62.3859C5.81536 62.1565 4.81919 61.4667 4.63535 61.8296C4.43423 62.224 5.37856 63.2815 6.16104 63.1385Z" fill="#4C77BD" stroke="#263238" stroke-width="0.998772" stroke-miterlimit="10"/>
<path d="M6.16079 63.1387L5.25732 62.2729" stroke="#263238" stroke-width="0.499386" stroke-miterlimit="10"/>
<path d="M7.10116 59.0088L6.47266 57.9844" stroke="#263238" stroke-width="1.99754" stroke-miterlimit="10"/>
<path d="M6.66397 58.2923C6.6895 58.1613 6.68686 58.0261 6.65625 57.8962C6.62565 57.7661 6.56776 57.6442 6.48642 57.5381C6.31829 57.3103 5.32212 56.6205 5.13828 56.9835C4.93716 57.381 5.88149 58.4353 6.66397 58.2923Z" fill="#4C77BD" stroke="#263238" stroke-width="0.998772" stroke-miterlimit="10"/>
<path d="M6.66421 58.2926L5.76074 57.4253" stroke="#263238" stroke-width="0.499386" stroke-miterlimit="10"/>
<path d="M6.89461 60.9956L6.26611 59.9712" stroke="#263238" stroke-width="1.99754" stroke-miterlimit="10"/>
<path d="M6.45842 60.2791C6.48393 60.1481 6.48129 60.0129 6.45069 59.8828C6.42008 59.7529 6.36219 59.6308 6.28087 59.5249C6.11274 59.2971 5.11655 58.6073 4.93272 58.9703C4.7316 59.3647 5.67593 60.4221 6.45842 60.2791Z" fill="#4C77BD" stroke="#263238" stroke-width="0.998772" stroke-miterlimit="10"/>
<path d="M6.45816 60.2785L5.55469 59.4111" stroke="#263238" stroke-width="0.499386" stroke-miterlimit="10"/>
<path d="M7.43563 55.7822L6.80713 54.7593" stroke="#263238" stroke-width="1.99754" stroke-miterlimit="10"/>
<path d="M6.9984 55.0674C7.02394 54.9363 7.0213 54.8012 6.99069 54.6712C6.96008 54.5411 6.9022 54.4191 6.82085 54.3132C6.65273 54.0838 5.65656 53.3955 5.47272 53.7585C5.2716 54.1529 6.21749 55.2088 6.9984 55.0674Z" fill="#4C77BD" stroke="#263238" stroke-width="0.998772" stroke-miterlimit="10"/>
<path d="M6.9982 55.0655L6.09473 54.1997" stroke="#263238" stroke-width="0.499386" stroke-miterlimit="10"/>
<path d="M7.77157 52.5424L7.14307 51.5195" stroke="#263238" stroke-width="1.99754" stroke-miterlimit="10"/>
<path d="M7.33483 51.8255C7.36013 51.6946 7.35738 51.56 7.32677 51.4302C7.29616 51.3004 7.2384 51.1786 7.15729 51.0729C6.98917 50.8435 5.99298 50.1537 5.80915 50.5166C5.60802 50.9126 6.55392 51.9685 7.33483 51.8255Z" fill="#4C77BD" stroke="#263238" stroke-width="0.998772" stroke-miterlimit="10"/>
<path d="M7.33462 51.8252L6.43115 50.9595" stroke="#263238" stroke-width="0.499386" stroke-miterlimit="10"/>
<path d="M6.70459 62.6768L7.5295 61.8032" stroke="#263238" stroke-width="1.99754" stroke-miterlimit="10"/>
<path d="M7.27832 62.0649C7.28036 61.9315 7.31069 61.8001 7.3673 61.6793C7.42391 61.5585 7.50551 61.451 7.60671 61.3641C7.81883 61.174 8.93443 60.7042 9.04128 61.097C9.15598 61.5244 8.01524 62.365 7.27832 62.0649Z" fill="#4C77BD" stroke="#263238" stroke-width="0.998772" stroke-miterlimit="10"/>
<path d="M7.27832 62.0663L8.40334 61.3687" stroke="#263238" stroke-width="0.499386" stroke-miterlimit="10"/>
<path d="M7.24707 57.4508L8.07198 56.5771" stroke="#263238" stroke-width="1.99754" stroke-miterlimit="10"/>
<path d="M7.82178 56.8393C7.82289 56.7057 7.85281 56.5741 7.90948 56.4531C7.96616 56.3322 8.04824 56.2249 8.15015 56.1385C8.3607 55.9484 9.47788 55.4786 9.58315 55.8714C9.69942 56.2988 8.55712 57.1394 7.82178 56.8393Z" fill="#4C77BD" stroke="#263238" stroke-width="0.998772" stroke-miterlimit="10"/>
<path d="M7.82031 56.8402L8.94533 56.1426" stroke="#263238" stroke-width="0.499386" stroke-miterlimit="10"/>
<path d="M7.48438 55.1534L8.31085 54.2798" stroke="#263238" stroke-width="1.99754" stroke-miterlimit="10"/>
<path d="M8.05908 54.5429C8.06112 54.4095 8.09143 54.2781 8.14805 54.1573C8.20466 54.0365 8.28627 53.929 8.38747 53.8421C8.59959 53.652 9.71518 53.1822 9.82203 53.575C9.93673 54.0024 8.79286 54.843 8.05908 54.5429Z" fill="#4C77BD" stroke="#263238" stroke-width="0.998772" stroke-miterlimit="10"/>
<path d="M8.05908 54.5419L9.1841 53.8442" stroke="#263238" stroke-width="0.499386" stroke-miterlimit="10"/>
<path d="M7.83496 51.7856L8.65987 50.9136" stroke="#263238" stroke-width="1.99754" stroke-miterlimit="10"/>
<path d="M8.40967 51.1747C8.41089 51.0412 8.44086 50.9095 8.49752 50.7885C8.55419 50.6677 8.63623 50.5604 8.73806 50.474C8.95018 50.2838 10.0658 49.814 10.171 50.2068C10.2873 50.6342 9.14501 51.4748 8.40967 51.1747Z" fill="#4C77BD" stroke="#263238" stroke-width="0.998772" stroke-miterlimit="10"/>
<path d="M8.40967 51.1752L9.53311 50.4775" stroke="#263238" stroke-width="0.499386" stroke-miterlimit="10"/>
<path d="M8.01465 49.6244C8.01587 49.491 8.04584 49.3591 8.1025 49.2383C8.15916 49.1173 8.24121 49.01 8.34304 48.9236C8.55359 48.735 9.67075 48.2652 9.77602 48.658C9.89229 49.0854 8.74999 49.9245 8.01465 49.6244Z" fill="#4C77BD" stroke="#263238" stroke-width="0.998772" stroke-miterlimit="10"/>
<path d="M8.01367 49.6244L9.13869 48.9268" stroke="#263238" stroke-width="0.499386" stroke-miterlimit="10"/>
<path d="M8.06102 49.6822C7.92839 49.667 7.80057 49.6236 7.68618 49.5547C7.5718 49.4858 7.4735 49.3933 7.39795 49.2831C7.2314 49.0522 6.88101 47.8926 7.28325 47.8282C7.72006 47.7512 8.43655 48.9752 8.06102 49.6822Z" fill="#4C77BD" stroke="#263238" stroke-width="0.998772" stroke-miterlimit="10"/>
<path d="M8.06102 49.6744L7.48438 48.4834" stroke="#263238" stroke-width="0.499386" stroke-miterlimit="10"/>
<path d="M5.93311 42.6113V64.6953" stroke="#263238" stroke-width="1.99754" stroke-miterlimit="10"/>
<path d="M5.94987 61.3742L5.21924 60.4204" stroke="#263238" stroke-width="1.99754" stroke-miterlimit="10"/>
<path d="M5.44199 60.7075C5.4545 60.5742 5.43825 60.4401 5.39433 60.3137C5.35042 60.1874 5.27985 60.0719 5.18745 59.9753C4.99733 59.7647 3.93045 59.1897 3.78903 59.562C3.63034 59.9753 4.67993 60.929 5.44199 60.7075Z" fill="#4C77BD" stroke="#263238" stroke-width="0.998772" stroke-miterlimit="10"/>
<path d="M5.44144 60.7068L4.45312 59.9385" stroke="#263238" stroke-width="0.499386" stroke-miterlimit="10"/>
<path d="M5.94987 57.2243L5.21924 56.2705" stroke="#263238" stroke-width="1.99754" stroke-miterlimit="10"/>
<path d="M5.44199 56.5563C5.45448 56.4234 5.4382 56.2894 5.39429 56.1634C5.35037 56.0372 5.27982 55.922 5.18745 55.8257C4.99733 55.6151 3.93045 55.0322 3.78903 55.4125C3.63034 55.8257 4.67993 56.7794 5.44199 56.5563Z" fill="#4C77BD" stroke="#263238" stroke-width="0.998772" stroke-miterlimit="10"/>
<path d="M5.44144 56.5564L4.45312 55.7881" stroke="#263238" stroke-width="0.499386" stroke-miterlimit="10"/>
<path d="M5.94987 52.3522L5.21924 51.3984" stroke="#263238" stroke-width="1.99754" stroke-miterlimit="10"/>
<path d="M5.44199 51.6838C5.45448 51.5508 5.4382 51.4168 5.39429 51.2908C5.35037 51.1646 5.27982 51.0496 5.18745 50.9531C4.99733 50.7426 3.93045 50.1597 3.78903 50.5399C3.63034 50.9531 4.67993 51.9069 5.44199 51.6838Z" fill="#4C77BD" stroke="#263238" stroke-width="0.998772" stroke-miterlimit="10"/>
<path d="M5.44144 51.6844L4.45312 50.916" stroke="#263238" stroke-width="0.499386" stroke-miterlimit="10"/>
<path d="M5.94987 49.1085L5.21924 48.1548" stroke="#263238" stroke-width="1.99754" stroke-miterlimit="10"/>
<path d="M5.44199 48.4411C5.45448 48.3082 5.4382 48.1741 5.39429 48.0481C5.35037 47.9219 5.27982 47.8068 5.18745 47.7105C4.99733 47.4999 3.93045 46.917 3.78903 47.2972C3.63034 47.7105 4.67993 48.6642 5.44199 48.4411Z" fill="#4C77BD" stroke="#263238" stroke-width="0.998772" stroke-miterlimit="10"/>
<path d="M5.44144 48.4417L4.45312 47.6733" stroke="#263238" stroke-width="0.499386" stroke-miterlimit="10"/>
<path d="M5.94987 45.8512L5.21924 44.8975" stroke="#263238" stroke-width="1.99754" stroke-miterlimit="10"/>
<path d="M5.44199 45.1833C5.45448 45.0503 5.4382 44.9163 5.39429 44.7903C5.35037 44.6641 5.27982 44.549 5.18745 44.4526C4.99733 44.2421 3.93045 43.6592 3.78903 44.0394C3.63034 44.4526 4.67993 45.4064 5.44199 45.1833Z" fill="#4C77BD" stroke="#263238" stroke-width="0.998772" stroke-miterlimit="10"/>
<path d="M5.44144 45.1835L4.45312 44.4136" stroke="#263238" stroke-width="0.499386" stroke-miterlimit="10"/>
<path d="M5.93457 62.6417L6.6652 61.688" stroke="#263238" stroke-width="1.99754" stroke-miterlimit="10"/>
<path d="M6.43672 61.9738C6.42505 61.841 6.4417 61.7072 6.48557 61.5811C6.52946 61.4553 6.59957 61.3401 6.69127 61.2432C6.88296 61.0326 7.94827 60.4497 8.08968 60.8299C8.25623 61.2432 7.20664 62.1969 6.43672 61.9738Z" fill="#4C77BD" stroke="#263238" stroke-width="0.998772" stroke-miterlimit="10"/>
<path d="M6.44238 61.9748L7.48884 61.1641" stroke="#263238" stroke-width="0.499386" stroke-miterlimit="10"/>
<path d="M5.93457 56.0421L6.6652 55.0884" stroke="#263238" stroke-width="1.99754" stroke-miterlimit="10"/>
<path d="M6.43672 55.3732C6.42505 55.2404 6.4417 55.1066 6.48557 54.9806C6.52946 54.8547 6.59957 54.7395 6.69127 54.6426C6.88296 54.432 7.94827 53.8491 8.08968 54.2293C8.25623 54.6426 7.20664 55.5963 6.43672 55.3732Z" fill="#4C77BD" stroke="#263238" stroke-width="0.998772" stroke-miterlimit="10"/>
<path d="M6.44238 55.3741L7.48884 54.5649" stroke="#263238" stroke-width="0.499386" stroke-miterlimit="10"/>
<path d="M5.93457 52.7838L6.6652 51.8301" stroke="#263238" stroke-width="1.99754" stroke-miterlimit="10"/>
<path d="M6.43672 52.1169C6.42505 51.9841 6.4417 51.8502 6.48557 51.7242C6.52946 51.5984 6.59957 51.4832 6.69127 51.3862C6.88296 51.1757 7.94827 50.5928 8.08968 50.973C8.25623 51.3862 7.20664 52.34 6.43672 52.1169Z" fill="#4C77BD" stroke="#263238" stroke-width="0.998772" stroke-miterlimit="10"/>
<path d="M6.44238 52.1159L7.48884 51.3052" stroke="#263238" stroke-width="0.499386" stroke-miterlimit="10"/>
<path d="M5.93457 48.4771L6.6652 47.5249" stroke="#263238" stroke-width="1.99754" stroke-miterlimit="10"/>
<path d="M6.43685 47.8108C6.42495 47.6777 6.4415 47.5435 6.48538 47.4174C6.52927 47.291 6.59949 47.1757 6.69139 47.0786C6.88308 46.8696 7.94841 46.293 8.08982 46.6654C8.25637 47.0786 7.20676 48.0323 6.43685 47.8108Z" fill="#4C77BD" stroke="#263238" stroke-width="0.998772" stroke-miterlimit="10"/>
<path d="M6.44238 47.8103L7.48884 46.9995" stroke="#263238" stroke-width="0.499386" stroke-miterlimit="10"/>
<path d="M5.93457 45.0929L6.6652 44.1392" stroke="#263238" stroke-width="1.99754" stroke-miterlimit="10"/>
<path d="M6.43672 44.4247C6.42505 44.2919 6.4417 44.158 6.48557 44.032C6.52946 43.9062 6.59957 43.791 6.69127 43.694C6.88296 43.4835 7.94827 42.9084 8.08968 43.2808C8.25623 43.694 7.20664 44.6541 6.43672 44.4247Z" fill="#4C77BD" stroke="#263238" stroke-width="0.998772" stroke-miterlimit="10"/>
<path d="M6.44238 44.4249L7.48884 43.6157" stroke="#263238" stroke-width="0.499386" stroke-miterlimit="10"/>
<path d="M5.8908 42.9264C5.87831 42.7935 5.89458 42.6595 5.9385 42.5335C5.98242 42.4075 6.05297 42.2923 6.14534 42.1958C6.33546 41.9853 7.40234 41.4023 7.54375 41.7826C7.70245 42.1942 6.65285 43.1464 5.8908 42.9264Z" fill="#4C77BD" stroke="#263238" stroke-width="0.998772" stroke-miterlimit="10"/>
<path d="M5.89014 42.9245L6.93659 42.1138" stroke="#263238" stroke-width="0.499386" stroke-miterlimit="10"/>
<path d="M5.94189 42.9682C5.80866 42.9667 5.67732 42.9365 5.55673 42.8798C5.43612 42.8232 5.32904 42.7413 5.2427 42.6398C5.05258 42.4277 4.58435 41.3106 4.97716 41.2053C5.40611 41.0906 6.24357 42.2329 5.94189 42.9682Z" fill="#4C77BD" stroke="#263238" stroke-width="0.998772" stroke-miterlimit="10"/>
<path d="M5.94021 42.9688L5.24414 41.8438" stroke="#263238" stroke-width="0.499386" stroke-miterlimit="10"/>
<path d="M6.84132 70.4234H4.5033L4.20947 64.5171H7.13357L6.84132 70.4234Z" fill="#263238" stroke="#263238" stroke-width="0.998772" stroke-miterlimit="10"/>
<path d="M16.8109 25.1994H2.76074V2.83105H20.1561V25.1994H17.7253" stroke="#263238" stroke-width="0.998772" stroke-miterlimit="10"/>
<path d="M19.5262 3.64111H3.39258V24.3863H19.5262V3.64111Z" stroke="#263238" stroke-width="0.998772" stroke-miterlimit="10"/>
<path d="M6.62451 9.32471C6.91067 9.58883 7.21635 9.83098 7.53898 10.0491C11.1874 12.5253 17.3781 11.3516 19.4648 14.8712" stroke="#263238" stroke-width="0.998772" stroke-miterlimit="10"/>
<path d="M4.47501 3.72754C4.38856 4.65429 4.49452 5.58894 4.78626 6.47281C5.07801 7.35669 5.54924 8.17076 6.17039 8.86396" stroke="#263238" stroke-width="0.998772" stroke-miterlimit="10"/>
<path d="M5.85791 15.1563C7.63814 14.2135 9.94316 13.5489 11.1232 15.4579C12.4917 17.6734 6.17059 21.5859 6.17059 24.3858" stroke="#263238" stroke-width="0.998772" stroke-miterlimit="10"/>
<path d="M3.43359 16.7616C4.04346 16.2696 4.6895 15.8242 5.36623 15.4292" stroke="#263238" stroke-width="0.998772" stroke-miterlimit="10"/>
<path d="M11.8394 3.72754C11.8394 3.72754 14.1852 7.37598 19.5291 6.39867" stroke="#263238" stroke-width="0.998772" stroke-miterlimit="10"/>
<path d="M12.5403 7.31164C12.5537 7.39799 12.5616 7.48512 12.5639 7.57247C12.5631 8.09695 12.3704 8.60302 12.0222 8.99525C11.6741 9.38746 11.1944 9.63874 10.6737 9.70167C10.153 9.7646 9.62727 9.63484 9.19566 9.33687C8.76406 9.03888 8.45639 8.59329 8.33067 8.0841C8.20497 7.5749 8.26991 7.03731 8.51327 6.57269C8.75661 6.10809 9.16155 5.74859 9.6517 5.56196C10.1419 5.37534 10.6834 5.37451 11.1741 5.55963C11.6648 5.74474 12.0708 6.10302 12.3156 6.56686" stroke="#263238" stroke-width="0.998772" stroke-miterlimit="10"/>
<path d="M17.9059 10.4711C17.9062 10.671 17.8473 10.8665 17.7363 11.0329C17.6256 11.1992 17.4678 11.329 17.2833 11.4057C17.0987 11.4824 16.8956 11.5026 16.6995 11.4638C16.5033 11.425 16.3232 11.3289 16.1817 11.1877C16.0403 11.0464 15.9439 10.8664 15.9048 10.6704C15.8657 10.4744 15.8856 10.2712 15.962 10.0865C16.0384 9.90174 16.1679 9.74386 16.3341 9.63279C16.5003 9.5217 16.6957 9.4624 16.8956 9.4624C17.1633 9.4624 17.42 9.56864 17.6094 9.75777C17.7989 9.9469 17.9054 10.2035 17.9059 10.4711Z" stroke="#263238" stroke-width="0.998772" stroke-miterlimit="10"/>
<path d="M17.9141 17.2856C18.4827 17.4348 19.0133 17.7025 19.4712 18.0713" stroke="#263238" stroke-width="0.998772" stroke-miterlimit="10"/>
<path d="M14.0422 24.3996C13.4238 23.8319 12.9912 23.0906 12.8009 22.2729C12.6106 21.4552 12.6716 20.5992 12.9758 19.8167C13.28 19.0343 13.8134 18.3618 14.506 17.8874C15.1987 17.4129 16.0184 17.1587 16.8579 17.1577C16.9381 17.1577 17.015 17.1577 17.0983 17.1577" stroke="#263238" stroke-width="0.998772" stroke-miterlimit="10"/>
<path d="M49.3232 70.4233H74.3061" stroke="#263238" stroke-width="0.998772" stroke-miterlimit="10"/>
<path d="M1.24316 70.4233H48.0664" stroke="#263238" stroke-width="0.998772" stroke-miterlimit="10"/>
<path d="M60.8761 4.19434H29.1636V62.9418H60.8761V4.19434Z" fill="white"/>
<path d="M60.8761 52.9224H29.1636V62.9407H60.8761V52.9224Z" fill="#CCCCCC"/>
<path d="M61.8293 15.7532C61.933 15.7532 62.0326 15.712 62.106 15.6386C62.1794 15.5652 62.2205 15.4657 62.2205 15.3619V11.4448C62.2207 11.3933 62.2108 11.3423 62.1911 11.2946C62.1716 11.247 62.1429 11.2036 62.1064 11.1671C62.0701 11.1307 62.0269 11.1017 61.9793 11.0819C61.9317 11.0622 61.8808 11.052 61.8293 11.052C61.8045 11.0522 61.7798 11.0548 61.7554 11.0599V3.73311C61.7556 3.40139 61.6905 3.07289 61.5637 2.76636C61.4369 2.45982 61.2509 2.18128 61.0165 1.94666C60.7819 1.71202 60.5035 1.52589 60.1971 1.3989C59.8907 1.27191 59.5621 1.20654 59.2304 1.20654H31.3957C30.7256 1.20654 30.0829 1.47273 29.6092 1.94656C29.1353 2.42038 28.8691 3.06302 28.8691 3.73311V62.8577C28.8691 63.5278 29.1353 64.1705 29.6092 64.6442C30.0829 65.1181 30.7256 65.3843 31.3957 65.3843H59.2304C59.5621 65.3843 59.8907 65.3189 60.1971 65.192C60.5035 65.065 60.7819 64.8788 61.0165 64.6442C61.2509 64.4095 61.4369 64.1311 61.5637 63.8245C61.6905 63.5179 61.7556 63.1894 61.7554 62.8577V26.8886C61.7799 26.891 61.8048 26.891 61.8293 26.8886C61.8807 26.8888 61.9317 26.8789 61.9792 26.8592C62.0268 26.8398 62.07 26.8109 62.1064 26.7746C62.1427 26.7381 62.1715 26.6949 62.1911 26.6474C62.2108 26.5998 62.2207 26.5488 62.2205 26.4974V22.5865C62.2207 22.5352 62.2108 22.4841 62.1911 22.4366C62.1715 22.389 62.1427 22.3458 62.1064 22.3094C62.07 22.2731 62.0268 22.2443 61.9792 22.2247C61.9317 22.205 61.8807 22.1951 61.8293 22.1953C61.8048 22.1929 61.7799 22.1929 61.7554 22.1953V21.3107C61.7799 21.313 61.8048 21.313 61.8293 21.3107C61.9306 21.3096 62.0276 21.269 62.0995 21.1979C62.1717 21.1265 62.2133 21.0302 62.2158 20.9289V17.0149C62.2158 16.9112 62.1746 16.8116 62.1013 16.7382C62.0279 16.6648 61.9283 16.6236 61.8246 16.6236C61.8001 16.6213 61.7752 16.6213 61.7507 16.6236V15.7438C61.7765 15.7496 61.8029 15.7528 61.8293 15.7532ZM60.2926 61.574H30.332V5.56519H60.2926V61.574Z" fill="#1B3A6C"/>
<path d="M59.2742 6.146H56.79V7.50827H59.2742V6.146Z" stroke="#1B3A6C" stroke-width="0.818993" stroke-linecap="round" stroke-linejoin="round"/>
<path d="M58.7274 6.146H56.79V7.50827H58.7274V6.146Z" fill="#1B3A6C" stroke="#1B3A6C" stroke-width="0.729103" stroke-linecap="round" stroke-linejoin="round"/>
<path d="M59.6189 6.52637H59.2686V7.12659H59.6189V6.52637Z" fill="#1B3A6C" stroke="#1B3A6C" stroke-width="0.729103" stroke-linecap="round" stroke-linejoin="round"/>
<path d="M31.463 6.56885H31.0073V7.34976H31.463V6.56885Z" fill="#1B3A6C" stroke="#1B3A6C" stroke-width="0.878919" stroke-linecap="round" stroke-linejoin="round"/>
<path d="M32.1778 6.29395H31.7222V7.34825H32.1778V6.29395Z" fill="#1B3A6C" stroke="#1B3A6C" stroke-width="0.878919" stroke-linecap="round" stroke-linejoin="round"/>
<path d="M32.8941 5.9707H32.4385V7.35026H32.8941V5.9707Z" fill="#1B3A6C" stroke="#1B3A6C" stroke-width="0.878919" stroke-linecap="round" stroke-linejoin="round"/>
<path d="M59.5871 8.26514H30.8159V15.826H59.5871V8.26514Z" fill="#6D8BBC"/>
<path d="M38.0854 9.35498V14.9062" stroke="white" stroke-width="0.998772" stroke-miterlimit="10"/>
<path d="M45.4189 9.35498V14.9062" stroke="white" stroke-width="0.998772" stroke-miterlimit="10"/>
<path d="M52.7505 9.35498V14.9062" stroke="white" stroke-width="0.998772" stroke-miterlimit="10"/>
<path opacity="0.15" d="M61.4959 26.8886C61.5204 26.891 61.5453 26.891 61.5698 26.8886C61.6212 26.8888 61.6722 26.8789 61.7197 26.8592C61.7673 26.8396 61.8105 26.8108 61.8469 26.7745C61.8832 26.7381 61.912 26.6949 61.9316 26.6473C61.9513 26.5998 61.9612 26.5487 61.961 26.4974V25.0942L60.0331 28.4929V61.5677H41.2771L39.1182 65.3843H58.9709C59.6407 65.3838 60.2829 65.1175 60.7565 64.6437C61.2299 64.1698 61.4959 63.5275 61.4959 62.8577V26.8886Z" fill="white"/>
<path d="M44.0964 41.8941V40.0981H44.9905V39.1962H44.0964C44.0964 38.8961 44.0964 38.5944 44.0964 38.2943H45.9034V37.3971H46.8021V38.2896H47.7024V36.4842H50.405V37.3814H51.299V36.4842H50.4034V35.5792H48.5965V33.7911H45.8939V34.6899H44.0996V36.4921H44.992V37.3909H44.0964V38.2912H43.204V37.3893H40.4951V36.4842H43.1914V29.2832H44.0964C44.0964 30.1505 44.0964 31.0179 44.0964 31.8852V31.981H44.9968V30.1898H45.8955V31.9889H46.8005V32.8892H51.3038V33.788H52.2057V34.693H51.3116V35.5965H52.2057V37.4003H53.1028V39.1868H52.2072V40.9937H53.1028V41.8925H54.9019V42.7928H52.2041V44.5919H51.3053V43.6931H49.5V42.796H48.6012V41.8972H50.394V40.9969H45.9002V41.8925H44.0964V41.8941ZM49.5 39.1915V38.2943H48.6043V39.1899H49.5015V40.0871H51.2959V39.1915H49.5ZM47.6946 39.1915H46.8037V40.0824H47.6946V39.1915ZM49.5031 34.6757H50.3956V33.7848H49.5031V34.6757Z" fill="#1B3A6C"/>
<path d="M35.9897 31.9772V25.6812H42.2873V31.9772H35.9897ZM36.8932 26.5846V31.08H41.3886V26.5846H36.8932Z" fill="#1B3A6C"/>
<path d="M54.8996 31.9807H48.6021V25.6831H54.8996V31.9807ZM54.0009 26.585H49.5055V31.0788H54.0009V26.585Z" fill="#1B3A6C"/>
<path d="M35.9932 38.293H42.2892V44.5905H35.9932V38.293ZM41.3888 39.1964H36.8935V43.6918H41.3888V39.1964Z" fill="#1B3A6C"/>
<path d="M44.0956 29.2828V27.4806H43.2031V25.6831H47.6985V27.4775H46.8091V28.3794H47.7V30.1769H46.8044V29.2828H45.9041V28.3841H45.0054V29.2797H44.0987L44.0956 29.2828ZM44.9991 27.4743H45.89V26.585H44.9991V27.4743Z" fill="#1B3A6C"/>
<path d="M40.4901 33.7847V34.685H42.2892V35.5838H39.5898V37.3844H35.9932V35.5916H36.8856V36.4841H38.691V33.7847H40.4901Z" fill="#1B3A6C"/>
<path d="M44.094 41.8921V42.7924H44.9928V43.6912H45.8915V44.5915H43.2031V41.8937H44.0972L44.094 41.8921Z" fill="#1B3A6C"/>
<path d="M38.691 33.7842H36.8903V34.6814H35.9932V32.8901H38.6894V33.7857L38.691 33.7842Z" fill="#1B3A6C"/>
<path d="M54.8996 35.5839H54.0055V33.7879H53.1021V32.8892H54.8948L54.8996 35.5839Z" fill="#1B3A6C"/>
<path d="M40.4917 33.7857V32.8901H42.2876V33.7842H40.4917V33.7857Z" fill="#1B3A6C"/>
<path d="M53.1021 37.3903V36.4932H53.9977V37.3872H53.1021V37.3903Z" fill="#1B3A6C"/>
<path d="M54.0073 38.293H54.8998V39.1854H54.0073V38.293Z" fill="#1B3A6C"/>
<path d="M46.7981 31.9851V31.0879H47.6921V31.9819H46.7949L46.7981 31.9851Z" fill="#1B3A6C"/>
<path d="M44.0956 40.098H43.2031V39.1992H44.0987V40.098H44.0956Z" fill="#1B3A6C"/>
<path d="M53.1021 40.9933V40.0977H53.9977V40.9933H53.1021Z" fill="#1B3A6C"/>
<path d="M52.2002 34.6858H53.1021V35.5861H52.208V34.6826L52.2002 34.6858Z" fill="#1B3A6C"/>
<path d="M47.6927 43.6912H46.8018V42.8003H47.6927V43.6912Z" fill="#1B3A6C"/>
<path d="M49.4991 43.6929V44.5901H48.6035V43.696H49.5007L49.4991 43.6929Z" fill="#1B3A6C"/>
<path d="M54.8998 44.5916H54.0073V43.7007H54.8998V44.5916Z" fill="#1B3A6C"/>
<path d="M47.6988 36.4835H46.8032V35.5879H47.6973V36.4835H47.6988Z" fill="#1B3A6C"/>
<path d="M40.4851 30.178H37.792V27.4849H40.4851V30.178Z" fill="#1B3A6C"/>
<path d="M50.4043 30.177V27.4839H53.1021V30.177H50.4043Z" fill="#1B3A6C"/>
<path d="M37.792 42.7876V40.0977H40.4851V42.7908L37.792 42.7876Z" fill="#1B3A6C"/>
<path d="M38.6058 23.5479H34.6636V27.8971" stroke="#6D8BBC" stroke-width="1.99754" stroke-miterlimit="10"/>
<path d="M52.9482 23.5479H56.8905V27.8971" stroke="#6D8BBC" stroke-width="1.99754" stroke-miterlimit="10"/>
<path d="M38.6058 46.4602H34.6636V42.1094" stroke="#6D8BBC" stroke-width="1.99754" stroke-miterlimit="10"/>
<path d="M52.9482 46.4602H56.8905V42.1094" stroke="#6D8BBC" stroke-width="1.99754" stroke-miterlimit="10"/>
<path d="M26.6058 24.4897H25.297C25.0652 24.4897 24.8774 24.6777 24.8774 24.9093V28.575C24.8774 28.8068 25.0652 28.9945 25.297 28.9945H26.6058C26.8376 28.9945 27.0253 28.8068 27.0253 28.575V24.9093C27.0253 24.6777 26.8376 24.4897 26.6058 24.4897Z" fill="#263238" stroke="#263238" stroke-width="0.998772" stroke-miterlimit="10"/>
<path d="M26.835 24.8877H25.0674V28.5958H26.835V24.8877Z" fill="white" stroke="#263238" stroke-width="0.998772" stroke-miterlimit="10"/>
<path d="M7.79102 46.5669C8.4206 46.5629 9.03659 46.3833 9.56967 46.0483C9.5351 47.0508 9.50839 47.8097 9.50839 47.8097C9.50839 47.8097 9.68123 48.113 9.76765 48.2418C9.85407 48.3707 10.5894 48.8043 10.6758 49.1846C10.7623 49.5648 11.1472 49.7895 11.1079 50.352C11.0686 50.9145 10.5894 50.308 10.6758 50.4384C10.7623 50.5688 11.0215 50.9994 11.0215 51.3812C11.0215 51.763 10.1998 51.7693 9.89808 51.51C9.5964 51.2508 8.60178 50.6458 8.51536 50.0849L8.17913 48.8279L7.79102 46.5669Z" fill="white" stroke="#263238" stroke-width="0.998772" stroke-miterlimit="10"/>
<path d="M9.57861 49.6821L9.78759 50.6249C9.78759 50.6249 10.4679 51.1481 10.5214 51.5142" fill="white"/>
<path d="M9.57861 49.6821L9.78759 50.6249C9.78759 50.6249 10.4679 51.1481 10.5214 51.5142" stroke="#263238" stroke-width="0.998772" stroke-miterlimit="10"/>
<path d="M10.676 50.4459L10.3696 49.8394" stroke="#263238" stroke-width="0.998772" stroke-miterlimit="10"/>
<path d="M12.9788 69.6009C12.9788 69.6009 12.7337 71.6231 12.9238 71.8682C13.0313 72.0251 13.1689 72.1592 13.3286 72.2624C13.4882 72.3658 13.6668 72.4363 13.854 72.47C14.2908 72.5249 15.0277 72.2783 15.0277 72.2783C15.5261 72.412 16.0439 72.4582 16.5581 72.415C17.3437 72.3333 17.8701 72.0331 17.9235 71.6498C17.9769 71.2664 17.295 71.1045 16.9132 70.6944C16.5314 70.2843 15.9218 69.5584 15.9218 69.5584L15.7647 69.0273C15.7647 69.0273 14.836 69.4987 14.2343 69.5191C13.8953 69.5386 13.5553 69.5111 13.2239 69.4374L12.9788 69.6009Z" fill="white" stroke="#263238" stroke-width="0.998772" stroke-miterlimit="10"/>
<path d="M17.9236 71.6505C17.9281 71.6073 17.9222 71.5638 17.9063 71.5232C17.724 71.5987 17.4931 71.6898 17.2071 71.7935C16.3885 72.0936 15.9784 71.8485 15.5683 71.8485C15.1582 71.8485 15.1315 72.2853 13.9845 71.9852C13.2334 71.7888 12.9522 71.5342 12.8453 71.3818C12.8309 71.5496 12.8556 71.7186 12.9176 71.8752C13.0251 72.0322 13.1626 72.1662 13.3223 72.2694C13.482 72.3728 13.6606 72.4434 13.8478 72.477C14.2846 72.532 15.0215 72.2853 15.0215 72.2853C15.5199 72.419 16.0377 72.4652 16.5519 72.422C17.3501 72.334 17.8702 72.0339 17.9236 71.6505Z" fill="white" stroke="#263238" stroke-width="0.998772" stroke-miterlimit="10"/>
<path d="M11.5223 44.4973C11.5223 44.4973 10.4224 48.1898 10.8152 50.7823C11.208 53.3749 13.0935 58.2458 13.0935 58.2458C13.0935 58.2458 12.8579 60.0527 12.8579 60.6812C12.8579 61.3097 12.3079 62.4882 12.7007 63.7452C13.0935 65.0022 13.0935 68.3018 13.0935 68.5375C13.0935 68.7732 12.9364 70.0302 12.9364 70.0302C12.9364 70.0302 13.2507 70.5015 14.4291 70.5015C15.6076 70.5015 15.9218 69.5588 15.9218 69.5588C15.9218 69.5588 17.1002 62.5667 17.1002 61.4668C17.1002 60.367 18.3572 56.2817 18.8286 54.6319C19.1442 53.4956 19.6015 52.4034 20.1893 51.381C20.5035 50.831 20.3213 44.1831 20.3213 44.1831L11.3652 43.3975L11.5223 44.4973Z" fill="#2F2E41" stroke="#263238" stroke-width="0.998772" stroke-miterlimit="10"/>
<path d="M17.7051 70.1211C17.7051 70.1211 18.8804 70.5846 19.4539 70.858C20.0274 71.1314 20.4108 71.1581 20.4108 71.5965C20.4108 72.0349 19.3722 72.4701 18.7437 72.5785C18.1152 72.6869 17.1049 72.6618 16.9949 72.6885C16.8849 72.7152 14.8376 73.0169 14.5909 72.4968C14.3442 71.9767 14.6176 70.2028 14.6176 70.2028C15.6422 70.3777 16.6912 70.35 17.7051 70.1211Z" fill="white" stroke="#263238" stroke-width="0.998772" stroke-miterlimit="10"/>
<path d="M16.9948 72.6894C17.1048 72.6627 18.1151 72.6894 18.7436 72.5795C19.3721 72.4695 20.4107 72.0342 20.4107 71.5974C20.4116 71.5398 20.4027 71.4824 20.384 71.4277C20.1192 71.5825 19.8453 71.7211 19.5638 71.8425C18.7986 72.1709 17.7867 72.3893 16.2641 72.3611C15.673 72.3614 15.0842 72.2859 14.5122 72.1364C14.5208 72.2607 14.5494 72.3827 14.597 72.4978C14.8374 73.0178 16.8864 72.7162 16.9948 72.6894Z" fill="white" stroke="#263238" stroke-width="0.998772" stroke-miterlimit="10"/>
<path d="M20.3998 44.811C20.3998 44.811 20.8712 51.1746 19.9285 55.9669C18.9857 60.7592 17.4145 67.2799 17.3359 67.5942C17.2573 67.9084 17.8858 68.7726 17.8858 68.7726V70.0296C17.8858 70.0296 17.3359 70.5796 16.0789 70.7367C14.8219 70.8938 14.4291 70.501 14.4291 70.501C14.4291 70.501 14.1148 68.3798 14.1148 66.8871C14.1148 65.3944 14.4291 60.2879 14.4291 60.2879C14.4291 60.2879 15.1361 55.1027 15.0576 54.3171C14.979 53.5315 14.7433 51.096 14.7433 51.096L13.4863 49.6034" fill="#2F2E41"/>
<path d="M20.3998 44.811C20.3998 44.811 20.8712 51.1746 19.9285 55.9669C18.9857 60.7592 17.4145 67.2799 17.3359 67.5942C17.2573 67.9084 17.8858 68.7726 17.8858 68.7726V70.0296C17.8858 70.0296 17.3359 70.5796 16.0789 70.7367C14.8219 70.8938 14.4291 70.501 14.4291 70.501C14.4291 70.501 14.1148 68.3798 14.1148 66.8871C14.1148 65.3944 14.4291 60.2879 14.4291 60.2879C14.4291 60.2879 15.1361 55.1027 15.0576 54.3171C14.979 53.5315 14.7433 51.096 14.7433 51.096L13.4863 49.6034" stroke="#263238" stroke-width="0.998772" stroke-miterlimit="10"/>
<path d="M7.19509 43.6145L9.6651 43.1808C9.6541 43.5155 9.7248 41.4006 9.7248 41.2435C9.7248 40.8978 10.545 38.7295 10.545 38.7295C10.545 38.7295 11.1939 41.5373 11.1939 41.883C11.1939 42.2287 10.9347 44.8684 11.2803 45.2109C11.626 45.5534 12.8359 46.2479 15.5133 46.1537C18.1907 46.0594 20.1799 45.8504 20.6984 45.3319C21.2169 44.8134 20.612 43.2154 20.5696 42.9986C20.5271 42.7817 21.2593 37.1237 21.2593 37.1237C21.2593 37.1237 24.1552 40.1483 25.8835 39.7162C27.6119 39.2841 26.7901 32.556 26.7901 32.556L26.8766 30.6124C26.8766 30.6124 27.4375 29.1857 27.4375 28.9704C27.4375 28.7552 26.8766 27.1996 26.8766 27.1996C26.8766 27.1996 26.5309 26.8964 26.3156 27.6317C26.1932 28.026 26.1065 28.4304 26.0564 28.84C26.0564 28.84 25.5379 29.2297 25.585 29.7906C25.6119 30.1305 25.6848 30.465 25.8018 30.7852L24.6344 34.5861C24.6344 34.5861 23.3381 33.1186 23.2517 32.8577C23.1653 32.5969 23.2093 31.6479 22.1282 31.0854C21.0472 30.5228 18.849 30.4851 18.849 30.4851L12.7573 30.5291C12.7573 30.5291 9.9055 30.7884 9.25657 31.3493C8.60764 31.9103 6.62158 39.0406 6.62158 40.12C6.62158 40.4579 6.79913 41.5027 7.04425 42.799L7.19509 43.6145Z" fill="white" stroke="#263238" stroke-width="0.998772" stroke-miterlimit="10"/>
<path d="M26.876 27.2026C26.876 27.2026 26.7471 28.2821 26.8335 28.4973C26.9574 28.8735 26.9871 29.2743 26.92 29.6648" stroke="#263238" stroke-width="0.998772" stroke-miterlimit="10"/>
<path d="M25.8835 39.7317C27.6119 39.2996 26.7901 32.5589 26.7901 32.5589L26.809 32.1221C26.6201 31.9794 26.4014 31.8815 26.1693 31.8358C25.9371 31.7901 25.6975 31.7976 25.4687 31.8581L24.6297 34.589C24.6297 34.589 23.3334 33.1214 23.247 32.8606C23.1606 32.5998 23.2045 31.6507 22.1235 31.0882C21.0425 30.5257 18.849 30.4849 18.849 30.4849L12.7573 30.5289C12.7573 30.5289 9.9055 30.7881 9.25657 31.3491C8.60764 31.91 6.62158 39.0403 6.62158 40.1198C6.62158 40.7608 7.26108 43.9568 7.79845 46.5619C8.42803 46.558 9.04403 46.3784 9.57711 46.0434C9.64153 44.1767 9.73423 41.4632 9.73423 41.2385C9.73423 40.8928 10.5544 38.7245 10.5544 38.7245C10.5544 38.7245 11.2034 41.5323 11.2034 41.878C11.2034 42.2237 10.9441 44.8634 11.2898 45.2059C11.6354 45.5484 12.8453 46.2429 15.5227 46.1487C18.2001 46.0544 20.1893 45.8454 20.7078 45.3269C21.2263 44.8084 20.6214 43.2104 20.579 42.9936C20.5366 42.7768 21.2688 37.1187 21.2688 37.1187C21.2688 37.1187 24.1552 40.1638 25.8835 39.7317Z" fill="#3F3D56" stroke="#263238" stroke-width="0.998772" stroke-miterlimit="10"/>
<path d="M9.6965 36.3576L10.545 38.7365L8.79932 35.7495" stroke="#263238" stroke-width="0.998772" stroke-miterlimit="10"/>
<path d="M9.2168 35.0171L9.51691 35.8593" stroke="#263238" stroke-width="0.998772" stroke-miterlimit="10"/>
<path d="M15.2017 36.5283C15.5835 37.3862 16.1444 38.4625 16.8122 39.1555" stroke="#263238" stroke-width="0.998772" stroke-miterlimit="10"/>
<path d="M14.6641 35.1738C14.6641 35.1738 14.7819 35.5289 14.9925 36.0427" stroke="#263238" stroke-width="0.998772" stroke-miterlimit="10"/>
<path d="M15.6074 38.0552C15.6074 38.0552 16.5502 39.9407 17.0215 40.3068" stroke="#263238" stroke-width="0.998772" stroke-miterlimit="10"/>
<path d="M22.7378 35.7687L23.096 35.4355" stroke="#263238" stroke-width="0.998772" stroke-miterlimit="10"/>
<path d="M22.1528 35.2778L21.2588 37.1382L22.4121 36.0682" stroke="#263238" stroke-width="0.998772" stroke-miterlimit="10"/>
<path d="M26.2336 36.3262C26.1802 35.9585 24.623 34.5884 24.623 34.5884C24.623 34.5884 26.2336 35.2263 26.6578 35.8014" stroke="#263238" stroke-width="0.998772" stroke-miterlimit="10"/>
<path d="M19.4454 24.8249C19.4454 24.8249 19.5318 25.9059 19.6606 26.0819C19.7895 26.2579 19.8775 27.5935 19.6606 27.9816C19.4438 28.3697 19.315 28.8458 19.1893 28.9762C19.0636 29.1066 18.5843 29.105 18.4115 29.105C18.2386 29.105 16.2935 29.0186 16.2935 29.0186L16.3375 26.2972C16.3375 26.2972 16.8057 24.264 19.4454 24.8249Z" fill="white" stroke="#263238" stroke-width="0.998772" stroke-miterlimit="10"/>
<path d="M15.989 21.801C15.989 21.801 14.2166 22.3635 13.8285 23.919C13.4404 25.4746 14.6927 27.2454 14.6927 27.2454C14.6927 27.2454 15.0384 28.5024 15.3401 28.7569C15.6417 29.0115 16.8531 28.7569 17.2412 28.6705C17.6293 28.5841 18.4982 26.2523 18.4982 26.2523C18.4982 26.2523 18.4982 26.8133 18.7575 26.8133C19.0168 26.8133 18.9728 26.0795 18.9728 25.9491C18.9728 25.8187 20.1826 24.9121 20.1826 23.3565C20.1826 21.801 18.8486 21.1112 17.5916 21.1976C16.3347 21.284 15.989 21.801 15.989 21.801Z" fill="#263238" stroke="#263238" stroke-width="0.998772" stroke-miterlimit="10"/>
<path d="M19.6619 30.3987C19.6619 30.3987 19.4026 29.4921 19.2738 29.3617C19.1449 29.2313 18.3232 28.7143 16.9829 28.6279C15.6426 28.5415 13.6566 28.5839 13.4837 28.6704C13.3109 28.7568 13.2685 29.4921 13.2685 29.4921C13.2685 29.4921 12.706 30.0106 12.5771 30.3123C12.4483 30.614 12.3179 30.7444 13.5199 31.739C14.7219 32.7336 15.3771 33.1217 16.6294 32.8185C17.8817 32.5152 19.698 30.702 19.698 30.702L19.6619 30.3987Z" fill="#2F2E41" stroke="#263238" stroke-width="0.998772" stroke-miterlimit="10"/>
<path d="M16.5703 31.0112C17.4216 30.7196 18.2404 30.3404 19.0136 29.8799" stroke="#263238" stroke-width="0.998772" stroke-miterlimit="10"/>
<path d="M13.2676 29.6655C13.2676 29.6655 14.0453 31.2211 15.4265 31.2211C15.6144 31.2189 15.8017 31.1989 15.9859 31.1614" stroke="#263238" stroke-width="0.998772" stroke-miterlimit="10"/>
</g>
</svg>
