<svg width="45" height="44" viewBox="0 0 45 44" fill="none" xmlns="http://www.w3.org/2000/svg">
<g clip-path="url(#clip0_247_867)">
<path d="M17.7143 16.6823V17.5437C17.7143 18.1225 17.9442 18.6776 18.3535 19.0869C18.7628 19.4962 19.3179 19.7262 19.8967 19.7262H20.6242C20.8172 19.7262 21.0022 19.6495 21.1386 19.5131C21.2751 19.3767 21.3517 19.1916 21.3517 18.9987C21.3517 18.8057 21.2751 18.6207 21.1386 18.4843C21.0022 18.3478 20.8172 18.2712 20.6242 18.2712H19.8967C19.7038 18.2712 19.5188 18.1945 19.3823 18.0581C19.2459 17.9217 19.1692 17.7366 19.1692 17.5437V16.8162C19.5551 16.8162 19.9252 16.6629 20.1981 16.39C20.4709 16.1172 20.6242 15.7471 20.6242 15.3612V12.4512C20.6242 12.0654 20.4709 11.6953 20.1981 11.4224C19.9252 11.1495 19.5551 10.9963 19.1692 10.9963C19.1692 10.0315 19.5525 9.10634 20.2346 8.42418C20.9168 7.74202 21.842 7.35879 22.8067 7.35879C23.7714 7.35879 24.6966 7.74202 25.3788 8.42418C26.0609 9.10634 26.4442 10.0315 26.4442 10.9963C26.0583 10.9963 25.6882 11.1495 25.4153 11.4224C25.1425 11.6953 24.9892 12.0654 24.9892 12.4512V15.3612C24.9892 15.7471 25.1425 16.1172 25.4153 16.39C25.6882 16.6629 26.0583 16.8162 26.4442 16.8162H27.1717C27.7505 16.8162 28.3056 16.5863 28.7149 16.177C29.1242 15.7677 29.3541 15.2125 29.3541 14.6337V13.1787C29.3523 12.729 29.2115 12.2907 28.951 11.924C28.6906 11.5573 28.3232 11.28 27.8992 11.1301V10.9963C27.8992 9.64565 27.3626 8.35037 26.4076 7.39535C25.4526 6.44033 24.1573 5.90381 22.8067 5.90381C21.4561 5.90381 20.1608 6.44033 19.2058 7.39535C18.2508 8.35037 17.7143 9.64565 17.7143 10.9963V11.1301C17.2902 11.28 16.9228 11.5573 16.6624 11.924C16.4019 12.2907 16.2611 12.729 16.2593 13.1787V14.6337C16.2611 15.0835 16.4019 15.5217 16.6624 15.8884C16.9228 16.2551 17.2902 16.5324 17.7143 16.6823ZM27.8992 14.6337C27.8992 14.8267 27.8225 15.0117 27.6861 15.1481C27.5496 15.2846 27.3646 15.3612 27.1717 15.3612H26.4442V12.4512H27.1717C27.3646 12.4512 27.5496 12.5279 27.6861 12.6643C27.8225 12.8007 27.8992 12.9858 27.8992 13.1787V14.6337ZM17.7143 13.1787C17.7143 12.9858 17.7909 12.8007 17.9273 12.6643C18.0638 12.5279 18.2488 12.4512 18.4418 12.4512H19.1692V15.3612H18.4418C18.2488 15.3612 18.0638 15.2846 17.9273 15.1481C17.7909 15.0117 17.7143 14.8267 17.7143 14.6337V13.1787Z" fill="#3ABBC6"/>
<path d="M16.9866 29.1826H15.5316C15.1458 29.1826 14.7757 29.3359 14.5028 29.6088C14.23 29.8816 14.0767 30.2517 14.0767 30.6376V32.0926C14.0767 32.4785 14.23 32.8486 14.5028 33.1214C14.7757 33.3943 15.1458 33.5476 15.5316 33.5476H16.9866C17.3725 33.5476 17.7426 33.3943 18.0155 33.1214C18.2883 32.8486 18.4416 32.4785 18.4416 32.0926V30.6376C18.4416 30.2517 18.2883 29.8816 18.0155 29.6088C17.7426 29.3359 17.3725 29.1826 16.9866 29.1826ZM15.5316 32.0926V30.6376H16.9866V32.0926H15.5316Z" fill="#3ABBC6"/>
<path d="M23.5345 29.1826H22.0795C21.6936 29.1826 21.3235 29.3359 21.0507 29.6088C20.7778 29.8816 20.6245 30.2517 20.6245 30.6376V32.0926C20.6245 32.4785 20.7778 32.8486 21.0507 33.1214C21.3235 33.3943 21.6936 33.5476 22.0795 33.5476H23.5345C23.9204 33.5476 24.2904 33.3943 24.5633 33.1214C24.8362 32.8486 24.9895 32.4785 24.9895 32.0926V30.6376C24.9895 30.2517 24.8362 29.8816 24.5633 29.6088C24.2904 29.3359 23.9204 29.1826 23.5345 29.1826ZM22.0795 32.0926V30.6376H23.5345V32.0926H22.0795Z" fill="#3ABBC6"/>
<path d="M30.0818 29.1826H28.6269C28.241 29.1826 27.8709 29.3359 27.598 29.6088C27.3252 29.8816 27.1719 30.2517 27.1719 30.6376V32.0926C27.1719 32.4785 27.3252 32.8486 27.598 33.1214C27.8709 33.3943 28.241 33.5476 28.6269 33.5476H30.0818C30.4677 33.5476 30.8378 33.3943 31.1107 33.1214C31.3835 32.8486 31.5368 32.4785 31.5368 32.0926V30.6376C31.5368 30.2517 31.3835 29.8816 31.1107 29.6088C30.8378 29.3359 30.4677 29.1826 30.0818 29.1826ZM28.6269 32.0926V30.6376H30.0818V32.0926H28.6269Z" fill="#3ABBC6"/>
<path d="M16.9866 21.9077H15.5316C15.1458 21.9077 14.7757 22.061 14.5028 22.3339C14.23 22.6067 14.0767 22.9768 14.0767 23.3627V24.8177C14.0767 25.2036 14.23 25.5737 14.5028 25.8465C14.7757 26.1194 15.1458 26.2727 15.5316 26.2727H16.9866C17.3725 26.2727 17.7426 26.1194 18.0155 25.8465C18.2883 25.5737 18.4416 25.2036 18.4416 24.8177V23.3627C18.4416 22.9768 18.2883 22.6067 18.0155 22.3339C17.7426 22.061 17.3725 21.9077 16.9866 21.9077ZM15.5316 24.8177V23.3627H16.9866V24.8177H15.5316Z" fill="#3ABBC6"/>
<path d="M7.52911 29.1826H6.07413C5.68824 29.1826 5.31816 29.3359 5.0453 29.6088C4.77243 29.8816 4.61914 30.2517 4.61914 30.6376V32.0926C4.61914 32.4785 4.77243 32.8486 5.0453 33.1214C5.31816 33.3943 5.68824 33.5476 6.07413 33.5476H7.52911C7.915 33.5476 8.28508 33.3943 8.55794 33.1214C8.8308 32.8486 8.98409 32.4785 8.98409 32.0926V30.6376C8.98409 30.2517 8.8308 29.8816 8.55794 29.6088C8.28508 29.3359 7.915 29.1826 7.52911 29.1826ZM6.07413 32.0926V30.6376H7.52911V32.0926H6.07413Z" fill="#3ABBC6"/>
<path d="M7.52911 36.4575H6.07413C5.68824 36.4575 5.31816 36.6108 5.0453 36.8837C4.77243 37.1565 4.61914 37.5266 4.61914 37.9125V39.3675C4.61914 39.7534 4.77243 40.1235 5.0453 40.3963C5.31816 40.6692 5.68824 40.8225 6.07413 40.8225H7.52911C7.915 40.8225 8.28508 40.6692 8.55794 40.3963C8.8308 40.1235 8.98409 39.7534 8.98409 39.3675V37.9125C8.98409 37.5266 8.8308 37.1565 8.55794 36.8837C8.28508 36.6108 7.915 36.4575 7.52911 36.4575ZM6.07413 39.3675V37.9125H7.52911V39.3675H6.07413Z" fill="#3ABBC6"/>
<path d="M7.52911 21.9077H6.07413C5.68824 21.9077 5.31816 22.061 5.0453 22.3339C4.77243 22.6067 4.61914 22.9768 4.61914 23.3627V24.8177C4.61914 25.2036 4.77243 25.5737 5.0453 25.8465C5.31816 26.1194 5.68824 26.2727 6.07413 26.2727H7.52911C7.915 26.2727 8.28508 26.1194 8.55794 25.8465C8.8308 25.5737 8.98409 25.2036 8.98409 24.8177V23.3627C8.98409 22.9768 8.8308 22.6067 8.55794 22.3339C8.28508 22.061 7.915 21.9077 7.52911 21.9077ZM6.07413 24.8177V23.3627H7.52911V24.8177H6.07413Z" fill="#3ABBC6"/>
<path d="M43.1765 18.2703H34.4466V4.44796C34.8325 4.44796 35.2025 4.29467 35.4754 4.02181C35.7483 3.74894 35.9016 3.37886 35.9016 2.99298V1.53799C35.9016 1.15211 35.7483 0.782025 35.4754 0.509163C35.2025 0.2363 34.8325 0.0830078 34.4466 0.0830078L11.1668 0.0830078C10.7809 0.0830078 10.4109 0.2363 10.138 0.509163C9.86513 0.782025 9.71184 1.15211 9.71184 1.53799V2.99298C9.71184 3.37886 9.86513 3.74894 10.138 4.02181C10.4109 4.29467 10.7809 4.44796 11.1668 4.44796V18.2703H2.43692C2.05103 18.2703 1.68095 18.4236 1.40809 18.6965C1.13523 18.9693 0.981934 19.3394 0.981934 19.7253L0.981934 42.2776C0.981934 42.6634 1.13523 43.0335 1.40809 43.3064C1.68095 43.5793 2.05103 43.7325 2.43692 43.7325H43.1765C43.5624 43.7325 43.9325 43.5793 44.2053 43.3064C44.4782 43.0335 44.6315 42.6634 44.6315 42.2776V19.7253C44.6315 19.3394 44.4782 18.9693 44.2053 18.6965C43.9325 18.4236 43.5624 18.2703 43.1765 18.2703ZM11.1668 1.53799H34.4466V2.99298H11.1668V1.53799ZM2.43692 19.7253H11.1668V42.2776H2.43692V19.7253ZM12.6218 4.44796H32.9916V42.2776H25.7167V37.9126C25.7167 37.5267 25.5634 37.1566 25.2905 36.8838C25.0177 36.6109 24.6476 36.4576 24.2617 36.4576H21.3517C20.9658 36.4576 20.5958 36.6109 20.3229 36.8838C20.05 37.1566 19.8967 37.5267 19.8967 37.9126V42.2776H12.6218V4.44796ZM21.3517 42.2776V37.9126H24.2617V42.2776H21.3517ZM43.1765 42.2776H34.4466V19.7253H43.1765V42.2776Z" fill="#3ABBC6"/>
<path d="M38.0839 33.5476H39.5389C39.9248 33.5476 40.2948 33.3943 40.5677 33.1214C40.8406 32.8486 40.9939 32.4785 40.9939 32.0926V30.6376C40.9939 30.2517 40.8406 29.8816 40.5677 29.6088C40.2948 29.3359 39.9248 29.1826 39.5389 29.1826H38.0839C37.698 29.1826 37.3279 29.3359 37.0551 29.6088C36.7822 29.8816 36.6289 30.2517 36.6289 30.6376V32.0926C36.6289 32.4785 36.7822 32.8486 37.0551 33.1214C37.3279 33.3943 37.698 33.5476 38.0839 33.5476ZM38.0839 30.6376H39.5389V32.0926H38.0839V30.6376Z" fill="#3ABBC6"/>
<path d="M38.0839 40.8225H39.5389C39.9248 40.8225 40.2948 40.6692 40.5677 40.3963C40.8406 40.1235 40.9939 39.7534 40.9939 39.3675V37.9125C40.9939 37.5266 40.8406 37.1565 40.5677 36.8837C40.2948 36.6108 39.9248 36.4575 39.5389 36.4575H38.0839C37.698 36.4575 37.3279 36.6108 37.0551 36.8837C36.7822 37.1565 36.6289 37.5266 36.6289 37.9125V39.3675C36.6289 39.7534 36.7822 40.1235 37.0551 40.3963C37.3279 40.6692 37.698 40.8225 38.0839 40.8225ZM38.0839 37.9125H39.5389V39.3675H38.0839V37.9125Z" fill="#3ABBC6"/>
<path d="M38.0839 26.2727H39.5389C39.9248 26.2727 40.2948 26.1194 40.5677 25.8465C40.8406 25.5737 40.9939 25.2036 40.9939 24.8177V23.3627C40.9939 22.9768 40.8406 22.6067 40.5677 22.3339C40.2948 22.061 39.9248 21.9077 39.5389 21.9077H38.0839C37.698 21.9077 37.3279 22.061 37.0551 22.3339C36.7822 22.6067 36.6289 22.9768 36.6289 23.3627V24.8177C36.6289 25.2036 36.7822 25.5737 37.0551 25.8465C37.3279 26.1194 37.698 26.2727 38.0839 26.2727ZM38.0839 23.3627H39.5389V24.8177H38.0839V23.3627Z" fill="#3ABBC6"/>
<path d="M23.5345 21.9077H22.0795C21.6936 21.9077 21.3235 22.061 21.0507 22.3339C20.7778 22.6067 20.6245 22.9768 20.6245 23.3627V24.8177C20.6245 25.2036 20.7778 25.5737 21.0507 25.8465C21.3235 26.1194 21.6936 26.2727 22.0795 26.2727H23.5345C23.9204 26.2727 24.2904 26.1194 24.5633 25.8465C24.8362 25.5737 24.9895 25.2036 24.9895 24.8177V23.3627C24.9895 22.9768 24.8362 22.6067 24.5633 22.3339C24.2904 22.061 23.9204 21.9077 23.5345 21.9077ZM22.0795 24.8177V23.3627H23.5345V24.8177H22.0795Z" fill="#3ABBC6"/>
<path d="M27.1719 23.3627V24.8177C27.1719 25.2036 27.3252 25.5737 27.598 25.8465C27.8709 26.1194 28.241 26.2727 28.6269 26.2727H30.0818C30.4677 26.2727 30.8378 26.1194 31.1107 25.8465C31.3835 25.5737 31.5368 25.2036 31.5368 24.8177V23.3627C31.5368 22.9768 31.3835 22.6067 31.1107 22.3339C30.8378 22.061 30.4677 21.9077 30.0818 21.9077H28.6269C28.241 21.9077 27.8709 22.061 27.598 22.3339C27.3252 22.6067 27.1719 22.9768 27.1719 23.3627ZM30.0818 24.8177H28.6269V23.3627H30.0818V24.8177Z" fill="#3ABBC6"/>
</g>
<defs>
<clipPath id="clip0_247_867">
<rect width="43.6495" height="43.6495" fill="white" transform="translate(0.981934 0.0830078)"/>
</clipPath>
</defs>
</svg>
