<svg width="383" height="299" viewBox="0 0 383 299" fill="none" xmlns="http://www.w3.org/2000/svg">
<path d="M133.761 395.592C65.2983 395.592 9.35198 336.557 9.35198 263.167C9.35199 189.777 65.2983 130.742 133.761 130.742C202.224 130.742 258.171 189.777 258.171 263.167C258.171 336.557 202.224 395.592 133.761 395.592Z" stroke="#0B494E" stroke-width="8.79603"/>
<path d="M147.32 400.993C70.4331 400.993 7.65749 334.704 7.65749 252.365C7.6575 170.027 70.4331 103.738 147.32 103.738C224.208 103.738 286.983 170.027 286.983 252.365C286.983 334.704 224.208 400.993 147.32 400.993Z" stroke="#0B494E" stroke-width="8.79603"/>
<path d="M158.336 406.394C73.9606 406.394 5.11458 333.657 5.11459 243.364C5.11459 153.071 73.9606 80.3343 158.336 80.3343C242.712 80.3343 311.558 153.071 311.558 243.364C311.558 333.657 242.712 406.394 158.336 406.394Z" stroke="#0B494E" stroke-width="8.79603"/>
<path d="M174.438 409.994C83.5104 409.994 9.35271 331.615 9.35271 234.362C9.35272 137.109 83.5104 58.7303 174.438 58.7303C265.366 58.7303 339.524 137.109 339.524 234.362C339.524 331.615 265.366 409.994 174.438 409.994Z" stroke="#0B494E" stroke-width="8.79603"/>
<path d="M190.115 413.595C92.8687 413.595 13.5892 329.775 13.5892 225.811C13.5892 121.847 92.8687 38.0272 190.115 38.0272C287.361 38.0272 366.64 121.847 366.64 225.811C366.64 329.775 287.361 413.595 190.115 413.595Z" stroke="#0B494E" stroke-width="8.79603"/>
<path d="M207.911 418.095C100.836 418.095 13.5892 325.812 13.5892 211.408C13.5892 97.0043 100.836 4.72124 207.911 4.72125C314.985 4.72125 402.232 97.0043 402.232 211.408C402.232 325.812 314.985 418.095 207.911 418.095Z" stroke="#0B494E" stroke-width="8.79603"/>
</svg>
