<svg width="169" height="166" viewBox="0 0 169 166" fill="none" xmlns="http://www.w3.org/2000/svg">
<path d="M113.692 154.87C142.117 154.87 165.165 131.793 165.165 103.321C165.165 74.8483 142.117 51.7715 113.692 51.7715C85.2663 51.7715 62.2183 74.8483 62.2183 103.321C62.2183 131.793 85.2663 154.87 113.692 154.87Z" stroke="#2AE2F1" stroke-width="3.81162"/>
<path d="M108.074 156.979C139.99 156.979 165.868 131.068 165.868 99.1C165.868 67.1316 139.99 41.2207 108.074 41.2207C76.157 41.2207 50.2789 67.1316 50.2789 99.1C50.2789 131.068 76.157 156.979 108.074 156.979Z" stroke="#2AE2F1" stroke-width="3.81162"/>
<path d="M103.508 159.09C138.528 159.09 166.922 130.66 166.922 95.5838C166.922 60.5078 138.528 32.0777 103.508 32.0777C68.4881 32.0777 40.0943 60.5078 40.0943 95.5838C40.0943 130.66 68.4881 159.09 103.508 159.09Z" stroke="#2AE2F1" stroke-width="3.81162"/>
<path d="M96.8317 160.496C134.567 160.496 165.162 129.862 165.162 92.0668C165.162 54.2717 134.567 23.6372 96.8317 23.6373C59.0965 23.6373 28.5015 54.2717 28.5015 92.0668C28.5015 129.862 59.0965 160.496 96.8317 160.496Z" stroke="#2AE2F1" stroke-width="3.81162"/>
<path d="M90.3382 161.903C130.692 161.903 163.409 129.143 163.409 88.7256C163.409 48.3084 130.692 15.5484 90.3382 15.5484C49.9847 15.5484 17.2671 48.3084 17.2671 88.7256C17.2671 129.143 49.9847 161.903 90.3382 161.903Z" stroke="#2AE2F1" stroke-width="3.81162"/>
<path d="M82.963 163.662C127.39 163.662 163.409 127.595 163.409 83.0991C163.409 38.6031 127.39 2.53666 82.963 2.53666C38.5365 2.53667 2.51714 38.6032 2.51714 83.0991C2.51714 127.595 38.5365 163.662 82.963 163.662Z" stroke="#2AE2F1" stroke-width="3.81162"/>
</svg>
