<svg width="39" height="39" viewBox="0 0 39 39" fill="none" xmlns="http://www.w3.org/2000/svg">
<path d="M30.3694 19.3799C30.3694 14.6944 27.502 10.6657 23.4333 8.95167V4.60256H8.33553V0.549805L0.0698242 8.81551L8.06321 16.8089C7.87098 17.6339 7.75885 18.4909 7.75885 19.3799C7.75885 24.0654 10.6262 28.0941 14.695 29.8082V34.1573H29.7847V38.218L38.0584 29.9443L30.065 21.9509C30.2573 21.126 30.3694 20.269 30.3694 19.3799ZM6.73365 13.2207L2.32848 8.81551L6.73365 4.41034V6.20444H21.8234V8.43106C20.9423 8.20679 20.0212 8.07063 19.0601 8.07063C15.9204 8.07063 13.0771 9.36015 11.0267 11.4266H6.73365V13.2207ZM8.33553 13.0285H9.70514C9.12846 13.8775 8.66391 14.8146 8.33553 15.8077V13.0285ZM9.35272 19.3799C9.35272 14.0296 13.7098 9.67251 19.0601 9.67251C24.4104 9.67251 28.7675 14.0296 28.7675 19.3799C28.7675 24.7302 24.4104 29.0873 19.0601 29.0873C13.7098 29.0873 9.35272 24.7302 9.35272 19.3799ZM31.3866 25.5391L35.7918 29.9443L31.3866 34.3495V32.5554H16.2889V30.3288C17.1779 30.553 18.099 30.6892 19.0601 30.6892C22.1998 30.6892 25.0431 29.3997 27.0935 27.3332H31.3866V25.5391ZM29.7847 25.7314H28.4151C28.9918 24.8824 29.4563 23.9453 29.7847 22.9521V25.7314Z" fill="#3ABBC6"/>
<path d="M23.2166 25.8676L18.2828 20.9098H19.7325C21.5746 20.9098 23.1125 19.6043 23.4809 17.8743H24.1216V16.2724H23.4809C23.3688 15.7438 23.1445 15.2632 22.8321 14.8387H24.1136V13.2368H19.7245H15.3433H13.9897V14.8387H15.3433H19.7245C20.6776 14.8387 21.4785 15.4394 21.8069 16.2724H13.9978V17.8743H21.8069C21.4865 18.7072 20.6776 19.3079 19.7245 19.3079H16.6809H15.3433H15.2232V20.9098H15.3433H16.0161L22.0712 26.997L23.2166 25.8676Z" fill="#3ABBC6"/>
</svg>
