<svg width="196" height="139" viewBox="0 0 196 139" fill="none" xmlns="http://www.w3.org/2000/svg">
<path d="M195.46 47.7122C195.46 47.7122 193.008 46.718 185.208 50.2937C177.408 53.8694 176.434 53.4175 174.416 52.8799C172.398 52.3423 171.271 52.2032 169.107 49.2162C169.107 49.2162 167.58 40.9409 166.094 39.6571C164.609 38.3732 158.338 40.3893 158.338 40.3893C158.338 40.3893 150.809 42.1158 149.375 32.0468C149.375 32.0468 150.392 24.4645 149.006 22.1378C149.006 22.1378 151.805 23.3429 156.422 21.3963C161.038 19.4497 164.734 23.4935 164.734 23.4935C164.734 23.4935 165.893 26.506 165.777 28.3043C165.661 30.1026 166.393 30.7769 168.595 29.9079C168.595 29.9079 169.677 28.3692 168.145 25.8247C166.613 23.2803 165.52 21.387 165.946 19.4126C166.372 17.4382 167.603 14.6968 171.554 13.3272C175.505 11.9577 180.87 11.7051 183.444 10.6229C186.019 9.54067 186.654 8.8501 186.654 8.8501C186.654 8.8501 185.069 10.4375 188.802 17.1694C192.535 23.9013 190.155 26.8212 190.155 26.8212C190.155 26.8212 188.169 31.5556 179.401 31.1709C179.401 31.1709 170.951 31.4791 175.558 35.0617C175.558 35.0617 178.508 34.4615 182.918 33.0595C187.328 31.6575 190.512 37.444 191.303 41.4692C192.093 45.4945 195.46 47.7122 195.46 47.7122Z" fill="#4C77BD"/>
<path d="M184.102 13.948L184.149 13.9341C184.487 15.2179 180.712 20.381 177.484 24.485L177.447 24.4549C181.998 18.6754 184.364 14.9421 184.102 13.948Z" fill="white"/>
<path d="M177.512 24.3765L177.533 24.4274C174.954 27.7042 171.712 31.6113 169.116 34.5149C168.868 34.7907 168.623 35.0803 168.386 35.377L168.312 35.3167C168.544 35.0201 168.796 34.7281 169.044 34.4523C171.637 31.5603 174.93 27.6555 177.512 24.3765Z" fill="white"/>
<path d="M168.375 35.2422L168.426 35.3302C163.703 41.2279 163.39 50.3931 163.379 50.4649L162.382 49.3062C162.394 49.2321 163.62 41.1816 168.375 35.2422Z" fill="white"/>
<path d="M189.993 44.5143C189.993 44.5143 184.432 41.6176 180.084 42.6604C175.737 43.7032 165.96 38.9758 165.96 38.9758C165.96 38.9758 161.812 37.2911 160.978 35.37C160.978 35.37 158.13 32.3574 157.965 30.8025C157.801 29.2475 155.031 25.3289 153.224 25.1782" stroke="white" stroke-width="0.231736" stroke-miterlimit="10"/>
<path d="M189.175 47.3019C189.175 47.3019 186.371 45.411 186.698 43.2095" stroke="white" stroke-width="0.231736" stroke-miterlimit="10"/>
<path d="M184.874 49.7424C184.874 49.7424 180.863 48.2871 180.471 42.5771" stroke="white" stroke-width="0.231736" stroke-miterlimit="10"/>
<path d="M178.407 51.2208C178.407 51.2208 174.574 48.0414 175.846 42.4844" stroke="white" stroke-width="0.231736" stroke-miterlimit="10"/>
<path d="M170.622 49.6681C170.622 49.6681 168.073 44.315 170.342 40.832" stroke="white" stroke-width="0.231736" stroke-miterlimit="10"/>
<path d="M190.047 40.9849C190.047 40.9849 187.148 41.9118 187.769 43.432" stroke="white" stroke-width="0.231736" stroke-miterlimit="10"/>
<path d="M186.548 35.7314C186.548 35.7314 182.666 36.962 182.576 42.4518" stroke="white" stroke-width="0.231736" stroke-miterlimit="10"/>
<path d="M181.134 34.4526C181.134 34.4526 177.6 38.8139 177.86 42.7766" stroke="white" stroke-width="0.231736" stroke-miterlimit="10"/>
<path d="M174.947 36.1626C174.947 36.1626 171.438 39.5181 171.886 41.3836" stroke="white" stroke-width="0.231736" stroke-miterlimit="10"/>
<path d="M172.831 34.9786C172.831 34.9786 169.54 35.5672 169.079 34.4873" stroke="white" stroke-width="0.231736" stroke-miterlimit="10"/>
<path d="M168.555 31.0063C168.555 31.0063 170.217 33.2078 170.641 32.7142" stroke="white" stroke-width="0.231736" stroke-miterlimit="10"/>
<path d="M185.036 29.6136C185.036 29.6136 176.74 30.2161 174.863 27.7134" stroke="white" stroke-width="0.231736" stroke-miterlimit="10"/>
<path d="M166.82 19.9111C166.82 19.9111 170.71 28.2652 173.54 29.3289" stroke="white" stroke-width="0.231736" stroke-miterlimit="10"/>
<path d="M170.894 15.9321C170.894 15.9321 173.283 23.6165 176.244 26.015" stroke="white" stroke-width="0.231736" stroke-miterlimit="10"/>
<path d="M188.527 23.2707C188.527 23.2707 182.219 25.9774 178.432 23.2383" stroke="white" stroke-width="0.173802" stroke-miterlimit="10"/>
<path d="M176.511 14.2939C176.511 14.2939 177.952 19.9413 179.894 21.3063" stroke="white" stroke-width="0.173802" stroke-miterlimit="10"/>
<path d="M187.574 16.9424C187.574 16.9424 184.028 18.2865 182.708 17.2575" stroke="white" stroke-width="0.173802" stroke-miterlimit="10"/>
<path d="M165.517 32.8511C165.517 32.8511 165.517 37.7755 164.178 38.1254" stroke="white" stroke-width="0.231736" stroke-miterlimit="10"/>
<path d="M154.558 39.2308C154.558 39.2308 159.888 39.6943 162.338 36.939" stroke="white" stroke-width="0.231736" stroke-miterlimit="10"/>
<path d="M164.146 27.0342C164.146 27.0342 162.857 32.0281 159.302 33.3745" stroke="white" stroke-width="0.231736" stroke-miterlimit="10"/>
<path d="M151.365 33.9702C151.365 33.9702 155.134 35.2795 158.375 31.9448" stroke="white" stroke-width="0.231736" stroke-miterlimit="10"/>
<path d="M159.954 22.7407C159.954 22.7407 159.599 26.9815 157.293 28.9675" stroke="white" stroke-width="0.231736" stroke-miterlimit="10"/>
<path d="M151.509 27.5071C151.509 27.5071 154.635 27.5279 155.367 26.5083" stroke="white" stroke-width="0.231736" stroke-miterlimit="10"/>
<path d="M180.295 135.645C176.57 138.328 171.743 138.463 167.077 138.134C166.425 138.088 165.778 138.034 165.137 137.975C165.134 137.974 165.128 137.975 165.125 137.974C165.094 137.971 165.063 137.968 165.033 137.966C164.901 137.954 164.769 137.941 164.638 137.929L164.669 137.988L164.766 138.171C164.731 138.11 164.696 138.05 164.661 137.989C164.651 137.97 164.639 137.952 164.629 137.933C163.42 135.83 162.222 133.649 161.916 131.247C161.6 128.755 162.488 125.932 164.682 124.706C164.97 124.546 165.275 124.418 165.591 124.326C165.722 124.286 165.855 124.254 165.989 124.225C166.812 124.042 167.669 124.082 168.471 124.34C169.274 124.598 169.993 125.065 170.555 125.694C171.117 126.322 171.502 127.088 171.669 127.915C171.837 128.741 171.781 129.597 171.508 130.394C173.368 128.487 173.021 125.392 172.38 122.806C171.737 120.22 170.959 117.342 172.266 115.019C172.993 113.726 174.271 112.924 175.706 112.601C175.75 112.592 175.794 112.582 175.838 112.574C177.547 112.228 179.324 112.539 180.814 113.446C183.557 115.174 184.966 118.452 185.423 121.662C186.16 126.828 184.529 132.594 180.295 135.645Z" fill="#4C77BD"/>
<path d="M179.092 127.363C178.984 128.503 178.71 129.621 178.28 130.681C177.883 131.62 177.348 132.494 176.692 133.274C175.33 134.869 173.604 136.113 171.661 136.902C170.191 137.504 168.651 137.918 167.077 138.134C166.426 138.088 165.779 138.034 165.138 137.975C165.134 137.974 165.129 137.975 165.125 137.974C165.094 137.971 165.063 137.968 165.034 137.966C164.901 137.954 164.769 137.941 164.638 137.929L164.669 137.988L164.766 138.171C164.731 138.11 164.696 138.05 164.661 137.989C164.651 137.97 164.64 137.952 164.629 137.933C165.809 136.758 166.69 135.317 167.198 133.731C167.706 132.145 167.827 130.46 167.55 128.818C167.26 127.187 166.589 125.648 165.591 124.326C165.722 124.286 165.855 124.254 165.99 124.225C166.369 124.743 166.702 125.294 166.984 125.871C167.996 127.929 168.319 130.258 167.905 132.514C167.52 134.555 166.56 136.444 165.139 137.959C165.264 137.95 165.389 137.94 165.512 137.929C167.841 137.731 170.166 137.231 172.278 136.205C174.084 135.35 175.651 134.063 176.843 132.459C178.122 130.695 178.686 128.573 178.783 126.415C178.857 124.091 178.614 121.768 178.059 119.51C177.521 117.208 176.703 114.98 175.624 112.876C175.599 112.828 175.595 112.773 175.61 112.722C175.625 112.671 175.66 112.628 175.706 112.601C175.745 112.575 175.792 112.565 175.838 112.574C175.861 112.58 175.882 112.591 175.899 112.606C175.917 112.621 175.931 112.64 175.94 112.661C176.073 112.921 176.204 113.181 176.33 113.444C177.377 115.634 178.147 117.946 178.624 120.327C179.087 122.623 179.334 125.025 179.092 127.363Z" fill="white"/>
<path d="M11.2254 43.147C9.02539 43.147 6.87481 42.4947 5.04559 41.2724C3.21637 40.0502 1.79067 38.3129 0.948768 36.2804C0.10687 34.2479 -0.113408 32.0114 0.315787 29.8537C0.744983 27.6959 1.80438 25.714 3.36 24.1583C4.91563 22.6027 6.89761 21.5433 9.05533 21.1141C11.213 20.6849 13.4496 20.9052 15.4821 21.7471C17.5146 22.589 19.2518 24.0147 20.4741 25.8439C21.6963 27.6731 22.3487 29.8237 22.3487 32.0237C22.3454 34.9728 21.1724 37.8001 19.0871 39.8854C17.0018 41.9707 14.1744 43.1437 11.2254 43.147ZM11.2254 21.3639C9.11705 21.3639 7.05608 21.9891 5.30308 23.1604C3.55008 24.3317 2.18378 25.9965 1.37696 27.9444C0.570142 29.8922 0.359043 32.0355 0.770355 34.1033C1.18167 36.1712 2.19692 38.0706 3.68772 39.5614C5.17853 41.0522 7.07793 42.0674 9.14574 42.4787C11.2135 42.89 13.3569 42.6789 15.3047 41.8721C17.2526 41.0653 18.9174 39.699 20.0887 37.946C21.26 36.193 21.8852 34.132 21.8852 32.0237C21.882 29.1975 20.7579 26.488 18.7595 24.4896C16.7611 22.4912 14.0516 21.3671 11.2254 21.3639Z" fill="#1B3A6C"/>
<path d="M108.554 16.4971C107.317 16.4971 106.107 16.1302 105.078 15.4427C104.049 14.7551 103.247 13.778 102.774 12.6347C102.3 11.4914 102.176 10.2333 102.418 9.01962C102.659 7.8059 103.255 6.69103 104.13 5.81599C105.005 4.94095 106.12 4.34505 107.334 4.10362C108.548 3.8622 109.806 3.98611 110.949 4.45968C112.092 4.93325 113.069 5.7352 113.757 6.76414C114.444 7.79307 114.811 9.00277 114.811 10.2403C114.809 11.8991 114.15 13.4895 112.977 14.6625C111.804 15.8355 110.213 16.4953 108.554 16.4971ZM108.554 4.44687C107.409 4.44687 106.289 4.78665 105.336 5.42323C104.383 6.05982 103.641 6.96463 103.202 8.02323C102.764 9.08184 102.649 10.2467 102.872 11.3705C103.096 12.4943 103.648 13.5266 104.458 14.3368C105.268 15.147 106.3 15.6988 107.424 15.9223C108.548 16.1459 109.713 16.0312 110.772 15.5927C111.83 15.1542 112.735 14.4116 113.372 13.4589C114.008 12.5062 114.348 11.3861 114.348 10.2403C114.346 8.70429 113.735 7.23172 112.649 6.14563C111.563 5.05953 110.09 4.4486 108.554 4.44687Z" fill="#1B3A6C"/>
<path d="M8.26367 118.062H167.384V37.5078H8.26367V118.062Z" fill="white"/>
<path d="M168.696 119.374H6.95068V36.1953H168.696V119.374ZM9.57589 116.749H166.071V38.8205H9.57589V116.749Z" fill="#1B3A6C"/>
<path d="M61.8136 62.8447V79.0338H38.2801L33.9325 84.2503L34.4289 79.0338H32.3135V62.8447H61.8136Z" fill="#6D8BBC"/>
<path d="M1.41381 136.006H3.71286L4.80665 127.139H1.41357L1.41381 136.006Z" fill="#FFB7B7"/>
<path d="M0.827148 135.256L5.35477 135.255C6.11999 135.255 6.85404 135.559 7.39513 136.101C7.93623 136.642 8.24024 137.375 8.2403 138.141V138.234L0.827272 138.235L0.827148 135.256Z" fill="#2F2E41"/>
<path d="M29.0348 135.931L31.2673 135.381L30.2103 126.509L26.9155 127.32L29.0348 135.931Z" fill="#FFB7B7"/>
<path d="M28.2861 135.342L32.6826 134.26C33.4256 134.077 34.2111 134.197 34.8658 134.593C35.5205 134.989 35.991 135.629 36.1739 136.372L36.1963 136.463L28.9981 138.235L28.2861 135.342Z" fill="#2F2E41"/>
<path d="M0 133.892L0.477584 131.448C0.477584 131.448 1.3567 122.014 7.66583 112.598L9.71943 102.369C9.71943 102.369 9.10954 94.6267 14.996 90.4357L16.8109 89.1855L23.1736 89.5503L24.6432 97.5957L27.6042 116.632C27.6042 116.632 28.3683 116.704 28.6549 118.905C29.2373 119.83 29.5818 120.884 29.6578 121.974C29.6578 121.974 31.1731 126.154 31.5791 129.232L31.5313 132.244L28.3315 133.949L21.6624 115.088L16.8923 104.543C16.8923 104.543 14.5964 111.973 11.0799 118.337C11.0799 118.337 6.2634 128.762 5.30117 130.88L4.25048 134.346L0 133.892Z" fill="#2F2E41"/>
<path d="M21.2745 72.9962C23.7862 72.9962 25.8224 70.96 25.8224 68.4483C25.8224 65.9366 23.7862 63.9004 21.2745 63.9004C18.7627 63.9004 16.7266 65.9366 16.7266 68.4483C16.7266 70.96 18.7627 72.9962 21.2745 72.9962Z" fill="#FFB7B7"/>
<path d="M21.2745 72.9962C23.7862 72.9962 25.8224 70.96 25.8224 68.4483C25.8224 65.9366 23.7862 63.9004 21.2745 63.9004C18.7627 63.9004 16.7266 65.9366 16.7266 68.4483C16.7266 70.96 18.7627 72.9962 21.2745 72.9962Z" fill="#FFB8B8"/>
<path d="M15.0095 90.4842L16.5108 86.7341C15.4501 83.2983 15.5151 79.6135 16.6964 76.2173L16.9836 75.9808C19.486 73.92 21.6823 74.2952 23.7204 76.816C24.0486 77.2258 24.4324 77.5877 24.8608 77.8913C25.7597 78.5219 27.1857 81.9483 25.3028 83.9567L23.7965 92.7437C23.9551 97.5951 20.4347 95.7683 15.0095 90.4842Z" fill="#3F3D56"/>
<path d="M36.5364 85.3834C36.3422 85.2366 36.1182 85.1341 35.8802 85.0832C35.6421 85.0323 35.3958 85.0342 35.1586 85.0888C34.9214 85.1434 34.699 85.2493 34.5072 85.3992C34.3153 85.549 34.1586 85.739 34.0482 85.956L30.2547 85.6606L29.5129 87.9222L34.876 88.264C35.2527 88.4254 35.6755 88.443 36.0643 88.3135C36.4532 88.1839 36.781 87.9163 36.9856 87.5612C37.1903 87.2061 37.2576 86.7883 37.1748 86.3869C37.092 85.9855 36.8648 85.6285 36.5364 85.3834Z" fill="#FFB7B7"/>
<path d="M32.9042 89.0525L22.0946 87.0342L18.5788 81.1397C18.3529 80.5133 18.3851 79.8229 18.6683 79.2202C18.9514 78.6176 19.4624 78.1522 20.0887 77.9262C20.7151 77.7003 21.4055 77.7325 22.0081 78.0157C22.6108 78.2988 23.0762 78.8098 23.3021 79.4361L24.9512 83.9963L33.5 85.4113L32.9042 89.0525Z" fill="#CCCCCC"/>
<path d="M13.1678 67.4519C15.5775 67.4519 17.531 65.4984 17.531 63.0887C17.531 60.679 15.5775 58.7256 13.1678 58.7256C10.7581 58.7256 8.80469 60.679 8.80469 63.0887C8.80469 65.4984 10.7581 67.4519 13.1678 67.4519Z" fill="#2F2E41"/>
<path d="M9.40404 66.7019C9.96877 67.1101 10.623 67.377 11.3121 67.4805C12.0012 67.584 12.705 67.5209 13.3647 67.2966C14.0244 67.0723 14.6208 66.6933 15.1039 66.1912C15.5871 65.6891 15.943 65.0787 16.1419 64.4109C16.0666 65.0093 15.8681 65.5857 15.5589 66.1036C15.2496 66.6214 14.8364 67.0696 14.3452 67.4196C13.854 67.7697 13.2956 68.0142 12.7052 68.1376C12.1148 68.261 11.5052 68.2606 10.9149 68.1365C10.3247 68.0124 9.76654 67.7673 9.27578 67.4166C8.78502 67.066 8.3723 66.6173 8.06367 66.0991C7.75504 65.5809 7.55722 65.0043 7.48267 64.4057C7.40813 63.8072 7.45849 63.1997 7.63057 62.6216C7.53284 63.3983 7.64591 64.1869 7.95795 64.9049C8.26999 65.6228 8.76949 66.2435 9.40404 66.7019Z" fill="#2F2E41"/>
<path d="M26.6232 66.7067C25.8615 65.343 25.5701 64.7734 24.5879 63.9442C23.7195 63.2108 22.6512 62.9955 21.7895 63.6903C20.7702 63.2499 19.636 63.1501 18.5555 63.4056C17.4749 63.6611 16.5055 64.2584 15.7914 65.1087C15.0773 65.959 14.6565 67.0169 14.5916 68.1254C14.5267 69.2339 14.821 70.3338 15.4309 71.2616C16.0409 72.1895 16.9338 72.8959 17.9772 73.2759C19.0205 73.6558 20.1586 73.6891 21.2224 73.3707C22.2861 73.0524 23.2188 72.3993 23.8819 71.5087C24.545 70.618 24.9031 69.5372 24.903 68.4269C24.9023 68.2319 24.8905 68.0371 24.8679 67.8434C25.6168 67.7382 25.8742 66.8119 26.6232 66.7067Z" fill="#2F2E41"/>
<path d="M160.753 99.349C160.767 99.048 160.847 98.7539 160.987 98.4872C161.128 98.2205 161.325 97.9879 161.564 97.8056C161.804 97.6233 162.081 97.4958 162.376 97.4322C162.67 97.3685 162.975 97.3701 163.269 97.437L165.994 93.5962L168.732 94.6831L164.807 100.053C164.662 100.539 164.344 100.955 163.913 101.222C163.481 101.489 162.967 101.589 162.467 101.502C161.968 101.415 161.517 101.148 161.201 100.751C160.885 100.354 160.725 99.8555 160.753 99.349Z" fill="#A0616A"/>
<path d="M163.742 96.0457L168.588 87.8959L166.614 82.6313L169.303 75.4609L169.402 75.5035C169.467 75.5313 170.995 76.2131 171.221 78.6546L174.311 88.3658L166.064 99.0642L163.742 96.0457Z" fill="#3F3D56"/>
<path d="M137.425 66.0847C137.724 66.1222 138.011 66.2248 138.266 66.3852C138.521 66.5457 138.738 66.7601 138.901 67.0133C139.064 67.2666 139.17 67.5526 139.211 67.8511C139.252 68.1496 139.226 68.4534 139.137 68.7412L142.756 71.7554L141.46 74.4012L136.41 70.0727C135.936 69.8905 135.546 69.541 135.313 69.0903C135.08 68.6397 135.021 68.1193 135.146 67.6277C135.271 67.1361 135.572 66.7075 135.992 66.4231C136.413 66.1388 136.922 66.0183 137.425 66.0847Z" fill="#A0616A"/>
<path d="M140.487 69.3213L148.238 74.7826L153.639 73.2213L160.581 76.4565L160.53 76.552C160.498 76.6147 159.7 78.0852 157.248 78.1222L147.327 80.4521L137.298 71.403L140.487 69.3213Z" fill="#3F3D56"/>
<path d="M154.67 135.733H151.975L150.693 125.339L154.67 125.34L154.67 135.733Z" fill="#A0616A"/>
<path d="M150.051 134.963H155.247V138.235H146.779C146.779 137.805 146.863 137.38 147.028 136.983C147.192 136.586 147.433 136.225 147.737 135.921C148.041 135.617 148.402 135.376 148.799 135.212C149.196 135.048 149.621 134.963 150.051 134.963Z" fill="#2F2E41"/>
<path d="M165.439 135.733H162.745L161.463 125.339L165.44 125.34L165.439 135.733Z" fill="#A0616A"/>
<path d="M160.82 134.963H166.016V138.235H157.548C157.548 137.805 157.632 137.38 157.797 136.983C157.961 136.586 158.202 136.225 158.506 135.921C158.81 135.617 159.171 135.376 159.568 135.212C159.965 135.048 160.39 134.963 160.82 134.963Z" fill="#2F2E41"/>
<path d="M166.397 97.7964L166.178 113.181L165.958 133.401L161.123 132.962L158.705 105.049L155.628 132.962H150.636L150.133 104.829L151.892 98.6754L166.397 97.7964Z" fill="#2F2E41"/>
<path d="M151.41 98.7698L150.673 98.7379L154.095 79.8893L152.694 74.1923C152.621 73.8959 152.659 73.5831 152.802 73.3131C152.944 73.0432 153.181 72.8348 153.466 72.7276L155.987 71.7825L156.878 69.3335L163.903 70.0906L164.076 72.0045C164.838 72.2487 171.107 74.3367 170.675 76.7159C170.248 79.0642 167.727 86.4523 167.599 86.8267L167.157 97.4222L167.103 97.4493C167.038 97.482 162.195 99.8632 156.934 99.8628C155.036 99.8946 153.153 99.522 151.41 98.7698Z" fill="#3F3D56"/>
<path d="M160.115 68.1209C162.909 68.1209 165.174 65.856 165.174 63.0622C165.174 60.2683 162.909 58.0034 160.115 58.0034C157.321 58.0034 155.056 60.2683 155.056 63.0622C155.056 65.856 157.321 68.1209 160.115 68.1209Z" fill="#A0616A"/>
<path d="M164.213 67.9593C163.249 68.9862 161.458 68.4349 161.333 67.032C161.323 66.923 161.324 66.8134 161.335 66.7046C161.4 66.0832 161.759 65.519 161.673 64.8628C161.653 64.6995 161.592 64.5439 161.496 64.4107C160.728 63.3819 158.924 64.8708 158.199 63.9395C157.755 63.3685 158.277 62.4694 157.936 61.8311C157.486 60.9888 156.152 61.4043 155.316 60.943C154.385 60.4297 154.441 59.0019 155.053 58.1335C155.8 57.0744 157.11 56.5093 158.404 56.4278C159.697 56.3464 160.982 56.696 162.189 57.1667C163.562 57.7014 164.922 58.4404 165.766 59.6468C166.793 61.114 166.892 63.0865 166.379 64.8021C166.066 65.8458 165 67.1206 164.213 67.9593Z" fill="#2F2E41"/>
<path d="M109.404 134.335L110.155 132.402L103.057 128.583L101.948 131.437L109.404 134.335Z" fill="#FFB8B8"/>
<path d="M113.431 129.292C113.112 129.168 112.772 129.108 112.43 129.115C112.089 129.123 111.752 129.197 111.439 129.335C111.126 129.473 110.843 129.671 110.607 129.918C110.371 130.165 110.185 130.456 110.061 130.775L109.554 132.078L108.773 134.09L108.582 134.583L111.087 135.557L113.509 129.323L113.431 129.292Z" fill="#2F2E41"/>
<path d="M108.773 130.615L108.446 131.481L107.63 133.645L107.611 133.699C105.533 133.966 103.254 133.443 101.147 132.629C100.304 132.304 99.478 131.936 98.6728 131.525C97.4811 130.923 96.4141 130.288 95.5628 129.744C94.2812 128.922 93.4887 128.304 93.4887 128.304C93.4887 128.304 93.2794 128.493 92.9005 128.818C92.3927 129.252 91.5813 129.93 90.5536 130.729C90.1615 131.036 89.7406 131.357 89.2907 131.692C85.9747 134.151 81.7192 127.588 81.7192 127.588C81.7192 127.588 82.9161 126.826 83.2287 126.678C84.2355 126.202 86.6008 125.078 88.6414 124.079C89.6926 123.564 90.6565 123.081 91.3037 122.737C93.5953 121.517 96.4439 123.826 96.4439 123.826L108.773 130.615Z" fill="#2F2E41"/>
<path opacity="0.14" d="M108.773 130.615L108.446 131.481L107.63 133.645L107.611 133.699C105.533 133.966 103.254 133.443 101.147 132.629C100.304 132.304 99.478 131.936 98.6728 131.525C97.4811 130.923 96.4141 130.288 95.5628 129.744C94.2812 128.922 93.4887 128.304 93.4887 128.304C93.4887 128.304 93.2794 128.493 92.9005 128.818C92.3927 129.252 91.5813 129.93 90.5536 130.729C90.1615 131.036 89.7406 131.357 89.2907 131.692C85.9747 134.151 81.7192 127.588 81.7192 127.588C81.7192 127.588 82.9161 126.826 83.2287 126.678C84.2355 126.202 86.6008 125.078 88.6414 124.079C89.6926 123.564 90.6565 123.081 91.3037 122.737C93.5953 121.517 96.4439 123.826 96.4439 123.826L108.773 130.615Z" fill="black"/>
<path d="M75.6046 112.42H65.7925C65.5907 112.419 65.3972 112.339 65.2545 112.196C65.1118 112.054 65.0315 111.86 65.0312 111.658V107.429C65.0312 105.926 65.6283 104.484 66.6912 103.422C67.754 102.359 69.1955 101.762 70.6986 101.762C72.2017 101.762 73.6432 102.359 74.706 103.422C75.7688 104.484 76.3659 105.926 76.3659 107.429V111.658C76.3657 111.86 76.2854 112.054 76.1427 112.196C76 112.339 75.8065 112.419 75.6046 112.42Z" fill="#2F2E41"/>
<path d="M84.9362 117.732C84.7078 117.772 84.4909 117.862 84.3009 117.995C84.1109 118.128 83.9524 118.301 83.8365 118.502C83.7206 118.703 83.6502 118.927 83.6302 119.158C83.6101 119.389 83.641 119.621 83.7206 119.839L81.0525 122.293L82.1483 124.278L85.8676 120.76C86.2246 120.602 86.5113 120.319 86.6733 119.963C86.8354 119.608 86.8614 119.206 86.7466 118.833C86.6319 118.459 86.3841 118.141 86.0505 117.938C85.7168 117.736 85.3203 117.662 84.9362 117.732Z" fill="#FFB8B8"/>
<path d="M76.9076 128.89C76.7871 128.89 76.6664 128.884 76.5455 128.874C75.8258 128.814 75.1331 128.572 74.5324 128.171C73.9318 127.77 73.4429 127.223 73.1117 126.581L68.8371 118.353C68.5571 117.814 68.4956 117.188 68.6655 116.605C68.8355 116.021 69.2237 115.526 69.7495 115.222C70.2753 114.918 70.8982 114.828 71.4886 114.971C72.0789 115.114 72.5914 115.479 72.9193 115.991L76.8628 124.839L82.2289 120.479L85.3359 121.689L80.0888 127.482C79.6854 127.924 79.1942 128.278 78.6465 128.521C78.0988 128.763 77.5066 128.889 76.9076 128.89Z" fill="#6C63FF"/>
<path d="M108.804 137.054L109.702 135.184L102.918 130.832L101.593 133.591L108.804 137.054Z" fill="#FFB8B8"/>
<path d="M113.207 132.336C112.898 132.187 112.564 132.101 112.223 132.083C111.881 132.064 111.54 132.112 111.217 132.226C110.895 132.339 110.598 132.515 110.343 132.743C110.088 132.971 109.881 133.247 109.733 133.555L109.128 134.816L108.194 136.761L107.966 137.238L110.388 138.402L113.283 132.373L113.207 132.336Z" fill="#2F2E41"/>
<path d="M108.461 133.296L108.069 134.135L107.089 136.229L107.065 136.282C104.973 136.388 102.741 135.691 100.703 134.718C99.8871 134.329 99.0921 133.899 98.3209 133.428C97.1789 132.736 96.1639 132.02 95.3569 131.413C94.1423 130.494 93.3996 129.818 93.3996 129.818C93.3996 129.818 93.1763 129.99 92.7736 130.284C92.234 130.679 91.3729 131.293 90.2868 132.01C89.8723 132.286 89.428 132.573 88.9537 132.873C85.4585 135.07 80.4882 137.747 76.2605 138.312C68.8355 139.305 70.5831 129.396 70.5831 129.396L76.4923 126.327L79.0012 126.837L81.7942 127.402L82.7839 127.603C82.7839 127.603 82.9717 127.532 83.2948 127.408C84.3352 127.011 86.7798 126.072 88.8911 125.233C89.9789 124.8 90.977 124.392 91.6486 124.099C94.0272 123.059 96.69 125.58 96.69 125.58L108.461 133.296Z" fill="#2F2E41"/>
<path d="M59.7695 138.549C59.9956 138.497 60.2075 138.396 60.3904 138.253C60.5732 138.111 60.7226 137.93 60.828 137.723C60.9333 137.517 60.9921 137.289 61.0001 137.058C61.0082 136.826 60.9653 136.595 60.8746 136.382L63.4123 133.793L62.2153 131.867L58.6829 135.573C58.3345 135.749 58.0628 136.047 57.9194 136.411C57.7759 136.774 57.7707 137.177 57.9046 137.544C58.0386 137.91 58.3024 138.215 58.6461 138.4C58.9898 138.586 59.3896 138.638 59.7695 138.549Z" fill="#FFB8B8"/>
<path d="M72.0879 112.609C74.273 112.609 76.0443 110.838 76.0443 108.653C76.0443 106.468 74.273 104.696 72.0879 104.696C69.9029 104.696 68.1316 106.468 68.1316 108.653C68.1316 110.838 69.9029 112.609 72.0879 112.609Z" fill="#FFB8B8"/>
<path d="M66.9407 119.635L70.387 129.406L70.3664 129.44C69.887 130.232 69.7303 130.872 69.9134 131.288C69.9616 131.394 70.0322 131.489 70.1204 131.565C70.2085 131.641 70.3121 131.697 70.424 131.729L78.5797 126.028L78.2941 123.744L78.31 123.718C79.0983 122.457 79.3536 121.314 79.0688 120.323C78.8108 119.521 78.2537 118.849 77.5132 118.447L77.4848 118.425L73.417 113.474L67.9794 114.44L66.9407 119.635Z" fill="#6C63FF"/>
<path d="M61.6999 136.785L59.3911 133.944L64.9568 124.756L67.5517 116.735C67.6935 116.297 67.9275 115.894 68.2381 115.554C68.5487 115.214 68.9285 114.944 69.352 114.763C69.7756 114.582 70.233 114.494 70.6934 114.505C71.1538 114.516 71.6066 114.626 72.0211 114.826C72.4357 115.027 72.8024 115.314 73.0966 115.668C73.3908 116.023 73.6056 116.436 73.7266 116.88C73.8475 117.325 73.8718 117.79 73.7978 118.244C73.7238 118.699 73.5532 119.132 73.2975 119.515L68.5336 126.653L61.6999 136.785Z" fill="#6C63FF"/>
<path d="M77.7069 107.852H71.707L71.6455 106.99L71.3379 107.852H70.414L70.2921 106.145L69.6824 107.852H67.8948V107.767C67.8961 106.579 68.3689 105.439 69.2093 104.599C70.0498 103.758 71.1893 103.286 72.3779 103.284H73.2238C74.4123 103.286 75.5519 103.758 76.3923 104.599C77.2328 105.439 77.7055 106.579 77.7069 107.767V107.852Z" fill="#2F2E41"/>
<path d="M71.658 113.21C71.6128 113.21 71.5677 113.206 71.5232 113.198L67.1299 112.423V105.162H71.9661L71.8464 105.301C70.1805 107.244 71.4356 110.394 72.3319 112.099C72.398 112.224 72.4275 112.365 72.4169 112.506C72.4064 112.647 72.3563 112.782 72.2723 112.896C72.2021 112.993 72.1097 113.072 72.0029 113.127C71.8961 113.181 71.7779 113.21 71.658 113.21Z" fill="#2F2E41"/>
<path d="M137.296 100.201V110.43H91.9812L85.4377 118.281L86.185 110.43H83.0012V100.201H137.296Z" fill="#B1CFFF"/>
<path d="M101.841 107.153C102.865 107.153 103.695 106.323 103.695 105.299C103.695 104.275 102.865 103.445 101.841 103.445C100.817 103.445 99.9868 104.275 99.9868 105.299C99.9868 106.323 100.817 107.153 101.841 107.153Z" fill="white"/>
<path d="M95.5836 107.153C96.6075 107.153 97.4375 106.323 97.4375 105.299C97.4375 104.275 96.6075 103.445 95.5836 103.445C94.5597 103.445 93.7297 104.275 93.7297 105.299C93.7297 106.323 94.5597 107.153 95.5836 107.153Z" fill="white"/>
<path d="M89.3268 107.153C90.3507 107.153 91.1807 106.323 91.1807 105.299C91.1807 104.275 90.3507 103.445 89.3268 103.445C88.3029 103.445 87.4729 104.275 87.4729 105.299C87.4729 106.323 88.3029 107.153 89.3268 107.153Z" fill="white"/>
<path d="M139.731 89.2627H65.6832C65.6217 89.2627 65.5627 89.2383 65.5193 89.1948C65.4758 89.1513 65.4514 89.0924 65.4514 89.0309V53.5398C65.4514 53.4784 65.4758 53.4194 65.5193 53.376C65.5627 53.3325 65.6217 53.3081 65.6832 53.3081C65.7446 53.3081 65.8036 53.3325 65.847 53.376C65.8905 53.4194 65.9149 53.4784 65.9149 53.5398V88.7992H139.731C139.792 88.7992 139.851 88.8236 139.895 88.8671C139.938 88.9105 139.963 88.9695 139.963 89.0309C139.963 89.0924 139.938 89.1513 139.895 89.1948C139.851 89.2383 139.792 89.2627 139.731 89.2627Z" fill="#3F3D56"/>
<path d="M81.5041 86.7136H74.7692C74.5868 86.7134 74.412 86.6408 74.283 86.5119C74.1541 86.3829 74.0815 86.2081 74.0813 86.0257V76.7416C74.0815 76.5592 74.1541 76.3843 74.283 76.2554C74.412 76.1264 74.5868 76.0539 74.7692 76.0537H81.5041C81.6865 76.0539 81.8614 76.1264 81.9903 76.2554C82.1193 76.3843 82.1918 76.5592 82.192 76.7416V86.0257C82.1918 86.2081 82.1193 86.3829 81.9903 86.5119C81.8614 86.6408 81.6865 86.7134 81.5041 86.7136Z" fill="#1B3A6C"/>
<path d="M93.7861 86.7134H87.0512C86.8688 86.7132 86.694 86.6406 86.565 86.5117C86.436 86.3827 86.3635 86.2079 86.3633 86.0255V67.9354C86.3635 67.753 86.436 67.5782 86.565 67.4492C86.694 67.3203 86.8688 67.2478 87.0512 67.2476H93.7861C93.9685 67.2478 94.1433 67.3203 94.2723 67.4492C94.4013 67.5782 94.4738 67.753 94.474 67.9354V86.0255C94.4738 86.2079 94.4013 86.3827 94.2723 86.5117C94.1433 86.6406 93.9685 86.7132 93.7861 86.7134Z" fill="#1B3A6C"/>
<path d="M106.068 86.7136H99.3334C99.151 86.7134 98.9762 86.6408 98.8472 86.5119C98.7183 86.3829 98.6457 86.2081 98.6455 86.0257V76.7416C98.6457 76.5592 98.7183 76.3843 98.8472 76.2554C98.9762 76.1264 99.151 76.0539 99.3334 76.0537H106.068C106.251 76.0539 106.426 76.1264 106.555 76.2554C106.683 76.3843 106.756 76.5592 106.756 76.7416V86.0257C106.756 86.2081 106.683 86.3829 106.555 86.5119C106.426 86.6408 106.251 86.7134 106.068 86.7136Z" fill="#1B3A6C"/>
<path d="M118.35 86.713H111.615C111.437 86.7168 111.264 86.6499 111.136 86.5268C111.007 86.4037 110.932 86.2345 110.927 86.0563V64.4278C110.932 64.2496 111.007 64.0805 111.136 63.9574C111.264 63.8343 111.437 63.7673 111.615 63.7712H118.35C118.528 63.7673 118.701 63.8343 118.83 63.9574C118.959 64.0805 119.034 64.2496 119.038 64.4278V86.0563C119.034 86.2345 118.959 86.4037 118.83 86.5268C118.701 86.6499 118.528 86.7168 118.35 86.713Z" fill="#1B3A6C"/>
<path d="M130.632 86.7134H123.897C123.715 86.7132 123.54 86.6406 123.411 86.5117C123.282 86.3827 123.21 86.2079 123.209 86.0255V58.2025C123.21 58.0201 123.282 57.8453 123.411 57.7163C123.54 57.5874 123.715 57.5149 123.897 57.5146H130.632C130.815 57.5149 130.99 57.5874 131.119 57.7163C131.247 57.8453 131.32 58.0201 131.32 58.2025V86.0255C131.32 86.2079 131.247 86.3827 131.119 86.5117C130.99 86.6406 130.815 86.7132 130.632 86.7134Z" fill="#1B3A6C"/>
<path d="M78.1368 73.2725C78.9047 73.2725 79.5272 72.65 79.5272 71.8821C79.5272 71.1142 78.9047 70.4917 78.1368 70.4917C77.3688 70.4917 76.7463 71.1142 76.7463 71.8821C76.7463 72.65 77.3688 73.2725 78.1368 73.2725Z" fill="#3F3D56"/>
<path d="M90.4187 64.2349C91.1866 64.2349 91.8091 63.6124 91.8091 62.8445C91.8091 62.0766 91.1866 61.4541 90.4187 61.4541C89.6508 61.4541 89.0283 62.0766 89.0283 62.8445C89.0283 63.6124 89.6508 64.2349 90.4187 64.2349Z" fill="#3F3D56"/>
<path d="M102.701 73.2725C103.469 73.2725 104.091 72.65 104.091 71.8821C104.091 71.1142 103.469 70.4917 102.701 70.4917C101.933 70.4917 101.31 71.1142 101.31 71.8821C101.31 72.65 101.933 73.2725 102.701 73.2725Z" fill="#3F3D56"/>
<path d="M114.983 59.8316C115.751 59.8316 116.373 59.2091 116.373 58.4412C116.373 57.6733 115.751 57.0508 114.983 57.0508C114.215 57.0508 113.592 57.6733 113.592 58.4412C113.592 59.2091 114.215 59.8316 114.983 59.8316Z" fill="#3F3D56"/>
<path d="M127.265 54.734C128.033 54.734 128.655 54.1114 128.655 53.3435C128.655 52.5756 128.033 51.9531 127.265 51.9531C126.497 51.9531 125.874 52.5756 125.874 53.3435C125.874 54.1114 126.497 54.734 127.265 54.734Z" fill="#3F3D56"/>
<path d="M102.73 72.1935L90.4186 62.9723L78.2756 72.0674L77.9976 71.6967L90.4186 62.3932L102.671 71.5706L114.847 58.2462L114.896 58.2263L127.178 53.2778L127.351 53.7077L115.118 58.6365L102.73 72.1935Z" fill="#3F3D56"/>
<circle cx="113.653" cy="37.4437" r="10.3503" fill="#D9D9D9" stroke="black" stroke-width="0.155643"/>
<circle cx="113.653" cy="35.7318" r="10.3503" fill="#FED201" stroke="black" stroke-width="0.155643"/>
<circle cx="113.653" cy="35.7314" r="7.05274" stroke="black" stroke-width="0.213719" stroke-linecap="square" stroke-dasharray="3.63 3.63"/>
<g clip-path="url(#clip0_444_470)">
<path d="M111.785 33.397C111.785 33.397 112.327 33.397 112.874 33.397M114.275 38.3776L112.096 36.1986C112.096 36.1986 112.563 36.1986 112.874 36.1986C113.186 36.1986 114.586 36.2178 114.586 34.7978C114.586 33.3778 113.186 33.397 112.874 33.397M115.52 33.397C115.52 33.397 113.786 33.397 112.874 33.397M111.785 34.6421H115.52" stroke="black" stroke-width="0.311287"/>
</g>
<circle cx="42.7416" cy="44.3959" r="10.3503" fill="#D9D9D9" stroke="black" stroke-width="0.155643"/>
<circle cx="42.7416" cy="42.6835" r="10.3503" fill="#FED201" stroke="black" stroke-width="0.155643"/>
<circle cx="42.7419" cy="42.6835" r="7.05274" stroke="black" stroke-width="0.213719" stroke-linecap="square" stroke-dasharray="3.63 3.63"/>
<g clip-path="url(#clip1_444_470)">
<path d="M40.8738 40.3491C40.8738 40.3491 41.4162 40.3491 41.9633 40.3491M43.3641 45.3297L41.1851 43.1507C41.1851 43.1507 41.652 43.1507 41.9633 43.1507C42.2746 43.1507 43.6754 43.1699 43.6754 41.7499C43.6754 40.3299 42.2746 40.3491 41.9633 40.3491M44.6092 40.3491C44.6092 40.3491 42.875 40.3491 41.9633 40.3491M40.8738 41.5943H44.6092" stroke="black" stroke-width="0.311287"/>
</g>
<circle cx="144.242" cy="12.4164" r="10.3503" fill="#D9D9D9" stroke="black" stroke-width="0.155643"/>
<circle cx="144.242" cy="10.704" r="10.3503" fill="#FED201" stroke="black" stroke-width="0.155643"/>
<circle cx="144.242" cy="10.7035" r="7.05274" stroke="black" stroke-width="0.213719" stroke-linecap="square" stroke-dasharray="3.63 3.63"/>
<g clip-path="url(#clip2_444_470)">
<path d="M142.374 8.36964C142.374 8.36964 142.916 8.36964 143.464 8.36964M144.864 13.3502L142.685 11.1712C142.685 11.1712 143.152 11.1712 143.464 11.1712C143.775 11.1712 145.176 11.1905 145.176 9.77043C145.176 8.35041 143.775 8.36964 143.464 8.36964M146.109 8.36964C146.109 8.36964 144.375 8.36964 143.464 8.36964M142.374 9.61479H146.109" stroke="black" stroke-width="0.311287"/>
</g>
<circle cx="151.426" cy="44.1639" r="10.3503" fill="#D9D9D9" stroke="black" stroke-width="0.155643"/>
<circle cx="151.426" cy="42.452" r="10.3503" fill="#FED201" stroke="black" stroke-width="0.155643"/>
<circle cx="151.426" cy="42.4516" r="7.05274" stroke="black" stroke-width="0.213719" stroke-linecap="square" stroke-dasharray="3.63 3.63"/>
<g clip-path="url(#clip3_444_470)">
<path d="M149.558 40.1172C149.558 40.1172 150.1 40.1172 150.647 40.1172M152.048 45.0978L149.869 42.9188C149.869 42.9188 150.336 42.9188 150.647 42.9188C150.959 42.9188 152.359 42.938 152.359 41.518C152.359 40.098 150.959 40.1172 150.647 40.1172M153.293 40.1172C153.293 40.1172 151.559 40.1172 150.647 40.1172M149.558 41.3623H153.293" stroke="black" stroke-width="0.311287"/>
</g>
<path d="M172.745 113.363C171.508 113.363 170.298 112.996 169.269 112.308C168.24 111.621 167.438 110.644 166.965 109.5C166.491 108.357 166.367 107.099 166.609 105.885C166.85 104.672 167.446 103.557 168.321 102.682C169.196 101.807 170.311 101.211 171.524 100.969C172.738 100.728 173.996 100.852 175.14 101.325C176.283 101.799 177.26 102.601 177.948 103.63C178.635 104.659 179.002 105.868 179.002 107.106C179 108.765 178.34 110.355 177.167 111.528C175.994 112.701 174.404 113.361 172.745 113.363ZM172.745 101.313C171.599 101.313 170.479 101.652 169.527 102.289C168.574 102.926 167.831 103.83 167.393 104.889C166.954 105.948 166.84 107.112 167.063 108.236C167.287 109.36 167.838 110.392 168.649 111.203C169.459 112.013 170.491 112.565 171.615 112.788C172.739 113.012 173.904 112.897 174.962 112.458C176.021 112.02 176.926 111.277 177.562 110.325C178.199 109.372 178.539 108.252 178.539 107.106C178.537 105.57 177.926 104.097 176.84 103.011C175.754 101.925 174.281 101.314 172.745 101.313Z" fill="#1B3A6C"/>
<defs>
<clipPath id="clip0_444_470">
<rect width="3.73544" height="4.9806" fill="white" transform="translate(111.785 33.2412)"/>
</clipPath>
<clipPath id="clip1_444_470">
<rect width="3.73544" height="4.9806" fill="white" transform="translate(40.8738 40.1934)"/>
</clipPath>
<clipPath id="clip2_444_470">
<rect width="3.73544" height="4.9806" fill="white" transform="translate(142.374 8.21387)"/>
</clipPath>
<clipPath id="clip3_444_470">
<rect width="3.73544" height="4.9806" fill="white" transform="translate(149.558 39.9614)"/>
</clipPath>
</defs>
</svg>
