<svg width="43" height="43" viewBox="0 0 43 43" fill="none" xmlns="http://www.w3.org/2000/svg">
<path d="M36.3994 33.0015H32.7265C32.3564 33.0015 31.9871 33.0401 31.6247 33.1136C30.4992 31.6546 28.9572 30.5503 27.2487 29.9898C27.0164 29.9136 26.7646 30.0196 26.6497 30.242L23.6746 35.9695L23.024 33.5603C22.9404 33.2511 22.9894 32.9621 23.1694 32.7003L24.7663 30.3839C24.877 30.2237 24.8913 30.0135 24.8043 29.8383C24.7173 29.6632 24.5432 29.5528 24.3531 29.5528H18.9937C18.8036 29.5528 18.6295 29.6632 18.5425 29.8383C18.4554 30.0135 18.4706 30.2237 18.5805 30.3839L20.1808 32.7047C20.3599 32.9639 20.4089 33.252 20.3278 33.5594L19.6848 35.9922L16.698 30.242C16.5822 30.0196 16.3313 29.9136 16.0989 29.9898C14.3913 30.5503 12.8484 31.6546 11.723 33.1136C11.3605 33.0392 10.9912 33.0015 10.6212 33.0015H6.94991C3.60817 33.0015 0.88916 36.0132 0.88916 39.7159V40.434C0.88916 41.5926 1.79831 42.5358 2.91701 42.5358H10.246H33.1033H40.4323C41.5501 42.5358 42.4601 41.5935 42.4601 40.434V39.7159C42.4601 36.0132 39.7411 33.0015 36.3994 33.0015ZM21.0072 32.0934L19.9797 30.6037H23.3679L22.3438 32.089C21.9864 32.6075 21.8808 33.2301 22.0464 33.8431L22.9809 37.3023L21.6747 39.8201L20.3827 37.333L21.3071 33.837C21.4685 33.2266 21.362 32.6074 21.0072 32.0934ZM1.90309 40.434V39.7159C1.90309 36.593 4.16668 34.0524 6.94991 34.0524H10.6229C10.7733 34.0524 10.9228 34.0621 11.0724 34.077C10.1987 35.5526 9.73905 37.2305 9.73905 38.9803V41.4849H2.91701C2.35766 41.4841 1.90309 41.0129 1.90309 40.434ZM32.5963 41.4841H28.9031V38.7071C28.9031 38.4172 28.6758 38.1816 28.3961 38.1816C28.1165 38.1816 27.8892 38.4172 27.8892 38.7071V41.4841H15.4601V38.7071C15.4601 38.4172 15.2328 38.1816 14.9532 38.1816C14.6735 38.1816 14.4462 38.4172 14.4462 38.7071V41.4841H10.753V38.9794C10.753 35.4554 12.8493 32.3544 16.011 31.1318L21.2285 41.1767C21.3172 41.3466 21.4888 41.4534 21.6747 41.4534C21.8605 41.4534 22.0329 41.3474 22.1208 41.1767L27.3383 31.1318C30.5 32.3544 32.5963 35.4554 32.5963 38.9794V41.4841ZM41.4462 40.434C41.4462 41.0129 40.9916 41.4849 40.4323 41.4849H33.6103V38.9803C33.6103 37.2305 33.1506 35.5526 32.2769 34.077C32.4265 34.0621 32.5761 34.0524 32.7265 34.0524H36.3994C39.1818 34.0524 41.4462 36.593 41.4462 39.7159V40.434ZM34.5659 22.3183C33.2334 22.3183 32.2254 22.7272 31.3931 23.6047C30.2559 24.8045 29.9745 27.2505 30.7527 29.1745C31.4396 30.8735 32.8295 31.8482 34.5642 31.8482C36.298 31.8482 37.6871 30.8735 38.374 29.1745C39.1522 27.2505 38.8708 24.8036 37.7336 23.6047C36.9004 22.7272 35.8941 22.3183 34.5659 22.3183ZM37.4387 28.7682C37.0644 29.6938 36.2617 30.7973 34.5634 30.7973C32.8642 30.7973 32.0615 29.6938 31.6872 28.7682C31.0763 27.2584 31.2723 25.231 32.1164 24.3412C32.7628 23.6599 33.4953 23.3683 34.5659 23.3683C35.6178 23.3683 36.3724 23.6678 37.0094 24.3412C37.8535 25.231 38.0496 27.2584 37.4387 28.7682ZM8.7868 31.8482C10.5206 31.8482 11.9097 30.8735 12.5966 29.1745C13.3748 27.2505 13.0935 24.8036 11.9562 23.6047C11.1239 22.7272 10.1176 22.3183 8.78934 22.3183C7.45687 22.3183 6.44886 22.7272 5.61659 23.6047C4.4793 24.8045 4.19794 27.2505 4.97613 29.1745C5.66306 30.8735 7.05214 31.8482 8.7868 31.8482ZM6.33902 24.3412C6.98539 23.6599 7.71795 23.3683 8.78849 23.3683C9.84044 23.3683 10.5941 23.6687 11.2321 24.3412C12.0753 25.2301 12.2713 27.2575 11.6604 28.7682C11.2861 29.6938 10.4834 30.7973 8.78511 30.7973C7.08594 30.7973 6.28325 29.6938 5.90894 28.7682C5.29974 27.2575 5.49577 25.231 6.33902 24.3412ZM21.6789 15.3709C19.8124 15.3709 18.4022 15.941 17.2404 17.1662C15.6502 18.8424 15.2633 22.2771 16.3591 24.9849C17.3325 27.3915 19.221 28.7165 21.6755 28.7165C24.1292 28.7165 26.0168 27.3915 26.9902 24.9849C28.086 22.2762 27.6982 18.8415 26.1089 17.1653C24.9471 15.941 23.5394 15.3709 21.6789 15.3709ZM26.0548 24.5786C25.5884 25.7311 24.3996 27.6656 21.6755 27.6656C18.9497 27.6656 17.7609 25.7311 17.2945 24.5786C16.3608 22.271 16.6616 19.2759 17.9637 17.9027C18.9345 16.8781 20.0811 16.4218 21.6789 16.4218C23.2707 16.4218 24.4139 16.879 25.3856 17.9027C26.6885 19.2759 26.9885 22.271 26.0548 24.5786ZM15.8539 5.6361L18.4047 7.8281L17.5843 11.1551C17.5328 11.3635 17.6097 11.5833 17.7778 11.7103C17.9459 11.8373 18.1715 11.8443 18.3473 11.7296L21.1466 9.89224L23.9459 11.7296C24.0287 11.7839 24.1233 11.811 24.2171 11.811C24.3218 11.811 24.4266 11.7777 24.5153 11.7103C24.6835 11.5833 24.7604 11.3635 24.7088 11.1551L23.8884 7.8281L26.4384 5.6361C26.5981 5.4986 26.6615 5.27441 26.5973 5.06948C26.5331 4.86456 26.3548 4.72094 26.1478 4.7078L22.8415 4.48886L21.6189 1.29675C21.542 1.09621 21.3553 0.964844 21.1474 0.964844C20.9396 0.964844 20.7528 1.09621 20.6759 1.29675L19.4525 4.48799L16.1454 4.70692C15.9384 4.72094 15.7601 4.86456 15.6959 5.06861C15.6317 5.27353 15.6942 5.4986 15.8539 5.6361ZM19.8369 5.51524C20.0321 5.50211 20.2036 5.37337 20.2754 5.18508L21.1457 2.91339L22.016 5.18508C22.0887 5.37425 22.2594 5.50298 22.4545 5.51524L24.8077 5.67113L22.9928 7.23084C22.8415 7.36045 22.7765 7.56888 22.8255 7.76504L23.4093 10.1331L21.4169 8.82558C21.2513 8.71698 21.0401 8.71698 20.8745 8.82558L18.8821 10.1331L19.466 7.76504C19.5141 7.568 19.4491 7.36045 19.2987 7.23084L17.4838 5.67113L19.8369 5.51524ZM4.73532 12.925L7.28788 15.1152L6.46914 18.4431C6.41759 18.6515 6.49448 18.8713 6.66263 18.9983C6.75135 19.0648 6.85527 19.0981 6.96004 19.0981C7.05383 19.0981 7.14847 19.071 7.23127 19.0167L10.0297 17.1776L12.8307 19.0123C13.0064 19.127 13.232 19.12 13.4002 18.993C13.5683 18.8661 13.6444 18.6462 13.5928 18.4378L12.7698 15.1108L15.319 12.9171C15.4787 12.7796 15.5412 12.5545 15.477 12.3505C15.4128 12.1455 15.2345 12.0028 15.0267 11.9888L11.7196 11.7716L10.4944 8.58037C10.4175 8.3807 10.2308 8.24933 10.0238 8.24933C9.81594 8.24933 9.62921 8.3807 9.55316 8.58124L8.33223 11.7742L5.02598 11.9958C4.81897 12.0098 4.64069 12.1534 4.57647 12.3584C4.51226 12.5633 4.57563 12.7883 4.73532 12.925ZM8.71836 12.8015C8.91354 12.7883 9.08507 12.6596 9.15689 12.4704L10.0255 10.1988L10.8975 12.4696C10.9701 12.6587 11.1408 12.7866 11.3368 12.7997L13.69 12.9539L11.8759 14.5153C11.7255 14.6449 11.6596 14.8534 11.7086 15.0504L12.2941 17.4176L10.3009 16.1118C10.1353 16.0032 9.92409 16.0032 9.75848 16.1118L7.76696 17.4211L8.34912 15.053C8.39729 14.856 8.33223 14.6484 8.18098 14.5188L6.36436 12.96L8.71836 12.8015ZM27.4988 11.9827L30.0531 14.1703L29.2377 17.499C29.187 17.7074 29.2639 17.9272 29.432 18.0542C29.5208 18.1208 29.6247 18.1541 29.7295 18.1541C29.8241 18.1541 29.9179 18.1269 30.0015 18.0717L32.7983 16.2292L35.6009 18.0612C35.7767 18.176 36.0023 18.1681 36.1704 18.0411C36.3386 17.9141 36.4146 17.6943 36.3631 17.4859L35.5367 14.1598L38.0842 11.9634C38.2439 11.8259 38.3064 11.6008 38.2422 11.3959C38.178 11.191 37.9989 11.0482 37.7919 11.0351L34.4848 10.8214L33.2562 7.63193C33.1793 7.43226 32.9926 7.3009 32.7856 7.3009C32.5777 7.3009 32.3902 7.43313 32.3141 7.63368L31.0966 10.8275L27.7903 11.0526C27.5833 11.0666 27.405 11.2102 27.3408 11.4152C27.2766 11.6201 27.3383 11.8452 27.4988 11.9827ZM31.481 11.8548C31.6762 11.8417 31.8469 11.7129 31.9195 11.5238L32.7856 9.25119L33.6601 11.5211C33.7328 11.7094 33.9035 11.8382 34.0995 11.8504L36.4526 12.0019L34.6402 13.5651C34.4898 13.6947 34.4248 13.9032 34.4738 14.1002L35.0619 16.4665L33.0678 15.1625C32.9022 15.0539 32.691 15.0548 32.5254 15.1634L30.5355 16.4744L31.1152 14.1055C31.1633 13.9084 31.0974 13.7009 30.947 13.5713L29.1287 12.0151L31.481 11.8548Z" fill="#3ABBC6"/>
</svg>
