<svg width="77" height="83" viewBox="0 0 77 83" fill="none" xmlns="http://www.w3.org/2000/svg">
<path d="M70.4045 74.9688V75.8915H75.6967V74.9688H70.4045ZM72.5575 72.7151V78.3361H73.5385V72.7151H72.5575Z" fill="#E5E5E5"/>
<path d="M53.1262 57.6915V58.6142H58.4184V57.6915H53.1262ZM55.2791 55.4378V61.0588H56.2602V55.4378H55.2791Z" fill="#E5E5E5"/>
<path d="M35.8498 5.85849V6.78118H41.142V5.85849H35.8498ZM38.0028 3.60478V9.22579H38.9838V3.60478H38.0028Z" fill="#E5E5E5"/>
<path d="M35.8498 23.1358V24.0585H41.142V23.1358H35.8498ZM38.0028 20.8821V26.5031H38.9838V20.8821H38.0028Z" fill="#E5E5E5"/>
<path d="M35.8498 40.4137V41.3364H41.142V40.4137H35.8498ZM38.0028 38.16V43.781H38.9838V38.16H38.0028Z" fill="#6246E5"/>
<path d="M35.8498 57.6915V58.6142H41.142V57.6915H35.8498ZM38.0028 55.4378V61.0588H38.9838V55.4378H38.0028Z" fill="#E5E5E5"/>
<path d="M35.8498 74.9688V75.8915H41.142V74.9688H35.8498ZM38.0028 72.7151V78.3361H38.9838V72.7151H38.0028Z" fill="#E5E5E5"/>
<path d="M18.5715 5.85849V6.78118H23.8637V5.85849H18.5715ZM20.7244 3.60478V9.22579H21.7055V3.60478H20.7244Z" fill="#E5E5E5"/>
<path d="M18.5715 23.1363V24.059H23.8637V23.1363H18.5715ZM20.7244 20.8826V26.5036H21.7055V20.8826H20.7244Z" fill="#E5E5E5"/>
<path d="M18.5715 40.4137V41.3364H23.8637V40.4137H18.5715ZM20.7244 38.16V43.781H21.7055V38.16H20.7244Z" fill="#E5E5E5"/>
<path d="M18.5715 57.6915V58.6142H23.8637V57.6915H18.5715ZM20.7244 55.4378V61.0588H21.7055V55.4378H20.7244Z" fill="#E5E5E5"/>
<path d="M18.5715 74.9688V75.8915H23.8637V74.9688H18.5715ZM20.7244 72.7151V78.3361H21.7055V72.7151H20.7244Z" fill="#E5E5E5"/>
<path d="M1.29415 5.85849V6.78118H6.58638V5.85849H1.29415ZM3.4471 3.60478V9.22579H4.42812V3.60478H3.4471Z" fill="#FF7152"/>
<path d="M1.29415 23.1358V24.0585H6.58638V23.1358H1.29415ZM3.4471 20.8821V26.5031H4.42812V20.8821H3.4471Z" fill="#E5E5E5"/>
<path d="M1.29415 40.4137V41.3364H6.58638V40.4137H1.29415ZM3.4471 38.16V43.781H4.42812V38.16H3.4471Z" fill="#E5E5E5"/>
<path d="M1.29415 57.6915V58.6142H6.58638V57.6915H1.29415ZM3.4471 55.4378V61.0588H4.42812V55.4378H3.4471Z" fill="#E5E5E5"/>
<path d="M1.29415 74.9688V75.8915H6.58638V74.9688H1.29415ZM3.4471 72.7151V78.3361H4.42812V72.7151H3.4471Z" fill="#E5E5E5"/>
</svg>
