<svg width="194" height="135" viewBox="0 0 194 135" fill="none" xmlns="http://www.w3.org/2000/svg">
<path d="M84.2427 31.5607H83.513V11.57C83.513 10.0506 83.2137 8.54612 82.6323 7.14238C82.0508 5.73864 81.1986 4.46317 80.1242 3.38879C79.0498 2.31441 77.7744 1.46217 76.3706 0.88072C74.9669 0.29927 73.4624 1.24057e-06 71.943 0H29.5901C28.0707 -3.22539e-06 26.5662 0.299261 25.1624 0.880707C23.7587 1.46215 22.4832 2.31439 21.4088 3.38877C20.3344 4.46314 19.4822 5.73861 18.9007 7.14235C18.3193 8.54609 18.02 10.0506 18.02 11.57V121.24C18.02 124.309 19.239 127.252 21.4088 129.421C23.5786 131.591 26.5215 132.81 29.59 132.81H71.9429C75.0115 132.81 77.9543 131.591 80.1242 129.421C82.294 127.252 83.513 124.309 83.513 121.24V45.7904H84.2427V31.5607Z" fill="#3F3D56"/>
<path d="M72.4096 3.01026H66.8812C67.1354 3.63357 67.2324 4.30984 67.1637 4.9795C67.0951 5.64915 66.8627 6.29163 66.4873 6.85035C66.1118 7.40907 65.6047 7.86687 65.0106 8.18343C64.4165 8.49999 63.7536 8.66559 63.0805 8.66564H38.8171C38.1439 8.66559 37.4811 8.49999 36.887 8.18343C36.2929 7.86687 35.7858 7.40907 35.4103 6.85035C35.0348 6.29163 34.8025 5.64915 34.7338 4.97949C34.6651 4.30984 34.7621 3.63357 35.0164 3.01025H29.8528C27.5612 3.01025 25.3635 3.92057 23.7431 5.54095C22.1227 7.16134 21.2124 9.35905 21.2124 11.6506V121.16C21.2124 122.295 21.4359 123.418 21.8701 124.466C22.3043 125.515 22.9408 126.467 23.7431 127.27C24.5454 128.072 25.4979 128.708 26.5462 129.143C27.5945 129.577 28.7181 129.8 29.8528 129.8H72.4096C73.5443 129.8 74.6678 129.577 75.7161 129.143C76.7644 128.708 77.7169 128.072 78.5193 127.27C79.3216 126.467 79.9581 125.515 80.3923 124.466C80.8265 123.418 81.05 122.295 81.05 121.16V11.6506C81.05 10.516 80.8265 9.39239 80.3923 8.3441C79.9581 7.2958 79.3216 6.34329 78.5193 5.54096C77.7169 4.73863 76.7644 4.10218 75.7161 3.66796C74.6678 3.23375 73.5443 3.01026 72.4096 3.01026Z" fill="white"/>
<path d="M71.3435 127.919H30.9187C26.2738 127.919 22.4949 124.547 22.4949 120.401V114.958C22.4949 111.653 25.5044 108.965 29.2035 108.965H73.0587C76.7578 108.965 79.7673 111.653 79.7673 114.958V120.401C79.7673 124.547 75.9884 127.919 71.3435 127.919Z" fill="#D0E2FF"/>
<path d="M35.1683 36.4345H26.151C25.9895 36.4343 25.8346 36.3701 25.7204 36.2558C25.6062 36.1416 25.5419 35.9868 25.5417 35.8252V26.808C25.5419 26.6465 25.6062 26.4916 25.7204 26.3774C25.8346 26.2632 25.9895 26.1989 26.151 26.1987H35.1683C35.3298 26.1989 35.4847 26.2632 35.5989 26.3774C35.7131 26.4916 35.7773 26.6465 35.7775 26.808V35.8252C35.7773 35.9868 35.7131 36.1416 35.5989 36.2558C35.4847 36.3701 35.3298 36.4343 35.1683 36.4345Z" fill="#1B3A6C"/>
<path d="M48.816 36.4345H39.7987C39.6372 36.4343 39.4823 36.3701 39.3681 36.2558C39.2539 36.1416 39.1896 35.9868 39.1895 35.8252V26.808C39.1896 26.6465 39.2539 26.4916 39.3681 26.3774C39.4823 26.2632 39.6372 26.1989 39.7987 26.1987H48.816C48.9775 26.1989 49.1323 26.2632 49.2466 26.3774C49.3608 26.4916 49.425 26.6465 49.4252 26.808V35.8252C49.425 35.9868 49.3608 36.1416 49.2466 36.2558C49.1323 36.3701 48.9775 36.4343 48.816 36.4345Z" fill="#E5E5E5"/>
<path d="M62.4637 36.4345H53.4464C53.2849 36.4343 53.13 36.3701 53.0158 36.2558C52.9016 36.1416 52.8373 35.9868 52.8372 35.8252V26.808C52.8373 26.6465 52.9016 26.4916 53.0158 26.3774C53.13 26.2632 53.2849 26.1989 53.4464 26.1987H62.4637C62.6252 26.1989 62.78 26.2632 62.8943 26.3774C63.0085 26.4916 63.0727 26.6465 63.0729 26.808V35.8252C63.0727 35.9868 63.0085 36.1416 62.8943 36.2558C62.78 36.3701 62.6252 36.4343 62.4637 36.4345Z" fill="#E5E5E5"/>
<path d="M76.1114 36.4345H67.0941C66.9326 36.4343 66.7777 36.3701 66.6635 36.2558C66.5493 36.1416 66.4851 35.9868 66.4849 35.8252V26.808C66.4851 26.6465 66.5493 26.4916 66.6635 26.3774C66.7777 26.2632 66.9326 26.1989 67.0941 26.1987H76.1114C76.2729 26.1989 76.4278 26.2632 76.542 26.3774C76.6562 26.4916 76.7205 26.6465 76.7206 26.808V35.8252C76.7205 35.9868 76.6562 36.1416 76.542 36.2558C76.4278 36.3701 76.2729 36.4343 76.1114 36.4345Z" fill="#E5E5E5"/>
<path d="M35.1363 53.1284H26.119C25.9575 53.1282 25.8026 53.0639 25.6884 52.9497C25.5742 52.8355 25.51 52.6806 25.5098 52.5191V43.5019C25.51 43.3403 25.5742 43.1855 25.6884 43.0712C25.8026 42.957 25.9575 42.8928 26.119 42.8926H35.1363C35.2978 42.8928 35.4527 42.957 35.5669 43.0712C35.6811 43.1855 35.7453 43.3403 35.7455 43.5019V52.5191C35.7453 52.6806 35.6811 52.8355 35.5669 52.9497C35.4527 53.0639 35.2978 53.1282 35.1363 53.1284Z" fill="#E5E5E5"/>
<path d="M48.7837 53.1284H39.7665C39.605 53.1282 39.4501 53.0639 39.3359 52.9497C39.2217 52.8355 39.1574 52.6806 39.1572 52.5191V43.5019C39.1574 43.3403 39.2217 43.1855 39.3359 43.0712C39.4501 42.957 39.605 42.8928 39.7665 42.8926H48.7837C48.9453 42.8928 49.1001 42.957 49.2143 43.0712C49.3286 43.1855 49.3928 43.3403 49.393 43.5019V52.5191C49.3928 52.6806 49.3286 52.8355 49.2143 52.9497C49.1001 53.0639 48.9453 53.1282 48.7837 53.1284Z" fill="#E5E5E5"/>
<path d="M62.4314 53.1284H53.4142C53.2527 53.1282 53.0978 53.0639 52.9836 52.9497C52.8694 52.8355 52.8051 52.6806 52.8049 52.5191V43.5019C52.8051 43.3403 52.8694 43.1855 52.9836 43.0712C53.0978 42.957 53.2527 42.8928 53.4142 42.8926H62.4314C62.593 42.8928 62.7478 42.957 62.862 43.0712C62.9763 43.1855 63.0405 43.3403 63.0407 43.5019V52.5191C63.0405 52.6806 62.9763 52.8355 62.862 52.9497C62.7478 53.0639 62.593 53.1282 62.4314 53.1284Z" fill="#1B3A6C"/>
<path d="M76.0789 53.1284H67.0617C66.9001 53.1282 66.7453 53.0639 66.6311 52.9497C66.5168 52.8355 66.4526 52.6806 66.4524 52.5191V43.5019C66.4526 43.3403 66.5168 43.1855 66.6311 43.0712C66.7453 42.957 66.9001 42.8928 67.0617 42.8926H76.0789C76.2404 42.8928 76.3953 42.957 76.5095 43.0712C76.6237 43.1855 76.688 43.3403 76.6882 43.5019V52.5191C76.688 52.6806 76.6237 52.8355 76.5095 52.9497C76.3953 53.0639 76.2404 53.1282 76.0789 53.1284Z" fill="#1B3A6C"/>
<path d="M35.1038 69.8222H26.0866C25.925 69.822 25.7702 69.7578 25.656 69.6435C25.5417 69.5293 25.4775 69.3745 25.4773 69.2129V60.1957C25.4775 60.0342 25.5417 59.8793 25.656 59.7651C25.7702 59.6509 25.925 59.5866 26.0866 59.5864H35.1038C35.2653 59.5866 35.4202 59.6509 35.5344 59.7651C35.6486 59.8793 35.7129 60.0342 35.7131 60.1957V69.2129C35.7129 69.3745 35.6486 69.5293 35.5344 69.6435C35.4202 69.7578 35.2653 69.822 35.1038 69.8222Z" fill="#E5E5E5"/>
<path d="M48.7515 69.8222H39.7343C39.5727 69.822 39.4179 69.7578 39.3037 69.6435C39.1894 69.5293 39.1252 69.3745 39.125 69.2129V60.1957C39.1252 60.0342 39.1894 59.8793 39.3037 59.7651C39.4179 59.6509 39.5727 59.5866 39.7343 59.5864H48.7515C48.913 59.5866 49.0679 59.6509 49.1821 59.7651C49.2963 59.8793 49.3606 60.0342 49.3608 60.1957V69.2129C49.3606 69.3745 49.2963 69.5293 49.1821 69.6435C49.0679 69.7578 48.913 69.822 48.7515 69.8222Z" fill="#E5E5E5"/>
<path d="M62.3992 69.8222H53.382C53.2205 69.822 53.0656 69.7578 52.9514 69.6435C52.8371 69.5293 52.7729 69.3745 52.7727 69.2129V60.1957C52.7729 60.0342 52.8371 59.8793 52.9514 59.7651C53.0656 59.6509 53.2205 59.5866 53.382 59.5864H62.3992C62.5607 59.5866 62.7156 59.6509 62.8298 59.7651C62.944 59.8793 63.0083 60.0342 63.0085 60.1957V69.2129C63.0083 69.3745 62.944 69.5293 62.8298 69.6435C62.7156 69.7578 62.5607 69.822 62.3992 69.8222Z" fill="#E5E5E5"/>
<path d="M76.0469 69.8222H67.0297C66.8682 69.822 66.7133 69.7578 66.5991 69.6435C66.4849 69.5293 66.4206 69.3745 66.4204 69.2129V60.1957C66.4206 60.0342 66.4849 59.8793 66.5991 59.7651C66.7133 59.6509 66.8682 59.5866 67.0297 59.5864H76.0469C76.2084 59.5866 76.3633 59.6509 76.4775 59.7651C76.5918 59.8793 76.656 60.0342 76.6562 60.1957V69.2129C76.656 69.3745 76.5918 69.5293 76.4775 69.6435C76.3633 69.7578 76.2084 69.822 76.0469 69.8222Z" fill="#E5E5E5"/>
<path d="M35.0716 86.5165H26.0543C25.8928 86.5164 25.738 86.4521 25.6237 86.3379C25.5095 86.2237 25.4453 86.0688 25.4451 85.9073V76.89C25.4453 76.7285 25.5095 76.5736 25.6237 76.4594C25.738 76.3452 25.8928 76.281 26.0543 76.2808H35.0716C35.2331 76.281 35.388 76.3452 35.5022 76.4594C35.6164 76.5736 35.6807 76.7285 35.6808 76.89V85.9073C35.6807 86.0688 35.6164 86.2237 35.5022 86.3379C35.388 86.4521 35.2331 86.5164 35.0716 86.5165Z" fill="#E5E5E5"/>
<path d="M48.7193 86.5165H39.702C39.5405 86.5164 39.3857 86.4521 39.2714 86.3379C39.1572 86.2237 39.093 86.0688 39.0928 85.9073V76.89C39.093 76.7285 39.1572 76.5736 39.2714 76.4594C39.3857 76.3452 39.5405 76.281 39.702 76.2808H48.7193C48.8808 76.281 49.0357 76.3452 49.1499 76.4594C49.2641 76.5736 49.3284 76.7285 49.3285 76.89V85.9073C49.3284 86.0688 49.2641 86.2237 49.1499 86.3379C49.0357 86.4521 48.8808 86.5164 48.7193 86.5165Z" fill="#E5E5E5"/>
<path d="M62.367 86.5165H53.3498C53.1882 86.5164 53.0334 86.4521 52.9191 86.3379C52.8049 86.2237 52.7407 86.0688 52.7405 85.9073V76.89C52.7407 76.7285 52.8049 76.5736 52.9191 76.4594C53.0334 76.3452 53.1882 76.281 53.3498 76.2808H62.367C62.5285 76.281 62.6834 76.3452 62.7976 76.4594C62.9118 76.5736 62.9761 76.7285 62.9763 76.89V85.9073C62.9761 86.0688 62.9118 86.2237 62.7976 86.3379C62.6834 86.4521 62.5285 86.5164 62.367 86.5165Z" fill="#E5E5E5"/>
<path d="M76.0147 86.5165H66.9975C66.8359 86.5164 66.6811 86.4521 66.5669 86.3379C66.4526 86.2237 66.3884 86.0688 66.3882 85.9073V76.89C66.3884 76.7285 66.4526 76.5736 66.5669 76.4594C66.6811 76.3452 66.8359 76.281 66.9975 76.2808H76.0147C76.1762 76.281 76.3311 76.3452 76.4453 76.4594C76.5595 76.5736 76.6238 76.7285 76.624 76.89V85.9073C76.6238 86.0688 76.5595 86.2237 76.4453 86.3379C76.3311 86.4521 76.1762 86.5164 76.0147 86.5165Z" fill="#E5E5E5"/>
<path d="M35.1683 123.804H26.151C25.9895 123.804 25.8346 123.74 25.7204 123.625C25.6062 123.511 25.5419 123.356 25.5417 123.195V114.178C25.5419 114.016 25.6062 113.861 25.7204 113.747C25.8346 113.633 25.9895 113.569 26.151 113.568H35.1683C35.3298 113.569 35.4847 113.633 35.5989 113.747C35.7131 113.861 35.7773 114.016 35.7775 114.178V123.195C35.7773 123.356 35.7131 123.511 35.5989 123.625C35.4847 123.74 35.3298 123.804 35.1683 123.804Z" fill="white"/>
<path d="M48.816 123.804H39.7987C39.6372 123.804 39.4823 123.74 39.3681 123.625C39.2539 123.511 39.1896 123.356 39.1895 123.195V114.178C39.1896 114.016 39.2539 113.861 39.3681 113.747C39.4823 113.633 39.6372 113.569 39.7987 113.568H48.816C48.9775 113.569 49.1323 113.633 49.2466 113.747C49.3608 113.861 49.425 114.016 49.4252 114.178V123.195C49.425 123.356 49.3608 123.511 49.2466 123.625C49.1323 123.74 48.9775 123.804 48.816 123.804Z" fill="white"/>
<path d="M62.4637 123.804H53.4464C53.2849 123.804 53.13 123.74 53.0158 123.625C52.9016 123.511 52.8373 123.356 52.8372 123.195V114.178C52.8373 114.016 52.9016 113.861 53.0158 113.747C53.13 113.633 53.2849 113.569 53.4464 113.568H62.4637C62.6252 113.569 62.78 113.633 62.8943 113.747C63.0085 113.861 63.0727 114.016 63.0729 114.178V123.195C63.0727 123.356 63.0085 123.511 62.8943 123.625C62.78 123.74 62.6252 123.804 62.4637 123.804Z" fill="white"/>
<path d="M76.1114 123.804H67.0941C66.9326 123.804 66.7777 123.74 66.6635 123.625C66.5493 123.511 66.4851 123.356 66.4849 123.195V114.178C66.4851 114.016 66.5493 113.861 66.6635 113.747C66.7777 113.633 66.9326 113.569 67.0941 113.568H76.1114C76.2729 113.569 76.4278 113.633 76.542 113.747C76.6562 113.861 76.7205 114.016 76.7206 114.178V123.195C76.7205 123.356 76.6562 123.511 76.542 123.625C76.4278 123.74 76.2729 123.804 76.1114 123.804Z" fill="white"/>
<path d="M46.7122 104.795C47.3852 104.795 47.9307 104.249 47.9307 103.576C47.9307 102.903 47.3852 102.358 46.7122 102.358C46.0392 102.358 45.4937 102.903 45.4937 103.576C45.4937 104.249 46.0392 104.795 46.7122 104.795Z" fill="#E5E5E5"/>
<path d="M51.0992 104.795C51.7721 104.795 52.3177 104.249 52.3177 103.576C52.3177 102.903 51.7721 102.358 51.0992 102.358C50.4262 102.358 49.8806 102.903 49.8806 103.576C49.8806 104.249 50.4262 104.795 51.0992 104.795Z" fill="#E5E5E5"/>
<path d="M55.4856 104.795C56.1586 104.795 56.7042 104.249 56.7042 103.576C56.7042 102.903 56.1586 102.358 55.4856 102.358C54.8126 102.358 54.2671 102.903 54.2671 103.576C54.2671 104.249 54.8126 104.795 55.4856 104.795Z" fill="#E5E5E5"/>
<path d="M4.69388 92.7503C4.94879 92.4955 5.14473 92.1879 5.2679 91.8492C5.39108 91.5105 5.43849 91.1489 5.40679 90.7898C5.37509 90.4308 5.26507 90.0831 5.08445 89.7712C4.90383 89.4593 4.65702 89.1908 4.36141 88.9846L6.74112 80.5527L2.40245 81.9326L0.807809 89.728C0.494323 90.2476 0.382317 90.8641 0.493017 91.4608C0.603717 92.0574 0.929429 92.5927 1.40844 92.9653C1.88744 93.3378 2.48646 93.5217 3.09199 93.4821C3.69752 93.4425 4.26748 93.1821 4.69388 92.7503Z" fill="#FFB7B7"/>
<path d="M5.92768 87.5816C5.85018 87.5965 5.77135 87.6031 5.69245 87.6015L1.53035 87.5181C1.37372 87.515 1.21955 87.4785 1.07811 87.4112C0.936663 87.3438 0.811186 87.2471 0.710029 87.1275C0.608872 87.0078 0.534354 86.868 0.491433 86.7174C0.448512 86.5667 0.438169 86.4086 0.461099 86.2536L4.68327 57.7267C4.80931 56.9016 5.22629 56.1487 5.85888 55.6042C6.49146 55.0596 7.29795 54.7592 8.13264 54.7573C8.65968 54.7586 9.17955 54.8797 9.65296 55.1114C10.1264 55.343 10.5409 55.6792 10.8654 56.0945C11.1898 56.5099 11.4157 56.9935 11.5258 57.5089C11.636 58.0243 11.6276 58.558 11.5013 59.0697L8.50853 71.1909L6.81132 86.6192C6.7867 86.8532 6.68751 87.073 6.5284 87.2463C6.3693 87.4196 6.1587 87.5372 5.92768 87.5816Z" fill="#3F3D56"/>
<path d="M7.66786 132.615H9.98416L11.0862 123.681L7.66748 123.681L7.66786 132.615Z" fill="#FFB7B7"/>
<path d="M7.27026 131.859L11.8318 131.859H11.832C12.603 131.859 13.3423 132.165 13.8875 132.71C14.4327 133.256 14.739 133.995 14.739 134.766V134.86L7.2704 134.861L7.27026 131.859Z" fill="#2F2E41"/>
<path d="M17.5447 131.863L19.8464 132.121L21.9373 123.366L18.54 122.985L17.5447 131.863Z" fill="#FFB7B7"/>
<path d="M17.2348 131.045L21.768 131.554C22.5341 131.64 23.2349 132.026 23.7159 132.629C24.1969 133.231 24.4189 134 24.333 134.767L24.3225 134.86L16.9004 134.028L17.2348 131.045Z" fill="#2F2E41"/>
<path d="M5.49398 82.8978C5.49398 82.8978 2.31841 89.9278 5.12269 94.4939L6.79338 130.045H10.6293L14.3506 101.327L20.9632 109.829L16.9345 129.672L21.626 129.935L28.1426 109.829C28.1426 109.829 23.1364 87.6582 21.483 87.1244L20.3964 82.0562L5.49398 82.8978Z" fill="#2F2E41"/>
<path d="M4.08067 89.0701C4.08067 89.0701 1.21992 92.3534 8.77718 93.4869C16.3344 94.6205 24.2696 92.9201 24.4585 90.653C24.6474 88.3858 4.08067 89.0701 4.08067 89.0701Z" fill="#CBCBCB"/>
<path d="M41.9648 48.3419C41.953 48.6624 41.8712 48.9764 41.725 49.2619C41.5788 49.5473 41.3718 49.7973 41.1185 49.994C40.8653 50.1908 40.572 50.3297 40.2593 50.4009C39.9466 50.472 39.6221 50.4738 39.3086 50.406L36.452 54.5255L33.5251 53.4001L37.641 47.6392C37.7898 47.1202 38.1238 46.6737 38.5798 46.3845C39.0358 46.0953 39.582 45.9835 40.115 46.0701C40.6479 46.1567 41.1306 46.4358 41.4715 46.8545C41.8125 47.2732 41.988 47.8025 41.9648 48.3419Z" fill="#FFB7B7"/>
<path d="M17.8059 53.6421L13.767 51.8149L8.59229 52.1849C8.59229 52.1849 2.35368 59.4788 4.80979 66.4693L3.29834 90.8415C12.9338 93.4865 17.3139 88.5256 24.2697 90.6525L22.1212 63.5655L17.8059 53.6421Z" fill="#3F3D56"/>
<path d="M15.1064 55.4171L17.8058 53.6424C17.8058 53.6424 21.5554 53.0756 23.0542 54.5297C23.0542 54.5297 28.1415 54.9555 29.3702 56.2254L30.723 56.5304L35.2171 50.7109L37.9672 52.2052L33.9996 62.9743L22.1211 63.5658L15.1064 55.4171Z" fill="#3F3D56"/>
<path d="M16.0382 49.7651C19.1278 48.0762 20.2632 44.2024 18.5743 41.1128C16.8854 38.0233 13.0116 36.8878 9.92207 38.5767C6.83249 40.2656 5.69702 44.1394 7.38593 47.2289C9.07485 50.3185 12.9486 51.454 16.0382 49.7651Z" fill="#FFB7B7"/>
<path d="M7.46527 39.1869C8.60327 37.1401 10.0254 35.8147 12.3668 35.8626C14.7082 35.9104 16.7335 35.8179 17.787 37.9094C18.0654 37.3881 18.2049 36.8039 18.1919 36.213C18.51 36.4195 18.7607 36.7146 18.9131 37.0619C19.0655 37.4092 19.1129 37.7935 19.0495 38.1674C19.2544 38.0474 19.4259 37.8779 19.5483 37.6744C19.6707 37.4709 19.74 37.2399 19.75 37.0026C20.5314 37.2627 20.7346 38.3639 20.3392 39.0863C19.9438 39.8088 19.1684 40.2265 18.4244 40.5796C17.6804 40.9328 18.0238 42.8006 17.538 43.4656C17.1989 43.9296 17.0438 44.4984 16.8154 45.0258C16.8058 45.0466 16.7895 45.0636 16.7691 45.0741C16.2453 45.3662 15.9146 45.8881 16.0071 46.4808C16.018 46.5252 16.0155 46.5719 15.9996 46.6148C15.3365 47.8642 14.6206 49.1714 13.4185 49.917C12.4539 50.4994 11.2986 50.678 10.2031 50.414C8.97442 50.1202 7.91217 49.3056 7.14622 48.3009C6.38026 47.2962 5.88756 46.1088 5.51734 44.9009C5.18892 43.8294 4.9501 42.6838 5.21049 41.5937C5.47088 40.5037 6.35298 39.4943 7.47052 39.4101" fill="#2F2E41"/>
<path d="M104.127 112.698H87.6413C86.7897 112.697 85.9734 112.358 85.3712 111.756C84.7691 111.154 84.4304 110.337 84.4294 109.486V43.5488C84.4304 42.6972 84.7691 41.8808 85.3712 41.2787C85.9734 40.6766 86.7897 40.3379 87.6413 40.3369H132.358L140.542 47.6444V60.1747H140.164V47.8136L132.214 40.7148H87.6413C86.8899 40.7156 86.1696 41.0145 85.6383 41.5458C85.107 42.0771 84.8082 42.7974 84.8073 43.5488V109.486C84.8082 110.237 85.107 110.958 85.6383 111.489C86.1696 112.02 86.8899 112.319 87.6413 112.32H104.127V112.698Z" fill="#1B3A6C"/>
<path d="M140.353 47.8942H135.252C134.4 47.8932 133.584 47.5545 132.982 46.9524C132.38 46.3503 132.041 45.5339 132.04 44.6823V40.5258C132.04 40.4757 132.06 40.4277 132.095 40.3923C132.131 40.3568 132.179 40.3369 132.229 40.3369C132.279 40.3369 132.327 40.3568 132.363 40.3923C132.398 40.4277 132.418 40.4757 132.418 40.5258V44.6823C132.419 45.4337 132.718 46.154 133.249 46.6853C133.78 47.2166 134.501 47.5155 135.252 47.5163H140.353C140.403 47.5163 140.451 47.5362 140.487 47.5716C140.522 47.6071 140.542 47.6551 140.542 47.7052C140.542 47.7553 140.522 47.8034 140.487 47.8388C140.451 47.8743 140.403 47.8942 140.353 47.8942Z" fill="#1B3A6C"/>
<path d="M134.031 57.4351H90.9551C90.5542 57.4351 90.1697 57.5943 89.8863 57.8778C89.6028 58.1612 89.4436 58.5456 89.4436 58.9465C89.4436 59.3474 89.6028 59.7318 89.8863 60.0153C90.1697 60.2987 90.5542 60.458 90.9551 60.458H134.031C134.432 60.458 134.817 60.2987 135.1 60.0153C135.384 59.7318 135.543 59.3474 135.543 58.9465C135.543 58.5456 135.384 58.1612 135.1 57.8778C134.817 57.5943 134.432 57.4351 134.031 57.4351Z" fill="#E6E6E6"/>
<path d="M112.304 51.0112H90.9551C90.5542 51.0112 90.1697 51.1705 89.8863 51.4539C89.6028 51.7374 89.4436 52.1218 89.4436 52.5227C89.4436 52.9235 89.6028 53.308 89.8863 53.5914C90.1697 53.8749 90.5542 54.0341 90.9551 54.0341H112.304C112.705 54.0341 113.09 53.8749 113.373 53.5914C113.657 53.308 113.816 52.9235 113.816 52.5227C113.816 52.1218 113.657 51.7374 113.373 51.4539C113.09 51.1705 112.705 51.0112 112.304 51.0112Z" fill="#E6E6E6"/>
<path d="M134.031 57.4351H90.9551C90.5542 57.4351 90.1697 57.5943 89.8863 57.8778C89.6028 58.1612 89.4436 58.5456 89.4436 58.9465C89.4436 59.3474 89.6028 59.7318 89.8863 60.0153C90.1697 60.2987 90.5542 60.458 90.9551 60.458H134.031C134.432 60.458 134.817 60.2987 135.1 60.0153C135.384 59.7318 135.543 59.3474 135.543 58.9465C135.543 58.5456 135.384 58.1612 135.1 57.8778C134.817 57.5943 134.432 57.4351 134.031 57.4351Z" fill="#859FC9"/>
<path d="M112.304 51.0112H90.9551C90.5542 51.0112 90.1697 51.1705 89.8863 51.4539C89.6028 51.7374 89.4436 52.1218 89.4436 52.5227C89.4436 52.9235 89.6028 53.308 89.8863 53.5914C90.1697 53.8749 90.5542 54.0341 90.9551 54.0341H112.304C112.705 54.0341 113.09 53.8749 113.373 53.5914C113.657 53.308 113.816 52.9235 113.816 52.5227C113.816 52.1218 113.657 51.7374 113.373 51.4539C113.09 51.1705 112.705 51.0112 112.304 51.0112Z" fill="#859FC9"/>
<path d="M90.9551 70.0933C90.5542 70.0933 90.1697 70.2525 89.8863 70.536C89.6028 70.8194 89.4436 71.2039 89.4436 71.6047C89.4436 72.0056 89.6028 72.39 89.8863 72.6735C90.1697 72.9569 90.5542 73.1162 90.9551 73.1162H104.456V70.0933H90.9551Z" fill="#E6E6E6"/>
<path d="M90.9551 63.6699C90.5542 63.6699 90.1697 63.8292 89.8863 64.1126C89.6028 64.3961 89.4436 64.7805 89.4436 65.1814C89.4436 65.5822 89.6028 65.9667 89.8863 66.2501C90.1697 66.5336 90.5542 66.6928 90.9551 66.6928H104.456V63.6699H90.9551Z" fill="#E6E6E6"/>
<path d="M90.9551 70.0933C90.5542 70.0933 90.1697 70.2525 89.8863 70.536C89.6028 70.8194 89.4436 71.2039 89.4436 71.6047C89.4436 72.0056 89.6028 72.39 89.8863 72.6735C90.1697 72.9569 90.5542 73.1162 90.9551 73.1162H104.456V70.0933H90.9551Z" fill="#859FC9"/>
<path d="M90.9551 63.6699C90.5542 63.6699 90.1697 63.8292 89.8863 64.1126C89.6028 64.3961 89.4436 64.7805 89.4436 65.1814C89.4436 65.5822 89.6028 65.9667 89.8863 66.2501C90.1697 66.5336 90.5542 66.6928 90.9551 66.6928H104.456V63.6699H90.9551Z" fill="#859FC9"/>
<path d="M104.551 102.117H92.4514C91.6249 102.116 90.8325 101.788 90.2481 101.203C89.6637 100.619 89.3349 99.8263 89.334 98.9998V83.1296C89.3349 82.3031 89.6637 81.5107 90.2481 80.9263C90.8325 80.3419 91.6249 80.0131 92.4514 80.0122H104.551V102.117Z" fill="#859FC9"/>
<path d="M105.616 60.8356C105.146 61.1222 104.758 61.5247 104.489 62.0044C104.22 62.4841 104.078 63.025 104.078 63.5751V64.0474H104.456V63.5751C104.457 62.9503 104.664 62.3432 105.044 61.8479C105.425 61.3526 105.959 60.9968 106.563 60.8356H105.616ZM152.006 60.3633H107.29C106.438 60.3643 105.622 60.703 105.02 61.3051C104.418 61.9072 104.079 62.7236 104.078 63.5751V129.512C104.079 130.364 104.418 131.18 105.02 131.782C105.622 132.384 106.439 132.723 107.29 132.724H156.979C157.83 132.723 158.647 132.384 159.249 131.782C159.851 131.18 160.19 130.364 160.191 129.512V67.6712L152.006 60.3633ZM159.813 129.512C159.812 130.264 159.513 130.984 158.982 131.515C158.451 132.046 157.73 132.345 156.979 132.346H107.29C106.539 132.345 105.818 132.046 105.287 131.515C104.756 130.984 104.457 130.264 104.456 129.512L104.456 63.5751C104.457 62.9503 104.664 62.3432 105.044 61.8479C105.425 61.3526 105.959 60.9968 106.563 60.8356C106.8 60.7724 107.044 60.7406 107.29 60.7411H151.863L159.813 67.8393V129.512ZM105.616 60.8356C105.146 61.1222 104.758 61.5247 104.489 62.0044C104.22 62.4841 104.078 63.025 104.078 63.5751V64.0474H104.456V63.5751C104.457 62.9503 104.664 62.3432 105.044 61.8479C105.425 61.3526 105.959 60.9968 106.563 60.8356H105.616Z" fill="#1B3A6C"/>
<path d="M160.002 67.9205H154.901C154.049 67.9196 153.233 67.5809 152.631 66.9788C152.029 66.3766 151.69 65.5602 151.689 64.7087V60.5522C151.689 60.5021 151.709 60.4541 151.744 60.4186C151.78 60.3832 151.828 60.3633 151.878 60.3633C151.928 60.3633 151.976 60.3832 152.011 60.4186C152.047 60.4541 152.067 60.5021 152.067 60.5522V64.7087C152.068 65.4601 152.367 66.1804 152.898 66.7117C153.429 67.243 154.149 67.5418 154.901 67.5427H160.002C160.052 67.5427 160.1 67.5626 160.136 67.598C160.171 67.6335 160.191 67.6815 160.191 67.7316C160.191 67.7817 160.171 67.8298 160.136 67.8652C160.1 67.9006 160.052 67.9205 160.002 67.9205Z" fill="#1B3A6C"/>
<path d="M153.68 80.4843H110.604C110.203 80.4843 109.819 80.3251 109.535 80.0416C109.252 79.7582 109.093 79.3737 109.093 78.9729C109.093 78.572 109.252 78.1876 109.535 77.9041C109.819 77.6207 110.203 77.4614 110.604 77.4614H153.68C154.081 77.4614 154.466 77.6207 154.749 77.9041C155.033 78.1876 155.192 78.572 155.192 78.9729C155.192 79.3737 155.033 79.7582 154.749 80.0416C154.466 80.3251 154.081 80.4843 153.68 80.4843Z" fill="#859FC9"/>
<path d="M131.953 74.061H110.604C110.203 74.061 109.819 73.9018 109.535 73.6183C109.252 73.3348 109.093 72.9504 109.093 72.5495C109.093 72.1487 109.252 71.7642 109.535 71.4808C109.819 71.1973 110.203 71.0381 110.604 71.0381H131.953C132.354 71.0381 132.739 71.1973 133.022 71.4808C133.305 71.7642 133.465 72.1487 133.465 72.5495C133.465 72.9504 133.305 73.3348 133.022 73.6183C132.739 73.9018 132.354 74.061 131.953 74.061Z" fill="#859FC9"/>
<path d="M153.68 93.143H110.604C110.203 93.143 109.819 92.9838 109.535 92.7003C109.252 92.4169 109.093 92.0324 109.093 91.6316C109.093 91.2307 109.252 90.8463 109.535 90.5628C109.819 90.2794 110.203 90.1201 110.604 90.1201H153.68C154.081 90.1201 154.466 90.2794 154.749 90.5628C155.033 90.8463 155.192 91.2307 155.192 91.6316C155.192 92.0324 155.033 92.4169 154.749 92.7003C154.466 92.9838 154.081 93.143 153.68 93.143Z" fill="#859FC9"/>
<path d="M131.953 86.7192H110.604C110.203 86.7192 109.819 86.56 109.535 86.2765C109.252 85.993 109.093 85.6086 109.093 85.2077C109.093 84.8069 109.252 84.4224 109.535 84.139C109.819 83.8555 110.203 83.6963 110.604 83.6963H131.953C132.354 83.6963 132.739 83.8555 133.022 84.139C133.305 84.4224 133.465 84.8069 133.465 85.2077C133.465 85.6086 133.305 85.993 133.022 86.2765C132.739 86.56 132.354 86.7192 131.953 86.7192Z" fill="#859FC9"/>
<path d="M152.154 122.144H112.1C111.274 122.143 110.481 121.814 109.897 121.23C109.312 120.646 108.984 119.853 108.983 119.027V103.156C108.984 102.33 109.312 101.538 109.897 100.953C110.481 100.369 111.274 100.04 112.1 100.039H152.154C152.98 100.04 153.772 100.369 154.357 100.953C154.941 101.538 155.27 102.33 155.271 103.156V119.027C155.27 119.853 154.941 120.646 154.357 121.23C153.772 121.814 152.98 122.143 152.154 122.144Z" fill="#1B3A6C"/>
<path d="M185.763 121.126L183.276 121.185L184.216 128.757L185.901 128.717L185.763 121.126Z" fill="#FFB6B6"/>
<path d="M180.119 132.233C180.119 132.028 180.226 131.842 180.391 131.76L182.247 130.843L183.513 127.908L183.532 124.951L186.14 124.645L186.517 126.528C186.517 126.528 185.74 126.412 186.699 127.245C187.658 128.077 187.196 129.705 187.196 129.705L187.405 132.749H185.679L185.587 130.856C184.245 131.425 183.915 132.749 183.915 132.749H180.57C180.321 132.749 180.119 132.518 180.119 132.233Z" fill="#2F2E41"/>
<path d="M182.12 121.21L179.633 121.269L180.573 128.84L182.258 128.8L182.12 121.21Z" fill="#FFB6B6"/>
<path d="M176.476 132.317C176.476 132.111 176.583 131.925 176.748 131.844L178.604 130.927L179.87 127.992L179.889 125.035L182.497 124.728L182.874 126.612C182.874 126.612 182.097 126.496 183.056 127.328C184.015 128.16 183.553 129.789 183.553 129.789L183.762 132.832H182.037L181.944 130.939C180.602 131.509 180.273 132.832 180.273 132.832H176.927C176.678 132.832 176.476 132.601 176.476 132.317Z" fill="#2F2E41"/>
<path d="M184.973 76.7993L187.792 83.5316C188.732 85.7757 189.03 88.2368 188.653 90.6404L187.282 123.714H181.864L179.499 94.2618L179.033 105.896L184.457 122.471H179.122L172.275 105.896L171.767 93.1324L174.2 83.2283L184.973 76.7993Z" fill="#2F2E41"/>
<path d="M188.436 85.2936C191.539 94.1302 187.585 101.092 188.405 96.6012C189.091 92.848 177.405 81.4272 173.888 83.7821C173.962 83.4011 176.197 76.5296 176.416 76.4978C176.11 75.7257 176.537 75.7183 176.555 75.3227C176.621 73.7946 176.266 72.2083 175.574 70.5758C175.121 69.3145 175.113 68.2308 175.552 67.357C175.93 66.6388 176.565 66.0897 177.331 65.8196L179.636 63.0359C180.236 62.3113 181.122 60.7479 182.063 60.7538L187.113 60.5734C187.258 60.4867 189.031 62.0117 190.758 62.7601C192.631 63.5725 192.245 65.7898 192.24 65.8181L192.236 65.8446L192.215 65.8635L189.462 73.9663L186.975 76.2974C187.101 76.6628 187.069 76.9371 186.833 77.0945C187.172 77.345 188.679 84.8421 188.436 85.1047L188.436 85.2936Z" fill="#6C63FF"/>
<path d="M162.483 69.2572C162.859 69.4071 163.193 69.6447 163.458 69.9502L167.458 71.3213L166.749 73.2053L162.768 71.6117C162.365 71.6399 161.961 71.5711 161.589 71.4111C160.655 71.0232 160.097 70.2266 160.344 69.6319C160.591 69.0371 161.548 68.8694 162.483 69.2572Z" fill="#FFB6B6"/>
<path d="M183.819 63.2107L174.694 75.5272L163.999 72.5817L164.464 69.7916L172.608 71.3342L177.152 64.349C178.636 61.4811 181.56 60.9035 183.819 63.2105V63.2107Z" fill="#6C63FF"/>
<path d="M180.886 59.5247L188.19 60.1898L188.406 52.5985L180.448 52.3726L180.886 59.5247Z" fill="#2F2E41"/>
<path d="M184.579 58.5061C182.463 58.5061 180.746 56.7899 180.746 54.673C180.746 52.556 182.463 50.8398 184.579 50.8398C186.696 50.8398 188.413 52.556 188.413 54.673C188.413 56.7899 186.696 58.5061 184.579 58.5061Z" fill="#FFB6B6"/>
<path d="M181.496 50.9378C181.523 49.9866 182.706 49.8837 183.628 49.6489L184.465 49.215C185.285 49.0061 186.156 49.153 186.863 49.6197L189.092 50.9704C190.093 51.6315 190.253 52.7 190.66 53.8285L191.396 55.4804C191.797 56.5914 191.268 58.0634 190.863 59.1727L190.693 59.6375L190.958 61.1589L186.312 60.9419L185.899 58.5933L186.692 57.7018C186.973 57.3854 186.996 56.9157 186.747 56.5736C185.85 55.3429 186.016 53.6182 186.016 53.6182L184.881 54.2376C184.134 54.3394 183.47 54.3282 182.885 54.206C182.241 54.0715 181.695 53.8027 181.243 53.402L180.838 54.7636C180.734 56.4581 181.05 56.9079 182.561 58.5654L179.912 60.2283L180.01 59.3284C180.243 57.1878 179.533 55.4997 179.632 53.7575C179.701 52.5528 180.418 51.4795 181.496 50.9378Z" fill="#2F2E41"/>
<path d="M180.862 83.2589C181.236 83.1057 181.641 83.0443 182.044 83.0799L185.873 81.2866L186.673 83.1335L182.703 84.7538C182.432 85.0544 182.094 85.2859 181.716 85.4289C180.774 85.7994 179.819 85.6143 179.584 85.0148C179.348 84.4154 179.92 83.6294 180.862 83.2589Z" fill="#FFB6B6"/>
<path d="M192.003 64.085L194 79.2825L184.262 84.5965L182.657 82.2669L189.586 77.7169L188 69.5364C187.074 66.443 188.775 63.9956 192.003 64.0849L192.003 64.085Z" fill="#6C63FF"/>
</svg>
