<svg width="199" height="130" viewBox="0 0 199 130" fill="none" xmlns="http://www.w3.org/2000/svg">
<path d="M76.8305 27.9921C77.4445 27.9921 77.9422 27.4943 77.9422 26.8803C77.9422 26.2664 77.4445 25.7686 76.8305 25.7686C76.2165 25.7686 75.7188 26.2664 75.7188 26.8803C75.7188 27.4943 76.2165 27.9921 76.8305 27.9921Z" fill="#5884CC"/>
<path d="M76.8305 23.5009C77.4445 23.5009 77.9422 23.0031 77.9422 22.3891C77.9422 21.7751 77.4445 21.2774 76.8305 21.2774C76.2165 21.2774 75.7188 21.7751 75.7188 22.3891C75.7188 23.0031 76.2165 23.5009 76.8305 23.5009Z" fill="#5884CC"/>
<path d="M76.8305 32.4231C77.4445 32.4231 77.9422 31.9253 77.9422 31.3113C77.9422 30.6973 77.4445 30.1996 76.8305 30.1996C76.2165 30.1996 75.7188 30.6973 75.7188 31.3113C75.7188 31.9253 76.2165 32.4231 76.8305 32.4231Z" fill="#5884CC"/>
<path d="M76.8305 36.8536C77.4445 36.8536 77.9422 36.3558 77.9422 35.7418C77.9422 35.1278 77.4445 34.6301 76.8305 34.6301C76.2165 34.6301 75.7188 35.1278 75.7188 35.7418C75.7188 36.3558 76.2165 36.8536 76.8305 36.8536Z" fill="#5884CC"/>
<path d="M76.8305 41.2318C77.4445 41.2318 77.9422 40.7341 77.9422 40.1201C77.9422 39.5061 77.4445 39.0083 76.8305 39.0083C76.2165 39.0083 75.7188 39.5061 75.7188 40.1201C75.7188 40.7341 76.2165 41.2318 76.8305 41.2318Z" fill="#5884CC"/>
<path d="M76.8305 45.5963C77.4445 45.5963 77.9422 45.0986 77.9422 44.4846C77.9422 43.8706 77.4445 43.3729 76.8305 43.3729C76.2165 43.3729 75.7188 43.8706 75.7188 44.4846C75.7188 45.0986 76.2165 45.5963 76.8305 45.5963Z" fill="#5884CC"/>
<path d="M72.1899 27.9921C72.8038 27.9921 73.3016 27.4943 73.3016 26.8803C73.3016 26.2664 72.8038 25.7686 72.1899 25.7686C71.5759 25.7686 71.0781 26.2664 71.0781 26.8803C71.0781 27.4943 71.5759 27.9921 72.1899 27.9921Z" fill="#5884CC"/>
<path d="M72.1899 23.5009C72.8038 23.5009 73.3016 23.0031 73.3016 22.3891C73.3016 21.7751 72.8038 21.2774 72.1899 21.2774C71.5759 21.2774 71.0781 21.7751 71.0781 22.3891C71.0781 23.0031 71.5759 23.5009 72.1899 23.5009Z" fill="#5884CC"/>
<path d="M72.1899 32.4231C72.8038 32.4231 73.3016 31.9253 73.3016 31.3113C73.3016 30.6973 72.8038 30.1996 72.1899 30.1996C71.5759 30.1996 71.0781 30.6973 71.0781 31.3113C71.0781 31.9253 71.5759 32.4231 72.1899 32.4231Z" fill="#5884CC"/>
<path d="M72.1899 36.8536C72.8038 36.8536 73.3016 36.3558 73.3016 35.7418C73.3016 35.1278 72.8038 34.6301 72.1899 34.6301C71.5759 34.6301 71.0781 35.1278 71.0781 35.7418C71.0781 36.3558 71.5759 36.8536 72.1899 36.8536Z" fill="#5884CC"/>
<path d="M72.1899 41.2318C72.8038 41.2318 73.3016 40.7341 73.3016 40.1201C73.3016 39.5061 72.8038 39.0083 72.1899 39.0083C71.5759 39.0083 71.0781 39.5061 71.0781 40.1201C71.0781 40.7341 71.5759 41.2318 72.1899 41.2318Z" fill="#5884CC"/>
<path d="M72.1899 45.5963C72.8038 45.5963 73.3016 45.0986 73.3016 44.4846C73.3016 43.8706 72.8038 43.3729 72.1899 43.3729C71.5759 43.3729 71.0781 43.8706 71.0781 44.4846C71.0781 45.0986 71.5759 45.5963 72.1899 45.5963Z" fill="#5884CC"/>
<path d="M67.5473 27.9921C68.1613 27.9921 68.659 27.4943 68.659 26.8803C68.659 26.2664 68.1613 25.7686 67.5473 25.7686C66.9333 25.7686 66.4355 26.2664 66.4355 26.8803C66.4355 27.4943 66.9333 27.9921 67.5473 27.9921Z" fill="#5884CC"/>
<path d="M67.5473 23.5009C68.1613 23.5009 68.659 23.0031 68.659 22.3891C68.659 21.7751 68.1613 21.2774 67.5473 21.2774C66.9333 21.2774 66.4355 21.7751 66.4355 22.3891C66.4355 23.0031 66.9333 23.5009 67.5473 23.5009Z" fill="#5884CC"/>
<path d="M67.5473 32.4231C68.1613 32.4231 68.659 31.9253 68.659 31.3113C68.659 30.6973 68.1613 30.1996 67.5473 30.1996C66.9333 30.1996 66.4355 30.6973 66.4355 31.3113C66.4355 31.9253 66.9333 32.4231 67.5473 32.4231Z" fill="#5884CC"/>
<path d="M67.5473 36.8536C68.1613 36.8536 68.659 36.3558 68.659 35.7418C68.659 35.1278 68.1613 34.6301 67.5473 34.6301C66.9333 34.6301 66.4355 35.1278 66.4355 35.7418C66.4355 36.3558 66.9333 36.8536 67.5473 36.8536Z" fill="#5884CC"/>
<path d="M67.5473 41.2318C68.1613 41.2318 68.659 40.7341 68.659 40.1201C68.659 39.5061 68.1613 39.0083 67.5473 39.0083C66.9333 39.0083 66.4355 39.5061 66.4355 40.1201C66.4355 40.7341 66.9333 41.2318 67.5473 41.2318Z" fill="#5884CC"/>
<path d="M67.5473 45.5963C68.1613 45.5963 68.659 45.0986 68.659 44.4846C68.659 43.8706 68.1613 43.3729 67.5473 43.3729C66.9333 43.3729 66.4355 43.8706 66.4355 44.4846C66.4355 45.0986 66.9333 45.5963 67.5473 45.5963Z" fill="#5884CC"/>
<path d="M62.9066 27.9921C63.5206 27.9921 64.0184 27.4943 64.0184 26.8803C64.0184 26.2664 63.5206 25.7686 62.9066 25.7686C62.2927 25.7686 61.7949 26.2664 61.7949 26.8803C61.7949 27.4943 62.2927 27.9921 62.9066 27.9921Z" fill="#5884CC"/>
<path d="M62.9066 23.5009C63.5206 23.5009 64.0184 23.0031 64.0184 22.3891C64.0184 21.7751 63.5206 21.2774 62.9066 21.2774C62.2927 21.2774 61.7949 21.7751 61.7949 22.3891C61.7949 23.0031 62.2927 23.5009 62.9066 23.5009Z" fill="#5884CC"/>
<path d="M62.9066 32.4231C63.5206 32.4231 64.0184 31.9253 64.0184 31.3113C64.0184 30.6973 63.5206 30.1996 62.9066 30.1996C62.2927 30.1996 61.7949 30.6973 61.7949 31.3113C61.7949 31.9253 62.2927 32.4231 62.9066 32.4231Z" fill="#5884CC"/>
<path d="M62.9066 36.8536C63.5206 36.8536 64.0184 36.3558 64.0184 35.7418C64.0184 35.1278 63.5206 34.6301 62.9066 34.6301C62.2927 34.6301 61.7949 35.1278 61.7949 35.7418C61.7949 36.3558 62.2927 36.8536 62.9066 36.8536Z" fill="#5884CC"/>
<path d="M62.9066 41.2318C63.5206 41.2318 64.0184 40.7341 64.0184 40.1201C64.0184 39.5061 63.5206 39.0083 62.9066 39.0083C62.2927 39.0083 61.7949 39.5061 61.7949 40.1201C61.7949 40.7341 62.2927 41.2318 62.9066 41.2318Z" fill="#5884CC"/>
<path d="M62.9066 45.5963C63.5206 45.5963 64.0184 45.0986 64.0184 44.4846C64.0184 43.8706 63.5206 43.3729 62.9066 43.3729C62.2927 43.3729 61.7949 43.8706 61.7949 44.4846C61.7949 45.0986 62.2927 45.5963 62.9066 45.5963Z" fill="#5884CC"/>
<path d="M58.2641 27.9921C58.8781 27.9921 59.3758 27.4943 59.3758 26.8803C59.3758 26.2664 58.8781 25.7686 58.2641 25.7686C57.6501 25.7686 57.1523 26.2664 57.1523 26.8803C57.1523 27.4943 57.6501 27.9921 58.2641 27.9921Z" fill="#5884CC"/>
<path d="M58.2641 23.5009C58.8781 23.5009 59.3758 23.0031 59.3758 22.3891C59.3758 21.7751 58.8781 21.2774 58.2641 21.2774C57.6501 21.2774 57.1523 21.7751 57.1523 22.3891C57.1523 23.0031 57.6501 23.5009 58.2641 23.5009Z" fill="#5884CC"/>
<path d="M58.2641 32.4231C58.8781 32.4231 59.3758 31.9253 59.3758 31.3113C59.3758 30.6973 58.8781 30.1996 58.2641 30.1996C57.6501 30.1996 57.1523 30.6973 57.1523 31.3113C57.1523 31.9253 57.6501 32.4231 58.2641 32.4231Z" fill="#5884CC"/>
<path d="M58.2641 36.8536C58.8781 36.8536 59.3758 36.3558 59.3758 35.7418C59.3758 35.1278 58.8781 34.6301 58.2641 34.6301C57.6501 34.6301 57.1523 35.1278 57.1523 35.7418C57.1523 36.3558 57.6501 36.8536 58.2641 36.8536Z" fill="#5884CC"/>
<path d="M58.2641 41.2318C58.8781 41.2318 59.3758 40.7341 59.3758 40.1201C59.3758 39.5061 58.8781 39.0083 58.2641 39.0083C57.6501 39.0083 57.1523 39.5061 57.1523 40.1201C57.1523 40.7341 57.6501 41.2318 58.2641 41.2318Z" fill="#5884CC"/>
<path d="M58.2641 45.5963C58.8781 45.5963 59.3758 45.0986 59.3758 44.4846C59.3758 43.8706 58.8781 43.3729 58.2641 43.3729C57.6501 43.3729 57.1523 43.8706 57.1523 44.4846C57.1523 45.0986 57.6501 45.5963 58.2641 45.5963Z" fill="#5884CC"/>
<path d="M53.6234 27.9921C54.2374 27.9921 54.7352 27.4943 54.7352 26.8803C54.7352 26.2664 54.2374 25.7686 53.6234 25.7686C53.0095 25.7686 52.5117 26.2664 52.5117 26.8803C52.5117 27.4943 53.0095 27.9921 53.6234 27.9921Z" fill="#5884CC"/>
<path d="M53.6234 23.501C54.2374 23.501 54.7352 23.0032 54.7352 22.3892C54.7352 21.7752 54.2374 21.2775 53.6234 21.2775C53.0095 21.2775 52.5117 21.7752 52.5117 22.3892C52.5117 23.0032 53.0095 23.501 53.6234 23.501Z" fill="#5884CC"/>
<path d="M53.6234 32.4231C54.2374 32.4231 54.7352 31.9253 54.7352 31.3113C54.7352 30.6973 54.2374 30.1996 53.6234 30.1996C53.0095 30.1996 52.5117 30.6973 52.5117 31.3113C52.5117 31.9253 53.0095 32.4231 53.6234 32.4231Z" fill="#5884CC"/>
<path d="M53.6234 36.8536C54.2374 36.8536 54.7352 36.3558 54.7352 35.7418C54.7352 35.1278 54.2374 34.6301 53.6234 34.6301C53.0095 34.6301 52.5117 35.1278 52.5117 35.7418C52.5117 36.3558 53.0095 36.8536 53.6234 36.8536Z" fill="#5884CC"/>
<path d="M53.6234 41.2318C54.2374 41.2318 54.7352 40.7341 54.7352 40.1201C54.7352 39.5061 54.2374 39.0083 53.6234 39.0083C53.0095 39.0083 52.5117 39.5061 52.5117 40.1201C52.5117 40.7341 53.0095 41.2318 53.6234 41.2318Z" fill="#5884CC"/>
<path d="M53.6234 45.5963C54.2374 45.5963 54.7352 45.0986 54.7352 44.4846C54.7352 43.8706 54.2374 43.3729 53.6234 43.3729C53.0095 43.3729 52.5117 43.8706 52.5117 44.4846C52.5117 45.0986 53.0095 45.5963 53.6234 45.5963Z" fill="#5884CC"/>
<path d="M145.806 104.845C146.435 109.78 148.749 114.296 151.218 118.646C151.3 118.794 151.384 118.94 151.47 119.088H177.131C177.65 118.953 178.162 118.805 178.672 118.646C181.57 117.763 184.307 116.415 186.774 114.656C196.215 107.848 199.848 94.9841 198.207 83.457C197.187 76.2953 194.047 68.9834 187.932 65.1263C184.703 63.0862 180.556 62.4231 176.839 63.1812C176.742 63.1989 176.645 63.221 176.545 63.2409C173.348 63.9615 170.499 65.7519 168.878 68.6364C165.963 73.8197 167.699 80.2409 169.132 86.0099C170.561 91.779 171.336 98.6842 167.189 102.939C168.558 98.9053 167.206 94.0933 163.936 91.3657C161.465 89.3078 158.024 88.5364 154.886 89.1752C154.586 89.2393 154.29 89.3122 153.998 89.4007C153.294 89.6072 152.615 89.8919 151.973 90.2494C147.082 92.9837 145.101 99.281 145.806 104.845Z" fill="#4C77BD"/>
<path d="M161.021 118.646C160.31 118.812 159.596 118.958 158.879 119.088H162.759C163.267 118.951 163.772 118.805 164.274 118.646C165.376 118.302 166.461 117.906 167.529 117.459C171.813 115.66 175.759 112.959 178.745 109.365C180.205 107.624 181.397 105.674 182.283 103.58C183.242 101.214 183.852 98.7204 184.093 96.1779C184.634 90.9614 184.082 85.6013 183.051 80.4776C181.987 75.1672 180.269 70.0094 177.937 65.1222C177.656 64.5364 177.366 63.9544 177.067 63.376C177.046 63.3284 177.015 63.2861 176.975 63.2524C176.936 63.2187 176.889 63.1944 176.839 63.1815C176.737 63.1617 176.632 63.1831 176.545 63.2411C176.442 63.3005 176.365 63.3974 176.331 63.5118C176.297 63.6261 176.308 63.7492 176.362 63.8556C178.767 68.5495 180.59 73.5199 181.79 78.6563C182.965 83.6672 183.632 88.9102 183.404 94.0626C183.188 98.8768 181.931 103.611 179.081 107.548C176.477 111.142 172.882 113.976 168.905 115.905C166.387 117.111 163.743 118.03 161.021 118.646Z" fill="white"/>
<path d="M152.505 119.089H153.649C153.777 118.943 153.901 118.795 154.022 118.647C156.628 115.478 158.393 111.702 159.154 107.67C160.079 102.637 159.36 97.4406 157.103 92.8493C156.473 91.5619 155.731 90.3325 154.886 89.1757C154.585 89.2398 154.289 89.3127 153.998 89.4011C156.222 92.3506 157.718 95.7846 158.364 99.423C158.94 102.832 158.748 106.327 157.803 109.653C156.858 112.979 155.183 116.051 152.9 118.647C152.772 118.795 152.64 118.943 152.505 119.089Z" fill="white"/>
<path d="M61.1738 30.7244H60.4997V12.2061C60.4997 10.7986 60.2233 9.40491 59.6861 8.10456C59.149 6.80421 58.3618 5.62268 57.3693 4.62743C56.3768 3.63219 55.1986 2.84271 53.9019 2.30409C52.6052 1.76546 51.2154 1.48824 49.8118 1.48824H10.6879C9.28439 1.48823 7.89457 1.76546 6.59785 2.30408C5.30113 2.8427 4.1229 3.63217 3.13043 4.62741C2.13797 5.62265 1.3507 6.80418 0.81358 8.10453C0.276459 9.40488 2.52112e-06 10.7986 0 12.2061V113.799C-2.31437e-06 116.641 1.12604 119.367 3.13041 121.377C5.13478 123.387 7.8533 124.517 10.6879 124.517H49.8117C52.6464 124.517 55.3649 123.387 57.3693 121.377C59.3736 119.367 60.4997 116.641 60.4997 113.799V43.906H61.1738V30.7244Z" fill="#3F3D56"/>
<path d="M50.2431 4.27649H45.1361C45.371 4.8539 45.4606 5.48036 45.3972 6.10069C45.3337 6.72102 45.1191 7.31619 44.7723 7.83375C44.4254 8.35132 43.957 8.7754 43.4082 9.06864C42.8594 9.36189 42.2471 9.51529 41.6252 9.51534H19.2117C18.5898 9.51529 17.9775 9.36189 17.4287 9.06865C16.8799 8.7754 16.4115 8.35132 16.0646 7.83375C15.7178 7.31619 15.5031 6.72102 15.4397 6.10069C15.3762 5.48035 15.4659 4.85389 15.7008 4.27649H10.9308C8.81399 4.27649 6.78383 5.11976 5.28699 6.6208C3.79014 8.12183 2.94922 10.1577 2.94922 12.2805V113.724C2.94922 114.775 3.15566 115.816 3.55678 116.787C3.95789 117.758 4.54582 118.64 5.28698 119.384C6.02814 120.127 6.90803 120.717 7.8764 121.119C8.84478 121.521 9.88267 121.728 10.9308 121.728H50.2431C51.2913 121.728 52.3292 121.521 53.2975 121.119C54.2659 120.717 55.1458 120.127 55.887 119.384C56.6281 118.641 57.2161 117.758 57.6172 116.787C58.0183 115.816 58.2247 114.775 58.2247 113.724V12.2805C58.2247 11.2294 58.0183 10.1886 57.6172 9.21748C57.2161 8.24639 56.6281 7.36404 55.887 6.6208C55.1458 5.87756 54.2659 5.28799 53.2975 4.88576C52.3292 4.48352 51.2913 4.27649 50.2431 4.27649Z" fill="white"/>
<path d="M49.2591 119.986H11.9164C7.62556 119.986 4.13477 116.862 4.13477 113.021V107.979C4.13477 104.918 6.9148 102.428 10.3319 102.428H50.8435C54.2606 102.428 57.0407 104.918 57.0407 107.979V113.021C57.0407 116.862 53.5499 119.986 49.2591 119.986Z" fill="#E5E5E5"/>
<path d="M15.8418 35.2393H7.51204C7.36283 35.2391 7.21977 35.1796 7.11426 35.0738C7.00875 34.968 6.94939 34.8245 6.94922 34.6749V26.3218C6.94939 26.1722 7.00875 26.0287 7.11426 25.9229C7.21977 25.8171 7.36283 25.7576 7.51204 25.7574H15.8418C15.991 25.7576 16.1341 25.8171 16.2396 25.9229C16.3451 26.0287 16.4044 26.1722 16.4046 26.3218V34.6749C16.4044 34.8245 16.3451 34.968 16.2396 35.0738C16.1341 35.1796 15.991 35.2391 15.8418 35.2393Z" fill="#1B3A6C"/>
<path d="M28.4492 35.2393H20.1195C19.9702 35.2391 19.8272 35.1796 19.7217 35.0738C19.6162 34.968 19.5568 34.8245 19.5566 34.6749V26.3218C19.5568 26.1722 19.6162 26.0287 19.7217 25.9229C19.8272 25.8171 19.9702 25.7576 20.1195 25.7574H28.4492C28.5984 25.7576 28.7415 25.8171 28.847 25.9229C28.9525 26.0287 29.0118 26.1722 29.012 26.3218V34.6749C29.0118 34.8245 28.9525 34.968 28.847 35.0738C28.7415 35.1796 28.5984 35.2391 28.4492 35.2393Z" fill="#E5E5E5"/>
<path d="M41.0547 35.2393H32.7249C32.5757 35.2391 32.4327 35.1796 32.3271 35.0738C32.2216 34.968 32.1623 34.8245 32.1621 34.6749V26.3218C32.1623 26.1722 32.2216 26.0287 32.3271 25.9229C32.4327 25.8171 32.5757 25.7576 32.7249 25.7574H41.0547C41.2039 25.7576 41.3469 25.8171 41.4525 25.9229C41.558 26.0287 41.6173 26.1722 41.6175 26.3218V34.6749C41.6173 34.8245 41.558 34.968 41.4525 35.0738C41.3469 35.1796 41.2039 35.2391 41.0547 35.2393Z" fill="#E5E5E5"/>
<path d="M53.6621 35.2393H45.3324C45.1831 35.2391 45.0401 35.1796 44.9346 35.0738C44.8291 34.968 44.7697 34.8245 44.7695 34.6749V26.3218C44.7697 26.1722 44.8291 26.0287 44.9346 25.9229C45.0401 25.8171 45.1831 25.7576 45.3324 25.7574H53.6621C53.8113 25.7576 53.9544 25.8171 54.0599 25.9229C54.1654 26.0287 54.2247 26.1722 54.2249 26.3218V34.6749C54.2247 34.8245 54.1654 34.968 54.0599 35.0738C53.9544 35.1796 53.8113 35.2391 53.6621 35.2393Z" fill="#E5E5E5"/>
<path d="M15.8125 50.7035H7.48274C7.33353 50.7033 7.19047 50.6438 7.08496 50.538C6.97945 50.4322 6.9201 50.2888 6.91992 50.1391V41.786C6.9201 41.6364 6.97945 41.4929 7.08496 41.3871C7.19047 41.2813 7.33353 41.2218 7.48274 41.2216H15.8125C15.9617 41.2218 16.1048 41.2813 16.2103 41.3871C16.3158 41.4929 16.3751 41.6364 16.3753 41.786V50.1391C16.3751 50.2888 16.3158 50.4322 16.2103 50.538C16.1048 50.6438 15.9617 50.7033 15.8125 50.7035Z" fill="#E5E5E5"/>
<path d="M28.418 50.7035H20.0882C19.939 50.7033 19.7959 50.6438 19.6904 50.538C19.5849 50.4322 19.5256 50.2888 19.5254 50.1391V41.786C19.5256 41.6364 19.5849 41.4929 19.6904 41.3871C19.7959 41.2813 19.939 41.2218 20.0882 41.2216H28.418C28.5672 41.2218 28.7102 41.2813 28.8157 41.3871C28.9212 41.4929 28.9806 41.6364 28.9808 41.786V50.1391C28.9806 50.2888 28.9212 50.4322 28.8157 50.538C28.7102 50.6438 28.5672 50.7033 28.418 50.7035Z" fill="#E5E5E5"/>
<path d="M41.0254 50.7035H32.6956C32.5464 50.7033 32.4034 50.6438 32.2978 50.538C32.1923 50.4322 32.133 50.2888 32.1328 50.1391V41.786C32.133 41.6364 32.1923 41.4929 32.2978 41.3871C32.4034 41.2813 32.5464 41.2218 32.6956 41.2216H41.0254C41.1746 41.2218 41.3176 41.2813 41.4232 41.3871C41.5287 41.4929 41.588 41.6364 41.5882 41.786V50.1391C41.588 50.2888 41.5287 50.4322 41.4232 50.538C41.3176 50.6438 41.1746 50.7033 41.0254 50.7035Z" fill="#1B3A6C"/>
<path d="M53.6328 50.7035H45.3031C45.1538 50.7033 45.0108 50.6438 44.9053 50.538C44.7998 50.4322 44.7404 50.2888 44.7402 50.1391V41.786C44.7404 41.6364 44.7998 41.4929 44.9053 41.3871C45.0108 41.2813 45.1538 41.2218 45.3031 41.2216H53.6328C53.782 41.2218 53.9251 41.2813 54.0306 41.3871C54.1361 41.4929 54.1955 41.6364 54.1956 41.786V50.1391C54.1955 50.2888 54.1361 50.4322 54.0306 50.538C53.9251 50.6438 53.782 50.7033 53.6328 50.7035Z" fill="#1B3A6C"/>
<path d="M15.7812 66.168H7.45149C7.30228 66.1678 7.15922 66.1083 7.05371 66.0025C6.9482 65.8967 6.88885 65.7532 6.88867 65.6036V57.2505C6.88885 57.1009 6.9482 56.9574 7.05371 56.8516C7.15922 56.7458 7.30228 56.6863 7.45149 56.6861H15.7812C15.9305 56.6863 16.0735 56.7458 16.179 56.8516C16.2845 56.9574 16.3439 57.1009 16.3441 57.2505V65.6036C16.3439 65.7532 16.2845 65.8967 16.179 66.0025C16.0735 66.1083 15.9305 66.1678 15.7812 66.168Z" fill="#E5E5E5"/>
<path d="M28.3887 66.168H20.0589C19.9097 66.1678 19.7666 66.1083 19.6611 66.0025C19.5556 65.8967 19.4963 65.7532 19.4961 65.6036V57.2505C19.4963 57.1009 19.5556 56.9574 19.6611 56.8516C19.7666 56.7458 19.9097 56.6863 20.0589 56.6861H28.3887C28.5379 56.6863 28.6809 56.7458 28.7864 56.8516C28.892 56.9574 28.9513 57.1009 28.9515 57.2505V65.6036C28.9513 65.7532 28.892 65.8967 28.7864 66.0025C28.6809 66.1083 28.5379 66.1678 28.3887 66.168Z" fill="#E5E5E5"/>
<path d="M40.9961 66.168H32.6663C32.5171 66.1678 32.3741 66.1083 32.2686 66.0025C32.163 65.8967 32.1037 65.7532 32.1035 65.6036V57.2505C32.1037 57.1009 32.163 56.9574 32.2686 56.8516C32.3741 56.7458 32.5171 56.6863 32.6663 56.6861H40.9961C41.1453 56.6863 41.2884 56.7458 41.3939 56.8516C41.4994 56.9574 41.5587 57.1009 41.5589 57.2505V65.6036C41.5587 65.7532 41.4994 65.8967 41.3939 66.0025C41.2883 66.1083 41.1453 66.1678 40.9961 66.168Z" fill="#E5E5E5"/>
<path d="M53.6035 66.168H45.2738C45.1245 66.1678 44.9815 66.1083 44.876 66.0025C44.7705 65.8967 44.7111 65.7532 44.7109 65.6036V57.2505C44.7111 57.1009 44.7705 56.9574 44.876 56.8516C44.9815 56.7458 45.1245 56.6863 45.2738 56.6861H53.6035C53.7527 56.6863 53.8958 56.7458 54.0013 56.8516C54.1068 56.9574 54.1662 57.1009 54.1663 57.2505V65.6036C54.1662 65.7532 54.1068 65.8967 54.0013 66.0025C53.8958 66.1083 53.7527 66.1678 53.6035 66.168Z" fill="#E5E5E5"/>
<path d="M15.7519 81.6327H7.42219C7.27298 81.6325 7.12993 81.573 7.02442 81.4672C6.91891 81.3614 6.85955 81.218 6.85938 81.0683V72.7152C6.85955 72.5656 6.91891 72.4221 7.02442 72.3163C7.12993 72.2105 7.27298 72.151 7.42219 72.1508H15.7519C15.9012 72.151 16.0442 72.2105 16.1497 72.3163C16.2552 72.4221 16.3146 72.5656 16.3148 72.7152V81.0683C16.3146 81.218 16.2552 81.3614 16.1497 81.4672C16.0442 81.573 15.9012 81.6325 15.7519 81.6327Z" fill="#E5E5E5"/>
<path d="M28.3594 81.6327H20.0296C19.8804 81.6325 19.7373 81.573 19.6318 81.4672C19.5263 81.3614 19.467 81.218 19.4668 81.0683V72.7152C19.467 72.5656 19.5263 72.4221 19.6318 72.3163C19.7373 72.2105 19.8804 72.151 20.0296 72.1508H28.3594C28.5086 72.151 28.6516 72.2105 28.7571 72.3163C28.8627 72.4221 28.922 72.5656 28.9222 72.7152V81.0683C28.922 81.2179 28.8627 81.3614 28.7571 81.4672C28.6516 81.573 28.5086 81.6325 28.3594 81.6327Z" fill="#E5E5E5"/>
<path d="M40.9668 81.6327H32.637C32.4878 81.6325 32.3448 81.573 32.2393 81.4672C32.1338 81.3614 32.0744 81.218 32.0742 81.0683V72.7152C32.0744 72.5656 32.1338 72.4221 32.2393 72.3163C32.3448 72.2105 32.4878 72.151 32.637 72.1508H40.9668C41.116 72.151 41.2591 72.2105 41.3646 72.3163C41.4701 72.4221 41.5294 72.5656 41.5296 72.7152V81.0683C41.5294 81.218 41.4701 81.3614 41.3646 81.4672C41.2591 81.573 41.116 81.6325 40.9668 81.6327Z" fill="#E5E5E5"/>
<path d="M53.5742 81.6327H45.2445C45.0952 81.6325 44.9522 81.573 44.8467 81.4672C44.7412 81.3614 44.6818 81.218 44.6816 81.0683V72.7152C44.6818 72.5656 44.7412 72.4221 44.8467 72.3163C44.9522 72.2105 45.0952 72.151 45.2445 72.1508H53.5742C53.7234 72.151 53.8665 72.2105 53.972 72.3163C54.0775 72.4221 54.1369 72.5656 54.137 72.7152V81.0683C54.1369 81.218 54.0775 81.3614 53.972 81.4672C53.8665 81.573 53.7234 81.6325 53.5742 81.6327Z" fill="#E5E5E5"/>
<path d="M15.8418 116.174H7.51204C7.36283 116.174 7.21977 116.114 7.11426 116.008C7.00875 115.902 6.94939 115.759 6.94922 115.609V107.256C6.94939 107.107 7.00875 106.963 7.11426 106.857C7.21977 106.752 7.36283 106.692 7.51204 106.692H15.8418C15.991 106.692 16.1341 106.752 16.2396 106.857C16.3451 106.963 16.4044 107.107 16.4046 107.256V115.609C16.4044 115.759 16.3451 115.902 16.2396 116.008C16.1341 116.114 15.991 116.174 15.8418 116.174Z" fill="white"/>
<path d="M28.4492 116.174H20.1195C19.9702 116.174 19.8272 116.114 19.7217 116.008C19.6162 115.902 19.5568 115.759 19.5566 115.609V107.256C19.5568 107.107 19.6162 106.963 19.7217 106.857C19.8272 106.751 19.9702 106.692 20.1195 106.692H28.4492C28.5984 106.692 28.7415 106.751 28.847 106.857C28.9525 106.963 29.0118 107.107 29.012 107.256V115.609C29.0118 115.759 28.9525 115.902 28.847 116.008C28.7415 116.114 28.5984 116.174 28.4492 116.174Z" fill="white"/>
<path d="M41.0547 116.174H32.7249C32.5757 116.174 32.4327 116.114 32.3271 116.008C32.2216 115.902 32.1623 115.759 32.1621 115.609V107.256C32.1623 107.107 32.2216 106.963 32.3271 106.857C32.4327 106.751 32.5757 106.692 32.7249 106.692H41.0547C41.2039 106.692 41.3469 106.751 41.4525 106.857C41.558 106.963 41.6173 107.107 41.6175 107.256V115.609C41.6173 115.759 41.558 115.902 41.4525 116.008C41.3469 116.114 41.2039 116.174 41.0547 116.174Z" fill="white"/>
<path d="M53.6621 116.174H45.3324C45.1831 116.174 45.0401 116.114 44.9346 116.008C44.8291 115.902 44.7697 115.759 44.7695 115.609V107.256C44.7697 107.107 44.8291 106.963 44.9346 106.857C45.0401 106.752 45.1831 106.692 45.3324 106.692H53.6621C53.8113 106.692 53.9544 106.752 54.0599 106.857C54.1654 106.963 54.2247 107.107 54.2249 107.256V115.609C54.2247 115.759 54.1654 115.902 54.0599 116.008C53.9544 116.114 53.8113 116.174 53.6621 116.174Z" fill="white"/>
<path d="M26.5045 98.5644C27.1262 98.5644 27.6302 98.059 27.6302 97.4356C27.6302 96.8122 27.1262 96.3068 26.5045 96.3068C25.8829 96.3068 25.3789 96.8122 25.3789 97.4356C25.3789 98.059 25.8829 98.5644 26.5045 98.5644Z" fill="#E5E5E5"/>
<path d="M30.5573 98.5644C31.179 98.5644 31.6829 98.059 31.6829 97.4356C31.6829 96.8122 31.179 96.3068 30.5573 96.3068C29.9356 96.3068 29.4316 96.8122 29.4316 97.4356C29.4316 98.059 29.9356 98.5644 30.5573 98.5644Z" fill="#E5E5E5"/>
<path d="M34.61 98.5644C35.2317 98.5644 35.7357 98.059 35.7357 97.4356C35.7357 96.8122 35.2317 96.3068 34.61 96.3068C33.9883 96.3068 33.4844 96.8122 33.4844 97.4356C33.4844 98.059 33.9883 98.5644 34.61 98.5644Z" fill="#E5E5E5"/>
<path d="M154.481 31.346C155.576 31.346 156.464 30.456 156.464 29.3582C156.464 28.2604 155.576 27.3704 154.481 27.3704C153.386 27.3704 152.498 28.2604 152.498 29.3582C152.498 30.456 153.386 31.346 154.481 31.346Z" fill="#1B3A6C"/>
<path d="M154.285 30.1165C154.24 30.1166 154.197 30.1021 154.161 30.0753L154.159 30.0736L153.693 29.716C153.671 29.6994 153.653 29.6788 153.639 29.6552C153.626 29.6316 153.617 29.6055 153.613 29.5784C153.61 29.5514 153.611 29.5239 153.618 29.4975C153.625 29.4711 153.637 29.4464 153.654 29.4247C153.671 29.403 153.691 29.3849 153.715 29.3712C153.738 29.3576 153.764 29.3487 153.791 29.3452C153.818 29.3416 153.846 29.3434 153.872 29.3505C153.899 29.3576 153.923 29.3698 153.945 29.3865L154.247 29.6185L154.96 28.686C154.977 28.6644 154.997 28.6462 155.021 28.6326C155.044 28.6189 155.07 28.6101 155.097 28.6065C155.124 28.603 155.152 28.6047 155.178 28.6118C155.204 28.6188 155.229 28.631 155.25 28.6476C155.294 28.6811 155.322 28.7307 155.33 28.7852C155.337 28.8398 155.322 28.8949 155.289 28.9387L154.45 30.0355C154.43 30.0608 154.405 30.0812 154.377 30.0953C154.348 30.1093 154.317 30.1166 154.285 30.1165Z" fill="white"/>
<path d="M154.481 37.1562C155.576 37.1562 156.464 36.2663 156.464 35.1685C156.464 34.0706 155.576 33.1807 154.481 33.1807C153.386 33.1807 152.498 34.0706 152.498 35.1685C152.498 36.2663 153.386 37.1562 154.481 37.1562Z" fill="#1B3A6C"/>
<path d="M154.285 35.9268C154.24 35.9269 154.197 35.9124 154.161 35.8856L154.159 35.8839L153.693 35.5263C153.671 35.5097 153.653 35.489 153.639 35.4654C153.626 35.4418 153.617 35.4158 153.613 35.3887C153.61 35.3616 153.611 35.3341 153.618 35.3078C153.625 35.2814 153.637 35.2566 153.654 35.235C153.671 35.2133 153.691 35.1951 153.715 35.1815C153.738 35.1678 153.764 35.159 153.791 35.1554C153.818 35.1519 153.846 35.1537 153.872 35.1608C153.899 35.1679 153.923 35.1801 153.945 35.1968L154.247 35.4288L154.96 34.4963C154.977 34.4746 154.997 34.4565 155.021 34.4429C155.044 34.4292 155.07 34.4204 155.097 34.4168C155.124 34.4132 155.152 34.415 155.178 34.4221C155.204 34.4291 155.229 34.4413 155.25 34.4579C155.294 34.4914 155.322 34.5409 155.33 34.5955C155.337 34.65 155.322 34.7052 155.289 34.7489L154.45 35.8458C154.43 35.8711 154.405 35.8915 154.377 35.9056C154.348 35.9196 154.317 35.9269 154.285 35.9268Z" fill="white"/>
<path d="M155.55 43.8842C156.645 43.8842 157.533 42.9942 157.533 41.8964C157.533 40.7986 156.645 39.9086 155.55 39.9086C154.454 39.9086 153.566 40.7986 153.566 41.8964C153.566 42.9942 154.454 43.8842 155.55 43.8842Z" fill="#1B3A6C"/>
<path d="M155.353 42.6547C155.309 42.6548 155.265 42.6404 155.229 42.6135L155.227 42.6119L154.761 42.2542C154.74 42.2377 154.721 42.217 154.708 42.1934C154.694 42.1698 154.685 42.1437 154.682 42.1166C154.678 42.0896 154.68 42.0621 154.687 42.0357C154.694 42.0093 154.706 41.9846 154.722 41.9629C154.739 41.9413 154.76 41.9231 154.783 41.9094C154.807 41.8958 154.833 41.8869 154.86 41.8834C154.887 41.8798 154.914 41.8816 154.941 41.8887C154.967 41.8958 154.992 41.9081 155.013 41.9247L155.315 42.1567L156.028 41.2242C156.045 41.2026 156.065 41.1844 156.089 41.1708C156.113 41.1572 156.139 41.1483 156.166 41.1447C156.192 41.1412 156.22 41.143 156.246 41.15C156.272 41.1571 156.297 41.1692 156.319 41.1858C156.362 41.2193 156.391 41.2689 156.398 41.3234C156.405 41.378 156.39 41.4332 156.357 41.4769L155.518 42.5737C155.499 42.599 155.474 42.6195 155.445 42.6335C155.416 42.6476 155.385 42.6548 155.353 42.6547Z" fill="white"/>
<path d="M174.672 58.4927C174.652 58.4927 174.639 58.4922 174.634 58.492L172.172 58.4922V58.1283H174.643C174.7 58.1304 175.868 58.1634 176.943 56.8554C178.546 54.906 179.862 50.0802 177.031 38.1605C173.223 22.1327 176.399 7.9731 177.941 2.62927C178.017 2.36489 178.03 2.08643 177.98 1.81587C177.93 1.54532 177.818 1.2901 177.653 1.07038C177.488 0.850649 177.274 0.672436 177.028 0.549821C176.783 0.427206 176.512 0.363548 176.237 0.363875H139.468C139.188 0.36425 138.913 0.430687 138.664 0.557796C138.415 0.684904 138.199 0.869102 138.034 1.09544C137.381 1.99606 136.485 3.72622 135.924 6.85466L135.566 6.79034C136.139 3.59394 137.065 1.81287 137.741 0.881518C137.939 0.608795 138.199 0.386842 138.499 0.233677C138.799 0.0805121 139.131 0.000453002 139.468 9.90317e-07H176.237C176.568 -0.000318075 176.895 0.0764657 177.191 0.224286C177.487 0.372106 177.744 0.586913 177.943 0.851735C178.142 1.11656 178.277 1.42414 178.337 1.75018C178.397 2.07622 178.381 2.41179 178.289 2.73037C176.755 8.04648 173.596 22.1326 177.384 38.0762C180.255 50.1636 178.875 55.094 177.211 57.1016C176.114 58.4257 174.905 58.4927 174.672 58.4927Z" fill="#3F3D56"/>
<path d="M168.047 65.1335C168.027 65.1335 168.014 65.1329 168.009 65.1327L165.547 65.1329V64.7691H168.018C168.076 64.7708 169.243 64.8042 170.318 63.4961C171.921 61.5467 173.237 56.7209 170.406 44.8012C166.598 28.7735 169.774 14.6138 171.316 9.27001C171.392 9.00563 171.405 8.72716 171.355 8.45661C171.305 8.18606 171.194 7.93084 171.028 7.71111C170.863 7.49138 170.649 7.31317 170.404 7.19056C170.158 7.06794 169.887 7.00428 169.613 7.00461H132.843C132.564 7.00498 132.288 7.07142 132.039 7.19853C131.79 7.32564 131.574 7.50983 131.409 7.73617C130.756 8.63679 129.86 10.367 129.299 13.4954L128.941 13.4311C129.514 10.2347 130.44 8.4536 131.116 7.52225C131.314 7.24953 131.574 7.02757 131.874 6.87441C132.174 6.72124 132.506 6.64118 132.843 6.64073H169.613C169.943 6.64041 170.27 6.7172 170.566 6.86502C170.862 7.01284 171.119 7.22765 171.319 7.49247C171.518 7.75729 171.652 8.06488 171.712 8.39092C171.772 8.71696 171.756 9.05252 171.664 9.3711C170.13 14.6872 166.971 28.7734 170.759 44.717C173.63 56.8043 172.25 61.7347 170.586 63.7423C169.489 65.0664 168.28 65.1335 168.047 65.1335Z" fill="#3F3D56"/>
<path d="M164.133 51.358C160.345 35.4144 163.505 21.3272 165.039 16.0121C165.131 15.6935 165.147 15.358 165.087 15.032C165.027 14.7061 164.892 14.3985 164.693 14.1337C164.494 13.8689 164.236 13.6541 163.94 13.5061C163.644 13.3582 163.318 13.2812 162.988 13.2812H126.217C125.881 13.2815 125.549 13.3615 125.249 13.5145C124.949 13.6675 124.689 13.8894 124.49 14.162C123.006 16.2078 119.926 22.9923 123.366 41.7646C125.206 51.8075 125.178 58.6547 124.577 63.1654C124.24 65.7052 123.72 67.5034 123.249 68.7159L123.198 68.8444C123.099 69.0897 123.047 69.3518 123.046 69.6165C123.042 69.9155 123.102 70.2118 123.221 70.4859C123.34 70.76 123.516 71.0057 123.737 71.2068C123.881 71.342 124.044 71.4553 124.22 71.5432C124.367 71.6182 124.522 71.6752 124.683 71.7129C124.846 71.7528 125.013 71.7728 125.181 71.7725H161.384C161.389 71.7725 161.401 71.774 161.422 71.774C161.654 71.774 162.864 71.7068 163.961 70.3826C165.624 68.3749 167.004 63.4452 164.133 51.358ZM163.692 70.1364C162.617 71.4453 161.45 71.4117 161.393 71.4101H125.181C124.892 71.41 124.606 71.3388 124.35 71.2026C124.094 71.0664 123.875 70.8694 123.712 70.6288C123.569 70.4208 123.473 70.184 123.431 69.935C123.388 69.686 123.401 69.4306 123.467 69.1869C123.484 69.116 123.506 69.0465 123.534 68.9789C124.072 67.592 124.471 66.1547 124.725 64.6884C125.586 59.9865 125.746 52.7311 123.723 41.6989C120.309 23.0657 123.328 16.3837 124.783 14.376C124.948 14.15 125.164 13.9661 125.413 13.8391C125.662 13.7122 125.938 13.6457 126.217 13.6451H162.988C163.262 13.6449 163.532 13.7087 163.778 13.8313C164.024 13.9539 164.237 14.132 164.402 14.3516C164.568 14.5712 164.679 14.8263 164.729 15.0967C164.779 15.3671 164.766 15.6454 164.69 15.9097C163.148 21.2538 159.973 35.4144 163.781 51.4421C166.612 63.3611 165.296 68.1869 163.692 70.1364Z" fill="#3F3D56"/>
<path d="M148.253 30.5813H135.158C134.892 30.5813 134.637 30.4282 134.448 30.1558C134.26 29.8834 134.154 29.5139 134.154 29.1287C134.154 28.7434 134.26 28.3739 134.448 28.1015C134.637 27.8291 134.892 27.6761 135.158 27.6761H148.253C148.519 27.6761 148.774 27.8291 148.963 28.1015C149.151 28.3739 149.257 28.7434 149.257 29.1287C149.257 29.5139 149.151 29.8834 148.963 30.1558C148.774 30.4282 148.519 30.5813 148.253 30.5813Z" fill="#B1CFFF"/>
<path d="M148.253 36.8506H135.158C134.892 36.8506 134.637 36.6976 134.448 36.4252C134.26 36.1528 134.154 35.7833 134.154 35.398C134.154 35.0128 134.26 34.6433 134.448 34.3709C134.637 34.0985 134.892 33.9454 135.158 33.9454H148.253C148.519 33.9454 148.774 34.0985 148.963 34.3709C149.151 34.6433 149.257 35.0128 149.257 35.398C149.257 35.7833 149.151 36.1528 148.963 36.4252C148.774 36.6976 148.519 36.8506 148.253 36.8506Z" fill="#B1CFFF"/>
<path d="M149.321 43.2724H136.226C135.96 43.2724 135.705 43.1194 135.517 42.847C135.328 42.5746 135.223 42.2051 135.223 41.8198C135.223 41.4346 135.328 41.0651 135.517 40.7927C135.705 40.5203 135.96 40.3672 136.226 40.3672H149.321C149.587 40.3672 149.843 40.5203 150.031 40.7927C150.219 41.0651 150.325 41.4346 150.325 41.8198C150.325 42.2051 150.219 42.5746 150.031 42.847C149.843 43.1194 149.587 43.2724 149.321 43.2724Z" fill="#B1CFFF"/>
<path d="M149.943 50.0004H136.98C136.716 50.0004 136.464 49.8474 136.277 49.5749C136.091 49.3025 135.986 48.9331 135.986 48.5478C135.986 48.1625 136.091 47.7931 136.277 47.5206C136.464 47.2482 136.716 47.0952 136.98 47.0952H149.943C150.206 47.0952 150.459 47.2482 150.645 47.5206C150.831 47.7931 150.936 48.1625 150.936 48.5478C150.936 48.9331 150.831 49.3025 150.645 49.5749C150.459 49.8474 150.206 50.0004 149.943 50.0004Z" fill="#B1CFFF"/>
<path d="M149.266 19.3414H135.653C135.462 19.3416 135.273 19.3041 135.097 19.231C134.92 19.1579 134.76 19.0508 134.625 18.9156C134.49 18.7804 134.383 18.6199 134.31 18.4432C134.237 18.2665 134.199 18.0771 134.199 17.8859C134.199 17.6946 134.237 17.5052 134.31 17.3285C134.383 17.1519 134.49 16.9913 134.625 16.8562C134.76 16.721 134.92 16.6138 135.097 16.5408C135.273 16.4677 135.462 16.4302 135.653 16.4304H149.266C149.651 16.4304 150.02 16.5837 150.293 16.8567C150.565 17.1296 150.718 17.4999 150.718 17.8859C150.718 18.2719 150.565 18.6421 150.293 18.9151C150.02 19.188 149.651 19.3414 149.266 19.3414Z" fill="#1B3A6C"/>
<path d="M156.77 50.5939C157.865 50.5939 158.753 49.704 158.753 48.6061C158.753 47.5083 157.865 46.6183 156.77 46.6183C155.675 46.6183 154.787 47.5083 154.787 48.6061C154.787 49.704 155.675 50.5939 156.77 50.5939Z" fill="#CCCCCC"/>
<path d="M128.966 31.2543C130.061 31.2543 130.949 30.3643 130.949 29.2665C130.949 28.1686 130.061 27.2787 128.966 27.2787C127.87 27.2787 126.982 28.1686 126.982 29.2665C126.982 30.3643 127.87 31.2543 128.966 31.2543Z" fill="#3F3D56"/>
<path d="M128.966 37.119C130.061 37.119 130.949 36.229 130.949 35.1312C130.949 34.0334 130.061 33.1434 128.966 33.1434C127.87 33.1434 126.982 34.0334 126.982 35.1312C126.982 36.229 127.87 37.119 128.966 37.119Z" fill="#3F3D56"/>
<path d="M129.921 43.9387C131.016 43.9387 131.904 43.0487 131.904 41.9509C131.904 40.8531 131.016 39.9631 129.921 39.9631C128.825 39.9631 127.938 40.8531 127.938 41.9509C127.938 43.0487 128.825 43.9387 129.921 43.9387Z" fill="#3F3D56"/>
<path d="M130.602 50.4855C131.698 50.4855 132.585 49.5955 132.585 48.4977C132.585 47.3998 131.698 46.5099 130.602 46.5099C129.507 46.5099 128.619 47.3998 128.619 48.4977C128.619 49.5955 129.507 50.4855 130.602 50.4855Z" fill="#3F3D56"/>
<path d="M131.284 57.1689C132.379 57.1689 133.267 56.2789 133.267 55.1811C133.267 54.0833 132.379 53.1933 131.284 53.1933C130.189 53.1933 129.301 54.0833 129.301 55.1811C129.301 56.2789 130.189 57.1689 131.284 57.1689Z" fill="#3F3D56"/>
<path d="M150.694 56.5757H137.599C137.333 56.5757 137.078 56.4226 136.89 56.1502C136.701 55.8778 136.596 55.5083 136.596 55.1231C136.596 54.7378 136.701 54.3683 136.89 54.0959C137.078 53.8235 137.333 53.6704 137.599 53.6704H150.694C150.961 53.6704 151.216 53.8235 151.404 54.0959C151.592 54.3683 151.698 54.7378 151.698 55.1231C151.698 55.5083 151.592 55.8778 151.404 56.1502C151.216 56.4226 150.961 56.5757 150.694 56.5757Z" fill="#B1CFFF"/>
<path d="M157.684 57.1692C158.78 57.1692 159.667 56.2792 159.667 55.1814C159.667 54.0836 158.78 53.1936 157.684 53.1936C156.589 53.1936 155.701 54.0836 155.701 55.1814C155.701 56.2792 156.589 57.1692 157.684 57.1692Z" fill="#CCCCCC"/>
<path d="M79.762 67.6698C87.547 67.6698 93.8579 61.3588 93.8579 53.5738C93.8579 45.7888 87.547 39.4779 79.762 39.4779C71.977 39.4779 65.666 45.7888 65.666 53.5738C65.666 61.3588 71.977 67.6698 79.762 67.6698Z" fill="white"/>
<path d="M79.7211 67.7601C65.7746 68.0805 65.4688 61.4546 65.4688 53.5736C65.4688 45.6927 71.8804 39.2811 79.7613 39.2811C87.6423 39.2811 94.054 45.6927 94.054 53.5736C94.0539 61.4546 87.602 67.7601 79.7211 67.7601ZM79.7613 39.6744C72.0972 39.6744 65.9911 45.9106 65.862 53.5736C65.742 60.7011 73.3138 69.5953 79.7613 67.473C83.219 63.665 92.9947 59.5636 93.6607 53.5736C94.5076 45.9565 87.4255 39.6744 79.7613 39.6744Z" fill="#3F3D56"/>
<path d="M77.8377 60.91C77.5943 60.91 77.3542 60.8533 77.1365 60.7444C76.9188 60.6355 76.7294 60.4774 76.5834 60.2827L72.7378 55.1551C72.6142 54.9904 72.5242 54.8029 72.473 54.6034C72.4218 54.4039 72.4105 54.1963 72.4395 53.9924C72.4686 53.7885 72.5376 53.5923 72.6425 53.4151C72.7475 53.2378 72.8863 53.083 73.051 52.9594C73.2158 52.8358 73.4033 52.7459 73.6029 52.6949C73.8024 52.6438 74.01 52.6325 74.2139 52.6617C74.4178 52.6909 74.614 52.7599 74.7911 52.8649C74.9683 52.9699 75.1231 53.1088 75.2466 53.2737L77.7625 56.628L84.2243 46.9354C84.4551 46.5896 84.8138 46.3496 85.2214 46.2682C85.6291 46.1868 86.0524 46.2706 86.3983 46.5012C86.7442 46.7318 86.9844 47.0903 87.066 47.4979C87.1477 47.9055 87.0641 48.3289 86.8337 48.6749L79.1425 60.2117C79.0033 60.4204 78.8162 60.5926 78.5968 60.714C78.3773 60.8354 78.132 60.9024 77.8813 60.9095C77.8668 60.9097 77.8522 60.91 77.8377 60.91Z" fill="#F2F2F2"/>
<path d="M82.3162 59.2267C82.0728 59.2267 81.8327 59.17 81.615 59.0612C81.3973 58.9523 81.2079 58.7942 81.0619 58.5994L77.2163 53.4719C77.0927 53.3072 77.0027 53.1197 76.9515 52.9202C76.9003 52.7207 76.889 52.513 76.9181 52.3091C76.9471 52.1052 77.0161 51.9091 77.121 51.7318C77.226 51.5546 77.3648 51.3998 77.5296 51.2762C77.6943 51.1526 77.8818 51.0627 78.0814 51.0116C78.2809 50.9605 78.4886 50.9493 78.6924 50.9784C78.8963 51.0076 79.0925 51.0767 79.2697 51.1817C79.4469 51.2867 79.6016 51.4256 79.7251 51.5904L82.241 54.9447L88.7028 45.2521C88.8171 45.0808 88.9639 44.9336 89.135 44.8191C89.3061 44.7045 89.4981 44.6247 89.7 44.5843C89.9019 44.544 90.1098 44.5437 90.3118 44.5837C90.5138 44.6237 90.706 44.703 90.8773 44.8172C91.0486 44.9315 91.1958 45.0783 91.3104 45.2494C91.4249 45.4205 91.5047 45.6125 91.5451 45.8144C91.5855 46.0163 91.5857 46.2242 91.5457 46.4262C91.5057 46.6282 91.4264 46.8203 91.3122 46.9917L83.621 58.5285C83.4819 58.7371 83.2947 58.9094 83.0753 59.0308C82.8559 59.1522 82.6105 59.2192 82.3598 59.2262C82.3453 59.2265 82.3307 59.2267 82.3162 59.2267Z" fill="#1B3A6C"/>
<path d="M130.824 90.6665V119.017H135.282V93.1628H153.113V119.017H157.57V62.3158H153.113C151.635 62.3158 149.368 70.0089 149.368 77.7393C149.368 83.5661 150.049 88.5597 151.016 90.6665H130.824ZM153.113 90.6665H153.069C153.084 90.6348 153.098 90.6013 153.113 90.5683V90.6665Z" fill="#3F3D56"/>
<path d="M147.342 48.2831C143.683 48.2831 140.717 51.5749 140.717 55.6356V60.7948H142.304L143.222 58.8833L142.992 60.7948H153.191L154.026 59.057L153.818 60.7948H154.966V56.7439C154.966 52.0711 151.553 48.2831 147.342 48.2831Z" fill="#2F2E41"/>
<path d="M139.75 81.9903L135.682 83.7192L121.547 95.2108C121.027 95.8495 120.708 96.6282 120.631 97.4481C120.53 98.7701 116.258 105.685 117.784 106.601C119.309 107.516 124.801 110.262 125.106 108.431C125.411 106.601 127.038 98.7701 127.038 98.7701L140.665 86.5666L139.75 81.9903Z" fill="#2F2E41"/>
<path d="M123.785 106.906L122.056 111.991C122.056 111.991 123.887 113.923 122.971 115.55V121.143H121.548L121.141 118.194C121.141 118.194 119.519 121.106 118.7 121.143C116.983 121.222 113.583 121.832 113.481 120.917C113.38 120.002 116.056 119.109 116.056 119.109L118.904 111.279L120.124 106.499L123.785 106.906Z" fill="#2F2E41"/>
<path d="M150.329 80.6684C150.329 80.6684 151.244 89.6176 148.6 91.2447C145.956 92.8718 134.261 98.0583 134.261 98.0583C134.261 98.0583 139.244 102.736 138.227 103.855C137.21 104.974 132.633 108.025 132.023 107.414C131.413 106.804 124.599 99.4821 125.413 97.1431C126.227 94.8041 137.515 87.1769 137.515 87.1769L138.837 82.3972L139.244 78.5327L143.515 75.787L150.329 80.6684Z" fill="#2F2E41"/>
<path d="M145.669 59.8321C148.011 59.8321 149.909 57.934 149.909 55.5926C149.909 53.2511 148.011 51.353 145.669 51.353C143.328 51.353 141.43 53.2511 141.43 55.5926C141.43 57.934 143.328 59.8321 145.669 59.8321Z" fill="#FFB9B9"/>
<path d="M148.956 57.329C148.956 57.329 148.752 61.1934 151.905 62.4138C155.057 63.6341 144.074 71.5664 144.074 71.5664V62.7189C144.074 62.7189 145.498 61.1934 144.074 58.8544L148.956 57.329Z" fill="#FFB9B9"/>
<path d="M155.718 75.4818L154.904 79.4479L152.464 93.0752C152.464 93.0752 154.497 98.8718 151.752 98.7702C149.006 98.6685 150.328 92.465 150.328 92.465L151.752 81.1768V76.8039L155.718 75.4818Z" fill="#FFB9B9"/>
<path d="M138.227 73.5497L137.311 77.1091L133.142 87.1769C133.142 87.1769 130.294 91.9566 132.633 91.8549C134.972 91.7533 134.972 87.1769 134.972 87.1769L139.752 79.0413V74.465L138.227 73.5497Z" fill="#FFB9B9"/>
<path d="M137.514 103.245L140.87 106.397C140.87 106.397 143.209 105.889 144.124 108.635C145.04 111.38 145.65 113.109 145.65 113.109L144.429 113.821L142.904 111.686C142.904 111.686 141.989 115.55 141.073 115.855C140.158 116.16 135.582 118.194 135.989 115.855L138.226 112.601C138.226 112.601 138.531 108.94 137.616 108.635C136.7 108.33 134.26 105.279 134.26 105.279L137.514 103.245Z" fill="#2F2E41"/>
<path d="M150.489 83.8209C150.489 83.8209 140.929 80.3633 140.319 80.6683C139.865 80.869 139.381 80.9946 138.887 81.0401L138.895 79.6514C138.895 79.6514 142.048 78.5327 143.777 79.2446C145.506 79.9565 150.794 83.109 150.794 83.109L150.489 83.8209Z" fill="#3F3D56"/>
<path d="M144.683 69.5326C144.683 69.5326 147.429 66.3801 148.243 64.4478C148.758 63.2765 149.702 62.3474 150.882 61.8525C150.882 61.8525 156.989 63.2275 156.887 65.6682C156.785 68.1089 153.023 71.8716 153.023 71.8716C153.023 71.8716 153.531 85.3972 150.785 85.1938C150.193 84.487 149.775 83.651 149.565 82.7531C149.26 81.3293 139.802 79.8039 139.802 79.8039C139.802 79.8039 138.988 81.2276 138.887 80.6175C138.785 80.0073 139.7 65.058 139.7 65.058L144.55 61.8525L144.683 69.5326Z" fill="#D0CDE1"/>
<path d="M156.104 64.686L156.172 64.7243C156.389 64.8462 156.57 65.0239 156.696 65.239C156.822 65.454 156.888 65.6988 156.888 65.948L156.887 73.4951C156.888 73.7003 156.933 73.9028 157.02 74.0887C157.107 74.2745 157.233 74.4392 157.39 74.5714C157.782 74.9046 158.145 75.3848 157.396 75.6347C156.175 76.0414 151.396 78.0754 151.294 77.3635C151.192 76.6516 150.989 75.838 151.294 75.838C151.533 75.838 152.956 68.5456 154.099 65.4277C154.169 65.2368 154.28 65.0633 154.423 64.9193C154.567 64.7754 154.74 64.6643 154.93 64.5937C155.121 64.5232 155.325 64.4949 155.527 64.5109C155.73 64.5268 155.927 64.5866 156.104 64.686Z" fill="#D0CDE1"/>
<path d="M141.074 64.7022L139.65 65.109L138.023 72.126C138.023 72.126 136.091 72.5328 136.701 73.2447C137.311 73.9566 139.854 75.7871 139.854 75.7871L141.074 64.7022Z" fill="#D0CDE1"/>
<path d="M149.227 50.3087C148.908 49.8806 148.495 49.5316 148.02 49.289C147.544 49.0464 147.019 48.9166 146.485 48.9096H146.355C143.847 48.9096 141.814 51.179 141.814 53.9784L142.655 53.9784L142.79 52.9454L142.989 53.9784H147.973L148.391 53.1045L148.287 53.9784H149.267C149.725 56.2506 149.067 58.5228 147.295 60.795H148.965L149.8 59.0471L149.591 60.795H152.775L153.402 56.7749C153.402 53.7643 151.652 51.2113 149.227 50.3087Z" fill="#2F2E41"/>
<path d="M48.398 95.4927C49.4401 93.2239 50.173 87.8461 50.173 81.571C50.173 73.2459 47.7312 64.9609 46.1404 64.9609H41.3398V126.025H46.1404V98.1811H65.3429V126.025H70.1435V95.4927H48.398ZM46.1404 95.387C46.156 95.4226 46.1715 95.4586 46.1871 95.4927H46.1404V95.387Z" fill="#3F3D56"/>
<path d="M68.4062 84.3528C68.4062 84.3528 74.1877 86.75 72.3545 88.1601C70.5214 89.5702 66.7141 86.4679 66.8551 86.0449C66.9961 85.6219 66.291 84.6348 66.291 84.6348L68.4062 84.3528Z" fill="#9F616A"/>
<path d="M63.3301 65.4572L65.1632 67.1493L65.5863 72.0848L66.9964 77.3022C66.9964 77.3022 69.3936 82.2377 68.9706 83.2247C68.5475 84.2118 69.3936 84.4939 69.3936 84.4939L66.1503 85.763C66.1503 85.763 62.625 81.8146 62.625 80.9685C62.625 80.1225 63.3301 65.4572 63.3301 65.4572Z" fill="#575A88"/>
<path opacity="0.1" d="M63.3301 65.4572L65.1632 67.1493L65.5863 72.0848L66.9964 77.3022C66.9964 77.3022 69.3936 82.2377 68.9706 83.2247C68.5475 84.2118 69.3936 84.4939 69.3936 84.4939L66.1503 85.763C66.1503 85.763 62.625 81.8146 62.625 80.9685C62.625 80.1225 63.3301 65.4572 63.3301 65.4572Z" fill="black"/>
<path d="M80.6754 116.222C80.6754 116.222 79.9703 119.465 79.8293 119.747C79.6883 120.029 82.5086 121.016 82.5086 121.016L85.8929 118.619C85.8929 118.619 84.4827 115.517 84.4827 114.953L80.6754 116.222Z" fill="#575A88"/>
<path d="M62.2022 84.6351L63.1893 85.7632C63.1893 85.7632 83.6361 88.3015 84.0591 92.2498C84.4822 96.1981 87.4434 114.812 85.7513 115.376C84.0591 115.94 79.6877 118.055 79.6877 116.927C79.6877 115.799 76.8675 100.288 77.4315 97.4673C77.4315 97.4673 53.0364 94.365 52.4724 90.8397C51.9083 87.3144 53.0364 85.7632 53.0364 85.7632L62.2022 84.6351Z" fill="#2F2E41"/>
<path opacity="0.1" d="M62.2022 84.6351L63.1893 85.7632C63.1893 85.7632 83.6361 88.3015 84.0591 92.2498C84.4822 96.1981 87.4434 114.812 85.7513 115.376C84.0591 115.94 79.6877 118.055 79.6877 116.927C79.6877 115.799 76.8675 100.288 77.4315 97.4673C77.4315 97.4673 53.0364 94.365 52.4724 90.8397C51.9083 87.3144 53.0364 85.7632 53.0364 85.7632L62.2022 84.6351Z" fill="black"/>
<path d="M80.393 119.465C80.393 119.465 79.8289 118.196 79.5469 118.619C79.2649 119.042 78.2778 123.977 79.2649 123.977C80.252 123.977 89.2767 126.233 90.5458 125.951C91.815 125.669 94.2122 126.092 93.9301 124.682C93.6481 123.272 92.238 123.131 92.238 123.131C92.238 123.131 87.0205 120.029 86.7385 118.478C86.4565 116.927 84.9054 117.773 84.9054 117.773V118.76C84.9054 118.76 81.9441 121.016 80.393 119.465Z" fill="#2F2E41"/>
<path d="M53.6005 54.7403C53.6005 54.7403 54.5876 59.5348 52.4724 59.9578C50.3573 60.3808 55.1517 63.2011 55.1517 63.2011L58.2539 64.8932L60.5101 62.637C60.5101 62.637 58.4655 58.4772 60.0166 55.3749C61.5677 52.2726 53.6005 54.7403 53.6005 54.7403Z" fill="#9F616A"/>
<path d="M60.5101 62.637L58.2539 64.8932L55.1517 63.2011C55.1517 63.2011 50.3573 60.3808 52.4724 59.9578C53.8332 59.6856 53.9094 57.6043 53.7923 56.1547C53.7541 55.6801 53.6901 55.208 53.6005 54.7403C53.6005 54.7403 61.5677 52.2726 60.0166 55.3749C59.7809 55.854 59.6175 56.3653 59.5315 56.8922C59.0563 59.68 60.5101 62.637 60.5101 62.637Z" fill="#9F616A"/>
<path d="M68.4082 120.311V123.555H73.7667L74.1897 122.286L73.6257 118.901L68.4082 120.311Z" fill="#575A88"/>
<path d="M46.2676 87.4552C46.2676 87.4552 46.2676 95.7749 49.6519 96.0569C53.0362 96.3389 65.1632 97.8901 65.1632 97.8901C65.1632 97.8901 65.8683 111.709 67.1374 116.222C68.4065 120.734 67.2784 121.016 68.4065 121.298C69.5346 121.58 74.329 120.593 74.188 119.606C74.047 118.619 73.4829 93.6597 73.4829 93.6597C73.4829 93.6597 74.752 88.3012 57.8306 85.763L46.2676 87.4552Z" fill="#2F2E41"/>
<path d="M68.8301 122.567C68.8301 122.567 67.9841 120.734 67.843 121.298C67.702 121.862 66.0099 126.798 67.702 127.221C69.3942 127.644 74.7526 129.9 78.2779 129.759C81.8032 129.618 82.2263 129.477 82.2263 129.477C82.2263 129.477 83.2134 128.067 81.9443 127.221C80.6751 126.375 75.4577 121.439 75.1757 120.875C74.8936 120.311 72.7785 119.888 72.7785 120.875C72.7785 121.862 69.8172 123.836 68.8301 122.567Z" fill="#2F2E41"/>
<path opacity="0.1" d="M60.0176 55.3749C59.7819 55.854 59.6185 56.3653 59.5325 56.8922C58.8303 57.3166 58.3607 57.2081 57.4794 57.2081C56.1722 57.2081 55.6448 55.5371 54.8002 54.6698C54.7339 53.8647 53.6016 54.7403 53.6016 54.7403C53.6016 54.7403 61.5688 52.2726 60.0176 55.3749Z" fill="black"/>
<path d="M57.1261 57.1375C59.6961 57.1375 61.7795 55.0541 61.7795 52.4841C61.7795 49.9141 59.6961 47.8307 57.1261 47.8307C54.5561 47.8307 52.4727 49.9141 52.4727 52.4841C52.4727 55.0541 54.5561 57.1375 57.1261 57.1375Z" fill="#9F616A"/>
<path d="M65.1629 67.1492C65.1629 67.1492 64.4578 72.2257 64.0348 74.0588C63.6117 75.892 63.0477 84.3527 62.7656 85.4808C62.4836 86.6089 60.7915 86.891 57.4072 86.4679C57.1947 86.4412 56.9811 86.4252 56.767 86.42C54.6828 86.3537 52.2983 87.1335 50.0915 87.7455C48.8224 88.098 47.6111 88.3941 46.5492 88.4421C44.9417 88.5154 44.4707 86.733 44.5257 84.804C44.5779 83.0089 45.0869 81.0841 45.5622 80.4044C46.4181 79.1804 45.5763 68.1913 45.8921 64.5673V64.5659C45.9401 64.0131 46.0148 63.6324 46.1262 63.4829C46.9723 62.3548 52.4718 59.5346 53.088 59.6488C53.7028 59.763 58.9583 63.0599 58.9583 63.0599C60.2274 63.0599 60.1865 61.6836 60.1865 61.6836C60.1865 61.6836 61.0735 63.3419 62.7656 63.7649C64.4578 64.188 65.1629 67.1492 65.1629 67.1492Z" fill="#575A88"/>
<path d="M55.7379 85.4306C55.7379 85.4306 64.8214 85.7199 63.2301 86.799C61.6389 87.8782 54.5883 88.8653 54.4473 87.4552C54.3063 86.0451 55.7379 85.4306 55.7379 85.4306Z" fill="#9F616A"/>
<path opacity="0.1" d="M56.7667 86.4202C56.7963 86.9617 55.3396 88.1815 54.8686 89.0064C54.6078 89.4633 52.5885 88.8612 50.0911 87.7458C48.1747 86.8856 46.3157 85.9031 44.5254 84.8042C44.5776 83.0092 45.0866 81.0843 45.5618 80.4047C46.4178 79.1807 45.5759 68.1916 45.8918 64.5676V64.5662C45.9671 64.5279 46.0454 64.4959 46.1259 64.4703H47.818C53.5995 67.1495 46.972 78.7125 46.972 78.7125C46.972 78.7125 55.7147 85.9041 56.5608 86.1862C56.6163 86.1967 56.6667 86.2254 56.704 86.2678C56.7412 86.3102 56.7633 86.3639 56.7667 86.4202Z" fill="black"/>
<path d="M47.8196 63.6241H46.1275C46.1275 63.6241 44.5764 64.0471 43.3073 66.8674C42.0381 69.6876 37.3847 78.4304 41.4741 81.8146C45.5634 85.1989 54.3062 89.1473 54.8703 88.1602C55.4343 87.1731 57.4085 85.622 56.5624 85.34C55.7163 85.0579 46.9736 77.8663 46.9736 77.8663C46.9736 77.8663 53.6011 66.3033 47.8196 63.6241Z" fill="#575A88"/>
<path d="M56.4096 50.319C56.4096 50.319 56.6138 47.4921 59.1331 48.6448C61.6523 49.7974 61.4879 46.6203 60.7266 46.0589C59.9653 45.4974 59.9894 45.3585 57.205 45.7341C54.4206 46.1098 49.0148 46.7462 50.7627 52.3448C52.5106 57.9435 54.0937 56.5032 54.0937 56.5032C54.0937 56.5032 52.7043 51.4652 54.1121 52.425L55.5199 53.3848L56.2628 53.2275L56.4096 50.319Z" fill="#2F2E41"/>
<path d="M149.349 81.891C149.349 78.32 131.03 75.4252 108.432 75.4252C85.8332 75.4252 67.5137 78.32 67.5137 81.891C67.5137 83.275 70.267 84.5573 74.9533 85.609V129.846H77.1852V86.0651C84.6909 87.4667 95.9025 88.3568 108.432 88.3568C121.064 88.3568 132.358 87.452 139.864 86.0304V129.846H142.096V85.5666C146.668 84.5229 149.349 83.2565 149.349 81.891Z" fill="#827FA2"/>
<path d="M113.543 79.951C118.138 79.951 121.863 79.0351 121.863 77.9051C121.863 76.7752 118.138 75.8593 113.543 75.8593C108.948 75.8593 105.223 76.7752 105.223 77.9051C105.223 79.0351 108.948 79.951 113.543 79.951Z" fill="#F2F2F2"/>
<path d="M113.544 79.5821C117.311 79.5821 120.364 78.8313 120.364 77.9051C120.364 76.9789 117.311 76.2281 113.544 76.2281C109.778 76.2281 106.725 76.9789 106.725 77.9051C106.725 78.8313 109.778 79.5821 113.544 79.5821Z" fill="#D0CDE1"/>
<path d="M82.5817 81.5877C87.1767 81.5877 90.9017 80.6718 90.9017 79.5418C90.9017 78.4119 87.1767 77.4959 82.5817 77.4959C77.9867 77.4959 74.2617 78.4119 74.2617 79.5418C74.2617 80.6718 77.9867 81.5877 82.5817 81.5877Z" fill="#F2F2F2"/>
<path d="M82.5814 81.2187C86.3478 81.2187 89.401 80.4679 89.401 79.5418C89.401 78.6156 86.3478 77.8648 82.5814 77.8648C78.815 77.8648 75.7617 78.6156 75.7617 79.5418C75.7617 80.4679 78.815 81.2187 82.5814 81.2187Z" fill="#D0CDE1"/>
<path d="M113.349 77.7606C115.54 77.7606 117.316 77.4802 117.316 77.1343C117.316 76.7884 115.54 76.508 113.349 76.508C111.159 76.508 109.383 76.7884 109.383 77.1343C109.383 77.4802 111.159 77.7606 113.349 77.7606Z" fill="#9F616A"/>
<path d="M111.237 76.8993C111.929 76.8993 112.489 76.5955 112.489 76.2208C112.489 75.8461 111.929 75.5424 111.237 75.5424C110.545 75.5424 109.984 75.8461 109.984 76.2208C109.984 76.5955 110.545 76.8993 111.237 76.8993Z" fill="#6C63FF"/>
<path d="M110.766 76.8993C111.458 76.8993 112.019 76.5955 112.019 76.2208C112.019 75.8461 111.458 75.5424 110.766 75.5424C110.074 75.5424 109.514 75.8461 109.514 76.2208C109.514 76.5955 110.074 76.8993 110.766 76.8993Z" fill="#6C63FF"/>
<path d="M116.247 77.056C116.938 77.056 117.499 76.7522 117.499 76.3775C117.499 76.0028 116.938 75.6991 116.247 75.6991C115.555 75.6991 114.994 76.0028 114.994 76.3775C114.994 76.7522 115.555 77.056 116.247 77.056Z" fill="#6C63FF"/>
<path d="M113.376 76.8993C114.067 76.8993 114.628 76.5955 114.628 76.2208C114.628 75.8461 114.067 75.5424 113.376 75.5424C112.684 75.5424 112.123 75.8461 112.123 76.2208C112.123 76.5955 112.684 76.8993 113.376 76.8993Z" fill="#6C63FF"/>
<path d="M115.516 76.8993C116.208 76.8993 116.769 76.5955 116.769 76.2208C116.769 75.8461 116.208 75.5424 115.516 75.5424C114.824 75.5424 114.264 75.8461 114.264 76.2208C114.264 76.5955 114.824 76.8993 115.516 76.8993Z" fill="#6C63FF"/>
<path d="M117.133 75.8037C114.87 76.5718 112.33 76.5718 109.514 75.8037V75.698C109.513 74.8993 109.82 74.1311 110.37 73.5521C110.92 72.9732 111.672 72.6279 112.469 72.5876C113.141 72.5538 113.813 72.5547 114.484 72.5902C115.202 72.632 115.876 72.9469 116.369 73.4704C116.862 73.9939 117.135 74.6861 117.133 75.4049V75.8037Z" fill="#3F3D56"/>
<path d="M116.023 78.6797C114.35 78.8487 112.665 78.8487 110.992 78.6797C110.595 78.6408 110.227 78.4557 109.958 78.1606C109.69 77.8654 109.542 77.4811 109.541 77.0823H117.474C117.473 77.4811 117.324 77.8654 117.056 78.1606C116.788 78.4557 116.42 78.6408 116.023 78.6797Z" fill="#3F3D56"/>
<path d="M112.279 73.5594C112.097 73.6352 111.902 73.6742 111.705 73.6742C111.508 73.6742 111.313 73.6352 111.131 73.5594C111.313 73.4836 111.508 73.4446 111.705 73.4446C111.902 73.4446 112.097 73.4836 112.279 73.5594Z" fill="#D0CDE1"/>
<path d="M113.427 74.029C113.246 74.1048 113.05 74.1438 112.853 74.1438C112.656 74.1438 112.461 74.1048 112.279 74.029C112.461 73.9532 112.656 73.9142 112.853 73.9142C113.05 73.9142 113.246 73.9532 113.427 74.029Z" fill="#D0CDE1"/>
<path d="M113.533 73.1943C113.351 73.2701 113.156 73.3091 112.959 73.3091C112.762 73.3091 112.567 73.2701 112.385 73.1943C112.567 73.1185 112.762 73.0795 112.959 73.0795C113.156 73.0795 113.351 73.1185 113.533 73.1943Z" fill="#D0CDE1"/>
<path d="M115.674 73.1943C115.492 73.2701 115.297 73.3091 115.099 73.3091C114.902 73.3091 114.707 73.2701 114.525 73.1943C114.707 73.1185 114.902 73.0795 115.099 73.0795C115.297 73.0795 115.492 73.1185 115.674 73.1943Z" fill="#D0CDE1"/>
<path d="M115.097 73.6639C114.915 73.7396 114.72 73.7787 114.523 73.7787C114.326 73.7787 114.131 73.7396 113.949 73.6639C114.131 73.5881 114.326 73.549 114.523 73.549C114.72 73.549 114.915 73.5881 115.097 73.6639Z" fill="#D0CDE1"/>
<path d="M82.525 79.3973C84.7155 79.3973 86.4913 79.1169 86.4913 78.771C86.4913 78.4251 84.7155 78.1447 82.525 78.1447C80.3344 78.1447 78.5586 78.4251 78.5586 78.771C78.5586 79.1169 80.3344 79.3973 82.525 79.3973Z" fill="#9F616A"/>
<path d="M80.4107 78.5362C81.1025 78.5362 81.6633 78.2325 81.6633 77.8578C81.6633 77.4831 81.1025 77.1793 80.4107 77.1793C79.719 77.1793 79.1582 77.4831 79.1582 77.8578C79.1582 78.2325 79.719 78.5362 80.4107 78.5362Z" fill="#6C63FF"/>
<path d="M79.942 78.5362C80.6337 78.5362 81.1945 78.2325 81.1945 77.8578C81.1945 77.4831 80.6337 77.1793 79.942 77.1793C79.2502 77.1793 78.6895 77.4831 78.6895 77.8578C78.6895 78.2325 79.2502 78.5362 79.942 78.5362Z" fill="#6C63FF"/>
<path d="M85.4225 78.6927C86.1142 78.6927 86.675 78.3889 86.675 78.0142C86.675 77.6395 86.1142 77.3358 85.4225 77.3358C84.7307 77.3358 84.1699 77.6395 84.1699 78.0142C84.1699 78.3889 84.7307 78.6927 85.4225 78.6927Z" fill="#6C63FF"/>
<path d="M82.5514 78.5362C83.2431 78.5362 83.8039 78.2325 83.8039 77.8578C83.8039 77.4831 83.2431 77.1793 82.5514 77.1793C81.8596 77.1793 81.2988 77.4831 81.2988 77.8578C81.2988 78.2325 81.8596 78.5362 82.5514 78.5362Z" fill="#6C63FF"/>
<path d="M84.692 78.5362C85.3837 78.5362 85.9445 78.2325 85.9445 77.8578C85.9445 77.4831 85.3837 77.1793 84.692 77.1793C84.0002 77.1793 83.4395 77.4831 83.4395 77.8578C83.4395 78.2325 84.0002 78.5362 84.692 78.5362Z" fill="#6C63FF"/>
<path d="M86.309 77.4403C84.0453 78.2085 81.5055 78.2085 78.6895 77.4403V77.3346C78.689 76.536 78.9955 75.7678 79.5456 75.1888C80.0958 74.6099 80.8474 74.2645 81.645 74.2243C82.3163 74.1905 82.9889 74.1914 83.6601 74.2269C84.3777 74.2687 85.0521 74.5836 85.5447 75.1071C86.0373 75.6306 86.3108 76.3228 86.309 77.0416V77.4403Z" fill="#3F3D56"/>
<path d="M85.197 80.3161C83.524 80.4851 81.8384 80.4851 80.1654 80.3161C79.7686 80.2772 79.4004 80.0922 79.1323 79.797C78.8643 79.5018 78.7155 79.1175 78.7148 78.7188H86.6476C86.6469 79.1175 86.4981 79.5018 86.2301 79.797C85.962 80.0922 85.5938 80.2772 85.197 80.3161Z" fill="#3F3D56"/>
<path d="M81.4548 75.1961C81.2729 75.2719 81.0778 75.3109 80.8807 75.3109C80.6837 75.3109 80.4885 75.2719 80.3066 75.1961C80.4885 75.1203 80.6837 75.0813 80.8807 75.0813C81.0778 75.0813 81.2729 75.1203 81.4548 75.1961Z" fill="#D0CDE1"/>
<path d="M82.6032 75.6657C82.4213 75.7415 82.2262 75.7805 82.0292 75.7805C81.8321 75.7805 81.637 75.7415 81.4551 75.6657C81.637 75.5899 81.8321 75.5509 82.0292 75.5509C82.2262 75.5509 82.4213 75.5899 82.6032 75.6657Z" fill="#D0CDE1"/>
<path d="M82.7087 74.8307C82.5268 74.9065 82.3317 74.9455 82.1346 74.9455C81.9376 74.9455 81.7425 74.9065 81.5605 74.8307C81.7425 74.7549 81.9376 74.7159 82.1346 74.7159C82.3317 74.7159 82.5268 74.7549 82.7087 74.8307Z" fill="#D0CDE1"/>
<path d="M84.8474 74.8307C84.6655 74.9065 84.4704 74.9455 84.2733 74.9455C84.0762 74.9455 83.8811 74.9065 83.6992 74.8307C83.8811 74.7549 84.0762 74.7159 84.2733 74.7159C84.4704 74.7159 84.6655 74.7549 84.8474 74.8307Z" fill="#D0CDE1"/>
<path d="M84.2732 75.3006C84.0913 75.3764 83.8961 75.4154 83.6991 75.4154C83.502 75.4154 83.3069 75.3764 83.125 75.3006C83.3069 75.2248 83.502 75.1857 83.6991 75.1857C83.8961 75.1857 84.0913 75.2248 84.2732 75.3006Z" fill="#D0CDE1"/>
<path d="M120.701 77.3505L120.72 77.773L120.744 78.3209C120.744 78.3209 118.228 78.4632 117.721 78.9989C117.709 79.0104 117.698 79.0228 117.688 79.0361L116.68 78.8154L116.678 78.3188C116.678 78.3188 116.692 78.3111 116.719 78.2965C116.725 78.2933 116.733 78.2892 116.74 78.2851C117.974 77.6811 119.327 77.3617 120.701 77.3505Z" fill="#6C63FF"/>
<path opacity="0.1" d="M120.701 77.3505L120.72 77.773C119.604 77.8075 117.492 78.4727 117.492 78.4727L116.719 78.2965C117.958 77.6845 119.319 77.3611 120.701 77.3505Z" fill="black"/>
<path opacity="0.1" d="M116.74 78.2854L117.492 78.4731L117.721 78.9992C117.709 79.0107 117.698 79.0232 117.688 79.0364L116.68 78.8158L116.678 78.3192C116.678 78.3192 116.692 78.3114 116.719 78.2968C116.725 78.2936 116.733 78.2895 116.74 78.2854Z" fill="white"/>
<path d="M90.2847 79.1239L90.3038 79.5464L90.3283 80.0943C90.3283 80.0943 87.8116 80.2366 87.3046 80.7723C87.2929 80.7838 87.2821 80.7962 87.2723 80.8095L86.2642 80.5888L86.2617 80.0922C86.2617 80.0922 86.2756 80.0845 86.3027 80.0699C86.3088 80.0667 86.3166 80.0626 86.3243 80.0585C87.5578 79.4545 88.9112 79.1351 90.2847 79.1239Z" fill="#6C63FF"/>
<path opacity="0.1" d="M90.2848 79.1239L90.3039 79.5464C89.1879 79.5809 87.0759 80.2461 87.0759 80.2461L86.3027 80.0699C87.5416 79.4579 88.903 79.1345 90.2848 79.1239Z" fill="black"/>
<path opacity="0.1" d="M86.3243 80.0583L87.0758 80.246L87.3046 80.7721C87.2929 80.7836 87.2821 80.7961 87.2723 80.8093L86.2642 80.5886L86.2617 80.0921C86.2617 80.0921 86.2756 80.0843 86.3027 80.0697C86.3088 80.0665 86.3166 80.0624 86.3243 80.0583Z" fill="white"/>
<path d="M128.134 70.9703C127.919 70.7558 127.667 70.5819 127.391 70.457V65.1573C127.391 65.0952 127.366 65.0356 127.322 64.9916C127.278 64.9477 127.219 64.923 127.156 64.923H125.844C125.782 64.923 125.723 64.9477 125.679 64.9916C125.635 65.0356 125.61 65.0952 125.61 65.1573V70.3553C125.136 70.5126 124.723 70.8153 124.431 71.2204C124.138 71.6255 123.981 72.1124 123.98 72.6121V83.9807C123.98 84.1175 124.007 84.253 124.06 84.3794C124.112 84.5058 124.189 84.6206 124.286 84.7174C124.382 84.8141 124.497 84.8909 124.624 84.9432C124.75 84.9956 124.885 85.0225 125.022 85.0225H127.833C128.108 85.0225 128.371 84.9133 128.566 84.7188C128.76 84.5243 128.87 84.2606 128.87 83.9855V72.7461C128.87 72.4162 128.805 72.0895 128.679 71.7848C128.553 71.4801 128.367 71.2033 128.134 70.9703Z" fill="#2E2C43"/>
<path d="M128.87 74.2783H123.98V80.7367H128.87V74.2783Z" fill="#6C63FF"/>
<path d="M127.498 65.2851H127.392V65.1573C127.392 65.0952 127.367 65.0356 127.323 64.9916C127.28 64.9477 127.22 64.923 127.158 64.923H125.846C125.784 64.923 125.724 64.9477 125.68 64.9916C125.636 65.0356 125.611 65.0952 125.611 65.1573V65.2851H125.506V65.8284H125.611V68.6049H127.392V65.8284H127.498V65.2851Z" fill="#6C63FF"/>
<path d="M96.7121 69.2959C96.5827 69.0197 96.4806 68.8244 96.4448 68.7572C94.2502 69.2988 92.786 68.8411 92.5551 68.7602C92.4422 68.9734 91.7373 70.3365 91.4524 71.6433C91.195 72.822 91.3444 73.6123 91.8964 73.992L91.9128 74.0037L91.9163 74.0061C92.5257 74.4076 93.107 74.7632 93.6439 75.0629C93.7162 75.1032 93.7844 75.1406 93.8485 75.1751L93.8554 75.1789L93.8602 75.185C93.9339 75.2779 94.0025 75.3747 94.0657 75.475C94.1844 75.6409 94.2564 75.8355 94.2742 76.0387V81.8932L94.2372 81.894C92.8374 81.9225 91.9709 82.1599 91.9709 82.3633C91.9709 82.5866 93.0099 82.8353 94.5008 82.8353C95.9916 82.8353 97.0306 82.5866 97.0306 82.3633C97.0306 82.1629 96.1788 81.9269 94.8027 81.8951L94.7656 81.8942L94.8002 76.4787C94.801 76.1121 94.8862 75.7505 95.0493 75.4221C95.0771 75.3669 95.1069 75.3132 95.138 75.2626C95.163 75.2219 95.1895 75.1822 95.2167 75.1447L95.2217 75.1378L95.2291 75.1337C95.2981 75.0961 95.3713 75.0553 95.4487 75.0113L95.4578 75.0064C95.966 74.7194 96.5135 74.3829 97.0853 74.0059C97.5959 73.6694 97.7737 72.9891 97.6137 71.984C97.4613 71.0258 97.0393 69.9933 96.7121 69.2959Z" fill="#D0CDE1"/>
<path d="M96.8436 73.8836C96.2441 74.2788 95.7491 74.5752 95.3705 74.7887H95.3702C94.818 74.751 94.2634 74.7666 93.7142 74.8352C93.3261 74.6186 92.8026 74.308 92.1586 73.8836C92.1525 73.8796 92.1464 73.8755 92.1403 73.8711V73.8707C91.5496 73.4644 91.535 72.6038 91.7271 71.7238C92.216 71.6695 92.9955 71.6932 94.0428 72.0674C95.283 72.5104 96.5812 72.2598 97.3335 72.032C97.4571 72.8085 97.3817 73.5289 96.8436 73.8836Z" fill="#6C63FF"/>
<path d="M93.2791 71.4054C93.3729 71.4054 93.4489 71.3294 93.4489 71.2356C93.4489 71.1419 93.3729 71.0659 93.2791 71.0659C93.1854 71.0659 93.1094 71.1419 93.1094 71.2356C93.1094 71.3294 93.1854 71.4054 93.2791 71.4054Z" fill="#6C63FF"/>
<path d="M92.8026 72.9669C92.8963 72.9669 92.9723 72.8909 92.9723 72.7971C92.9723 72.7034 92.8963 72.6274 92.8026 72.6274C92.7088 72.6274 92.6328 72.7034 92.6328 72.7971C92.6328 72.8909 92.7088 72.9669 92.8026 72.9669Z" fill="white"/>
<path d="M93.6858 71.7447C93.7421 71.7447 93.7877 71.6991 93.7877 71.6428C93.7877 71.5866 93.7421 71.541 93.6858 71.541C93.6296 71.541 93.584 71.5866 93.584 71.6428C93.584 71.6991 93.6296 71.7447 93.6858 71.7447Z" fill="#6C63FF"/>
<path d="M94.094 73.6798C94.1503 73.6798 94.1959 73.6342 94.1959 73.5779C94.1959 73.5217 94.1503 73.4761 94.094 73.4761C94.0378 73.4761 93.9922 73.5217 93.9922 73.5779C93.9922 73.6342 94.0378 73.6798 94.094 73.6798Z" fill="white"/>
<path d="M93.3811 73.7815C93.4374 73.7815 93.483 73.7359 93.483 73.6796C93.483 73.6234 93.4374 73.5778 93.3811 73.5778C93.3249 73.5778 93.2793 73.6234 93.2793 73.6796C93.2793 73.7359 93.3249 73.7815 93.3811 73.7815Z" fill="white"/>
<path d="M95.4515 70.3869C95.5077 70.3869 95.5533 70.3413 95.5533 70.285C95.5533 70.2288 95.5077 70.1832 95.4515 70.1832C95.3952 70.1832 95.3496 70.2288 95.3496 70.285C95.3496 70.3413 95.3952 70.3869 95.4515 70.3869Z" fill="#6C63FF"/>
<path d="M104.675 63.777C104.546 63.5009 104.443 63.3055 104.408 63.2383C102.213 63.7799 100.749 63.3222 100.518 63.2413C100.405 63.4545 99.7002 64.8176 99.4152 66.1244C99.1579 67.3032 99.3072 68.0934 99.8593 68.4731L99.8756 68.4848L99.8792 68.4872C100.489 68.8887 101.07 69.2443 101.607 69.544C101.679 69.5843 101.747 69.6217 101.811 69.6563L101.818 69.66L101.823 69.6661C101.897 69.759 101.965 69.8558 102.029 69.9561C102.147 70.122 102.219 70.3167 102.237 70.5198V76.3744L102.2 76.3751C100.8 76.4037 99.9338 76.641 99.9338 76.8445C99.9338 77.0677 100.973 77.3164 102.464 77.3164C103.955 77.3164 104.994 77.0677 104.994 76.8445C104.994 76.644 104.142 76.408 102.766 76.3762L102.728 76.3753L102.763 70.9598C102.764 70.5932 102.849 70.2316 103.012 69.9032C103.04 69.848 103.07 69.7943 103.101 69.7437C103.126 69.703 103.152 69.6633 103.18 69.6258L103.185 69.6189L103.192 69.6148C103.261 69.5772 103.334 69.5364 103.412 69.4924L103.421 69.4875C103.929 69.2005 104.476 68.864 105.048 68.4871C105.559 68.1505 105.737 67.4702 105.577 66.4652C105.424 65.5069 105.002 64.4744 104.675 63.777Z" fill="#D0CDE1"/>
<path d="M104.805 68.3642C104.205 68.7594 103.71 69.0558 103.331 69.2693H103.331C102.779 69.2316 102.224 69.2472 101.675 69.3158C101.287 69.0992 100.764 68.7886 100.12 68.3642C100.113 68.3602 100.107 68.3561 100.101 68.3517V68.3513C99.5105 67.945 99.4959 67.0844 99.6881 66.2044C100.177 66.1501 100.956 66.1739 102.004 66.548C103.244 66.991 104.542 66.7405 105.294 66.5127C105.418 67.2891 105.343 68.0095 104.805 68.3642Z" fill="#6C63FF"/>
<path d="M101.24 65.886C101.334 65.886 101.41 65.81 101.41 65.7163C101.41 65.6225 101.334 65.5465 101.24 65.5465C101.146 65.5465 101.07 65.6225 101.07 65.7163C101.07 65.81 101.146 65.886 101.24 65.886Z" fill="#6C63FF"/>
<path d="M100.765 67.4477C100.859 67.4477 100.935 67.3717 100.935 67.278C100.935 67.1842 100.859 67.1082 100.765 67.1082C100.672 67.1082 100.596 67.1842 100.596 67.278C100.596 67.3717 100.672 67.4477 100.765 67.4477Z" fill="white"/>
<path d="M101.649 66.2256C101.705 66.2256 101.751 66.18 101.751 66.1237C101.751 66.0675 101.705 66.0219 101.649 66.0219C101.592 66.0219 101.547 66.0675 101.547 66.1237C101.547 66.18 101.592 66.2256 101.649 66.2256Z" fill="#6C63FF"/>
<path d="M102.055 68.1606C102.111 68.1606 102.157 68.1151 102.157 68.0588C102.157 68.0026 102.111 67.957 102.055 67.957C101.999 67.957 101.953 68.0026 101.953 68.0588C101.953 68.1151 101.999 68.1606 102.055 68.1606Z" fill="white"/>
<path d="M101.342 68.2624C101.398 68.2624 101.444 68.2168 101.444 68.1605C101.444 68.1043 101.398 68.0587 101.342 68.0587C101.286 68.0587 101.24 68.1043 101.24 68.1605C101.24 68.2168 101.286 68.2624 101.342 68.2624Z" fill="white"/>
<path d="M103.414 64.8673C103.471 64.8673 103.516 64.8217 103.516 64.7654C103.516 64.7092 103.471 64.6636 103.414 64.6636C103.358 64.6636 103.312 64.7092 103.312 64.7654C103.312 64.8217 103.358 64.8673 103.414 64.8673Z" fill="#6C63FF"/>
</svg>
