<svg width="206" height="121" viewBox="0 0 206 121" fill="none" xmlns="http://www.w3.org/2000/svg">
<path d="M103 117.625C46.1146 117.625 0 118.29 0 119.111C0 119.931 46.1146 120.596 103 120.596C159.885 120.596 206 119.931 206 119.111C206 118.29 159.885 117.625 103 117.625Z" fill="#929292" fill-opacity="0.3"/>
<path d="M51.3766 8.42633C51.3117 7.9133 51.1805 7.41087 50.9862 6.93165C50.9614 6.84102 50.918 6.75655 50.8588 6.68361C50.7996 6.61068 50.7258 6.55087 50.6422 6.50801C50.5304 6.47895 50.4133 6.47764 50.3009 6.50419L48.5487 6.77231C48.402 6.77901 48.2616 6.83357 48.1489 6.92765C47.9206 7.16766 48.1454 7.55414 48.1384 7.88526C48.1305 8.25761 47.7997 8.55984 47.4409 8.65983C47.0747 8.73382 46.697 8.72914 46.3327 8.64609L43.8826 8.26533C44.6042 8.03495 45.2465 7.60634 45.7361 7.0284C46.0586 6.64643 46.2301 5.93331 45.7641 5.75243C45.6257 5.71443 45.4813 5.70284 45.3386 5.71826C44.2285 5.72689 43.3549 4.80003 42.3157 4.40967C41.6505 4.17598 40.9285 4.15859 40.2529 4.36C39.5773 4.5614 38.9827 4.97128 38.5541 5.53103L39.8593 5.59396C39.9821 5.58718 40.1039 5.61965 40.207 5.68668C40.493 5.9217 40.1374 6.37312 40.1777 6.74113C40.2301 7.21926 40.8649 7.32135 41.3435 7.3697C41.822 7.41805 42.4291 7.80687 42.1989 8.22919C39.7936 9.05768 37.346 6.60968 34.82 6.91102C34.1806 6.98729 33.5769 7.23845 32.9527 7.39638C29.1397 8.36113 25.1977 5.78707 21.3025 6.33221C20.4365 6.47984 19.5854 6.7043 18.7593 7.00294C18.2292 7.17701 17.6762 7.36513 17.291 7.76882C16.9058 8.17252 16.7592 8.86292 17.1241 9.28504C16.1183 9.36787 15.1058 9.27162 14.1336 9.00078C14.3965 9.14692 14.6152 9.36113 14.7667 9.62094C14.9183 9.88075 14.9971 10.1766 14.9949 10.4773C13.4245 10.7334 11.8956 11.1996 10.4494 11.8633C10.7194 12.3122 11.0346 12.7321 11.3903 13.1166L9.4021 14.3939C10.0738 14.5631 10.4211 15.479 10.0305 16.0511C10.7269 15.7412 11.1586 14.9397 11.9033 14.7772C12.3912 14.6707 12.8877 14.8703 13.3506 15.0578C13.8134 15.2453 14.3222 15.4271 14.8013 15.2864C15.2805 15.1457 15.6339 14.5244 15.3294 14.1285C17.3775 13.531 19.4941 13.2003 21.6269 13.1447C21.7914 13.124 21.9583 13.1557 22.1038 13.2352C22.3814 13.4278 22.3084 13.8438 22.2934 14.1814C22.2785 14.519 22.5416 14.9626 22.8433 14.8105C22.4883 15.1183 22.7917 15.6977 23.1323 16.0214C23.4728 16.345 23.8833 16.7916 23.6748 17.2127C23.6204 17.3226 23.5281 17.4105 23.4757 17.5214C23.3212 17.8487 23.5666 18.2302 23.856 18.4476C24.1454 18.6649 24.4999 18.8168 24.701 19.1178C24.902 19.4188 24.8107 19.9456 24.4512 19.9876L23.4294 18.6903C23.0803 19.0523 22.8409 19.5058 22.7391 19.9983C23.8227 20.8841 23.9857 22.687 23.0785 23.7528C22.6149 24.2974 21.9557 24.6283 21.3803 25.0531C20.805 25.4779 20.2726 26.0828 20.274 26.798C20.2765 28.0336 20.1756 29.1816 20.6386 30.3271C21.4924 32.4395 22.4781 34.496 23.59 36.4847C23.8819 37.0069 24.2593 37.5792 24.8508 37.6691C24.1033 35.8493 23.4303 34.0012 22.832 32.1248C23.2217 32.1263 23.6721 32.1573 23.9005 32.473C24.0897 32.7344 24.049 33.0899 24.1078 33.4072C24.1826 33.7146 24.3072 34.0077 24.4769 34.2747L28.0465 40.6333C28.3424 41.1604 28.6818 41.7262 29.2474 41.9397C29.609 42.0762 30.0273 42.0504 30.3601 42.2469C30.621 42.401 30.7967 42.6743 31.0626 42.8194C31.8146 43.2296 32.8603 42.4429 33.563 42.9327C33.7639 43.0727 33.8918 43.2952 34.0769 43.4555C34.7259 44.0176 35.7906 43.6416 36.5398 44.0609C37.0227 44.3311 37.273 44.8715 37.5305 45.3612C38.1757 46.588 39.2195 47.7898 40.6021 47.8875C41.0364 47.9182 41.48 47.8359 41.9046 47.9325C42.3291 48.0291 42.747 48.3995 42.6789 48.8296C42.562 49.5668 42.9263 50.374 42.8285 51.114C42.6503 52.4619 40.7384 53.0542 40.5741 54.4039C40.5382 54.6994 40.5945 55.0044 40.5241 55.2937C40.4379 55.6482 40.1716 55.9368 40.077 56.2892C39.8977 56.957 40.3762 57.6216 40.9017 58.0708C41.4273 58.5201 42.0542 58.9074 42.3416 59.5363C42.6453 60.2011 42.4961 60.9761 42.5949 61.7002C42.8105 63.281 44.1759 64.4529 45.5811 65.2086C46.0092 65.4388 46.4689 65.6617 46.746 66.0611C47.1077 66.5824 47.0716 67.2696 47.1924 67.8924C47.4882 69.4179 48.7723 70.6748 48.8088 72.2282C48.8347 73.3323 48.221 74.3339 47.8543 75.3757C47.5106 76.3739 47.3862 77.4344 47.4897 78.485C47.5931 79.5356 47.9219 80.5515 48.4537 81.4634C48.728 81.9266 49.056 82.3632 49.25 82.8652C49.5963 83.7611 49.4839 84.7796 49.8031 85.6855C50.2252 86.8831 51.3849 87.8723 51.2739 89.1373C51.8004 90.2306 52.963 90.7679 54.132 91.0933L56.2272 91.6765C56.6284 91.7882 57.0476 91.9007 57.4561 91.8199C57.8646 91.739 58.2545 91.3998 58.2439 90.9835C57.2165 90.7518 56.1561 90.5054 55.3091 89.8793C54.4621 89.2532 53.8819 88.1383 54.2033 87.1352C54.3523 86.6701 54.6693 86.133 54.3679 85.7487C54.1954 85.5287 53.8798 85.4712 53.6852 85.2704C53.3816 84.9573 53.4859 84.4312 53.7041 84.0536C53.9224 83.676 54.2379 83.3386 54.3259 82.9114C54.3703 82.6724 54.3406 82.4256 54.2408 82.2039C54.1409 81.9823 53.9757 81.7965 53.7673 81.6715C54.1558 81.5248 54.5091 81.2981 54.8043 81.0061C55.077 80.6946 55.203 80.2145 54.9885 79.8604C55.6256 79.9412 56.3777 79.9808 56.7959 79.4935C57.1299 79.1043 57.1069 78.5225 56.975 78.0269C56.843 77.5314 56.62 77.0501 56.613 76.5373C58.0827 76.607 59.5555 76.557 61.0171 76.388C60.8057 75.6762 60.3254 75.0747 59.6781 74.7111C60.34 74.5991 60.9431 73.8066 61.1522 73.1687C61.3613 72.5307 61.308 71.8359 61.1787 71.1771C61.1291 71.0075 61.1223 70.8282 61.1589 70.6553C61.2335 70.4178 61.4668 70.2728 61.6827 70.1488L64.9683 68.2619C65.1644 68.1636 65.3421 68.0324 65.4937 67.874C65.8379 67.4697 65.7869 66.8593 65.6107 66.3584C65.4344 65.8574 65.1521 65.3864 65.0842 64.8597C64.8811 63.2846 66.5673 62.1545 67.1363 60.6718C67.3596 60.0899 67.4051 59.4574 67.4483 58.8357C67.4947 58.1679 67.4982 57.3922 66.9855 56.9619C66.494 56.5494 65.726 56.6414 65.2117 56.2577C64.7401 55.9059 64.5775 55.2227 64.0623 54.9385C63.5945 54.6805 63.008 54.8446 62.4877 54.7232C61.5716 54.5096 60.9951 53.4538 60.0596 53.356C59.5317 53.3008 58.9343 53.5589 58.5016 53.2515C58.1204 52.9806 58.1051 52.4361 58.0326 51.9741C57.9054 51.2561 57.5612 50.5943 57.0465 50.0779C56.5317 49.5614 55.871 49.2152 55.1534 49.0857C54.6091 48.9984 54.0167 49.0316 53.5537 48.7325C53.0849 48.4296 52.8699 47.8626 52.5016 47.4432C51.9081 46.7672 50.9733 46.527 50.0976 46.3211L46.5356 45.4838C45.9032 45.3351 45.0882 45.2563 44.7489 45.8102C44.6484 46.0211 44.5773 46.2447 44.5375 46.4749C44.4104 46.8913 44.1545 47.2566 43.8067 47.5185C43.4588 47.7803 43.0369 47.9251 42.6016 47.932C42.3031 47.4228 41.8195 47.0486 41.2517 46.8875C40.8905 46.7868 40.5039 46.7756 40.1594 46.6275C39.9718 46.5359 39.8048 46.407 39.6688 46.2487C39.5327 46.0904 39.4304 45.906 39.368 45.7067C39.3057 45.5075 39.2847 45.2976 39.3063 45.09C39.3279 44.8823 39.3916 44.6813 39.4936 44.4991C39.699 44.1335 39.7783 43.7104 39.7193 43.2952C39.6603 42.88 39.4663 42.4958 39.1673 42.2018C38.5615 41.658 37.6853 41.5266 36.873 41.581C36.6603 41.1168 37.016 40.5931 37.3993 40.2558C37.7826 39.9185 38.248 39.5868 38.3315 39.0831C38.4628 38.2908 37.4518 37.6889 36.6842 37.9252C35.9165 38.1615 35.4266 38.9071 35.1027 39.642C34.9169 40.0637 34.7589 40.5078 34.4658 40.8634C34.1727 41.219 33.7006 41.4736 33.2541 41.3594C32.6221 41.1979 32.3779 40.4469 32.238 39.8097C32.0504 38.9548 31.8616 38.0879 31.9009 37.2135C31.9402 36.3391 32.235 35.4412 32.8798 34.8493C33.9305 33.8847 35.5424 33.9792 36.9605 34.1331C36.6254 33.7556 36.7082 33.1195 37.0667 32.7642C37.2559 32.5961 37.4833 32.4766 37.7291 32.4162C37.9749 32.3558 38.2318 32.3563 38.4773 32.4176C38.9046 32.5066 39.2896 32.7367 39.5702 33.071C39.9732 33.5623 40.0877 34.2257 40.3923 34.7833C40.6969 35.341 41.3818 35.8166 41.9424 35.5175C42.4266 35.259 42.5034 34.5876 42.3829 34.0522C42.2624 33.5168 42.0065 32.9961 42.0501 32.449C42.1334 31.4051 43.2155 30.7767 44.1705 30.3468C45.1254 29.9168 46.2188 29.3386 46.3701 28.3024C46.3753 28.0995 46.4136 27.8988 46.4834 27.7083C46.5893 27.5399 46.7365 27.4015 46.911 27.3062C49.698 25.4644 52.5313 23.6001 55.7167 22.5937C55.8824 22.5413 55.9018 22.5995 56.0707 22.5585C56.3071 22.4219 56.1505 22.0439 55.9239 21.8917C55.6972 21.7395 55.3943 21.6227 55.3368 21.3558C55.2946 21.1596 55.4102 20.967 55.4402 20.7686C55.514 20.281 54.9307 19.8308 54.4777 20.0257C54.2218 19.6868 54.7281 19.2931 55.1375 19.1804C56.3668 18.8421 57.6287 18.6359 58.9018 18.5655C59.0487 18.5421 59.1992 18.5677 59.3302 18.6383C59.544 18.7864 59.5167 19.1262 59.3651 19.3376C59.2136 19.549 58.9779 19.6817 58.789 19.8606C58.5827 20.0616 58.4356 20.3154 58.3636 20.5943C58.2917 20.8732 58.2978 21.1665 58.3811 21.4422C59.0457 21.7803 59.7683 22.1283 60.5044 22.0092C61.2405 21.8901 61.8938 21.0631 61.5478 20.4025C61.2256 19.7874 60.2578 19.6487 60.0914 18.9746C59.8965 18.1853 61.0138 17.4833 60.7622 16.7102C60.6519 16.3716 60.3144 16.1723 60.0555 15.9278C59.7497 15.6281 59.5416 15.2429 59.4587 14.8227C59.3758 14.4026 59.4219 13.9673 59.5909 13.5738C59.1691 13.648 58.7357 13.62 58.327 13.4921C57.9182 13.3642 57.5462 13.1401 57.2419 12.8387C56.6801 12.2717 56.2318 11.3772 55.434 11.4026C54.7018 11.4259 54.0712 12.28 53.3866 12.0194C53.2182 11.9553 53.0406 11.8249 52.8774 11.9013C52.8239 11.936 52.779 11.9825 52.7461 12.0371C52.7132 12.0917 52.6931 12.1531 52.6874 12.2166C52.5135 13.0484 52.8128 13.9961 52.3594 14.7148C51.8661 15.497 50.725 15.6054 50.127 16.3107C49.8023 16.6936 49.6765 17.2095 49.3781 17.6132C49.0797 18.0168 48.4464 18.2735 48.0883 17.9217C48.2643 17.5599 48.3123 17.1491 48.2246 16.7564C48.1369 16.3637 47.9185 16.0124 47.6053 15.7599C47.2728 15.543 46.9144 15.3686 46.5385 15.241C46.1185 15.0632 45.7189 14.8405 45.3467 14.5768C45.1603 14.4643 45.0088 14.3022 44.9092 14.1086C44.8304 13.8662 44.8411 13.6036 44.9391 13.3684C45.1207 12.8477 45.4411 12.3866 45.8656 12.0347C46.2901 11.6829 46.8027 11.4536 47.348 11.3718C47.8248 11.3069 48.3797 11.3298 48.6953 10.9665C48.8622 10.7743 48.9498 10.4836 49.1922 10.4056C49.3472 10.3744 49.5081 10.3942 49.651 10.4621L51.4307 11.0885C51.6292 11.1781 51.8478 11.2143 52.0647 11.1933C52.1722 11.1789 52.2703 11.1242 52.3392 11.0405C52.4081 10.9567 52.4428 10.8499 52.4363 10.7416C52.3795 10.4461 51.9247 10.3042 51.9661 10.0061C51.9893 9.90953 52.0412 9.82223 52.115 9.75576C52.7573 9.07215 53.5428 8.53901 54.4152 8.19449C55.2876 7.84997 56.2255 7.7026 57.1615 7.76293C57.3861 8.13186 57.0309 8.56873 56.7353 8.88366C56.4397 9.1986 56.2021 9.76132 56.5596 10.0037C56.7061 10.0785 56.8691 10.1152 57.0335 10.1105C57.4716 10.1698 57.8975 10.2989 58.2947 10.493C58.9097 10.7607 59.5129 11.0535 60.1043 11.3715C60.0521 10.9816 60.0022 10.5708 60.15 10.2062C60.2978 9.84162 60.7178 9.55565 61.0847 9.69764C61.4383 9.83448 61.6197 10.3027 61.9964 10.3456C62.4989 10.4028 62.6971 9.66041 62.4872 9.20027C62.2773 8.74013 61.8618 8.35484 61.8271 7.85028C61.8037 7.50989 61.9333 7.08772 61.6613 6.8816C61.5646 6.81971 61.4548 6.7812 61.3405 6.76911L54.5513 5.51977C54.1482 5.44558 53.5657 5.50244 53.5478 5.91198C53.5378 6.14058 53.742 6.36673 53.6516 6.57692C53.555 6.80124 53.2379 6.78073 53.007 6.86007C52.6486 6.98318 52.4688 7.40872 52.5032 7.78608C52.5662 8.16105 52.7114 8.51742 52.9284 8.82964C52.4868 8.64496 51.8182 8.61101 51.3766 8.42633Z" fill="#538FF0"/>
<path d="M45.9594 2.66308C45.5312 2.5214 45.0699 2.5148 44.6379 2.64418C44.2059 2.77355 43.8242 3.03264 43.5444 3.38632C43.4326 3.53351 43.3387 3.73641 43.4323 3.89579C43.5665 4.12429 43.9084 4.03404 44.1604 3.9523C44.5309 3.81994 44.9341 3.81032 45.3105 3.92486C45.5472 4.00612 45.7589 4.14974 45.9966 4.22793C46.1123 4.27633 46.239 4.29232 46.3632 4.27418C46.4873 4.25604 46.6041 4.20447 46.7011 4.12498C46.8643 3.95859 46.8745 3.69992 46.8748 3.46689C46.8861 3.38891 46.8799 3.3094 46.8565 3.23414C46.8332 3.15888 46.7934 3.08979 46.7399 3.03189C46.6448 2.97678 46.5379 2.94515 46.428 2.93964C46.1821 2.89411 45.9597 2.76419 45.7993 2.57227" fill="#538FF0"/>
<path d="M48.4075 1.9813C48.3117 1.97608 48.2162 1.9956 48.1301 2.03798C48.044 2.08036 47.9703 2.14417 47.916 2.22328C47.8617 2.30239 47.8287 2.39414 47.8201 2.48971C47.8115 2.58527 47.8277 2.68144 47.867 2.76896C48.1612 2.8492 48.4686 2.86924 48.7708 2.82789C48.9215 2.80449 49.0619 2.737 49.1744 2.63393C49.2868 2.53086 49.3662 2.39682 49.4025 2.2487C49.0468 2.31344 48.6797 2.24333 48.3728 2.05204" fill="#538FF0"/>
<path d="M56.6211 0.843187C55.8202 1.01345 55.0423 1.27772 54.3035 1.63049C54.6518 1.76437 54.9479 2.0066 55.1481 2.32149C55.3483 2.63637 55.4421 3.00725 55.4156 3.37946C55.3844 3.52236 55.388 3.67068 55.4262 3.81189C55.5113 4.01824 55.758 4.09567 55.9748 4.14863C56.3644 4.2672 56.7712 4.31912 57.1781 4.30222C57.3816 4.29157 57.5793 4.23034 57.7532 4.12406C57.9271 4.01779 58.0717 3.86983 58.1741 3.69357C58.233 3.52629 58.3022 3.36278 58.3812 3.20396C58.901 2.41236 60.4451 3.36952 61.0031 2.60443C61.1997 2.33492 61.1817 1.92923 61.438 1.71566C61.5706 1.62262 61.7242 1.56399 61.885 1.54506C63.0073 1.32209 64.1409 1.16064 65.2808 1.06143C65.8209 1.01443 66.5248 0.820496 66.5293 0.278379C64.495 -0.121156 62.3857 0.16261 60.5292 1.08556C59.8604 1.42056 58.9758 2.12526 58.3315 1.68112C58.0903 1.51483 58.1022 1.06705 57.7702 0.880054C57.4307 0.688877 56.9814 0.766632 56.6211 0.843187Z" fill="#538FF0"/>
<path d="M63.2738 2.08698L64.2287 2.27047C64.053 2.26269 63.8775 2.29248 63.7142 2.35786C63.5508 2.42324 63.4033 2.5227 63.2814 2.64961C63.1595 2.77653 63.0661 2.92797 63.0074 3.09384C62.9487 3.25971 62.9261 3.4362 62.941 3.61152C63.8352 3.91026 64.8102 3.61955 65.7522 3.65926C66.6942 3.69898 67.7903 4.37187 67.6295 5.30091C67.5808 5.58182 67.4186 5.86254 67.5029 6.13485C67.5621 6.32571 67.7304 6.46114 67.8254 6.63692C68.0234 7.00322 67.8652 7.46653 67.6152 7.79951C67.3652 8.13249 67.0292 8.39817 66.8097 8.75203C66.264 9.63214 66.574 10.7699 66.8991 11.7532C66.9932 12.1247 67.1667 12.4713 67.4079 12.7692C67.8896 13.2813 68.6745 13.3258 69.3775 13.3361C69.8891 13.3436 70.4753 13.3183 70.7988 12.9219C71.2212 12.4043 70.9259 11.5968 71.204 10.9894C71.4566 10.4378 72.1001 10.2011 72.6831 10.0332C73.7513 9.72574 74.8399 9.46431 75.8497 8.99983C77.1036 8.42306 78.2755 7.52423 79.6538 7.44998C80.0404 7.42915 80.4367 7.47479 80.8091 7.36885C81.1816 7.26291 81.5354 6.9409 81.5072 6.5547C81.4831 6.22473 81.2039 5.98242 80.9858 5.73367C80.7676 5.48492 80.5963 5.10241 80.7968 4.83923L84.4093 4.16447C84.1533 3.46661 83.9538 2.5475 84.5422 2.09325C84.7545 1.92936 85.0388 1.86385 85.2195 1.66571C85.5276 1.32801 85.3727 0.746272 85.0171 0.459071C84.6614 0.17187 84.1805 0.105198 83.725 0.0673574C82.141 -0.0641956 80.5479 0.022732 78.9608 0.109727C75.8584 0.279783 72.7559 0.44984 69.6535 0.619895C69.029 0.654128 68.3079 0.60183 67.7351 0.814899C67.2502 0.995283 66.9054 1.3264 66.3508 1.44273C65.327 1.6575 64.2003 1.51217 63.2738 2.08698Z" fill="#538FF0"/>
<path d="M80.3814 9.6353C80.2841 9.61991 80.1846 9.64248 80.1035 9.69835C80.0498 9.75742 80.0179 9.83303 80.013 9.91268C79.9513 10.2642 80.0248 10.6261 80.2186 10.9258C80.3173 11.0728 80.4536 11.1908 80.6133 11.2673C80.773 11.3439 80.9503 11.3763 81.1267 11.3612C81.5567 11.3064 81.8736 10.9395 82.2689 10.7605C82.8782 10.4849 85.4657 10.0552 83.6758 9.08819C83.059 8.75494 82.6604 9.04912 82.1742 9.26859C81.6211 9.55156 81.0013 9.67835 80.3814 9.6353Z" fill="#538FF0"/>
<path d="M96.0586 1.54122C95.8496 1.62661 95.6747 1.7788 95.5613 1.97404C95.5091 2.07317 95.497 2.1886 95.5275 2.29643C95.5579 2.40426 95.6287 2.49624 95.7251 2.55335C95.8032 2.58166 95.8859 2.59479 95.9689 2.59203L96.8187 2.61742C97.1798 2.6282 97.6307 2.70509 97.7277 3.05299C97.7998 3.31132 97.6385 3.64328 97.8331 3.82788C97.9166 3.89254 98.0169 3.93169 98.1221 3.94064C98.4021 4.01255 98.6944 4.02198 98.9784 3.96827C99.5967 3.80242 99.2718 3.42504 99.4666 3.08901C99.7645 2.57486 99.713 2.8861 100.238 2.59143C100.626 2.37381 101.127 1.97905 100.803 1.4244C100.24 0.459885 96.889 1.12687 96.0586 1.54122Z" fill="#538FF0"/>
<path d="M112.832 1.05626L112.338 1.12211C111.226 1.2706 110.107 1.42046 109.035 1.75462C109.499 1.93804 109.985 2.05748 110.482 2.10963C110.755 2.12302 111.026 2.16159 111.292 2.22484C111.765 2.36576 112.242 2.72966 112.7 2.54325C112.983 2.42766 113.076 2.13241 113.311 1.97594C113.473 1.86789 114.088 1.69301 114.157 1.58396C114.713 0.702323 113.259 0.999229 112.832 1.05626Z" fill="#538FF0"/>
<path d="M114.999 3.29899C114.339 3.66755 113.728 4.11541 113.178 4.63258C112.946 4.85053 112.709 5.1216 112.73 5.43911C112.758 5.86111 113.207 6.1059 113.597 6.27079L115.174 6.93867C115.366 6.66894 115.191 6.29661 114.993 6.03155C114.795 5.76648 114.56 5.45981 114.647 5.14084C114.747 4.77685 115.191 4.65281 115.563 4.5901C116.169 4.48793 117.805 4.49612 117.609 3.51889C117.377 2.36742 115.607 2.95875 114.999 3.29899Z" fill="#538FF0"/>
<path d="M114.681 68.4616C114.531 68.8964 114.517 69.4085 114.777 69.7881C115.068 70.2141 115.652 70.3728 116.156 70.2648C116.659 70.1311 117.107 69.8431 117.437 69.4413C117.739 69.1047 117.988 68.7236 118.174 68.3115C118.434 67.6693 118.617 66.9986 118.72 66.3135L119.21 63.7419C119.319 63.1671 119.315 61.4051 118.259 61.9792C117.97 62.136 117.302 63.3743 117 63.7254C116.454 64.3583 116.382 64.9723 116.095 65.739C115.736 66.6994 115.014 67.4997 114.681 68.4616Z" fill="#538FF0"/>
<path d="M170.474 81.6214C170.128 81.4865 169.792 81.3268 169.47 81.1436C169.146 82.033 168.974 82.9704 168.961 83.9168L171.326 82.5784C171.682 82.3771 172.085 82.0973 172.078 81.6886C172.081 81.6381 172.07 81.5877 172.047 81.5426C172.024 81.4976 171.99 81.4596 171.947 81.4326C171.894 81.4115 171.837 81.4048 171.781 81.4132C171.43 81.4424 171.11 81.615 170.78 81.735C170.449 81.855 170.062 81.9184 169.758 81.7403" fill="#1B3A6C"/>
<path d="M182.951 82.4162C182.691 82.4869 182.437 82.5779 182.192 82.6884C181.649 82.9646 181.28 83.4891 180.792 83.8529C180.324 84.2009 179.762 84.3921 179.209 84.5779C179.047 84.7215 179.121 85.0108 179.298 85.1369C179.487 85.2448 179.705 85.2937 179.922 85.2773C180.496 85.29 181.101 85.2955 181.603 85.0184C181.887 84.8347 182.152 84.6243 182.395 84.3902C182.983 83.8999 183.688 83.5764 184.387 83.2637C184.641 83.1677 184.876 83.0271 185.081 82.8486C185.52 82.4161 185.551 81.7489 184.918 81.6017C184.407 81.4828 183.438 82.2587 182.951 82.4162Z" fill="#1B3A6C"/>
<path d="M188.463 78.8149C188.492 78.5173 188.452 78.2171 188.348 77.9371C188.243 77.657 188.076 77.4044 187.86 77.1982C187.853 77.7937 187.835 78.428 187.5 78.9203C187.262 79.2711 186.888 79.5081 186.626 79.8423C186.365 80.1764 186.249 80.7061 186.555 80.9993C186.751 81.1485 186.99 81.2307 187.236 81.2339C187.847 81.3057 188.553 81.3458 188.981 80.9048C189.215 80.6641 189.329 80.3076 189.614 80.1307C189.72 80.0861 189.814 80.0183 189.891 79.9322C190.009 79.7451 189.822 79.4986 189.611 79.4312C189.401 79.3638 189.169 79.3955 188.957 79.3315C188.746 79.2675 188.552 79.0296 188.66 78.8371" fill="#538FF0"/>
<path d="M178.665 56.985C178.345 57.0629 178.013 57.0824 177.686 57.0427C177.143 56.9428 176.72 56.5333 176.281 56.1975C175.238 55.4034 173.971 54.9605 172.66 54.9323C171.468 54.9098 170.265 55.2328 169.094 55.0074C169.171 55.4329 169.535 55.752 169.923 55.9417C170.312 56.1313 170.74 56.2268 171.131 56.4126C171.756 56.7131 172.252 57.2289 172.527 57.8654C172.653 58.1588 172.732 58.4782 172.922 58.7344C173.312 59.2581 174.049 59.3731 174.7 59.3302C175.549 59.2744 176.436 59.0303 177.226 59.3465C177.83 59.5885 178.262 60.1172 178.766 60.5284C179.271 60.9396 179.981 61.2447 180.561 60.948C179.959 60.7533 179.435 60.3713 179.066 59.8578C178.697 59.3444 178.502 58.7264 178.508 58.094C179.077 58.1463 180.713 58.126 180.625 57.1607C180.55 56.3427 179.153 56.8967 178.665 56.985Z" fill="#1B3A6C"/>
<path d="M171.233 63.6408C171.334 63.0876 171.886 62.599 171.714 62.0636C171.595 61.6933 171.166 61.5104 170.777 61.5013C170.388 61.4922 170.006 61.608 169.618 61.6189C169.365 61.6055 169.111 61.6091 168.858 61.6297C168.087 61.7565 167.611 62.5654 166.884 62.853C166.442 63.0278 165.945 62.9944 165.485 63.1153C164.441 63.3897 163.78 64.3762 163.051 65.1716C161.871 66.451 160.335 67.3468 158.641 67.7431C158.048 67.8806 157.41 67.9685 156.938 68.354C156.313 68.8645 156.159 69.7397 156.02 70.5345C155.636 72.7294 155.049 74.884 154.267 76.9705L156.746 77.287C157.217 77.3472 157.705 77.4061 158.16 77.2665C158.489 77.142 158.802 76.9755 159.089 76.7711C160.193 76.0857 161.429 75.6397 162.716 75.4619C163.366 75.3728 164.046 75.3565 164.655 75.5978C165.264 75.8391 165.787 76.3863 165.838 77.0395C166.102 76.9576 166.382 76.9487 166.65 77.0139C166.919 77.0791 167.164 77.2159 167.36 77.4097C167.748 77.8052 168.003 78.3126 168.087 78.8603C168.152 79.1995 168.218 79.6058 168.532 79.7481C168.789 79.8642 169.083 79.7392 169.364 79.7167C170.317 79.6404 171.108 80.7517 172.045 80.5603C173.05 80.3551 173.296 78.8505 174.276 78.5491C174.839 78.376 175.629 78.5865 175.898 78.0629C176.136 77.6014 175.662 77.0688 175.711 76.552C175.771 75.9157 176.522 75.6456 177.1 75.3741C179.095 74.4381 180.042 71.7531 179.075 69.7729C178.502 68.5997 177.375 67.6761 177.167 66.3872C177.007 65.3955 177.398 64.2392 176.766 63.4586C176.444 63.0615 175.9 62.8423 175.708 62.3685C175.588 62.0703 175.636 61.7319 175.571 61.4169C175.507 61.1018 175.232 60.7723 174.921 60.8539C174.017 61.091 173.729 63.8808 173.246 64.5586C172.511 65.589 171.002 64.9103 171.233 63.6408Z" fill="#538FF0"/>
<path d="M154.541 58.0388C154.232 57.9523 153.895 57.8671 153.6 57.9907C153.304 58.1144 153.131 58.5485 153.369 58.764C155.225 58.6916 157.093 58.6198 158.934 58.872C161.055 59.1625 163.154 59.8821 165.285 59.6704C164.068 59.3114 162.831 59.0243 161.58 58.8107L159.495 58.4124C158.935 58.2952 158.37 58.2078 157.801 58.1507C156.611 58.0524 155.711 58.3669 154.541 58.0388Z" fill="#1B3A6C"/>
<path d="M156.4 51.5724C156.246 51.5595 156.055 51.5484 155.975 51.6809C155.899 51.8076 155.986 51.9749 155.945 52.1168C155.889 52.3108 155.635 52.3604 155.435 52.334C155.235 52.3076 155.018 52.2443 154.841 52.3408C154.751 52.4023 154.683 52.4912 154.648 52.5943C154.613 52.6974 154.613 52.8091 154.646 52.9126C154.719 53.1182 154.836 53.3051 154.99 53.4599C155.252 53.7904 155.551 54.0901 155.88 54.3533C156.518 54.8244 157.383 55.0514 157.785 55.7351C157.842 55.8677 157.929 55.985 158.039 56.0775C158.232 56.1997 158.484 56.1067 158.692 56.0118L159.42 55.6791C159.551 55.6318 159.668 55.5522 159.76 55.4476C159.927 55.2218 159.824 54.9009 159.685 54.6577C159.545 54.4145 159.366 54.1629 159.396 53.8841C159.45 53.387 160.089 53.1968 160.352 52.7715C160.617 52.3428 160.444 51.7904 160.475 51.2873C160.51 50.699 160.88 49.9338 160.285 49.4942C159.78 49.1206 159.297 49.4658 158.934 49.8782C158.168 50.748 157.807 51.6899 156.4 51.5724Z" fill="#1B3A6C"/>
<path d="M160.82 42.7822C161.068 43.2582 161.587 43.5423 161.858 44.0058C162.152 44.5083 162.118 45.1575 162.437 45.6445C162.764 46.1442 163.422 46.4095 163.606 46.9778C163.806 47.5983 163.352 48.3524 163.714 48.8946C163.781 48.9832 163.866 49.0568 163.964 49.1108C164.061 49.1648 164.169 49.1979 164.28 49.2081C164.391 49.2183 164.503 49.2053 164.609 49.17C164.714 49.1347 164.811 49.0779 164.894 49.003C165.047 48.8368 165.128 48.6174 165.122 48.3918C165.115 48.1662 165.02 47.9521 164.858 47.7951C164.644 47.5996 164.336 47.5151 164.157 47.2868C164.064 47.155 164.001 47.0037 163.975 46.8445C163.878 46.385 163.893 45.9087 164.021 45.4567C164.069 45.3419 164.081 45.2154 164.056 45.0937C163.975 44.8594 163.658 44.8428 163.435 44.7341C162.929 44.4872 162.942 43.7735 163.03 43.2178C162.971 43.5878 161.653 42.9585 161.515 42.7489C161.241 42.3326 161.39 41.5294 161.336 41.0693C160.744 41.3546 160.516 42.2002 160.82 42.7822Z" fill="#538FF0"/>
<path d="M147.542 50.1064C147.299 49.834 146.932 49.5492 146.606 49.7134C146.358 49.8387 146.289 50.183 146.387 50.4439C146.505 50.6974 146.688 50.9155 146.917 51.0766C147.597 51.6371 148.329 52.143 148.922 52.7946C149.983 53.9606 150.545 55.534 151.699 56.6082C151.931 56.8573 152.238 57.0235 152.573 57.0815C152.909 57.1127 153.287 56.8975 153.326 56.5621C153.357 56.2858 153.165 56.0385 152.977 55.8337C152.528 55.3462 152.038 54.8974 151.614 54.3879C151.419 54.1922 151.296 53.9357 151.266 53.6607C151.264 53.3864 151.514 53.0992 151.78 53.1672C151.457 53.0846 151.217 52.546 150.743 52.4448C150.346 52.3602 150.25 52.6057 149.778 52.4033C148.878 52.0173 148.172 50.8119 147.542 50.1064Z" fill="#1B3A6C"/>
<path d="M168.688 23.5898C168.43 23.5131 168.176 23.4224 167.928 23.3182C167.26 23.1176 166.375 23.6088 166.465 24.3007C166.524 24.7604 166.952 25.0704 167.188 25.4692C167.538 26.0605 167.445 26.8106 167.261 27.4729C167.216 27.6779 167.13 27.8718 167.008 28.043C166.838 28.2237 166.635 28.3699 166.409 28.4737C165.507 28.9797 164.711 29.6557 164.066 30.4645C163.996 30.5391 163.947 30.6313 163.924 30.7312C163.892 30.9648 164.127 31.135 164.26 31.3299C164.555 31.7627 164.342 32.3451 164.371 32.8681C164.366 32.942 164.381 33.0159 164.413 33.0826C164.445 33.1494 164.494 33.2069 164.554 33.2496C164.732 33.3399 164.943 33.1865 165.039 33.012C165.359 32.4327 165.118 31.5029 165.718 31.2236C165.831 31.1708 165.969 31.1485 166.044 31.0488C166.164 30.8907 166.049 30.6566 166.109 30.4676C166.201 30.1839 166.589 30.1712 166.887 30.1837C167.4 30.2052 167.913 30.1369 168.402 29.982C168.594 29.9363 168.769 29.8353 168.904 29.6915C169.083 29.4677 169.067 29.1495 169.031 28.865C168.852 27.4467 168.403 26.0758 167.708 24.8264C168.235 24.8937 168.808 24.952 169.263 24.6774C169.517 24.5236 169.822 24.0638 169.696 23.7508C169.497 23.2559 169.136 23.6725 168.688 23.5898Z" fill="#538FF0"/>
<path d="M101.142 31.3907C101.205 31.7288 101.267 32.0849 101.156 32.4106C101.045 32.7363 100.696 33.0084 100.367 32.9086C100.112 32.8311 99.9641 32.5742 99.7827 32.3784C98.7737 31.2892 96.4974 31.9198 95.8742 30.5723C95.6198 30.0223 95.7927 29.3634 95.6192 28.7829C95.5097 28.4473 95.2919 28.1577 95 27.9593C94.708 27.761 94.3585 27.6653 94.0062 27.6871C93.6849 27.7335 93.3722 27.8269 93.0781 27.9642C91.1075 28.7534 89.0387 29.2709 86.9286 29.5023C86.5276 29.5267 86.1309 29.5989 85.747 29.7173C84.8806 30.0314 84.2885 30.8346 83.8672 31.6543C83.4459 32.474 83.1349 33.3614 82.5701 34.0896C81.9765 34.8549 81.1446 35.3909 80.3687 35.9706C80.0697 36.1632 79.8208 36.4241 79.6424 36.7317C79.4742 37.0771 79.4837 37.4788 79.4968 37.8627L79.6554 42.5257C79.6758 43.1254 79.7014 43.7467 79.9698 44.2834C80.305 44.9536 80.9672 45.3926 81.4266 45.9847C81.8954 46.5932 82.1396 47.3449 82.1179 48.1127C82.1081 48.4214 82.0775 48.7865 82.3179 48.9804C82.4641 49.0752 82.6352 49.1244 82.8095 49.1218L89.1172 49.6381C90.2267 49.7289 91.4564 49.8782 92.1808 50.7235C92.5227 51.1225 92.7973 51.6962 93.321 51.739C93.5456 51.7574 93.7642 51.6652 93.9888 51.6474C94.5557 51.6025 95.0536 52.0327 95.3679 52.5066C95.8435 53.2288 96.0594 54.0913 95.9801 54.9524C95.9286 55.493 95.761 56.0185 95.7248 56.5603C95.5874 58.6218 97.335 60.4129 97.3689 62.4787C97.3888 63.6939 96.8119 64.8293 96.2495 65.9066C97.1572 67.2817 96.414 69.1127 96.7753 70.7202C97.1182 72.2453 98.3898 73.4393 98.7066 74.97C98.8517 75.6707 98.8601 76.5331 99.478 76.894C99.7491 77.0262 100.05 77.0863 100.351 77.0688C102.167 77.0903 103.963 76.6815 105.591 75.8758C106.355 75.4967 107.147 74.9306 107.28 74.0882C107.388 73.4087 107.043 72.6488 107.394 72.057C107.807 71.3595 108.866 71.4148 109.474 70.8785C110.46 70.0086 109.691 68.3494 110.091 67.0963C110.45 65.97 111.687 65.3716 112.3 64.3607C112.541 63.9259 112.714 63.4568 112.813 62.9695C113.094 61.8049 113.269 60.6173 113.335 59.4213C113.352 58.6945 113.405 57.9691 113.496 57.2479C114.157 53.1418 118.216 50.3923 119.534 46.4478C119.66 46.071 119.719 45.5693 119.384 45.3561C119.185 45.2613 118.96 45.2377 118.746 45.2893L115.838 45.6559C115.477 45.7014 115.094 45.744 114.762 45.594C114.431 45.444 114.193 45.0244 114.369 44.7057C114.863 43.8112 113.847 42.6807 113.395 41.764C112.18 39.2955 110.733 36.9482 109.073 34.7537C108.967 34.6408 108.9 34.4963 108.883 34.3422L109.708 34.3697C109.43 33.3701 108.97 32.2763 107.999 31.9106C107.452 31.7046 106.846 31.7758 106.262 31.8077C104.59 31.8991 102.797 31.6466 101.142 31.3907Z" fill="#538FF0"/>
<path d="M106.263 8.86522C106.701 9.32994 107.191 9.82266 107.825 9.90365C108.943 10.0467 109.747 8.89027 110.259 7.88575C110.278 8.14184 110.396 8.38043 110.588 8.55079C110.78 8.72114 111.031 8.8098 111.288 8.79793C111.564 8.75149 111.827 8.64848 112.062 8.49538C114.277 7.2845 116.759 6.64292 119.284 6.62828C119.26 6.437 119.307 6.24352 119.417 6.08517C119.527 5.92682 119.692 5.81482 119.88 5.77078C120.393 5.66901 120.856 6.11286 121.103 6.57393C121.351 7.035 121.505 7.56942 121.899 7.91454C122.292 8.25966 123.054 8.24463 123.21 7.74486C123.359 7.26506 122.859 6.85589 122.444 6.57302C122.028 6.29015 121.591 5.76659 121.87 5.34914C123.992 4.87952 126.127 4.40812 128.298 4.31477C128.667 4.32764 129.035 4.2642 129.379 4.1284C129.71 3.96594 129.974 3.59715 129.885 3.23927C129.411 3.35064 128.915 3.31839 128.459 3.14664C128.004 2.97489 127.61 2.67141 127.328 2.27492C130.34 2.02634 133.544 1.81446 136.214 3.23187C136.534 3.91958 134.901 4.49175 135.338 5.11203C135.477 5.30986 135.757 5.33306 135.999 5.33755C137.854 5.372 139.719 5.40577 141.554 5.12569C142.224 5.02334 142.901 4.87885 143.574 4.96185C144.695 5.10009 145.654 5.84799 146.756 6.09183C147.205 6.19108 147.708 6.19444 148.087 5.93338C148.465 5.67233 148.628 5.0779 148.318 4.73854C149.356 3.72093 151.079 3.97314 152.449 4.46032C153.819 4.9475 155.116 5.73316 156.566 5.84175C157.606 5.91962 158.66 5.63999 159.687 5.81773C160.332 5.92942 160.933 6.2166 161.564 6.39303C162.757 6.72673 164.02 6.65629 165.259 6.67235C168.42 6.71493 171.546 7.33621 174.484 8.50541C174.866 8.62982 175.216 8.83665 175.509 9.11131C175.782 9.40398 175.922 9.85878 175.738 10.2146L172.703 9.77113C172.989 10.3341 173.729 10.43 174.33 10.6242C174.93 10.8184 175.553 11.4819 175.192 11.9999C174.541 11.7927 173.951 12.4435 173.622 13.0423C173.294 13.6412 172.893 14.3584 172.211 14.3948C171.6 14.4275 170.861 13.9073 170.463 14.3718C171.013 15.0658 171.484 15.8189 171.867 16.6172C172.261 17.4368 172.541 18.4695 172.009 19.2069C171.926 19.3385 171.799 19.4369 171.65 19.4852C171.216 19.5951 170.934 19.0639 170.622 18.7419C170.23 18.3361 169.637 18.2212 169.105 18.0309C168.574 17.8406 168.014 17.4663 167.972 16.9033C167.946 16.5531 168.131 16.2275 168.268 15.9038C168.497 15.3581 168.597 14.7671 168.56 14.1765C168.53 13.7014 168.397 13.2071 168.056 12.8751C167.715 12.5432 167.126 12.4378 166.759 12.7419C166.588 12.8838 166.451 13.1107 166.229 13.1192C165.837 13.1342 165.536 12.4504 165.22 12.6838C165.257 12.9325 165.206 13.1863 165.075 13.4009C164.133 14.2198 162.687 13.8734 161.473 14.1626C160.895 14.3278 160.343 14.5692 159.829 14.8803C159.637 14.9625 159.474 15.0997 159.36 15.2746C159.208 15.5691 159.375 15.9462 159.642 16.142C159.925 16.3157 160.244 16.4244 160.574 16.4601C162.054 16.7404 163.555 17.1743 164.724 18.1248C165.892 19.0754 166.658 20.6467 166.289 22.1068L163.37 19.3182C163.481 20.4891 163.544 21.6632 163.559 22.8405C163.578 23.0704 163.546 23.3017 163.466 23.5181C163.258 23.9776 162.695 24.1322 162.2 24.2337C162.063 24.2598 161.933 24.3147 161.818 24.3948C161.703 24.4748 161.607 24.5783 161.535 24.6983C161.463 24.8183 161.417 24.9521 161.401 25.0911C161.384 25.23 161.397 25.3708 161.439 25.5043C161.615 26.0766 162.052 26.5227 162.453 26.9673C162.854 27.4118 163.248 27.9171 163.301 28.5134C163.353 29.1096 162.904 29.7817 162.306 29.7403C161.854 29.7088 161.518 29.3036 161.325 28.893C161.132 28.4823 161.017 28.0249 160.727 27.676C159.849 26.6199 157.876 27.0724 157.09 25.9465C156.889 26.174 156.75 26.4489 156.686 26.7452C156.621 27.0415 156.634 27.3493 156.722 27.6395C157.088 27.4104 157.589 27.6233 157.864 27.9561C158.139 28.289 158.268 28.7158 158.484 29.0897C158.776 29.5942 159.239 30.0414 159.28 30.6226C159.269 30.8424 159.273 31.0626 159.291 31.2819C159.363 31.634 159.661 31.8869 159.867 32.1812C160.348 32.8661 160.324 33.8069 160.014 34.584C159.705 35.3611 159.149 36.0104 158.598 36.64C157.636 37.7396 156.655 38.8327 155.514 39.7458C155.189 40.0064 154.841 40.2626 154.639 40.6269C154.436 40.9912 154.426 41.5025 154.737 41.7796C154.514 41.7907 154.115 41.9003 153.892 41.9115C153.813 41.0175 153.796 40.1193 153.841 39.223C152.961 38.8007 152.014 39.9316 152.128 40.9005C152.241 41.8694 152.942 42.647 153.441 43.4852C153.806 44.0983 154.077 44.8131 153.955 45.516C153.834 46.2189 153.206 46.8673 152.495 46.8053C151.365 46.7067 150.892 45.0839 149.773 44.8981C149.674 44.875 149.57 44.8853 149.478 44.9274C149.312 45.0186 149.283 45.2409 149.274 45.4303C149.228 46.3595 149.188 47.3256 149.551 48.1823C150.082 49.4356 151.453 50.4882 151.165 51.8185C149.616 51.0984 148.81 49.3612 148.445 47.6925C148.079 46.0238 148.018 44.272 147.363 42.6945C146.865 43.3325 145.819 42.8051 145.364 42.1358C144.933 41.5012 144.667 40.7672 144.249 40.1241C143.831 39.481 143.19 38.9052 142.423 38.8698C141.62 38.8328 140.923 39.3841 140.31 39.9051C139.806 40.3335 139.289 40.7788 138.994 41.371C138.566 42.2327 138.678 43.2486 138.657 44.2109C138.635 45.2512 138.414 46.3487 137.705 47.1103C136.996 47.8718 135.688 48.1371 134.906 47.4507C134.497 47.0924 134.3 46.557 134.124 46.0432C133.275 43.566 132.568 41.0425 132.006 38.4849C131.875 39.0687 131.362 39.8211 130.873 39.4772C130.763 39.3848 130.674 39.2701 130.612 39.1407C129.698 37.5926 128.007 36.664 126.298 36.1072C124.588 35.5504 122.79 35.2907 121.1 34.6788C120.153 34.3358 119.248 33.8852 118.404 33.3358C118.189 33.6521 118.063 34.0206 118.04 34.4025C118.017 34.7843 118.098 35.1653 118.274 35.5049C118.649 36.1687 119.498 36.5528 120.224 36.3208C120.599 36.2009 120.916 35.9403 121.289 35.8117C121.661 35.683 122.161 35.7462 122.324 36.1049C122.479 36.4483 122.244 36.8637 122.361 37.2223C122.539 37.7684 123.362 37.8104 123.65 38.3074C123.865 38.6771 123.688 39.1681 123.382 39.4664C123.076 39.7648 122.668 39.9284 122.295 40.1361C121.083 40.81 120.221 41.9603 119.162 42.8553C118.103 43.7503 116.609 44.4037 115.347 43.8296C115.647 42.3062 113.833 41.1877 113.499 39.6711C113.389 39.172 113.446 38.6417 113.289 38.1553C113.062 37.451 112.437 36.9667 111.924 36.433C111.303 35.7786 110.818 35.0063 110.5 34.1617C110.181 33.3171 110.035 32.4173 110.07 31.5153C110.098 30.8885 110.213 30.2515 110.071 29.6406C109.928 29.0297 109.422 28.4384 108.795 28.4661C107.364 28.5293 105.56 28.6358 104.809 27.4155C104.541 26.9799 104.424 26.342 104.812 26.0083C105.085 25.7729 105.489 25.7951 105.848 25.8304L109.073 26.1477C109.828 26.2219 110.643 26.2832 111.291 25.8888C111.938 25.4944 112.219 24.4475 111.619 23.9835C111.181 23.6445 110.396 23.6629 110.269 23.1239C110.163 22.6749 110.66 22.1656 110.392 21.7904C110.199 21.5214 109.767 21.596 109.504 21.7977C109.242 21.9993 109.052 22.2942 108.759 22.4469C108.244 22.7148 107.629 22.4599 107.075 22.2866C106.521 22.1134 105.779 22.0986 105.511 22.6129C105.21 23.1881 105.777 23.9418 105.479 24.5182C105.085 25.2802 103.75 24.8464 103.197 25.5019C102.561 26.254 103.629 27.3755 103.415 28.3364C103.141 28.4718 102.837 28.534 102.532 28.5169C102.228 28.4998 101.933 28.4039 101.676 28.2387C101.424 28.0671 101.223 27.8302 101.094 27.5534C100.966 27.2766 100.915 26.9701 100.946 26.6665C100.999 26.2343 101.225 25.7931 101.074 25.3846C100.952 25.0544 100.62 24.8578 100.312 24.6875L97.1776 22.9554C96.8866 23.4952 97.2545 24.1645 97.7146 24.57C98.1747 24.9754 98.751 25.2808 99.0533 25.8144C99.2445 26.1842 99.2873 26.6129 99.1731 27.0132C99.0589 27.4134 98.7961 27.755 98.4386 27.968C98.3938 27.999 98.3428 28.0198 98.2892 28.0292C98.2355 28.0385 98.1805 28.0362 98.1279 28.0222C98.0779 27.9929 98.0343 27.9537 97.9997 27.9072C97.9651 27.8606 97.9401 27.8076 97.9264 27.7513C97.3734 26.336 96.543 24.9406 95.2155 24.2013C93.888 23.462 91.9805 23.614 91.11 24.8594C90.9032 25.1552 90.7645 25.4924 90.5843 25.8051C89.6274 27.4667 87.5758 28.2535 85.6591 28.2021C85.4715 28.2125 85.285 28.1687 85.1218 28.0759C84.812 27.8619 84.8259 27.408 84.8733 27.0345L85.0746 25.4495C85.115 25.1312 85.1735 24.7794 85.4254 24.5808C85.7805 24.3007 86.2927 24.4774 86.7449 24.4709C87.0875 24.4549 87.4169 24.3339 87.6884 24.1243C87.9599 23.9148 88.1605 23.6268 88.2628 23.2995C88.3542 22.9689 88.3536 22.6197 88.2611 22.2894C88.1687 21.9592 87.9878 21.6604 87.7381 21.4253C87.5309 21.2306 87.2527 20.9861 87.3621 20.7237C87.4058 20.6511 87.4649 20.5889 87.5352 20.5416C87.6054 20.4943 87.6852 20.463 87.7689 20.4498C88.5812 20.2139 89.4395 20.1521 90.2382 19.8737C91.0369 19.5954 91.8115 19.026 92.0007 18.2016C92.0586 17.9489 92.085 17.6429 92.312 17.5176C92.4258 17.4695 92.5481 17.4446 92.6717 17.4441C93.1047 17.3825 93.499 17.161 93.7769 16.8233C94.0549 16.4855 94.1963 16.056 94.1733 15.6192C94.5561 15.3517 95.0924 15.5485 95.4627 15.833C95.833 16.1174 96.16 16.4933 96.6106 16.6159C97.4503 16.8445 98.2618 16.101 99.1321 16.0975C99.4981 16.0961 99.8769 16.2255 100.221 16.1014C100.57 15.9756 100.779 15.6282 101.047 15.3715C101.314 15.1148 101.785 14.9582 102.032 15.2348L101.821 13.6745C102.245 13.7817 102.688 13.7968 103.118 13.719C103.549 13.6412 103.958 13.4721 104.318 13.2232L101.595 12.3034C101.5 12.2797 101.413 12.2329 101.341 12.1672C101.143 11.9541 101.339 11.622 101.5 11.3797C101.885 10.8002 101.95 9.84549 101.317 9.55695C100.885 9.36001 100.388 9.59641 99.9737 9.8277L97.9867 10.9356C97.9235 11.3133 98.3854 11.5273 98.6716 11.7818C98.8448 11.9357 98.9673 12.1384 99.0232 12.3632C99.079 12.5881 99.0656 12.8246 98.9846 13.0416C98.9036 13.2587 98.7588 13.4462 98.5693 13.5794C98.3798 13.7127 98.1544 13.7856 97.9227 13.7884C98.0536 13.9585 98.1445 14.1559 98.1887 14.3659C98.233 14.5759 98.2294 14.7931 98.1783 15.0016L96.8414 15.0977C96.6914 15.1279 96.5355 15.0975 96.4078 15.0131C96.2648 14.8861 96.2842 14.6636 96.251 14.4752C96.1711 14.0206 95.7259 13.702 95.2717 13.6203C94.8174 13.5387 94.3527 13.6434 93.9028 13.7468C93.7118 13.8155 93.5021 13.8107 93.3144 13.7332C93.2068 13.6633 93.1251 13.5601 93.0816 13.4394C92.8844 12.9612 93.0688 12.3991 93.3855 11.9902C93.7022 11.5813 94.1358 11.2823 94.5253 10.9419C95.4565 10.1248 96.1407 9.06359 96.5006 7.87811C97.2365 7.56976 97.9985 7.15079 98.7344 6.84243C99.8691 6.26796 101.141 6.02143 102.409 6.13055L104.901 6.17816C105.639 6.19226 106.397 6.21032 107.079 6.49163C107.761 6.77295 108.361 7.38141 108.408 8.11796C108.422 8.20134 108.415 8.28696 108.387 8.3668C108.359 8.44663 108.311 8.51806 108.248 8.57437C108.152 8.62695 108.043 8.65155 107.933 8.64539C107.245 8.66958 106.952 8.84105 106.263 8.86522Z" fill="#538FF0"/>
<path d="M86.3975 16.6765C86.4949 16.5844 86.565 16.4671 86.6 16.3377C86.6351 16.2083 86.6339 16.0718 86.5964 15.943C86.3594 15.8516 86.1017 15.8281 85.8521 15.8753C85.6025 15.9224 85.3711 16.0382 85.1838 16.2098C85.0361 16.3591 84.9089 16.5274 84.8054 16.7101C84.4779 17.2444 84.1882 17.8826 84.378 18.4799C84.3934 18.5451 84.4218 18.6065 84.4613 18.6605C84.5008 18.7145 84.5507 18.7602 84.6081 18.7946C84.6931 18.8288 84.7849 18.8432 84.8763 18.8367C85.2371 18.8362 85.5975 18.814 85.9556 18.7702C86.1756 18.7433 86.431 18.6812 86.516 18.4766C86.6277 18.2076 86.3573 17.9032 86.4362 17.6229C86.488 17.4975 86.5666 17.3849 86.6665 17.293C86.716 17.2468 86.7541 17.1896 86.7776 17.1261C86.8012 17.0625 86.8097 16.9944 86.8023 16.927C86.7705 16.7954 86.569 16.7208 86.4965 16.8351" fill="#538FF0"/>
<path d="M88.2683 14.2509C87.9478 14.1773 87.6174 14.1566 87.2902 14.1895C87.2178 14.1873 87.1461 14.2036 87.0817 14.2368C87.0194 14.2828 86.9742 14.3483 86.9533 14.4228C86.8842 14.6446 86.9012 14.8843 87.0009 15.0942C87.1006 15.304 87.2757 15.4686 87.4913 15.5552C87.6088 15.5822 87.7214 15.6274 87.8249 15.6892C88.1015 15.9039 87.9252 16.3426 87.9775 16.6888C88.0363 17.0775 88.4126 17.4038 88.3436 17.7909C88.2893 18.0958 87.9636 18.3373 88.016 18.6426C88.0709 18.9623 88.4767 19.0584 88.8001 19.084C88.9875 19.1168 89.1804 19.0947 89.3556 19.0203C89.5311 18.9003 89.656 18.7195 89.7061 18.5128C89.8385 18.1187 89.8941 17.7028 89.87 17.2878C89.8685 17.099 89.8211 16.9134 89.7318 16.7471C89.6344 16.6153 89.5265 16.4917 89.409 16.3775C88.7894 15.6567 89.4418 14.5816 88.2683 14.2509Z" fill="#538FF0"/>
<path d="M169.748 70.712C169.748 70.712 122.291 43.4706 101.86 48.6321C101.86 48.6321 58.5603 53.2919 53.5421 63.5432C53.5421 63.5432 39.778 20.5304 34.7599 19.0967" stroke="#1B3A6C" stroke-miterlimit="10"/>
<path d="M53.5421 63.5434C61.4995 42.3237 133.187 18.8101 133.187 18.8101C123.008 21.3908 101.86 48.6323 101.86 48.6323C101.86 48.6323 57.1265 16.0859 34.7599 19.0968C34.7599 19.0968 133.259 22.3228 169.748 70.7122" stroke="#1B3A6C" stroke-miterlimit="10"/>
<path d="M34.7599 21.1755C35.908 21.1755 36.8388 20.2447 36.8388 19.0965C36.8388 17.9484 35.908 17.0176 34.7599 17.0176C33.6117 17.0176 32.6809 17.9484 32.6809 19.0965C32.6809 20.2447 33.6117 21.1755 34.7599 21.1755Z" fill="#1B3A6C"/>
<path d="M53.5421 65.6223C54.6903 65.6223 55.621 64.6915 55.621 63.5433C55.621 62.3951 54.6903 61.4644 53.5421 61.4644C52.3939 61.4644 51.4631 62.3951 51.4631 63.5433C51.4631 64.6915 52.3939 65.6223 53.5421 65.6223Z" fill="#1B3A6C"/>
<path d="M133.187 20.8894C134.336 20.8894 135.266 19.9586 135.266 18.8104C135.266 17.6622 134.336 16.7314 133.187 16.7314C132.039 16.7314 131.109 17.6622 131.109 18.8104C131.109 19.9586 132.039 20.8894 133.187 20.8894Z" fill="#1B3A6C"/>
<path d="M169.748 72.7912C170.897 72.7912 171.827 71.8604 171.827 70.7122C171.827 69.5641 170.897 68.6333 169.748 68.6333C168.6 68.6333 167.669 69.5641 167.669 70.7122C167.669 71.8604 168.6 72.7912 169.748 72.7912Z" fill="white"/>
<path d="M101.86 50.7111C103.008 50.7111 103.939 49.7803 103.939 48.6322C103.939 47.484 103.008 46.5532 101.86 46.5532C100.712 46.5532 99.7809 47.484 99.7809 48.6322C99.7809 49.7803 100.712 50.7111 101.86 50.7111Z" fill="#1B3A6C"/>
<path d="M15.097 106.233L17.8706 106.299L16.823 114.743L14.9435 114.698L15.097 106.233Z" fill="#FFB6B6"/>
<path d="M21.3917 118.62C21.3917 118.39 21.2724 118.183 21.0882 118.092L19.0182 117.069L17.6069 113.796L17.5855 110.499L14.6774 110.157L14.2568 112.257C14.2568 112.257 15.1228 112.128 14.0536 113.056C12.9845 113.985 13.4993 115.801 13.4993 115.801L13.2661 119.195H15.1906L15.2939 117.084C16.7907 117.719 17.1578 119.195 17.1578 119.195H20.8884C21.1664 119.195 21.3917 118.937 21.3917 118.62Z" fill="#2F2E41"/>
<path d="M19.1597 106.327L21.9334 106.392L20.8857 114.836L19.0062 114.792L19.1597 106.327Z" fill="#FFB6B6"/>
<path d="M25.4545 118.712C25.4545 118.483 25.3352 118.276 25.1509 118.185L23.0809 117.162L21.6696 113.889L21.6482 110.591L18.7401 110.25L18.3196 112.35C18.3196 112.35 19.1855 112.221 18.1164 113.149C17.0472 114.077 17.562 115.893 17.562 115.893L17.3289 119.287H19.2533L19.3567 117.177C20.8535 117.812 21.2206 119.287 21.2206 119.287H24.9512C25.2291 119.287 25.4545 119.03 25.4545 118.712Z" fill="#2F2E41"/>
<path d="M15.979 56.7988L12.8347 64.3067C11.7865 66.8094 11.4544 69.5541 11.8752 72.2346L13.4035 109.118H19.4456L22.0829 76.2733L22.6034 89.2474L16.5547 107.733H22.5038L30.1398 89.2474L30.7059 75.0137L27.9931 63.9685L15.979 56.7988Z" fill="#2F2E41"/>
<path d="M12.117 66.272C8.65588 76.1267 13.0657 83.8908 12.1506 78.8824C11.3858 74.6968 24.4181 61.9601 28.3409 64.5864C28.2587 64.1614 25.7653 56.4982 25.5209 56.4629C25.8628 55.6017 25.3862 55.5935 25.3668 55.1523C25.2927 53.4482 25.6888 51.6791 26.4604 49.8585C26.966 48.4519 26.9749 47.2433 26.4848 46.2688C26.0631 45.4679 25.3547 44.8556 24.5011 44.5544L21.9305 41.4499C21.261 40.6419 20.2734 38.8983 19.2241 38.9049L13.5915 38.7037C13.4305 38.607 11.4527 40.3077 9.52691 41.1423C7.43825 42.0483 7.86914 44.5211 7.87439 44.5527L7.87924 44.5822L7.90221 44.6032L10.9723 53.6396L13.7462 56.2393C13.6056 56.6468 13.6408 56.9527 13.904 57.1283C13.5262 57.4076 11.8456 65.7684 12.117 66.0613L12.117 66.272Z" fill="#6C63FF"/>
<path d="M41.0596 48.3878C40.6408 48.5549 40.268 48.8199 39.9726 49.1606L35.5121 50.6896L36.3018 52.7907L40.7414 51.0135C41.1913 51.0449 41.6422 50.9682 42.0564 50.7897C43.0987 50.3572 43.7209 49.4689 43.4453 48.8056C43.1697 48.1423 42.1019 47.9552 41.0596 48.3878Z" fill="#FFB6B6"/>
<path d="M17.2654 41.6449L27.4411 55.3804L39.369 52.0956L38.8505 48.9839L29.7676 50.7043L24.7005 42.9143C23.0459 39.7159 19.7847 39.0718 17.2654 41.6447V41.6449Z" fill="#6C63FF"/>
<path d="M20.5365 37.5338L12.391 38.2755L12.1506 29.8096L21.0246 29.5576L20.5365 37.5338Z" fill="#2F2E41"/>
<path d="M16.4176 36.3976C18.7784 36.3976 20.6923 34.4838 20.6923 32.1229C20.6923 29.762 18.7784 27.8481 16.4176 27.8481C14.0567 27.8481 12.1428 29.762 12.1428 32.1229C12.1428 34.4838 14.0567 36.3976 16.4176 36.3976Z" fill="#FFB6B6"/>
<path d="M19.8563 27.9575C19.8262 26.8968 18.5064 26.782 17.4781 26.5202L16.5456 26.0363C15.6303 25.8033 14.6592 25.9671 13.8711 26.4876L11.3846 27.9939C10.2681 28.7311 10.0908 29.9228 9.63678 31.1813L8.81505 33.0236C8.36812 34.2625 8.95871 35.9041 9.4105 37.1412L9.59982 37.6596L9.30379 39.3563L14.4854 39.1143L14.946 36.4951L14.0615 35.5008C13.7477 35.148 13.7222 34.6242 14.0004 34.2427C15.0009 32.8702 14.8155 30.9468 14.8155 30.9468L16.0817 31.6375C16.9137 31.751 17.6551 31.7386 18.3074 31.6023C19.0249 31.4523 19.6346 31.1525 20.1385 30.7057L20.5899 32.2241C20.7062 34.1139 20.3531 34.6154 18.6687 36.464L21.6225 38.3184L21.5133 37.3149C21.2534 34.9276 22.0457 33.0451 21.9346 31.1021C21.8578 29.7586 21.0588 28.5616 19.8563 27.9575Z" fill="#2F2E41"/>
<path d="M20.5638 64.0022C20.1464 63.8314 19.6942 63.763 19.245 63.8027L14.9749 61.8027L14.0828 63.8624L18.5104 65.6694C18.8121 66.0046 19.1896 66.2628 19.6115 66.4222C20.6617 66.8354 21.7264 66.629 21.9891 65.9605C22.2518 65.292 21.6139 64.4154 20.5638 64.0022Z" fill="#FFB6B6"/>
<path d="M8.13847 42.6195L5.91162 59.5679L16.7718 65.4942L18.5611 62.8962L10.834 57.8219L12.6032 48.6989C13.6358 45.2491 11.7382 42.5198 8.13862 42.6193L8.13847 42.6195Z" fill="#6C63FF"/>
<path d="M196.905 86.7496C196.905 85.9823 196.647 85.3597 196.331 85.3583H110.091C109.773 85.3597 109.517 85.9823 109.515 86.7496V118.332C109.515 118.404 109.489 118.472 109.441 118.525C109.393 118.578 109.327 118.611 109.256 118.618C109.025 118.64 108.793 118.661 108.562 118.68C108.556 118.68 108.55 118.681 108.545 118.681C108.419 118.693 108.293 118.701 108.167 118.711H108.165C108.101 118.591 108.037 118.471 107.973 118.349C107.952 118.308 107.941 118.262 107.941 118.216V84.9446C107.941 84.7327 107.949 84.5194 107.964 84.309C107.984 84.0201 108.02 83.7325 108.071 83.4473C108.313 82.1176 108.86 81.2172 109.481 81.2144H196.939C197.03 81.215 197.12 81.2339 197.203 81.2702C197.325 81.3242 197.435 81.4015 197.528 81.4978C197.653 81.6283 197.76 81.7751 197.847 81.9343C198.203 82.6446 198.408 83.421 198.449 84.2145C198.449 84.2231 198.451 84.2317 198.451 84.2403C198.471 84.4722 198.481 84.7084 198.479 84.9446L198.5 88.0121L198.512 89.8414L198.551 95.5813L198.565 97.6196L198.628 118.547C198.628 118.623 198.598 118.695 198.544 118.749C198.491 118.803 198.418 118.833 198.342 118.833H197.191C197.115 118.833 197.042 118.803 196.989 118.749C196.935 118.695 196.905 118.623 196.905 118.547V86.7496Z" fill="#1B3A6C"/>
<path d="M173.471 66.8608H164.178C164.047 66.861 163.921 66.9134 163.828 67.0065C163.735 67.0996 163.683 67.2257 163.683 67.3572V82.0366H173.967V67.3572C173.967 67.292 173.954 67.2274 173.929 67.1672C173.904 67.107 173.868 67.0522 173.822 67.0061C173.776 66.96 173.721 66.9235 173.661 66.8986C173.6 66.8736 173.536 66.8608 173.471 66.8608ZM168.856 75.2015C168.565 75.2002 168.287 75.0841 168.081 74.8787C167.876 74.6732 167.76 74.3948 167.758 74.1042V72.4111C167.758 72.1201 167.874 71.841 168.08 71.6352C168.286 71.4294 168.565 71.3138 168.856 71.3138C169.147 71.3138 169.426 71.4294 169.632 71.6352C169.837 71.841 169.953 72.1201 169.953 72.4111V74.1042C169.952 74.3948 169.836 74.6732 169.63 74.8787C169.425 75.0841 169.146 75.2002 168.856 75.2015Z" fill="#1B3A6C"/>
<path d="M163.651 81.5674V82.9836C163.651 83.057 163.68 83.1274 163.732 83.1793C163.784 83.2312 163.855 83.2604 163.928 83.2605H173.722C173.795 83.2602 173.866 83.2309 173.917 83.179C173.969 83.1272 173.998 83.057 173.999 82.9836V81.5674H163.651Z" fill="#3F3D56"/>
<path d="M188.858 43.9521H149.136C148.795 43.9527 148.468 44.0885 148.227 44.3298C147.985 44.5711 147.849 44.8983 147.849 45.2395V72.0441C147.849 72.3855 147.985 72.7127 148.226 72.9541C148.468 73.1954 148.795 73.3312 149.136 73.3315H188.858C189.2 73.3312 189.527 73.1954 189.768 72.9541C190.01 72.7127 190.145 72.3855 190.146 72.0441V45.2395C190.145 44.8983 190.009 44.5711 189.768 44.3298C189.527 44.0885 189.2 43.9527 188.858 43.9521Z" fill="#1B3A6C"/>
<path d="M188.527 44.8818H149.468C149.285 44.8822 149.11 44.9551 148.981 45.0844C148.852 45.2138 148.78 45.389 148.78 45.5718V71.712C148.78 71.8945 148.853 72.0694 148.982 72.1985C149.111 72.3275 149.286 72.4001 149.468 72.4005H188.527C188.709 72.4001 188.884 72.3275 189.013 72.1985C189.142 72.0694 189.215 71.8945 189.215 71.712V45.5718C189.215 45.389 189.143 45.2138 189.014 45.0844C188.884 44.9551 188.709 44.8822 188.527 44.8818Z" fill="white"/>
<path d="M180.919 83.753H157.681C157.617 83.753 157.555 83.7388 157.497 83.7114C157.44 83.6841 157.389 83.6443 157.349 83.5949C157.309 83.5455 157.28 83.4877 157.266 83.4259C157.251 83.3641 157.25 83.2997 157.263 83.2375L157.623 81.5249C157.644 81.4291 157.696 81.3432 157.773 81.2815C157.849 81.2198 157.944 81.1859 158.042 81.1855H180.558C180.656 81.1859 180.751 81.2198 180.827 81.2815C180.903 81.3432 180.956 81.4291 180.976 81.5249L181.337 83.2375C181.35 83.2997 181.349 83.3641 181.334 83.4259C181.319 83.4877 181.291 83.5455 181.251 83.5949C181.211 83.6443 181.16 83.6841 181.103 83.7114C181.045 83.7388 180.982 83.753 180.919 83.753Z" fill="white"/>
<path d="M158.797 81.4941H158.332C158.263 81.4941 158.207 81.5504 158.207 81.6197V81.798C158.207 81.8673 158.263 81.9236 158.332 81.9236H158.797C158.866 81.9236 158.922 81.8673 158.922 81.798V81.6197C158.922 81.5504 158.866 81.4941 158.797 81.4941Z" fill="#1B3A6C"/>
<path d="M160.228 81.4941H159.763C159.694 81.4941 159.638 81.5504 159.638 81.6197V81.798C159.638 81.8673 159.694 81.9236 159.763 81.9236H160.228C160.297 81.9236 160.354 81.8673 160.354 81.798V81.6197C160.354 81.5504 160.297 81.4941 160.228 81.4941Z" fill="#1B3A6C"/>
<path d="M161.659 81.4941H161.195C161.126 81.4941 161.069 81.5504 161.069 81.6197V81.798C161.069 81.8673 161.126 81.9236 161.195 81.9236H161.659C161.729 81.9236 161.785 81.8673 161.785 81.798V81.6197C161.785 81.5504 161.729 81.4941 161.659 81.4941Z" fill="#1B3A6C"/>
<path d="M163.091 81.4941H162.626C162.557 81.4941 162.501 81.5504 162.501 81.6197V81.798C162.501 81.8673 162.557 81.9236 162.626 81.9236H163.091C163.16 81.9236 163.216 81.8673 163.216 81.798V81.6197C163.216 81.5504 163.16 81.4941 163.091 81.4941Z" fill="#1B3A6C"/>
<path d="M164.522 81.4941H164.058C163.988 81.4941 163.932 81.5504 163.932 81.6197V81.798C163.932 81.8673 163.988 81.9236 164.058 81.9236H164.522C164.592 81.9236 164.648 81.8673 164.648 81.798V81.6197C164.648 81.5504 164.592 81.4941 164.522 81.4941Z" fill="#1B3A6C"/>
<path d="M165.954 81.4941H165.489C165.42 81.4941 165.364 81.5504 165.364 81.6197V81.798C165.364 81.8673 165.42 81.9236 165.489 81.9236H165.954C166.023 81.9236 166.079 81.8673 166.079 81.798V81.6197C166.079 81.5504 166.023 81.4941 165.954 81.4941Z" fill="#1B3A6C"/>
<path d="M167.385 81.4941H166.92C166.851 81.4941 166.795 81.5504 166.795 81.6197V81.798C166.795 81.8673 166.851 81.9236 166.92 81.9236H167.385C167.454 81.9236 167.511 81.8673 167.511 81.798V81.6197C167.511 81.5504 167.454 81.4941 167.385 81.4941Z" fill="#1B3A6C"/>
<path d="M168.816 81.4941H168.352C168.283 81.4941 168.226 81.5504 168.226 81.6197V81.798C168.226 81.8673 168.283 81.9236 168.352 81.9236H168.816C168.886 81.9236 168.942 81.8673 168.942 81.798V81.6197C168.942 81.5504 168.886 81.4941 168.816 81.4941Z" fill="#1B3A6C"/>
<path d="M170.248 81.4941H169.783C169.714 81.4941 169.658 81.5504 169.658 81.6197V81.798C169.658 81.8673 169.714 81.9236 169.783 81.9236H170.248C170.317 81.9236 170.373 81.8673 170.373 81.798V81.6197C170.373 81.5504 170.317 81.4941 170.248 81.4941Z" fill="#1B3A6C"/>
<path d="M171.679 81.4941H171.215C171.145 81.4941 171.089 81.5504 171.089 81.6197V81.798C171.089 81.8673 171.145 81.9236 171.215 81.9236H171.679C171.749 81.9236 171.805 81.8673 171.805 81.798V81.6197C171.805 81.5504 171.749 81.4941 171.679 81.4941Z" fill="#1B3A6C"/>
<path d="M173.111 81.4941H172.646C172.577 81.4941 172.521 81.5504 172.521 81.6197V81.798C172.521 81.8673 172.577 81.9236 172.646 81.9236H173.111C173.18 81.9236 173.236 81.8673 173.236 81.798V81.6197C173.236 81.5504 173.18 81.4941 173.111 81.4941Z" fill="#1B3A6C"/>
<path d="M174.542 81.4941H174.077C174.008 81.4941 173.952 81.5504 173.952 81.6197V81.798C173.952 81.8673 174.008 81.9236 174.077 81.9236H174.542C174.611 81.9236 174.668 81.8673 174.668 81.798V81.6197C174.668 81.5504 174.611 81.4941 174.542 81.4941Z" fill="#1B3A6C"/>
<path d="M175.973 81.4941H175.509C175.44 81.4941 175.383 81.5504 175.383 81.6197V81.798C175.383 81.8673 175.44 81.9236 175.509 81.9236H175.973C176.043 81.9236 176.099 81.8673 176.099 81.798V81.6197C176.099 81.5504 176.043 81.4941 175.973 81.4941Z" fill="#1B3A6C"/>
<path d="M177.405 81.4941H176.94C176.871 81.4941 176.815 81.5504 176.815 81.6197V81.798C176.815 81.8673 176.871 81.9236 176.94 81.9236H177.405C177.474 81.9236 177.53 81.8673 177.53 81.798V81.6197C177.53 81.5504 177.474 81.4941 177.405 81.4941Z" fill="#1B3A6C"/>
<path d="M178.836 81.4941H178.372C178.302 81.4941 178.246 81.5504 178.246 81.6197V81.798C178.246 81.8673 178.302 81.9236 178.372 81.9236H178.836C178.906 81.9236 178.962 81.8673 178.962 81.798V81.6197C178.962 81.5504 178.906 81.4941 178.836 81.4941Z" fill="#1B3A6C"/>
<path d="M180.268 81.4941H179.803C179.734 81.4941 179.677 81.5504 179.677 81.6197V81.798C179.677 81.8673 179.734 81.9236 179.803 81.9236H180.268C180.337 81.9236 180.393 81.8673 180.393 81.798V81.6197C180.393 81.5504 180.337 81.4941 180.268 81.4941Z" fill="#1B3A6C"/>
<path d="M158.78 82.21H158.315C158.246 82.21 158.19 82.2662 158.19 82.3355V82.5138C158.19 82.5832 158.246 82.6394 158.315 82.6394H158.78C158.849 82.6394 158.905 82.5832 158.905 82.5138V82.3355C158.905 82.2662 158.849 82.21 158.78 82.21Z" fill="#1B3A6C"/>
<path d="M160.211 82.21H159.747C159.677 82.21 159.621 82.2662 159.621 82.3355V82.5138C159.621 82.5832 159.677 82.6394 159.747 82.6394H160.211C160.28 82.6394 160.337 82.5832 160.337 82.5138V82.3355C160.337 82.2662 160.28 82.21 160.211 82.21Z" fill="#1B3A6C"/>
<path d="M161.643 82.21H161.178C161.109 82.21 161.052 82.2662 161.052 82.3355V82.5138C161.052 82.5832 161.109 82.6394 161.178 82.6394H161.643C161.712 82.6394 161.768 82.5832 161.768 82.5138V82.3355C161.768 82.2662 161.712 82.21 161.643 82.21Z" fill="#1B3A6C"/>
<path d="M163.074 82.21H162.609C162.54 82.21 162.484 82.2662 162.484 82.3355V82.5138C162.484 82.5832 162.54 82.6394 162.609 82.6394H163.074C163.143 82.6394 163.2 82.5832 163.2 82.5138V82.3355C163.2 82.2662 163.143 82.21 163.074 82.21Z" fill="#1B3A6C"/>
<path d="M164.505 82.21H164.041C163.972 82.21 163.915 82.2662 163.915 82.3355V82.5138C163.915 82.5832 163.972 82.6394 164.041 82.6394H164.505C164.575 82.6394 164.631 82.5832 164.631 82.5138V82.3355C164.631 82.2662 164.575 82.21 164.505 82.21Z" fill="#1B3A6C"/>
<path d="M165.937 82.21H165.472C165.403 82.21 165.347 82.2662 165.347 82.3355V82.5138C165.347 82.5832 165.403 82.6394 165.472 82.6394H165.937C166.006 82.6394 166.062 82.5832 166.062 82.5138V82.3355C166.062 82.2662 166.006 82.21 165.937 82.21Z" fill="#1B3A6C"/>
<path d="M167.368 82.21H166.904C166.834 82.21 166.778 82.2662 166.778 82.3355V82.5138C166.778 82.5832 166.834 82.6394 166.904 82.6394H167.368C167.437 82.6394 167.494 82.5832 167.494 82.5138V82.3355C167.494 82.2662 167.437 82.21 167.368 82.21Z" fill="#1B3A6C"/>
<path d="M168.8 82.21H168.335C168.266 82.21 168.209 82.2662 168.209 82.3355V82.5138C168.209 82.5832 168.266 82.6394 168.335 82.6394H168.8C168.869 82.6394 168.925 82.5832 168.925 82.5138V82.3355C168.925 82.2662 168.869 82.21 168.8 82.21Z" fill="#1B3A6C"/>
<path d="M170.231 82.21H169.766C169.697 82.21 169.641 82.2662 169.641 82.3355V82.5138C169.641 82.5832 169.697 82.6394 169.766 82.6394H170.231C170.3 82.6394 170.356 82.5832 170.356 82.5138V82.3355C170.356 82.2662 170.3 82.21 170.231 82.21Z" fill="#1B3A6C"/>
<path d="M171.662 82.21H171.198C171.128 82.21 171.072 82.2662 171.072 82.3355V82.5138C171.072 82.5832 171.128 82.6394 171.198 82.6394H171.662C171.732 82.6394 171.788 82.5832 171.788 82.5138V82.3355C171.788 82.2662 171.732 82.21 171.662 82.21Z" fill="#1B3A6C"/>
<path d="M173.094 82.21H172.629C172.56 82.21 172.504 82.2662 172.504 82.3355V82.5138C172.504 82.5832 172.56 82.6394 172.629 82.6394H173.094C173.163 82.6394 173.219 82.5832 173.219 82.5138V82.3355C173.219 82.2662 173.163 82.21 173.094 82.21Z" fill="#1B3A6C"/>
<path d="M174.525 82.21H174.061C173.991 82.21 173.935 82.2662 173.935 82.3355V82.5138C173.935 82.5832 173.991 82.6394 174.061 82.6394H174.525C174.595 82.6394 174.651 82.5832 174.651 82.5138V82.3355C174.651 82.2662 174.595 82.21 174.525 82.21Z" fill="#1B3A6C"/>
<path d="M175.956 82.21H175.492C175.423 82.21 175.366 82.2662 175.366 82.3355V82.5138C175.366 82.5832 175.423 82.6394 175.492 82.6394H175.956C176.026 82.6394 176.082 82.5832 176.082 82.5138V82.3355C176.082 82.2662 176.026 82.21 175.956 82.21Z" fill="#1B3A6C"/>
<path d="M177.388 82.21H176.923C176.854 82.21 176.798 82.2662 176.798 82.3355V82.5138C176.798 82.5832 176.854 82.6394 176.923 82.6394H177.388C177.457 82.6394 177.514 82.5832 177.514 82.5138V82.3355C177.514 82.2662 177.457 82.21 177.388 82.21Z" fill="#1B3A6C"/>
<path d="M178.819 82.21H178.355C178.285 82.21 178.229 82.2662 178.229 82.3355V82.5138C178.229 82.5832 178.285 82.6394 178.355 82.6394H178.819C178.889 82.6394 178.945 82.5832 178.945 82.5138V82.3355C178.945 82.2662 178.889 82.21 178.819 82.21Z" fill="#1B3A6C"/>
<path d="M180.251 82.21H179.786C179.717 82.21 179.661 82.2662 179.661 82.3355V82.5138C179.661 82.5832 179.717 82.6394 179.786 82.6394H180.251C180.32 82.6394 180.376 82.5832 180.376 82.5138V82.3355C180.376 82.2662 180.32 82.21 180.251 82.21Z" fill="#1B3A6C"/>
<path d="M170.66 83.0684H165.186C165.117 83.0684 165.06 83.1246 165.06 83.1939V83.3722C165.06 83.4416 165.117 83.4978 165.186 83.4978H170.66C170.73 83.4978 170.786 83.4416 170.786 83.3722V83.1939C170.786 83.1246 170.73 83.0684 170.66 83.0684Z" fill="#85AFF3"/>
<path d="M186.563 48.4835H150.016C149.978 48.4827 149.942 48.467 149.916 48.4399C149.889 48.4127 149.874 48.3762 149.874 48.3382C149.874 48.3002 149.889 48.2637 149.916 48.2366C149.942 48.2094 149.978 48.1937 150.016 48.1929H186.563C186.601 48.1937 186.637 48.2094 186.664 48.2366C186.69 48.2637 186.705 48.3002 186.705 48.3382C186.705 48.3762 186.69 48.4127 186.664 48.4399C186.637 48.467 186.601 48.4827 186.563 48.4835Z" fill="#1B3A6C"/>
<path d="M152.504 47.4504C152.974 47.4504 153.356 47.0606 153.356 46.5797C153.356 46.0988 152.974 45.709 152.504 45.709C152.034 45.709 151.652 46.0988 151.652 46.5797C151.652 47.0606 152.034 47.4504 152.504 47.4504Z" fill="#1B3A6C"/>
<path d="M155.446 47.4504C155.917 47.4504 156.298 47.0606 156.298 46.5797C156.298 46.0988 155.917 45.709 155.446 45.709C154.976 45.709 154.595 46.0988 154.595 46.5797C154.595 47.0606 154.976 47.4504 155.446 47.4504Z" fill="#1B3A6C"/>
<path d="M158.389 47.4504C158.859 47.4504 159.241 47.0606 159.241 46.5797C159.241 46.0988 158.859 45.709 158.389 45.709C157.918 45.709 157.537 46.0988 157.537 46.5797C157.537 47.0606 157.918 47.4504 158.389 47.4504Z" fill="#1B3A6C"/>
<path d="M184.792 45.9248H182.702C182.66 45.9256 182.621 45.9427 182.592 45.9722C182.563 46.0018 182.546 46.0416 182.546 46.0831C182.546 46.1245 182.563 46.1643 182.592 46.1939C182.621 46.2235 182.66 46.2405 182.702 46.2413H184.792C184.833 46.2405 184.873 46.2235 184.902 46.1939C184.931 46.1643 184.947 46.1245 184.947 46.0831C184.947 46.0416 184.931 46.0018 184.902 45.9722C184.873 45.9427 184.833 45.9256 184.792 45.9248Z" fill="#1B3A6C"/>
<path d="M184.792 46.519H182.701C182.66 46.5199 182.621 46.5369 182.592 46.5665C182.563 46.5961 182.546 46.6359 182.546 46.6773C182.546 46.7187 182.563 46.7585 182.592 46.7881C182.621 46.8177 182.66 46.8347 182.701 46.8356H184.792C184.833 46.8347 184.872 46.8177 184.901 46.7881C184.93 46.7585 184.947 46.7187 184.947 46.6773C184.947 46.6359 184.93 46.5961 184.901 46.5665C184.872 46.5369 184.833 46.5199 184.792 46.519Z" fill="#1B3A6C"/>
<path d="M184.792 47.1123H182.702C182.66 47.1131 182.621 47.1302 182.592 47.1597C182.563 47.1893 182.546 47.2291 182.546 47.2706C182.546 47.312 182.563 47.3518 182.592 47.3814C182.621 47.411 182.66 47.428 182.702 47.4288H184.792C184.833 47.428 184.873 47.411 184.902 47.3814C184.931 47.3518 184.947 47.312 184.947 47.2706C184.947 47.2291 184.931 47.1893 184.902 47.1597C184.873 47.1302 184.833 47.1131 184.792 47.1123Z" fill="#1B3A6C"/>
<path d="M171.241 56.4019H166.674C166.331 56.4019 166.053 56.6799 166.053 57.0229C166.053 57.366 166.331 57.644 166.674 57.644H171.241C171.584 57.644 171.862 57.366 171.862 57.0229C171.862 56.6799 171.584 56.4019 171.241 56.4019Z" fill="#1B3A6C"/>
<path d="M174.191 58.8862H163.724C163.381 58.8862 163.103 59.1643 163.103 59.5073C163.103 59.8503 163.381 60.1284 163.724 60.1284H174.191C174.534 60.1284 174.812 59.8503 174.812 59.5073C174.812 59.1643 174.534 58.8862 174.191 58.8862Z" fill="#1B3A6C"/>
<path d="M174.191 61.3701H163.724C163.381 61.3701 163.103 61.6482 163.103 61.9912C163.103 62.3342 163.381 62.6123 163.724 62.6123H174.191C174.534 62.6123 174.812 62.3342 174.812 61.9912C174.812 61.6482 174.534 61.3701 174.191 61.3701Z" fill="#1B3A6C"/>
<path d="M103.673 100.074L101.568 99.0666L104.46 90.2671L107.567 91.753L103.673 100.074Z" fill="#FFB6B6"/>
<path d="M117.787 98.6547C117.634 98.7506 117.481 98.8449 117.326 98.9393C117.019 99.1279 116.708 99.3135 116.397 99.4959C116.241 99.5872 116.083 99.6784 115.927 99.7681V99.7727L115.918 99.7743L115.914 99.7758L115.676 99.8346L115.335 98.9315L115.177 98.5156L114.954 97.9264L114.546 96.8486L112.396 91.1734L115.738 90.3491L115.863 90.861H115.865L115.927 91.1146L117.094 95.8496L117.333 96.8176L117.34 96.847L117.484 97.4254L117.608 97.9264L117.745 98.4862L117.787 98.6547Z" fill="#FFB6B6"/>
<path d="M137.722 78.7251C137.51 79.0654 137.293 79.404 137.075 79.7396C136.67 80.3643 136.254 80.9798 135.827 81.5859C135.827 81.5875 135.826 81.5875 135.824 81.589C135.575 81.8197 135.3 82.0205 135.005 82.1875C134.992 82.1968 134.979 82.203 134.966 82.2107C134.749 82.331 134.517 82.4239 134.276 82.4875C134.19 82.5091 134.102 82.5308 134.015 82.5524C133.703 82.6266 133.393 82.6901 133.086 82.7457C132.538 82.8431 131.997 82.9127 131.459 82.956C131.416 82.9607 131.372 82.9638 131.329 82.9669C129.116 83.1292 126.962 82.8679 124.714 82.4395C123.603 82.2292 122.47 81.9772 121.296 81.7158C120.913 81.6292 120.528 81.5442 120.138 81.4591C120.109 81.453 120.078 81.4452 120.047 81.439C119.49 81.3169 118.924 81.1963 118.344 81.0772C117.614 80.9272 116.861 80.7818 116.079 80.6442L116.134 81.7468C116.181 82.5949 116.357 83.4309 116.657 84.2256C116.991 85.2029 117.255 85.9761 116.697 87.5859L116.428 88.3653C116.568 88.7523 116.616 89.1664 116.568 89.575C116.521 89.9836 116.379 90.3757 116.154 90.7204L116.1 90.8024L118.344 96.4791L118.489 96.8472H117.341L115.927 96.8487H113.532L110.076 89.9147L109.91 89.5838V89.5668L110.267 76.2417C110.272 76.1241 110.281 76.0051 110.297 75.8875C110.36 75.3533 110.529 74.8369 110.793 74.3685C111.058 73.9002 111.413 73.4893 111.839 73.1597C112.246 72.8413 112.713 72.607 113.212 72.4706C113.71 72.3341 114.231 72.2982 114.744 72.3649L115.927 72.518L118.344 72.8304L120.047 73.0515L120.081 73.0561L125.102 73.7056L125.462 72.2365L125.529 72.2118L127.642 71.437L134.954 68.7572L134.972 68.751L135.453 68.5747L135.51 68.6675C135.527 68.6953 135.544 68.7232 135.56 68.751C136.035 69.6031 136.422 70.5016 136.715 71.4324C137.207 72.953 137.613 74.5003 137.929 76.0669C137.943 76.135 137.955 76.1968 137.966 76.2525L137.971 76.2695C137.975 76.2958 137.978 76.3128 137.98 76.3174C138.125 77.1282 138.035 77.9635 137.722 78.7251Z" fill="#2F2E41"/>
<path d="M138.03 73.814C138.007 73.7151 137.978 73.6146 137.947 73.5171C137.701 72.7793 137.415 72.0555 137.09 71.3491C136.725 70.545 136.288 69.6837 135.766 68.7512C135.514 68.2997 135.243 67.8301 134.953 67.3425C134.808 67.0981 134.657 66.8491 134.5 66.5955C134.494 66.5839 134.487 66.5725 134.48 66.5615L134.435 66.4873L127.201 67.4553L124.507 67.8156L124.346 69.1579L124.308 69.4904C124.306 69.4904 124.306 69.4904 124.308 69.4919L124.2 70.3981V70.3996L124.056 71.5965L124.043 71.595L120.046 71.077L115.926 70.5435L113.714 70.2574C113.201 70.1906 112.68 70.2264 112.181 70.3629C111.682 70.4993 111.215 70.7337 110.808 71.0522C110.383 71.3818 110.028 71.7928 109.763 72.2611C109.498 72.7295 109.329 73.2458 109.266 73.78C109.252 73.8883 109.243 73.9996 109.238 74.1094L107.151 79.0563C105.902 82.0148 105.106 85.1448 104.791 88.3408L103.26 93.235L103.478 93.2551L106.722 93.5567L107.579 93.6371L109.466 90.883C109.681 90.5691 109.885 90.2459 110.075 89.915C110.388 89.3745 110.666 88.8146 110.908 88.2387L114.989 78.5274C115.305 78.5816 115.617 78.6331 115.926 78.6821C117.357 78.914 118.73 79.1032 120.046 79.2496C124.325 79.7274 128.03 79.7645 131.328 79.3594C132.255 79.2465 133.15 79.0981 134.014 78.914C134.331 78.8475 134.644 78.7759 134.953 78.6991C135.026 78.6821 135.097 78.6651 135.168 78.6465C135.807 78.4817 136.395 78.1592 136.877 77.7086C137.359 77.258 137.721 76.6936 137.928 76.0671C138.176 75.3412 138.212 74.5595 138.03 73.814Z" fill="#2F2E41"/>
<path d="M104.346 98.6364L102.068 97.5447L101.711 97.373L101.14 98.7741L97.1565 99.6509C96.9596 99.694 96.7816 99.7991 96.6485 99.9506C96.5155 100.102 96.4344 100.292 96.4172 100.493C96.3999 100.694 96.4473 100.895 96.5525 101.067C96.6577 101.239 96.8152 101.373 97.0019 101.449L100.894 103.037L102.13 101.926L101.827 103.418L103.293 104.016L104.899 98.9024L104.346 98.6364Z" fill="#2F2E41"/>
<path d="M118.344 96.4785L118.49 96.8465H118.344V96.4785Z" fill="#2F2E41"/>
<path d="M117.551 96.9256L115.164 97.7526L114.789 97.8819L115.37 99.279L113.156 102.705C113.047 102.874 112.994 103.074 113.006 103.275C113.018 103.477 113.094 103.669 113.223 103.824C113.353 103.978 113.528 104.088 113.724 104.136C113.919 104.185 114.125 104.169 114.312 104.092L118.195 102.481L118.29 100.822L119.125 102.096L120.588 101.489L118.131 96.7251L117.551 96.9256Z" fill="#2F2E41"/>
<path d="M103.064 45.76C103.178 45.9805 103.338 46.1735 103.534 46.3254C103.729 46.4772 103.956 46.5844 104.198 46.6391C104.44 46.6939 104.69 46.6951 104.932 46.6425C105.175 46.5898 105.402 46.4848 105.599 46.3346L110.618 49.6664L110.628 46.536L105.86 43.852C105.586 43.5375 105.206 43.3345 104.792 43.2814C104.379 43.2284 103.96 43.3289 103.615 43.5641C103.27 43.7993 103.024 44.1527 102.923 44.5575C102.821 44.9622 102.872 45.3901 103.064 45.76Z" fill="#FFB6B6"/>
<path d="M106.814 47.2069L109.156 44.543L118.69 50.2031L131.329 49.0457C131.953 48.9885 132.583 49.0695 133.173 49.283C133.763 49.4966 134.298 49.8373 134.742 50.2811C135.185 50.725 135.525 51.2609 135.738 51.851C135.951 52.4411 136.032 53.0709 135.974 53.6956C135.868 54.8237 135.319 55.8639 134.448 56.5879C133.576 57.3118 132.453 57.6604 131.324 57.5572L117.09 56.2397L106.814 47.2069Z" fill="#3D5A92"/>
<path d="M136.148 47.2475L136.126 47.2199C134.348 47.0445 132.558 47.3886 130.971 48.2105C129.385 49.0325 128.071 50.297 127.189 51.8507L126.117 53.7401C122.647 57.9816 125.168 60.9067 125.319 61.3417L124.115 66.8943L124.385 68.7526L124.52 69.3046L138.266 76.4876C139.049 72.7272 138.292 69.5228 135.441 67.0749L138.2 58.4911C138.811 56.5931 138.944 54.5734 138.586 52.6116C138.228 50.6499 137.391 48.8072 136.148 47.2475Z" fill="#3D5A92"/>
<path d="M125.218 88.9497H120.808C120.566 88.9495 120.332 88.8618 120.149 88.7027C119.965 88.5436 119.846 88.3239 119.812 88.0837C119.54 86.0802 119.54 84.0491 119.812 82.0455C119.846 81.8083 119.963 81.5908 120.142 81.4321C120.322 81.2735 120.552 81.184 120.792 81.1798C122.179 80.5579 123.673 80.558 125.233 81.1797C125.378 81.1816 125.522 81.2153 125.652 81.2785C125.783 81.3416 125.899 81.4326 125.991 81.5451C126.087 81.6621 126.155 81.799 126.192 81.9459C126.228 82.0928 126.231 82.2459 126.201 82.3941C125.847 84.1569 125.847 85.9724 126.201 87.7351C126.231 87.8834 126.228 88.0365 126.192 88.1834C126.155 88.3302 126.087 88.4672 125.991 88.5842C125.897 88.6987 125.779 88.7909 125.646 88.8541C125.512 88.9173 125.366 88.95 125.218 88.9497Z" fill="#6C63FF"/>
<path d="M124.756 83.4815H121.045C121.014 83.4818 120.984 83.476 120.956 83.4644C120.927 83.4529 120.901 83.4359 120.88 83.4143C120.858 83.3927 120.841 83.3671 120.829 83.3388C120.817 83.3105 120.811 83.2802 120.811 83.2495C120.811 83.2189 120.817 83.1886 120.829 83.1603C120.841 83.132 120.858 83.1064 120.88 83.0848C120.901 83.0632 120.927 83.0462 120.956 83.0346C120.984 83.0231 121.014 83.0173 121.045 83.0176H124.756C124.787 83.0173 124.817 83.0231 124.846 83.0346C124.874 83.0462 124.9 83.0632 124.922 83.0848C124.943 83.1064 124.961 83.132 124.972 83.1603C124.984 83.1886 124.99 83.2189 124.99 83.2495C124.99 83.2802 124.984 83.3105 124.972 83.3388C124.961 83.3671 124.943 83.3927 124.922 83.4143C124.9 83.4359 124.874 83.4529 124.846 83.4644C124.817 83.476 124.787 83.4818 124.756 83.4815Z" fill="white"/>
<path d="M124.756 85.3374H121.045C121.014 85.3377 120.984 85.3319 120.956 85.3204C120.927 85.3089 120.901 85.2918 120.88 85.2702C120.858 85.2487 120.841 85.223 120.829 85.1947C120.817 85.1665 120.811 85.1361 120.811 85.1055C120.811 85.0749 120.817 85.0445 120.829 85.0163C120.841 84.988 120.858 84.9623 120.88 84.9408C120.901 84.9192 120.927 84.9021 120.956 84.8906C120.984 84.8791 121.014 84.8733 121.045 84.8735H124.756C124.787 84.8733 124.817 84.8791 124.846 84.8906C124.874 84.9021 124.9 84.9192 124.922 84.9408C124.943 84.9623 124.961 84.988 124.972 85.0163C124.984 85.0445 124.99 85.0749 124.99 85.1055C124.99 85.1361 124.984 85.1665 124.972 85.1947C124.961 85.223 124.943 85.2487 124.922 85.2702C124.9 85.2918 124.874 85.3089 124.846 85.3204C124.817 85.3319 124.787 85.3377 124.756 85.3374Z" fill="white"/>
<path d="M124.756 87.1934H121.045C121.014 87.1937 120.984 87.1879 120.955 87.1764C120.927 87.1649 120.901 87.1478 120.88 87.1263C120.858 87.1047 120.84 87.079 120.829 87.0507C120.817 87.0224 120.811 86.9921 120.811 86.9615C120.811 86.9308 120.817 86.9005 120.829 86.8722C120.84 86.8439 120.858 86.8182 120.88 86.7967C120.901 86.7751 120.927 86.7581 120.955 86.7465C120.984 86.735 121.014 86.7292 121.045 86.7295H124.756C124.787 86.7292 124.817 86.735 124.846 86.7465C124.874 86.7581 124.9 86.7751 124.922 86.7967C124.943 86.8182 124.961 86.8439 124.973 86.8722C124.984 86.9005 124.99 86.9308 124.99 86.9615C124.99 86.9921 124.984 87.0224 124.973 87.0507C124.961 87.079 124.943 87.1047 124.922 87.1263C124.9 87.1478 124.874 87.1649 124.846 87.1764C124.817 87.1879 124.787 87.1937 124.756 87.1934Z" fill="white"/>
<path d="M103.873 47.288H99.4635C99.221 47.2878 98.9867 47.2002 98.8036 47.0411C98.6205 46.882 98.501 46.6622 98.4669 46.4221C98.1946 44.4186 98.1946 42.3874 98.4669 40.3839C98.5006 40.1467 98.6177 39.9292 98.7972 39.7705C98.9768 39.6118 99.207 39.5224 99.4466 39.5181C100.834 38.8963 102.328 38.8963 103.888 39.5181C104.033 39.52 104.177 39.5537 104.307 39.6168C104.438 39.6799 104.554 39.7709 104.646 39.8834C104.742 40.0005 104.81 40.1374 104.847 40.2843C104.883 40.4311 104.886 40.5843 104.856 40.7325C104.502 42.4952 104.502 44.3108 104.856 46.0735C104.886 46.2217 104.883 46.3749 104.847 46.5218C104.81 46.6686 104.742 46.8055 104.646 46.9226C104.552 47.0371 104.434 47.1293 104.301 47.1925C104.167 47.2557 104.021 47.2883 103.873 47.288Z" fill="white"/>
<path d="M103.411 41.8204H99.6998C99.6692 41.8206 99.6388 41.8148 99.6104 41.8033C99.5821 41.7918 99.5562 41.7747 99.5345 41.7532C99.5127 41.7316 99.4955 41.7059 99.4837 41.6776C99.4719 41.6494 99.4658 41.619 99.4658 41.5884C99.4658 41.5578 99.4719 41.5274 99.4837 41.4992C99.4955 41.4709 99.5127 41.4452 99.5345 41.4237C99.5562 41.4021 99.5821 41.3851 99.6104 41.3735C99.6388 41.362 99.6692 41.3562 99.6998 41.3565H103.411C103.442 41.3562 103.472 41.362 103.501 41.3735C103.529 41.3851 103.555 41.4021 103.576 41.4237C103.598 41.4452 103.616 41.4709 103.627 41.4992C103.639 41.5274 103.645 41.5578 103.645 41.5884C103.645 41.619 103.639 41.6494 103.627 41.6776C103.616 41.7059 103.598 41.7316 103.576 41.7532C103.555 41.7747 103.529 41.7918 103.501 41.8033C103.472 41.8148 103.442 41.8206 103.411 41.8204Z" fill="#538FF0"/>
<path d="M103.411 43.6758H99.6998C99.6692 43.6761 99.6388 43.6703 99.6104 43.6588C99.5821 43.6472 99.5562 43.6302 99.5345 43.6086C99.5127 43.5871 99.4955 43.5614 99.4837 43.5331C99.4719 43.5048 99.4658 43.4745 99.4658 43.4439C99.4658 43.4132 99.4719 43.3829 99.4837 43.3546C99.4955 43.3264 99.5127 43.3007 99.5345 43.2791C99.5562 43.2576 99.5821 43.2405 99.6104 43.229C99.6388 43.2175 99.6692 43.2117 99.6998 43.2119H103.411C103.442 43.2117 103.472 43.2175 103.501 43.229C103.529 43.2405 103.555 43.2576 103.576 43.2791C103.598 43.3007 103.616 43.3264 103.627 43.3546C103.639 43.3829 103.645 43.4132 103.645 43.4439C103.645 43.4745 103.639 43.5048 103.627 43.5331C103.616 43.5614 103.598 43.5871 103.576 43.6086C103.555 43.6302 103.529 43.6472 103.501 43.6588C103.472 43.6703 103.442 43.6761 103.411 43.6758Z" fill="#538FF0"/>
<path d="M103.411 45.5318H99.7C99.6693 45.5321 99.6389 45.5263 99.6105 45.5148C99.5821 45.5032 99.5563 45.4862 99.5345 45.4646C99.5128 45.4431 99.4955 45.4174 99.4837 45.3891C99.4719 45.3608 99.4658 45.3305 99.4658 45.2998C99.4658 45.2692 99.4719 45.2389 99.4837 45.2106C99.4955 45.1823 99.5128 45.1566 99.5345 45.135C99.5563 45.1135 99.5821 45.0964 99.6105 45.0849C99.6389 45.0734 99.6693 45.0676 99.7 45.0679H103.411C103.442 45.0676 103.472 45.0734 103.501 45.0849C103.529 45.0964 103.555 45.1135 103.577 45.135C103.598 45.1566 103.616 45.1823 103.628 45.2106C103.639 45.2389 103.645 45.2692 103.645 45.2998C103.645 45.3305 103.639 45.3608 103.628 45.3891C103.616 45.4174 103.598 45.4431 103.577 45.4646C103.555 45.4862 103.529 45.5032 103.501 45.5148C103.472 45.5263 103.442 45.5321 103.411 45.5318Z" fill="#538FF0"/>
<path d="M126.51 83.3128C126.723 83.1867 126.907 83.0155 127.047 82.811C127.187 82.6065 127.28 82.3738 127.32 82.1293C127.361 81.8848 127.347 81.6344 127.28 81.3958C127.213 81.1571 127.095 80.9361 126.933 80.7482L129.961 75.5405L126.836 75.7167L124.44 80.6349C124.142 80.9273 123.962 81.3187 123.933 81.7349C123.905 82.1512 124.03 82.5634 124.285 82.8935C124.541 83.2236 124.908 83.4486 125.318 83.5258C125.728 83.6031 126.152 83.5273 126.51 83.3128Z" fill="#FFB6B6"/>
<path d="M127.732 79.4842L124.934 77.3048L130.018 67.4515L128.113 54.9036C128.019 54.2834 128.063 53.65 128.241 53.0485C128.419 52.447 128.727 51.8921 129.144 51.4231C129.561 50.9542 130.076 50.5828 130.652 50.3352C131.228 50.0876 131.852 49.97 132.479 49.9906C133.612 50.0291 134.683 50.5154 135.457 51.3425C136.231 52.1697 136.646 53.2703 136.61 54.4029L136.139 68.6903L127.732 79.4842Z" fill="#3D5A92"/>
<path d="M132.979 45.5873C135.942 45.5873 138.343 43.1859 138.343 40.2236C138.343 37.2613 135.942 34.8599 132.979 34.8599C130.017 34.8599 127.615 37.2613 127.615 40.2236C127.615 43.1859 130.017 45.5873 132.979 45.5873Z" fill="#FFB6B6"/>
<path d="M150.193 48.1163C149.574 48.9935 148.671 49.6295 147.636 49.9165C147.222 50.0397 146.795 50.1123 146.363 50.1327C146.31 49.6448 146.183 49.1679 145.985 48.7186C146.005 49.1968 145.939 49.6748 145.789 50.1294C145.141 50.0927 144.507 49.923 143.928 49.6308C143.359 49.3445 142.864 48.9294 142.483 48.4185C142.102 47.9077 141.846 47.3151 141.734 46.6878C141.507 45.2207 142.172 43.7801 142.412 42.3153C142.654 40.8504 142.2 38.995 140.766 38.61C139.674 38.3166 139.797 38.4435 138.889 39.1175C139.833 40.5137 136.345 45.6305 134.918 45.1843C134.111 44.9321 133.594 44.1916 133.428 44.1916C132.306 46.1241 134.418 49.3804 132.289 50.0566L132.465 49.8812C133.75 48.3005 131.064 44.9549 132.349 43.3742C132.707 42.9319 133.089 42.4079 132.983 41.8486C132.883 41.317 132.039 41.0357 131.792 41.4725C132.236 40.4544 131.58 39.0954 130.494 38.8339C129.528 38.6012 129.546 38.888 128.577 39.0126C128.514 38.5941 128.396 38.1857 128.226 37.7982C128.243 38.2158 128.195 38.6335 128.081 39.0358C127.739 39.0291 127.409 38.9097 127.141 38.6961C126.352 38.0596 126.511 36.7227 127.216 35.9935C127.922 35.2644 128.971 35.0019 129.972 34.832C130.263 32.8067 135.851 32.5954 136.591 34.6191C136.907 33.1079 138.799 32.3236 140.269 32.7924C141.739 33.2613 142.76 34.6346 143.297 36.0818C143.834 37.5279 143.984 39.0844 144.315 40.5912C144.646 42.0979 145.205 43.6323 146.357 44.6593C147.508 45.6851 149.385 46.0249 150.598 45.0718C150.775 45.5754 150.83 46.1135 150.759 46.6424C150.689 47.1714 150.495 47.6763 150.193 48.1163Z" fill="#2F2E41"/>
<path d="M200.515 60.3565L199.764 64.124C199.708 64.4121 199.648 64.7052 199.584 64.9958C198.956 64.8657 198.306 64.9021 197.696 65.1013C198.18 65.792 198.613 66.5165 198.993 67.2692C198.519 68.7273 197.825 70.0749 196.663 71.0496C195.886 71.6861 194.959 72.1118 193.97 72.2856C192.982 72.4595 191.965 72.3757 191.018 72.0423L191.051 71.8931C189.801 69.468 190.48 66.4103 192.034 64.1703C192.826 63.0653 193.765 62.0729 194.824 61.2206C195.873 60.3462 197.007 59.5618 198.131 58.7878C198.384 58.6142 198.682 58.5198 198.988 58.5167C199.295 58.5136 199.595 58.6018 199.851 58.7702C200.107 58.9386 200.307 59.1795 200.425 59.462C200.543 59.7446 200.575 60.056 200.515 60.3565Z" fill="#1B3A6C"/>
<path d="M191.285 81.1072C190.969 78.8048 190.644 76.473 190.866 74.1459C191.063 72.0793 191.693 70.0608 192.977 68.4056C193.658 67.5288 194.487 66.7775 195.427 66.1855C195.672 66.0312 195.897 66.4193 195.654 66.5731C194.028 67.6004 192.771 69.1175 192.063 70.9056C191.281 72.894 191.155 75.0617 191.291 77.1738C191.373 78.4512 191.545 79.7198 191.719 80.9876C191.733 81.045 191.725 81.1056 191.696 81.1569C191.667 81.2082 191.619 81.2465 191.562 81.2638C191.505 81.2793 191.444 81.2715 191.392 81.2422C191.34 81.2128 191.302 81.1642 191.286 81.107L191.285 81.1072Z" fill="#F2F2F2"/>
</svg>
