<svg width="199" height="139" viewBox="0 0 199 139" fill="none" xmlns="http://www.w3.org/2000/svg">
<path d="M51.4433 117.516C50.8298 122.327 48.5742 126.728 46.1679 130.968C46.0883 131.112 46.0065 131.254 45.9226 131.399H20.9128C20.407 131.267 19.9077 131.123 19.4105 130.968C16.5857 130.107 13.9189 128.794 11.5137 127.079C2.31262 120.444 -1.22796 107.906 0.371246 96.6715C1.36564 89.6916 4.42616 82.5651 10.3859 78.8059C13.5326 76.8175 17.5745 76.1712 21.1969 76.9101C21.2917 76.9274 21.3864 76.9489 21.4832 76.9683C24.5997 77.6706 27.3761 79.4156 28.956 82.2269C31.797 87.2787 30.1053 93.537 28.7085 99.1597C27.3159 104.782 26.5604 111.512 30.6025 115.659C29.268 111.728 30.5853 107.038 33.7728 104.38C36.1812 102.374 39.5345 101.622 42.593 102.245C42.8857 102.307 43.1741 102.378 43.4582 102.464C44.1448 102.666 44.8068 102.943 45.4318 103.292C50.1992 105.956 52.1298 112.094 51.4433 117.516Z" fill="#4C77BD"/>
<path d="M36.6151 130.968C37.308 131.129 38.0032 131.272 38.7027 131.399H34.9212C34.4261 131.265 33.9332 131.123 33.4447 130.968C32.3707 130.632 31.3132 130.246 30.2722 129.811C26.0967 128.057 22.2505 125.425 19.3406 121.922C17.9175 120.225 16.7554 118.325 15.8926 116.284C14.9571 113.978 14.3626 111.547 14.1278 109.069C13.6005 103.985 14.1385 98.7612 15.1436 93.7675C16.1809 88.5919 17.8553 83.5649 20.1284 78.8017C20.4018 78.2308 20.6844 77.6635 20.9764 77.0998C20.9965 77.0534 21.0269 77.0122 21.0653 76.9793C21.1037 76.9464 21.1491 76.9228 21.198 76.9102C21.2974 76.8909 21.4003 76.9118 21.4843 76.9683C21.5851 77.0262 21.6599 77.1206 21.6931 77.2321C21.7263 77.3435 21.7156 77.4635 21.663 77.5672C19.3193 82.1421 17.5426 86.9863 16.3726 91.9924C15.2276 96.8762 14.5776 101.986 14.7993 107.008C15.0102 111.7 16.2349 116.314 19.0135 120.151C21.551 123.654 25.055 126.416 28.9313 128.297C31.3848 129.472 33.9622 130.368 36.6151 130.968Z" fill="white"/>
<path d="M44.912 131.399H43.7971C43.6722 131.257 43.5517 131.112 43.4334 130.968C40.8939 127.88 39.1735 124.2 38.4314 120.27C37.5301 115.365 38.2312 110.3 40.4308 105.825C41.0445 104.57 41.7676 103.372 42.5918 102.245C42.8844 102.307 43.1729 102.378 43.457 102.465C41.2893 105.339 39.8313 108.686 39.2019 112.232C38.6404 115.555 38.8271 118.961 39.7483 122.203C40.6695 125.444 42.302 128.439 44.5268 130.968C44.6515 131.112 44.7807 131.257 44.912 131.399Z" fill="white"/>
<path d="M162.937 122.199C163.367 125.571 164.948 128.656 166.635 131.628C166.691 131.73 166.748 131.829 166.807 131.93H184.339C184.694 131.838 185.044 131.737 185.393 131.628C187.373 131.025 189.242 130.104 190.929 128.902C197.379 124.251 199.861 115.461 198.74 107.586C198.043 102.692 195.897 97.6966 191.719 95.0612C189.513 93.6673 186.68 93.2142 184.14 93.7322C184.074 93.7443 184.007 93.7594 183.94 93.773C181.755 94.2654 179.808 95.4886 178.701 97.4595C176.709 101.001 177.895 105.388 178.874 109.33C179.851 113.272 180.38 117.99 177.547 120.897C178.482 118.141 177.559 114.853 175.324 112.989C173.636 111.583 171.285 111.056 169.141 111.493C168.936 111.536 168.734 111.586 168.534 111.647C168.053 111.788 167.589 111.982 167.151 112.226C163.809 114.095 162.455 118.397 162.937 122.199Z" fill="#4C77BD"/>
<path d="M173.332 131.628C172.846 131.742 172.358 131.841 171.868 131.93H174.519C174.866 131.837 175.212 131.737 175.554 131.628C176.307 131.393 177.048 131.122 177.778 130.817C180.705 129.588 183.402 127.743 185.442 125.287C186.439 124.097 187.254 122.765 187.859 121.335C188.514 119.718 188.931 118.014 189.096 116.277C189.466 112.713 189.088 109.051 188.384 105.55C187.657 101.922 186.483 98.3974 184.889 95.0583C184.698 94.6581 184.499 94.2604 184.295 93.8652C184.281 93.8326 184.259 93.8038 184.232 93.7807C184.206 93.7577 184.174 93.7411 184.139 93.7323C184.07 93.7188 183.998 93.7334 183.939 93.7731C183.868 93.8136 183.816 93.8798 183.792 93.9579C183.769 94.0361 183.777 94.1202 183.813 94.1929C185.457 97.4 186.702 100.796 187.522 104.305C188.325 107.729 188.781 111.311 188.625 114.832C188.477 118.121 187.619 121.356 185.671 124.046C183.892 126.501 181.436 128.437 178.718 129.756C176.998 130.579 175.191 131.208 173.332 131.628Z" fill="white"/>
<path d="M167.515 131.93H168.296C168.384 131.831 168.468 131.73 168.551 131.628C170.332 129.463 171.538 126.884 172.058 124.129C172.69 120.69 172.198 117.14 170.656 114.003C170.226 113.123 169.719 112.283 169.141 111.493C168.936 111.536 168.734 111.586 168.535 111.647C170.054 113.662 171.077 116.008 171.518 118.494C171.911 120.823 171.781 123.211 171.135 125.484C170.489 127.756 169.345 129.855 167.785 131.628C167.697 131.73 167.607 131.831 167.515 131.93Z" fill="white"/>
<path opacity="0.2" d="M107.979 8.93884C107.979 8.93884 70.4571 7.12458 39.9183 27.9327C9.37983 48.7409 24.8968 121.591 35.3299 126.189C45.7631 130.786 85.8718 138.765 116.834 125.225C147.797 111.686 157.956 62.6673 153.498 48.5872C149.04 34.5071 140.383 12.9396 107.979 8.93884Z" fill="#4C77BD"/>
<g opacity="0.3">
<path d="M89.5725 88.8312C89.3876 87.715 87.9597 85.6195 87.9586 85.6178C87.9437 85.5961 86.8631 86.9786 86.805 87.0737C86.1316 88.1738 85.4778 90.6956 86.4193 91.791C87.0976 92.5801 88.2754 92.4991 88.9631 91.7753C89.6656 91.0361 89.7296 89.7817 89.5725 88.8312Z" fill="black"/>
<path d="M95.2563 84.0991C94.8023 83.1119 93.0202 81.5712 92.8778 81.4492C93.7457 80.4598 94.5562 79.3743 95.3158 78.2306C95.7509 77.5774 96.1685 76.9057 96.579 76.2271C96.438 76.5646 96.3143 76.8679 96.3011 76.912C95.9423 78.1513 95.9776 80.756 97.175 81.5635C98.0379 82.1459 99.1521 81.7566 99.6243 80.8769C100.106 79.9788 99.837 78.7513 99.4345 77.8763C99.0262 76.9881 97.5329 75.6441 97.1331 75.2937C97.2879 75.0316 97.4453 74.7718 97.5987 74.509C98.3363 73.2491 99.0669 71.9889 99.8216 70.7744C100.087 70.3462 100.365 69.9346 100.641 69.5214C100.515 69.8214 100.413 70.0754 100.401 70.1159C100.042 71.3546 100.078 73.9596 101.275 74.7674C102.138 75.3496 103.252 74.9606 103.724 74.0808C104.206 73.1821 103.937 71.9553 103.534 71.0802C103.145 70.2325 101.777 68.9797 101.304 68.5612C101.6 68.1465 101.895 67.7311 102.2 67.3426C102.414 67.0822 102.602 66.8164 102.832 66.567C103.054 66.3149 103.274 66.0659 103.492 65.8187C103.929 65.3586 104.377 64.8809 104.815 64.4428C105.117 64.1356 105.41 63.8485 105.705 63.5584C105.436 63.9816 104.926 64.8208 104.891 64.8958C104.349 66.0659 103.989 68.6458 105.05 69.6261C105.815 70.3319 106.976 70.1162 107.575 69.318C108.188 68.5031 108.108 67.2495 107.842 66.3235C107.55 65.3038 106.09 63.5741 105.906 63.3595C106.395 62.8812 106.876 62.4208 107.337 61.9935C107.677 61.6764 108.006 61.375 108.324 61.0879L107.835 60.3335C107.486 60.6611 107.123 61.0069 106.747 61.3736C106.248 61.8571 105.724 62.3839 105.192 62.9297C105.043 62.8245 104.197 62.2321 103.337 61.7783C103.606 60.7223 103.361 58.6231 103.327 58.3526C103.999 58.2237 104.654 58.1049 105.274 58.0027C105.602 57.9479 105.914 57.8991 106.224 57.8509L105.706 57.0533C105.513 57.0883 105.324 57.1219 105.124 57.1599C104.441 57.2877 103.714 57.4384 102.968 57.5999C102.868 57.3412 102.036 55.2305 101.276 54.4888C100.587 53.8163 99.521 53.1509 98.5126 53.3041C97.5257 53.4537 96.7854 54.3736 97.0447 55.3817C97.4042 56.7805 99.8464 57.6872 101.134 57.7644C101.21 57.7691 102.04 57.7263 102.562 57.6908C102.258 57.7583 101.962 57.8208 101.65 57.8941C101.031 58.0349 100.418 58.1939 99.7579 58.3625C99.4419 58.4551 99.1226 58.5488 98.8002 58.643C98.4787 58.73 98.1497 58.8626 97.8211 58.9719C97.0637 59.2414 96.3096 59.5514 95.5569 59.8803C95.4321 59.3392 94.9612 57.423 94.3785 56.6499C93.7986 55.8807 92.8464 55.0619 91.8267 55.0602C90.8282 55.0586 89.9573 55.8559 90.0607 56.8913C90.2042 58.3286 92.4813 59.5943 93.7421 59.866C93.8206 59.8831 94.7474 59.9759 95.2571 60.0172C94.8061 60.2186 94.3551 60.4173 93.9055 60.6358C92.6072 61.2664 91.3132 61.9453 90.0188 62.6164C89.6226 62.8225 89.225 63.0228 88.828 63.2248C88.7859 63.0316 88.2753 60.7421 87.6229 59.8765C87.0432 59.1072 86.0908 58.2881 85.0708 58.2867C84.0727 58.2851 83.2015 59.0822 83.3051 60.1178C83.4486 61.5552 85.7255 62.8209 86.9862 63.0925C87.0813 63.1129 88.4147 63.2449 88.7558 63.262C87.8811 63.7069 87.0055 64.142 86.125 64.5357C84.9108 65.0809 83.6889 65.5485 82.4719 65.9141C82.4526 65.8242 81.9305 63.432 81.2624 62.5454C80.6825 61.7761 79.73 60.957 78.7103 60.9556C77.7121 60.954 76.841 61.751 76.9443 62.7867C77.0878 64.2241 79.3647 65.4898 80.6257 65.7614C80.7246 65.7826 82.1595 65.924 82.4215 65.9309C82.349 65.9524 82.2763 65.9827 82.2038 66.0033C80.8996 66.3772 79.5892 66.5756 78.3533 66.7009C77.6353 66.7753 76.9446 66.8062 76.2723 66.8213C76.2208 66.3659 75.9621 64.2869 75.4491 63.4223C74.9573 62.5938 74.1004 61.6753 73.0871 61.5621C72.095 61.4507 71.1417 62.1472 71.1307 63.1879C71.1155 64.6324 73.2395 66.1405 74.463 66.5488C74.5294 66.5712 75.2309 66.7219 75.743 66.8244C75.4394 66.8268 75.1262 66.8346 74.8355 66.8307C73.7434 66.8194 72.7438 66.7414 71.8589 66.6657C71.3563 66.6183 70.9025 66.5657 70.4785 66.5119C70.195 66.0915 69.0302 64.4109 68.1918 63.8896C67.3735 63.3813 66.1899 62.9606 65.2383 63.3267C64.3065 63.6854 63.7813 64.7431 64.2514 65.6713C64.9032 66.9602 67.4834 67.3203 68.7577 67.1189C68.8679 67.1012 70.5584 66.6312 70.5438 66.6092C70.5438 66.6092 70.5303 66.5885 70.527 66.5836C70.934 66.6439 71.3706 66.7031 71.8495 66.7585C72.7344 66.8541 73.7348 66.9538 74.8308 66.9888C75.9265 67.0269 77.1176 67.0373 78.3734 66.9351C79.6322 66.8343 80.9511 66.6637 82.2876 66.3127C82.3028 66.3089 82.3179 66.3025 82.3331 66.2987C81.9741 66.5227 80.9913 67.1831 80.9216 67.2423C79.9388 68.0779 78.531 70.2697 79.0842 71.6045C79.4829 72.5655 80.6271 72.8562 81.5062 72.3828C82.4039 71.8993 82.856 70.7276 83.0031 69.7754C83.169 68.7017 82.5323 66.4334 82.4813 66.2529C83.7509 65.9069 85.0257 65.4484 86.29 64.9137C87.0135 64.6084 87.7323 64.2789 88.4492 63.9389C88.145 64.1428 87.8745 64.3271 87.8395 64.3571C86.8567 65.1928 85.4491 67.3845 86.0021 68.7191C86.4005 69.6806 87.545 69.9707 88.4238 69.4974C89.3217 69.0141 89.7736 67.8421 89.921 66.8899C90.0703 65.924 89.5664 63.9791 89.4262 63.4664C89.6997 63.3331 89.9744 63.203 90.2475 63.0688C91.5578 62.425 92.8624 61.7767 94.1617 61.1799C94.6193 60.9691 95.0778 60.779 95.5359 60.5867C95.2662 60.768 95.0403 60.9229 95.0086 60.9499C94.0259 61.7855 92.618 63.9772 93.1709 65.3115C93.5696 66.2731 94.7138 66.5634 95.5933 66.0901C96.4906 65.6069 96.9427 64.4346 97.0898 63.4827C97.2326 62.5608 96.7835 60.7614 96.6195 60.1514C97.0945 59.9688 97.5701 59.785 98.0387 59.6293C98.3611 59.5304 98.6644 59.4128 98.9939 59.3312C99.3179 59.2439 99.6395 59.1571 99.9571 59.0714C100.576 58.929 101.213 58.7777 101.82 58.6535C102.241 58.5639 102.644 58.4865 103.05 58.4074C102.592 58.6118 101.704 59.0304 101.633 59.0736C100.904 59.5235 99.9012 60.5371 99.4097 61.5783C99.3014 61.6442 99.1997 61.7188 99.1055 61.8037C98.3649 62.4732 98.255 63.6488 99.0273 64.3467C100.099 65.3151 102.636 64.7236 103.752 64.0778C103.818 64.0397 104.487 63.5466 104.903 63.2284C104.687 63.4529 104.474 63.6678 104.254 63.9014C103.816 64.3604 103.392 64.8313 102.934 65.336C102.722 65.5876 102.508 65.8416 102.29 66.0987C102.07 66.3485 101.869 66.6406 101.655 66.9131C101.173 67.5556 100.715 68.2303 100.268 68.9199C99.8654 68.537 98.4156 67.1988 97.5034 66.8756C96.5953 66.5535 95.3492 66.3962 94.4978 66.9572C93.6641 67.5068 93.3773 68.6521 94.0347 69.4585C94.9472 70.5782 97.5447 70.3782 98.7462 69.909C98.8212 69.8795 99.6452 69.4461 100.094 69.1993C99.8287 69.6159 99.562 70.0305 99.3077 70.4611C98.5727 71.7032 97.8676 72.9832 97.1587 74.2572C96.9416 74.6476 96.7209 75.0336 96.5014 75.4212C96.3595 75.2835 94.6706 73.6555 93.649 73.2931C92.7411 72.9713 91.4947 72.8138 90.6434 73.375C89.8099 73.9246 89.5229 75.0697 90.1805 75.8761C91.0933 76.9961 93.6906 76.7957 94.8921 76.3265C94.9824 76.291 96.1677 75.6656 96.4611 75.4917C95.977 76.345 95.4869 77.1911 94.9695 78.0055C94.2573 79.1299 93.4966 80.1942 92.6833 81.1704C92.6172 81.1062 90.8621 79.3991 89.8157 79.028C88.9076 78.7062 87.6615 78.5486 86.8102 79.1098C85.9765 79.6592 85.6899 80.8045 86.3473 81.6112C87.2598 82.7309 89.8573 82.5306 91.0589 82.0614C91.1531 82.0247 92.4279 81.3508 92.6499 81.2122C92.6017 81.2701 92.5579 81.3357 92.5089 81.393C91.627 82.4242 90.6434 83.3125 89.6818 84.0991C89.1242 84.5572 88.5652 84.9636 88.0128 85.3471C87.7185 84.9959 86.3558 83.4042 85.451 82.9664C84.5835 82.5468 83.3624 82.2531 82.4546 82.7176C81.5658 83.1725 81.1547 84.2793 81.7198 85.1529C82.5039 86.366 85.1078 86.4522 86.3534 86.118C86.4211 86.0998 87.0895 85.8389 87.5733 85.6417C87.3212 85.8108 87.0645 85.9905 86.8198 86.1478C85.9026 86.7407 85.0259 87.2275 84.2462 87.6521C83.8007 87.8901 83.3932 88.0962 83.01 88.2849C82.5413 88.091 80.6428 87.3317 79.6559 87.3595C78.6927 87.3868 77.4738 87.689 76.882 88.5194C76.3026 89.3327 76.4481 90.5042 77.3518 91.0194C78.607 91.7347 80.9574 90.6114 81.909 89.7408C81.9909 89.6653 83.1417 88.3406 83.1177 88.3301C83.1177 88.3301 83.0949 88.3208 83.0893 88.3186C83.4618 88.1442 83.8591 87.9527 84.2889 87.7347C85.0797 87.3264 85.969 86.8578 86.9027 86.2822C87.8373 85.7097 88.8368 85.0612 89.8279 84.2831C90.8219 83.5045 91.8284 82.635 92.7491 81.6048C92.7596 81.5933 92.769 81.5795 92.7792 81.5679C92.6034 81.9528 92.1482 83.0458 92.1226 83.1337C91.7639 84.3727 91.7989 86.9774 92.9963 87.7852C93.8592 88.367 94.9739 87.9783 95.4459 87.0983C95.9283 86.2007 95.6586 84.9741 95.2563 84.0991Z" fill="black"/>
<path d="M76.0781 67.017C76.0775 66.9906 74.4134 67.5476 74.3126 67.5948C73.1441 68.1411 71.2075 69.8837 71.3888 71.317C71.5191 72.3493 72.5463 72.9315 73.5191 72.7069C74.5126 72.478 75.2581 71.4671 75.6513 70.5874C76.1133 69.5548 76.0778 67.0189 76.0781 67.017Z" fill="black"/>
</g>
<g opacity="0.3">
<path d="M148.695 8.76232C149.393 9.65278 151.652 10.8058 151.653 10.8069C151.677 10.8188 151.961 9.08743 151.967 8.97612C152.03 7.68782 151.393 5.16163 150.042 4.65221C149.068 4.2855 148.073 4.92166 147.817 5.88679C147.556 6.87257 148.101 8.00383 148.695 8.76232Z" fill="black"/>
<path d="M145.981 15.642C146.853 16.2903 149.156 16.7868 149.339 16.8253C149.053 18.1098 148.862 19.451 148.745 20.8189C148.677 21.6008 148.633 22.3907 148.598 23.1831C148.56 22.8191 148.523 22.4938 148.513 22.4488C148.233 21.1895 146.952 18.9212 145.514 18.7873C144.478 18.6903 143.687 19.5667 143.695 20.5652C143.703 21.5846 144.528 22.532 145.301 23.1065C146.086 23.69 148.041 24.1523 148.56 24.2678C148.55 24.572 148.536 24.8756 148.528 25.1795C148.485 26.6389 148.449 28.0952 148.37 29.5227C148.342 30.0257 148.296 30.52 148.252 31.0151C148.218 30.6917 148.187 30.4197 148.177 30.3784C147.898 29.1193 146.617 26.851 145.179 26.7168C144.142 26.6201 143.351 27.4963 143.359 28.4947C143.368 29.5144 144.193 30.4616 144.966 31.0363C145.715 31.5931 147.515 32.0362 148.131 32.1764C148.071 32.682 148.012 33.1881 147.931 33.6752C147.868 34.0066 147.83 34.3298 147.748 34.6588C147.674 34.9866 147.601 35.3109 147.528 35.6322C147.366 36.2455 147.202 36.8797 147.028 37.474C146.91 37.8884 146.79 38.2812 146.671 38.6772C146.704 38.1765 146.749 37.1954 146.743 37.1131C146.658 35.8261 145.735 33.39 144.334 33.0396C143.324 32.7872 142.409 33.5333 142.266 34.5216C142.12 35.5305 142.792 36.5918 143.469 37.277C144.215 38.0313 146.326 38.848 146.591 38.9483C146.391 39.6026 146.19 40.2374 145.991 40.8333C145.844 41.275 145.7 41.6973 145.559 42.1018L146.351 42.5286C146.499 42.0737 146.651 41.5965 146.806 41.0942C147.012 40.4305 147.218 39.7172 147.423 38.9824C147.604 39.0036 148.631 39.1171 149.603 39.1025C149.874 40.158 151.097 41.8819 151.256 42.1032C150.728 42.539 150.21 42.9575 149.715 43.3446C149.454 43.5502 149.204 43.7425 148.955 43.9334L149.792 44.3847C149.945 44.2615 150.094 44.1411 150.251 44.0122C150.789 43.5722 151.355 43.0909 151.932 42.5917C152.144 42.7705 153.886 44.2232 154.909 44.5092C155.837 44.7682 157.091 44.8404 157.903 44.2224C158.697 43.6177 158.905 42.4553 158.193 41.6951C157.207 40.6405 154.629 41.0171 153.462 41.5673C153.393 41.5995 152.686 42.0351 152.244 42.3172C152.479 42.112 152.708 41.9153 152.947 41.7009C153.422 41.2805 153.884 40.8468 154.382 40.382C154.615 40.1492 154.85 39.9139 155.088 39.6764C155.328 39.4456 155.553 39.1714 155.789 38.918C156.324 38.3182 156.837 37.6842 157.34 37.0343C157.709 37.4492 159.042 38.9045 159.924 39.3028C160.802 39.6996 162.03 39.961 162.925 39.4728C163.802 38.9951 164.184 37.8776 163.596 37.0188C162.78 35.827 160.175 35.8088 158.939 36.1758C158.862 36.1984 158.004 36.5618 157.537 36.77C157.836 36.3769 158.136 35.9862 158.426 35.5787C159.262 34.4026 160.072 33.1859 160.886 31.9758C161.134 31.605 161.387 31.2386 161.638 30.8707C161.768 31.0201 163.314 32.7836 164.302 33.23C165.18 33.6267 166.409 33.8882 167.304 33.4C168.181 32.9222 168.562 31.805 167.975 30.9462C167.159 29.7541 164.554 29.7362 163.318 30.1029C163.225 30.1304 161.991 30.6547 161.684 30.8032C162.238 29.9932 162.797 29.1915 163.381 28.4231C164.185 27.3621 165.032 26.3655 165.924 25.4605C165.984 25.5302 167.59 27.3781 168.602 27.8354C169.48 28.2322 170.709 28.4936 171.604 28.0054C172.481 27.5277 172.862 26.4105 172.274 25.5514C171.459 24.3593 168.854 24.3413 167.617 24.7081C167.52 24.737 166.194 25.3015 165.96 25.4211C166.013 25.3676 166.063 25.3059 166.116 25.253C167.081 24.2992 168.136 23.4963 169.16 22.7932C169.754 22.3833 170.345 22.0248 170.928 21.689C171.192 22.064 172.416 23.7639 173.281 24.2761C174.11 24.7667 175.303 25.1616 176.246 24.7747C177.17 24.3962 177.672 23.3277 177.182 22.4094C176.502 21.1349 173.915 20.831 172.646 21.06C172.577 21.0724 171.889 21.2768 171.39 21.4325C171.656 21.2848 171.926 21.1275 172.184 20.9914C173.147 20.4773 174.061 20.0657 174.874 19.7078C175.338 19.5083 175.761 19.3366 176.159 19.1804C176.609 19.4132 178.438 20.3288 179.423 20.3839C180.385 20.437 181.626 20.2384 182.285 19.4601C182.93 18.698 182.883 17.5183 182.025 16.9295C180.835 16.1115 178.399 17.0339 177.377 17.8221C177.289 17.8905 176.031 19.114 176.055 19.1264C176.055 19.1264 176.077 19.138 176.082 19.1408C175.696 19.2832 175.284 19.4408 174.838 19.6218C174.016 19.9626 173.09 20.3552 172.112 20.8503C171.132 21.3427 170.082 21.9053 169.029 22.5973C167.973 23.29 166.898 24.0724 165.894 25.0219C165.883 25.0326 165.872 25.0453 165.861 25.056C166.069 24.6871 166.614 23.6363 166.647 23.5509C167.108 22.3464 167.291 19.7477 166.165 18.8421C165.354 18.1902 164.211 18.4842 163.667 19.3215C163.111 20.1767 163.277 21.4215 163.605 22.3276C163.975 23.3492 165.622 25.0337 165.753 25.1676C164.805 26.0804 163.907 27.0943 163.054 28.1702C162.566 28.7851 162.094 29.4193 161.628 30.0613C161.797 29.7365 161.946 29.445 161.962 29.4017C162.423 28.1969 162.606 25.5988 161.481 24.6932C160.67 24.0408 159.526 24.3353 158.983 25.1726C158.427 26.0275 158.593 27.2725 158.92 28.1784C159.253 29.0975 160.628 30.5622 160.997 30.9446C160.821 31.1928 160.643 31.4389 160.467 31.6874C159.627 32.8809 158.793 34.0758 157.94 35.2228C157.639 35.6272 157.328 36.0143 157.019 36.4025C157.168 36.114 157.292 35.8697 157.307 35.8308C157.768 34.626 157.952 32.0276 156.826 31.1223C156.015 30.4701 154.872 30.7641 154.327 31.6017C153.772 32.4563 153.938 33.7019 154.266 34.6075C154.583 35.4848 155.84 36.848 156.277 37.3045C155.948 37.693 155.619 38.0823 155.282 38.4438C155.047 38.6854 154.837 38.9342 154.587 39.1637C154.345 39.396 154.105 39.6263 153.867 39.8539C153.393 40.2757 152.906 40.7143 152.434 41.1143C152.107 41.3951 151.79 41.6566 151.472 41.9208C151.776 41.5218 152.355 40.7284 152.396 40.6564C152.82 39.9117 153.213 38.5413 153.144 37.3919C153.208 37.2822 153.261 37.1679 153.303 37.048C153.632 36.1052 153.164 35.0211 152.151 34.7795C150.747 34.4442 148.805 36.1805 148.135 37.2828C148.095 37.3478 147.746 38.1013 147.533 38.5804C147.615 38.2796 147.698 37.9889 147.779 37.6784C147.943 37.0657 148.089 36.4491 148.249 35.7865C148.314 35.4638 148.381 35.1379 148.447 34.8087C148.521 34.4838 148.557 34.1312 148.614 33.7893C148.729 32.9939 148.807 32.1822 148.868 31.3628C149.405 31.5053 151.319 31.9838 152.275 31.8295C153.226 31.6763 154.395 31.2162 154.872 30.3156C155.34 29.4334 155.042 28.2908 154.078 27.8988C152.74 27.3544 150.557 28.7766 149.728 29.7646C149.677 29.8263 149.161 30.6021 148.887 31.0338C148.919 30.5412 148.954 30.0494 148.971 29.5497C149.02 28.1073 149.024 26.646 149.035 25.1877C149.038 24.7411 149.046 24.2964 149.053 23.8509C149.244 23.9036 151.507 24.5215 152.577 24.3491C153.528 24.1956 154.697 23.7358 155.174 22.8348C155.642 21.9526 155.344 20.8104 154.38 20.4183C153.042 19.8739 150.859 21.2958 150.03 22.2841C149.968 22.3585 149.229 23.4762 149.054 23.7694C149.07 22.7886 149.094 21.811 149.157 20.8481C149.242 19.5199 149.399 18.2211 149.644 16.9744C149.733 16.9992 152.091 17.6544 153.188 17.4778C154.139 17.3243 155.308 16.8647 155.785 15.9635C156.253 15.0816 155.955 13.9391 154.991 13.547C153.653 13.0026 151.47 14.4248 150.641 15.4131C150.576 15.4907 149.781 16.6936 149.653 16.9215C149.667 16.8474 149.674 16.7691 149.69 16.6953C149.969 15.3673 150.405 14.1159 150.871 12.9643C151.141 12.2948 151.436 11.6699 151.737 11.0682C152.164 11.2352 154.123 11.9777 155.127 11.9275C156.089 11.8796 157.302 11.5509 157.875 10.7078C158.437 9.88239 158.266 8.71394 157.351 8.21856C156.081 7.5306 153.755 8.70429 152.823 9.59531C152.772 9.6438 152.311 10.1934 151.981 10.5987C152.121 10.3293 152.26 10.0485 152.399 9.79312C152.92 8.83268 153.455 7.98493 153.935 7.23829C154.212 6.81565 154.47 6.4393 154.716 6.08967C155.22 6.03484 157.251 5.78991 158.103 5.29206C158.935 4.80605 159.859 3.95582 159.98 2.9433C160.098 1.95173 159.408 0.993768 158.368 0.975308C156.923 0.949961 155.4 3.06343 154.983 4.28395C154.947 4.38947 154.573 6.104 154.6 6.10152C154.6 6.10152 154.624 6.09876 154.63 6.09821C154.387 6.42993 154.13 6.78865 153.858 7.18594C153.36 7.92349 152.805 8.7616 152.262 9.7146C151.716 10.6657 151.151 11.714 150.655 12.8723C150.156 14.0322 149.691 15.2783 149.377 16.6239C149.374 16.6391 149.372 16.6556 149.369 16.6708C149.338 16.2487 149.213 15.0711 149.193 14.9819C148.913 13.7228 147.633 11.4545 146.194 11.3203C145.158 11.2239 144.367 12.1 144.375 13.0985C144.383 14.1203 145.208 15.0673 145.981 15.642Z" fill="black"/>
<path d="M171.004 21.4255C171.017 21.4483 172.21 20.1611 172.276 20.0713C173.039 19.0313 173.901 16.5731 173.055 15.4027C172.445 14.5597 171.265 14.5418 170.519 15.2058C169.757 15.8835 169.588 17.128 169.665 18.0885C169.756 19.2159 171.003 21.4235 171.004 21.4255Z" fill="black"/>
</g>
<g opacity="0.3">
<path d="M118.152 99.8561C118.337 98.74 119.765 96.6444 119.766 96.6428C119.781 96.621 120.861 98.0035 120.92 98.0986C121.593 99.1987 122.247 101.72 121.305 102.816C120.627 103.605 119.449 103.524 118.762 102.8C118.059 102.061 117.995 100.807 118.152 99.8561Z" fill="black"/>
<path d="M112.468 95.124C112.922 94.1368 114.704 92.5961 114.847 92.4741C113.979 91.4847 113.168 90.3992 112.409 89.2555C111.974 88.6023 111.556 87.9306 111.146 87.252C111.287 87.5895 111.41 87.8929 111.424 87.9369C111.782 89.1762 111.747 91.7809 110.55 92.5884C109.687 93.1709 108.573 92.7816 108.1 91.9018C107.618 91.0037 107.888 89.7763 108.29 88.9012C108.698 88.013 110.192 86.669 110.592 86.3186C110.437 86.0566 110.279 85.7967 110.126 85.5339C109.388 84.274 108.658 83.0138 107.903 81.7993C107.637 81.3712 107.36 80.9596 107.084 80.5463C107.209 80.8463 107.312 81.1003 107.324 81.1408C107.682 82.3795 107.647 84.9845 106.45 85.7923C105.587 86.3745 104.472 85.9855 104 85.1058C103.519 84.207 103.788 82.9802 104.19 82.1051C104.58 81.2574 105.947 80.0046 106.42 79.5861C106.125 79.1715 105.83 78.756 105.525 78.3675C105.31 78.1072 105.123 77.8413 104.893 77.5919C104.671 77.3399 104.451 77.0908 104.233 76.8437C103.796 76.3835 103.348 75.9058 102.91 75.4677C102.608 75.1605 102.314 74.8735 102.019 74.5833C102.289 75.0065 102.799 75.8457 102.834 75.9207C103.376 77.0908 103.736 79.6707 102.674 80.651C101.91 81.3568 100.749 81.1411 100.149 80.343C99.5365 79.528 99.617 78.2744 99.8823 77.3484C100.175 76.3287 101.635 74.599 101.819 74.3844C101.329 73.9061 100.849 73.4457 100.388 73.0184C100.048 72.7013 99.7184 72.3999 99.4004 72.1128L99.89 71.3585C100.239 71.686 100.601 72.0318 100.978 72.3985C101.477 72.882 102 73.4088 102.533 73.9546C102.681 73.8494 103.528 73.257 104.387 72.8032C104.119 71.7472 104.364 69.6481 104.397 69.3775C103.725 69.2486 103.07 69.1298 102.45 69.0276C102.122 68.9728 101.811 68.924 101.501 68.8758L102.019 68.0782C102.211 68.1132 102.4 68.1468 102.6 68.1848C103.283 68.3126 104.011 68.4634 104.756 68.6248C104.856 68.3661 105.688 66.2554 106.448 65.5137C107.138 64.8412 108.204 64.1758 109.212 64.329C110.199 64.4786 110.939 65.3985 110.68 66.4066C110.32 67.8054 107.878 68.7121 106.59 68.7893C106.514 68.794 105.685 68.7513 105.162 68.7157C105.466 68.7832 105.762 68.8458 106.075 68.9191C106.694 69.0598 107.307 69.2188 107.967 69.3874C108.283 69.48 108.602 69.5737 108.924 69.6679C109.246 69.755 109.575 69.8875 109.904 69.9969C110.661 70.2663 111.415 70.5763 112.168 70.9052C112.293 70.3641 112.763 68.4479 113.346 67.6748C113.926 66.9056 114.878 66.0868 115.898 66.0851C116.896 66.0835 117.767 66.8808 117.664 67.9162C117.52 69.3535 115.243 70.6192 113.983 70.8909C113.904 70.908 112.977 71.0008 112.467 71.0422C112.918 71.2436 113.37 71.4422 113.819 71.6607C115.117 72.2913 116.411 72.9702 117.706 73.6414C118.102 73.8474 118.5 74.0477 118.897 74.2497C118.939 74.0566 119.449 71.767 120.102 70.9014C120.681 70.1321 121.634 69.313 122.654 69.3117C123.652 69.31 124.523 70.1071 124.42 71.1427C124.276 72.5801 121.999 73.8458 120.738 74.1174C120.643 74.1378 119.31 74.2698 118.969 74.2869C119.844 74.7318 120.719 75.1669 121.6 75.5606C122.814 76.1058 124.036 76.5734 125.253 76.939C125.272 76.8492 125.794 74.4569 126.462 73.5703C127.042 72.801 127.995 71.9819 129.014 71.9806C130.012 71.9789 130.884 72.776 130.78 73.8116C130.637 75.249 128.36 76.5147 127.099 76.7863C127 76.8076 125.565 76.9489 125.303 76.9558C125.376 76.9773 125.448 77.0076 125.521 77.0282C126.825 77.4021 128.135 77.6005 129.371 77.7258C130.089 77.8002 130.78 77.8311 131.452 77.8462C131.504 77.3908 131.763 75.3118 132.276 74.4472C132.767 73.6188 133.624 72.7002 134.638 72.587C135.63 72.4757 136.583 73.1722 136.594 74.2128C136.609 75.6573 134.485 77.1655 133.262 77.5738C133.195 77.5961 132.494 77.7468 131.982 77.8493C132.285 77.8518 132.598 77.8595 132.889 77.8556C133.981 77.8443 134.981 77.7663 135.866 77.6906C136.368 77.6432 136.822 77.5906 137.246 77.5368C137.53 77.1164 138.694 75.4358 139.533 74.9145C140.351 74.4062 141.535 73.9855 142.486 74.3516C143.418 74.7104 143.943 75.768 143.473 76.6963C142.821 77.9851 140.241 78.3452 138.967 78.1438C138.857 78.1262 137.166 77.6561 137.181 77.6341C137.181 77.6341 137.194 77.6134 137.198 77.6085C136.791 77.6688 136.354 77.7281 135.875 77.7834C134.99 77.879 133.99 77.9788 132.894 78.0138C131.798 78.0518 130.607 78.0623 129.351 77.96C128.092 77.8592 126.774 77.6887 125.437 77.3376C125.422 77.3338 125.407 77.3275 125.392 77.3236C125.751 77.5476 126.733 78.208 126.803 78.2672C127.786 79.1029 129.194 81.2946 128.64 82.6294C128.242 83.5904 127.098 83.8811 126.218 83.4078C125.321 82.9242 124.869 81.7525 124.722 80.8003C124.556 79.7266 125.192 77.4583 125.243 77.2779C123.974 76.9318 122.699 76.4734 121.435 75.9386C120.711 75.6333 119.992 75.3038 119.275 74.9638C119.58 75.1677 119.85 75.352 119.885 75.3821C120.868 76.2177 122.275 78.4094 121.723 79.744C121.324 80.7055 120.18 80.9956 119.301 80.5223C118.403 80.0391 117.951 78.867 117.804 77.9149C117.654 76.9489 118.158 75.004 118.298 74.4913C118.025 74.358 117.75 74.2279 117.477 74.0938C116.167 73.4499 114.862 72.8016 113.563 72.2048C113.105 71.9941 112.647 71.804 112.189 71.6116C112.458 71.7929 112.684 71.9478 112.716 71.9748C113.699 72.8104 115.107 75.0021 114.554 76.3364C114.155 77.298 113.011 77.5884 112.131 77.115C111.234 76.6318 110.782 75.4595 110.635 74.5076C110.492 73.5857 110.941 71.7863 111.105 71.1763C110.63 70.9937 110.155 70.8099 109.686 70.6542C109.364 70.5553 109.06 70.4377 108.731 70.3561C108.407 70.2688 108.085 70.182 107.767 70.0963C107.149 69.9539 106.512 69.8026 105.905 69.6784C105.483 69.5888 105.08 69.5114 104.675 69.4323C105.132 69.6368 106.021 70.0553 106.091 70.0985C106.821 70.5484 107.823 71.5621 108.315 72.6032C108.423 72.6691 108.525 72.7437 108.619 72.8286C109.36 73.4981 109.47 74.6737 108.697 75.3716C107.626 76.34 105.088 75.7485 103.972 75.1027C103.906 75.0647 103.238 74.5715 102.821 74.2533C103.037 74.4778 103.25 74.6927 103.47 74.9264C103.908 75.3854 104.332 75.8562 104.79 76.361C105.003 76.6125 105.217 76.8665 105.434 77.1236C105.654 77.3735 105.855 77.6655 106.069 77.938C106.552 78.5805 107.01 79.2552 107.456 79.9448C107.859 79.5619 109.309 78.2237 110.221 77.9005C111.129 77.5784 112.375 77.4211 113.227 77.9821C114.06 78.5317 114.347 79.677 113.69 80.4835C112.777 81.6032 110.18 81.4031 108.978 80.9339C108.903 80.9044 108.079 80.4711 107.631 80.2242C107.896 80.6408 108.163 81.0554 108.417 81.4861C109.152 82.7281 109.857 84.0081 110.566 85.2821C110.783 85.6725 111.004 86.0585 111.223 86.4461C111.365 86.3084 113.054 84.6804 114.076 84.3181C114.983 83.9963 116.23 83.8387 117.081 84.3999C117.915 84.9495 118.202 86.0946 117.544 86.901C116.631 88.021 114.034 87.8207 112.833 87.3515C112.742 87.3159 111.557 86.6905 111.263 86.5167C111.748 87.3699 112.238 88.216 112.755 89.0304C113.467 90.1548 114.228 91.2191 115.041 92.1953C115.107 92.1311 116.862 90.424 117.909 90.0529C118.817 89.7311 120.063 89.5735 120.914 90.1347C121.748 90.6841 122.035 91.8294 121.377 92.6361C120.465 93.7558 117.867 93.5555 116.666 93.0863C116.572 93.0496 115.297 92.3757 115.075 92.2372C115.123 92.295 115.167 92.3606 115.216 92.4179C116.098 93.4491 117.081 94.3374 118.043 95.124C118.6 95.5822 119.159 95.9885 119.712 96.3721C120.006 96.0208 121.369 94.4291 122.274 93.9913C123.141 93.5717 124.362 93.278 125.27 93.7426C126.159 94.1974 126.57 95.3042 126.005 96.1778C125.221 97.3909 122.617 97.4771 121.371 97.1429C121.303 97.1248 120.635 96.8639 120.151 96.6666C120.403 96.8358 120.66 97.0154 120.905 97.1727C121.822 97.7656 122.699 98.2524 123.478 98.677C123.924 98.9151 124.331 99.1211 124.715 99.3099C125.183 99.1159 127.082 98.3566 128.069 98.3844C129.032 98.4117 130.251 98.7139 130.843 99.5443C131.422 100.358 131.277 101.529 130.373 102.044C129.118 102.76 126.767 101.636 125.816 100.766C125.734 100.69 124.583 99.3655 124.607 99.355C124.607 99.355 124.63 99.3457 124.635 99.3435C124.263 99.1691 123.865 98.9776 123.436 98.7597C122.645 98.3514 121.756 97.8827 120.822 97.3072C119.887 96.7346 118.888 96.0861 117.897 95.308C116.903 94.5294 115.896 93.6599 114.975 92.6298C114.965 92.6182 114.956 92.6044 114.945 92.5928C115.121 92.9777 115.576 94.0707 115.602 94.1586C115.961 95.3976 115.926 98.0023 114.728 98.8101C113.865 99.392 112.751 99.0032 112.279 98.1232C111.796 97.2256 112.066 95.999 112.468 95.124Z" fill="black"/>
<path d="M131.647 78.0419C131.647 78.0155 133.311 78.5726 133.412 78.6197C134.58 79.166 136.517 80.9087 136.336 82.3419C136.205 83.3742 135.178 83.9564 134.206 83.7318C133.212 83.5029 132.466 82.492 132.073 81.6123C131.611 80.5797 131.647 78.0439 131.647 78.0419Z" fill="black"/>
</g>
<g opacity="0.3">
<path d="M59.0293 19.7872C58.3317 20.6777 56.073 21.8307 56.0713 21.8318C56.0479 21.8437 55.7633 20.1123 55.7578 20.001C55.695 18.7127 56.3314 16.1866 57.6831 15.6771C58.6568 15.3104 59.6514 15.9466 59.9073 16.9117C60.1691 17.8975 59.6233 19.0288 59.0293 19.7872Z" fill="black"/>
<path d="M61.7438 26.6669C60.8718 27.3152 58.5688 27.8117 58.3853 27.8503C58.6721 29.1347 58.8622 30.4759 58.9796 31.8438C59.0479 32.6257 59.092 33.4156 59.1264 34.208C59.1644 33.8441 59.2014 33.5187 59.2113 33.4738C59.4912 32.2144 60.7723 29.9461 62.2102 29.8122C63.2467 29.7152 64.0375 30.5916 64.0297 31.5901C64.0217 32.6095 63.1963 33.557 62.4232 34.1314C61.6386 34.715 59.6838 35.1773 59.1647 35.2927C59.1746 35.5969 59.1881 35.9005 59.197 36.2044C59.2394 37.6638 59.2758 39.1201 59.3548 40.5476C59.3824 41.0507 59.4284 41.5449 59.4722 42.04C59.5064 41.7166 59.538 41.4446 59.5471 41.4033C59.8271 40.1442 61.1079 37.8759 62.5461 37.7417C63.5823 37.645 64.3736 38.5212 64.3653 39.5196C64.357 40.5393 63.5319 41.4865 62.7585 42.0612C62.0099 42.6181 60.2092 43.0611 59.5931 43.2013C59.6535 43.7069 59.7127 44.213 59.794 44.7001C59.8571 45.0316 59.8943 45.3547 59.9764 45.6837C60.0502 46.0116 60.1238 46.3358 60.1965 46.6571C60.3591 47.2704 60.523 47.9046 60.6969 48.4989C60.8145 48.9133 60.9343 49.3062 61.0536 49.7021C61.0203 49.2015 60.9757 48.2204 60.9812 48.138C61.0669 46.8511 61.9896 44.415 63.3908 44.0645C64.4003 43.8121 65.3153 44.5582 65.4583 45.5465C65.6046 46.5554 64.9326 47.6167 64.2554 48.3019C63.5096 49.0563 61.3986 49.8729 61.1341 49.9732C61.3341 50.6275 61.5347 51.2623 61.7339 51.8582C61.8802 52.2999 62.0246 52.7223 62.1656 53.1267L61.3741 53.5535C61.2253 53.0986 61.0732 52.6214 60.9189 52.1192C60.7131 51.4554 60.5065 50.7421 60.3012 50.0073C60.1208 50.0286 59.0939 50.1421 58.1216 50.1275C57.8508 51.183 56.6281 52.9068 56.4688 53.1281C56.9967 53.5639 57.5141 53.9825 58.0092 54.3695C58.2707 54.5751 58.5206 54.7674 58.7694 54.9583L57.9323 55.4096C57.78 55.2865 57.6304 55.1661 57.4733 55.0371C56.9355 54.5971 56.3694 54.1158 55.793 53.6166C55.5808 53.7954 53.8382 55.2482 52.8152 55.5341C51.8873 55.7931 50.6332 55.8653 49.8221 55.2473C49.028 54.6426 48.82 53.4802 49.5314 52.72C50.518 51.6654 53.096 52.042 54.2625 52.5922C54.3314 52.6244 55.0389 53.06 55.4805 53.3422C55.2461 53.1369 55.0163 52.9402 54.7774 52.7258C54.3022 52.3054 53.8407 51.8717 53.3423 51.4069C53.1095 51.1741 52.8742 50.9389 52.6367 50.7014C52.3962 50.4705 52.1714 50.1963 51.9355 49.9429C51.4002 49.3431 50.8875 48.7091 50.3849 48.0592C50.0155 48.4741 48.6831 49.9294 47.8009 50.3278C46.9228 50.7245 45.6946 50.986 44.7992 50.4978C43.9225 50.02 43.5409 48.9025 44.1286 48.0438C44.9444 46.8519 47.5493 46.8337 48.7858 47.2007C48.863 47.2233 49.7207 47.5867 50.1877 47.795C49.8887 47.4018 49.5884 47.0111 49.2986 46.6036C48.4624 45.4275 47.6527 44.2108 46.8391 43.0007C46.5903 42.6299 46.3376 42.2635 46.0864 41.8957C45.9566 42.045 44.4101 43.8086 43.4221 44.2549C42.5444 44.6516 41.3156 44.9131 40.4204 44.4249C39.5437 43.9471 39.1621 42.8299 39.7498 41.9712C40.5653 40.779 43.1703 40.7611 44.4068 41.1278C44.5 41.1554 45.7334 41.6797 46.0406 41.8282C45.4866 41.0182 44.9273 40.2164 44.3437 39.448C43.5401 38.387 42.6926 37.3905 41.8005 36.4854C41.7404 36.5551 40.1344 38.403 39.1227 38.8603C38.2447 39.2571 37.0159 39.5185 36.1208 39.0303C35.2441 38.5526 34.8625 37.4354 35.4502 36.5763C36.266 35.3842 38.8707 35.3663 40.1074 35.733C40.2044 35.7619 41.531 36.3264 41.7644 36.446C41.7112 36.3926 41.6619 36.3308 41.6082 36.2779C40.6433 35.3241 39.5889 34.5213 38.5648 33.8182C37.9706 33.4082 37.3796 33.0497 36.7969 32.7139C36.5329 33.0889 35.3085 34.7888 34.4437 35.301C33.6147 35.7917 32.422 36.1865 31.4786 35.7996C30.5548 35.4211 30.0528 34.3527 30.5424 33.4344C31.2224 32.1598 33.8095 31.8559 35.079 32.0849C35.1479 32.0973 35.8356 32.3017 36.3343 32.4574C36.069 32.3097 35.7981 32.1524 35.5411 32.0163C34.5773 31.5022 33.6632 31.0906 32.8504 30.7327C32.3867 30.5332 31.9635 30.3616 31.5657 30.2053C31.1152 30.4382 29.2866 31.3537 28.3011 31.4088C27.3393 31.462 26.0989 31.2633 25.4399 30.485C24.7947 29.7229 24.8415 28.5432 25.6992 27.9544C26.8897 27.1364 29.326 28.0588 30.3474 28.8471C30.4355 28.9154 31.6932 30.1389 31.6698 30.1513C31.6698 30.1513 31.6481 30.1629 31.6426 30.1657C32.0285 30.3081 32.4402 30.4657 32.8868 30.6467C33.7089 30.9875 34.6344 31.3801 35.613 31.8752C36.5924 32.3676 37.6424 32.9302 38.6952 33.6223C39.7512 34.3149 40.8265 35.0974 41.8305 36.0468C41.8418 36.0575 41.8523 36.0702 41.8636 36.0809C41.6561 35.712 41.1106 34.6612 41.0781 34.5758C40.6169 33.3713 40.4336 30.7726 41.5594 29.867C42.3702 29.2151 43.5136 29.5091 44.0578 30.3464C44.6132 31.2016 44.4476 32.4464 44.1197 33.3525C43.75 34.3741 42.103 36.0586 41.9716 36.1925C42.9193 37.1053 43.8175 38.1192 44.6702 39.1951C45.1584 39.81 45.6309 40.4443 46.0968 41.0862C45.9279 40.7614 45.7789 40.4699 45.7626 40.4266C45.3014 39.2218 45.1182 36.6237 46.244 35.7181C47.0548 35.0657 48.1984 35.3602 48.742 36.1975C49.2977 37.0524 49.1319 38.2975 48.8043 39.2033C48.4718 40.1225 47.0964 41.5871 46.7275 41.9695C46.9035 42.2177 47.0821 42.4638 47.2573 42.7123C48.0979 43.9058 48.9313 45.1007 49.7849 46.2477C50.0854 46.6521 50.3962 47.0392 50.7059 47.4274C50.5563 47.139 50.4326 46.8946 50.4174 46.8557C49.9562 45.6509 49.773 43.0525 50.8985 42.1472C51.7096 41.4951 52.853 41.789 53.3974 42.6266C53.9528 43.4812 53.787 44.7268 53.4591 45.6325C53.142 46.5097 51.8843 47.8729 51.4479 48.3295C51.7771 48.7179 52.1058 49.1072 52.4425 49.4687C52.6777 49.7103 52.8874 49.9591 53.1373 50.1886C53.3798 50.4209 53.62 50.6512 53.8578 50.8788C54.3319 51.3006 54.8185 51.7392 55.291 52.1393C55.6178 52.42 55.9346 52.6815 56.2523 52.9457C55.9486 52.5467 55.3701 51.7533 55.329 51.6814C54.905 50.9366 54.5118 49.5662 54.5802 48.4168C54.5168 48.3071 54.4634 48.1928 54.4215 48.073C54.0931 47.1301 54.5606 46.046 55.5731 45.8044C56.978 45.4691 58.9201 47.2054 59.5896 48.3077C59.6292 48.3727 59.9789 49.1262 60.1918 49.6054C60.1097 49.3045 60.0262 49.0138 59.9455 48.7033C59.7813 48.0906 59.6356 47.474 59.4761 46.8114C59.4102 46.4888 59.3441 46.1628 59.2771 45.8336C59.2038 45.5087 59.1675 45.1561 59.1107 44.8142C58.9956 44.0188 58.9173 43.2071 58.8567 42.3877C58.3194 42.5302 56.4054 43.0087 55.45 42.8545C54.4989 42.7013 53.3299 42.2412 52.8524 41.3405C52.3849 40.4583 52.6827 39.3158 53.6467 38.9237C54.9846 38.3793 57.1675 39.8015 57.9965 40.7895C58.0481 40.8512 58.5633 41.627 58.838 42.0588C58.8054 41.5661 58.7705 41.0744 58.7537 40.5746C58.7049 39.1323 58.7005 37.6709 58.6897 36.2126C58.6867 35.766 58.6784 35.3214 58.6715 34.8759C58.4809 34.9285 56.2178 35.5465 55.1477 35.374C54.1969 35.2205 53.0277 34.7607 52.5502 33.8598C52.0826 32.9776 52.3805 31.8353 53.3445 31.4432C54.6827 30.8988 56.8653 32.3207 57.6943 33.309C57.7566 33.3834 58.496 34.5012 58.6702 34.7943C58.655 33.8135 58.6308 32.8359 58.568 31.873C58.4828 30.5448 58.3258 29.246 58.0808 27.9993C57.9919 28.0241 55.6332 28.6793 54.5369 28.5027C53.5858 28.3492 52.4168 27.8897 51.9394 26.9884C51.4715 26.1065 51.7697 24.964 52.7337 24.5719C54.0716 24.0275 56.2542 25.4497 57.0832 26.438C57.1485 26.5157 57.9434 27.7186 58.0718 27.9464C58.0572 27.8723 58.0503 27.794 58.0348 27.7202C57.756 26.3922 57.3196 25.1409 56.8532 23.9892C56.5837 23.3197 56.2884 22.6948 55.9878 22.0931C55.561 22.2601 53.6018 23.0026 52.5978 22.9524C51.6355 22.9045 50.4229 22.5758 49.8496 21.7327C49.2881 20.9073 49.4586 19.7389 50.3736 19.2435C51.6437 18.5555 53.9694 19.7292 54.902 20.6202C54.9529 20.6687 55.4139 21.2184 55.7437 21.6236C55.6037 21.3542 55.4646 21.0734 55.3252 20.818C54.805 19.8576 54.2694 19.0098 53.7892 18.2632C53.5126 17.8406 53.2541 17.4642 53.0084 17.1146C52.5042 17.0598 50.4739 16.8148 49.6217 16.317C48.7897 15.831 47.8654 14.9807 47.745 13.9682C47.6268 12.9766 48.3169 12.0187 49.357 12.0002C50.8015 11.9749 52.3245 14.0883 52.7417 15.3089C52.7775 15.4144 53.1514 17.1289 53.1249 17.1264C53.1249 17.1264 53.1004 17.1237 53.0946 17.1231C53.3376 17.4548 53.5944 17.8136 53.8669 18.2109C54.3647 18.9484 54.9199 19.7865 55.4629 20.7395C56.0082 21.6906 56.5738 22.7389 57.0697 23.8972C57.5681 25.0571 58.034 26.3032 58.3473 27.6489C58.3508 27.664 58.3525 27.6805 58.3561 27.6957C58.3867 27.2736 58.5118 26.0961 58.5316 26.0068C58.8115 24.7477 60.0921 22.4794 61.5303 22.3452C62.5665 22.2488 63.3578 23.1249 63.3498 24.1234C63.3418 25.1453 62.5166 26.0922 61.7438 26.6669Z" fill="black"/>
<path d="M36.7205 32.4504C36.7072 32.4733 35.5148 31.1861 35.4487 31.0962C34.6858 30.0562 33.8232 27.598 34.6695 26.4277C35.2792 25.5846 36.4598 25.5667 37.2056 26.2307C37.9674 26.9084 38.1363 28.1529 38.0592 29.1134C37.9691 30.2408 36.7213 32.4485 36.7205 32.4504Z" fill="black"/>
</g>
<path d="M155.348 75.5363L132.658 64.0802L155.739 18.0821L178.428 29.5382L155.348 75.5363Z" fill="#4C77BD" stroke="#263238" stroke-width="0.275514" stroke-miterlimit="10"/>
<path d="M173.393 34.0431C171.882 33.2797 171.275 31.4354 172.038 29.9237C172.096 29.8088 172.162 29.701 172.232 29.5966L159.204 23.0187C159.162 23.1369 159.114 23.254 159.056 23.3689C158.293 24.8809 156.449 25.4876 154.937 24.7242C154.879 24.6952 154.826 24.6619 154.771 24.6302L137.354 59.4133C137.412 59.4383 137.47 59.4612 137.527 59.4901C139.039 60.2536 139.646 62.0979 138.882 63.6096C138.824 63.7245 138.758 63.8322 138.688 63.9367L151.716 70.5145C151.759 70.3963 151.806 70.2793 151.864 70.1641C152.628 68.6523 154.472 68.0454 155.984 68.8088C156.099 68.867 156.207 68.9331 156.311 69.0031L173.744 34.1908C173.626 34.1487 173.509 34.1013 173.393 34.0431ZM153.066 51.3134C150.587 50.0623 149.593 47.0388 150.844 44.5606C152.095 42.0824 155.118 41.0877 157.597 42.3389C160.075 43.5902 161.069 46.6135 159.818 49.0917C158.567 51.5699 155.544 52.5648 153.066 51.3134Z" fill="white" stroke="#263238" stroke-width="0.275514" stroke-miterlimit="10" stroke-linecap="round" stroke-linejoin="round"/>
<path d="M155.037 75.6345L133.721 61.7897L161.645 18.5602L182.961 32.405L155.037 75.6345Z" fill="#4C77BD" stroke="#263238" stroke-width="0.275514" stroke-miterlimit="10"/>
<path d="M177.465 36.338C176.044 35.4155 175.641 33.5162 176.563 32.0959C176.633 31.9879 176.711 31.8879 176.792 31.7917L164.552 23.8423C164.497 23.9553 164.437 24.0666 164.367 24.1746C163.445 25.5949 161.546 25.9985 160.125 25.0761C160.072 25.0411 160.022 25.0022 159.971 24.9648L138.891 57.6583C138.945 57.6894 139.001 57.7187 139.055 57.7536C140.475 58.6761 140.879 60.5755 139.956 61.9957C139.886 62.1037 139.809 62.2037 139.728 62.2999L151.967 70.2493C152.022 70.1363 152.082 70.025 152.152 69.917C153.075 68.4967 154.974 68.0931 156.394 69.0155C156.502 69.0855 156.602 69.1632 156.698 69.2439L177.797 36.5231C177.684 36.4677 177.573 36.4079 177.465 36.338ZM155.387 51.3063C153.059 49.7941 152.397 46.681 153.909 44.3527C155.421 42.0243 158.534 41.3628 160.863 42.8751C163.191 44.3871 163.852 47.5004 162.34 49.8285C160.828 52.1569 157.715 52.8184 155.387 51.3063Z" fill="white" stroke="#263238" stroke-width="0.275514" stroke-miterlimit="10" stroke-linecap="round" stroke-linejoin="round"/>
<path d="M154.621 75.7092L135.426 59.0475L169.064 20.0984L188.259 36.7604L154.621 75.7092Z" fill="#4C77BD" stroke="#263238" stroke-width="0.275514" stroke-miterlimit="10"/>
<path d="M182.272 39.8947C180.993 38.7844 180.856 36.8478 181.967 35.5686C182.051 35.4714 182.142 35.3829 182.235 35.2989L171.214 25.7319C171.144 25.8361 171.069 25.938 170.985 26.0353C169.874 27.3142 167.937 27.4512 166.658 26.3408C166.61 26.2987 166.567 26.2535 166.521 26.2091L141.119 55.6704C141.169 55.7089 141.22 55.7456 141.269 55.7875C142.548 56.8978 142.685 58.8344 141.575 60.1136C141.49 60.2108 141.4 60.299 141.306 60.383L152.328 69.95C152.398 69.8458 152.473 69.7436 152.557 69.6466C153.667 68.3677 155.604 68.2308 156.883 69.3411C156.98 69.4254 157.069 69.516 157.153 69.6094L182.576 40.1237C182.472 40.054 182.37 39.9793 182.272 39.8947ZM158.335 51.6636C156.239 49.8438 156.014 46.6691 157.834 44.5724C159.654 42.476 162.829 42.2515 164.925 44.0715C167.022 45.8913 167.246 49.0663 165.426 51.1627C163.607 53.2591 160.432 53.4833 158.335 51.6636Z" fill="white" stroke="#263238" stroke-width="0.275514" stroke-miterlimit="10" stroke-linecap="round" stroke-linejoin="round"/>
<path d="M154.559 76.9607L137.764 57.8822L176.307 23.7799L193.102 42.8584L154.559 76.9607Z" fill="#4C77BD" stroke="#263238" stroke-width="0.275514" stroke-miterlimit="10"/>
<path d="M165.375 48.1744L165.636 48.7442L163.193 50.8028L162.931 50.233L165.375 48.1744ZM166.601 52.0294L163.983 51.5875L163.653 51.2007L164.277 50.6751C164.439 50.5387 164.548 50.3978 164.604 50.2524C164.66 50.1038 164.672 49.9579 164.641 49.8147C164.608 49.6698 164.54 49.5355 164.436 49.4119C164.323 49.2779 164.199 49.1801 164.064 49.1185C163.928 49.0568 163.783 49.042 163.629 49.074C163.474 49.106 163.31 49.1954 163.136 49.342L162.452 49.9182L162.153 49.2773L162.696 48.8198C163.004 48.5603 163.299 48.3909 163.58 48.3116C163.862 48.2323 164.127 48.238 164.376 48.3288C164.627 48.418 164.857 48.5871 165.066 48.836C165.25 49.0536 165.374 49.2774 165.44 49.5075C165.505 49.7359 165.497 49.9719 165.416 50.2153C165.334 50.457 165.165 50.7066 164.909 50.9641L167.308 51.3752L167.337 51.4092L166.601 52.0294ZM164.584 47.2297L164.842 47.8018L162.845 49.4843L162.584 48.9144L164.584 47.2297Z" fill="black"/>
<path d="M186.75 45.1642C185.631 43.893 185.754 41.9553 187.026 40.8362C187.122 40.751 187.224 40.6755 187.327 40.605L177.684 29.6506C177.601 29.7445 177.513 29.8357 177.416 29.9206C176.145 31.0397 174.207 30.9163 173.088 29.6451C173.046 29.5969 173.009 29.5462 172.97 29.4963L143.857 55.2973C143.902 55.3422 143.947 55.3852 143.99 55.4334C145.109 56.7046 144.986 58.6423 143.714 59.7615C143.617 59.8466 143.516 59.9221 143.412 59.9926L153.056 70.947C153.139 70.8531 153.227 70.7619 153.323 70.677C154.594 69.5579 156.532 69.6813 157.651 70.9526C157.736 71.0493 157.812 71.1507 157.882 71.2545L187.02 45.432C186.926 45.3485 186.835 45.2609 186.75 45.1642ZM161.455 53.6274C159.62 51.5437 159.823 48.3673 161.906 46.533C163.99 44.6986 167.166 44.9008 169.001 46.9845C170.835 49.0682 170.633 52.2446 168.549 54.079C166.465 55.9131 163.289 55.7111 161.455 53.6274Z" fill="white" stroke="#263238" stroke-width="0.275514" stroke-miterlimit="10" stroke-linecap="round" stroke-linejoin="round"/>
<path d="M81.3157 103.644H63.0549C62.7965 103.645 62.5489 103.72 62.3665 103.853C62.1841 103.987 62.0818 104.168 62.082 104.356V125.403H82.2911V104.356C82.2912 104.263 82.266 104.17 82.217 104.084C82.168 103.997 82.0962 103.919 82.0056 103.853C81.915 103.787 81.8074 103.734 81.6891 103.698C81.5707 103.663 81.4438 103.644 81.3157 103.644ZM72.2467 115.603C71.6757 115.601 71.1288 115.435 70.7249 115.14C70.3211 114.845 70.0931 114.446 70.0904 114.03V111.602C70.0904 111.185 70.3176 110.785 70.722 110.49C71.1264 110.195 71.6748 110.029 72.2467 110.029C72.8186 110.029 73.3671 110.195 73.7715 110.49C74.1758 110.785 74.403 111.185 74.403 111.602V114.03C74.4004 114.446 74.1723 114.845 73.7685 115.14C73.3647 115.435 72.8178 115.601 72.2467 115.603Z" fill="#CCCCCC"/>
<path d="M111.652 51.4894H33.3768C32.7043 51.4905 32.0596 51.7588 31.5841 52.2354C31.1086 52.7121 30.8409 53.3583 30.8398 54.0324V106.979C30.8405 107.653 31.108 108.3 31.5836 108.776C32.0593 109.253 32.7042 109.521 33.3768 109.522H111.652C112.324 109.521 112.969 109.253 113.445 108.776C113.92 108.3 114.188 107.653 114.189 106.979V54.0324C114.187 53.3583 113.92 52.7121 113.444 52.2354C112.969 51.7588 112.324 51.4905 111.652 51.4894Z" fill="#E6E6E6"/>
<path d="M111 53.3232H34.0325C33.6724 53.3239 33.3274 53.4679 33.073 53.7234C32.8187 53.9789 32.6758 54.3251 32.6758 54.6861V106.325C32.6764 106.686 32.8196 107.032 33.0739 107.286C33.3282 107.541 33.6729 107.685 34.0325 107.686H111C111.36 107.685 111.704 107.541 111.959 107.286C112.213 107.032 112.356 106.686 112.357 106.325V54.6861C112.357 54.3251 112.214 53.9789 111.96 53.7234C111.705 53.4679 111.36 53.324 111 53.3232Z" fill="#99C0FF"/>
<path d="M110.97 63.7192H34.055C33.6952 63.7194 33.3504 63.7578 33.0962 63.8259C32.842 63.894 32.6993 63.9863 32.6992 64.0825V77.8464C32.6998 77.9425 32.8429 78.0346 33.097 78.1025C33.3512 78.1705 33.6956 78.2087 34.055 78.2089H110.97C111.329 78.2087 111.674 78.1705 111.928 78.1025C112.182 78.0346 112.325 77.9425 112.326 77.8464V64.0825C112.326 63.9863 112.183 63.894 111.929 63.8259C111.675 63.7578 111.33 63.7194 110.97 63.7192Z" fill="#1B3A6C"/>
<path d="M84.7742 95.3572H60.2487C60.134 95.3573 60.024 95.3795 59.943 95.4188C59.8619 95.4582 59.8164 95.5115 59.8164 95.5671V103.522C59.8166 103.578 59.8622 103.631 59.9433 103.67C60.0243 103.71 60.1341 103.732 60.2487 103.732H84.7742C84.8888 103.732 84.9986 103.71 85.0797 103.67C85.1607 103.631 85.2063 103.578 85.2065 103.522V95.5671C85.2065 95.5115 85.161 95.4582 85.0799 95.4188C84.9989 95.3795 84.8889 95.3573 84.7742 95.3572Z" fill="#1B3A6C"/>
<path d="M94.6256 125.773H49.6573C49.5342 125.773 49.4127 125.745 49.3016 125.691C49.1904 125.637 49.0925 125.559 49.0149 125.461C48.9374 125.363 48.8821 125.249 48.8532 125.127C48.8243 125.005 48.8225 124.878 48.8478 124.755L49.5456 121.372C49.5853 121.182 49.6872 121.013 49.8344 120.891C49.9817 120.769 50.1653 120.702 50.3549 120.701H93.928C94.1176 120.702 94.3012 120.769 94.4484 120.891C94.5957 121.013 94.6976 121.182 94.7373 121.372L95.4351 124.755C95.4604 124.878 95.4586 125.005 95.4297 125.127C95.4008 125.249 95.3455 125.363 95.268 125.461C95.1904 125.559 95.0925 125.637 94.9814 125.691C94.8702 125.745 94.7487 125.773 94.6256 125.773Z" fill="#CCCCCC"/>
<path d="M107.128 60.4272H35.1102C35.0353 60.4255 34.9641 60.3946 34.9117 60.341C34.8594 60.2874 34.8301 60.2155 34.8301 60.1405C34.8301 60.0656 34.8594 59.9936 34.9117 59.94C34.9641 59.8865 35.0353 59.8555 35.1102 59.8539H107.128C107.203 59.8555 107.274 59.8865 107.327 59.94C107.379 59.9936 107.408 60.0656 107.408 60.1405C107.408 60.2155 107.379 60.2874 107.327 60.341C107.274 60.3946 107.203 60.4255 107.128 60.4272Z" fill="white"/>
<path d="M40.0124 58.4747C40.9394 58.4747 41.6908 57.6867 41.6908 56.7148C41.6908 55.7428 40.9394 54.9549 40.0124 54.9549C39.0854 54.9549 38.334 55.7428 38.334 56.7148C38.334 57.6867 39.0854 58.4747 40.0124 58.4747Z" fill="white"/>
<path d="M45.8132 58.4747C46.7402 58.4747 47.4916 57.6867 47.4916 56.7148C47.4916 55.7428 46.7402 54.9549 45.8132 54.9549C44.8862 54.9549 44.1348 55.7428 44.1348 56.7148C44.1348 57.6867 44.8862 58.4747 45.8132 58.4747Z" fill="white"/>
<path d="M51.6101 58.4747C52.537 58.4747 53.2885 57.6867 53.2885 56.7148C53.2885 55.7428 52.537 54.9549 51.6101 54.9549C50.6831 54.9549 49.9316 55.7428 49.9316 56.7148C49.9316 57.6867 50.6831 58.4747 51.6101 58.4747Z" fill="white"/>
<path d="M103.637 55.3808H99.5186C99.437 55.3826 99.3593 55.4208 99.3021 55.4871C99.2449 55.5534 99.2129 55.6425 99.2129 55.7354C99.2129 55.8282 99.2449 55.9174 99.3021 55.9837C99.3593 56.05 99.437 56.0881 99.5186 56.09H103.637C103.719 56.0881 103.797 56.05 103.854 55.9837C103.911 55.9174 103.943 55.8282 103.943 55.7354C103.943 55.6425 103.911 55.5534 103.854 55.4871C103.797 55.4208 103.719 55.3826 103.637 55.3808Z" fill="white"/>
<path d="M103.637 56.553H99.5185C99.4369 56.5547 99.3592 56.5883 99.302 56.6466C99.2449 56.705 99.2129 56.7835 99.2129 56.8652C99.2129 56.9469 99.2449 57.0254 99.302 57.0837C99.3592 57.1421 99.4369 57.1757 99.5185 57.1773H103.637C103.719 57.1757 103.797 57.1421 103.854 57.0837C103.911 57.0254 103.943 56.9469 103.943 56.8652C103.943 56.7835 103.911 56.705 103.854 56.6466C103.797 56.5883 103.719 56.5547 103.637 56.553Z" fill="white"/>
<path d="M103.637 57.723H99.5186C99.437 57.7246 99.3593 57.7582 99.3021 57.8165C99.2449 57.8749 99.2129 57.9534 99.2129 58.0351C99.2129 58.1168 99.2449 58.1953 99.3021 58.2537C99.3593 58.312 99.437 58.3456 99.5186 58.3473H103.637C103.719 58.3456 103.797 58.312 103.854 58.2537C103.911 58.1953 103.943 58.1168 103.943 58.0351C103.943 57.9534 103.911 57.8749 103.854 57.8165C103.797 57.7582 103.719 57.7246 103.637 57.723Z" fill="white"/>
<path d="M149.641 98.0268L196.918 78.2703C197.757 77.9198 198.153 76.9556 197.802 76.1169L186.026 47.9373C185.676 47.0987 184.712 46.7028 183.873 47.0532L136.596 66.8098C135.757 67.1602 135.361 68.1245 135.712 68.9632L147.488 97.1427C147.838 97.9816 148.802 98.3776 149.641 98.0268Z" fill="#1B3A6C" stroke="#263238" stroke-width="0.275514" stroke-miterlimit="10" stroke-linecap="round" stroke-linejoin="round"/>
<path d="M141.576 73.0518L144.418 74.2812C145.116 74.5831 145.926 74.2622 146.228 73.5643L147.457 70.7229C147.759 70.025 147.438 69.2148 146.74 68.9131L143.899 67.6837C143.201 67.3818 142.391 67.7027 142.089 68.4006L140.86 71.242C140.558 71.9396 140.879 72.7501 141.576 73.0518Z" fill="white" stroke="#263238" stroke-width="0.275514" stroke-miterlimit="10"/>
<path d="M187.407 77.0662L192.732 74.8407L191.812 72.6372L186.486 74.8626L187.407 77.0662Z" fill="white" stroke="#263238" stroke-width="0.275514" stroke-miterlimit="10"/>
<path d="M180.341 80.0215L185.666 77.796L184.745 75.5925L179.42 77.8179L180.341 80.0215Z" fill="white" stroke="#263238" stroke-width="0.275514" stroke-miterlimit="10"/>
<path d="M173.268 82.9752L178.594 80.7497L177.673 78.5462L172.348 80.7716L173.268 82.9752Z" fill="white" stroke="#263238" stroke-width="0.275514" stroke-miterlimit="10"/>
<path d="M166.2 85.9294L171.525 83.704L170.605 81.5004L165.279 83.7259L166.2 85.9294Z" fill="white" stroke="#263238" stroke-width="0.275514" stroke-miterlimit="10"/>
<path d="M159.13 88.8826L164.455 86.6571L163.534 84.4536L158.209 86.679L159.13 88.8826Z" fill="white" stroke="#263238" stroke-width="0.275514" stroke-miterlimit="10"/>
<path d="M152.061 91.8374L157.387 89.6119L156.466 87.4083L151.141 89.6338L152.061 91.8374Z" fill="white" stroke="#263238" stroke-width="0.275514" stroke-miterlimit="10"/>
<path d="M178.944 71.9776L188.83 67.8463C189.295 67.6521 189.515 67.1178 189.32 66.6533L186.417 59.7057C186.223 59.2409 185.688 59.0216 185.224 59.2158L175.338 63.3469C174.873 63.5411 174.654 64.0753 174.848 64.5401L177.751 71.4878C177.946 71.9525 178.48 72.1719 178.944 71.9776Z" fill="white" stroke="#263238" stroke-width="0.275514" stroke-miterlimit="10"/>
<path d="M158.26 63.5794L183.602 52.989L183.064 51.7037L157.723 62.2941L158.26 63.5794Z" fill="white" stroke="#263238" stroke-width="0.275514" stroke-miterlimit="10"/>
<path d="M150.458 17.2819V103.103C150.458 105.458 148.549 107.368 146.193 107.368H109.111C106.755 107.368 104.846 105.458 104.846 103.103V17.2797C104.846 14.9255 106.754 13.0167 109.109 13.0167H125.025L125.039 13.0655C125.435 14.4929 126.349 15.4217 127.362 15.4217H127.942C128.955 15.4217 129.868 14.4929 130.265 13.0655L130.281 13.0167H146.193C148.549 13.0167 150.458 14.9263 150.458 17.2819Z" fill="white" stroke="#263238" stroke-width="0.275514" stroke-miterlimit="10" stroke-linecap="round" stroke-linejoin="round"/>
<path d="M120.223 47.5038L120.055 48.108H116.86L117.027 47.5038H120.223ZM118.676 51.2417L116.959 49.2174L116.956 48.7088H117.772C117.983 48.7088 118.157 48.6712 118.294 48.5961C118.433 48.5187 118.536 48.4152 118.605 48.2855C118.673 48.1535 118.707 48.0067 118.707 47.8451C118.707 47.6699 118.675 47.5151 118.611 47.3809C118.548 47.2466 118.446 47.1419 118.308 47.0668C118.169 46.9917 117.986 46.9542 117.758 46.9542H116.864L117.048 46.2714H117.758C118.161 46.2714 118.495 46.3317 118.762 46.4524C119.028 46.573 119.227 46.7482 119.359 46.9781C119.493 47.2079 119.56 47.4855 119.56 47.811C119.56 48.0954 119.511 48.3469 119.414 48.5654C119.316 48.7816 119.158 48.9568 118.939 49.0911C118.721 49.2231 118.43 49.305 118.069 49.3369L119.639 51.1973V51.2417H118.676ZM120.226 46.2714L120.055 46.8756H117.444L117.611 46.2714H120.226Z" fill="black"/>
<path d="M63.3822 85.3276L63.1732 86.0829H59.1792L59.3883 85.3276H63.3822ZM61.4493 90L59.303 87.4697L59.2987 86.8339H60.3185C60.5831 86.8339 60.8007 86.7869 60.9714 86.6931C61.1449 86.5963 61.2743 86.4669 61.3597 86.3048C61.445 86.1398 61.4877 85.9563 61.4877 85.7543C61.4877 85.5353 61.4479 85.3418 61.3682 85.174C61.2885 85.0062 61.162 84.8753 60.9884 84.7814C60.8149 84.6876 60.5859 84.6406 60.3014 84.6406H59.1835L59.4139 83.7872H60.3014C60.805 83.7872 61.2231 83.8626 61.5559 84.0134C61.8888 84.1641 62.1377 84.3832 62.3027 84.6705C62.4705 84.9578 62.5544 85.3048 62.5544 85.7116C62.5544 86.0672 62.4933 86.3816 62.371 86.6547C62.2486 86.9249 62.0509 87.1439 61.7778 87.3118C61.5047 87.4768 61.142 87.5792 60.6897 87.619L62.6526 89.9445V90H61.4493ZM63.3865 83.7872L63.1732 84.5425H59.9089L60.118 83.7872H63.3865Z" fill="black"/>
<path d="M150.458 38.1223V17.2819C150.458 14.9263 148.549 13.0167 146.193 13.0167H130.281L130.265 13.0655C129.869 14.4929 128.955 15.4217 127.943 15.4217H127.362C126.349 15.4217 125.436 14.4929 125.039 13.0655L125.026 13.0167H109.109C106.754 13.0167 104.846 14.9252 104.846 17.2797V38.1223H150.458Z" fill="#1B3A6C" stroke="#263238" stroke-width="0.275514" stroke-miterlimit="10"/>
<path d="M140.99 79.5701H114.025C112.565 79.5701 111.381 78.3862 111.381 76.9257V68.5355C111.381 67.075 112.565 65.8911 114.025 65.8911H140.99C142.451 65.8911 143.635 67.075 143.635 68.5355V76.9257C143.635 78.3862 142.451 79.5701 140.99 79.5701Z" fill="#1B3A6C" stroke="#263238" stroke-width="0.275514" stroke-miterlimit="10"/>
<path d="M150.458 21.275V17.2819C150.458 14.9263 148.549 13.0167 146.193 13.0167H130.281L130.265 13.0655C129.869 14.4929 128.955 15.4217 127.943 15.4217H127.362C126.349 15.4217 125.436 14.4929 125.039 13.0655L125.026 13.0167H109.109C106.754 13.0167 104.846 14.9252 104.846 17.2797V21.275H150.458Z" fill="#DBDBDB" stroke="#263238" stroke-width="0.275514" stroke-miterlimit="10" stroke-linecap="round" stroke-linejoin="round"/>
<path d="M104.846 102.432V103.103C104.846 105.458 106.755 107.368 109.111 107.368H146.193C148.549 107.368 150.458 105.458 150.458 103.103V102.432H104.846V102.432Z" fill="#DBDBDB" stroke="#263238" stroke-width="0.275514" stroke-miterlimit="10" stroke-linecap="round" stroke-linejoin="round"/>
<path d="M153.363 37.7794V29.2076H152.587V18.2339C152.587 14.4979 149.559 11.4695 145.823 11.4695H109.489C105.753 11.4695 102.725 14.4979 102.725 18.2339V105.435C102.725 109.171 105.753 112.199 109.489 112.199H145.823C149.559 112.199 152.587 109.171 152.587 105.435V45.0849H153.363V40.0198H152.587V37.7796L153.363 37.7794ZM150.462 100.603C150.462 104.34 147.432 107.368 143.697 107.368H111.615C107.88 107.368 104.85 104.34 104.85 100.603V19.7792C104.85 16.0444 107.88 13.0165 111.615 13.0165H125.029L125.043 13.0652C125.439 14.4927 126.353 15.4214 127.365 15.4214H127.946C128.959 15.4214 129.872 14.4927 130.269 13.0652L130.285 13.0165H143.697C147.432 13.0165 150.462 16.0444 150.462 19.7792V100.603Z" fill="#80B1FF" stroke="#263238" stroke-width="0.275514" stroke-miterlimit="10" stroke-linecap="round" stroke-linejoin="round"/>
<path d="M145.28 12.4014H110.031C106.429 12.4014 103.508 15.3222 103.508 18.9253V104.744C103.508 108.347 106.429 111.267 110.031 111.267H145.28C148.883 111.267 151.804 108.347 151.804 104.744V18.9253C151.804 15.3224 148.883 12.4014 145.28 12.4014ZM150.462 100.844C150.462 104.447 147.541 107.368 143.938 107.368H111.374C107.771 107.368 104.85 104.447 104.85 100.844V19.5389C104.85 15.9368 107.77 13.0167 111.372 13.0167H125.029L125.043 13.0654C125.439 14.4929 126.353 15.4216 127.365 15.4216H127.946C128.959 15.4216 129.872 14.4929 130.269 13.0654L130.284 13.0167H143.938C147.541 13.0167 150.462 15.9377 150.462 19.5411V100.844Z" fill="#263238" stroke="#263238" stroke-width="0.275514" stroke-miterlimit="10" stroke-linecap="round" stroke-linejoin="round"/>
<path d="M128.151 13.34C128.151 12.9893 127.867 12.705 127.516 12.705C127.165 12.705 126.881 12.9893 126.881 13.34C126.881 13.6907 127.165 13.9751 127.516 13.9751C127.867 13.9751 128.151 13.6907 128.151 13.34Z" fill="white"/>
<path d="M108.902 15.7736C108.902 16.4161 108.181 16.6476 108.178 17.1377V17.1711H108.878V17.3873H107.943V17.2047C107.943 16.5167 108.665 16.3825 108.665 15.7827C108.665 15.5637 108.592 15.448 108.415 15.448C108.242 15.448 108.166 15.5728 108.166 15.7615V15.9503H107.944V15.7767C107.944 15.451 108.093 15.2347 108.421 15.2347C108.753 15.2345 108.902 15.448 108.902 15.7736Z" fill="#263238"/>
<path d="M110.068 15.7706V15.8254C110.068 16.0448 109.98 16.2001 109.809 16.2641C109.989 16.331 110.068 16.4925 110.068 16.7054V16.8699C110.068 17.1958 109.916 17.4088 109.587 17.4088C109.261 17.4088 109.109 17.1956 109.109 16.8699V16.7236H109.331V16.8851C109.331 17.0771 109.411 17.1925 109.581 17.1925C109.755 17.1925 109.831 17.0799 109.831 16.8639V16.6994C109.831 16.4892 109.742 16.3889 109.563 16.3828H109.435V16.1696H109.575C109.733 16.1635 109.831 16.0629 109.831 15.8772V15.7797C109.831 15.5607 109.754 15.448 109.581 15.448C109.411 15.448 109.331 15.5667 109.331 15.7585V15.8681H109.109V15.7706C109.109 15.4447 109.261 15.2347 109.587 15.2347C109.916 15.2345 110.068 15.4447 110.068 15.7706Z" fill="#263238"/>
<path d="M110.531 15.9316V16.2269H110.303V15.9316H110.531ZM110.531 17.0918V17.3871H110.303V17.0918H110.531Z" fill="#263238"/>
<path d="M111.01 16.1236C111.077 16.0079 111.184 15.947 111.327 15.947C111.601 15.947 111.722 16.1478 111.722 16.4523V16.8694C111.722 17.1953 111.567 17.4083 111.242 17.4083C110.916 17.4083 110.764 17.1951 110.764 16.8694V16.7264H110.986V16.8846C110.986 17.0766 111.065 17.192 111.235 17.192C111.406 17.192 111.485 17.0763 111.485 16.8846V16.4705C111.485 16.2787 111.406 16.163 111.235 16.163C111.104 16.163 111.016 16.236 110.995 16.3914V16.4402H110.773L110.831 15.2557H111.671V15.469H111.044L111.01 16.1236Z" fill="#263238"/>
<path d="M112.907 15.7676V15.8073H112.685V15.7524C112.685 15.5607 112.606 15.448 112.432 15.448C112.252 15.448 112.173 15.5637 112.173 15.7921V16.2701C112.231 16.1241 112.347 16.0417 112.517 16.0417C112.791 16.0417 112.913 16.2398 112.913 16.547V16.8699C112.913 17.1958 112.751 17.4088 112.426 17.4088C112.097 17.4088 111.936 17.1956 111.936 16.8699V15.7827C111.936 15.4447 112.088 15.2347 112.426 15.2347C112.755 15.2345 112.907 15.4417 112.907 15.7676ZM112.173 16.5652V16.8848C112.173 17.0768 112.252 17.1923 112.426 17.1923C112.596 17.1923 112.678 17.0766 112.678 16.8848V16.5652C112.678 16.3734 112.596 16.2577 112.426 16.2577C112.252 16.2577 112.173 16.3734 112.173 16.5652Z" fill="#263238"/>
<path d="M136.176 15.8616H135.574V17.3662H136.176V15.8616Z" fill="#263238"/>
<path d="M136.981 15.5603H136.379V17.3663H136.981V15.5603Z" fill="#263238"/>
<path d="M137.781 15.3461H137.18V17.3659H137.781V15.3461Z" fill="#263238"/>
<path d="M138.584 14.9737H137.982V17.3657H138.584V14.9737Z" fill="#263238"/>
<path d="M146.037 17.3243H142.426V15.1178H146.037V17.3243ZM142.626 17.1238H145.836V15.3183H142.626V17.1238Z" fill="#263238"/>
<path d="M144.832 15.5371H142.926V16.9059H144.832V15.5371Z" fill="#263238"/>
<path d="M146.36 15.9617H145.906V16.4816H146.36V15.9617Z" fill="#263238"/>
<path d="M141.095 16.8446C141.072 16.8446 141.048 16.8385 141.026 16.8256C140.292 16.3889 139.806 16.7942 139.786 16.8113C139.73 16.86 139.645 16.8537 139.596 16.7978C139.547 16.7416 139.552 16.6575 139.608 16.6085C139.634 16.5856 140.255 16.0536 141.165 16.5936C141.229 16.6316 141.25 16.7146 141.211 16.7785C141.186 16.8212 141.141 16.8446 141.095 16.8446Z" fill="#263238"/>
<path d="M141.37 16.3912C141.347 16.3912 141.323 16.3851 141.301 16.3721C140.238 15.7404 139.524 16.3515 139.517 16.3573C139.461 16.4069 139.376 16.4011 139.327 16.3451C139.277 16.2892 139.283 16.2041 139.339 16.155C139.348 16.1471 140.209 15.4095 141.439 16.1402C141.503 16.1782 141.524 16.2611 141.486 16.325C141.46 16.3677 141.416 16.3912 141.37 16.3912Z" fill="#263238"/>
<path d="M141.613 15.8665C141.59 15.8665 141.566 15.8604 141.544 15.8475C140.199 15.0474 139.304 15.8006 139.267 15.8334C139.21 15.8822 139.125 15.8761 139.076 15.8202C139.027 15.7643 139.033 15.6794 139.089 15.6306C139.099 15.621 140.162 14.7121 141.682 15.6158C141.746 15.6538 141.767 15.7367 141.729 15.8006C141.704 15.8431 141.659 15.8665 141.613 15.8665Z" fill="#263238"/>
<path d="M140.688 17.0707C140.688 17.2575 140.537 17.4091 140.35 17.4091C140.163 17.4091 140.012 17.2575 140.012 17.0707C140.012 16.8839 140.163 16.7324 140.35 16.7324C140.537 16.7324 140.688 16.8836 140.688 17.0707Z" fill="#263238"/>
<path d="M122.637 51.8015C122.27 51.8015 121.977 51.7288 121.758 51.5833C121.538 51.4378 121.382 51.2364 121.288 50.9791C121.193 50.7217 121.146 50.4275 121.146 50.0963C121.151 49.9622 121.165 49.8313 121.19 49.7037C121.215 49.5762 121.253 49.4577 121.304 49.3478C121.356 49.2381 121.421 49.142 121.499 49.0593C121.578 48.9766 121.67 48.9083 121.778 48.8546C121.639 48.7516 121.516 48.6028 121.408 48.408C121.301 48.2132 121.243 47.9661 121.234 47.6663C121.229 47.3621 121.28 47.1001 121.385 46.8808C121.49 46.6615 121.648 46.4937 121.858 46.3775C122.069 46.2612 122.328 46.2028 122.637 46.2028C122.95 46.2028 123.211 46.262 123.419 46.3808C123.627 46.4995 123.783 46.6673 123.885 46.8844C123.988 47.1015 124.035 47.3621 124.026 47.6663C124.022 47.9707 123.968 48.2201 123.866 48.4149C123.762 48.6097 123.639 48.7562 123.496 48.8546C123.604 48.9083 123.697 48.9764 123.775 49.0593C123.853 49.1422 123.918 49.2381 123.97 49.3478C124.021 49.4574 124.06 49.5762 124.087 49.7037C124.114 49.8313 124.127 49.9622 124.127 50.0963C124.136 50.4275 124.093 50.7217 123.996 50.9791C123.9 51.2364 123.742 51.4378 123.523 51.5833C123.304 51.7288 123.009 51.8015 122.637 51.8015ZM122.637 50.9758C122.758 50.9758 122.845 50.9311 122.899 50.8416C122.952 50.7521 122.986 50.646 123 50.5228C123.013 50.3997 123.02 50.2867 123.02 50.1839C123.024 50.0454 123.019 49.9109 123.003 49.7811C122.987 49.6514 122.952 49.5453 122.899 49.4624C122.845 49.3794 122.758 49.3381 122.637 49.3381C122.521 49.3381 122.436 49.3794 122.382 49.4624C122.328 49.5453 122.293 49.6503 122.278 49.7778C122.262 49.9054 122.254 50.041 122.254 50.1839C122.254 50.287 122.261 50.4011 122.274 50.5264C122.288 50.6518 122.322 50.7578 122.379 50.8452C122.435 50.9322 122.521 50.9758 122.637 50.9758ZM122.637 48.4518C122.713 48.4518 122.776 48.4215 122.825 48.3611C122.874 48.3008 122.911 48.2102 122.936 48.0892C122.96 47.9685 122.973 47.8187 122.973 47.6396C122.973 47.4561 122.944 47.3106 122.889 47.2032C122.833 47.0957 122.749 47.0423 122.637 47.0423C122.525 47.0423 122.439 47.096 122.378 47.2032C122.318 47.3106 122.288 47.4539 122.288 47.633C122.288 47.8121 122.3 47.963 122.325 48.0862C122.349 48.2093 122.388 48.3011 122.442 48.3614C122.496 48.4218 122.561 48.4518 122.637 48.4518Z" fill="black"/>
<path d="M126.233 51.8144C125.907 51.8144 125.634 51.7482 125.415 51.6163C125.195 51.4843 125.03 51.3019 124.918 51.0694C124.806 50.8366 124.75 50.5657 124.75 50.2572V47.7935C124.75 47.4758 124.802 47.1973 124.908 46.9579C125.013 46.7185 125.175 46.5317 125.394 46.3972C125.614 46.2628 125.893 46.1958 126.233 46.1958C126.573 46.1958 126.852 46.263 127.069 46.3972C127.286 46.5314 127.448 46.7185 127.553 46.9579C127.657 47.1973 127.71 47.4758 127.71 47.7935V50.2572C127.71 50.5613 127.654 50.831 127.542 51.0661C127.43 51.3011 127.265 51.4846 127.046 51.6165C126.826 51.7485 126.556 51.8144 126.233 51.8144ZM126.233 50.8142C126.341 50.8142 126.418 50.7798 126.465 50.7104C126.512 50.6412 126.541 50.5605 126.552 50.4687C126.563 50.377 126.569 50.2974 126.569 50.2304V47.8205C126.569 47.7445 126.565 47.6585 126.556 47.5621C126.547 47.4659 126.519 47.3808 126.472 47.3069C126.425 47.2331 126.345 47.1962 126.234 47.1962C126.122 47.1962 126.042 47.2331 125.995 47.3069C125.948 47.3808 125.92 47.4659 125.911 47.5621C125.902 47.6585 125.898 47.7445 125.898 47.8205V50.2304C125.898 50.2977 125.904 50.377 125.918 50.4687C125.931 50.5605 125.962 50.6409 126.009 50.7104C126.055 50.7798 126.13 50.8142 126.233 50.8142Z" fill="black"/>
<path d="M128.389 51.7141V50.6804H129.422V51.7141H128.389Z" fill="black"/>
<path d="M131.472 51.7949C131.123 51.7949 130.848 51.7412 130.647 51.6337C130.445 51.5263 130.302 51.3687 130.217 51.1604C130.132 50.9524 130.09 50.6961 130.09 50.3917C130.09 50.3782 130.09 50.3636 130.09 50.3479C130.09 50.3322 130.09 50.3178 130.09 50.3043H131.137C131.137 50.5237 131.156 50.6859 131.194 50.7912C131.232 50.8964 131.327 50.9488 131.479 50.9488C131.582 50.9488 131.658 50.9176 131.707 50.8548C131.757 50.792 131.789 50.6815 131.805 50.5226C131.821 50.3636 131.828 50.1457 131.828 49.8682V49.385C131.77 49.4789 131.682 49.5505 131.563 49.5999C131.445 49.6492 131.311 49.6781 131.164 49.6869C130.877 49.6916 130.647 49.6197 130.473 49.472C130.298 49.3243 130.173 49.1254 130.096 48.8747C130.02 48.6243 129.982 48.3512 129.982 48.0559C129.982 47.6754 130.03 47.3475 130.127 47.0723C130.223 46.7971 130.381 46.5835 130.6 46.4312C130.819 46.2791 131.11 46.2028 131.473 46.2028C131.831 46.2028 132.119 46.2744 132.339 46.4177C132.558 46.5609 132.718 46.7612 132.819 47.0186C132.919 47.2759 132.97 47.5792 132.97 47.928V49.9553C132.97 50.309 132.928 50.6245 132.845 50.9019C132.762 51.1794 132.614 51.3976 132.399 51.5563C132.184 51.7153 131.875 51.7949 131.472 51.7949ZM131.486 48.8276C131.575 48.8276 131.647 48.8031 131.701 48.7538C131.754 48.7044 131.797 48.6576 131.828 48.6127V47.7266C131.828 47.6013 131.819 47.4861 131.801 47.3811C131.783 47.2762 131.75 47.191 131.7 47.126C131.651 47.0613 131.575 47.0288 131.472 47.0288C131.374 47.0288 131.3 47.0635 131.251 47.1326C131.201 47.2021 131.169 47.3048 131.153 47.4415C131.138 47.5781 131.13 47.7468 131.13 47.9482C131.13 48.1228 131.135 48.276 131.147 48.408C131.158 48.54 131.188 48.643 131.237 48.7168C131.287 48.7907 131.369 48.8276 131.486 48.8276Z" fill="black"/>
<path d="M135.082 51.7949C134.733 51.7949 134.457 51.7412 134.256 51.6337C134.055 51.5263 133.911 51.3687 133.827 51.1604C133.741 50.9524 133.699 50.6961 133.699 50.3917C133.699 50.3782 133.699 50.3636 133.699 50.3479C133.699 50.3322 133.699 50.3178 133.699 50.3043H134.746C134.746 50.5237 134.765 50.6859 134.803 50.7912C134.841 50.8964 134.936 50.9488 135.089 50.9488C135.192 50.9488 135.267 50.9176 135.317 50.8548C135.366 50.792 135.398 50.6815 135.414 50.5226C135.43 50.3636 135.438 50.1457 135.438 49.8682V49.385C135.38 49.4789 135.291 49.5505 135.173 49.5999C135.054 49.6492 134.921 49.6781 134.773 49.6869C134.487 49.6916 134.256 49.6197 134.082 49.472C133.907 49.3243 133.782 49.1254 133.706 48.8747C133.63 48.6243 133.592 48.3512 133.592 48.0559C133.592 47.6754 133.64 47.3475 133.736 47.0723C133.832 46.7971 133.99 46.5835 134.209 46.4312C134.429 46.2791 134.72 46.2028 135.082 46.2028C135.44 46.2028 135.729 46.2744 135.948 46.4177C136.167 46.5609 136.327 46.7612 136.428 47.0186C136.528 47.2759 136.579 47.5792 136.579 47.928V49.9553C136.579 50.309 136.538 50.6245 136.455 50.9019C136.372 51.1794 136.223 51.3976 136.008 51.5563C135.793 51.7153 135.485 51.7949 135.082 51.7949ZM135.095 48.8276C135.185 48.8276 135.256 48.8031 135.31 48.7538C135.364 48.7044 135.406 48.6576 135.437 48.6127V47.7266C135.437 47.6013 135.428 47.4861 135.41 47.3811C135.393 47.2762 135.359 47.191 135.31 47.126C135.26 47.0613 135.184 47.0288 135.081 47.0288C134.983 47.0288 134.909 47.0635 134.86 47.1326C134.811 47.2021 134.778 47.3048 134.763 47.4415C134.747 47.5781 134.739 47.7468 134.739 47.9482C134.739 48.1228 134.745 48.276 134.756 48.408C134.767 48.54 134.797 48.643 134.847 48.7168C134.896 48.7907 134.979 48.8276 135.095 48.8276Z" fill="black"/>
<path d="M120.561 32.2755L119.775 27.6312H120.148L120.762 31.4038L121.461 27.6998H121.822L122.539 31.4093L123.107 27.6309H123.474L122.723 32.2752H122.384L121.644 28.445L120.916 32.2752L120.561 32.2755Z" fill="white"/>
<path d="M123.652 32.2758L124.633 27.6314H125.092L126.078 32.2758H125.648L125.419 31.0315H124.312L124.077 32.2758H123.652ZM124.375 30.7161H125.361L124.862 28.2106L124.375 30.7161Z" fill="white"/>
<path d="M126.637 32.2758V27.6314H127.072V31.949H128.391V32.2758H126.637Z" fill="white"/>
<path d="M128.828 32.2758V27.6314H129.264V31.949H130.582V32.2758H128.828Z" fill="white"/>
<path d="M131.012 32.2758V27.6314H132.692V27.9698H131.453V29.7129H132.463V30.0339H131.453V31.949H132.703V32.2758H131.012Z" fill="white"/>
<path d="M133.873 32.2758V27.9698H132.996V27.6314H135.157V27.9698H134.309V32.2758H133.873Z" fill="white"/>
<path d="M123.049 74.9667V70.0212H124.709C125.006 70.0212 125.251 70.0774 125.442 70.1893C125.633 70.3011 125.776 70.464 125.869 70.6775C125.963 70.891 126.01 71.1505 126.01 71.4558C126.01 71.8385 125.946 72.1302 125.82 72.3319C125.694 72.5333 125.523 72.6727 125.308 72.7504C125.092 72.8276 124.85 72.8664 124.581 72.8664H124.142V74.9667H123.049ZM124.142 72.1033H124.508C124.642 72.1033 124.744 72.079 124.813 72.03C124.883 71.9812 124.928 71.9079 124.951 71.8101C124.973 71.7126 124.985 71.5883 124.985 71.4376C124.985 71.3114 124.975 71.2007 124.957 71.1048C124.939 71.0092 124.895 70.9329 124.826 70.8758C124.757 70.8191 124.649 70.7904 124.502 70.7904H124.142L124.142 72.1033Z" fill="white"/>
<path d="M126.01 74.9667L126.944 70.0212H128.189L129.111 74.9667H128.104L127.939 73.9225H127.212L127.041 74.9667H126.01ZM127.31 73.2692H127.835L127.573 71.3401L127.31 73.2692Z" fill="white"/>
<path d="M129.993 74.9667V72.9458L129.053 70.0212H130.085L130.555 71.5845L130.976 70.0212H131.965L131.043 72.9458V74.9667H129.993Z" fill="white"/>
<path d="M66.3577 89.7509C65.9907 89.7509 65.6976 89.6781 65.4783 89.5326C65.259 89.3872 65.1025 89.1858 65.0082 88.9284C64.914 88.6711 64.8672 88.3769 64.8672 88.0457C64.8716 87.9115 64.8862 87.7807 64.911 87.6531C64.9355 87.5255 64.9735 87.4071 65.0251 87.2971C65.0766 87.1875 65.1413 87.0913 65.2198 87.0087C65.2984 86.926 65.3909 86.8577 65.4984 86.804C65.3595 86.7009 65.2366 86.5521 65.1292 86.3573C65.0217 86.1626 64.9636 85.9154 64.9548 85.6157C64.9501 85.3115 65.0008 85.0495 65.1058 84.8302C65.2108 84.6109 65.3686 84.4431 65.5791 84.3268C65.7893 84.2105 66.0491 84.1521 66.3577 84.1521C66.671 84.1521 66.9316 84.2114 67.1396 84.3301C67.3476 84.4489 67.5033 84.6167 67.6061 84.8338C67.7091 85.0509 67.7559 85.3115 67.7471 85.6157C67.7427 85.9201 67.689 86.1695 67.5862 86.3642C67.4832 86.559 67.36 86.7056 67.217 86.804C67.3245 86.8577 67.4173 86.9257 67.4956 87.0087C67.5738 87.0916 67.6389 87.1875 67.6904 87.2971C67.7419 87.4068 67.781 87.5255 67.8077 87.6531C67.8347 87.7807 67.848 87.9115 67.848 88.0457C67.8568 88.3769 67.8133 88.6711 67.7171 88.9284C67.6207 89.1858 67.4631 89.3872 67.2438 89.5326C67.0245 89.6781 66.7294 89.7509 66.3577 89.7509ZM66.3577 88.9251C66.4784 88.9251 66.5657 88.8805 66.6195 88.791C66.6732 88.7014 66.7068 88.5953 66.7203 88.4722C66.7335 88.349 66.7404 88.2361 66.7404 88.1333C66.7448 87.9947 66.7393 87.8603 66.7236 87.7305C66.7079 87.6007 66.6732 87.4947 66.6195 87.4117C66.5657 87.3288 66.4784 87.2875 66.3577 87.2875C66.2414 87.2875 66.1563 87.3288 66.1026 87.4117C66.0489 87.4947 66.0142 87.5996 65.9984 87.7272C65.9827 87.8548 65.975 87.9903 65.975 88.1333C65.975 88.2364 65.9816 88.3504 65.9951 88.4758C66.0086 88.6011 66.0431 88.7072 66.0993 88.7945C66.1552 88.8816 66.2414 88.9251 66.3577 88.9251ZM66.3577 86.4012C66.4338 86.4012 66.4963 86.3708 66.5456 86.3105C66.5949 86.2502 66.6318 86.1595 66.6564 86.0386C66.6809 85.9179 66.6933 85.768 66.6933 85.5889C66.6933 85.4055 66.6652 85.26 66.6093 85.1525C66.5533 85.0451 66.4693 84.9916 66.3574 84.9916C66.2456 84.9916 66.1593 85.0454 66.099 85.1525C66.0387 85.26 66.0084 85.4032 66.0084 85.5823C66.0084 85.7614 66.0205 85.9124 66.0453 86.0355C66.0698 86.1587 66.1089 86.2505 66.1627 86.3108C66.2164 86.3711 66.2817 86.4012 66.3577 86.4012Z" fill="black"/>
<path d="M69.9541 89.7637C69.6273 89.7637 69.3543 89.6976 69.1352 89.5656C68.9159 89.4336 68.7503 89.2512 68.6385 89.0187C68.5266 88.7859 68.4707 88.5151 68.4707 88.2065V85.7428C68.4707 85.4252 68.523 85.1466 68.6283 84.9072C68.7333 84.6678 68.8958 84.481 69.1151 84.3465C69.3344 84.2121 69.6141 84.1451 69.9541 84.1451C70.2941 84.1451 70.5729 84.2124 70.79 84.3465C71.0071 84.4807 71.1683 84.6678 71.2732 84.9072C71.3782 85.1466 71.4308 85.4252 71.4308 85.7428V88.2065C71.4308 88.5107 71.3749 88.7804 71.263 89.0154C71.1512 89.2504 70.9856 89.4339 70.7663 89.5659C70.547 89.6978 70.2764 89.7637 69.9541 89.7637ZM69.9541 88.7636C70.0615 88.7636 70.1387 88.7291 70.1858 88.6597C70.2326 88.5906 70.2618 88.5098 70.2731 88.4181C70.2841 88.3263 70.2899 88.2467 70.2899 88.1798V85.7698C70.2899 85.6938 70.2855 85.6078 70.2767 85.5114C70.2676 85.4153 70.2398 85.3301 70.1927 85.2563C70.1456 85.1825 70.0662 85.1455 69.9543 85.1455C69.8425 85.1455 69.7631 85.1825 69.716 85.2563C69.6689 85.3301 69.6411 85.4153 69.632 85.5114C69.6229 85.6078 69.6185 85.6938 69.6185 85.7698V88.1798C69.6185 88.247 69.6251 88.3263 69.6386 88.4181C69.6521 88.5098 69.6824 88.5903 69.7292 88.6597C69.7761 88.7291 69.851 88.7636 69.9541 88.7636Z" fill="black"/>
<path d="M72.1094 89.6635V88.6298H73.1431V89.6635H72.1094Z" fill="black"/>
<path d="M75.1931 89.7442C74.844 89.7442 74.5688 89.6905 74.3674 89.5831C74.166 89.4756 74.0227 89.318 73.9379 89.1097C73.8527 88.9017 73.8103 88.6455 73.8103 88.3411C73.8103 88.3276 73.8103 88.3129 73.8103 88.2972C73.8103 88.2815 73.8103 88.2672 73.8103 88.2537H74.8575C74.8575 88.473 74.8765 88.6353 74.9146 88.7405C74.9526 88.8458 75.0476 88.8981 75.2 88.8981C75.303 88.8981 75.3788 88.867 75.4281 88.8042C75.4774 88.7414 75.5097 88.6309 75.5256 88.4719C75.5414 88.3129 75.5491 88.095 75.5491 87.8176V87.3343C75.4909 87.4283 75.4025 87.4999 75.284 87.5492C75.1653 87.5985 75.0322 87.6275 74.8845 87.6363C74.598 87.641 74.3677 87.5691 74.1933 87.4214C74.0186 87.2737 73.8935 87.0748 73.8172 86.8241C73.7411 86.5736 73.7031 86.3006 73.7031 86.0052C73.7031 85.6248 73.7511 85.2969 73.8475 85.0217C73.9436 84.7464 74.1015 84.5329 74.3208 84.3805C74.5399 84.2285 74.8311 84.1521 75.1934 84.1521C75.5513 84.1521 75.84 84.2238 76.0593 84.367C76.2786 84.5103 76.4384 84.7106 76.5393 84.9679C76.6398 85.2253 76.6902 85.5286 76.6902 85.8774V87.9046C76.6902 88.2584 76.6489 88.5739 76.566 88.8513C76.4831 89.1287 76.3346 89.3469 76.1197 89.5056C75.9048 89.6646 75.5959 89.7442 75.1931 89.7442ZM75.2066 86.777C75.2961 86.777 75.3675 86.7524 75.4212 86.7031C75.475 86.6538 75.5174 86.607 75.5488 86.5621V85.676C75.5488 85.5506 75.5397 85.4355 75.5218 85.3305C75.5039 85.2255 75.4703 85.1404 75.421 85.0754C75.3716 85.0106 75.2956 84.9781 75.1928 84.9781C75.0945 84.9781 75.0206 85.0128 74.9713 85.082C74.922 85.1514 74.8898 85.2542 74.8741 85.3908C74.8584 85.5275 74.8506 85.6961 74.8506 85.8975C74.8506 86.0722 74.8561 86.2254 74.8674 86.3573C74.8785 86.4893 74.9088 86.5924 74.9581 86.6662C75.0074 86.74 75.0901 86.777 75.2066 86.777Z" fill="black"/>
<path d="M78.8025 89.7442C78.4534 89.7442 78.1782 89.6905 77.9768 89.5831C77.7754 89.4756 77.6321 89.318 77.5472 89.1097C77.4621 88.9017 77.4197 88.6455 77.4197 88.3411C77.4197 88.3276 77.4197 88.3129 77.4197 88.2972C77.4197 88.2815 77.4197 88.2672 77.4197 88.2537H78.4669C78.4669 88.473 78.4859 88.6353 78.5239 88.7405C78.562 88.8458 78.657 88.8981 78.8094 88.8981C78.9124 88.8981 78.9882 88.867 79.0375 88.8042C79.0868 88.7414 79.119 88.6309 79.135 88.4719C79.1507 88.3129 79.1584 88.095 79.1584 87.8176V87.3343C79.1003 87.4283 79.0119 87.4999 78.8934 87.5492C78.7747 87.5985 78.6416 87.6275 78.4939 87.6363C78.2074 87.641 77.977 87.5691 77.8026 87.4214C77.628 87.2737 77.5029 87.0748 77.4266 86.8241C77.3505 86.5736 77.3125 86.3006 77.3125 86.0052C77.3125 85.6248 77.3604 85.2969 77.4569 85.0217C77.553 84.7464 77.7109 84.5329 77.9302 84.3805C78.1492 84.2285 78.4405 84.1521 78.8028 84.1521C79.1606 84.1521 79.4494 84.2238 79.6687 84.367C79.888 84.5103 80.0478 84.7106 80.1486 84.9679C80.2492 85.2253 80.2996 85.5286 80.2996 85.8774V87.9046C80.2996 88.2584 80.2583 88.5739 80.1754 88.8513C80.0924 89.1287 79.9439 89.3469 79.729 89.5056C79.5139 89.6646 79.2053 89.7442 78.8025 89.7442ZM78.816 86.777C78.9055 86.777 78.9769 86.7524 79.0306 86.7031C79.0843 86.6538 79.1268 86.607 79.1582 86.5621V85.676C79.1582 85.5506 79.1491 85.4355 79.1312 85.3305C79.1133 85.2255 79.0796 85.1404 79.0303 85.0754C78.981 85.0106 78.905 84.9781 78.8022 84.9781C78.7038 84.9781 78.63 85.0128 78.5807 85.082C78.5314 85.1514 78.4991 85.2542 78.4834 85.3908C78.4677 85.5275 78.46 85.6961 78.46 85.8975C78.46 86.0722 78.4655 86.2254 78.4768 86.3573C78.4878 86.4893 78.5181 86.5924 78.5675 86.6662C78.6168 86.74 78.6994 86.777 78.816 86.777Z" fill="black"/>
<path d="M65.5824 73.4153L64.7969 68.771H65.1696L65.7832 72.5436L66.4827 68.8396H66.8439L67.5606 72.5491L68.1281 68.7707H68.4951L67.744 73.415H67.4057L66.666 69.5848L65.9378 73.415L65.5824 73.4153Z" fill="white"/>
<path d="M68.6738 73.4155L69.6544 68.7712H70.1131L71.0995 73.4155H70.6694L70.4401 72.1713H69.3337L69.0987 73.4155H68.6738ZM69.3962 71.8558H70.3823L69.8836 69.3503L69.3962 71.8558Z" fill="white"/>
<path d="M71.6582 73.4155V68.7712H72.0938V73.0888H73.4127V73.4155H71.6582Z" fill="white"/>
<path d="M73.8496 73.4155V68.7712H74.2852V73.0888H75.6038V73.4155H73.8496Z" fill="white"/>
<path d="M76.0332 73.4155V68.7712H77.7133V69.1095H76.4749V70.8527H77.4841V71.1737H76.4749V73.0888H77.7249V73.4155H76.0332Z" fill="white"/>
<path d="M78.8948 73.4155V69.1095H78.0176V68.7712H80.179V69.1095H79.3304V73.4155H78.8948Z" fill="white"/>
<path d="M69.3633 101.366V98.0158H70.4882C70.6894 98.0158 70.855 98.0539 70.9845 98.1297C71.114 98.2055 71.2107 98.3158 71.274 98.4604C71.3372 98.6051 71.3692 98.7809 71.3692 98.9877C71.3692 99.247 71.3262 99.4446 71.2409 99.5812C71.1555 99.7177 71.0395 99.8121 70.8936 99.8648C70.7474 99.917 70.5834 99.9433 70.4014 99.9433H70.1037V101.366H69.3633ZM70.1037 99.4263H70.3519C70.4428 99.4263 70.5117 99.4099 70.5587 99.3767C70.6056 99.3436 70.6366 99.294 70.6519 99.2277C70.667 99.1617 70.6747 99.0775 70.6747 98.9754C70.6747 98.8899 70.6683 98.8149 70.656 98.7499C70.6437 98.6852 70.614 98.6335 70.5671 98.5948C70.5203 98.5564 70.4471 98.537 70.3478 98.537H70.1039L70.1037 99.4263Z" fill="white"/>
<path d="M71.3691 101.366L72.0021 98.0158H72.8457L73.4702 101.366H72.7878L72.676 100.659H72.1838L72.0679 101.366H71.3691ZM72.2501 100.216H72.6059L72.428 98.9093L72.2501 100.216Z" fill="white"/>
<path d="M74.0667 101.366V99.9971L73.4297 98.0158H74.1287L74.4471 99.0749L74.7325 98.0158H75.4025L74.778 99.9971V101.366H74.0667Z" fill="white"/>
<path d="M88.8971 18.181C84.055 16.0009 79.0919 13.2367 76.1846 8.62043C75.5452 7.60516 75.0501 6.6045 74.7341 6.12593C74.418 6.6045 73.923 7.60516 73.2835 8.62043C70.3765 13.2367 65.4134 16.0009 60.5713 18.181C60.3556 18.278 56.8951 19.4853 56.8965 19.5211C56.8965 19.5242 57.6271 37.4392 63.1341 45.2717C67.8371 51.9607 73.2515 54.3386 74.7341 54.891C76.2166 54.3386 81.6313 51.9607 86.334 45.2717C91.841 37.4392 92.5716 19.5242 92.5716 19.5211C92.5733 19.485 89.1128 18.278 88.8971 18.181Z" fill="#4C77BD"/>
<path d="M87.3759 19.5072C83.0547 17.5616 78.6259 15.0949 76.0314 10.9754C75.4608 10.0695 75.0188 9.1763 74.7367 8.74925C74.4546 9.1763 74.0127 10.0695 73.4421 10.9754C70.8481 15.0949 66.419 17.5616 62.0978 19.5072C61.9055 19.5937 58.8173 20.6713 58.8184 20.703C58.8184 20.7057 59.4705 36.693 64.3848 43.6827C68.5817 49.652 73.4137 51.774 74.7367 52.2669C76.0597 51.774 80.8917 49.652 85.0886 43.6827C90.0029 36.693 90.6551 20.7057 90.6551 20.703C90.6564 20.6713 87.5682 19.5937 87.3759 19.5072Z" fill="white"/>
<path d="M74.8503 43.0684C80.9992 43.0684 85.9838 38.0838 85.9838 31.9349C85.9838 25.786 80.9992 20.8014 74.8503 20.8014C68.7014 20.8014 63.7168 25.786 63.7168 31.9349C63.7168 38.0838 68.7014 43.0684 74.8503 43.0684Z" fill="#263238" stroke="#263238" stroke-width="0.275514" stroke-miterlimit="10" stroke-linecap="round" stroke-linejoin="round"/>
<path d="M74.1622 35.4309C74.1285 35.4309 74.0949 35.4296 74.0613 35.4268C73.6863 35.3951 73.3477 35.1896 73.1466 34.8708L69.8179 29.5912C69.4644 29.0305 69.6324 28.2891 70.1931 27.9356C70.7541 27.5821 71.4952 27.7499 71.8487 28.3108L74.3291 32.2455L81.1878 24.5917C81.63 24.098 82.389 24.0566 82.8827 24.4988C83.3764 24.941 83.418 25.7001 82.9756 26.1938L75.0559 35.0317C74.8272 35.2869 74.5019 35.4309 74.1622 35.4309Z" fill="#4C77BD" stroke="#263238" stroke-width="0.275514" stroke-miterlimit="10"/>
<path opacity="0.18" d="M78.2931 33.0826C70.7154 35.5707 65.7303 40.3153 62.6211 44.4894C62.7878 44.7597 62.9589 45.0208 63.1349 45.2716C67.8379 51.9605 73.2523 54.3384 74.7349 54.8908C76.2174 54.3384 81.6321 51.9605 86.3348 45.2716C89.4638 40.8209 91.0505 33.1164 91.8377 27.291C88.7153 29.0669 84.3294 31.1008 78.2931 33.0826Z" fill="black"/>
<path d="M88.8971 18.181C84.055 16.0009 79.0919 13.2367 76.1846 8.62043C75.5452 7.60516 75.0501 6.6045 74.7341 6.12593C74.418 6.6045 73.923 7.60516 73.2835 8.62043C70.3765 13.2367 65.4134 16.0009 60.5713 18.181C60.3556 18.278 56.8951 19.4853 56.8965 19.5211C56.8965 19.5242 57.6271 37.4392 63.1341 45.2717C67.8371 51.9607 73.2515 54.3386 74.7341 54.891C76.2166 54.3386 81.6313 51.9607 86.334 45.2717C91.841 37.4392 92.5716 19.5242 92.5716 19.5211C92.5733 19.485 89.1128 18.278 88.8971 18.181Z" stroke="#263238" stroke-width="0.275514" stroke-miterlimit="10"/>
<path d="M92.8422 128.351C98.1871 123.006 98.1871 114.34 92.8422 108.995C87.4972 103.651 78.8314 103.651 73.4865 108.995C68.1415 114.34 68.1415 123.006 73.4865 128.351C78.8314 133.696 87.4972 133.696 92.8422 128.351Z" fill="white" stroke="#263238" stroke-width="0.275514" stroke-miterlimit="10"/>
<path d="M85.777 129.868C91.9584 128.421 95.7971 122.238 94.3509 116.057C92.9048 109.875 86.7214 106.037 80.5401 107.483C74.3587 108.929 70.52 115.112 71.9661 121.294C73.4123 127.475 79.5956 131.314 85.777 129.868Z" fill="white" stroke="#263238" stroke-width="0.275514" stroke-miterlimit="10"/>
<path d="M86.8414 115.79L86.459 117.171H79.1558L79.5382 115.79H86.8414ZM83.3068 124.334L79.3821 119.707L79.3743 118.545H81.2391C81.7229 118.545 82.1208 118.459 82.4329 118.287C82.7502 118.11 82.9869 117.874 83.1429 117.577C83.299 117.275 83.377 116.94 83.377 116.571C83.377 116.17 83.3042 115.816 83.1585 115.509C83.0129 115.203 82.7814 114.963 82.4641 114.792C82.1468 114.62 81.7281 114.534 81.2079 114.534H79.1636L79.585 112.974H81.2079C82.1286 112.974 82.8933 113.111 83.5019 113.387C84.1105 113.663 84.5656 114.063 84.8673 114.589C85.1742 115.114 85.3277 115.749 85.3277 116.493C85.3277 117.143 85.2158 117.718 84.9921 118.217C84.7685 118.711 84.407 119.112 83.9076 119.419C83.4082 119.72 82.745 119.907 81.9179 119.98L85.5071 124.233V124.334H83.3068ZM86.8492 112.974L86.459 114.355H80.4901L80.8724 112.974H86.8492Z" fill="black"/>
<path d="M171.329 124.451C174.52 117.598 171.553 109.456 164.7 106.265C157.848 103.074 149.706 106.041 146.515 112.893C143.323 119.746 146.291 127.888 153.143 131.079C159.996 134.27 168.137 131.303 171.329 124.451Z" fill="white" stroke="#263238" stroke-width="0.275514" stroke-miterlimit="10"/>
<path d="M161.651 129.836C167.817 128.329 171.595 122.109 170.089 115.942C168.582 109.775 162.362 105.997 156.195 107.504C150.028 109.01 146.251 115.231 147.757 121.398C149.263 127.564 155.484 131.342 161.651 129.836Z" fill="white" stroke="#263238" stroke-width="0.275514" stroke-miterlimit="10"/>
<path d="M162.478 115.657L162.096 117.038H154.793L155.175 115.657H162.478ZM158.944 124.201L155.019 119.574L155.011 118.412H156.876C157.36 118.412 157.758 118.326 158.07 118.154C158.387 117.977 158.624 117.741 158.78 117.444C158.936 117.142 159.014 116.807 159.014 116.438C159.014 116.037 158.941 115.683 158.795 115.376C158.65 115.07 158.418 114.83 158.101 114.659C157.784 114.487 157.365 114.401 156.845 114.401H154.8L155.222 112.841H156.845C157.765 112.841 158.53 112.979 159.139 113.254C159.747 113.53 160.202 113.93 160.504 114.456C160.811 114.981 160.964 115.616 160.964 116.36C160.964 117.01 160.853 117.585 160.629 118.084C160.405 118.578 160.044 118.979 159.544 119.286C159.045 119.587 158.382 119.775 157.555 119.847L161.144 124.1V124.201H158.944ZM162.486 112.841L162.096 114.222H156.127L156.509 112.841H162.486Z" fill="black"/>
<path d="M123.182 83.959H114.146V107.329H123.182V83.959Z" fill="#263238" stroke="#263238" stroke-width="0.275514" stroke-miterlimit="10" stroke-linecap="round" stroke-linejoin="round"/>
<path d="M144.282 87.652V87.3803C144.282 85.4909 142.75 83.959 140.861 83.959H114.146V83.9907C115.827 84.2075 117.126 85.6407 117.126 87.3803V93.3314H117.185V128.183C117.185 130.455 119.027 132.297 121.3 132.297H144.287V87.652H144.282Z" fill="#DBDBDB" stroke="#263238" stroke-width="0.275514" stroke-miterlimit="10" stroke-linecap="round" stroke-linejoin="round"/>
<path d="M126.185 126.184V128.876C126.185 130.488 125.069 131.836 123.568 132.198V132.297H135.375V126.184H126.185V126.184Z" fill="#263238" stroke="#263238" stroke-width="0.275514" stroke-miterlimit="10" stroke-linecap="round" stroke-linejoin="round"/>
<path d="M128.025 122.925V128.876C128.025 130.616 126.726 132.049 125.045 132.266V132.298H148.725C150.615 132.298 152.147 130.766 152.147 128.876V122.925H128.025Z" fill="#DBDBDB" stroke="#263238" stroke-width="0.275514" stroke-miterlimit="10" stroke-linecap="round" stroke-linejoin="round"/>
<path d="M122.443 88.611H140.251" stroke="#263238" stroke-width="0.275514" stroke-miterlimit="10"/>
<path d="M122.443 91.858H140.251" stroke="#263238" stroke-width="0.275514" stroke-miterlimit="10"/>
<path d="M122.443 94.6126H140.251" stroke="#263238" stroke-width="0.275514" stroke-miterlimit="10"/>
<path d="M122.443 113.798H140.251" stroke="#263238" stroke-width="0.275514" stroke-miterlimit="10"/>
<path d="M122.443 118.52H140.251" stroke="#263238" stroke-width="0.275514" stroke-miterlimit="10"/>
<path d="M122.443 97.4656H133.069" stroke="#263238" stroke-width="0.275514" stroke-miterlimit="10"/>
<path d="M122.443 100.024H133.069" stroke="#263238" stroke-width="0.275514" stroke-miterlimit="10"/>
<path d="M122.443 102.582H133.069" stroke="#263238" stroke-width="0.275514" stroke-miterlimit="10"/>
<path d="M122.443 105.14H133.069" stroke="#263238" stroke-width="0.275514" stroke-miterlimit="10"/>
<path d="M122.443 107.698H133.069" stroke="#263238" stroke-width="0.275514" stroke-miterlimit="10"/>
<path d="M122.443 110.256H133.069" stroke="#263238" stroke-width="0.275514" stroke-miterlimit="10"/>
<path d="M95.7314 126.003C95.8199 126.172 95.949 126.317 96.1073 126.425C96.2656 126.532 96.4481 126.598 96.6383 126.618C96.7358 126.627 96.708 126.777 96.6111 126.767C96.401 126.745 96.1996 126.672 96.0245 126.554C95.8494 126.435 95.7058 126.276 95.6063 126.09C95.5955 126.073 95.5914 126.052 95.595 126.033C95.5986 126.013 95.6095 125.996 95.6256 125.984C95.6422 125.972 95.6626 125.968 95.6824 125.971C95.7022 125.975 95.7198 125.986 95.7314 126.003Z" fill="white"/>
<path d="M114.133 71.7689C114.193 71.9525 114.213 72.1473 114.19 72.3394C114.168 72.5315 114.103 72.7163 114.002 72.8808C113.9 73.0453 113.763 73.1854 113.602 73.2914C113.44 73.3974 113.257 73.4665 113.066 73.4941L111.528 83.9989L109.006 82.7659L111.543 72.2801C111.518 71.9554 111.613 71.6328 111.81 71.3734C112.007 71.1141 112.292 70.9361 112.611 70.873C112.93 70.81 113.261 70.8664 113.542 71.0315C113.822 71.1966 114.033 71.459 114.133 71.7689Z" fill="#E497A2"/>
<path d="M95.7637 105.437C95.876 105.28 95.9524 105.099 95.9876 104.909C96.0228 104.719 96.0159 104.523 95.9674 104.336C95.9188 104.149 95.8299 103.975 95.7067 103.825C95.5836 103.676 95.4293 103.556 95.2547 103.473L96.292 92.2992L94.1195 93.4138L93.4411 104.181C93.3212 104.484 93.3165 104.82 93.4279 105.126C93.5392 105.432 93.7588 105.687 94.0451 105.842C94.3314 105.997 94.6645 106.041 94.9813 105.966C95.298 105.892 95.5764 105.703 95.7637 105.437Z" fill="#E497A2"/>
<path d="M97.25 99.7617L106.573 99.4028L107.111 89.712H96.3535L97.25 99.7617Z" fill="#E497A2"/>
<path d="M95.5198 134.009L97.113 134.009L97.8709 127.859H95.5195L95.5198 134.009Z" fill="#E497A2"/>
<path d="M95.1222 133.223L97.6407 133.072V134.152L100.035 135.807C100.153 135.889 100.242 136.007 100.289 136.143C100.336 136.279 100.338 136.426 100.296 136.563C100.253 136.701 100.167 136.821 100.052 136.906C99.9358 136.991 99.7958 137.037 99.6521 137.037H96.6538L96.137 135.969L95.9352 137.037H94.8047L95.1222 133.223Z" fill="#2F2E41"/>
<path d="M102.606 134.009L104.199 134.009L104.957 127.859H102.605L102.606 134.009Z" fill="#E497A2"/>
<path d="M97.1208 97.511C97.1208 97.511 94.3312 99.7652 95.8434 107.816C95.6132 107.843 95.8739 108.297 95.8739 108.297L96.0921 114.857L96.2608 115.609L95.7001 116.822L95.9312 118.14L95.2188 130.102L97.8508 130.443L100.37 118.021L100.849 116.624L101.331 115.4L101.071 114.094L101.284 112.068L102.736 105.236L103.091 117.086L102.595 118.217L102.871 119.459L102.256 120.118L102.013 131.205L104.82 131.336L107.142 120.16L106.962 118.734L107.271 117.679V115.216L107.8 114.053L108.954 107.714C108.954 107.714 109.302 102.76 106.763 96.9296L97.1208 97.511Z" fill="#2F2E41"/>
<path d="M98.259 81.6166C98.259 81.6166 94.7357 82.3141 94.1285 85.3216C93.5214 88.3292 93.1309 95.1352 93.1309 95.1352L93.2638 96.083L96.672 96.8741L98.8474 87.3377L98.259 81.6166Z" fill="#3F3D56"/>
<path d="M106.299 82.6318C106.299 82.6318 106.656 82.1308 108.656 82.0536C108.738 82.0504 108.636 81.8869 108.636 81.8869L109.598 77.1812L112.804 78.9576L112.263 83.8909L106.995 89.8874L106.299 82.6318Z" fill="#3F3D56"/>
<path d="M104.302 96.6603C102.793 96.6604 100.522 96.4937 97.1023 95.9856C96.882 95.9523 96.6782 95.8494 96.5205 95.692C96.3628 95.5345 96.2595 95.3307 96.2257 95.1103C96.114 94.9923 96.0414 94.8427 96.0176 94.6819C95.9938 94.5211 96.0201 94.3569 96.0929 94.2116L96.0961 94.2053L96.0186 94.1139C95.8987 93.973 95.8283 93.7967 95.8182 93.6119C95.808 93.4272 95.8586 93.2442 95.9622 93.091L94.9032 85.5079C94.7957 84.7549 94.9602 83.9882 95.3671 83.3457C95.774 82.7032 96.3966 82.2272 97.1228 82.0032L97.5138 81.8813L98.9922 79.9458L99.0213 79.9461L103.768 80.0094L105.308 81.9671L107.798 82.5547L107.804 82.5926L108.382 85.9357C108.683 87.6745 107.993 88.3585 107.113 89.8876L107.371 94.1821L107.489 94.3952C107.554 94.5132 107.575 94.6502 107.55 94.7825C107.525 94.9149 107.454 95.0343 107.35 95.12C107.429 95.3446 107.434 95.5884 107.366 95.8163L107.305 96.0177C107.305 96.0235 107.289 96.1054 107.157 96.2053C106.92 96.3855 106.24 96.6603 104.302 96.6603Z" fill="#3F3D56"/>
<path d="M102.21 133.223L104.729 133.072V134.152L107.123 135.807C107.241 135.889 107.33 136.007 107.377 136.143C107.424 136.279 107.426 136.426 107.384 136.563C107.341 136.701 107.255 136.821 107.139 136.906C107.024 136.991 106.884 137.037 106.74 137.037H103.742L103.225 135.969L103.023 137.037H101.893L102.21 133.223Z" fill="#2F2E41"/>
<path d="M104.858 75.7693C105.187 73.739 103.809 71.826 101.781 71.4966C99.7524 71.1671 97.8412 72.5459 97.512 74.5762C97.1829 76.6065 98.5604 78.5195 100.589 78.849C102.617 79.1785 104.529 77.7997 104.858 75.7693Z" fill="#E497A2"/>
<path d="M103.359 71.5337C101.995 70.5949 100.794 70.4519 99.8079 70.7181C99.68 70.5201 99.5007 70.3608 99.2892 70.2571C98.5198 68.3166 96.1783 67.1513 94.1689 67.7178C92.1465 68.2879 90.7511 70.5302 91.1316 72.5985C91.3675 73.8805 92.1735 74.9906 92.4978 76.2532C93.1254 78.6972 91.5943 81.4968 89.1992 82.2846C91.467 82.7404 93.9632 81.3539 94.7767 79.1867C95.1719 78.134 95.1957 76.9847 95.246 75.8613C95.2592 75.0859 95.3541 74.3141 95.5291 73.5586C95.616 73.2197 95.7387 72.891 95.8952 72.5781C96.2362 71.8904 96.8024 71.3405 97.4995 71.0202C97.4371 71.2135 97.4215 71.4188 97.454 71.6193C97.4864 71.8197 97.5661 72.0096 97.6864 72.1732C97.1545 72.84 96.865 73.5612 96.865 73.993C95.7602 76.0141 97.3401 77.7502 99.3594 78.8559C100.165 79.2993 101.095 79.4616 102.002 79.3172L102.087 78.9562L102.201 79.2814L102.584 80.3714C103.024 80.5848 103.461 80.8188 103.894 81.0733C103.73 80.2998 103.597 79.5277 103.505 78.7729C103.378 77.7454 103.82 76.2159 104.139 75.2857C104.337 74.7125 104.438 74.1104 104.44 73.5039V73.4774L104.75 74.4757L105.881 73.993C105.67 72.7856 105.881 71.4148 103.359 71.5337Z" fill="#2F2E41"/>
</svg>
