<svg width="24" height="23" viewBox="0 0 24 23" fill="none" xmlns="http://www.w3.org/2000/svg">
<rect x="0.63294" y="3.12952" width="17.0901" height="18.778" rx="2.00439" stroke="#525252" stroke-width="1.05494"/>
<rect width="13.0813" height="11.3934" transform="translate(10.6543 7.66577)" fill="white"/>
<path d="M11.3995 14.1998C10.8459 13.7692 11.092 12.9695 11.4764 12.7389L12.6298 11.7392C13.168 11.201 13.3988 11.2779 13.4756 11.3548C13.8601 11.7649 14.706 12.6004 15.0135 12.9695C15.3211 13.3386 15.7056 13.354 16.09 13.1233L21.3187 8.74044C21.5494 8.50977 21.6262 8.50977 21.7031 8.50977L23.1641 9.89383C23.3486 10.0169 23.6255 10.509 23.5486 10.7396C21.4725 12.4313 17.2434 16.5835 16.5514 17.2755C15.8593 17.8138 15.5518 18.1213 14.9366 17.66C13.9883 16.6604 11.9532 14.6304 11.3995 14.1998Z" fill="#FBDE59" stroke="#525252" stroke-width="0.421977"/>
<path d="M4.3252 0.914062L4.3252 4.28988" stroke="#525252" stroke-width="1.26593" stroke-linecap="round"/>
<path d="M7.70117 0.914062L7.70117 4.28988" stroke="#525252" stroke-width="1.26593" stroke-linecap="round"/>
<path d="M11.0762 0.914062L11.0762 4.28988" stroke="#525252" stroke-width="1.26593" stroke-linecap="round"/>
<path d="M14.4521 0.914062L14.4521 4.28988" stroke="#525252" stroke-width="1.26593" stroke-linecap="round"/>
</svg>
