<svg width="165" height="145" viewBox="0 0 165 145" fill="none" xmlns="http://www.w3.org/2000/svg">
<path d="M49.4824 127.943C48.8923 132.584 46.7227 136.83 44.4081 140.92C44.3316 141.059 44.2528 141.196 44.1722 141.335H20.1157C19.6291 141.209 19.1489 141.069 18.6706 140.92C15.9535 140.089 13.3884 138.823 11.0749 137.169C2.22447 130.768 -1.18115 118.672 0.357096 107.834C1.31358 101.101 4.25744 94.2262 9.98999 90.5997C13.0167 88.6815 16.9046 88.058 20.3889 88.7708C20.4801 88.7875 20.5712 88.8083 20.6643 88.827C23.662 89.5045 26.3326 91.1878 27.8523 93.8999C30.585 98.7734 28.9578 104.811 27.6142 110.235C26.2747 115.659 25.548 122.151 29.436 126.152C28.1524 122.359 29.4194 117.835 32.4855 115.27C34.8021 113.336 38.0276 112.61 40.9695 113.211C41.251 113.271 41.5285 113.34 41.8017 113.423C42.4622 113.617 43.0989 113.885 43.7001 114.221C48.2857 116.792 50.1428 122.712 49.4824 127.943Z" fill="#4C77BD"/>
<path d="M35.2183 140.92C35.8849 141.076 36.5536 141.213 37.2264 141.336H33.589C33.1128 141.207 32.6387 141.07 32.1688 140.92C31.1357 140.596 30.1185 140.224 29.1172 139.804C25.1009 138.112 21.4013 135.573 18.6023 132.193C17.2335 130.556 16.1156 128.723 15.2858 126.755C14.3859 124.53 13.8141 122.185 13.5882 119.795C13.081 114.89 13.5985 109.85 14.5653 105.033C15.5631 100.04 17.1736 95.1907 19.3601 90.5956C19.623 90.0449 19.8949 89.4976 20.1758 88.9538C20.1951 88.909 20.2243 88.8693 20.2613 88.8376C20.2982 88.8059 20.3419 88.7831 20.389 88.7709C20.4845 88.7523 20.5835 88.7725 20.6643 88.827C20.7613 88.8829 20.8332 88.9739 20.8651 89.0815C20.8971 89.189 20.8868 89.3047 20.8362 89.4048C18.5818 93.8181 16.8729 98.4913 15.7475 103.321C14.6461 108.032 14.0209 112.961 14.2341 117.806C14.437 122.332 15.615 126.784 18.2877 130.485C20.7285 133.864 24.0989 136.529 27.8275 138.343C30.1874 139.476 32.6665 140.341 35.2183 140.92Z" fill="white"/>
<path d="M43.2012 141.335H42.1288C42.0087 141.198 41.8927 141.059 41.7789 140.919C39.3362 137.94 37.6814 134.391 36.9676 130.599C36.1006 125.867 36.775 120.981 38.8908 116.664C39.4811 115.454 40.1767 114.298 40.9694 113.21C41.2509 113.271 41.5284 113.339 41.8016 113.422C39.7166 116.196 38.3141 119.424 37.7087 122.845C37.1686 126.051 37.3482 129.337 38.2343 132.464C39.1204 135.59 40.6907 138.479 42.8306 140.919C42.9506 141.059 43.0749 141.198 43.2012 141.335Z" fill="white"/>
<path d="M133.739 135.005C127.556 135.005 121.512 133.167 116.371 129.724C111.231 126.281 107.224 121.387 104.858 115.662C102.492 109.936 101.873 103.636 103.079 97.5577C104.285 91.4794 107.262 85.8962 111.634 81.514C116.006 77.1319 121.576 74.1476 127.64 72.9385C133.704 71.7295 139.99 72.35 145.702 74.7216C151.414 77.0932 156.297 81.1094 159.732 86.2623C163.167 91.4152 165 97.4734 165 103.671C164.991 111.978 161.694 119.943 155.833 125.817C149.973 131.691 142.027 134.996 133.739 135.005ZM133.739 73.642C127.814 73.642 122.022 75.4032 117.095 78.7028C112.168 82.0024 108.329 86.6922 106.061 92.1792C103.794 97.6663 103.2 103.704 104.356 109.529C105.512 115.354 108.365 120.705 112.555 124.904C116.745 129.104 122.083 131.964 127.894 133.122C133.706 134.281 139.729 133.686 145.204 131.414C150.678 129.141 155.357 125.292 158.649 120.354C161.94 115.416 163.697 109.61 163.697 103.671C163.688 95.7094 160.529 88.0767 154.913 82.4472C149.297 76.8177 141.682 73.6511 133.739 73.642Z" fill="#89ADE8"/>
<path d="M35.4324 36.2536C31.864 36.2536 28.3757 35.193 25.4087 33.2058C22.4416 31.2187 20.1291 28.3943 18.7635 25.0897C17.398 21.7852 17.0407 18.149 17.7368 14.6409C18.433 11.1329 20.1514 7.91051 22.6746 5.38133C25.1979 2.85216 28.4127 1.12977 31.9126 0.431971C35.4124 -0.265827 39.0401 0.0923085 42.3369 1.46109C45.6337 2.82987 48.4515 5.14781 50.434 8.12181C52.4165 11.0958 53.4747 14.5923 53.4747 18.1691C53.4693 22.9637 51.5667 27.5605 48.1843 30.9508C44.8019 34.3412 40.2159 36.2482 35.4324 36.2536ZM35.4324 0.838007C32.0127 0.838007 28.6697 1.85445 25.8263 3.75882C22.9829 5.66318 20.7667 8.36992 19.4581 11.5368C18.1494 14.7036 17.807 18.1883 18.4741 21.5502C19.1413 24.9121 20.7881 28.0002 23.2062 30.424C25.6243 32.8478 28.7052 34.4984 32.0592 35.1671C35.4132 35.8358 38.8898 35.4926 42.0492 34.1809C45.2087 32.8691 47.9091 30.6478 49.809 27.7977C51.7089 24.9476 52.7229 21.5968 52.7229 18.1691C52.7177 13.5742 50.8944 9.16898 47.6529 5.91991C44.4115 2.67083 40.0166 0.843215 35.4324 0.838007Z" fill="#89ADE8"/>
<path opacity="0.3" d="M73.7014 145.003C113.148 145.003 145.126 143.934 145.126 142.615C145.126 141.297 113.148 140.228 73.7014 140.228C34.255 140.228 2.27734 141.297 2.27734 142.615C2.27734 143.934 34.255 145.003 73.7014 145.003Z" fill="#6C63FF"/>
<path opacity="0.4" d="M51.7196 6.50755C55.9929 2.68844 62.7006 1.91008 68.8062 2.2143C87.9838 3.16987 105.295 12.4554 120.27 22.9583C125.691 26.7606 131.028 30.8582 134.547 36.0942C141.71 46.753 139.585 61.5189 129.624 70.2998C126.236 73.2874 122.127 75.5776 117.91 77.6078C110.411 81.2177 102.32 84.1156 93.8086 84.9404C87.7392 85.5285 81.5952 85.0504 75.5613 84.2297C58.7031 81.9367 42.1556 76.8665 28.2864 68.1918C22.2034 64.3871 16.4699 59.6571 13.9626 53.5021C11.4553 47.3471 13.0599 39.5475 19.2713 35.9043C21.8402 34.3975 24.9117 33.717 27.9188 33.078C32.3452 32.1374 36.8425 31.2102 40.8369 29.298C44.9626 27.323 49.8479 23.5036 49.031 19.1321C48.1545 14.4416 47.4513 10.3222 51.7196 6.50755Z" fill="#6C63FF"/>
<path d="M142.612 57.1762C142.612 57.1762 139.946 56.0917 131.463 59.9923C122.981 63.8928 121.923 63.3999 119.728 62.8134C117.533 62.2269 116.309 62.0753 113.955 58.8168C113.955 58.8168 112.294 49.7896 110.679 48.3892C109.064 46.9887 102.245 49.188 102.245 49.188C102.245 49.188 94.0577 51.0713 92.4978 40.0875C92.4978 40.0875 93.6041 31.8162 92.0972 29.2782C92.0972 29.2782 95.1412 30.5927 100.161 28.4693C105.181 26.3458 109.2 30.757 109.2 30.757C109.2 30.757 110.46 34.0433 110.334 36.005C110.208 37.9666 111.004 38.7022 113.398 37.7543C113.398 37.7543 114.575 36.0758 112.909 33.3001C111.244 30.5245 110.054 28.4592 110.518 26.3054C110.981 24.1516 112.32 21.1611 116.616 19.6671C120.913 18.1731 126.746 17.8976 129.546 16.717C132.345 15.5365 133.036 14.7832 133.036 14.7832C133.036 14.7832 131.312 16.5148 135.372 23.8584C139.431 31.202 136.843 34.3871 136.843 34.3871C136.843 34.3871 134.684 39.5516 125.149 39.132C125.149 39.132 115.961 39.4682 120.97 43.3763C120.97 43.3763 124.178 42.7216 128.974 41.1922C133.769 39.6629 137.232 45.975 138.091 50.366C138.95 54.757 142.612 57.1762 142.612 57.1762Z" fill="#4C77BD"/>
<path d="M130.262 20.3448L130.312 20.3296C130.68 21.7301 126.575 27.3622 123.065 31.8391L123.024 31.8063C127.974 25.5017 130.546 21.4292 130.262 20.3448Z" fill="white"/>
<path d="M123.095 31.7207L123.118 31.7763C120.313 35.3508 116.788 39.6128 113.965 42.7803C113.696 43.0811 113.428 43.3971 113.171 43.7207L113.091 43.6549C113.343 43.3314 113.617 43.0129 113.887 42.712C116.707 39.5572 120.288 35.2977 123.095 31.7207Z" fill="white"/>
<path d="M113.159 43.5742L113.214 43.6703C108.078 50.1038 107.738 60.1017 107.726 60.18L106.642 58.9161C106.655 58.8352 107.988 50.0532 113.159 43.5742Z" fill="white"/>
<path d="M136.667 53.6876C136.667 53.6876 130.619 50.5277 125.892 51.6652C121.165 52.8028 110.533 47.6459 110.533 47.6459C110.533 47.6459 106.022 45.8081 105.115 43.7125C105.115 43.7125 102.018 40.4262 101.839 38.73C101.66 37.0337 98.6491 32.759 96.6836 32.5947" stroke="white" stroke-width="0.251993" stroke-miterlimit="10"/>
<path d="M135.778 56.7284C135.778 56.7284 132.729 54.6657 133.084 52.2642" stroke="white" stroke-width="0.251993" stroke-miterlimit="10"/>
<path d="M131.1 59.391C131.1 59.391 126.738 57.8035 126.312 51.5747" stroke="white" stroke-width="0.251993" stroke-miterlimit="10"/>
<path d="M124.067 61.0033C124.067 61.0033 119.899 57.5351 121.283 51.4731" stroke="white" stroke-width="0.251993" stroke-miterlimit="10"/>
<path d="M115.603 59.3098C115.603 59.3098 112.831 53.4703 115.298 49.6709" stroke="white" stroke-width="0.251993" stroke-miterlimit="10"/>
<path d="M136.725 49.8379C136.725 49.8379 133.573 50.8491 134.248 52.5074" stroke="white" stroke-width="0.251993" stroke-miterlimit="10"/>
<path d="M132.92 44.1069C132.92 44.1069 128.699 45.4493 128.601 51.4379" stroke="white" stroke-width="0.251993" stroke-miterlimit="10"/>
<path d="M127.033 42.7114C127.033 42.7114 123.191 47.4689 123.473 51.7917" stroke="white" stroke-width="0.251993" stroke-miterlimit="10"/>
<path d="M120.305 44.5771C120.305 44.5771 116.49 48.2376 116.976 50.2725" stroke="white" stroke-width="0.251993" stroke-miterlimit="10"/>
<path d="M118.005 43.2854C118.005 43.2854 114.426 43.9275 113.925 42.7495" stroke="white" stroke-width="0.251993" stroke-miterlimit="10"/>
<path d="M113.355 38.9526C113.355 38.9526 115.162 41.3542 115.623 40.8157" stroke="white" stroke-width="0.251993" stroke-miterlimit="10"/>
<path d="M131.277 37.4332C131.277 37.4332 122.255 38.0905 120.214 35.3604" stroke="white" stroke-width="0.251993" stroke-miterlimit="10"/>
<path d="M111.468 26.8486C111.468 26.8486 115.699 35.9617 118.776 37.122" stroke="white" stroke-width="0.251993" stroke-miterlimit="10"/>
<path d="M115.898 22.5083C115.898 22.5083 118.496 30.8908 121.716 33.5072" stroke="white" stroke-width="0.251993" stroke-miterlimit="10"/>
<path d="M135.072 30.5144C135.072 30.5144 128.213 33.467 124.095 30.479" stroke="white" stroke-width="0.188994" stroke-miterlimit="10"/>
<path d="M122.006 20.7217C122.006 20.7217 123.574 26.8822 125.685 28.3711" stroke="white" stroke-width="0.188994" stroke-miterlimit="10"/>
<path d="M134.036 23.6108C134.036 23.6108 130.181 25.077 128.745 23.9546" stroke="white" stroke-width="0.188994" stroke-miterlimit="10"/>
<path d="M110.052 40.9648C110.052 40.9648 110.052 46.3366 108.595 46.7184" stroke="white" stroke-width="0.251993" stroke-miterlimit="10"/>
<path d="M98.1348 47.9239C98.1348 47.9239 103.931 48.4295 106.594 45.4238" stroke="white" stroke-width="0.251993" stroke-miterlimit="10"/>
<path d="M108.56 34.6196C108.56 34.6196 107.159 40.0673 103.293 41.536" stroke="white" stroke-width="0.251993" stroke-miterlimit="10"/>
<path d="M94.6626 42.186C94.6626 42.186 98.76 43.6142 102.285 39.9766" stroke="white" stroke-width="0.251993" stroke-miterlimit="10"/>
<path d="M104.001 29.9351C104.001 29.9351 103.616 34.5611 101.108 36.7275" stroke="white" stroke-width="0.251993" stroke-miterlimit="10"/>
<path d="M94.8188 35.1349C94.8188 35.1349 98.2182 35.1577 99.0145 34.0454" stroke="white" stroke-width="0.251993" stroke-miterlimit="10"/>
<path d="M73.4447 56.3236C73.1525 55.7566 71.6086 52.2328 71.6086 52.2328L69.0214 45.5094C69.0214 45.5094 67.1853 42.6743 67.1853 42.1477C67.1853 41.6212 63.8469 39.5151 63.8469 39.5151C63.8469 39.5151 61.1345 38.705 60.9259 38.624C60.7172 38.543 57.5041 37.477 57.5041 37.477C57.5041 37.477 56.2388 35.8083 56.0586 36.2441L56.0584 36.2452C56.0518 36.2342 56.0451 36.2246 56.0386 36.2133C55.78 35.7289 55.6163 35.1993 55.5562 34.6532C55.5493 34.6046 55.5434 34.5534 55.5373 34.5028C56.3707 33.9363 57.0537 33.1746 57.5273 32.2835C58.0009 31.3925 58.2508 30.3992 58.2552 29.3895C58.2546 29.1236 58.2368 28.8581 58.2018 28.5946C58.2248 28.5803 58.2488 28.5676 58.2736 28.5567C58.3255 28.5341 58.3123 28.5157 58.2742 28.4965C58.2873 28.4896 58.3003 28.4823 58.3135 28.4767C58.3825 28.4466 58.3364 28.4238 58.2695 28.3967L58.2736 28.3947C58.3677 28.3537 58.2487 28.3265 58.153 28.2831C58.1479 28.2551 58.1431 28.227 58.1376 28.1991C58.1587 28.1457 58.1716 28.0895 58.1759 28.0322C58.1844 28.0364 58.1921 28.041 58.2011 28.0449C58.2243 27.9405 58.2238 27.8322 58.1994 27.7281C58.1934 27.7493 58.1861 27.77 58.1777 27.7903C58.1836 27.6959 58.1642 27.6017 58.1215 27.5173C58.0788 27.433 58.0143 27.3617 57.9347 27.3109C57.9299 27.3067 57.9247 27.3022 57.9198 27.2979L58.0968 25.4809C60.7063 25.3572 61.1641 20.9048 60.5689 20.6574C59.9738 20.41 60.5689 19.8741 60.5689 18.8022C60.5689 17.7303 58.6004 16.5347 58.6004 16.5347C58.6004 16.5347 57.7763 16.947 56.4945 14.8857C55.2126 12.8244 50.4972 12.4945 50.1768 13.0305C49.8563 13.5664 47.7504 14.2673 45.0036 15.0506C42.2567 15.8339 42.7603 19.0908 43.2181 19.7916C43.5953 20.3711 43.8161 21.0387 43.8591 21.7293C43.8591 22.1416 44.7289 23.8731 44.7289 23.8731C44.4545 24.4731 45.1527 27.76 45.3595 28.6942C45.3562 28.7229 45.3528 28.7515 45.3499 28.7803C45.3482 28.7831 45.3459 28.7855 45.3442 28.7884C45.3343 28.8035 45.3254 28.8192 45.3175 28.8354C45.2731 28.9322 45.2584 29.0401 45.2753 29.1453C45.2602 29.2602 45.2762 29.3772 45.3216 29.4839C45.3373 30.364 45.5403 31.2305 45.9171 32.0256C46.2939 32.8206 46.8357 33.5257 47.5062 34.0937C47.5095 34.1499 47.5127 34.2065 47.5157 34.2643C47.5542 35.0274 47.5758 35.9298 47.5358 36.7933C47.5337 36.8375 47.5304 36.8807 47.528 36.9247C47.3766 36.9554 47.2345 37.0214 47.1132 37.1173C46.9919 37.2133 46.8948 37.3365 46.8297 37.477C46.571 37.976 45.0688 38.7455 45.0688 38.7455C45.0688 38.7455 42.4398 38.867 42.1894 39.3531C41.9391 39.8391 38.1417 41.4592 38.1417 41.4592C38.1417 41.4592 36.1387 42.6338 36.4308 43.9703C36.5834 44.6687 36.1549 45.7537 35.711 46.6311C34.7824 46.2779 33.8155 46.0361 32.8303 45.9107L34.9577 47.9518C34.9131 48.0216 34.8868 48.0611 34.8868 48.0611L33.6767 52.3543C33.6767 52.3543 33.2594 53.8529 32.8421 54.2174C32.4248 54.582 33.2176 57.9032 33.2176 57.9032C33.2176 57.9032 32.7586 60.2523 32.3831 60.8599C32.0075 61.4674 32.9673 62.966 32.9673 62.966L34.8868 67.3402L39.9778 68.6363C39.9778 68.6363 40.317 68.7083 40.8653 68.826C40.848 68.9306 40.8304 69.0347 40.8124 69.1385C40.567 70.5318 40.2448 71.8133 39.8526 72.16C38.8928 73.0106 38.9346 76.8178 38.9346 76.8178L38.9763 82.2046C38.9763 82.2046 39.3101 88.847 39.1432 89.09C39.0378 89.2434 39.2493 89.4936 39.8071 89.7183C39.7912 89.8183 39.7755 89.9198 39.7608 90.0232C39.6039 91.1249 39.5338 92.3821 39.8943 92.9378C40.0509 93.2383 40.1366 93.5708 40.1447 93.9098C40.1447 94.4364 40.9376 95.5299 40.9376 95.5299C40.9376 95.5299 40.3116 100.026 41.3548 101.565C42.3981 103.104 43.2744 105.899 42.7736 106.547C42.7736 106.547 41.8973 108.45 42.3146 109.301C42.7319 110.151 42.3146 110.637 41.7721 110.84C41.2297 111.042 41.2764 112.703 41.2764 112.703L42.2729 120.601C42.2729 120.601 42.8154 122.221 42.3564 122.788C41.8973 123.355 41.8973 126.19 42.6067 127.162C43.3161 128.134 41.6052 129.916 41.6052 129.916C41.6052 129.916 40.562 131.415 42.2312 131.901C42.2312 131.901 42.565 131.982 41.9391 132.63C41.3131 133.278 41.1879 134.088 41.6052 134.372C41.6917 134.424 41.7823 134.469 41.8759 134.507C41.8604 134.603 41.8436 134.702 41.8239 134.808C41.6636 135.653 41.3615 136.755 40.8124 137.288C39.748 138.382 38.8296 139.609 38.0799 140.94C37.5074 142.028 37.257 143.047 37.8913 143.525C39.3936 144.659 41.3131 145.024 42.4398 144.578C43.5665 144.133 45.1522 142.756 45.1522 142.756L45.5278 141.176C45.5278 141.176 45.2774 140.204 46.5293 139.84C47.7811 139.475 48.9496 138.179 48.9496 138.179V136.079C49.2527 135.906 49.5453 135.714 49.8259 135.506C49.8259 135.506 50.4101 133.44 49.8259 132.752C49.2417 132.063 49.033 131.82 49.7842 131.375C50.5353 130.929 50.6371 129.957 50.0863 129.106C49.5338 128.256 48.6575 127 49.4086 125.218C50.1597 123.436 50.4351 117.968 50.4351 117.968C50.4351 117.968 50.0846 114.242 50.4351 113.392C50.7857 112.541 50.0345 110.84 50.0345 110.84C50.0345 110.84 50.2849 108.734 50.7439 107.762C51.203 106.79 51.5785 101.646 51.5785 101.646C51.5785 101.646 52.4131 99.4587 52.4131 98.0411C52.4131 96.6235 51.1195 93.2213 53.039 92.3302C53.039 92.3302 53.8736 93.0593 53.5398 95.9755C53.5398 95.9755 54.4996 99.3777 54.4996 100.431C54.4996 101.484 55.209 105.291 55.209 105.291C55.209 105.291 55.2924 106.506 55.5845 106.952C55.8766 107.397 55.5845 108.612 55.5845 108.612C55.5845 108.612 56.6695 109.625 56.3774 110.273C56.0853 110.921 56.4275 112.382 56.4275 112.382L56.1687 121.451C56.1687 121.451 55.4176 125.34 57.1702 127.689C57.1702 127.689 56.5443 131.132 56.1687 131.375C55.7932 131.618 57.5458 133.724 57.5458 133.724C57.5458 133.724 57.06 135.088 58.0466 135.155V137.409C58.3891 138.016 58.8589 138.542 59.4236 138.949C60.3417 139.597 59.9661 141.824 59.9661 141.824C59.9661 141.824 61.1345 144.659 64.2225 144.052C67.3104 143.444 67.7277 143.161 67.5608 142.148C67.5007 141.779 67.3672 141.119 67.1752 140.371C66.8431 139.07 66.334 137.5 65.7247 136.726C64.765 135.506 63.9721 132.954 63.9721 132.954C63.9721 132.954 63.5965 132.104 63.9721 131.82C64.3477 131.537 64.1808 131.01 64.1808 131.01C64.1808 131.01 64.5463 129.957 64.2175 129.309C63.8886 128.661 64.8484 127.324 64.8484 127.324L64.5563 121.087L64.8484 112.014C64.8484 112.014 63.5548 110.516 64.0973 109.625C64.6398 108.734 63.4714 107.478 63.4714 107.478C63.4714 107.478 63.3462 107.438 63.68 106.425C63.8798 105.828 63.85 105.178 63.5965 104.603C63.5965 104.603 62.8871 102.091 64.139 100.188C64.139 100.188 64.6815 97.6766 64.8484 96.3805C64.9636 95.4797 65.6847 92.1148 66.1137 90.1464C66.1379 90.0351 66.1612 89.9286 66.1834 89.8269C66.8013 89.8607 67.2687 89.9001 67.2687 89.9001C67.2687 89.9001 66.3089 83.2172 67.2687 81.8401C68.2285 80.4631 66.5176 69.9324 66.5176 69.9324C66.5176 69.9324 66.1087 68.092 65.8566 66.2143C65.8422 66.1073 65.8291 66.0004 65.8158 65.8935C66.5906 65.8314 67.3683 65.8141 68.145 65.8417C70.148 65.9632 72.1093 65.1936 72.151 64.4241C72.1928 63.6545 73.2777 60.6169 73.4447 59.9283C73.6116 59.2398 73.7368 56.8906 73.4447 56.3236Z" fill="url(#paint0_linear_17_25760)"/>
<path d="M49.0957 134.458V138.208C49.0957 138.208 47.9698 139.499 46.7636 139.861C45.5573 140.224 45.7985 141.192 45.7985 141.192L45.4367 142.765C45.4367 142.765 43.9087 144.136 42.8231 144.58C41.7374 145.023 39.8878 144.66 38.4403 143.531C37.8291 143.055 38.0704 142.041 38.622 140.957C39.3408 139.637 40.2257 138.415 41.2549 137.321C41.7841 136.79 42.0752 135.693 42.2296 134.851C42.3438 134.221 42.3808 133.732 42.3808 133.732L49.0957 134.458Z" fill="#4C495A"/>
<path opacity="0.1" d="M49.0957 137.256V138.208C49.0957 138.208 47.9698 139.498 46.7636 139.861C45.5573 140.224 45.7985 141.192 45.7985 141.192L45.4367 142.765C45.4367 142.765 43.9087 144.136 42.8231 144.58C41.7374 145.023 39.8878 144.66 38.4403 143.531C37.8291 143.055 38.0704 142.041 38.622 140.957C38.5963 142.095 38.9325 143.375 40.5714 143.329C42.3402 143.273 44.0449 142.651 45.4367 141.555C45.4367 141.555 45.3964 138.894 47.2461 138.289C47.9221 138.065 48.5497 137.715 49.0957 137.256Z" fill="black"/>
<path d="M63.8122 144.055C60.8368 144.66 59.7109 141.837 59.7109 141.837C59.7109 141.837 60.0728 139.619 59.1882 138.974C58.6412 138.565 58.1886 138.042 57.8613 137.442V133.732L61.4801 131.151L63.4391 132.89L63.571 133.006C63.571 133.006 64.335 135.546 65.2598 136.761C65.8468 137.532 66.3374 139.095 66.6574 140.39C66.8424 141.136 66.9711 141.792 67.029 142.16C67.1898 143.168 66.7877 143.45 63.8122 144.055Z" fill="#4C495A"/>
<path opacity="0.1" d="M63.8122 144.055C60.8368 144.66 59.7109 141.837 59.7109 141.837C59.7109 141.837 60.0728 139.619 59.1882 138.974C58.6412 138.565 58.1886 138.042 57.8613 137.442V136.004C58.4355 136.613 59.518 137.79 59.7512 138.288C60.0728 138.974 60.113 141.474 61.6008 141.918C63.0885 142.361 65.9835 142.765 66.2248 141.636C66.3251 141.206 66.4701 140.789 66.6574 140.39C66.8424 141.135 66.9711 141.792 67.029 142.16C67.1898 143.168 66.7877 143.45 63.8122 144.055Z" fill="black"/>
<path opacity="0.1" d="M42.3807 133.732L49.0956 134.458V136.44C48.338 136.89 47.2524 137.368 46.6428 136.877C45.7421 136.155 43.0642 135.237 42.2295 134.851C42.3437 134.221 42.3807 133.732 42.3807 133.732Z" fill="black"/>
<path opacity="0.1" d="M63.571 133.328C62.6462 133.006 60.9976 134.417 58.8263 135.304C58.5245 135.447 58.195 135.521 57.8613 135.521V133.732L61.4801 131.151L63.4391 132.89C63.4693 133.04 63.5135 133.187 63.571 133.328Z" fill="black"/>
<path d="M65.9431 88.9299C65.9431 88.9299 65.816 89.5235 65.6343 90.3848C65.2209 92.3447 64.5261 95.695 64.4151 96.5918C64.2543 97.8822 63.7316 100.382 63.7316 100.382C62.5253 102.278 63.2089 104.778 63.2089 104.778C63.4534 105.353 63.4819 105.998 63.2893 106.593C62.9676 107.601 63.0883 107.641 63.0883 107.641C63.0883 107.641 64.2141 108.891 63.6914 109.778C63.1687 110.666 64.4151 112.158 64.4151 112.158L64.1337 121.191L64.4151 127.401C64.4151 127.401 63.4903 128.731 63.8072 129.377C64.124 130.022 63.7718 131.07 63.7718 131.07C63.7718 131.07 63.9326 131.595 63.5708 131.877C63.2089 132.159 63.5708 133.006 63.5708 133.006C62.6459 132.683 60.9974 134.095 58.8261 134.982C56.6548 135.869 57.3786 133.772 57.3786 133.772C57.3786 133.772 55.6898 131.675 56.0517 131.433C56.4136 131.191 57.0167 127.764 57.0167 127.764C55.3279 125.425 56.0517 121.553 56.0517 121.553L56.301 112.524C56.301 112.524 55.9713 111.069 56.2527 110.424C56.5342 109.778 55.4888 108.77 55.4888 108.77C55.4888 108.77 55.7702 107.56 55.4888 107.117C55.2073 106.673 55.1269 105.463 55.1269 105.463C55.1269 105.463 54.4433 101.673 54.4433 100.624C54.4433 99.5759 53.5185 96.1886 53.5185 96.1886C53.8402 93.2851 53.036 92.5592 53.036 92.5592C51.1864 93.4464 52.4329 96.8338 52.4329 98.2452C52.4329 99.6566 51.6287 101.834 51.6287 101.834C51.6287 101.834 51.2668 106.956 50.8245 107.923C50.3822 108.891 50.141 110.988 50.141 110.988C50.141 110.988 50.8647 112.682 50.527 113.529C50.1892 114.376 50.527 118.085 50.527 118.085C50.527 118.085 50.2616 123.529 49.5378 125.304C48.8141 127.078 49.6585 128.328 50.1908 129.175C50.7216 130.022 50.6235 130.99 49.8997 131.433C49.1759 131.877 49.377 132.119 49.9399 132.804C50.5028 133.49 49.9399 135.547 49.9399 135.547C49.9399 135.547 47.648 137.361 46.6428 136.555C45.6376 135.748 42.4208 134.7 42.0187 134.417C41.6167 134.135 41.7373 133.329 42.3404 132.683C42.9436 132.038 42.6219 131.958 42.6219 131.958C41.0135 131.474 42.0187 129.982 42.0187 129.982C42.0187 129.982 43.6673 128.207 42.9838 127.239C42.3002 126.272 42.3002 123.449 42.7425 122.884C43.1848 122.32 42.6621 120.707 42.6621 120.707L41.7019 112.843C41.7019 112.843 41.6569 111.19 42.1796 110.988C42.7023 110.786 43.1044 110.303 42.7023 109.456C42.3002 108.609 43.1446 106.714 43.1446 106.714C43.6271 106.068 42.7827 103.286 41.7775 101.754C40.7723 100.221 41.3754 95.7449 41.3754 95.7449C41.3754 95.7449 40.6114 94.6561 40.6114 94.1319C40.6039 93.7953 40.5215 93.4647 40.3702 93.1641C40.0228 92.6108 40.0903 91.3591 40.2415 90.2623C40.3879 89.2009 40.6114 88.2847 40.6114 88.2847L65.9431 88.9299Z" fill="#5F5D7E"/>
<path d="M58.0622 43.2407L50.141 45.0957C50.141 45.0957 46.2407 41.789 47.2058 40.0146C47.5371 39.4049 47.6834 38.3645 47.7333 37.2644C47.7719 36.4047 47.751 35.5062 47.714 34.7465C47.6577 33.648 47.5676 32.8366 47.5676 32.8366C47.5676 32.8366 55.6899 28.2395 55.4084 32.8366C55.3512 33.6022 55.3689 34.3715 55.4615 35.1336C55.5189 35.6758 55.6765 36.2026 55.9263 36.6869C56.3605 37.4628 56.8961 37.4741 56.8961 37.4741L58.0622 43.2407Z" fill="#FDC2CC"/>
<path opacity="0.1" d="M55.4612 35.1336C54.3164 35.9571 52.9271 36.3672 51.5201 36.2969C50.113 36.2266 48.7712 35.68 47.7137 34.7465C47.6575 33.648 47.5674 32.8366 47.5674 32.8366C47.5674 32.8366 55.6896 28.2395 55.4081 32.8366C55.3509 33.6022 55.3687 34.3715 55.4612 35.1336Z" fill="black"/>
<path d="M51.8296 36.1431C55.2716 36.1431 58.062 33.3447 58.062 29.8926C58.062 26.4405 55.2716 23.6421 51.8296 23.6421C48.3875 23.6421 45.5972 26.4405 45.5972 29.8926C45.5972 33.3447 48.3875 36.1431 51.8296 36.1431Z" fill="#FDC2CC"/>
<path opacity="0.1" d="M58.0622 43.2408L50.141 45.0958C50.141 45.0958 46.2407 41.789 47.2058 40.0147C47.5371 39.405 47.6834 38.3646 47.7333 37.2645C47.9082 38.2211 48.4202 39.0827 49.176 39.6921C50.9854 40.9019 50.7039 42.3939 50.7039 42.3939L53.9609 42.2729C53.7598 40.9422 54.9661 40.2163 55.3682 40.055C55.7703 39.8937 55.5692 39.1679 55.5692 39.1679L55.9263 36.687C56.3605 37.4629 56.8961 37.4742 56.8961 37.4742L58.0622 43.2408Z" fill="black"/>
<path opacity="0.1" d="M65.9433 88.9299C65.9433 88.9299 65.8162 89.5235 65.6345 90.3848C64.7595 90.3381 63.6031 90.3042 63.0884 90.4219C62.2038 90.6236 58.6655 90.7042 58.6655 90.7042L49.8999 91.0155V90.7445C48.8916 90.7527 47.8847 90.82 46.8842 90.9462C45.3965 91.1478 43.0644 90.8655 41.5766 90.6236C41.1187 90.5578 40.6705 90.4364 40.2417 90.2622C40.3881 89.2009 40.6116 88.2847 40.6116 88.2847L65.9433 88.9299Z" fill="black"/>
<path d="M65.2598 63.3227C65.1328 64.076 65.2261 65.3244 65.3869 66.5568C65.6298 68.4263 66.0238 70.2587 66.0238 70.2587C66.0238 70.2587 67.6724 80.7434 66.7476 82.1145C65.8228 83.4856 66.7476 90.1394 66.7476 90.1394C66.7476 90.1394 63.9731 89.8974 63.0885 90.099C62.204 90.3007 58.6656 90.3813 58.6656 90.3813L49.9 90.6926V90.4216C48.8917 90.4298 47.8848 90.4971 46.8843 90.6233C45.3966 90.8249 43.0645 90.5426 41.5768 90.3007C40.089 90.0587 39.4859 89.5748 39.6467 89.3328C39.8076 89.0909 39.4859 82.4774 39.4859 82.4774L39.4457 77.1141C39.4457 77.1141 39.4055 73.3235 40.3303 72.4766C40.7082 72.1314 41.0187 70.8555 41.2551 69.4683C41.5944 67.4601 41.7778 65.218 41.7778 65.218L35.666 48.8054L35.5454 48.4828C35.5454 48.4828 37.3146 45.7406 37.0331 44.4099C36.7517 43.0791 38.6817 41.9096 38.6817 41.9096C38.6817 41.9096 42.3407 40.2966 42.582 39.8127C42.8232 39.3288 45.3564 39.2078 45.3564 39.2078C45.3564 39.2078 46.8039 38.4416 47.0532 37.9448C47.1139 37.806 47.2067 37.6838 47.3239 37.5881C47.4411 37.4924 47.5793 37.4262 47.7271 37.3948C47.8975 38.3631 48.4124 39.2366 49.1762 39.853C50.9857 41.0628 50.7042 42.5549 50.7042 42.5549L53.9611 42.4339C53.7601 41.1031 54.9663 40.3773 55.3684 40.216C55.7705 40.0547 55.5695 39.3288 55.5695 39.3288L55.9458 36.7173C56.1195 36.2834 57.3387 37.9448 57.3387 37.9448C57.3387 37.9448 60.4348 39.0062 60.6358 39.0868C60.8368 39.1675 63.4504 39.974 63.4504 39.974C63.4504 39.974 66.6671 42.071 66.6671 42.5952C66.6671 43.1194 68.4363 45.9422 68.4363 45.9422C68.4363 45.9422 68.4154 46.0552 68.3768 46.2616C67.9683 48.4844 65.5542 61.5887 65.2598 63.3227Z" fill="#1B3A6C"/>
<path d="M52.3927 56.7896C52.3927 56.7896 45.4365 54.9346 44.753 54.4911C44.0694 54.0475 40.0485 56.6283 44.954 60.1367C44.954 60.1367 50.9525 61.3868 52.5572 60.1367C54.1619 58.8866 52.3927 56.7896 52.3927 56.7896Z" fill="#FDC2CC"/>
<path opacity="0.1" d="M67.4307 45.7407L68.2751 45.781L70.7681 52.4751C70.7681 52.4751 72.2558 55.9835 72.5372 56.5481C72.8187 57.1126 72.6981 59.4515 72.5372 60.1371C72.3764 60.8226 71.331 63.847 71.2908 64.6132C71.2506 65.3794 69.3607 66.1456 67.4307 66.0246C65.5007 65.9036 60.9973 66.5085 60.9973 66.5085C60.9973 66.5085 56.1878 66.0044 53.237 67.5167C53.237 67.5167 51.3471 63.6051 51.5482 56.3061C51.5482 56.3061 54.8855 56.1045 55.7299 56.4271C56.5743 56.7497 60.6756 57.6772 61.1983 57.1933C61.721 56.7094 64.0934 58.0804 64.0934 58.0804C64.2141 57.8145 64.2766 57.5258 64.2766 57.2336C64.2766 56.9414 64.2141 56.6527 64.0934 56.3867C63.6913 55.4189 63.0077 52.3945 63.8923 51.4267C64.7769 50.4588 67.4307 45.7407 67.4307 45.7407Z" fill="black"/>
<path opacity="0.1" d="M65.3868 66.5574C63.3908 66.6929 61.1584 66.9929 61.1584 66.9929C61.1584 66.9929 56.3494 66.488 53.3981 68.0011C53.3981 68.0011 51.5083 64.0894 51.7093 56.7905C51.7093 56.7905 55.0467 56.5888 55.891 56.9114C56.7354 57.2341 60.8367 58.1616 61.3595 57.6776C61.8822 57.1937 64.2545 58.5648 64.2545 58.5648C64.3752 58.2989 64.4377 58.0101 64.4377 57.718C64.4377 57.4258 64.3752 57.137 64.2545 56.8711C63.8524 55.9033 63.1688 52.8789 64.0535 51.911C64.9381 50.9432 67.5918 46.2251 67.5918 46.2251L68.3767 46.2622C67.9682 48.485 65.5541 61.5892 65.2597 63.3233C65.1327 64.0765 65.226 65.325 65.3868 66.5574Z" fill="black"/>
<path d="M67.5919 45.9019L68.4362 45.9422L70.9292 52.6363C70.9292 52.6363 72.4169 56.1446 72.6984 56.7092C72.9798 57.2737 72.8592 59.6126 72.6984 60.2982C72.5375 60.9837 71.4921 64.0082 71.4519 64.7743C71.4117 65.5405 69.5219 66.3067 67.5919 66.1858C65.6618 66.0648 61.1584 66.6697 61.1584 66.6697C61.1584 66.6697 56.3489 66.1655 53.3981 67.6778C53.3981 67.6778 51.5083 63.7662 51.7093 56.4672C51.7093 56.4672 55.0467 56.2656 55.891 56.5882C56.7354 56.9108 60.8367 57.8383 61.3595 57.3544C61.8822 56.8705 64.2545 58.2416 64.2545 58.2416C64.3752 57.9757 64.4377 57.6869 64.4377 57.3947C64.4377 57.1026 64.3752 56.8138 64.2545 56.5479C63.8524 55.5801 63.1688 52.5556 64.0535 51.5878C64.9381 50.62 67.5919 45.9019 67.5919 45.9019Z" fill="#1B3A6C"/>
<path d="M59.0968 60.7144L60.1001 61.3374L65.6911 52.2815L64.6878 51.6584L59.0968 60.7144Z" fill="white"/>
<path d="M68.5578 51.0552C69.5459 49.4547 69.4396 47.5938 68.3203 46.8988C67.201 46.2037 65.4926 46.9377 64.5045 48.5381C63.5163 50.1386 63.6227 51.9995 64.742 52.6946C65.8613 53.3896 67.5697 52.6557 68.5578 51.0552Z" fill="white"/>
<path opacity="0.1" d="M67.9857 50.6998C68.695 49.551 68.6186 48.2152 67.8152 47.7163C67.0118 47.2174 65.7855 47.7442 65.0762 48.893C64.367 50.0419 64.4433 51.3776 65.2467 51.8765C66.0502 52.3754 67.2764 51.8486 67.9857 50.6998Z" fill="black"/>
<path d="M56.2389 65.3428L57.2422 65.9658L60.7211 60.331L59.7178 59.708L56.2389 65.3428Z" fill="#53526B"/>
<path d="M50.3421 65.7427L52.7949 65.0572C52.7949 65.0572 64.8978 65.3798 60.8367 60.3794C60.8367 60.3794 58.7056 58.3228 54.2424 59.9761C49.7792 61.6295 48.5327 61.8311 48.5327 61.8311L50.3421 65.7427Z" fill="#FDC2CC"/>
<path opacity="0.1" d="M48.5328 44.6519C48.7993 44.6519 49.0153 44.4352 49.0153 44.168C49.0153 43.9007 48.7993 43.6841 48.5328 43.6841C48.2663 43.6841 48.0503 43.9007 48.0503 44.168C48.0503 44.4352 48.2663 44.6519 48.5328 44.6519Z" fill="black"/>
<path opacity="0.1" d="M56.8155 44.3697C57.082 44.3697 57.298 44.153 57.298 43.8858C57.298 43.6185 57.082 43.4019 56.8155 43.4019C56.549 43.4019 56.333 43.6185 56.333 43.8858C56.333 44.153 56.549 44.3697 56.8155 44.3697Z" fill="black"/>
<path d="M48.5328 44.4908C48.7993 44.4908 49.0153 44.2741 49.0153 44.0069C49.0153 43.7396 48.7993 43.5229 48.5328 43.5229C48.2663 43.5229 48.0503 43.7396 48.0503 44.0069C48.0503 44.2741 48.2663 44.4908 48.5328 44.4908Z" fill="white"/>
<path opacity="0.1" d="M49.2164 51.3462C49.4829 51.3462 49.6989 51.1296 49.6989 50.8623C49.6989 50.5951 49.4829 50.3784 49.2164 50.3784C48.9499 50.3784 48.7339 50.5951 48.7339 50.8623C48.7339 51.1296 48.9499 51.3462 49.2164 51.3462Z" fill="black"/>
<path opacity="0.1" d="M57.0567 50.8624C57.3232 50.8624 57.5392 50.6457 57.5392 50.3784C57.5392 50.1112 57.3232 49.8945 57.0567 49.8945C56.7902 49.8945 56.5742 50.1112 56.5742 50.3784C56.5742 50.6457 56.7902 50.8624 57.0567 50.8624Z" fill="black"/>
<path d="M49.2159 51.1851C49.4824 51.1851 49.6984 50.9685 49.6984 50.7012C49.6984 50.4339 49.4824 50.2173 49.2159 50.2173C48.9494 50.2173 48.7334 50.4339 48.7334 50.7012C48.7334 50.9685 48.9494 51.1851 49.2159 51.1851Z" fill="white"/>
<path opacity="0.1" d="M56.856 74.2134C57.1225 74.2134 57.3386 73.9968 57.3386 73.7295C57.3386 73.4623 57.1225 73.2456 56.856 73.2456C56.5896 73.2456 56.3735 73.4623 56.3735 73.7295C56.3735 73.9968 56.5896 74.2134 56.856 74.2134Z" fill="black"/>
<path opacity="0.1" d="M50.5055 74.2134C50.7719 74.2134 50.988 73.9968 50.988 73.7295C50.988 73.4623 50.7719 73.2456 50.5055 73.2456C50.239 73.2456 50.0229 73.4623 50.0229 73.7295C50.0229 73.9968 50.239 74.2134 50.5055 74.2134Z" fill="black"/>
<path d="M56.856 74.0523C57.1225 74.0523 57.3386 73.8356 57.3386 73.5684C57.3386 73.3011 57.1225 73.0845 56.856 73.0845C56.5896 73.0845 56.3735 73.3011 56.3735 73.5684C56.3735 73.8356 56.5896 74.0523 56.856 74.0523Z" fill="white"/>
<path opacity="0.1" d="M50.9884 82.316C51.2548 82.316 51.4709 82.0993 51.4709 81.8321C51.4709 81.5648 51.2548 81.3481 50.9884 81.3481C50.7219 81.3481 50.5059 81.5648 50.5059 81.8321C50.5059 82.0993 50.7219 82.316 50.9884 82.316Z" fill="black"/>
<path opacity="0.1" d="M57.0567 81.8326C57.3232 81.8326 57.5392 81.6159 57.5392 81.3487C57.5392 81.0814 57.3232 80.8647 57.0567 80.8647C56.7902 80.8647 56.5742 81.0814 56.5742 81.3487C56.5742 81.6159 56.7902 81.8326 57.0567 81.8326Z" fill="black"/>
<path d="M50.9884 82.1553C51.2548 82.1553 51.4709 81.9387 51.4709 81.6714C51.4709 81.4042 51.2548 81.1875 50.9884 81.1875C50.7219 81.1875 50.5059 81.4042 50.5059 81.6714C50.5059 81.9387 50.7219 82.1553 50.9884 82.1553Z" fill="white"/>
<path d="M50.5055 74.0523C50.7719 74.0523 50.988 73.8356 50.988 73.5684C50.988 73.3011 50.7719 73.0845 50.5055 73.0845C50.239 73.0845 50.0229 73.3011 50.0229 73.5684C50.0229 73.8356 50.239 74.0523 50.5055 74.0523Z" fill="white"/>
<path d="M57.0567 81.6714C57.3232 81.6714 57.5392 81.4548 57.5392 81.1875C57.5392 80.9203 57.3232 80.7036 57.0567 80.7036C56.7902 80.7036 56.5742 80.9203 56.5742 81.1875C56.5742 81.4548 56.7902 81.6714 57.0567 81.6714Z" fill="white"/>
<path d="M56.8155 44.2081C57.082 44.2081 57.298 43.9914 57.298 43.7241C57.298 43.4569 57.082 43.2402 56.8155 43.2402C56.549 43.2402 56.333 43.4569 56.333 43.7241C56.333 43.9914 56.549 44.2081 56.8155 44.2081Z" fill="white"/>
<path d="M57.0567 50.7007C57.3232 50.7007 57.5392 50.4841 57.5392 50.2168C57.5392 49.9496 57.3232 49.7329 57.0567 49.7329C56.7902 49.7329 56.5742 49.9496 56.5742 50.2168C56.5742 50.4841 56.7902 50.7007 57.0567 50.7007Z" fill="white"/>
<path opacity="0.1" d="M57.7808 67.1938C57.7808 67.1938 57.8612 78.2431 58.1024 80.2191C58.1024 80.2191 58.19 67.7147 57.7808 67.1938Z" fill="black"/>
<path opacity="0.1" d="M59.8314 72.3159C59.6657 72.3159 63.1286 85.2605 63.2894 86.188C63.4502 87.1155 60.7965 72.3159 59.8314 72.3159Z" fill="black"/>
<path opacity="0.1" d="M62.5654 70.2188C62.5654 70.3397 64.4955 77.2354 65.4605 77.5984C66.4255 77.9613 62.5654 70.2188 62.5654 70.2188Z" fill="black"/>
<path opacity="0.1" d="M70.1648 56.79C70.1648 56.79 66.0635 56.9734 65.9429 57.5673C65.8223 58.1611 70.1648 56.79 70.1648 56.79Z" fill="black"/>
<path opacity="0.1" d="M62.9275 109.375C62.9275 109.375 59.9923 110.625 60.4346 110.706C60.8769 110.786 62.9275 109.375 62.9275 109.375Z" fill="black"/>
<path opacity="0.1" d="M56.8561 107.52C56.7418 107.262 58.8263 108.568 58.8263 108.73C58.8263 108.891 57.0169 107.883 56.8561 107.52Z" fill="black"/>
<path opacity="0.1" d="M59.5898 111.755C59.5898 111.755 61.8817 111.639 62.0426 112.523C62.2034 113.408 59.5898 111.755 59.5898 111.755Z" fill="black"/>
<path opacity="0.1" d="M43.1045 111.75C43.1045 111.75 45.5974 111.261 45.7985 111.75C45.9995 112.238 43.1045 111.75 43.1045 111.75Z" fill="black"/>
<path opacity="0.1" d="M44.029 126.957C44.029 126.957 44.1925 129.014 43.588 129.498C42.9836 129.981 44.029 126.957 44.029 126.957Z" fill="black"/>
<path opacity="0.1" d="M43.7246 131.312C44.5116 131.393 48.6531 130.667 48.6129 131.312C48.5727 131.957 43.7246 131.312 43.7246 131.312Z" fill="black"/>
<path opacity="0.1" d="M62.7262 128.812C62.7262 128.812 61.3137 128.594 61.6581 129.55L62.7262 128.812Z" fill="black"/>
<path opacity="0.1" d="M36.47 48.3214H35.706L34.5399 52.596C34.5399 52.596 34.1378 54.088 33.7357 54.451C33.3337 54.8139 34.0976 58.1206 34.0976 58.1206C34.0976 58.1206 33.6553 60.4595 33.2935 61.0644C32.9316 61.6693 33.8564 63.1614 33.8564 63.1614L35.706 67.5165L40.6115 68.807C40.6115 68.807 49.2564 70.7023 49.6585 70.9846C50.0606 71.2669 50.4225 70.8636 50.7039 68.2424C50.9854 65.6212 51.7494 60.5402 52.3525 60.2982C52.3525 60.2982 47.5274 60.8225 47.1253 60.7418C46.7232 60.6612 44.7932 60.7821 44.7932 60.7821C44.7932 60.7821 42.26 60.6208 41.858 60.8628C41.4559 61.1047 42.3807 59.6915 42.3807 59.6915C42.55 59.0444 42.55 58.3645 42.3807 57.7174C42.0992 56.6286 41.9384 44.2889 36.47 48.3214Z" fill="black"/>
<path opacity="0.1" d="M52.1919 60.7826C51.5888 61.0246 50.8248 66.1056 50.5433 68.7268C50.2619 71.348 49.9 71.7512 49.4979 71.469C49.1714 71.2399 43.4087 69.9462 41.2551 69.4688C41.5944 67.4606 41.7778 65.2184 41.7778 65.2184L35.666 48.8058H36.3094C41.7778 44.7732 41.9386 57.1129 42.2201 58.2017C42.3894 58.8489 42.3894 59.5289 42.2201 60.1761C42.2201 60.1761 41.2953 61.5891 41.6974 61.3472C42.0995 61.1052 44.6326 61.2665 44.6326 61.2665C44.6326 61.2665 46.5626 61.1455 46.9647 61.2262C47.3668 61.3068 52.1919 60.7826 52.1919 60.7826Z" fill="black"/>
<path d="M36.3093 48.4826H35.5453L34.3793 52.7571C34.3793 52.7571 33.9772 54.2492 33.5751 54.6121C33.173 54.975 33.937 58.2818 33.937 58.2818C33.937 58.2818 33.4947 60.6207 33.1328 61.2256C32.7709 61.8304 33.6957 63.3225 33.6957 63.3225L35.5453 67.6777L40.4508 68.9681C40.4508 68.9681 49.0958 70.8634 49.4979 71.1457C49.8999 71.428 50.2618 71.0247 50.5433 68.4036C50.8248 65.7824 51.5887 60.7013 52.1919 60.4594C52.1919 60.4594 47.3668 60.9836 46.9647 60.903C46.5626 60.8223 44.6326 60.9433 44.6326 60.9433C44.6326 60.9433 42.0994 60.782 41.6973 61.0239C41.2952 61.2659 42.22 59.8527 42.22 59.8527C42.3893 59.2056 42.3893 58.5256 42.22 57.8785C41.9386 56.7897 41.7777 44.45 36.3093 48.4826Z" fill="#1B3A6C"/>
<path opacity="0.1" d="M38.923 63.0806C38.923 63.0806 36.7115 67.2744 36.3094 66.7905C35.9073 66.3066 38.923 63.0806 38.923 63.0806Z" fill="black"/>
<path opacity="0.1" d="M36.631 60.6924C36.631 60.6924 34.5803 62.395 35.5453 62.8386C36.5103 63.2822 36.631 60.6924 36.631 60.6924Z" fill="black"/>
<path opacity="0.1" d="M38.561 58.6045C38.7219 58.6448 41.5365 59.2055 41.5767 59.4494C41.6169 59.6933 38.561 58.6045 38.561 58.6045Z" fill="black"/>
<path opacity="0.1" d="M58.08 29.0636C57.9926 29.0945 57.918 29.1538 57.8681 29.2322C57.8183 29.3105 57.796 29.4034 57.805 29.4959C57.6409 29.6411 57.4109 29.4701 57.2774 29.2846C57.1423 29.1007 56.9896 28.8733 56.7853 28.8991C56.6883 28.9301 56.5941 28.9695 56.5038 29.0168C56.1822 29.1201 55.9103 28.741 55.7302 28.4087C55.4166 27.8264 55.1029 27.2446 54.7893 26.6634C54.1604 27.0296 53.4174 26.6457 52.7933 26.2666C52.1693 25.8875 51.4262 25.502 50.7958 25.8682C49.871 26.4037 49.8372 28.1893 48.8786 28.6297C48.5698 28.7716 48.2111 28.741 47.9248 28.9362C47.6417 29.1297 47.489 29.5023 47.3619 29.8588C47.3149 30.0618 47.2044 30.2443 47.0467 30.3798C46.9464 30.4324 46.8349 30.4595 46.7218 30.4589C46.4376 30.5073 46.1454 30.4662 45.8854 30.3411C45.7492 30.2553 45.6462 30.1253 45.5936 29.9728C45.5409 29.8203 45.5418 29.6543 45.5959 29.5023C45.6035 29.4862 45.6121 29.4706 45.6217 29.4556C45.7247 29.3307 45.8172 29.1974 45.8983 29.0572C45.9948 28.8007 45.8565 28.5023 45.887 28.2248C45.9369 27.7506 46.4371 27.5006 46.5223 27.0344C46.5577 26.8521 46.5207 26.657 46.5545 26.4731C46.5592 26.449 46.5657 26.4253 46.5738 26.4021L46.2795 26.6053C46.6092 26.2198 46.7749 25.6843 47.0161 25.2165C47.2841 24.7043 47.6529 24.252 48.1002 23.8869C48.5475 23.5217 49.064 23.2514 49.6184 23.0921C50.6671 22.7857 51.7752 22.8695 52.8335 23.1293C53.8399 23.3807 54.8039 23.7791 55.6948 24.3116C56.0131 24.4828 56.2958 24.7133 56.5279 24.9907C56.7224 25.2783 56.8878 25.5847 57.0217 25.9053C57.3337 26.5537 58.1862 27.1538 57.5074 27.2441C56.9429 27.3199 57.4576 27.7167 57.7535 27.9845C57.8203 28.037 57.8779 28.1002 57.924 28.1716C57.9731 28.2736 57.9957 28.3865 57.9895 28.4996C57.9833 28.6127 57.9486 28.7224 57.8886 28.8184C57.7744 28.9636 58.2376 28.9926 58.08 29.0636Z" fill="black"/>
<path d="M58.08 28.9025C57.9926 28.9333 57.918 28.9927 57.8681 29.071C57.8183 29.1494 57.796 29.2423 57.805 29.3348C57.6409 29.48 57.4109 29.309 57.2774 29.1235C57.1423 28.9396 56.9896 28.7121 56.7853 28.7379C56.6883 28.769 56.5941 28.8084 56.5038 28.8557C56.1822 28.9589 55.9103 28.5799 55.7302 28.2476C55.4166 27.6653 55.1029 27.0835 54.7893 26.5023C54.1604 26.8684 53.4174 26.4845 52.7933 26.1055C52.1693 25.7264 51.4262 25.3409 50.7958 25.7071C49.871 26.2426 49.8372 28.0282 48.8786 28.4686C48.5698 28.6105 48.2111 28.5799 47.9248 28.7751C47.6418 28.9686 47.489 29.3412 47.3619 29.6977C47.3149 29.9006 47.2044 30.0832 47.0467 30.2187C46.9464 30.2713 46.8349 30.2984 46.7218 30.2978C46.4376 30.3462 46.1454 30.3051 45.8854 30.18C45.7492 30.0941 45.6462 29.9642 45.5936 29.8117C45.5409 29.6592 45.5418 29.4932 45.5959 29.3412C45.6035 29.3251 45.6121 29.3095 45.6217 29.2944C45.7247 29.1695 45.8172 29.0363 45.8983 28.896C45.9948 28.6396 45.8565 28.3411 45.887 28.0637C45.9369 27.5895 46.4371 27.3394 46.5223 26.8733C46.5577 26.691 46.5207 26.4958 46.5545 26.3119C46.5592 26.2879 46.5657 26.2641 46.5738 26.241L46.2795 26.4442C46.6092 26.0587 46.7749 25.5232 47.0161 25.0554C47.2841 24.5432 47.6529 24.0909 48.1002 23.7257C48.5475 23.3606 49.064 23.0902 49.6184 22.931C50.6671 22.6245 51.7752 22.7084 52.8335 22.9681C53.8399 23.2196 54.804 23.6179 55.6948 24.1505C56.0131 24.3216 56.2958 24.5521 56.5279 24.8296C56.7224 25.1172 56.8878 25.4236 57.0217 25.7441C57.3337 26.3926 58.1862 26.9926 57.5075 27.083C56.9429 27.1588 57.4576 27.5556 57.7535 27.8234C57.8203 27.8759 57.8779 27.9391 57.924 28.0105C57.9731 28.1125 57.9957 28.2253 57.9895 28.3385C57.9833 28.4516 57.9486 28.5613 57.8886 28.6573C57.7744 28.8025 58.2376 28.8315 58.08 28.9025Z" fill="#865A61"/>
<path opacity="0.1" d="M57.7534 27.8234L57.6891 28.5025C57.6891 28.5025 50.9404 19.9243 45.6908 29.6106C45.6908 29.6106 45.665 29.4928 45.6216 29.2944C45.7246 29.1695 45.8171 29.0363 45.8982 28.896C45.9947 28.6396 45.8564 28.3411 45.887 28.0637C45.9368 27.5895 46.437 27.3394 46.5223 26.8733C46.5576 26.691 46.5207 26.4958 46.5544 26.3119C46.5591 26.2879 46.5656 26.2641 46.5737 26.241L46.2794 26.4442C46.6091 26.0587 46.7748 25.5232 47.016 25.0554C47.284 24.5432 47.6528 24.0909 48.1001 23.7257C48.5474 23.3606 49.0639 23.0902 49.6184 22.931C50.667 22.6245 51.7752 22.7084 52.8335 22.9681C53.8398 23.2196 54.8039 23.6179 55.6947 24.1505C56.013 24.3216 56.2957 24.5521 56.5279 24.8296C56.7223 25.1172 56.8878 25.4236 57.0216 25.7441C57.3337 26.3926 58.1861 26.9926 57.5074 27.083C56.9428 27.1588 57.4575 27.5556 57.7534 27.8234Z" fill="black"/>
<g opacity="0.1">
<path d="M57.9199 28.8148C57.8866 28.8523 57.8624 28.897 57.8491 28.9455C57.8358 28.9939 57.8339 29.0447 57.8434 29.094C57.6793 29.2392 57.4493 29.0682 57.3158 28.8827C57.1807 28.6988 57.0279 28.4714 56.8237 28.4972C56.7266 28.5282 56.6325 28.5676 56.5422 28.6149C56.2205 28.7182 55.9487 28.3391 55.7686 28.0068C55.455 27.4245 55.1413 26.8428 54.8277 26.2615C54.1988 26.6277 53.4558 26.2438 52.8317 25.8647C52.2077 25.4856 51.4646 25.1001 50.8342 25.4663C49.9093 26.0018 49.8756 27.7875 48.917 28.2278C48.6082 28.3698 48.2495 28.3391 47.9632 28.5343C47.6801 28.7279 47.5274 29.1005 47.4003 29.4569C47.3533 29.6599 47.2428 29.8424 47.0851 29.978C46.9848 30.0305 46.8733 30.0577 46.7602 30.057C46.4759 30.1054 46.1838 30.0643 45.9238 29.9392C45.768 29.8356 45.6563 29.6775 45.6104 29.4958C45.5785 29.6403 45.5914 29.7912 45.6474 29.9281C45.7034 30.065 45.7999 30.1815 45.9238 30.2618C46.1838 30.3869 46.4759 30.428 46.7602 30.3796C46.8733 30.3803 46.9848 30.3531 47.0851 30.3006C47.2428 30.165 47.3533 29.9825 47.4003 29.7796C47.5274 29.4231 47.6801 29.0505 47.9632 28.8569C48.2495 28.6617 48.6082 28.6924 48.917 28.5504C49.8756 28.1101 49.9093 26.3244 50.8342 25.7889C51.4646 25.4227 52.2077 25.8083 52.8317 26.1873C53.4558 26.5664 54.1988 26.9503 54.8277 26.5841C55.1413 27.1648 55.4549 27.7466 55.7686 28.3294C55.9487 28.6617 56.2205 29.0408 56.5422 28.9376C56.6325 28.8902 56.7266 28.8508 56.8237 28.8198C57.0279 28.794 57.1807 29.0214 57.3158 29.2053C57.4493 29.3908 57.6793 29.5618 57.8434 29.4166C57.8344 29.3241 57.8567 29.2312 57.9065 29.1529C57.9564 29.0745 58.031 29.0152 58.1184 28.9843C58.2438 28.9279 57.9771 28.8978 57.9199 28.8148Z" fill="black"/>
<path d="M57.3938 27.2034C57.4425 27.1838 57.4936 27.1709 57.5457 27.165C57.8449 27.1251 57.8462 26.986 57.7277 26.7876C57.6714 26.8181 57.6094 26.8367 57.5457 26.8423C57.2228 26.8857 57.2534 27.0342 57.3938 27.2034Z" fill="black"/>
<path d="M58.0102 28.5542C58.0326 28.4502 58.032 28.3425 58.0085 28.2388C57.9942 28.3031 57.9664 28.3636 57.927 28.4163C57.8766 28.4804 57.9387 28.5218 58.0102 28.5542Z" fill="black"/>
<path d="M45.9345 28.0898C45.9311 28.1083 45.9272 28.1265 45.9252 28.1456C45.9187 28.2909 45.9292 28.4364 45.9566 28.5792C45.9756 28.416 45.9681 28.2507 45.9345 28.0898Z" fill="black"/>
<path d="M46.5877 26.1221C46.512 26.2659 46.4216 26.4014 46.3179 26.5264L46.5775 26.3471C46.5762 26.272 46.5796 26.1968 46.5877 26.1221Z" fill="black"/>
</g>
<path d="M45.6904 29.4488C45.6904 29.4488 44.7199 25.0978 45.0287 24.4C45.0287 24.4 44.1906 22.676 44.1906 22.2656C44.1499 21.5806 43.9375 20.917 43.573 20.3364C43.1319 19.6386 42.6466 16.3959 45.2934 15.616C47.9401 14.8361 49.9693 14.1383 50.2781 13.6047C50.5869 13.0711 55.1305 13.3995 56.3656 15.4518C57.6008 17.5041 58.3948 17.0937 58.3948 17.0937C58.3948 17.0937 60.2916 18.284 60.2916 19.3512C60.2916 20.4185 59.7182 20.9521 60.2916 21.1984C60.8651 21.4446 60.424 25.8777 57.9096 26.0008L57.689 28.3405C57.689 28.3405 50.9398 19.7617 45.6904 29.4488Z" fill="#1B3A6C"/>
<path opacity="0.1" d="M45.9795 16.4644C45.9795 16.4644 45.3965 19.8921 46.462 21.0413L45.9795 16.4644Z" fill="black"/>
<path opacity="0.1" d="M48.7138 15.6782C48.7138 15.6782 47.2261 19.3479 47.588 20.0536L48.7138 15.6782Z" fill="black"/>
<path opacity="0.1" d="M50.0004 14.5088C50.0004 14.5088 48.9952 19.2874 49.4777 19.6705L50.0004 14.5088Z" fill="black"/>
<path opacity="0.1" d="M51.7295 15.7988C51.7295 15.7988 50.483 18.8636 50.9856 19.287L51.7295 15.7988Z" fill="black"/>
<path opacity="0.1" d="M54.0814 16.1616C54.0814 16.1616 52.6138 18.6618 52.9153 19.1054L54.0814 16.1616Z" fill="black"/>
<path opacity="0.1" d="M57.0971 18.6016C57.0971 18.6016 55.529 19.025 55.8506 19.5291L57.0971 18.6016Z" fill="black"/>
<path opacity="0.1" d="M58.5851 21.2026C58.5851 21.2026 57.1777 21.8882 57.4391 22.2511L58.5851 21.2026Z" fill="black"/>
<path opacity="0.1" d="M45.0288 24.4004C45.0288 24.4004 54.0176 20.7387 57.9097 26.0013C57.9097 26.0013 53.1854 21.9729 45.0288 24.4004Z" fill="black"/>
<path d="M41.7803 54.4885L43.0328 53.2178L46.574 56.7283L45.3215 57.9992L42.0647 54.7706L41.7803 54.4885Z" fill="#53526B"/>
<path d="M33.5635 46.3423C33.5635 46.3423 39.0454 46.8101 44.1475 52.5696L42.021 54.7271L33.5635 46.3423Z" fill="white"/>
<path d="M50.0062 56.6402C50.0062 56.6402 44.7373 54.7139 44.2195 54.2532C43.7018 53.7926 40.6562 56.4727 44.3718 60.1159C44.3718 60.1159 48.9153 61.4141 50.1308 60.1159C51.3463 58.8177 50.0062 56.6402 50.0062 56.6402Z" fill="#FDC2CC"/>
<path d="M116.598 61.1544C116.322 60.6183 114.865 57.2871 114.865 57.2871L112.423 50.9309C112.423 50.9309 110.69 48.2506 110.69 47.7528C110.69 47.2551 107.539 45.264 107.539 45.264C107.539 45.264 104.979 44.4982 104.782 44.4216C104.585 44.345 101.552 43.3372 101.552 43.3372C101.552 43.3372 100.358 41.7597 100.188 42.1717L100.187 42.1727C100.181 42.1623 100.175 42.1533 100.169 42.1426C99.9247 41.6846 99.7701 41.184 99.7134 40.6676C99.7069 40.6218 99.7013 40.5733 99.6955 40.5255C100.482 39.99 101.127 39.2698 101.574 38.4275C102.021 37.5851 102.257 36.646 102.261 35.6915C102.26 35.4402 102.243 35.1892 102.21 34.94C102.232 34.9265 102.255 34.9145 102.278 34.9042C102.327 34.8828 102.315 34.8654 102.279 34.8473C102.291 34.8408 102.303 34.8339 102.316 34.8286C102.381 34.8001 102.338 34.7786 102.274 34.753L102.278 34.7511C102.367 34.7123 102.255 34.6866 102.164 34.6456C102.16 34.6191 102.155 34.5925 102.15 34.5661C102.17 34.5157 102.182 34.4625 102.186 34.4083C102.194 34.4123 102.201 34.4167 102.21 34.4204C102.232 34.3217 102.231 34.2193 102.208 34.1209C102.203 34.1409 102.196 34.1605 102.188 34.1797C102.193 34.0904 102.175 34.0013 102.135 33.9216C102.094 33.8419 102.033 33.7745 101.958 33.7264C101.954 33.7224 101.949 33.7182 101.944 33.7142L102.111 31.9964C104.574 31.8795 105.006 27.6702 104.445 27.4364C103.883 27.2025 104.445 26.6959 104.445 25.6825C104.445 24.6692 102.587 23.5389 102.587 23.5389C102.587 23.5389 101.809 23.9286 100.599 21.9799C99.3891 20.0312 94.9384 19.7194 94.6359 20.2261C94.3334 20.7327 92.3458 21.3953 89.7531 22.1358C87.1605 22.8763 87.6358 25.9553 88.0679 26.6179C88.4239 27.1657 88.6323 27.7968 88.6728 28.4497C88.6728 28.8395 89.4939 30.4764 89.4939 30.4764C89.2349 31.0436 89.8939 34.151 90.0891 35.0341C90.086 35.0613 90.0827 35.0883 90.08 35.1156C90.0784 35.1183 90.0762 35.1205 90.0746 35.1232C90.0653 35.1375 90.0569 35.1523 90.0494 35.1677C90.0075 35.2592 89.9936 35.3611 90.0096 35.4606C89.9953 35.5693 90.0104 35.6799 90.0533 35.7807C90.0681 36.6127 90.2598 37.432 90.6154 38.1836C90.971 38.9352 91.4824 39.6018 92.1153 40.1387C92.1184 40.1918 92.1214 40.2453 92.1243 40.3001C92.1605 41.0214 92.181 41.8745 92.1432 42.6909C92.1412 42.7327 92.1381 42.7736 92.1359 42.8151C91.993 42.8442 91.8588 42.9065 91.7444 42.9972C91.6299 43.0879 91.5382 43.2044 91.4768 43.3372C91.2326 43.809 89.8146 44.5365 89.8146 44.5365C89.8146 44.5365 87.3333 44.6513 87.097 45.1108C86.8607 45.5703 83.2764 47.1019 83.2764 47.1019C83.2764 47.1019 81.3859 48.2123 81.6616 49.4759C81.8056 50.1362 81.4012 51.1619 80.9822 51.9913C80.1057 51.6574 79.1931 51.4288 78.2632 51.3103L80.2711 53.2399C80.2291 53.3059 80.2043 53.3432 80.2043 53.3432L79.062 57.4019C79.062 57.4019 78.6682 58.8187 78.2743 59.1633C77.8804 59.5079 78.6288 62.6477 78.6288 62.6477C78.6288 62.6477 78.1955 64.8685 77.8411 65.4429C77.4866 66.0172 78.3925 67.434 78.3925 67.434L80.2043 71.5693L85.0095 72.7946C85.0095 72.7946 85.3297 72.8626 85.8471 72.9739C85.8308 73.0728 85.8142 73.1712 85.7972 73.2693C85.5656 74.5865 85.2615 75.798 84.8913 76.1258C83.9854 76.9299 84.0248 80.5291 84.0248 80.5291L84.0642 85.6217C84.0642 85.6217 84.3793 91.9013 84.2217 92.1311C84.1223 92.2761 84.3218 92.5125 84.8484 92.7251C84.8333 92.8196 84.8185 92.9155 84.8046 93.0133C84.6565 94.0547 84.5904 95.2433 84.9307 95.7686C85.0785 96.0527 85.1593 96.3671 85.167 96.6876C85.167 97.1854 85.9154 98.2192 85.9154 98.2192C85.9154 98.2192 85.3245 102.469 86.3092 103.924C87.2939 105.379 88.121 108.021 87.6484 108.634C87.6484 108.634 86.8213 110.434 87.2151 111.238C87.609 112.042 87.2151 112.501 86.7031 112.693C86.1911 112.884 86.2352 114.454 86.2352 114.454L87.1757 121.921C87.1757 121.921 87.6878 123.452 87.2545 123.988C86.8213 124.524 86.8212 127.205 87.4908 128.124C88.1604 129.043 86.5455 130.727 86.5455 130.727C86.5455 130.727 85.5609 132.144 87.1363 132.604C87.1363 132.604 87.4514 132.68 86.8606 133.293C86.2698 133.906 86.1517 134.671 86.5455 134.939C86.6272 134.989 86.7126 135.031 86.801 135.067C86.7864 135.158 86.7706 135.252 86.7519 135.351C86.6007 136.151 86.3155 137.192 85.7972 137.696C84.7926 138.73 83.9257 139.891 83.2181 141.148C82.6777 142.178 82.4414 143.141 83.0401 143.593C84.458 144.665 86.2698 145.01 87.3333 144.588C88.3967 144.167 89.8934 142.865 89.8934 142.865L90.2479 141.372C90.2479 141.372 90.0116 140.453 91.1932 140.109C92.3748 139.764 93.4776 138.539 93.4776 138.539V136.554C93.7637 136.389 94.0399 136.208 94.3047 136.012C94.3047 136.012 94.8562 134.059 94.3047 133.408C93.7533 132.757 93.5564 132.527 94.2654 132.106C94.9743 131.685 95.0704 130.766 94.5505 129.962C94.029 129.158 93.2019 127.971 93.9109 126.286C94.6198 124.601 94.8798 119.432 94.8798 119.432C94.8798 119.432 94.5489 115.909 94.8798 115.105C95.2106 114.301 94.5017 112.693 94.5017 112.693C94.5017 112.693 94.738 110.702 95.1713 109.783C95.6045 108.864 95.959 104.001 95.959 104.001C95.959 104.001 96.7467 101.933 96.7467 100.593C96.7467 99.253 95.5257 96.0367 97.3375 95.1943C97.3375 95.1943 98.1253 95.8835 97.8102 98.6404C97.8102 98.6404 98.7161 101.857 98.7161 102.852C98.7161 103.848 99.3856 107.447 99.3856 107.447C99.3856 107.447 99.4644 108.596 99.7401 109.017C100.016 109.438 99.7401 110.587 99.7401 110.587C99.7401 110.587 100.764 111.544 100.488 112.157C100.213 112.769 100.536 114.151 100.536 114.151L100.292 122.725C100.292 122.725 99.5826 126.401 101.237 128.622C101.237 128.622 100.646 131.876 100.292 132.106C99.937 132.336 101.591 134.327 101.591 134.327C101.591 134.327 101.133 135.617 102.064 135.68V137.811C102.387 138.385 102.831 138.881 103.364 139.266C104.23 139.879 103.876 141.985 103.876 141.985C103.876 141.985 104.979 144.665 107.893 144.091C110.808 143.516 111.202 143.248 111.044 142.291C110.987 141.942 110.861 141.319 110.68 140.611C110.367 139.381 109.886 137.897 109.311 137.165C108.405 136.012 107.657 133.599 107.657 133.599C107.657 133.599 107.302 132.795 107.657 132.527C108.011 132.259 107.854 131.761 107.854 131.761C107.854 131.761 108.199 130.766 107.888 130.153C107.578 129.541 108.484 128.277 108.484 128.277L108.208 122.38L108.484 113.803C108.484 113.803 107.263 112.387 107.775 111.544C108.287 110.702 107.184 109.515 107.184 109.515C107.184 109.515 107.066 109.476 107.381 108.519C107.57 107.955 107.542 107.341 107.302 106.796C107.302 106.796 106.633 104.422 107.814 102.623C107.814 102.623 108.326 100.249 108.484 99.0233C108.593 98.1717 109.273 94.9906 109.678 93.1297C109.701 93.0245 109.723 92.9238 109.744 92.8276C110.327 92.8596 110.768 92.8969 110.768 92.8969C110.768 92.8969 109.863 86.579 110.768 85.2772C111.674 83.9753 110.059 74.0199 110.059 74.0199C110.059 74.0199 109.673 72.28 109.436 70.5048C109.422 70.4037 109.41 70.3027 109.397 70.2016C110.128 70.1429 110.862 70.1265 111.596 70.1526C113.486 70.2675 115.337 69.5399 115.377 68.8124C115.416 68.0849 116.44 65.2132 116.598 64.5622C116.755 63.9113 116.873 61.6904 116.598 61.1544Z" fill="url(#paint1_linear_17_25760)"/>
<path d="M93.6156 135.02V138.566C93.6156 138.566 92.5529 139.786 91.4143 140.129C90.2758 140.472 90.5035 141.387 90.5035 141.387L90.1619 142.874C90.1619 142.874 88.7198 144.17 87.6951 144.589C86.6704 145.008 84.9246 144.665 83.5583 143.598C82.9814 143.148 83.2092 142.189 83.7299 141.164C84.4083 139.916 85.2435 138.761 86.2149 137.727C86.7144 137.225 86.9892 136.188 87.1349 135.392C87.2427 134.796 87.2776 134.334 87.2776 134.334L93.6156 135.02Z" fill="#4C495A"/>
<path opacity="0.1" d="M93.6156 137.666V138.566C93.6156 138.566 92.5529 139.786 91.4143 140.129C90.2758 140.472 90.5035 141.387 90.5035 141.387L90.1619 142.874C90.1619 142.874 88.7198 144.17 87.6951 144.589C86.6704 145.009 84.9246 144.665 83.5583 143.598C82.9814 143.148 83.2092 142.189 83.7299 141.164C83.7056 142.241 84.0229 143.45 85.5698 143.407C87.2393 143.354 88.8483 142.766 90.1619 141.73C90.1619 141.73 90.124 139.214 91.8698 138.642C92.5079 138.43 93.1002 138.099 93.6156 137.666Z" fill="black"/>
<path d="M107.506 144.093C104.697 144.665 103.634 141.997 103.634 141.997C103.634 141.997 103.976 139.9 103.141 139.29C102.625 138.903 102.198 138.409 101.889 137.841V134.334L105.304 131.894L107.153 133.538L107.278 133.648C107.278 133.648 107.999 136.049 108.872 137.198C109.426 137.927 109.889 139.404 110.191 140.629C110.366 141.333 110.487 141.954 110.542 142.302C110.693 143.255 110.314 143.522 107.506 144.093Z" fill="#4C495A"/>
<path opacity="0.1" d="M107.506 144.094C104.697 144.666 103.634 141.997 103.634 141.997C103.634 141.997 103.976 139.9 103.141 139.29C102.625 138.903 102.198 138.409 101.889 137.842V136.483C102.431 137.058 103.452 138.171 103.672 138.642C103.976 139.29 104.014 141.654 105.418 142.073C106.822 142.493 109.555 142.874 109.783 141.806C109.877 141.401 110.014 141.006 110.191 140.629C110.366 141.334 110.487 141.954 110.542 142.302C110.693 143.255 110.314 143.522 107.506 144.094Z" fill="black"/>
<path opacity="0.1" d="M87.2774 134.334L93.6154 135.02V136.894C92.9004 137.32 91.8757 137.771 91.3003 137.308C90.4502 136.624 87.9226 135.757 87.1348 135.392C87.2425 134.796 87.2774 134.334 87.2774 134.334Z" fill="black"/>
<path opacity="0.1" d="M107.278 133.953C106.405 133.648 104.849 134.982 102.8 135.821C102.515 135.956 102.204 136.025 101.889 136.025V134.334L105.304 131.894L107.153 133.538C107.182 133.68 107.224 133.819 107.278 133.953Z" fill="black"/>
<path d="M109.517 91.9791C109.517 91.9791 109.397 92.5403 109.226 93.3546C108.836 95.2074 108.18 98.3747 108.075 99.2225C107.923 100.442 107.43 102.806 107.43 102.806C106.291 104.598 106.937 106.962 106.937 106.962C107.167 107.505 107.194 108.115 107.013 108.677C106.709 109.63 106.823 109.668 106.823 109.668C106.823 109.668 107.885 110.85 107.392 111.689C106.899 112.528 108.075 113.938 108.075 113.938L107.81 122.478L108.075 128.349C108.075 128.349 107.202 129.607 107.501 130.217C107.8 130.827 107.468 131.818 107.468 131.818C107.468 131.818 107.62 132.313 107.278 132.58C106.937 132.847 107.278 133.648 107.278 133.648C106.405 133.343 104.849 134.677 102.8 135.516C100.75 136.354 101.434 134.372 101.434 134.372C101.434 134.372 99.8396 132.39 100.181 132.161C100.523 131.932 101.092 128.692 101.092 128.692C99.498 126.481 100.181 122.821 100.181 122.821L100.416 114.284C100.416 114.284 100.105 112.909 100.371 112.299C100.637 111.689 99.6499 110.736 99.6499 110.736C99.6499 110.736 99.9155 109.592 99.6499 109.173C99.3842 108.753 99.3083 107.61 99.3083 107.61C99.3083 107.61 98.6631 104.026 98.6631 103.035C98.6631 102.044 97.7902 98.8413 97.7902 98.8413C98.0938 96.0964 97.3348 95.4102 97.3348 95.4102C95.589 96.2489 96.7655 99.4513 96.7655 100.786C96.7655 102.12 96.0065 104.179 96.0065 104.179C96.0065 104.179 95.6649 109.02 95.2474 109.935C94.83 110.85 94.6023 112.832 94.6023 112.832C94.6023 112.832 95.2854 114.434 94.9666 115.234C94.6478 116.035 94.9666 119.542 94.9666 119.542C94.9666 119.542 94.7161 124.689 94.033 126.366C93.3499 128.044 94.1468 129.225 94.6493 130.026C95.1503 130.827 95.0577 131.742 94.3745 132.161C93.6914 132.58 93.8812 132.809 94.4125 133.457C94.9438 134.105 94.4125 136.049 94.4125 136.049C94.4125 136.049 92.2492 137.765 91.3005 137.003C90.3517 136.24 87.3155 135.249 86.936 134.982C86.5565 134.715 86.6703 133.953 87.2396 133.343C87.8089 132.733 87.5053 132.657 87.5053 132.657C85.9872 132.199 86.936 130.788 86.936 130.788C86.936 130.788 88.492 129.111 87.8468 128.196C87.2017 127.281 87.2017 124.613 87.6191 124.079C88.0366 123.545 87.5432 122.02 87.5432 122.02L86.6369 114.586C86.6369 114.586 86.5944 113.023 87.0878 112.832C87.5812 112.642 87.9607 112.184 87.5812 111.384C87.2016 110.583 87.9986 108.791 87.9986 108.791C88.4541 108.181 87.6571 105.551 86.7083 104.102C85.7595 102.654 86.3288 98.4219 86.3288 98.4219C86.3288 98.4219 85.6077 97.3926 85.6077 96.897C85.6006 96.5788 85.5228 96.2662 85.38 95.9821C85.0521 95.459 85.1158 94.2757 85.2585 93.2387C85.3967 92.2353 85.6077 91.3691 85.6077 91.3691L109.517 91.9791Z" fill="#5F5D7E"/>
<path d="M102.079 48.7854L94.6024 50.5391C94.6024 50.5391 90.9211 47.413 91.8319 45.7356C92.1446 45.1591 92.2828 44.1756 92.3298 43.1356C92.3663 42.3228 92.3465 41.4734 92.3116 40.7551C92.2585 39.7167 92.1735 38.9496 92.1735 38.9496C92.1735 38.9496 99.8397 34.6036 99.5741 38.9496C99.5201 39.6734 99.5369 40.4007 99.6242 41.1211C99.6784 41.6337 99.8272 42.1317 100.063 42.5896C100.473 43.3231 100.978 43.3338 100.978 43.3338L102.079 48.7854Z" fill="#FDC2CC"/>
<path opacity="0.1" d="M99.6241 41.1211C99.4488 41.6442 98.3741 43.0182 96.3224 43.2145C94.2706 42.822 93.3096 41.6377 92.3115 40.7551C92.2584 39.7167 92.1733 38.9496 92.1733 38.9496C92.1733 38.9496 99.8396 34.6036 99.574 38.9496C99.5199 39.6734 99.5367 40.4007 99.6241 41.1211Z" fill="black"/>
<path d="M96.4198 43.1167C98.667 43.1167 102.079 39.4304 102.079 36.1669C102.079 32.9034 99.4448 30.2578 96.196 30.2578C92.9472 30.2578 90.3135 32.9034 90.3135 36.1669C90.3135 39.4304 94.1727 43.1167 96.4198 43.1167Z" fill="#FDC2CC"/>
<path opacity="0.1" d="M102.079 48.7856L94.6024 50.5393C94.6024 50.5393 90.9211 47.4132 91.8319 45.7358C92.1446 45.1593 92.2828 44.1758 92.3298 43.1358C92.4949 44.0401 92.9782 44.8547 93.6915 45.4308C95.3994 46.5745 95.1337 47.985 95.1337 47.985L98.2078 47.8707C98.0181 46.6126 99.1566 45.9264 99.5361 45.7739C99.9157 45.6214 99.7259 44.9352 99.7259 44.9352L100.063 42.5898C100.473 43.3233 100.978 43.334 100.978 43.334L102.079 48.7856Z" fill="black"/>
<path opacity="0.1" d="M109.517 91.9791C109.517 91.9791 109.397 92.5403 109.226 93.3546C108.4 93.3104 107.308 93.2783 106.823 93.3897C105.988 93.5803 102.648 93.6565 102.648 93.6565L94.3743 93.9508V93.6946C93.4227 93.7024 92.4722 93.766 91.528 93.8853C90.1237 94.0759 87.9225 93.809 86.5183 93.5803C86.0861 93.5181 85.663 93.4034 85.2583 93.2387C85.3965 92.2353 85.6075 91.3691 85.6075 91.3691L109.517 91.9791Z" fill="black"/>
<path d="M108.872 67.7708C108.752 68.4829 108.84 69.6632 108.992 70.8282C109.221 72.5956 109.593 74.3279 109.593 74.3279C109.593 74.3279 111.149 84.24 110.276 85.5361C109.403 86.8323 110.276 93.1227 110.276 93.1227C110.276 93.1227 107.658 92.8939 106.823 93.0845C105.988 93.2751 102.648 93.3514 102.648 93.3514L94.3745 93.6457V93.3895C93.4228 93.3972 92.4724 93.4609 91.5281 93.5801C90.1239 93.7707 87.9227 93.5039 86.5185 93.2751C85.1142 93.0464 84.545 92.5889 84.6968 92.3602C84.8486 92.1314 84.545 85.8792 84.545 85.8792L84.507 80.8089C84.507 80.8089 84.4691 77.2253 85.342 76.4247C85.6987 76.0984 85.9917 74.8922 86.2148 73.5807C86.5352 71.6822 86.7082 69.5625 86.7082 69.5625L80.9395 54.0464L80.8257 53.7414C80.8257 53.7414 82.4956 51.1491 82.2299 49.891C81.9642 48.6329 83.7859 47.5274 83.7859 47.5274C83.7859 47.5274 87.2395 46.0024 87.4673 45.5449C87.695 45.0875 90.0859 44.9731 90.0859 44.9731C90.0859 44.9731 91.4522 44.2488 91.6875 43.7791C91.7448 43.6479 91.8323 43.5323 91.943 43.4419C92.0536 43.3514 92.184 43.2888 92.3236 43.2591C92.4844 44.1745 92.9704 45.0003 93.6914 45.5831C95.3992 46.7268 95.1335 48.1373 95.1335 48.1373L98.2076 48.023C98.0179 46.7649 99.1564 46.0787 99.5359 45.9262C99.9155 45.7737 99.7257 45.0875 99.7257 45.0875L100.081 42.6186C100.245 42.2084 101.396 43.7791 101.396 43.7791C101.396 43.7791 104.318 44.7825 104.508 44.8587C104.697 44.935 107.164 45.6975 107.164 45.6975C107.164 45.6975 110.2 47.6799 110.2 48.1755C110.2 48.6711 111.87 51.3397 111.87 51.3397C111.87 51.3397 111.851 51.4464 111.814 51.6416C111.429 53.743 109.15 66.1315 108.872 67.7708Z" fill="#1B3A6C"/>
<path d="M99.6289 65.5165C99.6289 65.5165 93.5767 68.617 92.8177 68.7378C92.0587 68.8586 90.8569 73.2209 96.508 72.5823C96.508 72.5823 101.507 69.6628 101.849 67.7671C102.19 65.8713 99.6289 65.5165 99.6289 65.5165Z" fill="#FDC2CC"/>
<path opacity="0.1" d="M110.922 51.1494L111.719 51.1875L114.072 57.516C114.072 57.516 115.476 60.8327 115.741 61.3664C116.007 61.9001 115.893 64.1113 115.741 64.7594C115.59 65.4075 114.603 68.2667 114.565 68.991C114.527 69.7154 112.743 70.4397 110.922 70.3254C109.1 70.211 104.849 70.7828 104.849 70.7828C104.849 70.7828 100.31 70.3062 97.5246 71.7359C97.5246 71.7359 95.7409 68.038 95.9306 61.1377C95.9306 61.1377 99.0806 60.9471 99.8776 61.252C100.675 61.557 104.546 62.4339 105.039 61.9764C105.532 61.5189 107.772 62.8151 107.772 62.8151C107.886 62.5637 107.945 62.2907 107.945 62.0145C107.945 61.7383 107.886 61.4653 107.772 61.2139C107.392 60.299 106.747 57.4397 107.582 56.5248C108.417 55.6098 110.922 51.1494 110.922 51.1494Z" fill="black"/>
<path opacity="0.1" d="M108.992 70.8286C107.108 70.9567 105.001 71.2404 105.001 71.2404C105.001 71.2404 100.462 70.7631 97.6765 72.1934C97.6765 72.1934 95.8927 68.4955 96.0825 61.5952C96.0825 61.5952 99.2325 61.4046 100.029 61.7096C100.826 62.0146 104.698 62.8914 105.191 62.4339C105.684 61.9764 107.923 63.2726 107.923 63.2726C108.037 63.0212 108.096 62.7482 108.096 62.472C108.096 62.1958 108.037 61.9228 107.923 61.6714C107.544 60.7565 106.899 57.8973 107.734 56.9823C108.569 56.0673 111.073 51.6069 111.073 51.6069L111.814 51.642C111.429 53.7434 109.15 66.1319 108.872 67.7711C108.752 68.4833 108.84 69.6636 108.992 70.8286Z" fill="black"/>
<path d="M111.073 51.3018L111.87 51.3399L114.223 57.6683C114.223 57.6683 115.628 60.985 115.893 61.5188C116.159 62.0525 116.045 64.2636 115.893 64.9117C115.742 65.5598 114.755 68.4191 114.717 69.1434C114.679 69.8677 112.895 70.5921 111.073 70.4777C109.252 70.3633 105.001 70.9352 105.001 70.9352C105.001 70.9352 100.462 70.4586 97.6765 71.8883C97.6765 71.8883 95.8927 68.1903 96.0825 61.29C96.0825 61.29 99.2325 61.0994 100.029 61.4044C100.826 61.7094 104.698 62.5862 105.191 62.1287C105.684 61.6713 107.923 62.9674 107.923 62.9674C108.037 62.7161 108.096 62.4431 108.096 62.1669C108.096 61.8906 108.037 61.6177 107.923 61.3663C107.544 60.4513 106.899 57.5921 107.734 56.6771C108.569 55.7622 111.073 51.3018 111.073 51.3018Z" fill="#1B3A6C"/>
<path d="M100.358 69.6805L101.305 70.2695L104.588 64.9425L103.641 64.3535L100.358 69.6805Z" fill="#53526B"/>
<path d="M91.9725 71.9458L94.2875 71.2977C94.2875 71.2977 105.711 71.6027 101.878 66.8754C101.878 66.8754 99.8665 64.9312 95.6538 66.4942C91.4412 68.0573 90.2646 68.2479 90.2646 68.2479L91.9725 71.9458Z" fill="#FDC2CC"/>
<path opacity="0.1" d="M93.0838 50.1195C93.3354 50.1195 93.5393 49.9147 93.5393 49.6621C93.5393 49.4094 93.3354 49.2046 93.0838 49.2046C92.8323 49.2046 92.6284 49.4094 92.6284 49.6621C92.6284 49.9147 92.8323 50.1195 93.0838 50.1195Z" fill="black"/>
<path opacity="0.1" d="M100.902 49.8529C101.154 49.8529 101.358 49.6481 101.358 49.3955C101.358 49.1428 101.154 48.938 100.902 48.938C100.651 48.938 100.447 49.1428 100.447 49.3955C100.447 49.6481 100.651 49.8529 100.902 49.8529Z" fill="black"/>
<path d="M93.0838 49.9672C93.3354 49.9672 93.5393 49.7624 93.5393 49.5097C93.5393 49.2571 93.3354 49.0522 93.0838 49.0522C92.8323 49.0522 92.6284 49.2571 92.6284 49.5097C92.6284 49.7624 92.8323 49.9672 93.0838 49.9672Z" fill="white"/>
<path opacity="0.1" d="M93.7293 56.4482C93.9809 56.4482 94.1848 56.2433 94.1848 55.9907C94.1848 55.738 93.9809 55.5332 93.7293 55.5332C93.4778 55.5332 93.2739 55.738 93.2739 55.9907C93.2739 56.2433 93.4778 56.4482 93.7293 56.4482Z" fill="black"/>
<path opacity="0.1" d="M101.13 55.9906C101.381 55.9906 101.585 55.7858 101.585 55.5332C101.585 55.2805 101.381 55.0757 101.13 55.0757C100.878 55.0757 100.674 55.2805 100.674 55.5332C100.674 55.7858 100.878 55.9906 101.13 55.9906Z" fill="black"/>
<path d="M93.7293 56.2958C93.9809 56.2958 94.1848 56.091 94.1848 55.8383C94.1848 55.5857 93.9809 55.3809 93.7293 55.3809C93.4778 55.3809 93.2739 55.5857 93.2739 55.8383C93.2739 56.091 93.4778 56.2958 93.7293 56.2958Z" fill="white"/>
<path opacity="0.1" d="M100.94 78.0663C101.192 78.0663 101.396 77.8615 101.396 77.6088C101.396 77.3562 101.192 77.1514 100.94 77.1514C100.689 77.1514 100.485 77.3562 100.485 77.6088C100.485 77.8615 100.689 78.0663 100.94 78.0663Z" fill="black"/>
<path opacity="0.1" d="M94.9461 78.0663C95.1977 78.0663 95.4016 77.8615 95.4016 77.6088C95.4016 77.3562 95.1977 77.1514 94.9461 77.1514C94.6946 77.1514 94.4907 77.3562 94.4907 77.6088C94.4907 77.8615 94.6946 78.0663 94.9461 78.0663Z" fill="black"/>
<path d="M100.94 77.9145C101.192 77.9145 101.396 77.7096 101.396 77.457C101.396 77.2043 101.192 76.9995 100.94 76.9995C100.689 76.9995 100.485 77.2043 100.485 77.457C100.485 77.7096 100.689 77.9145 100.94 77.9145Z" fill="white"/>
<path opacity="0.1" d="M95.4017 85.727C95.6532 85.727 95.8571 85.5221 95.8571 85.2695C95.8571 85.0168 95.6532 84.812 95.4017 84.812C95.1502 84.812 94.9463 85.0168 94.9463 85.2695C94.9463 85.5221 95.1502 85.727 95.4017 85.727Z" fill="black"/>
<path opacity="0.1" d="M101.13 85.2694C101.381 85.2694 101.585 85.0646 101.585 84.812C101.585 84.5593 101.381 84.3545 101.13 84.3545C100.878 84.3545 100.674 84.5593 100.674 84.812C100.674 85.0646 100.878 85.2694 101.13 85.2694Z" fill="black"/>
<path d="M95.4017 85.5746C95.6532 85.5746 95.8571 85.3698 95.8571 85.1171C95.8571 84.8645 95.6532 84.6597 95.4017 84.6597C95.1502 84.6597 94.9463 84.8645 94.9463 85.1171C94.9463 85.3698 95.1502 85.5746 95.4017 85.5746Z" fill="white"/>
<path d="M94.9461 77.9145C95.1977 77.9145 95.4016 77.7096 95.4016 77.457C95.4016 77.2043 95.1977 76.9995 94.9461 76.9995C94.6946 76.9995 94.4907 77.2043 94.4907 77.457C94.4907 77.7096 94.6946 77.9145 94.9461 77.9145Z" fill="white"/>
<path d="M101.13 85.1171C101.381 85.1171 101.585 84.9123 101.585 84.6596C101.585 84.407 101.381 84.2021 101.13 84.2021C100.878 84.2021 100.674 84.407 100.674 84.6596C100.674 84.9123 100.878 85.1171 101.13 85.1171Z" fill="white"/>
<path d="M100.902 49.7001C101.154 49.7001 101.358 49.4953 101.358 49.2426C101.358 48.99 101.154 48.7852 100.902 48.7852C100.651 48.7852 100.447 48.99 100.447 49.2426C100.447 49.4953 100.651 49.7001 100.902 49.7001Z" fill="white"/>
<path d="M101.13 55.8378C101.381 55.8378 101.585 55.633 101.585 55.3803C101.585 55.1277 101.381 54.9229 101.13 54.9229C100.878 54.9229 100.674 55.1277 100.674 55.3803C100.674 55.633 100.878 55.8378 101.13 55.8378Z" fill="white"/>
<path opacity="0.1" d="M101.813 71.4312C101.813 71.4312 101.889 81.8769 102.117 83.7449C102.117 83.7449 102.199 71.9236 101.813 71.4312Z" fill="black"/>
<path opacity="0.1" d="M103.749 76.272C103.592 76.272 106.861 88.5095 107.012 89.3863C107.164 90.2632 104.659 76.272 103.749 76.272Z" fill="black"/>
<path opacity="0.1" d="M106.329 74.29C106.329 74.4044 108.151 80.9235 109.062 81.2666C109.973 81.6097 106.329 74.29 106.329 74.29Z" fill="black"/>
<path opacity="0.1" d="M113.502 61.5947C113.502 61.5947 109.631 61.7681 109.517 62.3295C109.403 62.8909 113.502 61.5947 113.502 61.5947Z" fill="black"/>
<path opacity="0.1" d="M106.671 111.307C106.671 111.307 103.9 112.489 104.318 112.565C104.735 112.641 106.671 111.307 106.671 111.307Z" fill="black"/>
<path opacity="0.1" d="M100.94 109.554C100.832 109.31 102.8 110.545 102.8 110.698C102.8 110.85 101.092 109.897 100.94 109.554Z" fill="black"/>
<path opacity="0.1" d="M103.521 113.557C103.521 113.557 105.684 113.448 105.836 114.284C105.988 115.121 103.521 113.557 103.521 113.557Z" fill="black"/>
<path opacity="0.1" d="M87.9604 113.552C87.9604 113.552 90.3135 113.09 90.5032 113.552C90.693 114.014 87.9604 113.552 87.9604 113.552Z" fill="black"/>
<path opacity="0.1" d="M88.8335 127.929C88.8335 127.929 88.9878 129.873 88.4173 130.331C87.8468 130.788 88.8335 127.929 88.8335 127.929Z" fill="black"/>
<path opacity="0.1" d="M88.5459 132.046C89.2887 132.123 93.1978 131.436 93.1598 132.046C93.1219 132.656 88.5459 132.046 88.5459 132.046Z" fill="black"/>
<path opacity="0.1" d="M106.481 129.683C106.481 129.683 105.148 129.477 105.473 130.38L106.481 129.683Z" fill="black"/>
<path opacity="0.1" d="M81.6986 53.5889H80.9775L79.8769 57.63C79.8769 57.63 79.4973 59.0405 79.1178 59.3836C78.7383 59.7267 79.4594 62.8528 79.4594 62.8528C79.4594 62.8528 79.0419 65.064 78.7004 65.6358C78.3588 66.2077 79.2317 67.6182 79.2317 67.6182L80.9775 71.7355L85.6076 72.9555C85.6076 72.9555 93.7672 74.7473 94.1468 75.0141C94.5263 75.281 94.8678 74.8998 95.1335 72.4217C95.3992 69.9437 96.1202 65.1402 96.6895 64.9115C96.6895 64.9115 92.1353 65.4071 91.7558 65.3308C91.3763 65.2546 89.5546 65.369 89.5546 65.369C89.5546 65.369 87.1636 65.2165 86.7841 65.4452C86.4046 65.674 87.2775 64.3379 87.2775 64.3379C87.4373 63.7262 87.4373 63.0834 87.2775 62.4716C87.0118 61.4423 86.86 49.7766 81.6986 53.5889Z" fill="black"/>
<path opacity="0.1" d="M96.5377 65.3695C95.9684 65.5982 95.2473 70.4017 94.9816 72.8797C94.716 75.3578 94.3744 75.739 93.9949 75.4721C93.6867 75.2556 88.2475 74.0326 86.2148 73.5812C86.5351 71.6827 86.7081 69.563 86.7081 69.563L80.9395 54.0469H81.5467C86.7081 50.2346 86.8599 61.9003 87.1256 62.9296C87.2854 63.5414 87.2854 64.1843 87.1256 64.7961C87.1256 64.7961 86.2527 66.1319 86.6322 65.9032C87.0118 65.6745 89.4027 65.827 89.4027 65.827C89.4027 65.827 91.2244 65.7126 91.6039 65.7888C91.9834 65.8651 96.5377 65.3695 96.5377 65.3695Z" fill="black"/>
<path d="M81.5467 53.7417H80.8256L79.725 57.7828C79.725 57.7828 79.3455 59.1933 78.966 59.5365C78.5865 59.8796 79.3075 63.0057 79.3075 63.0057C79.3075 63.0057 78.8901 65.2168 78.5485 65.7887C78.2069 66.3605 79.0798 67.7711 79.0798 67.7711L80.8256 71.8884L85.4557 73.1083C85.4557 73.1083 93.6154 74.9001 93.9949 75.167C94.3744 75.4338 94.716 75.0526 94.9817 72.5746C95.2473 70.0966 95.9684 65.2931 96.5377 65.0643C96.5377 65.0643 91.9835 65.5599 91.6039 65.4837C91.2244 65.4074 89.4027 65.5218 89.4027 65.5218C89.4027 65.5218 87.0118 65.3693 86.6322 65.5981C86.2527 65.8268 87.1256 64.4908 87.1256 64.4908C87.2854 63.879 87.2854 63.2362 87.1256 62.6244C86.86 61.5951 86.7082 49.9294 81.5467 53.7417Z" fill="#1B3A6C"/>
<path opacity="0.1" d="M84.0134 67.542C84.0134 67.542 81.9261 71.5068 81.5466 71.0493C81.167 70.5919 84.0134 67.542 84.0134 67.542Z" fill="black"/>
<path opacity="0.1" d="M81.8505 65.2842C81.8505 65.2842 79.9149 66.8938 80.8257 67.3132C81.7366 67.7325 81.8505 65.2842 81.8505 65.2842Z" fill="black"/>
<path opacity="0.1" d="M83.6719 63.3101C83.8237 63.3482 86.4803 63.8782 86.5183 64.1088C86.5562 64.3394 83.6719 63.3101 83.6719 63.3101Z" fill="black"/>
<path opacity="0.1" d="M101.787 34.2105L101.727 34.8525C101.727 34.8525 95.3567 26.7429 90.4017 35.9001C90.4017 35.9001 90.3774 35.7888 90.3364 35.6012C90.4337 35.4831 90.521 35.3571 90.5975 35.2245C90.6886 34.9821 90.5581 34.7 90.5869 34.4377C90.634 33.9893 91.1061 33.753 91.1865 33.3123C91.2199 33.14 91.185 32.9554 91.2169 32.7816C91.2214 32.7588 91.2275 32.7364 91.2351 32.7145L90.9573 32.9066C91.2685 32.5422 91.4249 32.0359 91.6526 31.5937C91.9056 31.1095 92.2537 30.6819 92.6758 30.3367C93.098 29.9915 93.5855 29.7359 94.1088 29.5853C95.0986 29.2956 96.1446 29.3749 97.1435 29.6204C98.0933 29.8581 99.0033 30.2347 99.8441 30.7382C100.145 30.9 100.411 31.1179 100.63 31.3802C100.814 31.6521 100.97 31.9418 101.097 32.2448C101.391 32.8578 102.196 33.4251 101.555 33.5105C101.022 33.5822 101.508 33.9573 101.787 34.2105Z" fill="black"/>
<g opacity="0.1">
<path d="M101.448 33.6236C101.494 33.605 101.542 33.5928 101.592 33.5872C101.874 33.5496 101.875 33.4181 101.763 33.2305C101.71 33.2593 101.652 33.2769 101.592 33.2822C101.287 33.3232 101.316 33.4636 101.448 33.6236Z" fill="black"/>
<path d="M102.03 34.9012C102.051 34.8029 102.05 34.7011 102.028 34.603C102.015 34.6638 101.989 34.721 101.951 34.7709C101.904 34.8314 101.962 34.8706 102.03 34.9012Z" fill="black"/>
<path d="M90.6322 34.4619C90.6289 34.4793 90.6253 34.4966 90.6234 34.5147C90.6172 34.652 90.6271 34.7896 90.653 34.9246C90.6709 34.7702 90.6639 34.614 90.6322 34.4619Z" fill="black"/>
<path d="M91.2483 32.6011C91.1769 32.737 91.0915 32.8651 90.9937 32.9833L91.2387 32.8138C91.2375 32.7428 91.2407 32.6717 91.2483 32.6011Z" fill="black"/>
</g>
<path opacity="0.1" d="M101.168 25.4927C101.168 25.4927 99.6876 25.893 99.9912 26.3695L101.168 25.4927Z" fill="black"/>
<path opacity="0.1" d="M102.572 27.9512C102.572 27.9512 101.244 28.5993 101.491 28.9424L102.572 27.9512Z" fill="black"/>
<path opacity="0.1" d="M89.7769 30.9743C89.7769 30.9743 98.261 27.5126 101.935 32.4877C101.935 32.4877 97.4756 28.6793 89.7769 30.9743Z" fill="black"/>
<path d="M97.0255 28.5886C96.8476 28.6929 96.6093 28.5351 96.5523 28.3363C96.4952 28.1374 96.5617 27.9263 96.6276 27.7303L96.9593 26.7433C97.1945 26.0433 97.4442 25.3189 97.9538 24.7861C98.7228 23.982 99.9119 24.6159 101.012 24.7641C102.425 24.9545 102.114 25.8489 102.771 27.1198C103.428 28.3906 100.914 32.2232 101.794 34.2842C103.486 36.2321 103.064 37.2284 103.357 38.7005C103.064 41.2523 102.992 41.6554 101.164 43.4753C100.756 43.2268 100.385 42.062 100.61 41.6389C100.834 41.2158 100.513 40.7256 100.791 40.3359C101.068 39.9461 101.301 40.5667 101.02 40.1792C100.843 39.9346 101.535 39.3721 101.271 39.2257C99.9963 38.5178 99.5723 36.9215 98.7715 35.6991C97.8057 34.2246 96.1527 33.2261 94.4033 33.0605C93.4397 32.9692 92.4219 33.1345 91.632 33.6965C90.8421 34.2584 90.3308 35.2627 90.5139 36.2174C90.0396 35.7336 89.8034 35.0245 89.8925 34.3514C89.9816 33.6782 90.3939 33.0557 90.9776 32.7132C90.6226 31.5342 90.9267 30.178 91.7505 29.2657C92.5742 28.3534 95.9159 28.5088 97.1185 28.7489" fill="#403E56"/>
<path d="M97.2123 33.0957C98.8052 33.2684 99.9552 34.6544 100.926 35.9344C101.486 36.6721 102.072 37.4868 102.058 38.4143C102.044 39.352 101.42 40.1563 101.122 41.045C100.634 42.4975 101.109 44.2257 102.27 45.221C101.123 45.4396 99.8835 44.5758 99.6855 43.4203C99.4551 42.0751 100.47 40.7768 100.35 39.4171C100.244 38.2193 99.3043 37.2974 98.5054 36.4018C97.7065 35.5062 96.9563 34.3177 97.3238 33.1732" fill="#403E56"/>
<path d="M94.3453 32.125C92.7525 32.2977 91.6024 33.6837 90.6312 34.9637C90.0715 35.7014 89.4851 36.5161 89.4992 37.4436C89.5134 38.3813 90.1375 39.1856 90.4358 40.0743C90.9234 41.5268 90.4482 43.255 89.2876 44.2503C90.4344 44.4689 91.6741 43.6051 91.8721 42.4496C92.1026 41.1044 91.0874 39.8061 91.2076 38.4464C91.3136 37.2486 92.2533 36.3267 93.0522 35.4311C93.8511 34.5355 94.6014 33.347 94.2338 32.2025" fill="#403E56"/>
<path d="M83.1029 53.0641L91.491 59.5168L91.0252 60.1277L82.6371 53.675C82.5154 53.5814 82.4922 53.406 82.5855 53.2837L82.7134 53.116C82.8066 52.9937 82.9812 52.9704 83.1029 53.0641Z" fill="#3F3D56"/>
<path d="M95.9541 61.3583C94.6767 61.5896 93.7215 62.6648 93.622 63.9648C93.4975 65.5926 93.1642 67.0347 92.2791 64.3729C91.3048 61.4425 88.6438 59.9407 89.6135 58.6688C90.5831 57.397 92.8519 58.8551 95.7904 59.7671C98.5139 60.6124 97.3887 61.0986 95.9541 61.3583Z" fill="#3F3D56"/>
<path d="M88.1241 60.2007L106.69 60.2007L106.66 62.1926C106.634 65.9259 103.596 68.9359 99.8797 68.9102L94.7819 68.8749C91.0654 68.8491 88.0688 65.7973 88.0945 62.064L88.1241 60.2007Z" fill="white"/>
<path d="M90.4016 35.7477C90.4016 35.7477 89.4856 31.6344 89.7771 30.9747C89.7771 30.9747 88.986 29.3449 88.986 28.9569C88.9476 28.3093 88.7471 27.682 88.4031 27.133C87.9867 26.4734 87.5287 23.4078 90.0269 22.6705C92.5251 21.9332 94.4403 21.2735 94.7318 20.7691C95.0232 20.2646 99.3118 20.575 100.478 22.5153C101.643 24.4555 102.393 24.0675 102.393 24.0675C102.393 24.0675 104.183 25.1928 104.183 26.2017C104.183 27.2106 103.642 27.7151 104.183 27.9479C104.724 28.1808 104.308 32.3717 101.935 32.4881L102.087 34.6766C102.087 34.6766 95.3563 26.5898 90.4016 35.7477Z" fill="#1B3A6C"/>
<path opacity="0.1" d="M90.6742 23.4717C90.6742 23.4717 90.1239 26.7121 91.1296 27.7987L90.6742 23.4717Z" fill="black"/>
<path opacity="0.1" d="M93.2549 22.7285C93.2549 22.7285 91.8507 26.1977 92.1922 26.8649L93.2549 22.7285Z" fill="black"/>
<path opacity="0.1" d="M94.4691 21.623C94.4691 21.623 93.5203 26.1406 93.9757 26.5028L94.4691 21.623Z" fill="black"/>
<path opacity="0.1" d="M96.1014 22.8423C96.1014 22.8423 94.9249 25.7396 95.3993 26.1399L96.1014 22.8423Z" fill="black"/>
<path opacity="0.1" d="M98.3213 23.186C98.3213 23.186 96.936 25.5497 97.2207 25.969L98.3213 23.186Z" fill="black"/>
<path opacity="0.1" d="M100.979 24.8623C100.979 24.8623 99.5933 27.2259 99.8779 27.6453L100.979 24.8623Z" fill="black"/>
<path opacity="0.1" d="M102.347 26.4321C102.347 26.4321 100.961 28.7958 101.246 29.2151L102.347 26.4321Z" fill="black"/>
<path opacity="0.1" d="M103.128 26.8247C103.128 26.8247 101.743 29.1883 102.027 29.6077L103.128 26.8247Z" fill="black"/>
<defs>
<linearGradient id="paint0_linear_17_25760" x1="52.9579" y1="144.763" x2="52.9579" y2="12.8027" gradientUnits="userSpaceOnUse">
<stop stop-color="#808080" stop-opacity="0.25"/>
<stop offset="0.53514" stop-color="#808080" stop-opacity="0.12"/>
<stop offset="1" stop-color="#808080" stop-opacity="0.1"/>
</linearGradient>
<linearGradient id="paint1_linear_17_25760" x1="97.2609" y1="144.763" x2="97.2609" y2="20.0107" gradientUnits="userSpaceOnUse">
<stop stop-color="#808080" stop-opacity="0.25"/>
<stop offset="0.53514" stop-color="#808080" stop-opacity="0.12"/>
<stop offset="1" stop-color="#808080" stop-opacity="0.1"/>
</linearGradient>
</defs>
</svg>
