<svg width="96" height="60" viewBox="0 0 96 60" fill="none" xmlns="http://www.w3.org/2000/svg">
<g clip-path="url(#clip0_42_71)">
<path d="M72.3234 53.4164C72.3234 53.9007 72.1795 54.3742 71.91 54.777C71.6405 55.1797 71.2575 55.4936 70.8093 55.679C70.3611 55.8644 69.868 55.9129 69.3922 55.8184C68.9164 55.7239 68.4794 55.4906 68.1364 55.1481C67.7933 54.8056 67.5597 54.3692 67.4651 53.8941C67.3705 53.4191 67.419 52.9266 67.6047 52.4791C67.7903 52.0316 68.1047 51.6491 68.508 51.38C68.9114 51.1109 69.3856 50.9673 69.8707 50.9673C70.1929 50.9669 70.512 51.03 70.8097 51.153C71.1075 51.2759 71.378 51.4563 71.6058 51.6838C71.8336 51.9113 72.0143 52.1814 72.1374 52.4787C72.2606 52.776 72.3238 53.0946 72.3234 53.4164Z" stroke="#9ABAE3" stroke-width="0.575525" stroke-linecap="round" stroke-linejoin="round"/>
<path d="M71.0237 52.9801H70.9644C70.9048 52.8346 70.8031 52.7102 70.6724 52.6226C70.5417 52.535 70.3878 52.4883 70.2304 52.4883C70.073 52.4883 69.9192 52.535 69.7884 52.6226C69.6577 52.7102 69.5561 52.8346 69.4964 52.9801H69.4248C69.2797 52.91 69.1205 52.8738 68.9593 52.8742C68.702 52.868 68.452 52.9603 68.2606 53.132C68.0691 53.3038 67.9505 53.5421 67.9292 53.7982V53.8106H71.8155C71.8155 53.7982 71.8155 53.7859 71.8155 53.7721C71.8155 53.5623 71.7321 53.361 71.5837 53.2125C71.4352 53.064 71.2338 52.9804 71.0237 52.9801Z" fill="#9ABAE3" stroke="#9ABAE3" stroke-width="0.575525" stroke-linecap="round" stroke-linejoin="round"/>
<path d="M65.6308 45.3522C65.6297 46.154 65.3906 46.9375 64.9436 47.6036C64.4967 48.2698 63.8621 48.7887 63.1199 49.0948C62.3777 49.4009 61.5613 49.4804 60.7738 49.3233C59.9864 49.1662 59.2633 48.7795 58.6959 48.2122C58.1284 47.6449 57.7422 46.9223 57.5859 46.1358C57.4297 45.3493 57.5104 44.5342 57.818 43.7936C58.1255 43.0529 58.6461 42.4199 59.3138 41.9745C59.9815 41.5292 60.7665 41.2915 61.5695 41.2915C62.1034 41.2911 62.6321 41.396 63.1254 41.6C63.6186 41.804 64.0667 42.1032 64.444 42.4804C64.8213 42.8576 65.1203 43.3054 65.3239 43.7982C65.5276 44.291 65.6318 44.8191 65.6308 45.3522Z" stroke="#4C77BD" stroke-width="0.575525" stroke-linecap="round" stroke-linejoin="round"/>
<path d="M62.8509 44.3318C63.0122 43.6254 62.5694 42.9223 61.862 42.7613C61.1545 42.6003 60.4503 43.0424 60.289 43.7488C60.1278 44.4552 60.5706 45.1584 61.278 45.3194C61.9855 45.4804 62.6897 45.0382 62.8509 44.3318Z" fill="#4C77BD" stroke="#4C77BD" stroke-width="0.575525" stroke-linecap="round" stroke-linejoin="round"/>
<path d="M63.5223 48.1345V48.91C62.9234 49.2367 62.2519 49.4079 61.5695 49.4079C60.8871 49.4079 60.2156 49.2367 59.6167 48.91V48.1345C59.6167 47.6173 59.8224 47.1214 60.1887 46.7557C60.5549 46.39 61.0516 46.1846 61.5695 46.1846C62.0874 46.1846 62.5841 46.39 62.9503 46.7557C63.3166 47.1214 63.5223 47.6173 63.5223 48.1345Z" fill="#4C77BD" stroke="#4C77BD" stroke-width="0.575525" stroke-linecap="round" stroke-linejoin="round"/>
<path d="M91.5624 55.7731C91.5627 56.5752 91.3247 57.3593 90.8786 58.0264C90.4325 58.6934 89.7984 59.2134 89.0563 59.5205C88.3142 59.8277 87.4976 59.9082 86.7097 59.7519C85.9218 59.5955 85.198 59.2094 84.6299 58.6424C84.0618 58.0753 83.6749 57.3527 83.5181 56.5661C83.3613 55.7794 83.4416 54.964 83.749 54.2229C84.0563 53.4818 84.5768 52.8484 85.2447 52.4028C85.9126 51.9571 86.6979 51.7192 87.5012 51.7192C88.0345 51.7189 88.5626 51.8235 89.0554 52.0271C89.5483 52.2306 89.996 52.5292 90.3732 52.9057C90.7504 53.2822 91.0496 53.7292 91.2536 54.2212C91.4576 54.7132 91.5626 55.2405 91.5624 55.7731Z" stroke="#4C77BD" stroke-width="0.575525" stroke-linecap="round" stroke-linejoin="round"/>
<path d="M87.5013 55.7731C88.2269 55.7731 88.8151 55.1858 88.8151 54.4613C88.8151 53.7367 88.2269 53.1494 87.5013 53.1494C86.7757 53.1494 86.1875 53.7367 86.1875 54.4613C86.1875 55.1858 86.7757 55.7731 87.5013 55.7731Z" fill="#4C77BD" stroke="#4C77BD" stroke-width="0.575525" stroke-linecap="round" stroke-linejoin="round"/>
<path d="M89.454 58.5534V59.3303C88.8554 59.657 88.1841 59.8282 87.5019 59.8282C86.8197 59.8282 86.1485 59.657 85.5498 59.3303V58.5534C85.5633 58.0454 85.7749 57.5627 86.1395 57.2082C86.5042 56.8537 86.993 56.6553 87.5019 56.6553C88.0109 56.6553 88.4997 56.8537 88.8643 57.2082C89.2289 57.5627 89.4405 58.0454 89.454 58.5534Z" fill="#4C77BD" stroke="#4C77BD" stroke-width="0.575525" stroke-linecap="round" stroke-linejoin="round"/>
<path d="M51.7626 51.6914C51.7629 51.834 51.7207 51.9735 51.6416 52.0922C51.5624 52.2109 51.4497 52.3035 51.3178 52.3582C51.1858 52.4129 51.0406 52.4273 50.9005 52.3995C50.7604 52.3717 50.6317 52.3031 50.5307 52.2022C50.4297 52.1014 50.3609 51.9729 50.3331 51.833C50.3053 51.6931 50.3197 51.5481 50.3745 51.4163C50.4293 51.2846 50.522 51.1721 50.6409 51.093C50.7598 51.014 50.8995 50.9719 51.0423 50.9722C51.1369 50.9722 51.2306 50.9908 51.318 51.0269C51.4054 51.0631 51.4848 51.116 51.5516 51.1828C51.6185 51.2496 51.6716 51.3289 51.7078 51.4161C51.744 51.5034 51.7626 51.5969 51.7626 51.6914Z" fill="#9ABAE3" stroke="#9ABAE3" stroke-width="0.575525" stroke-linecap="round" stroke-linejoin="round"/>
<path d="M47.9428 53.1327C47.9428 53.2752 47.9004 53.4145 47.8212 53.533C47.7419 53.6515 47.6292 53.7438 47.4973 53.7984C47.3654 53.8529 47.2203 53.8672 47.0804 53.8394C46.9404 53.8116 46.8118 53.7429 46.7109 53.6422C46.61 53.5414 46.5412 53.413 46.5134 53.2732C46.4855 53.1335 46.4998 52.9886 46.5544 52.8569C46.6091 52.7253 46.7016 52.6127 46.8202 52.5335C46.9389 52.4544 47.0784 52.4121 47.2211 52.4121C47.4125 52.4121 47.5961 52.488 47.7314 52.6232C47.8667 52.7583 47.9428 52.9416 47.9428 53.1327Z" fill="#9ABAE3" stroke="#9ABAE3" stroke-width="0.575525" stroke-linecap="round" stroke-linejoin="round"/>
<path d="M51.7626 55.307C51.7626 55.4496 51.7202 55.5889 51.6409 55.7074C51.5615 55.826 51.4487 55.9183 51.3168 55.9728C51.1849 56.0273 51.0397 56.0415 50.8997 56.0136C50.7597 55.9857 50.6311 55.9169 50.5302 55.816C50.4293 55.7151 50.3607 55.5866 50.333 55.4467C50.3053 55.3068 50.3198 55.1619 50.3747 55.0303C50.4295 54.8986 50.5222 54.7862 50.6411 54.7072C50.7599 54.6282 50.8996 54.5862 51.0423 54.5864C51.137 54.5864 51.2308 54.6051 51.3183 54.6413C51.4058 54.6775 51.4852 54.7306 51.5521 54.7976C51.619 54.8645 51.672 54.9439 51.7082 55.0313C51.7443 55.1188 51.7628 55.2124 51.7626 55.307Z" fill="#9ABAE3" stroke="#9ABAE3" stroke-width="0.575525" stroke-linecap="round" stroke-linejoin="round"/>
<path d="M47.9424 53.1311L50.3221 51.6914" stroke="#9ABAE3" stroke-width="0.575525" stroke-linecap="round" stroke-linejoin="round"/>
<path d="M47.9424 53.4985L50.603 54.7361" stroke="#9ABAE3" stroke-width="0.575525" stroke-linecap="round" stroke-linejoin="round"/>
<path d="M54.0047 53.4996C54.0047 54.3797 53.7434 55.2401 53.2537 55.9718C52.764 56.7036 52.068 57.274 51.2537 57.6108C50.4394 57.9476 49.5433 58.0357 48.6789 57.864C47.8144 57.6923 47.0203 57.2685 46.3971 56.6462C45.7738 56.0238 45.3494 55.231 45.1774 54.3678C45.0055 53.5046 45.0937 52.6099 45.431 51.7968C45.7683 50.9837 46.3395 50.2887 47.0724 49.7997C47.8053 49.3108 48.6669 49.0498 49.5483 49.0498C50.1336 49.0496 50.7131 49.1646 51.2539 49.3882C51.7947 49.6117 52.286 49.9395 52.6999 50.3527C53.1137 50.766 53.442 51.2566 53.6659 51.7966C53.8898 52.3365 54.0049 52.9152 54.0047 53.4996Z" stroke="#9ABAE3" stroke-width="0.575525" stroke-linecap="round" stroke-linejoin="round"/>
<path d="M57.5087 48.2207L54.4624 50.6326" stroke="#4C77BD" stroke-width="0.575525" stroke-linecap="round" stroke-linejoin="round" stroke-dasharray="1.15 1.15"/>
<path d="M55.6807 40.3911L57.672 42.6367" stroke="#4C77BD" stroke-width="0.575525" stroke-linecap="round" stroke-linejoin="round" stroke-dasharray="1.15 1.15"/>
<path d="M64.562 49.1587L66.7737 51.7178" stroke="#4C77BD" stroke-width="0.575525" stroke-linecap="round" stroke-linejoin="round" stroke-dasharray="1.15 1.15"/>
<path d="M71.1489 56.4067L72.9007 57.5715H82.4127" stroke="#4C77BD" stroke-width="0.575525" stroke-linecap="round" stroke-linejoin="round" stroke-dasharray="1.15 1.15"/>
<path d="M29.1932 4.10617C29.2053 4.67467 29.0483 5.234 28.7421 5.71344C28.4359 6.19287 27.9942 6.57089 27.4729 6.79969C26.9515 7.02849 26.3739 7.0978 25.8131 6.99886C25.2524 6.89991 24.7335 6.63716 24.3223 6.24382C23.911 5.85048 23.6258 5.34422 23.5027 4.78903C23.3796 4.23385 23.4241 3.65468 23.6306 3.12474C23.8371 2.59481 24.1963 2.13791 24.6628 1.81182C25.1293 1.48572 25.6822 1.30507 26.2516 1.2927C26.6298 1.28431 27.006 1.35045 27.3586 1.48734C27.7112 1.62424 28.0333 1.8292 28.3065 2.0905C28.5797 2.35181 28.7987 2.66434 28.9508 3.0102C29.1029 3.35607 29.1853 3.72849 29.1932 4.10617Z" stroke="#4C77BD" stroke-width="0.575525" stroke-linecap="round" stroke-linejoin="round"/>
<path d="M27.218 3.21768C27.222 3.4018 27.1713 3.58298 27.0722 3.73831C26.9731 3.89363 26.8301 4.01611 26.6612 4.09026C26.4924 4.16441 26.3053 4.18689 26.1237 4.15487C25.9421 4.12284 25.774 4.03774 25.6409 3.91034C25.5077 3.78294 25.4153 3.61895 25.3755 3.43913C25.3357 3.25931 25.3502 3.07174 25.4171 2.90014C25.4841 2.72854 25.6005 2.58062 25.7517 2.47511C25.9028 2.36959 26.0819 2.31121 26.2663 2.30736C26.3887 2.30462 26.5104 2.32601 26.6245 2.3703C26.7386 2.41459 26.8428 2.48091 26.9312 2.56546C27.0196 2.65001 27.0904 2.75114 27.1396 2.86306C27.1888 2.97498 27.2155 3.09548 27.218 3.21768Z" fill="#4C77BD" stroke="#4C77BD" stroke-width="0.575525" stroke-linecap="round" stroke-linejoin="round"/>
<path d="M27.7347 6.11103L27.7457 6.66107C27.3265 6.90222 26.8532 7.03416 26.3694 7.04473C25.8857 7.05531 25.4071 6.94418 24.9776 6.72158L24.9652 6.17153C24.957 5.98735 24.9857 5.80339 25.0497 5.63046C25.1137 5.45752 25.2117 5.2991 25.3379 5.16451C25.4641 5.02992 25.6159 4.92187 25.7845 4.84672C25.9531 4.77156 26.1351 4.73082 26.3197 4.72688C26.5043 4.72294 26.6878 4.75588 26.8594 4.82377C27.0311 4.89166 27.1875 4.99313 27.3193 5.12221C27.4511 5.25129 27.5558 5.40538 27.6271 5.57543C27.6985 5.74547 27.735 5.92804 27.7347 6.1124V6.11103Z" fill="#4C77BD" stroke="#4C77BD" stroke-width="0.575525" stroke-linecap="round" stroke-linejoin="round"/>
<path d="M42.4204 11.0217C42.4045 11.8244 42.1505 12.6043 41.6906 13.2629C41.2308 13.9215 40.5856 14.4291 39.8368 14.7215C39.0881 15.014 38.2692 15.0782 37.4839 14.906C36.6986 14.7338 35.982 14.3329 35.4248 13.7541C34.8677 13.1752 34.4949 12.4444 34.3537 11.6541C34.2125 10.8637 34.3092 10.0493 34.6315 9.31375C34.9539 8.57825 35.4874 7.95471 36.1647 7.52197C36.8419 7.08924 37.6325 6.86674 38.4363 6.88263C38.9701 6.89318 39.4966 7.00861 39.9857 7.22233C40.4748 7.43605 40.917 7.74388 41.2869 8.12823C41.6569 8.51258 41.9474 8.96593 42.1419 9.46239C42.3364 9.95886 42.431 10.4887 42.4204 11.0217Z" stroke="#9ABAE3" stroke-width="0.575525" stroke-linecap="round" stroke-linejoin="round"/>
<path d="M36.1724 10.426C36.4588 10.0678 36.8255 9.78176 37.243 9.59093C37.6604 9.4001 38.1168 9.30981 38.5756 9.32734C39.0344 9.34486 39.4826 9.46971 39.8842 9.69183C40.2858 9.91395 40.6295 10.2271 40.8877 10.6062" stroke="#9ABAE3" stroke-width="0.575525" stroke-linecap="round" stroke-linejoin="round"/>
<path d="M36.8193 11.3669C36.9826 11.065 37.2262 10.8139 37.5232 10.6413C37.8202 10.4686 38.1592 10.3812 38.5028 10.3886C38.8463 10.396 39.1812 10.4979 39.4705 10.6832C39.7598 10.8684 39.9923 11.1297 40.1424 11.4384" stroke="#9ABAE3" stroke-width="0.575525" stroke-linecap="round" stroke-linejoin="round"/>
<path d="M37.5576 12.2329C37.5624 11.9933 37.6622 11.7654 37.8353 11.5993C38.0083 11.4332 38.2403 11.3426 38.4803 11.3473C38.7203 11.3521 38.9485 11.4518 39.1148 11.6246C39.2812 11.7974 39.3719 12.0291 39.3672 12.2687" stroke="#9ABAE3" stroke-width="0.575525" stroke-linecap="round" stroke-linejoin="round"/>
<path d="M14.609 5.02472C14.6416 6.01628 14.3791 6.99524 13.8546 7.83784C13.3301 8.68043 12.5672 9.34881 11.6623 9.75847C10.7574 10.1681 9.75116 10.3007 8.77082 10.1393C7.79048 9.978 6.88006 9.53003 6.15468 8.85207C5.42931 8.1741 4.92154 7.2966 4.6956 6.3305C4.46965 5.3644 4.53567 4.3531 4.8853 3.42447C5.23494 2.49583 5.85249 1.69157 6.65987 1.11337C7.46725 0.535169 8.4282 0.208998 9.42122 0.176099C10.0807 0.15425 10.7381 0.26234 11.3557 0.494197C11.9734 0.726054 12.5392 1.07714 13.021 1.52739C13.5027 1.97764 13.8909 2.51825 14.1634 3.11833C14.4358 3.71841 14.5873 4.36621 14.609 5.02472Z" stroke="#9ABAE3" stroke-width="0.575525" stroke-linecap="round" stroke-linejoin="round"/>
<path d="M12.4318 2.99365H6.76758V7.2331H12.4318V2.99365Z" stroke="#9ABAE3" stroke-width="0.575525" stroke-linecap="round" stroke-linejoin="round"/>
<path d="M9.62517 5.34233L6.76758 2.99365H12.4332L9.62517 5.34233Z" stroke="#9ABAE3" stroke-width="0.575525" stroke-linecap="round" stroke-linejoin="round"/>
<path d="M30.8291 5.07422L34.9 7.00487" stroke="#9ABAE3" stroke-width="0.575525" stroke-linecap="round" stroke-linejoin="round" stroke-dasharray="1.36 1.36"/>
<path d="M38.5298 15.8164V20.4863" stroke="#9ABAE3" stroke-width="0.575525" stroke-linecap="round" stroke-linejoin="round" stroke-dasharray="1.15 1.15"/>
<path d="M15.8813 4.89404L21.5304 4.93255" stroke="#9ABAE3" stroke-width="0.575525" stroke-linecap="round" stroke-linejoin="round" stroke-dasharray="1.36 1.36"/>
<path d="M42.4204 8.18334L45.9817 6.03955" stroke="#9ABAE3" stroke-width="0.575525" stroke-linecap="round" stroke-linejoin="round" stroke-dasharray="1.36 1.36"/>
<path d="M49.9204 4.05811V6.29678" stroke="#4C77BD" stroke-width="0.575525" stroke-linecap="round" stroke-linejoin="round"/>
<path d="M49.9205 4.00874C50.1525 4.00874 50.3406 3.82096 50.3406 3.58933C50.3406 3.3577 50.1525 3.16992 49.9205 3.16992C49.6885 3.16992 49.5005 3.3577 49.5005 3.58933C49.5005 3.82096 49.6885 4.00874 49.9205 4.00874Z" stroke="#4C77BD" stroke-width="0.575525" stroke-linecap="round" stroke-linejoin="round"/>
<path d="M48.7143 4.87605C48.5179 4.71993 48.3611 4.51988 48.2565 4.29205C48.1519 4.06423 48.1024 3.81503 48.112 3.56459C48.1217 3.31414 48.1902 3.06948 48.312 2.85036C48.4339 2.63124 48.6056 2.44381 48.8134 2.30322" stroke="#4C77BD" stroke-width="0.575525" stroke-linecap="round" stroke-linejoin="round"/>
<path d="M49.2293 4.52275C49.0639 4.43376 48.9263 4.30089 48.8317 4.13879C48.7371 3.9767 48.6891 3.79167 48.6931 3.60409C48.6971 3.41652 48.7529 3.23369 48.8543 3.07575C48.9557 2.9178 49.0988 2.79089 49.2679 2.70898" stroke="#4C77BD" stroke-width="0.575525" stroke-linecap="round" stroke-linejoin="round"/>
<path d="M51.2715 2.30078C51.4679 2.4569 51.6247 2.65695 51.7293 2.88477C51.834 3.11259 51.8834 3.36179 51.8738 3.61224C51.8641 3.86269 51.7956 4.10735 51.6738 4.32647C51.5519 4.54559 51.3802 4.73302 51.1724 4.87361" stroke="#4C77BD" stroke-width="0.575525" stroke-linecap="round" stroke-linejoin="round"/>
<path d="M50.7563 2.65137C50.9214 2.74048 51.0586 2.87332 51.153 3.03526C51.2474 3.19721 51.2952 3.382 51.2912 3.56932C51.2872 3.75663 51.2316 3.93923 51.1304 4.09703C51.0292 4.25483 50.8865 4.38172 50.7178 4.46376" stroke="#4C77BD" stroke-width="0.575525" stroke-linecap="round" stroke-linejoin="round"/>
<path d="M53.0454 4.15297C53.0484 4.75946 52.8712 5.35321 52.5362 5.85914C52.2013 6.36507 51.7236 6.76046 51.1636 6.99531C50.6036 7.23016 49.9864 7.29393 49.3901 7.17854C48.7938 7.06315 48.2452 6.7738 47.8135 6.34707C47.3819 5.92033 47.0868 5.37539 46.9653 4.78114C46.8439 4.1869 46.9017 3.57004 47.1313 3.00858C47.361 2.44711 47.7522 1.96626 48.2556 1.62682C48.7589 1.28739 49.3518 1.10461 49.9592 1.10161C50.3626 1.09926 50.7625 1.17636 51.136 1.3285C51.5095 1.48064 51.8493 1.70483 52.136 1.98825C52.4227 2.27167 52.6505 2.60875 52.8066 2.9802C52.9626 3.35165 53.0438 3.75017 53.0454 4.15297Z" stroke="#4C77BD" stroke-width="0.575525" stroke-linecap="round" stroke-linejoin="round"/>
<path d="M59.7215 30.2906C59.7215 33.5248 58.4348 36.6265 56.1445 38.9134C53.8542 41.2003 50.7479 42.4851 47.5089 42.4851C31.3081 41.8415 31.3136 18.7397 47.5089 18.0962C50.7479 18.0962 53.8542 19.381 56.1445 21.6679C58.4348 23.9548 59.7215 27.0565 59.7215 30.2906Z" stroke="#9ABAE3" stroke-width="0.575525" stroke-linecap="round" stroke-linejoin="round" stroke-dasharray="1.15 1.15"/>
<path d="M53.8436 30.2909C53.8436 36.8323 47.4041 39.5783 47.4041 39.5783C47.4041 39.5783 41.1394 37.6821 40.5183 30.1795C40.0198 24.162 47.4041 21.0034 47.4041 21.0034C47.4041 21.0034 53.8436 22.5724 53.8436 30.2909Z" stroke="#9ABAE3" stroke-width="0.575525" stroke-linecap="round" stroke-linejoin="round"/>
<path d="M56.7053 30.2908C56.7047 31.9544 56.2572 33.5873 55.4095 35.0194C54.5617 36.4515 53.3446 37.6303 51.8852 38.4328C50.098 39.4144 48.0371 39.7823 46.0199 39.4799C44.0027 39.1775 42.141 38.2216 40.7211 36.7593C39.3013 35.2969 38.4021 33.4092 38.1619 31.3865C37.9217 29.3639 38.3539 27.3186 39.3919 25.5652C40.4298 23.8119 42.0161 22.4477 43.9066 21.6827C45.797 20.9177 47.8868 20.7942 49.8545 21.3312C51.8221 21.8683 53.5584 23.0361 54.7963 24.6549C56.0341 26.2738 56.7049 28.254 56.7053 30.2908Z" stroke="#9ABAE3" stroke-width="0.575525" stroke-linecap="round" stroke-linejoin="round"/>
<path d="M50.697 30.2909C50.697 35.42 47.4056 39.5783 47.4056 39.5783C47.4056 39.5783 44.1128 35.42 44.1128 30.2909C44.1128 25.1617 47.4056 21.0034 47.4056 21.0034C47.4056 21.0034 50.697 25.1617 50.697 30.2909Z" stroke="#9ABAE3" stroke-width="0.575525" stroke-linecap="round" stroke-linejoin="round"/>
<path d="M50.697 30.2909C50.697 35.42 47.4056 39.5783 47.4056 39.5783C47.4056 39.5783 44.1128 35.42 44.1128 30.2909C44.1128 25.1617 47.4056 21.0034 47.4056 21.0034C47.4056 21.0034 50.697 25.1617 50.697 30.2909Z" stroke="#9ABAE3" stroke-width="0.575525" stroke-linecap="round" stroke-linejoin="round"/>
<path d="M51.3743 21.8899C50.0378 22.4225 48.6088 22.6856 47.1699 22.6641C45.8844 22.6701 44.612 22.4063 43.4351 21.8899C44.6767 21.3058 46.0322 21.0029 47.4047 21.0029C48.7772 21.0029 50.1327 21.3058 51.3743 21.8899Z" stroke="#9ABAE3" stroke-width="0.575525" stroke-linecap="round" stroke-linejoin="round"/>
<path d="M54.5788 24.3777C53.2016 25.2028 50.9059 25.9962 47.1697 25.9962C44.0105 25.9962 41.7354 25.2041 40.2261 24.3832C41.0986 23.3262 42.1945 22.4751 43.4352 21.8908C44.6758 21.3064 46.0306 21.0034 47.4024 21.0034C48.7742 21.0034 50.129 21.3064 51.3697 21.8908C52.6104 22.4751 53.7063 23.3262 54.5788 24.3832V24.3777Z" stroke="#9ABAE3" stroke-width="0.575525" stroke-linecap="round" stroke-linejoin="round"/>
<path d="M51.8812 38.4326C50.5108 39.1829 48.9734 39.5768 47.4105 39.578C45.8476 39.5792 44.3095 39.1877 42.938 38.4395C44.2453 37.7663 45.6963 37.4191 47.1672 37.4274C49.0994 37.4274 50.6473 37.8289 51.8812 38.4326Z" stroke="#9ABAE3" stroke-width="0.575525" stroke-linecap="round" stroke-linejoin="round"/>
<path d="M54.8369 35.8735C54.0444 36.9255 53.0376 37.7977 51.8829 38.4326C49.9183 39.5113 47.6294 39.8445 45.4381 39.3706C43.2469 38.8968 41.3011 37.6479 39.9595 35.8543C41.4619 34.9838 43.8155 34.0928 47.1689 34.0928C51.1488 34.0928 53.4955 34.9962 54.8369 35.8735Z" stroke="#9ABAE3" stroke-width="0.575525" stroke-linecap="round" stroke-linejoin="round"/>
<path d="M47.4053 21.0034V39.577" stroke="#9ABAE3" stroke-width="0.575525" stroke-linecap="round" stroke-linejoin="round"/>
<path d="M38.1152 30.3926H56.7702" stroke="#9ABAE3" stroke-width="0.575525" stroke-linecap="round" stroke-linejoin="round"/>
<path d="M72.5015 30.9149L71.8721 31.19C71.8721 31.19 71.083 31.3275 71.0899 30.9149C71.0964 30.8177 71.1261 30.7233 71.1766 30.6399C71.2374 30.5296 71.3089 30.4255 71.3901 30.3292C71.579 30.0953 71.7381 29.8389 71.8638 29.566C71.9685 29.3461 72.0488 29.1156 72.1035 28.8784L72.5015 30.9149Z" fill="#263238" stroke="#263238" stroke-width="0.575525" stroke-linecap="round" stroke-linejoin="round"/>
<path d="M85.2954 32.8445C85.911 33.605 87.1105 34.7394 87.4383 35.9399C87.4548 35.9976 87.4658 36.054 87.4782 36.109L91.286 35.999L86.0184 31.4722L84.9966 32.3412C85.0722 32.5221 85.1728 32.6915 85.2954 32.8445Z" fill="#1B3A6C" stroke="#263238" stroke-width="0.575525" stroke-linecap="round" stroke-linejoin="round"/>
<path d="M81.8469 45.0605C81.2492 45.473 80.7053 45.5445 80.2439 45.3548L79.7344 48.4652L85.1783 44.1502L84.0159 42.104C83.5105 42.9414 82.8412 44.3784 81.8469 45.0605Z" fill="#1B3A6C" stroke="#263238" stroke-width="0.575525" stroke-linecap="round" stroke-linejoin="round"/>
<path d="M86.1562 38.0918C85.8285 38.1605 85.0917 38.2293 84.1773 38.2926C84.6028 39.823 84.2076 40.1531 84.7516 40.666C85.374 41.2532 84.5877 41.1927 84.0699 42.0232C83.552 42.8538 82.8745 44.3609 81.8471 45.0608C80.8198 45.7608 79.9494 45.4885 79.3903 44.5589C78.9771 43.8824 77.8451 41.0593 76.9321 38.9622C76.1443 39.1135 75.8772 39.1341 74.5055 38.6872C73.105 38.2265 72.981 31.7154 71.5722 27.1171L71.502 26.8971C72.4222 26.362 73.4102 25.9527 74.4394 25.6801H74.4504C75.1666 25.4901 75.8986 25.3658 76.6374 25.3088H76.6456H76.6704H76.7007L76.7751 25.3019L76.994 25.2841C77.0987 25.2744 77.2034 25.2634 77.3094 25.2497C77.3934 25.2414 77.4788 25.2304 77.5642 25.218L77.7418 25.1933C77.8286 25.1823 77.9154 25.1685 78.0035 25.1548L78.0503 25.1479H78.0779L78.3189 25.1067H78.3368C78.3565 25.1056 78.3763 25.1056 78.396 25.1067H78.4483H78.5144H78.6384C78.6838 25.1067 78.7348 23.8608 78.7899 23.8594L79.013 23.8471L79.1989 23.8374H79.3269H79.3917H79.411H79.4674H79.6051C79.6097 23.8367 79.6143 23.8367 79.6189 23.8374L79.7566 23.8306H79.7704L79.9081 23.8237H79.915L80.3433 23.8031C80.3478 23.8017 80.3526 23.8017 80.3571 23.8031L80.4838 23.7962H80.4975L80.7523 23.7838L81.0622 23.7701L81.2081 23.7632H81.2921H81.3362H81.4602H81.5373C81.5621 23.7893 81.5855 23.8141 81.6116 23.8388L81.6227 23.8484C81.8409 24.0589 82.0768 24.2503 82.3278 24.4205C82.628 24.6254 82.8662 24.7546 82.8704 24.756C82.8745 24.7574 82.8373 24.8 82.8346 24.8234C82.8325 24.8287 82.8325 24.8346 82.8346 24.8399C83.1554 25.61 82.9254 27.2642 82.9144 27.5062C82.8717 28.444 82.2259 30.3293 81.9917 30.9701C81.9793 31.0072 81.9642 31.0444 81.9504 31.0815L81.9339 31.1255C81.8127 31.4473 81.708 31.7443 81.6227 32.0111C81.6103 32.0482 81.5992 32.0853 81.5869 32.1238C82.9172 32.1238 83.6319 32.1348 84.2034 31.8351C84.9636 31.4418 84.6496 32.1637 85.2639 32.9241C85.8781 33.6846 87.0789 34.819 87.4067 36.0181C87.7345 37.2172 87.2194 37.8704 86.1562 38.0918Z" fill="#9ABAE3"/>
<path d="M79.8723 43.9042C79.623 43.4916 75.9722 34.966 75.9722 34.966C75.9722 34.966 75.7463 30.743 75.8234 28.5112C75.6058 28.5539 74.9242 34.8532 74.9971 35.0114C75.4847 36.0674 78.9826 43.8932 79.3834 44.5615C79.7841 45.2298 80.3653 45.5653 81.036 45.4237C80.6338 45.3233 80.156 44.3717 79.8723 43.9042Z" fill="white"/>
<path d="M72.1092 26.8928C72.2097 26.8337 72.3185 26.7732 72.4314 26.7127C72.3912 26.6292 72.3563 26.5434 72.3268 26.4556C72.0169 26.6055 71.7401 26.754 71.5005 26.8928C72.9768 31.4995 73.0828 38.2155 74.5013 38.6789C75.5686 39.0295 75.9666 39.0914 76.4637 39.035C76.002 38.9582 75.5484 38.839 75.1086 38.6789C73.6902 38.2155 73.5841 31.4995 72.1092 26.8928Z" fill="white"/>
<path d="M86.1562 38.0918C85.8285 38.1605 85.0917 38.2293 84.1773 38.2926C84.6028 39.823 84.2076 40.1531 84.7516 40.666C85.374 41.2532 84.5877 41.1927 84.0699 42.0232C83.552 42.8538 82.8745 44.3609 81.8471 45.0608C80.8198 45.7608 79.9494 45.4885 79.3903 44.5589C78.9771 43.8824 77.8451 41.0593 76.9321 38.9622C76.1443 39.1135 75.8772 39.1341 74.5055 38.6872C73.105 38.2265 72.981 31.7154 71.5722 27.1171L71.502 26.8971C72.4222 26.362 73.4102 25.9527 74.4394 25.6801H74.4504C75.1666 25.4901 75.8986 25.3658 76.6374 25.3088H76.6456H76.6704H76.7007L76.7751 25.3019L76.994 25.2841C77.0987 25.2744 77.2034 25.2634 77.3094 25.2497C77.3934 25.2414 77.4788 25.2304 77.5642 25.218L77.7418 25.1933C77.8286 25.1823 77.9154 25.1685 78.0035 25.1548L78.0503 25.1479H78.06H78.0779L78.3189 25.1067H78.3368C78.3565 25.1056 78.3763 25.1056 78.396 25.1067H78.4483H78.5144H78.6384C78.6838 25.1067 78.7348 23.8608 78.7899 23.8594L79.013 23.8471L79.1989 23.8374H79.3269H79.411H79.4674H79.6051C79.6097 23.8367 79.6143 23.8367 79.6189 23.8374L79.7566 23.8306H79.7704L79.9081 23.8237H79.915L80.3433 23.8031C80.3478 23.8017 80.3526 23.8017 80.3571 23.8031L80.4838 23.7962H80.4975L80.7523 23.7838L81.0622 23.7701L81.2081 23.7632H81.2921H81.3362H81.4602H81.5373C81.558 23.7921 81.583 23.8176 81.6116 23.8388L81.6227 23.8484C81.7604 23.9736 82.062 24.2101 82.3278 24.4205C82.5936 24.6309 82.8043 24.7959 82.8346 24.8234C82.9833 25.1424 83.5355 26.9039 81.989 30.966C81.9766 31.0031 81.9614 31.0402 81.9477 31.0774L81.9311 31.1214C81.8389 31.351 81.737 31.6343 81.6199 32.0069C81.6075 32.0441 81.5965 32.0812 81.5841 32.1197C82.9144 32.1197 83.6292 32.1307 84.2007 31.8309C84.9609 31.4377 84.6469 32.1596 85.2611 32.92C85.8753 33.6804 87.0762 34.8149 87.4039 36.014C87.7317 37.2131 87.2194 37.8704 86.1562 38.0918Z" stroke="#263238" stroke-width="0.575525" stroke-linecap="round" stroke-linejoin="round"/>
<path d="M75.9966 27.5718C75.5104 30.3399 74.9871 32.8494 75.0023 33.7598C75.0339 35.6849 75.2144 35.4745 76.0544 37.06C76.8945 38.6455 78.8294 43.6234 79.3885 44.553" stroke="#263238" stroke-width="0.575525" stroke-linecap="round" stroke-linejoin="round"/>
<path d="M84.1772 38.2925C84.1772 35.5423 81.2397 33.9513 81.2397 33.9513L81.613 32.0454" stroke="#263238" stroke-width="0.575525" stroke-linecap="round" stroke-linejoin="round"/>
<path d="M82.9402 27.4278C82.9402 27.4278 84.893 26.853 87.2948 25.2029C87.7506 24.8907 88.0027 24.987 88.1101 24.9278C88.1445 24.9086 86.8169 27.8293 84.9963 28.7135C84.2149 29.0926 83.3724 29.3305 82.5078 29.4162L82.9402 27.4278Z" fill="#263238" stroke="#263238" stroke-width="0.575525" stroke-linecap="round" stroke-linejoin="round"/>
<path d="M88.1555 24.9168C88.1432 24.9337 88.1299 24.9498 88.1155 24.9649C88.124 24.9525 88.1332 24.9405 88.1431 24.9292V24.9223L88.1348 24.9278L88.1265 24.9347C88.0439 25.0296 87.46 26.1063 86.4877 26.8433C86.4819 26.8487 86.4754 26.8533 86.4685 26.8571C85.8721 27.3054 85.1312 27.6216 84.2733 27.5075C82.4086 27.26 81.7834 27.5708 79.394 24.8096C79.3775 25.2606 78.4741 25.9248 75.9071 26.6151C73.5039 27.2614 72.4972 27.2806 72.4972 27.2806C72.4862 27.3329 72.4738 27.3851 72.4628 27.436C72.3774 27.8348 72.292 28.2171 72.208 28.5773C72.0937 29.0628 71.9946 29.4849 71.8679 29.8644C71.7159 30.3657 71.4511 30.8257 71.0939 31.2093C71.1004 31.112 71.1301 31.0177 71.1807 30.9343C70.7414 31.2451 71.043 28.0053 70.4673 25.0846C70.4673 25.0612 70.459 25.0392 70.4535 25.0158C70.448 24.9924 70.4439 24.9718 70.4384 24.9484C70.4122 24.8261 70.3748 24.7064 70.3268 24.5909C70.3268 24.5909 70.3268 24.5785 70.3268 24.573C70.1437 24.1358 69.8627 23.8099 69.6796 23.3038C69.6589 23.2488 69.6396 23.1938 69.619 23.1402C69.5983 23.0865 69.5804 23.0357 69.5598 22.9862V22.9793C69.5184 22.872 69.4744 22.7661 69.4289 22.663C69.3422 23.0755 68.9924 23.7631 68.6632 24.3544C68.3341 24.9457 68.0297 25.4174 68.0297 25.4174C68.0297 25.4174 66.9831 23.4468 65.9365 23.0563C65.3553 22.839 64.8829 22.663 64.5304 22.5063C64.4533 22.4719 64.383 22.4375 64.3183 22.4031L64.255 22.3701C64.2349 22.3605 64.2156 22.3494 64.1971 22.3371C64.1641 22.3192 64.1338 22.3 64.1062 22.2835C64.0787 22.267 64.0622 22.2546 64.0429 22.2395C64.0236 22.2244 63.985 22.1955 63.9603 22.1749C63.9481 22.1646 63.9366 22.1535 63.9258 22.1419C63.894 22.113 63.8666 22.0797 63.8446 22.0428C63.8446 22.0318 63.8322 22.0208 63.8267 22.0098C63.8205 21.9994 63.8154 21.9883 63.8115 21.9768L65.1887 20.3913C65.3264 20.247 65.8662 18.1664 66.0453 17.769C66.0783 17.6975 66.1114 17.6315 66.1472 17.5545C66.183 17.4775 66.2174 17.417 66.2532 17.3372C66.289 17.2575 66.3276 17.1997 66.3661 17.1227C66.4049 17.0522 66.4354 16.9774 66.457 16.8999C66.5757 16.6971 66.7063 16.5015 66.8481 16.3142C67.2613 15.7724 67.7695 15.3007 68.3272 15.0683L69.7044 14.4963L69.7181 14.4853C70.1657 14.0727 70.3847 13.4787 70.6615 13.216L70.6739 13.2037L70.7235 13.1624L70.7565 13.1404L70.7813 13.1253C70.7845 13.1245 70.7878 13.1245 70.7909 13.1253C70.8022 13.1184 70.8142 13.1129 70.8267 13.1088L70.9369 13.0689L71.0485 13.0318C72.2094 12.666 73.9887 12.7169 74.4349 12.3291C75.4127 11.9894 78.5663 10.6405 80.6073 13.4567C80.6348 13.4966 80.6651 13.5378 80.6927 13.5791C80.7202 13.6203 81.1347 14.0287 81.6291 14.5059L81.6415 14.5183C82.4306 15.2801 83.2721 16.1959 83.3148 16.2454C83.2363 16.2289 82.0354 15.9704 81.1334 16.7803L81.0948 16.8147C81.0827 16.825 81.0712 16.836 81.0604 16.8477C81.0414 16.865 81.0235 16.8834 81.0067 16.9027C80.9709 16.9412 80.9364 16.9825 80.902 17.0265C80.8841 17.0485 80.8662 17.0718 80.8497 17.0952C80.8331 17.1186 80.8152 17.1447 80.7987 17.1708C80.7947 17.1783 80.7914 17.1861 80.7891 17.1942C80.7877 17.1992 80.7877 17.2044 80.7891 17.2093C80.7877 17.2129 80.7877 17.2168 80.7891 17.2203C80.9796 17.6915 81.2477 18.1274 81.5823 18.5102C82.1814 19.3353 82.903 20.2373 82.9181 20.2552C83.0862 20.4436 83.2473 20.6251 83.3988 20.8052C84.4606 22.0222 85.1657 22.9133 85.9465 23.5472C85.9556 23.5566 85.9658 23.5649 85.9768 23.572C86.5993 24.0655 87.2773 24.485 87.9971 24.8219L88.0577 24.8508L88.1073 24.8769L88.1293 24.8893C88.1375 24.8935 88.145 24.8991 88.1513 24.9058C88.1513 24.9058 88.1596 24.9099 88.1555 24.9168Z" fill="#6C63FF"/>
<path d="M76.1152 17.769L75.574 19.0204C75.0879 18.6326 74.4062 18.0482 74.1115 17.6026C73.7934 17.1241 72.755 14.3629 72.2275 12.699L72.2716 11.9922L72.3542 12.0472C73.4076 12.733 74.3166 13.6177 75.0301 14.6516L75.7654 15.7187L74.4296 16.3664L76.1152 17.769Z" fill="#1B3A6C" stroke="#263238" stroke-width="0.575525" stroke-linecap="round" stroke-linejoin="round"/>
<path d="M70.196 15.0999L69.1782 15.4079C68.4625 15.6231 67.8474 16.087 67.4444 16.7156C67.1607 17.1662 66.9014 17.6317 66.6677 18.11C66.4873 18.5074 65.9433 20.5852 65.8111 20.7323L64.4477 22.3151C64.4477 22.3261 64.4477 22.3302 64.4477 22.3302C64.4766 22.3871 64.5015 22.4459 64.5221 22.5062C64.445 22.4718 64.3747 22.4375 64.31 22.4031L64.2467 22.3701C64.2266 22.3604 64.2073 22.3494 64.1888 22.3371C64.1558 22.3192 64.1255 22.3 64.0979 22.2835C64.0704 22.2669 64.0539 22.2546 64.0346 22.2394C64.0153 22.2243 63.9767 22.1954 63.952 22.1748C63.9398 22.1645 63.9283 22.1535 63.9175 22.1418C63.8868 22.112 63.8596 22.0787 63.8363 22.0428C63.8363 22.0318 63.8239 22.0208 63.8184 22.0098C63.8122 21.9994 63.8071 21.9883 63.8032 21.9768L65.1804 20.3913C65.3181 20.2469 65.8579 18.1664 66.037 17.769C66.1483 17.4675 66.2866 17.1766 66.4501 16.8999C66.5688 16.6971 66.6994 16.5015 66.8412 16.3141C67.2544 15.7723 67.7625 15.3007 68.3203 15.0683L69.6974 14.4962L69.7112 14.4852C70.1918 14.0191 70.3819 13.4841 70.6546 13.216L70.667 13.2036L70.7165 13.1624L70.7496 13.1404L70.7744 13.1252C70.7775 13.1245 70.7808 13.1245 70.784 13.1252C70.7953 13.1184 70.8073 13.1128 70.8198 13.1087L70.93 13.0689L71.0415 13.0317C71.065 13.2531 70.6738 14.7327 70.196 15.0999Z" fill="white"/>
<path d="M88.1554 24.9138L88.1444 24.9248C88.1408 24.9261 88.1369 24.9261 88.1334 24.9248L88.1251 24.9316C88.0466 25.032 87.5426 26.1129 86.4863 26.8403C86.4804 26.8456 86.474 26.8502 86.467 26.854C85.8237 27.2996 85.0544 27.5275 84.2718 27.5045C82.392 27.4605 81.3688 27.4027 79.3926 24.8065C79.376 25.2575 78.0278 25.9066 75.9056 26.612C73.5452 27.4013 72.4958 27.2776 72.4958 27.2776C72.4848 27.3298 72.4724 27.3821 72.4613 27.433C72.1267 28.9456 71.7535 29.9494 71.3927 30.6246C71.372 30.6631 71.3527 30.7002 71.3321 30.736C71.2951 30.812 71.2431 30.8798 71.1792 30.9353C70.7399 31.2461 71.0415 28.0064 70.4659 25.0856C70.4659 25.0623 70.4576 25.0403 70.4521 25.0169C70.4466 24.9935 70.4424 24.9729 70.4369 24.9495C70.4067 24.8283 70.3694 24.7089 70.3254 24.592C70.3254 24.592 70.3254 24.5796 70.3254 24.5741C70.0979 24.0312 69.8366 23.5031 69.5432 22.9927V22.9859C69.5018 22.8786 69.4578 22.7727 69.4123 22.6696C69.3256 23.0821 68.9758 23.7697 68.6466 24.361C68.3175 24.9523 68.0131 25.4239 68.0131 25.4239C68.0131 25.4239 66.9665 23.4534 65.9199 23.0629C65.3387 22.8456 64.8663 22.6696 64.5138 22.5128C64.4367 22.4784 64.3664 22.4441 64.3017 22.4097L64.2384 22.3767C64.2183 22.367 64.199 22.356 64.1805 22.3437C64.1475 22.3258 64.1172 22.3066 64.0896 22.2901C64.0621 22.2736 64.0456 22.2612 64.0263 22.2461C64.007 22.2309 63.9684 22.202 63.9437 22.1814C63.9315 22.1711 63.92 22.1601 63.9092 22.1484C63.8774 22.1196 63.85 22.0862 63.828 22.0494C63.828 22.0384 63.8156 22.0274 63.8101 22.0164C63.8039 22.006 63.7988 21.9949 63.7949 21.9834L65.1721 20.3979C65.3098 20.2535 65.8496 18.173 66.0287 17.7756C66.0617 17.7041 66.0948 17.6381 66.1306 17.5611C66.1664 17.4841 66.2008 17.4236 66.2366 17.3438C66.2724 17.264 66.311 17.2063 66.3495 17.1293C66.4969 16.8543 66.6622 16.5861 66.8315 16.3207C67.2447 15.7789 67.7529 15.3073 68.3106 15.0749L69.6878 14.5028L69.7015 14.4918C70.1491 14.0793 70.3681 13.4852 70.6449 13.2226L70.6573 13.2102L70.7069 13.169L70.7399 13.147C70.7509 13.1397 70.7624 13.1333 70.7743 13.1277C70.7856 13.1208 70.7976 13.1153 70.8101 13.1112L70.9203 13.0713L71.0319 13.0342C72.1928 12.6684 73.9721 12.7193 74.4183 12.3315C75.3961 11.9919 78.5497 10.6429 80.5907 13.4591C80.6361 13.5086 81.0892 13.972 81.6125 14.5083L81.6249 14.5207C82.3782 15.2908 83.2775 16.2052 83.3147 16.252C83.2362 16.2341 81.9513 15.9618 81.0782 16.8171C81.0661 16.8274 81.0546 16.8384 81.0438 16.8501C81.0248 16.8674 81.0069 16.8858 80.9901 16.9051C80.9543 16.9436 80.9198 16.9849 80.8854 17.0289C80.8675 17.0509 80.8496 17.0743 80.8331 17.0977C80.8165 17.121 80.7986 17.1472 80.7821 17.1733C80.7773 17.1803 80.774 17.1883 80.7725 17.1967C80.7711 17.2016 80.7711 17.2068 80.7725 17.2118C80.7718 17.2154 80.7718 17.2192 80.7725 17.2228C80.7807 17.3851 81.1429 17.9296 81.5657 18.5126C82.1648 19.3377 82.8864 20.2398 82.9015 20.2576C83.0696 20.446 83.2307 20.6276 83.3822 20.8077C84.4522 22.0247 85.1835 22.9157 85.9299 23.5497C85.939 23.559 85.9492 23.5673 85.9602 23.5744C86.007 23.6157 86.0539 23.6542 86.0979 23.6913C86.683 24.1432 87.3206 24.5227 87.997 24.8216L88.0576 24.8505L88.1072 24.8766L88.1292 24.889C88.1375 24.8932 88.1449 24.8988 88.1513 24.9055C88.1528 24.9061 88.1542 24.9073 88.1549 24.9088C88.1557 24.9104 88.1559 24.9121 88.1554 24.9138Z" stroke="#263238" stroke-width="0.575525" stroke-linecap="round" stroke-linejoin="round"/>
<path d="M69.713 13.9271C69.724 13.8624 69.3742 15.4163 69.4155 16.3624C69.4541 17.2617 69.4651 17.2617 69.4651 17.2617L70.2349 17.765L69.6207 19.3711L71.5033 21.8064L70.5393 15.2059L70.4015 13.8569L69.713 13.9271Z" fill="#1B3A6C" stroke="#263238" stroke-width="0.575525" stroke-linecap="round" stroke-linejoin="round"/>
<path d="M78.9523 18.8209L77.0298 16.3828" stroke="#263238" stroke-width="0.575525" stroke-linecap="round" stroke-linejoin="round"/>
<path d="M76.3784 16.7651C76.9926 17.5599 77.7556 17.9945 78.0971 17.736" stroke="#263238" stroke-width="0.575525" stroke-linecap="round" stroke-linejoin="round"/>
<path d="M68.6758 19.375C67.8495 20.9921 69.4153 22.6753 69.4153 22.6753" stroke="#263238" stroke-width="0.575525" stroke-linecap="round" stroke-linejoin="round"/>
<path d="M67.709 20.7612C68.2158 21.4185 69.2734 22.7785 69.4153 22.6699" stroke="#263238" stroke-width="0.575525" stroke-linecap="round" stroke-linejoin="round"/>
<path d="M82.5946 17.0965L82.1016 16.2714C82.3217 16.2249 82.5458 16.1996 82.7709 16.1958C83.2529 16.1958 83.2942 16.2467 83.2942 16.2467C83.2942 16.2467 83.4457 16.2192 82.9967 16.7665C82.8794 16.8953 82.7439 17.0065 82.5946 17.0965Z" fill="#263238" stroke="#263238" stroke-width="0.575525" stroke-linecap="round" stroke-linejoin="round"/>
<path d="M66.8193 25.2895L67.428 24.4961C67.428 24.4961 68.3301 25.4257 68.0161 25.4243C67.7021 25.4229 66.8193 25.2895 66.8193 25.2895Z" fill="#263238" stroke="#263238" stroke-width="0.575525" stroke-linecap="round" stroke-linejoin="round"/>
<path d="M79.39 24.8096L78.4824 23.5527" stroke="#263238" stroke-width="0.575525" stroke-linecap="round" stroke-linejoin="round"/>
<path d="M76.1151 19.4342C76.1151 19.4342 75.8851 19.2679 75.5739 19.0217C75.0878 18.6339 74.4061 18.0495 74.1114 17.604C73.7932 17.1254 72.9064 14.8304 72.3789 13.1665" stroke="#263238" stroke-width="0.575525" stroke-linecap="round" stroke-linejoin="round"/>
<path d="M71.2178 20.6167C71.4932 22.9035 73.8344 25.8174 71.5015 30.4116" stroke="#263238" stroke-width="0.575525" stroke-linecap="round" stroke-linejoin="round"/>
<path d="M71.0419 15.1824C71.2484 15.4478 71.5748 15.3419 71.8255 14.9569C71.8558 14.9101 71.8847 14.8593 71.9136 14.8056L71.9384 14.7547C71.9577 14.7149 71.9756 14.6722 71.9907 14.631C72.1959 14.1112 72.1918 13.4965 71.9715 13.2119C71.9454 13.1734 71.9117 13.1407 71.8725 13.1157C71.8333 13.0907 71.7894 13.0739 71.7435 13.0664C71.6976 13.059 71.6507 13.061 71.6056 13.0722C71.5605 13.0835 71.5181 13.1039 71.4812 13.1321C71.4716 13.1368 71.4628 13.1428 71.455 13.15C71.442 13.1578 71.4296 13.1665 71.4178 13.1761C71.2697 13.3019 71.1524 13.46 71.0749 13.6382C70.8188 14.1827 70.8036 14.8744 71.0419 15.1824Z" fill="#263238" stroke="#263238" stroke-width="0.575525" stroke-linecap="round" stroke-linejoin="round"/>
<path d="M72.1253 13.6258C72.0311 13.8557 71.8907 14.0641 71.7129 14.2379C71.535 14.4117 71.3234 14.5473 71.0911 14.6365C71.0761 14.6432 71.0604 14.6482 71.0443 14.6516C71.003 14.6653 70.9617 14.6777 70.9203 14.6873L70.8804 14.6956C70.8496 14.7035 70.8183 14.7095 70.7868 14.7135C70.7844 14.7145 70.7818 14.715 70.7792 14.715C70.7766 14.715 70.774 14.7145 70.7716 14.7135C70.7248 14.7135 70.6766 14.7258 70.6339 14.7286C70.363 14.7428 70.0928 14.6914 69.8462 14.5787C69.1796 14.2776 68.6742 13.5598 68.6067 12.6976C68.5827 12.4274 68.6065 12.1551 68.677 11.8931C68.7147 11.744 68.7692 11.5996 68.8395 11.4627C68.8578 11.427 68.8771 11.3926 68.8973 11.3596C68.909 11.3349 68.9223 11.311 68.9372 11.2881C69.0791 11.0531 69.2753 10.8556 69.5094 10.712C69.7435 10.5684 70.0087 10.483 70.2827 10.463C70.2923 10.4623 70.302 10.4623 70.3116 10.463C71.2481 10.4286 72.0854 11.2001 72.2796 12.2383C72.2966 12.325 72.3081 12.4127 72.314 12.5009C72.314 12.5381 72.314 12.5724 72.3223 12.6068C72.3261 12.7262 72.3215 12.8456 72.3085 12.9643C72.3085 12.9863 72.3085 13.0083 72.3002 13.029C72.2722 13.2355 72.2133 13.4367 72.1253 13.6258Z" fill="#FCD8C3"/>
<path d="M71.0911 14.6378C71.0761 14.6445 71.0604 14.6496 71.0443 14.653C71.003 14.6667 70.9617 14.6791 70.9203 14.6887L70.879 14.6983C70.8487 14.6983 70.8184 14.7121 70.7868 14.7148C70.7844 14.7159 70.7818 14.7164 70.7792 14.7164C70.7766 14.7164 70.774 14.7159 70.7716 14.7148C70.7248 14.7148 70.6766 14.7272 70.6339 14.73C70.363 14.7442 70.0928 14.6927 69.8462 14.5801C69.1796 14.2789 68.6742 13.5611 68.6067 12.6989C68.5827 12.4287 68.6065 12.1565 68.677 11.8945C68.7147 11.7454 68.7692 11.601 68.8395 11.4641C68.8578 11.4283 68.8771 11.394 68.8973 11.361C68.909 11.3362 68.9223 11.3123 68.9372 11.2894C69.0791 11.0545 69.2753 10.8569 69.5094 10.7134C69.7435 10.5698 70.0087 10.4844 70.2827 10.4644C70.2923 10.4637 70.302 10.4637 70.3116 10.4644C69.9412 10.6007 69.6274 10.8574 69.4206 11.1932C69.4068 11.2152 69.3917 11.2386 69.3779 11.2647C69.3642 11.2908 69.3407 11.3321 69.3228 11.3678C69.2349 11.5418 69.1709 11.7268 69.1328 11.9179C69.0846 12.1437 69.0703 12.3754 69.0901 12.6054C69.1137 12.9527 69.216 13.29 69.3892 13.5921C69.5624 13.8941 69.802 14.1529 70.0899 14.3491C70.3277 14.5034 70.5994 14.5978 70.8818 14.6241C70.9511 14.6339 71.0211 14.6385 71.0911 14.6378Z" fill="white"/>
<path d="M72.1253 13.6258C72.0311 13.8557 71.8907 14.0641 71.7129 14.2379C71.535 14.4117 71.3234 14.5473 71.0911 14.6365C71.0761 14.6432 71.0604 14.6482 71.0443 14.6516C71.003 14.6653 70.9617 14.6777 70.9203 14.6873L70.8804 14.6956C70.8496 14.7035 70.8183 14.7095 70.7868 14.7135C70.7844 14.7145 70.7818 14.715 70.7792 14.715C70.7766 14.715 70.774 14.7145 70.7716 14.7135C70.7248 14.7135 70.6766 14.7258 70.6339 14.7286C70.363 14.7428 70.0928 14.6914 69.8462 14.5787C69.1796 14.2776 68.6742 13.5598 68.6067 12.6976C68.5827 12.4274 68.6065 12.1551 68.677 11.8931C68.7147 11.744 68.7692 11.5996 68.8395 11.4627C68.8578 11.427 68.8771 11.3926 68.8973 11.3596C68.909 11.3349 68.9223 11.311 68.9372 11.2881C69.0791 11.0531 69.2753 10.8556 69.5094 10.712C69.7435 10.5684 70.0087 10.483 70.2827 10.463C70.2923 10.4623 70.302 10.4623 70.3116 10.463C71.2481 10.4286 72.0854 11.2001 72.2796 12.2383C72.2966 12.325 72.3081 12.4127 72.314 12.5009C72.314 12.5381 72.314 12.6934 72.325 12.7292C72.325 12.8084 72.3158 12.8873 72.2975 12.9643C72.2975 12.9863 72.2975 13.0083 72.2892 13.029C72.2647 13.2349 72.2095 13.4361 72.1253 13.6258Z" stroke="#263238" stroke-width="0.575525" stroke-linecap="round" stroke-linejoin="round"/>
<path d="M56.4166 27.4756C56.2783 27.379 56.1738 27.2414 56.1178 27.0824C55.9991 26.7768 55.9898 26.4396 56.0916 26.128L56.4166 25.0912C56.4166 25.0912 56.7334 24.4215 57.2154 24.075C57.8558 23.6171 58.4369 24.1548 58.4369 24.1548L63.1192 23.4108L64.1686 22.2764C64.7325 22.5866 65.3212 22.8497 65.9286 23.0629C66.5249 23.2857 67.0731 23.9581 67.4339 24.4958C66.726 25.4281 65.6587 26.8857 65.4356 26.9834C64.9991 27.1704 57.5156 28.1453 56.4166 27.4756Z" fill="#FCD8C3" stroke="#263238" stroke-width="0.575525" stroke-linecap="round" stroke-linejoin="round"/>
<path d="M54.4233 26.19C54.4233 26.19 55.1822 26.1502 55.9864 26.0718" stroke="#263238" stroke-width="0.575525" stroke-linecap="round" stroke-linejoin="round"/>
<path d="M90.7518 9.91017C87.3502 5.99799 82.5701 3.42792 77.297 2.67436C72.7221 2.01981 68.4419 2.23845 64.5569 3.32616C61.4808 4.18106 58.5996 5.62257 56.0723 7.57111C53.9638 9.18626 52.1366 11.1376 50.6642 13.3466C50.6223 13.409 50.5982 13.4817 50.5947 13.5569C50.5912 13.632 50.6082 13.7066 50.6441 13.7727C50.68 13.8389 50.7333 13.8939 50.7982 13.932C50.8632 13.9701 50.9373 13.9897 51.0126 13.9887C51.0814 13.9891 51.1491 13.9723 51.2097 13.9398C51.2703 13.9074 51.3218 13.8604 51.3597 13.8031C52.782 11.6705 54.5447 9.78498 56.5777 8.22154C60.4076 5.26369 67.0923 2.04731 77.1785 3.49117C87.3405 4.94466 95.0016 13.3768 95.0016 23.1139C95.0016 26.4568 93.3491 29.8822 90.8702 31.6396C88.9298 33.0147 86.601 33.298 84.1387 32.4468C83.7706 32.3208 83.4102 32.1739 83.059 32.0067L83.0397 31.9985C81.0772 31.0662 79.9948 29.7419 79.3049 28.3063C78.7843 27.2283 78.4854 26.0869 78.2031 25.0061C77.5765 22.6079 76.9857 20.3445 74.2521 19.6872C71.0846 18.9267 69.3591 20.4077 66.9628 22.4566C66.6034 22.7633 66.2315 23.0809 65.8322 23.4123C62.5476 26.1309 56.3711 25.3375 56.2609 25.2921C56.1585 25.2531 56.0447 25.2563 55.9446 25.301C55.8446 25.3458 55.7664 25.4284 55.7273 25.5307C55.6882 25.633 55.6914 25.7466 55.7362 25.8465C55.7811 25.9465 55.8638 26.0245 55.9662 26.0635C56.0957 26.113 62.6854 27.0894 66.3596 24.0476C66.7631 23.7121 67.1377 23.3917 67.4999 23.0851C69.8741 21.0554 71.3077 19.8302 74.0593 20.4916C76.3164 21.0224 76.7984 22.865 77.4099 25.2027C77.6853 26.2368 77.9745 27.3644 78.4744 28.4603C79.2264 30.1105 80.4438 31.6877 82.7436 32.7644L82.8042 32.7933C83.1361 32.9459 83.4928 33.089 83.8701 33.2196C84.8351 33.5627 85.8508 33.7421 86.8751 33.7504C88.483 33.7535 90.0504 33.2475 91.3522 32.3051C94.0266 30.4034 95.8238 26.7085 95.8238 23.1112C95.8279 18.3561 94.0266 13.6656 90.7518 9.91017Z" fill="white" stroke="#263238" stroke-width="0.575525" stroke-linecap="round" stroke-linejoin="round"/>
<path d="M73.1244 22.4525C72.254 21.952 72.9756 21.2809 72.9756 21.2809C72.9756 21.2809 72.1163 21.1434 72.4551 20.6154C72.7594 20.1355 73.9506 20.5494 74.0608 20.4779C74.0608 20.4779 74.3638 20.5906 74.3845 20.0654C74.4079 19.4919 73.3392 19.5401 73.3406 19.4383C73.3488 19.012 74.5401 18.99 74.9656 18.9941C75.157 18.9941 76.4805 19.5992 76.6609 19.6391C77.0052 19.7119 79.4014 19.4479 79.4014 19.4479L78.9483 18.8126L79.3326 18.6297C79.692 18.4606 80.4343 17.8198 80.594 17.4581C81.2702 16.2866 82.0979 16.2632 82.0979 16.2632C82.0979 16.2632 82.9627 17.6699 83.7105 19.0932C84.6387 20.8588 85.3838 22.9902 83.2891 23.3986C81.7619 23.697 74.9326 23.455 74.3376 23.389C72.7856 23.2267 73.408 22.6162 73.1244 22.4525Z" fill="#FCD8C3" stroke="#263238" stroke-width="0.575525" stroke-linecap="round" stroke-linejoin="round"/>
<path d="M80.35 19.2925L79.4053 19.4547" stroke="#263238" stroke-width="0.575525" stroke-linecap="round" stroke-linejoin="round"/>
<path d="M57.8002 25.0915C57.4724 25.7213 56.967 26.1916 56.39 25.9084C55.9479 25.6897 56.9725 24.2871 56.9725 24.2871" fill="#FCD8C3"/>
<path d="M57.8002 25.0915C57.4724 25.7213 56.967 26.1916 56.39 25.9084C55.9479 25.6897 56.9725 24.2871 56.9725 24.2871" stroke="#263238" stroke-width="0.575525" stroke-linecap="round" stroke-linejoin="round"/>
<path d="M59.7447 26.3027C59.7447 26.3027 58.8027 27.0549 58.4818 26.4609C58.161 25.8668 57.9737 25.849 57.712 25.904L57.4242 26.0717C57.4242 26.0717 57.2672 25.6001 56.8967 25.7046C56.5263 25.8091 56.5166 26.0401 56.5166 26.0401C56.5166 26.0401 56.0333 25.5973 55.7799 25.9026C55.5265 26.2079 55.565 26.8404 55.9851 27.2639C56.6902 27.9749 59.2393 27.6613 59.2393 27.6613" fill="#FCD8C3"/>
<path d="M59.7447 26.3027C59.7447 26.3027 58.8027 27.0549 58.4818 26.4609C58.161 25.8668 57.9737 25.849 57.712 25.904L57.4242 26.0717C57.4242 26.0717 57.2672 25.6001 56.8967 25.7046C56.5263 25.8091 56.5166 26.0401 56.5166 26.0401C56.5166 26.0401 56.0333 25.5973 55.7799 25.9026C55.5265 26.2079 55.565 26.8404 55.9851 27.2639C56.6902 27.9749 59.2393 27.6613 59.2393 27.6613" stroke="#263238" stroke-width="0.575525" stroke-linecap="round" stroke-linejoin="round"/>
<path d="M57.4248 26.0718C57.4248 26.7085 57.7539 27.2241 58.1602 27.2241" stroke="#263238" stroke-width="0.575525" stroke-linecap="round" stroke-linejoin="round"/>
<path d="M56.5186 26.04C56.5186 26.6946 56.7513 27.224 57.0405 27.224" stroke="#263238" stroke-width="0.575525" stroke-linecap="round" stroke-linejoin="round"/>
<path d="M56.1367 25.8159C56.3942 26.6204 55.8254 27.0398 55.8062 27.0398" stroke="#263238" stroke-width="0.575525" stroke-linecap="round" stroke-linejoin="round"/>
<path d="M57.6836 26.948C58.1615 26.8105 57.8213 25.9937 57.8323 25.9937" stroke="#263238" stroke-width="0.575525" stroke-linecap="round" stroke-linejoin="round"/>
<path d="M50.6035 27.9532L53.6677 28.3286C54.456 28.3775 55.2316 28.1118 55.8238 27.5899C56.4159 27.0679 56.7763 26.3325 56.8255 25.5454C56.8501 25.1556 56.7976 24.7648 56.6709 24.3954C56.5442 24.0259 56.3458 23.685 56.087 23.3922C55.8283 23.0994 55.5143 22.8603 55.1629 22.6887C54.8116 22.5171 54.4299 22.4164 54.0395 22.3922L50.9519 21.9604L50.6035 27.9532Z" fill="#1B3A6C" stroke="#263238" stroke-width="0.575525" stroke-linecap="round" stroke-linejoin="round"/>
<path d="M51.9279 25.0332C52.0534 23.3785 51.6639 22 51.0579 21.9542C50.452 21.9084 49.859 23.2126 49.7335 24.8673C49.6081 26.5219 49.9976 27.9004 50.6036 27.9462C51.2095 27.992 51.8025 26.6878 51.9279 25.0332Z" fill="#1B3A6C" stroke="#263238" stroke-width="0.575525" stroke-linecap="round" stroke-linejoin="round"/>
<path d="M53.3549 25.7848C53.4294 25.8711 53.5278 25.9334 53.6378 25.9639C53.7478 25.9944 53.8643 25.9916 53.9727 25.9559C54.0811 25.9202 54.1764 25.8532 54.2467 25.7635C54.317 25.6737 54.359 25.5651 54.3675 25.4515C54.3759 25.3378 54.3505 25.2242 54.2943 25.1251C54.2381 25.0259 54.1538 24.9455 54.0519 24.8942C53.95 24.8429 53.8351 24.8229 53.7218 24.8368C53.6086 24.8507 53.502 24.8977 53.4155 24.9721C53.3577 25.0213 53.3103 25.0814 53.276 25.149C53.2417 25.2166 53.2211 25.2903 53.2155 25.3658C53.2098 25.4414 53.2192 25.5173 53.2432 25.5892C53.2671 25.6612 53.3051 25.7276 53.3549 25.7848Z" fill="white" stroke="#263238" stroke-width="0.575525" stroke-linecap="round" stroke-linejoin="round"/>
<path d="M51.2851 23.9475C51.2851 24.0149 51.2651 24.0809 51.2276 24.1369C51.19 24.193 51.1367 24.2367 51.0743 24.2625C51.0119 24.2884 50.9432 24.2951 50.877 24.2819C50.8107 24.2688 50.7498 24.2363 50.7021 24.1886C50.6543 24.1409 50.6218 24.0802 50.6086 24.014C50.5954 23.9479 50.6022 23.8793 50.628 23.817C50.6539 23.7547 50.6977 23.7014 50.7538 23.6639C50.81 23.6264 50.876 23.6064 50.9436 23.6064C50.9885 23.6063 51.033 23.615 51.0745 23.632C51.116 23.6491 51.1537 23.6742 51.1855 23.7059C51.2172 23.7376 51.2424 23.7753 51.2595 23.8168C51.2766 23.8582 51.2853 23.9026 51.2851 23.9475Z" fill="#263238" stroke="#263238" stroke-width="0.575525" stroke-linecap="round" stroke-linejoin="round"/>
<path d="M51.0893 26.072C51.0893 26.1394 51.0693 26.2054 51.0318 26.2615C50.9942 26.3175 50.9409 26.3612 50.8785 26.3871C50.8161 26.4129 50.7474 26.4196 50.6812 26.4065C50.6149 26.3933 50.554 26.3608 50.5063 26.3131C50.4585 26.2654 50.426 26.2047 50.4128 26.1385C50.3996 26.0724 50.4064 26.0038 50.4322 25.9415C50.4581 25.8792 50.5019 25.8259 50.558 25.7884C50.6142 25.751 50.6802 25.731 50.7478 25.731C50.7927 25.7308 50.8372 25.7395 50.8787 25.7565C50.9202 25.7736 50.9579 25.7987 50.9897 25.8304C51.0214 25.8621 51.0466 25.8998 51.0637 25.9413C51.0808 25.9827 51.0895 26.0272 51.0893 26.072Z" fill="#263238" stroke="#263238" stroke-width="0.575525" stroke-linecap="round" stroke-linejoin="round"/>
<path d="M68.6854 11.4093C68.6885 11.5721 68.737 11.7309 68.8256 11.8677C68.9141 12.0044 69.0392 12.1138 69.1867 12.1834C69.4717 12.3278 69.8105 12.3113 70.1273 12.2659C70.444 12.2206 70.7635 12.1491 71.0789 12.1944C71.5265 12.2591 71.9052 12.5451 72.3183 12.7197C72.8033 12.9205 73.3381 12.9685 73.8511 12.8572C74.1025 12.8185 74.3344 12.6993 74.5121 12.5176C74.7256 12.2687 74.7559 11.9139 74.9019 11.6196C75.1208 11.181 75.5904 10.9156 76.0532 10.7698C76.5159 10.6241 77.0172 10.5746 77.4854 10.4288C77.8985 10.2982 78.32 10.0644 78.4976 9.667C78.7441 9.11695 78.415 8.43903 77.9027 8.12C77.3904 7.80098 76.7514 7.7666 76.1496 7.8051C75.8862 7.84308 75.6179 7.82812 75.3605 7.7611C75.1334 7.65622 74.924 7.51708 74.7394 7.34857C74.3014 7.01442 73.7382 6.78477 73.2038 6.91678C72.299 7.13955 71.9355 8.21764 71.2249 8.81856C70.7484 9.22146 70.1231 9.39885 69.5902 9.722C69.1164 10.019 68.651 10.7808 68.6854 11.4093Z" fill="#263238" stroke="#263238" stroke-width="0.575525" stroke-linecap="round" stroke-linejoin="round"/>
<path d="M29.4257 32.7179C29.4257 32.7179 28.996 33.1524 28.1201 33.2322C28.126 32.692 28.1972 32.1546 28.3322 31.6315C28.3322 31.6315 28.7027 31.5064 28.704 31.5119C28.7054 31.5174 29.4257 32.7179 29.4257 32.7179Z" fill="#263238" stroke="#263238" stroke-width="0.575525" stroke-linecap="round" stroke-linejoin="round"/>
<path d="M14.2355 30.7834L15.0302 29.6627C15.0302 29.6627 14.1088 29.4537 13.7219 29.4674C13.3349 29.4812 13.003 29.7232 12.8956 29.7865C12.8377 29.8209 13.2123 30.2636 13.6268 30.5442C13.8056 30.6752 14.0153 30.7576 14.2355 30.7834Z" fill="#263238" stroke="#263238" stroke-width="0.575525" stroke-linecap="round" stroke-linejoin="round"/>
<path d="M17.3866 51.8968C16.4226 50.9755 15.9626 49.2676 15.5605 48.2995C15.4977 48.1502 15.4187 48.0082 15.325 47.876L13.4272 48.426L15.7505 56.8582L17.6248 52.1003C17.5421 52.0365 17.4625 51.9685 17.3866 51.8968Z" fill="#1B3A6C" stroke="#263238" stroke-width="0.575525" stroke-linecap="round" stroke-linejoin="round"/>
<path d="M3.10259 46.3208C2.72801 45.0419 3.1866 43.3341 3.32294 42.2945C3.34277 42.1232 3.34277 41.9501 3.32294 41.7788L0.166504 41.8077L1.75023 50.9329L3.70441 47.3576C3.40924 47.0761 3.20048 46.7165 3.10259 46.3208Z" fill="#1B3A6C" stroke="#263238" stroke-width="0.575525" stroke-linecap="round" stroke-linejoin="round"/>
<path d="M28.3414 30.6512C28.1651 35.5714 27.8567 39.368 27.5826 40.8916C27.2149 42.924 26.3556 44.0324 25.1946 45.567C24.0337 47.1016 20.8249 50.9052 20.073 51.7921C19.3211 52.679 18.3502 52.8193 17.3862 51.8994C16.4222 50.9794 15.9622 49.2674 15.5587 48.3048C15.1552 47.3423 14.3192 47.2666 15.0739 46.751C15.8286 46.2353 16.1164 44.2758 17.6588 42.3094C18.4851 41.2629 18.2978 41.6796 19.5593 40.629C19.6641 40.542 19.7479 40.4325 19.8044 40.3086L19.8168 40.277C19.8855 40.1289 19.9112 39.9645 19.8912 39.8026L20.6349 35.0378C20.6349 35.0378 20.6349 35.0461 20.6266 35.0488L20.4242 35.4063C19.5084 37.0413 18.7509 38.5278 18.2937 39.3942L18.1822 39.5399C17.455 40.4915 16.7747 41.212 16.4566 41.5902C15.118 43.1674 15.1139 42.869 13.3401 43.6171C11.5663 44.3652 6.57688 47.1772 5.48204 47.5692C4.38721 47.9611 3.47691 47.5994 3.10232 46.3206C2.72773 45.0417 3.1877 43.3338 3.32267 42.2956C3.45763 41.2574 2.7718 40.772 3.67935 40.7088H3.71378C3.91407 40.6843 4.09664 40.582 4.22195 40.4241C5.33744 39.5482 7.4197 36.9327 9.86828 36.2493L9.90821 36.2397C10.0872 36.1984 10.2883 36.1585 10.5183 36.1173C11.0871 36.0059 12.0456 34.089 12.9187 32.1542C12.9476 32.0896 12.9738 32.0277 13.0027 31.9645C13.1308 31.6784 13.2561 31.3924 13.3773 31.1133C13.4613 30.9249 13.5425 30.7392 13.621 30.5632C13.767 30.2277 14.271 29.5773 14.6374 29.5938C16.491 29.6776 18.2799 30.2401 21.3854 29.6185C23.5283 29.1867 26.3253 29.206 27.7933 29.8152C27.959 29.8823 28.1003 29.9983 28.1982 30.1477C28.2962 30.2971 28.3461 30.4727 28.3414 30.6512Z" fill="#9ABAE3"/>
<path d="M27.8005 29.8028C27.3442 29.6284 26.8691 29.508 26.3848 29.4438C26.4867 29.4769 26.5831 29.5126 26.674 29.5497C27.0142 29.6872 27.5719 30.0668 27.5595 30.4339C27.3819 35.3554 27.072 39.6059 26.7966 41.1281C26.4289 43.1619 25.0366 44.6085 23.8756 46.1418C22.7147 47.675 20.0196 50.8309 19.2636 51.7178C18.9289 52.1111 18.2348 52.1744 17.8354 52.2459C18.6466 52.7519 19.4371 52.5374 20.0733 51.7879C20.8252 50.9024 24.0326 47.0975 25.195 45.5656C26.3573 44.0337 27.2152 42.9254 27.5829 40.8902C27.8584 39.368 28.1655 35.5713 28.3431 30.6512C28.3495 30.4715 28.301 30.2942 28.2041 30.1427C28.1072 29.9911 27.9664 29.8726 27.8005 29.8028Z" fill="white"/>
<path d="M28.3414 30.6511C28.1651 35.5713 27.8567 39.3679 27.5826 40.8916C27.2149 42.924 26.3556 44.0323 25.1946 45.5669C24.0337 47.1015 20.8249 50.9051 20.073 51.792C19.3211 52.679 18.3502 52.8192 17.3862 51.8993C16.4222 50.9793 15.9622 49.2673 15.5587 48.3048C15.1552 47.3422 14.3192 47.2666 15.0739 46.7509C15.8286 46.2352 16.1164 44.2757 17.6588 42.3093C18.4851 41.2628 18.2978 41.6795 19.5593 40.6289C19.6641 40.5419 19.7479 40.4324 19.8044 40.3085L19.8168 40.2769C19.8855 40.1288 19.9112 39.9644 19.8912 39.8025L20.6349 35.0377C20.6349 35.0377 20.6349 35.046 20.6266 35.0487L20.4242 35.4063C19.5084 37.0413 18.7509 38.5278 18.2937 39.3941L18.1822 39.5398C17.455 40.4914 16.7747 41.212 16.4566 41.5901C15.118 43.1674 15.1139 42.869 13.3401 43.617C11.5663 44.3651 6.57688 47.1772 5.48204 47.5691C4.38721 47.961 3.47691 47.5993 3.10232 46.3205C2.72773 45.0416 3.1877 43.3337 3.32267 42.2955C3.45763 41.2573 2.7718 40.7719 3.67935 40.7087H3.71378C3.90255 40.6534 4.07631 40.5561 4.22195 40.424C5.33744 39.5481 7.4197 36.9326 9.86828 36.2492L9.90821 36.2396C10.1085 36.1847 10.3123 36.1438 10.5183 36.1172C11.0953 36.0361 12.0483 34.0999 12.9187 32.1541C12.9476 32.0895 12.9738 32.0276 13.0027 31.9644C13.1308 31.6784 13.2561 31.3923 13.3773 31.1132C13.4613 30.9248 13.5425 30.7392 13.621 30.5631C13.767 30.2276 14.103 29.5029 14.4693 29.5194C16.3216 29.6033 18.2799 30.24 21.3868 29.6184C23.5296 29.1867 26.4065 29.3077 27.8759 29.9141C28.2285 30.042 28.3552 30.2909 28.3414 30.6511Z" stroke="#263238" stroke-width="0.575525" stroke-linecap="round" stroke-linejoin="round"/>
<path d="M21.4805 33.5776C21.1885 34.0644 20.9049 34.5526 20.6322 35.0311C20.6322 35.0311 20.6322 35.0394 20.6239 35.0421L20.4215 35.3997C19.5057 37.0347 18.7482 38.5211 18.291 39.3875" stroke="#263238" stroke-width="0.575525" stroke-linecap="round" stroke-linejoin="round"/>
<path d="M16.8385 29.9883C16.8784 30.2633 14.9972 31.5573 14.0029 31.6989" stroke="#263238" stroke-width="0.575525" stroke-linecap="round" stroke-linejoin="round"/>
<path d="M15.3027 31.2397C15.3027 31.2397 12.6558 36.7278 12.0319 37.1142C11.4081 37.5006 10.0241 37.205 8.4238 38.5333C6.82355 39.8617 5.8499 41.3922 5.09247 41.8418C4.79087 42.0233 4.46861 42.187 4.19043 42.319" stroke="#263238" stroke-width="0.575525" stroke-linecap="round" stroke-linejoin="round"/>
<path d="M21.1887 34.0737L21.0083 41.5777C21.0083 41.5777 19.5058 41.4718 18.4124 43.496C17.5351 45.1213 16.9788 46.5886 16.6221 47.3243" stroke="#263238" stroke-width="0.575525" stroke-linecap="round" stroke-linejoin="round"/>
<path d="M38.6702 29.0422H38.6165C37.5244 28.9144 34.0623 29.0422 33.5927 28.8346C33.4822 28.7629 33.3821 28.6764 33.2952 28.5775C32.6851 27.9504 31.5917 26.8476 31.2598 25.3542C31.2722 25.313 31.2846 25.2758 31.2997 25.2373C31.3474 25.1121 31.4138 24.9948 31.4966 24.8894C31.5159 24.866 31.5352 24.8413 31.5559 24.8193C31.863 24.492 32.3271 24.3573 32.8573 24.2596C32.9764 24.2379 33.0942 24.209 33.2098 24.173C33.2594 24.1579 33.3076 24.1414 33.3475 24.1235C33.4136 24.0987 33.477 24.074 33.5403 24.0451L33.6354 23.9997C33.7625 23.9416 33.8854 23.8745 34.0031 23.799C34.0347 23.7825 34.0636 23.7618 34.0939 23.7426L34.1118 23.7316C34.766 23.2943 35.1984 22.7511 35.4188 22.6562L36.6747 24.7739L40.1052 24.4673C40.3523 24.4512 40.5998 24.4925 40.8282 24.5879C41.0566 24.6833 41.2598 24.8303 41.4218 25.0173" fill="#B5846B"/>
<path d="M38.6702 29.0422H38.6165C37.5244 28.9144 34.0623 29.0422 33.5927 28.8346C33.4822 28.7629 33.3821 28.6764 33.2952 28.5775C32.6851 27.9504 31.5917 26.8476 31.2598 25.3542C31.2722 25.313 31.2846 25.2758 31.2997 25.2373C31.3474 25.1121 31.4138 24.9948 31.4966 24.8894C31.5159 24.866 31.5352 24.8413 31.5559 24.8193C31.863 24.492 32.3271 24.3573 32.8573 24.2596C32.9764 24.2379 33.0942 24.209 33.2098 24.173C33.2594 24.1579 33.3076 24.1414 33.3475 24.1235C33.4136 24.0987 33.477 24.074 33.5403 24.0451L33.6354 23.9997C33.7625 23.9416 33.8854 23.8745 34.0031 23.799C34.0347 23.7825 34.0636 23.7618 34.0939 23.7426L34.1118 23.7316C34.766 23.2943 35.1984 22.7511 35.4188 22.6562L36.6747 24.7739L40.1052 24.4673C40.3523 24.4512 40.5998 24.4925 40.8282 24.5879C41.0566 24.6833 41.2598 24.8303 41.4218 25.0173" stroke="#263238" stroke-width="0.575525" stroke-linecap="round" stroke-linejoin="round"/>
<path d="M38.6702 29.0422H38.6165C37.5244 28.9144 34.0623 29.0422 33.5927 28.8346C33.4822 28.7629 33.3821 28.6764 33.2952 28.5775C32.6851 27.9504 31.5917 26.8476 31.2598 25.3542C31.2722 25.313 31.2846 25.2758 31.2997 25.2373C31.3474 25.1121 31.4138 24.9948 31.4966 24.8894C31.5159 24.866 31.5352 24.8413 31.5559 24.8193C31.863 24.492 32.3271 24.3573 32.8573 24.2596C32.9764 24.2379 33.0942 24.209 33.2098 24.173C33.2594 24.1579 33.3076 24.1414 33.3475 24.1235C33.4136 24.0987 33.477 24.074 33.5403 24.0451L33.6354 23.9997C33.7625 23.9416 33.8854 23.8745 34.0031 23.799C34.0347 23.7825 34.0636 23.7618 34.0939 23.7426L34.1118 23.7316C34.766 23.2943 35.1984 22.7511 35.4188 22.6562L36.6747 24.7739L40.1052 24.4673C40.3523 24.4512 40.5998 24.4925 40.8282 24.5879C41.0566 24.6833 41.2598 24.8303 41.4218 25.0173" stroke="#263238" stroke-width="0.575525" stroke-linecap="round" stroke-linejoin="round"/>
<path d="M11.9468 17.533C12.0611 17.8534 12.8722 18.4364 12.8722 18.4364L13.3652 17.4285L13.346 16.9238L11.9468 17.533Z" fill="#263238" stroke="#263238" stroke-width="0.575525" stroke-linecap="round" stroke-linejoin="round"/>
<path d="M35.7688 22.8818C35.7412 23.0193 35.587 23.172 35.3102 23.3164C34.853 23.5556 34.1603 24.3546 33.0475 24.4316C31.9348 24.5086 31.0066 26.5781 31.0066 26.5781C31.0066 26.5781 30.6127 25.6155 30.2092 25.0875C29.8057 24.5595 29.3609 24.455 29.2177 24.0521C28.0939 28.0041 29.4256 32.6602 29.4256 32.6602C29.259 33.1649 29.2122 30.2565 22.0317 30.2909C19.5852 30.2954 17.1447 30.0507 14.7479 29.5607C13.211 29.2307 12.9659 29.8261 12.8984 29.7876C12.6629 29.6501 13.6889 27.0718 14.3747 25.5757C15.7766 22.5174 15.2878 22.2039 16.7517 19.4413C16.0714 19.5293 14.887 18.2436 14.7204 18.0525C13.7054 16.8864 12.0032 17.5134 11.9468 17.5341C11.9619 17.4914 12.2966 16.6114 13.3129 15.6515C13.5636 15.4136 14.1791 14.4689 14.6432 13.8144C14.7217 13.703 14.7961 13.6012 14.8636 13.5119C14.8925 13.472 14.9214 13.4362 14.9476 13.4019C14.9738 13.3675 15.0041 13.3317 15.0302 13.3015C17.454 10.5004 21.916 12.6978 22.5936 13.1956C23.1031 13.5669 24.6593 13.7841 25.845 14.0578C26.2582 14.1513 27.3888 15.1084 28.0609 15.4948L30.4915 16.3198C31.1994 16.6852 31.8124 17.2101 32.2818 17.8531C32.3066 17.8875 32.3273 17.9191 32.3452 17.9466C32.5765 18.3179 33.8959 20.1468 34.046 20.2719L35.7688 22.8818Z" fill="#3F3D56"/>
<path d="M29.2175 24.0508H29.0289C28.0318 26.3885 28.5193 30.2745 28.7699 31.9865C29.3084 32.4939 29.3566 32.8666 29.4255 32.6589C29.4255 32.6589 28.6763 27.8158 29.2175 24.0508Z" fill="white"/>
<path d="M12.8708 16.2221C13.0444 16.0324 13.2033 15.8297 13.3459 15.6157L13.3129 15.6501C12.971 15.9714 12.6645 16.3282 12.3984 16.7144C12.5375 16.5549 12.6931 16.3899 12.8708 16.2221Z" fill="white"/>
<path d="M36.1638 22.7391C36.1362 22.8766 35.5867 23.1723 35.3099 23.3167L33.6036 20.8415C33.5279 20.7782 33.1616 20.2914 32.7842 19.7703C32.4069 19.2491 32.0185 18.7018 31.9028 18.5162C31.8849 18.4887 31.8643 18.4571 31.8381 18.4213C31.3691 17.7779 30.7561 17.2529 30.0478 16.8881L27.6171 16.063C26.9451 15.678 25.8089 14.7209 25.4013 14.6274C24.2114 14.3524 22.6594 14.1365 22.1498 13.7652C21.4723 13.2702 17.0764 11.1044 14.6416 13.8119C14.7201 13.7006 14.7945 13.5988 14.8619 13.5094C14.8909 13.4695 14.9198 13.4338 14.946 13.3994C14.9721 13.365 15.0024 13.3293 15.0286 13.299C17.4524 10.4979 21.9144 12.6954 22.5919 13.1932C23.1015 13.5644 24.6576 13.7817 25.8434 14.0553C26.2565 14.1488 27.3872 15.1059 28.0592 15.4923L30.4899 16.3174C31.1978 16.6827 31.8107 17.2077 32.2802 17.8506C32.305 17.885 32.3256 17.9166 32.3435 17.9441C32.5749 18.3154 33.8942 20.1443 34.0443 20.2694L36.1638 22.7391Z" fill="white"/>
<path d="M36.164 22.7386C36.1365 22.8761 35.587 23.1718 35.3102 23.3162C34.853 23.5554 34.1603 24.3544 33.0475 24.4314C31.9348 24.5084 31.1002 26.4665 31.1002 26.4665C31.1002 26.4665 30.6127 25.6195 30.2092 25.0914C29.8057 24.5634 29.3485 24.3282 29.2053 23.9253C28.0815 27.8774 29.4256 32.6641 29.4256 32.6641C29.259 33.1688 29.2122 30.2604 22.0317 30.2948C19.5852 30.2993 17.1447 30.0546 14.7479 29.5646C13.211 29.2346 12.9659 29.83 12.8984 29.7915C12.6629 29.654 13.6889 27.0757 14.3747 25.5796C15.7766 22.5213 15.2878 22.2078 16.7517 19.4452C16.0714 19.5332 14.887 18.2475 14.7204 18.0564C13.7054 16.8903 12.0032 17.5173 11.9468 17.538C11.9619 17.4953 12.2966 16.6153 13.3129 15.6554C13.5636 15.4175 14.1791 14.4728 14.6432 13.8183C14.7217 13.7069 14.7961 13.6052 14.8636 13.5158C14.8925 13.4759 14.9214 13.4401 14.9476 13.4058C14.9738 13.3714 15.0041 13.3356 15.0302 13.3054C17.454 10.5043 21.916 12.7017 22.5936 13.1995C23.1031 13.5708 24.6593 13.788 25.845 14.0617C26.2582 14.1552 27.3888 15.1123 28.0609 15.4987L30.4915 16.3237C31.1994 16.6891 31.8124 17.214 32.2818 17.857C32.3066 17.8914 32.3273 17.923 32.3452 17.9505C32.5765 18.3218 33.8959 20.1507 34.046 20.2758L36.164 22.7386Z" stroke="#263238" stroke-width="0.575525" stroke-linecap="round" stroke-linejoin="round"/>
<path d="M27.4096 13.9627V17.4019L26.0366 15.6307L26.3065 13.9627L27.4096 13.6162" fill="#1B3A6C"/>
<path d="M27.4096 13.9627V17.4019L26.0366 15.6307L26.3065 13.9627L27.4096 13.6162" stroke="#263238" stroke-width="0.575525" stroke-linecap="round" stroke-linejoin="round"/>
<path d="M24.4209 12.8833L23.4253 13.5282L23.1333 16.1643L25.1233 15.3736L24.4209 12.8833Z" fill="#1B3A6C" stroke="#263238" stroke-width="0.575525" stroke-linecap="round" stroke-linejoin="round"/>
<path d="M26.0362 15.6323C26.0362 15.6323 25.4854 15.9211 25.4441 16.7462C25.4027 17.5712 25.5529 19.1292 25.484 19.6023C25.4441 19.8773 23.9443 19.341 23.9443 19.341" fill="#1B3A6C"/>
<path d="M26.0362 15.6323C26.0362 15.6323 25.4854 15.9211 25.4441 16.7462C25.4027 17.5712 25.5529 19.1292 25.484 19.6023C25.4441 19.8773 23.9443 19.341 23.9443 19.341" stroke="#263238" stroke-width="0.575525" stroke-linecap="round" stroke-linejoin="round"/>
<path d="M29.9859 21.4424C29.6058 22.1024 29.2051 23.9176 29.2051 23.9176" stroke="#263238" stroke-width="0.575525" stroke-linecap="round" stroke-linejoin="round"/>
<path d="M44.204 24.0151L44.1693 24.072H44.1596C44.1096 24.029 44.204 24.0151 44.204 24.0151Z" fill="#B5846B"/>
<path d="M44.3413 23.2337C44.3477 23.2245 44.3537 23.2149 44.3591 23.2051C44.3541 23.2149 44.3487 23.2245 44.3427 23.2337H44.3413Z" fill="white"/>
<path d="M44.4214 23.0586C44.4278 23.0276 44.4302 22.9959 44.4283 22.9644C44.4322 22.9959 44.4298 23.0279 44.4214 23.0586Z" fill="white"/>
<path d="M44.3804 22.8198C44.3804 22.8198 44.3804 22.8288 44.3893 22.8342C44.3983 22.8396 44.3822 22.8252 44.3804 22.8198Z" fill="white"/>
<path d="M44.274 22.7075C44.3156 22.7386 44.3515 22.7768 44.38 22.8203C44.351 22.7768 44.3146 22.7386 44.2726 22.7075L44.2285 22.6772C44.2446 22.6859 44.2598 22.696 44.274 22.7075Z" fill="white"/>
<path d="M29.6609 25.8082C27.5662 24.6641 25.9867 22.7706 23.8218 21.7365C21.7918 20.774 19.6807 20.1167 17.5447 19.4387L17.5117 19.4277L17.0352 20.2941C19.0169 21.038 21.0606 21.577 23.0106 22.4145C24.154 22.8967 25.2209 23.5424 26.1781 24.3314C27.149 25.133 28.1171 25.9815 29.2615 26.5315C33.1079 28.3769 37.5245 27.6027 39.2211 27.6027C39.6108 27.6027 40.8558 27.3043 41.1918 27.2658C41.2524 26.9784 41.3116 26.691 41.3722 26.4036C39.5957 26.6704 32.787 27.5161 29.6609 25.8082Z" fill="white" stroke="#263238" stroke-width="0.575525" stroke-linecap="round" stroke-linejoin="round"/>
<path d="M26.0362 15.6321C25.8681 15.9222 25.5307 15.8603 25.2305 15.5138C25.1923 15.4699 25.1564 15.424 25.1231 15.3763C25.1121 15.3598 25.1011 15.3447 25.0914 15.3282C25.0818 15.3117 25.0432 15.2525 25.0226 15.214C24.7471 14.7259 24.67 14.1139 24.8504 13.8045C24.872 13.7636 24.9017 13.7275 24.9376 13.6983C24.9735 13.6691 25.0149 13.6474 25.0594 13.6346C25.1039 13.6218 25.1505 13.618 25.1965 13.6236C25.2424 13.6292 25.2868 13.6439 25.3269 13.667C25.3365 13.6708 25.3457 13.6754 25.3545 13.6808C25.3685 13.6868 25.3819 13.6941 25.3944 13.7028C25.5585 13.8075 25.6961 13.9487 25.7965 14.1153C26.1229 14.6145 26.2317 15.2938 26.0362 15.6321Z" fill="#263238" stroke="#263238" stroke-width="0.575525" stroke-linecap="round" stroke-linejoin="round"/>
<path d="M26.3847 15.1303C25.502 15.2018 24.7252 14.5473 24.4898 13.6081C24.4615 13.4913 24.4413 13.3728 24.4292 13.2533C24.4292 13.2176 24.4292 13.1804 24.4209 13.1419C24.4209 13.0567 24.4209 12.9673 24.4209 12.8834C24.4746 11.8177 25.2141 10.9321 26.1602 10.8565C26.4354 10.8377 26.7109 10.8857 26.9635 10.9963C27.216 11.107 27.4379 11.277 27.6104 11.4918C27.6269 11.5124 27.6434 11.5331 27.66 11.5564C27.6765 11.5798 27.7082 11.6197 27.7302 11.6527C27.9709 12.0055 28.1082 12.4184 28.1268 12.8449C28.186 14.0248 27.4093 15.0492 26.3847 15.1303Z" fill="#B5846B"/>
<path d="M28.1271 12.8452C28.1086 12.4187 27.9712 12.0058 27.7305 11.653C27.7085 11.62 27.6851 11.587 27.6603 11.5568C27.6355 11.5265 27.6272 11.5128 27.6107 11.4921C27.4385 11.2777 27.217 11.1079 26.965 10.9973C26.713 10.8867 26.438 10.8385 26.1633 10.8568H26.1344C26.5198 10.9426 26.8655 11.1546 27.1163 11.4591C27.1342 11.4797 27.1507 11.5017 27.1673 11.5238C27.1838 11.5458 27.2141 11.587 27.2375 11.62C27.4776 11.9731 27.6144 12.3859 27.6327 12.8122C27.6933 13.9824 26.9263 14.9986 25.9141 15.0949C26.0695 15.129 26.2292 15.1396 26.3878 15.1265C27.4097 15.0495 28.1864 14.0251 28.1271 12.8452Z" fill="white"/>
<path d="M26.3847 15.1303C25.502 15.2018 24.7252 14.5473 24.4898 13.6081C24.4615 13.4913 24.4413 13.3728 24.4292 13.2533C24.4292 13.2176 24.4292 13.1804 24.4209 13.1419C24.4209 13.0567 24.4209 12.9673 24.4209 12.8834C24.4746 11.8177 25.2141 10.9321 26.1602 10.8565C26.4354 10.8377 26.7109 10.8857 26.9635 10.9963C27.216 11.107 27.4379 11.277 27.6104 11.4918C27.6269 11.5124 27.6434 11.5331 27.66 11.5564C27.6765 11.5798 27.7082 11.6197 27.7302 11.6527C27.9709 12.0055 28.1082 12.4184 28.1268 12.8449C28.186 14.0248 27.4093 15.0492 26.3847 15.1303Z" stroke="#263238" stroke-width="0.575525" stroke-linecap="round" stroke-linejoin="round"/>
<path d="M28.2978 11.177C28.334 11.0521 28.3553 10.9233 28.3612 10.7934C28.397 10.1058 27.8103 9.77994 27.4468 10.0055C27.3874 10.0361 27.3327 10.075 27.2843 10.121C27.2393 10.1784 27.1763 10.2191 27.1054 10.2365C27.0344 10.254 26.9597 10.2472 26.8932 10.2172L26.8532 10.1993C26.7595 10.1609 26.6567 10.1504 26.5572 10.1693C26.4577 10.1882 26.3658 10.2356 26.2928 10.3057C26.2198 10.3759 26.1688 10.4657 26.1461 10.5642C26.1233 10.6628 26.1298 10.7658 26.1646 10.8608C25.2185 10.9364 24.479 11.8233 24.4253 12.8877C24.4253 12.9743 24.4253 13.0651 24.4253 13.1517L24.5162 13.2562C25.4017 13.4295 25.673 13.1091 25.841 12.6484C25.9663 12.3046 26.4593 12.2634 26.4814 12.2648C26.7857 12.3019 28.0252 12.0461 28.0252 12.0461C28.2469 12.0131 28.7069 11.7463 28.6752 11.525C28.6608 11.433 28.6157 11.3485 28.5472 11.2853C28.4787 11.2222 28.3908 11.184 28.2978 11.177Z" fill="#263238" stroke="#263238" stroke-width="0.575525" stroke-linecap="round" stroke-linejoin="round"/>
<path d="M25.842 9.16383C25.5748 9.12533 24.8353 9.59699 24.6163 10.0219C24.559 10.1266 24.5252 10.2425 24.5171 10.3615C24.5163 10.3924 24.5251 10.4228 24.5424 10.4484C24.5596 10.474 24.5844 10.4937 24.6134 10.5046C24.6423 10.5155 24.6739 10.5171 24.7038 10.5092C24.7337 10.5013 24.7604 10.4843 24.7802 10.4606C24.9895 10.1855 25.3517 9.773 25.6671 9.66437C26.1449 9.49386 26.1091 9.20233 25.842 9.16383Z" fill="#263238" stroke="#263238" stroke-width="0.575525" stroke-linecap="round" stroke-linejoin="round"/>
<path d="M27.43 8.77872C27.4028 8.74579 27.3641 8.72436 27.3217 8.71875C27.2793 8.71314 27.2363 8.72376 27.2014 8.74847C27.1843 8.75961 27.1696 8.77417 27.1583 8.79123C27.1471 8.80829 27.1395 8.82749 27.136 8.84763C27.1325 8.86776 27.1332 8.8884 27.1381 8.90825C27.1429 8.9281 27.1518 8.94673 27.1642 8.96298C27.1911 8.99641 27.2297 9.01831 27.2722 9.02419C27.3147 9.03007 27.3579 9.01949 27.3928 8.99461C27.41 8.98333 27.4247 8.96865 27.436 8.95147C27.4473 8.93428 27.4549 8.91497 27.4584 8.89473C27.4619 8.87448 27.4611 8.85374 27.4563 8.83378C27.4514 8.81383 27.4425 8.79508 27.43 8.77872Z" fill="#263238" stroke="#263238" stroke-width="0.575525" stroke-linecap="round" stroke-linejoin="round"/>
<path d="M47.6878 28.2555L44.8082 28.7038C44.066 28.7743 43.3263 28.5476 42.7514 28.0737C42.1766 27.5998 41.8137 26.9173 41.7426 26.1764C41.672 25.4353 41.899 24.6967 42.3737 24.1227C42.8483 23.5487 43.5318 23.1864 44.2738 23.1154L47.0736 22.6162L47.6878 28.2555Z" fill="#1B3A6C" stroke="#263238" stroke-width="0.575525" stroke-linecap="round" stroke-linejoin="round"/>
<path d="M47.6875 28.2575C48.2576 28.1957 48.5824 26.8829 48.4129 25.3253C48.2435 23.7677 47.6439 22.5552 47.0738 22.617C46.5037 22.6789 46.1789 23.9917 46.3483 25.5493C46.5178 27.1068 47.1173 28.3194 47.6875 28.2575Z" fill="#1B3A6C" stroke="#263238" stroke-width="0.575525" stroke-linecap="round" stroke-linejoin="round"/>
<path d="M46.8906 24.0632C46.884 23.9944 46.891 23.9249 46.9113 23.8588C46.9316 23.7927 46.9648 23.7313 47.0089 23.678C47.0531 23.6247 47.1073 23.5807 47.1685 23.5484C47.2298 23.5161 47.2968 23.4962 47.3657 23.4898L49.3516 23.3055C49.4904 23.2925 49.6286 23.335 49.736 23.4237C49.8434 23.5124 49.9112 23.64 49.9245 23.7786C49.9375 23.9171 49.8949 24.0552 49.8061 24.1624C49.7173 24.2697 49.5895 24.3374 49.4507 24.3506L47.4621 24.5362C47.3237 24.5485 47.1859 24.5057 47.0789 24.4171C46.9719 24.3285 46.9042 24.2013 46.8906 24.0632Z" fill="white" stroke="#263238" stroke-width="0.575525" stroke-linecap="round" stroke-linejoin="round"/>
<path d="M47.2115 26.926C47.2047 26.8573 47.2116 26.7879 47.2317 26.7219C47.2519 26.6559 47.285 26.5945 47.329 26.5414C47.3731 26.4882 47.4272 26.4442 47.4884 26.412C47.5495 26.3799 47.6164 26.3601 47.6853 26.3539L49.6711 26.1655C49.8099 26.1521 49.9484 26.1943 50.056 26.2827C50.1637 26.3711 50.2318 26.4986 50.2454 26.6372C50.2585 26.7758 50.2159 26.9138 50.1271 27.0211C50.0382 27.1283 49.9104 27.196 49.7717 27.2092L47.7844 27.4031C47.7158 27.4096 47.6466 27.4024 47.5807 27.3821C47.5148 27.3619 47.4536 27.3288 47.4005 27.2849C47.3474 27.2409 47.3035 27.187 47.2714 27.1261C47.2392 27.0652 47.2193 26.9986 47.2129 26.9301L47.2115 26.926Z" fill="white" stroke="#263238" stroke-width="0.575525" stroke-linecap="round" stroke-linejoin="round"/>
<path d="M44.8539 26.2344C44.7862 26.3203 44.6944 26.3841 44.5903 26.4177C44.4861 26.4513 44.3742 26.4531 44.269 26.423C44.1638 26.3928 44.0699 26.332 43.9994 26.2484C43.929 26.1647 43.885 26.062 43.8733 25.9533C43.8616 25.8446 43.8825 25.7349 43.9335 25.6381C43.9845 25.5414 44.0632 25.462 44.1595 25.4101C44.2559 25.3583 44.3656 25.3362 44.4745 25.3468C44.5835 25.3575 44.6868 25.4003 44.7713 25.4698C44.8272 25.5144 44.8738 25.5697 44.9082 25.6323C44.9426 25.695 44.9643 25.7638 44.972 25.8349C44.9797 25.906 44.9732 25.9779 44.953 26.0464C44.9327 26.115 44.899 26.1788 44.8539 26.2344Z" fill="white" stroke="#263238" stroke-width="0.575525" stroke-linecap="round" stroke-linejoin="round"/>
<path d="M23.2709 24.7175C24.268 24.591 23.764 23.7164 23.764 23.7164C23.8748 23.6655 23.9708 23.5873 24.0431 23.4891C24.1153 23.391 24.1615 23.2762 24.1771 23.1554C24.1771 22.7868 23.6703 22.8803 22.9377 22.2217C22.7559 22.0594 22.8674 21.7624 22.9377 21.5657C23.1263 21.0157 23.9017 21.8848 23.9375 21.7899C24.0986 21.3773 23.0754 20.6128 22.8068 20.4945C22.5696 20.376 22.3063 20.3188 22.0411 20.3281C21.5316 20.3639 20.9518 20.7943 20.434 20.7035C20.1173 20.6485 19.7991 20.6018 19.481 20.5537C18.7346 20.4382 17.9868 20.3158 17.2349 20.2319C17.1839 20.2319 17.133 20.2195 17.0806 20.2154C17.1426 20.2154 17.4538 19.5182 17.5048 19.4274C17.4965 19.4426 16.7625 19.3463 16.6882 19.3394C16.4379 19.3161 16.1936 19.2491 15.9665 19.1414C15.4859 18.9132 15.1251 18.4951 14.7574 18.1128C14.393 17.7176 13.8941 17.4724 13.3582 17.4253C12.8694 18.3753 12.4371 19.3534 12.0637 20.3543C11.3751 22.2272 10.9303 24.4397 13.0607 24.5648C13.5276 24.591 20.412 25.3157 22.2684 25.3817C23.4266 25.4257 22.9556 24.7587 23.2709 24.7175Z" fill="#B5846B" stroke="#263238" stroke-width="0.575525" stroke-linecap="round" stroke-linejoin="round"/>
<path d="M15.4307 20.0947L17.0874 20.2157" stroke="#263238" stroke-width="0.575525" stroke-linecap="round" stroke-linejoin="round"/>
<path d="M40.4058 25.8907C40.8382 26.625 41.4731 27.1613 42.1479 26.7818C42.6629 26.4903 41.3464 24.8745 41.3464 24.8745" fill="#B5846B"/>
<path d="M40.4058 25.8907C40.8382 26.625 41.4731 27.1613 42.1479 26.7818C42.6629 26.4903 41.3464 24.8745 41.3464 24.8745" stroke="#263238" stroke-width="0.575525" stroke-linecap="round" stroke-linejoin="round"/>
<path d="M37.7656 28.0372C37.7656 28.0372 38.4873 26.9949 39.6744 27.5848C39.7487 27.1104 39.7308 26.7034 40.2252 26.6539C40.7499 26.6003 40.805 26.8244 40.9138 27.0444C40.8863 26.9908 41.0322 26.7914 41.0612 26.7556C41.2953 26.4586 41.9315 26.5384 42.0004 26.9495C42.0004 26.9495 42.5512 26.3885 42.8749 26.7446C43.1985 27.1008 43.193 27.8571 42.7165 28.3948C41.915 29.2913 38.742 29.0383 38.742 29.0383" fill="#B5846B"/>
<path d="M37.7654 28.0372C37.7654 28.0372 38.487 26.9949 39.6741 27.5848C39.7485 27.1104 39.7306 26.7034 40.225 26.6539C40.7497 26.6003 40.8048 26.8244 40.9136 27.0444C40.886 26.9908 41.032 26.7914 41.0609 26.7556C41.295 26.4586 41.9313 26.5384 42.0002 26.9495C42.0002 26.9495 42.551 26.3885 42.8746 26.7446C43.1983 27.1008 43.1928 27.8571 42.7163 28.3948C41.9148 29.2913 38.7418 29.0383 38.7418 29.0383L37.5933 28.9861" stroke="#263238" stroke-width="0.575525" stroke-linecap="round" stroke-linejoin="round"/>
<path d="M40.9149 27.0444C40.9549 27.809 40.5706 28.3412 40.1079 28.4732" stroke="#263238" stroke-width="0.575525" stroke-linecap="round" stroke-linejoin="round"/>
<path d="M42.0006 26.9497C42.0419 27.7349 41.7967 28.3839 41.4497 28.4018" stroke="#263238" stroke-width="0.575525" stroke-linecap="round" stroke-linejoin="round"/>
<path d="M42.4439 26.6577C42.1864 27.6382 42.8956 28.1057 42.919 28.1043" stroke="#263238" stroke-width="0.575525" stroke-linecap="round" stroke-linejoin="round"/>
<path d="M17.5117 19.4278L17.9497 18.6426" stroke="#263238" stroke-width="0.575525" stroke-linecap="round" stroke-linejoin="round"/>
</g>
<defs>
<clipPath id="clip0_42_71">
<rect width="96" height="60" fill="white"/>
</clipPath>
</defs>
</svg>
