<svg width="213" height="143" viewBox="0 0 213 143" fill="none" xmlns="http://www.w3.org/2000/svg">
<path d="M161.948 46.9135H123.459V8.2583H161.948V46.9135Z" fill="white"/>
<path d="M161.948 46.9135H123.459V8.2583H161.948V46.9135ZM124.028 46.3424H161.38V8.82943H124.028V46.3424Z" fill="#30589B"/>
<path d="M156.08 18.8374H131.396V19.8405H156.08V18.8374Z" fill="#1B3A6C"/>
<path d="M156.08 21.105H131.396V22.1081H156.08V21.105Z" fill="#1B3A6C"/>
<path d="M156.08 23.334H131.396V24.3371H156.08V23.334Z" fill="#1B3A6C"/>
<path d="M156.08 25.6372H131.396V26.6403H156.08V25.6372Z" fill="#1B3A6C"/>
<path d="M156.08 29.3545H131.396V30.3576H156.08V29.3545Z" fill="#1B3A6C"/>
<path d="M129.897 20.1018C130.211 20.1018 130.465 19.8177 130.465 19.4672C130.465 19.1167 130.211 18.8325 129.897 18.8325C129.583 18.8325 129.328 19.1167 129.328 19.4672C129.328 19.8177 129.583 20.1018 129.897 20.1018Z" fill="#1B3A6C"/>
<path d="M156.08 34.6855H131.396V35.5577H156.08V34.6855Z" fill="#C3DAFF"/>
<path d="M156.08 36.9531H131.396V37.8253H156.08V36.9531Z" fill="#C3DAFF"/>
<path d="M156.08 39.2207H131.396V40.0929H156.08V39.2207Z" fill="#C3DAFF"/>
<path d="M129.897 35.7233C130.211 35.7233 130.465 35.4685 130.465 35.1542C130.465 34.8398 130.211 34.585 129.897 34.585C129.583 34.585 129.328 34.8398 129.328 35.1542C129.328 35.4685 129.583 35.7233 129.897 35.7233Z" fill="#C3DAFF"/>
<path d="M132.005 13.9528C132.005 14.2385 131.95 14.4796 131.839 14.676C131.727 14.8716 131.577 15.0199 131.389 15.121C131.2 15.2213 130.989 15.2714 130.757 15.2714C130.523 15.2714 130.311 15.2209 130.123 15.1198C129.935 15.0178 129.785 14.8691 129.674 14.6735C129.564 14.4771 129.508 14.2369 129.508 13.9528C129.508 13.667 129.564 13.4263 129.674 13.2307C129.785 13.0344 129.935 12.886 130.123 12.7857C130.311 12.6846 130.523 12.6341 130.757 12.6341C130.989 12.6341 131.2 12.6846 131.389 12.7857C131.577 12.886 131.727 13.0344 131.839 13.2307C131.95 13.4263 132.005 13.667 132.005 13.9528ZM131.288 13.9528C131.288 13.799 131.268 13.6695 131.227 13.5642C131.187 13.458 131.127 13.3778 131.048 13.3235C130.969 13.2683 130.872 13.2408 130.757 13.2408C130.642 13.2408 130.544 13.2683 130.465 13.3235C130.386 13.3778 130.327 13.458 130.286 13.5642C130.245 13.6695 130.225 13.799 130.225 13.9528C130.225 14.1065 130.245 14.2365 130.286 14.3426C130.327 14.4479 130.386 14.5281 130.465 14.5833C130.544 14.6376 130.642 14.6647 130.757 14.6647C130.872 14.6647 130.969 14.6376 131.048 14.5833C131.127 14.5281 131.187 14.4479 131.227 14.3426C131.268 14.2365 131.288 14.1065 131.288 13.9528ZM133.418 14.1533V15.2363H132.726V13.311H133.383V13.677H133.403C133.445 13.555 133.518 13.4593 133.624 13.3899C133.73 13.3206 133.853 13.2859 133.995 13.2859C134.131 13.2859 134.249 13.3172 134.349 13.3799C134.451 13.4417 134.529 13.527 134.584 13.6356C134.64 13.7443 134.667 13.8683 134.667 14.0079V15.2363H133.975V14.1533C133.975 14.058 133.951 13.9833 133.902 13.9289C133.853 13.8746 133.786 13.8475 133.699 13.8475C133.642 13.8475 133.592 13.86 133.55 13.8851C133.508 13.9093 133.476 13.9444 133.453 13.9904C133.431 14.0355 133.419 14.0898 133.418 14.1533ZM136.088 12.6692V15.2363H135.396V12.6692H136.088ZM136.829 15.2363V13.311H137.521V15.2363H136.829ZM137.175 13.1104C137.082 13.1104 137.001 13.0795 136.934 13.0176C136.868 12.9558 136.834 12.8814 136.834 12.7945C136.834 12.7076 136.868 12.6332 136.934 12.5714C137.001 12.5096 137.082 12.4786 137.175 12.4786C137.27 12.4786 137.35 12.5096 137.416 12.5714C137.483 12.6332 137.516 12.7076 137.516 12.7945C137.516 12.8814 137.483 12.9558 137.416 13.0176C137.35 13.0795 137.27 13.1104 137.175 13.1104ZM138.954 14.1533V15.2363H138.262V13.311H138.919V13.677H138.939C138.981 13.555 139.054 13.4593 139.159 13.3899C139.266 13.3206 139.389 13.2859 139.53 13.2859C139.667 13.2859 139.785 13.3172 139.885 13.3799C139.986 13.4417 140.064 13.527 140.12 13.6356C140.176 13.7443 140.203 13.8683 140.202 14.0079V15.2363H139.51V14.1533C139.511 14.058 139.487 13.9833 139.438 13.9289C139.389 13.8746 139.322 13.8475 139.235 13.8475C139.178 13.8475 139.128 13.86 139.085 13.8851C139.044 13.9093 139.011 13.9444 138.989 13.9904C138.966 14.0355 138.955 14.0898 138.954 14.1533ZM141.855 15.2714C141.649 15.2714 141.472 15.2321 141.323 15.1536C141.175 15.0742 141.061 14.9606 140.981 14.8126C140.902 14.6639 140.862 14.4859 140.862 14.2787C140.862 14.0798 140.902 13.906 140.982 13.7572C141.063 13.6085 141.176 13.4927 141.322 13.41C141.468 13.3273 141.641 13.2859 141.84 13.2859C141.985 13.2859 142.117 13.3085 142.235 13.3536C142.352 13.3987 142.453 13.4643 142.537 13.5504C142.62 13.6356 142.685 13.7392 142.73 13.8612C142.775 13.9833 142.797 14.1207 142.797 14.2736V14.4341H141.078V14.053H142.161C142.16 13.9979 142.146 13.9494 142.118 13.9076C142.091 13.865 142.055 13.832 142.009 13.8086C141.964 13.7844 141.912 13.7722 141.855 13.7722C141.799 13.7722 141.747 13.7844 141.701 13.8086C141.654 13.832 141.616 13.8646 141.588 13.9064C141.56 13.9482 141.546 13.997 141.544 14.053V14.4642C141.544 14.526 141.557 14.5812 141.583 14.6296C141.609 14.6781 141.646 14.7161 141.694 14.7437C141.743 14.7713 141.801 14.7851 141.87 14.7851C141.917 14.7851 141.961 14.7784 142 14.765C142.04 14.7516 142.075 14.7324 142.103 14.7074C142.131 14.6814 142.152 14.6505 142.166 14.6146H142.797C142.776 14.7483 142.724 14.8645 142.643 14.9631C142.562 15.0608 142.455 15.1369 142.321 15.1912C142.188 15.2447 142.033 15.2714 141.855 15.2714ZM147.036 13.9528C147.036 14.2385 146.981 14.4796 146.87 14.676C146.759 14.8716 146.609 15.0199 146.42 15.121C146.231 15.2213 146.02 15.2714 145.788 15.2714C145.554 15.2714 145.342 15.2209 145.154 15.1198C144.966 15.0178 144.816 14.8691 144.705 14.6735C144.595 14.4771 144.539 14.2369 144.539 13.9528C144.539 13.667 144.595 13.4263 144.705 13.2307C144.816 13.0344 144.966 12.886 145.154 12.7857C145.342 12.6846 145.554 12.6341 145.788 12.6341C146.02 12.6341 146.231 12.6846 146.42 12.7857C146.609 12.886 146.759 13.0344 146.87 13.2307C146.981 13.4263 147.036 13.667 147.036 13.9528ZM146.319 13.9528C146.319 13.799 146.299 13.6695 146.258 13.5642C146.218 13.458 146.158 13.3778 146.079 13.3235C146 13.2683 145.903 13.2408 145.788 13.2408C145.673 13.2408 145.575 13.2683 145.496 13.3235C145.417 13.3778 145.358 13.458 145.317 13.5642C145.276 13.6695 145.256 13.799 145.256 13.9528C145.256 14.1065 145.276 14.2365 145.317 14.3426C145.358 14.4479 145.417 14.5281 145.496 14.5833C145.575 14.6376 145.673 14.6647 145.788 14.6647C145.903 14.6647 146 14.6376 146.079 14.5833C146.158 14.5281 146.218 14.4479 146.258 14.3426C146.299 14.2365 146.319 14.1065 146.319 13.9528ZM147.757 15.2363V13.311H148.429V13.677H148.449C148.484 13.5416 148.54 13.4426 148.616 13.3799C148.693 13.3172 148.783 13.2859 148.885 13.2859C148.915 13.2859 148.945 13.2884 148.974 13.2934C149.004 13.2976 149.033 13.3039 149.061 13.3122V13.9026C149.027 13.8909 148.984 13.8821 148.934 13.8763C148.884 13.8704 148.841 13.8675 148.805 13.8675C148.737 13.8675 148.676 13.883 148.622 13.9139C148.569 13.944 148.526 13.9866 148.495 14.0417C148.465 14.0961 148.449 14.16 148.449 14.2335V15.2363H147.757ZM150.263 15.2614C150.126 15.2614 149.999 15.2255 149.884 15.1536C149.77 15.0817 149.678 14.9727 149.608 14.8264C149.54 14.6802 149.505 14.4959 149.505 14.2736C149.505 14.0413 149.541 13.8525 149.613 13.7071C149.686 13.5617 149.78 13.4551 149.894 13.3874C150.009 13.3197 150.131 13.2859 150.258 13.2859C150.353 13.2859 150.436 13.3026 150.508 13.336C150.58 13.3686 150.64 13.4125 150.689 13.4676C150.737 13.522 150.774 13.5817 150.799 13.6469H150.809V12.6692H151.501V15.2363H150.814V14.9204H150.799C150.772 14.9856 150.734 15.0441 150.684 15.0959C150.634 15.1469 150.574 15.1874 150.503 15.2175C150.433 15.2468 150.353 15.2614 150.263 15.2614ZM150.518 14.7299C150.582 14.7299 150.636 14.7115 150.681 14.6748C150.727 14.6372 150.762 14.5845 150.787 14.5168C150.812 14.4483 150.824 14.3672 150.824 14.2736C150.824 14.1784 150.812 14.0969 150.787 14.0292C150.762 13.9607 150.727 13.9085 150.681 13.8725C150.636 13.8358 150.582 13.8174 150.518 13.8174C150.455 13.8174 150.4 13.8358 150.355 13.8725C150.311 13.9085 150.277 13.9607 150.253 14.0292C150.229 14.0969 150.217 14.1784 150.217 14.2736C150.217 14.3689 150.229 14.4508 150.253 14.5193C150.277 14.587 150.311 14.6392 150.355 14.676C150.4 14.712 150.455 14.7299 150.518 14.7299ZM153.152 15.2714C152.946 15.2714 152.769 15.2321 152.62 15.1536C152.472 15.0742 152.358 14.9606 152.278 14.8126C152.199 14.6639 152.159 14.4859 152.159 14.2787C152.159 14.0798 152.199 13.906 152.279 13.7572C152.359 13.6085 152.473 13.4927 152.619 13.41C152.765 13.3273 152.938 13.2859 153.137 13.2859C153.282 13.2859 153.414 13.3085 153.531 13.3536C153.649 13.3987 153.75 13.4643 153.833 13.5504C153.917 13.6356 153.981 13.7392 154.027 13.8612C154.072 13.9833 154.094 14.1207 154.094 14.2736V14.4341H152.374V14.053H153.457C153.457 13.9979 153.442 13.9494 153.415 13.9076C153.388 13.865 153.352 13.832 153.306 13.8086C153.261 13.7844 153.209 13.7722 153.152 13.7722C153.096 13.7722 153.044 13.7844 152.997 13.8086C152.951 13.832 152.913 13.8646 152.885 13.9064C152.857 13.9482 152.842 13.997 152.841 14.053V14.4642C152.841 14.526 152.854 14.5812 152.88 14.6296C152.905 14.6781 152.943 14.7161 152.991 14.7437C153.04 14.7713 153.098 14.7851 153.167 14.7851C153.214 14.7851 153.258 14.7784 153.297 14.765C153.337 14.7516 153.371 14.7324 153.4 14.7074C153.428 14.6814 153.449 14.6505 153.462 14.6146H154.094C154.072 14.7483 154.021 14.8645 153.94 14.9631C153.859 15.0608 153.752 15.1369 153.618 15.1912C153.485 15.2447 153.33 15.2714 153.152 15.2714ZM154.765 15.2363V13.311H155.437V13.677H155.457C155.492 13.5416 155.547 13.4426 155.623 13.3799C155.7 13.3172 155.79 13.2859 155.893 13.2859C155.923 13.2859 155.953 13.2884 155.982 13.2934C156.012 13.2976 156.041 13.3039 156.068 13.3122V13.9026C156.034 13.8909 155.992 13.8821 155.942 13.8763C155.892 13.8704 155.849 13.8675 155.813 13.8675C155.745 13.8675 155.684 13.883 155.63 13.9139C155.576 13.944 155.534 13.9866 155.503 14.0417C155.472 14.0961 155.457 14.16 155.457 14.2335V15.2363H154.765Z" fill="#75A3EE"/>
<path d="M178.423 124.903L178.637 135.09L185.226 138.575L197.224 136.43L197.519 125.841L189.913 123.16L178.423 124.903Z" fill="white"/>
<path d="M185.209 138.685L178.533 135.154L178.316 124.813L189.923 123.052L189.948 123.061L197.627 125.767L197.328 136.519L185.209 138.685ZM178.741 135.026L185.243 138.465L197.122 136.342L197.412 125.915L189.903 123.268L178.53 124.993L178.741 135.026Z" fill="#1B3A6C"/>
<path d="M185.079 127.665L185.053 127.654L178.384 125L178.462 124.805L185.105 127.448L197.505 125.737L197.534 125.945L185.079 127.665Z" fill="#1B3A6C"/>
<path d="M185.197 127.555L184.987 127.558L185.121 138.576L185.331 138.573L185.197 127.555Z" fill="#1B3A6C"/>
<path d="M183.654 126.897L181.832 126.162L193.405 124.316L195.226 125.052L183.654 126.897Z" fill="#1B3A6C"/>
<path d="M178.465 127.858L178.381 128.051L181.17 129.253L181.253 129.059L178.465 127.858Z" fill="#1B3A6C"/>
<path d="M179.727 131.333L179.644 131.526L182.432 132.728L182.515 132.534L179.727 131.333Z" fill="#1B3A6C"/>
<path d="M189.869 126.299L190.118 138.125L197.766 142.17L211.695 139.681L212.037 127.388L203.207 124.276L189.869 126.299Z" fill="#4C77BD"/>
<path d="M197.747 142.298L189.998 138.199L189.745 126.194L203.219 124.151L203.248 124.161L212.162 127.303L211.815 139.783L197.747 142.298ZM190.239 138.05L197.786 142.042L211.576 139.578L211.913 127.474L203.196 124.402L189.994 126.404L190.239 138.05Z" fill="#3F3D56"/>
<path d="M197.596 129.506L197.566 129.494L189.824 126.413L189.914 126.186L197.626 129.254L212.02 127.267L212.054 127.509L197.596 129.506Z" fill="#3F3D56"/>
<path d="M197.733 129.379L197.489 129.382L197.644 142.172L197.888 142.169L197.733 129.379Z" fill="#3F3D56"/>
<path d="M196.065 128.621L193.827 127.761L207.261 125.619L209.499 126.478L196.065 128.621Z" fill="#3F3D56"/>
<path d="M189.917 129.73L189.821 129.955L193.057 131.349L193.154 131.125L189.917 129.73Z" fill="#3F3D56"/>
<path d="M191.383 133.764L191.287 133.988L194.523 135.383L194.62 135.159L191.383 133.764Z" fill="white"/>
<path d="M71.7439 125.858C71.1397 130.596 68.9182 134.93 66.5483 139.106C66.4699 139.248 66.3893 139.388 66.3067 139.53H41.6751C41.177 139.401 40.6852 139.259 40.1956 139.106C37.4135 138.258 34.787 136.965 32.4182 135.276C23.3563 128.741 19.8692 116.393 21.4442 105.328C22.4236 98.4538 25.4378 91.4352 31.3074 87.7328C34.4065 85.7745 38.3874 85.1379 41.9549 85.8657C42.0483 85.8827 42.1415 85.9039 42.2369 85.923C45.3063 86.6147 48.0407 88.3332 49.5967 91.1021C52.3947 96.0775 50.7286 102.241 49.3529 107.779C47.9814 113.316 47.2373 119.945 51.2183 124.029C49.904 120.157 51.2013 115.538 54.3407 112.92C56.7127 110.944 60.0153 110.204 63.0274 110.817C63.3157 110.879 63.5998 110.949 63.8796 111.033C64.5558 111.232 65.2078 111.505 65.8234 111.848C70.5186 114.473 72.42 120.518 71.7439 125.858Z" fill="#4C77BD"/>
<path d="M57.1386 139.106C57.8211 139.265 58.5057 139.405 59.1947 139.53H55.4703C54.9827 139.399 54.4972 139.259 54.0162 139.106C52.9584 138.775 51.9168 138.395 50.8916 137.967C46.7793 136.239 42.9913 133.647 40.1254 130.197C38.7238 128.525 37.5792 126.654 36.7295 124.644C35.8082 122.373 35.2226 119.979 34.9914 117.539C34.472 112.531 35.002 107.386 35.9919 102.468C37.0134 97.3708 38.6625 92.4199 40.9012 87.7286C41.1705 87.1664 41.4488 86.6077 41.7364 86.0525C41.7562 86.0068 41.7861 85.9662 41.824 85.9339C41.8618 85.9015 41.9065 85.8782 41.9547 85.8658C42.0526 85.8468 42.1539 85.8674 42.2366 85.9231C42.3359 85.9801 42.4095 86.0731 42.4423 86.1828C42.475 86.2926 42.4644 86.4107 42.4126 86.5129C40.1043 91.0185 38.3546 95.7895 37.2022 100.72C36.0746 105.53 35.4344 110.563 35.6527 115.508C35.8604 120.129 37.0666 124.674 39.8032 128.453C42.3024 131.903 45.7533 134.623 49.571 136.475C51.9874 137.632 54.5258 138.515 57.1386 139.106Z" fill="white"/>
<path d="M65.3126 139.531H64.2146C64.0916 139.39 63.9729 139.248 63.8563 139.106C61.3552 136.065 59.6609 132.441 58.93 128.57C58.0423 123.739 58.7328 118.751 60.8992 114.344C61.5036 113.108 62.2158 111.928 63.0275 110.817C63.3157 110.879 63.5998 110.949 63.8796 111.034C61.7447 113.865 60.3087 117.161 59.6888 120.654C59.1359 123.926 59.3197 127.281 60.227 130.473C61.1343 133.666 62.7421 136.615 64.9332 139.106C65.056 139.248 65.1833 139.39 65.3126 139.531Z" fill="white"/>
<path d="M190.669 105.913C190.669 105.913 189.264 103.7 180.92 102.1C172.576 100.499 172.051 99.5746 170.733 97.9799C169.414 96.3851 168.586 95.6251 168.558 91.9697C168.558 91.9697 172.081 84.4131 171.621 82.5227C171.162 80.6323 164.947 78.6528 164.947 78.6528C164.947 78.6528 157.885 75.7157 162.514 66.765C162.514 66.765 167.691 61.231 167.911 58.5564C167.911 58.5564 169.475 61.1389 174.316 62.2229C179.156 63.307 179.813 68.6962 179.813 68.6962C179.813 68.6962 179.016 71.7938 177.889 73.1784C176.762 74.5629 176.965 75.5283 179.239 76.0932C179.239 76.0932 180.996 75.4738 181.223 72.5394C181.45 69.605 181.656 67.4481 183.135 66.0999C184.613 64.7518 187.18 63.2472 191.153 64.4144C195.125 65.5816 199.596 68.4632 202.294 69.0706C204.991 69.678 205.9 69.4859 205.9 69.4859C205.9 69.4859 203.71 69.8553 202.852 77.4352C201.993 85.0151 198.397 86.0027 198.397 86.0027C198.397 86.0027 194.075 88.6811 187.226 83.3273C187.226 83.3273 180.237 78.7166 181.893 84.2575C181.893 84.2575 184.616 85.4698 188.977 86.8747C193.338 88.2796 192.581 94.7806 190.905 98.4835C189.229 102.186 190.669 105.913 190.669 105.913Z" fill="#4C77BD"/>
<path d="M200.913 72.1325L200.959 72.148C200.494 73.3786 194.483 75.3741 189.522 76.8295L189.51 76.7839C196.5 74.7374 200.553 73.0854 200.913 72.1325Z" fill="white"/>
<path d="M189.608 76.7581L189.595 76.8112C185.633 77.9721 180.774 79.2606 177.013 80.1111C176.654 80.1911 176.29 80.2835 175.929 80.387L175.904 80.2957C176.261 80.1896 176.632 80.0992 176.991 80.0193C180.743 79.1768 185.642 77.9196 189.608 76.7581Z" fill="white"/>
<path d="M175.997 80.2719L175.987 80.3722C168.791 82.4155 163.272 89.6319 163.221 89.6832L163.084 88.175C163.136 88.1219 168.75 82.3301 175.997 80.2719Z" fill="white"/>
<path d="M188.099 100.188C188.099 100.188 185.28 94.6513 181.175 92.9925C177.071 91.3337 171.904 81.8955 171.904 81.8955C171.904 81.8955 169.528 78.1501 169.959 76.12C169.959 76.12 169.394 72.0508 170.155 70.7013C170.916 69.3518 170.935 64.5967 169.564 63.4355" stroke="white" stroke-width="0.229435" stroke-miterlimit="10"/>
<path d="M185.838 101.967C185.838 101.967 184.664 98.8281 186.192 97.2394" stroke="white" stroke-width="0.229435" stroke-miterlimit="10"/>
<path d="M180.968 101.463C180.968 101.463 178.57 97.9812 181.535 93.1479" stroke="white" stroke-width="0.229435" stroke-miterlimit="10"/>
<path d="M174.904 98.9356C174.904 98.9356 173.64 94.1654 177.859 90.4125" stroke="white" stroke-width="0.229435" stroke-miterlimit="10"/>
<path d="M169.52 93.206C169.52 93.206 170.54 87.4199 174.371 85.9139" stroke="white" stroke-width="0.229435" stroke-miterlimit="10"/>
<path d="M190.17 97.3706C190.17 97.3706 187.3 96.4513 186.927 98.0353" stroke="white" stroke-width="0.229435" stroke-miterlimit="10"/>
<path d="M190.367 91.1184C190.367 91.1184 186.531 89.879 183.303 94.2574" stroke="white" stroke-width="0.229435" stroke-miterlimit="10"/>
<path d="M186.738 86.9726C186.738 86.9726 181.383 88.4597 179.315 91.8069" stroke="white" stroke-width="0.229435" stroke-miterlimit="10"/>
<path d="M180.767 84.794C180.767 84.794 176.01 85.4841 175.299 87.2468" stroke="white" stroke-width="0.229435" stroke-miterlimit="10"/>
<path d="M179.741 82.6212C179.741 82.6212 176.75 81.2036 176.999 80.0669" stroke="white" stroke-width="0.229435" stroke-miterlimit="10"/>
<path d="M178.577 76.9565C178.577 76.9565 178.651 79.6888 179.277 79.5344" stroke="white" stroke-width="0.229435" stroke-miterlimit="10"/>
<path d="M192.665 85.3123C192.665 85.3123 185.63 81.0271 185.555 77.9277" stroke="white" stroke-width="0.229435" stroke-miterlimit="10"/>
<path d="M183.553 67.0044C183.553 67.0044 181.889 75.984 183.56 78.4698" stroke="white" stroke-width="0.229435" stroke-miterlimit="10"/>
<path d="M189.124 66.1367C189.124 66.1367 186.634 73.7122 187.644 77.3511" stroke="white" stroke-width="0.229435" stroke-miterlimit="10"/>
<path d="M199.123 82.2001C199.123 82.2001 192.482 80.7565 191.003 76.3682" stroke="white" stroke-width="0.172076" stroke-miterlimit="10"/>
<path d="M194.594 68.0454C194.594 68.0454 192.511 73.4319 193.293 75.6503" stroke="white" stroke-width="0.172076" stroke-miterlimit="10"/>
<path d="M201.992 76.5455C201.992 76.5455 198.361 75.591 197.887 74.0009" stroke="white" stroke-width="0.172076" stroke-miterlimit="10"/>
<path d="M175.067 76.6986C175.067 76.6986 172.238 80.6726 170.957 80.1846" stroke="white" stroke-width="0.229435" stroke-miterlimit="10"/>
<path d="M162.565 75.5439C162.565 75.5439 166.596 78.9834 170.155 78.1686" stroke="white" stroke-width="0.229435" stroke-miterlimit="10"/>
<path d="M177.303 71.2153C177.303 71.2153 173.395 74.5044 169.755 73.5464" stroke="white" stroke-width="0.229435" stroke-miterlimit="10"/>
<path d="M163.013 69.4621C163.013 69.4621 165.299 72.6859 169.829 71.8594" stroke="white" stroke-width="0.229435" stroke-miterlimit="10"/>
<path d="M176.391 65.3387C176.391 65.3387 173.668 68.5571 170.668 68.8336" stroke="white" stroke-width="0.229435" stroke-miterlimit="10"/>
<path d="M166.843 64.3285C166.843 64.3285 169.352 66.1433 170.528 65.7416" stroke="white" stroke-width="0.229435" stroke-miterlimit="10"/>
<path d="M55.7939 13.0303C56.4501 7.72428 59.7202 2.49628 64.7524 0.769531C62.7679 6.23095 62.7683 12.2222 64.7537 17.6834C65.5269 19.7867 66.6048 22.0452 65.8774 24.165C65.4249 25.484 64.3177 26.4932 63.0802 27.1242C61.8426 27.7552 60.4691 28.056 59.1129 28.3507L58.8459 28.5727C56.6929 23.6837 55.1377 18.3364 55.7939 13.0303Z" fill="#4C77BD"/>
<path d="M64.8025 0.870577C61.8719 4.17252 60.0505 8.31907 59.5969 12.7212C59.4826 13.6672 59.5172 14.6254 59.6995 15.5605C59.9064 16.4656 60.3505 17.2985 60.9858 17.9727C61.5656 18.6132 62.2324 19.2009 62.6472 19.972C62.8537 20.3699 62.9742 20.8072 63.0009 21.2552C63.0276 21.7032 62.9597 22.1518 62.8019 22.5717C62.4356 23.628 61.7138 24.489 60.9788 25.3063C60.1627 26.2138 59.3007 27.1434 58.9538 28.3464C58.9118 28.4922 58.6893 28.4181 58.7313 28.2725C59.3349 26.1794 61.3555 24.9905 62.3191 23.1052C62.7687 22.2255 62.9575 21.2042 62.5359 20.2756C62.1673 19.4636 61.4802 18.8569 60.8876 18.2135C60.2583 17.5649 59.7965 16.7713 59.5425 15.902C59.3134 14.9792 59.2422 14.024 59.3318 13.0772C59.4997 10.9424 60.0004 8.84747 60.8155 6.86909C61.7333 4.606 63.0293 2.51746 64.6474 0.693837C64.7476 0.581005 64.902 0.758486 64.8025 0.870577Z" fill="white"/>
<path d="M59.6597 11.2945C58.9355 11.1177 58.2975 10.6878 57.8594 10.0816C57.4214 9.47542 57.2119 8.73237 57.2683 7.98517C57.2802 7.83402 57.5144 7.84557 57.5024 7.99692C57.4486 8.69261 57.6438 9.38475 58.0529 9.94841C58.4619 10.5121 59.0579 10.9101 59.7332 11.0707C59.8799 11.1058 59.8056 11.3294 59.6597 11.2945Z" fill="white"/>
<path d="M60.6494 17.6859C61.9573 16.9006 62.9228 15.6484 63.3534 14.1791C63.3959 14.0335 63.6184 14.1075 63.5759 14.2529C63.125 15.7812 62.1176 17.0822 60.7548 17.8964C60.6248 17.9739 60.5201 17.763 60.6494 17.6859Z" fill="white"/>
<path d="M61.9508 4.82859C62.2168 4.95571 62.5101 5.01439 62.8042 4.99938C63.0984 4.98436 63.3842 4.89611 63.636 4.74256C63.7649 4.66343 63.8695 4.87443 63.7414 4.95305C63.4624 5.1214 63.1466 5.21846 62.8217 5.23577C62.4967 5.25308 62.1725 5.19012 61.8773 5.05237C61.8484 5.04173 61.8246 5.02042 61.8108 4.99277C61.7969 4.96513 61.7941 4.93321 61.8028 4.90352C61.8127 4.87394 61.8338 4.8495 61.8615 4.83546C61.8892 4.82143 61.9213 4.81896 61.9508 4.82859Z" fill="white"/>
<path d="M80.0914 10.2468C80.0123 10.2985 79.9332 10.3502 79.854 10.4039C78.7942 11.1047 77.7928 11.8909 76.8596 12.7548C76.7864 12.8204 76.7132 12.8881 76.642 12.9557C74.4158 15.0611 72.5977 17.5638 71.28 20.3366C70.7567 21.4404 70.3177 22.5827 69.9667 23.7535C69.4821 25.3705 69.0846 27.1625 68.1253 28.4852C68.0268 28.6243 67.9198 28.7571 67.8049 28.8829H59.1359C59.1162 28.873 59.0964 28.865 59.0766 28.8551L58.7305 28.871C58.7444 28.8093 58.7601 28.7457 58.774 28.6841C58.7819 28.6483 58.7918 28.6125 58.7997 28.5767C58.8056 28.5528 58.8116 28.5289 58.8156 28.507C58.8175 28.4991 58.8195 28.4911 58.8215 28.4852C58.8254 28.4633 58.8314 28.4434 58.8354 28.4235C58.9224 28.0675 59.012 27.7115 59.1043 27.3555C59.1043 27.3535 59.1043 27.3535 59.1063 27.3515C59.7837 24.6319 60.7796 22.0027 62.0731 19.5191C62.1126 19.4455 62.1521 19.37 62.1957 19.2964C62.7946 18.197 63.4819 17.1486 64.2507 16.1618C64.6734 15.6229 65.123 15.1057 65.5977 14.6125C66.8266 13.3403 68.2469 12.2704 69.8065 11.4421C72.9157 9.79133 76.5154 9.15886 79.8383 10.1672C79.9232 10.1931 80.0064 10.2189 80.0914 10.2468Z" fill="#4C77BD"/>
<path d="M80.0721 10.3577C75.7553 11.2198 71.8184 13.4279 68.8205 16.6681C68.1629 17.3542 67.6168 18.1402 67.2025 18.9972C66.8258 19.8451 66.6817 20.7791 66.7853 21.702C66.8647 22.5644 67.0453 23.4373 66.9148 24.3042C66.8415 24.7469 66.6759 25.169 66.4289 25.5429C66.182 25.9167 65.8592 26.2339 65.4819 26.4735C64.557 27.0952 63.4651 27.3456 62.3889 27.5532C61.194 27.7837 59.9492 28.0041 58.9519 28.7546C58.8311 28.8456 58.6978 28.6517 58.8185 28.5609C60.5536 27.2551 62.8788 27.5291 64.7769 26.6072C65.6626 26.1771 66.4248 25.4759 66.6442 24.4792C66.836 23.6077 66.6506 22.7073 66.5627 21.8348C66.4486 20.936 66.555 20.0227 66.8727 19.1748C67.2422 18.2993 67.7573 17.4935 68.3957 16.7918C69.8079 15.189 71.4619 13.8194 73.2972 12.7333C75.385 11.482 77.6703 10.599 80.0541 10.1227C80.2017 10.0932 80.2187 10.3284 80.0721 10.3577Z" fill="white"/>
<path d="M69.7244 15.5684C69.2521 14.9888 69 14.2592 69.0132 13.51C69.0264 12.7608 69.304 12.0406 69.7964 11.4782C69.8964 11.3648 70.0765 11.5157 69.9763 11.6293C69.5168 12.1522 69.2583 12.823 69.2474 13.5207C69.2365 14.2185 69.4741 14.8971 69.9171 15.4342C70.0132 15.551 69.82 15.6845 69.7244 15.5684Z" fill="white"/>
<path d="M66.6877 21.2699C68.2022 21.4347 69.7228 21.0195 70.9463 20.107C71.0675 20.0165 71.2008 20.2103 71.0798 20.3007C69.8047 21.2479 68.2215 21.6768 66.6458 21.5018C66.4957 21.485 66.5383 21.2532 66.6877 21.2699Z" fill="white"/>
<path d="M158.699 13.9478C159.355 8.64176 162.625 3.41376 167.657 1.68701C165.673 7.14843 165.673 13.1397 167.658 18.6008C168.432 20.7042 169.51 22.9626 168.782 25.0825C168.33 26.4015 167.223 27.4107 165.985 28.0417C164.747 28.6727 163.374 28.9735 162.018 29.2682L161.751 29.4902C159.598 24.6012 158.042 19.2539 158.699 13.9478Z" fill="#4C77BD"/>
<path d="M167.707 1.78806C164.777 5.09 162.955 9.23655 162.502 13.6387C162.387 14.5847 162.422 15.5428 162.604 16.4779C162.811 17.3831 163.255 18.216 163.891 18.8901C164.47 19.5307 165.137 20.1184 165.552 20.8895C165.758 21.2874 165.879 21.7247 165.906 22.1727C165.932 22.6207 165.865 23.0693 165.707 23.4891C165.34 24.5455 164.619 25.4065 163.884 26.2238C163.067 27.1313 162.206 28.0608 161.859 29.2639C161.817 29.4097 161.594 29.3356 161.636 29.19C162.24 27.0969 164.26 25.9079 165.224 24.0227C165.674 23.143 165.862 22.1217 165.441 21.1931C165.072 20.381 164.385 19.7744 163.792 19.1309C163.163 18.4824 162.701 17.6888 162.447 16.8195C162.218 15.8967 162.147 14.9415 162.237 13.9947C162.404 11.8599 162.905 9.76495 163.72 7.78657C164.638 5.52348 165.934 3.43494 167.552 1.61132C167.652 1.49849 167.807 1.67597 167.707 1.78806Z" fill="white"/>
<path d="M162.564 12.212C161.84 12.0352 161.202 11.6053 160.764 10.9991C160.326 10.3929 160.117 9.64985 160.173 8.90265C160.185 8.7515 160.419 8.76305 160.407 8.9144C160.353 9.61009 160.549 10.3022 160.958 10.8659C161.367 11.4296 161.963 11.8276 162.638 11.9882C162.785 12.0233 162.71 12.2469 162.564 12.212Z" fill="white"/>
<path d="M163.554 18.6034C164.862 17.8181 165.828 16.5659 166.258 15.0966C166.301 14.9509 166.523 15.025 166.481 15.1704C166.03 16.6986 165.022 17.9997 163.66 18.8139C163.53 18.8914 163.425 18.6805 163.554 18.6034Z" fill="white"/>
<path d="M164.856 5.74607C165.122 5.87319 165.415 5.93187 165.709 5.91686C166.003 5.90184 166.289 5.81359 166.541 5.66004C166.67 5.58091 166.774 5.79191 166.646 5.87053C166.367 6.03888 166.051 6.13594 165.726 6.15325C165.401 6.17056 165.077 6.1076 164.782 5.96985C164.753 5.95921 164.729 5.9379 164.716 5.91026C164.702 5.88261 164.699 5.85069 164.708 5.821C164.717 5.79142 164.739 5.76698 164.766 5.75294C164.794 5.73891 164.826 5.73644 164.856 5.74607Z" fill="white"/>
<path d="M182.996 11.1643C182.917 11.216 182.838 11.2677 182.759 11.3214C181.699 12.0222 180.698 12.8084 179.764 13.6723C179.691 13.7379 179.618 13.8056 179.547 13.8732C177.321 15.9786 175.502 18.4812 174.185 21.254C173.662 22.3579 173.222 23.5002 172.871 24.671C172.387 26.288 171.989 28.08 171.03 29.4026C170.932 29.5418 170.825 29.6746 170.71 29.8004H162.041C162.021 29.7905 162.001 29.7825 161.981 29.7726L161.635 29.7885C161.649 29.7268 161.665 29.6632 161.679 29.6015C161.687 29.5657 161.697 29.5299 161.705 29.4941C161.71 29.4703 161.716 29.4464 161.72 29.4245C161.722 29.4166 161.724 29.4086 161.726 29.4026C161.73 29.3808 161.736 29.3609 161.74 29.341C161.827 28.985 161.917 28.629 162.009 28.2729C162.009 28.271 162.009 28.2709 162.011 28.269C162.689 25.5494 163.684 22.9202 164.978 20.4366C165.017 20.363 165.057 20.2874 165.1 20.2139C165.699 19.1145 166.387 18.0661 167.156 17.0793C167.578 16.5403 168.028 16.0232 168.502 15.5299C169.731 14.2578 171.152 13.1879 172.711 12.3596C175.821 10.7088 179.42 10.0763 182.743 11.0847C182.828 11.1106 182.911 11.1364 182.996 11.1643Z" fill="#4C77BD"/>
<path d="M182.977 11.2751C178.66 12.1373 174.723 14.3453 171.725 17.5856C171.068 18.2716 170.522 19.0576 170.107 19.9147C169.731 20.7626 169.587 21.6966 169.69 22.6195C169.77 23.4819 169.95 24.3548 169.82 25.2217C169.746 25.6644 169.581 26.0865 169.334 26.4604C169.087 26.8342 168.764 27.1514 168.387 27.391C167.462 28.0127 166.37 28.2631 165.294 28.4707C164.099 28.7012 162.854 28.9215 161.857 29.6721C161.736 29.763 161.603 29.5692 161.723 29.4784C163.458 28.1725 165.784 28.4466 167.682 27.5247C168.567 27.0945 169.33 26.3933 169.549 25.3967C169.741 24.5252 169.555 23.6248 169.468 22.7523C169.353 21.8535 169.46 20.9402 169.777 20.0923C170.147 19.2168 170.662 18.411 171.3 17.7093C172.713 16.1064 174.367 14.7369 176.202 13.6507C178.29 12.3995 180.575 11.5165 182.959 11.0401C183.106 11.0107 183.124 11.2459 182.977 11.2751Z" fill="white"/>
<path d="M172.629 16.4853C172.157 15.9058 171.905 15.1762 171.918 14.427C171.931 13.6777 172.209 12.9576 172.701 12.3952C172.801 12.2818 172.981 12.4327 172.881 12.5463C172.422 13.0692 172.163 13.74 172.152 14.4377C172.141 15.1354 172.379 15.8141 172.822 16.3512C172.918 16.468 172.725 16.6015 172.629 16.4853Z" fill="white"/>
<path d="M169.592 22.1874C171.107 22.3522 172.628 21.937 173.851 21.0245C173.972 20.934 174.106 21.1278 173.985 21.2182C172.71 22.1654 171.126 22.5943 169.551 22.4193C169.4 22.4025 169.443 22.1707 169.592 22.1874Z" fill="white"/>
<path d="M53.6462 44.8958C52.311 44.8958 51.0057 44.4957 49.8955 43.746C48.7852 42.9962 47.9199 41.9307 47.4089 40.6839C46.8979 39.4372 46.7642 38.0653 47.0247 36.7418C47.2852 35.4183 47.9282 34.2026 48.8724 33.2484C49.8166 32.2942 51.0195 31.6444 52.3291 31.3811C53.6387 31.1178 54.9962 31.253 56.2298 31.7694C57.4634 32.2858 58.5178 33.1603 59.2596 34.2823C60.0015 35.4043 60.3974 36.7235 60.3974 38.0729C60.3954 39.8818 59.6835 41.6161 58.4178 42.8952C57.1522 44.1743 55.4361 44.8938 53.6462 44.8958ZM53.6462 31.5343C52.3666 31.5343 51.1157 31.9178 50.0517 32.6362C48.9878 33.3547 48.1585 34.3759 47.6688 35.5707C47.1791 36.7655 47.051 38.0802 47.3006 39.3485C47.5503 40.6169 48.1665 41.782 49.0713 42.6964C49.9761 43.6109 51.129 44.2336 52.384 44.4859C53.639 44.7382 54.9399 44.6087 56.1222 44.1138C57.3044 43.6189 58.3148 42.7809 59.0258 41.7056C59.7367 40.6303 60.1161 39.3661 60.1161 38.0729C60.1142 36.3394 59.4319 34.6774 58.219 33.4516C57.0061 32.2258 55.3616 31.5363 53.6462 31.5343Z" fill="#F2F2F2"/>
<path d="M151.755 128.196C149.836 128.196 147.959 127.627 146.363 126.559C144.767 125.492 143.524 123.975 142.789 122.2C142.054 120.425 141.862 118.472 142.237 116.587C142.611 114.703 143.536 112.972 144.893 111.614C146.25 110.255 147.979 109.33 149.862 108.955C151.744 108.58 153.696 108.773 155.469 109.508C157.242 110.243 158.758 111.488 159.824 113.086C160.891 114.683 161.46 116.561 161.46 118.482C161.457 121.058 160.434 123.527 158.614 125.348C156.795 127.169 154.328 128.193 151.755 128.196ZM151.755 109.173C149.916 109.173 148.118 109.719 146.588 110.742C145.059 111.765 143.867 113.219 143.163 114.92C142.459 116.621 142.275 118.493 142.633 120.299C142.992 122.104 143.878 123.763 145.179 125.065C146.479 126.367 148.137 127.253 149.941 127.613C151.745 127.972 153.615 127.787 155.314 127.083C157.014 126.378 158.466 125.185 159.488 123.654C160.51 122.123 161.056 120.324 161.056 118.482C161.053 116.014 160.072 113.648 158.329 111.903C156.585 110.158 154.221 109.176 151.755 109.173Z" fill="#1B3A6C"/>
<path d="M184.993 57.1373C183.957 57.1373 182.944 56.8298 182.083 56.2539C181.222 55.6779 180.551 54.8593 180.154 53.9015C179.758 52.9437 179.654 51.8897 179.856 50.8729C180.059 49.8561 180.557 48.9221 181.29 48.1891C182.022 47.456 182.955 46.9568 183.971 46.7545C184.987 46.5523 186.04 46.6561 186.997 47.0528C187.954 47.4495 188.772 48.1214 189.347 48.9834C189.922 49.8454 190.23 50.8588 190.23 51.8955C190.228 53.2852 189.676 54.6176 188.694 55.6003C187.712 56.5829 186.381 57.1357 184.993 57.1373ZM184.993 46.8722C184 46.8722 183.03 47.1668 182.205 47.7188C181.379 48.2708 180.736 49.0553 180.356 49.9732C179.976 50.8911 179.877 51.9011 180.07 52.8755C180.264 53.85 180.742 54.745 181.444 55.4476C182.146 56.1501 183.04 56.6285 184.014 56.8223C184.987 57.0162 185.996 56.9167 186.913 56.5365C187.83 56.1563 188.614 55.5124 189.166 54.6863C189.717 53.8603 190.011 52.8891 190.011 51.8955C190.01 50.5637 189.481 49.2869 188.54 48.3452C187.599 47.4035 186.323 46.8737 184.993 46.8722Z" fill="#1B3A6C"/>
<path d="M41.6331 42.3296C38.4741 42.3296 35.386 41.3881 32.7593 39.6242C30.1326 37.8603 28.0854 35.3532 26.8765 32.42C25.6676 29.4867 25.3513 26.2591 25.9676 23.1451C26.5839 20.0312 28.1051 17.1709 30.3389 14.9259C32.5727 12.6808 35.4187 11.152 38.5171 10.5326C41.6154 9.91318 44.827 10.2311 47.7456 11.4461C50.6641 12.6611 53.1587 14.7186 54.9138 17.3584C56.6689 19.9983 57.6056 23.1019 57.6056 26.2769C57.6008 30.5328 55.9165 34.6131 52.9221 37.6225C49.9277 40.632 45.8678 42.3248 41.6331 42.3296ZM41.6331 10.893C38.6057 10.893 35.6463 11.7952 33.129 13.4856C30.6118 15.176 28.6499 17.5787 27.4913 20.3897C26.3328 23.2007 26.0297 26.2939 26.6203 29.2781C27.2109 32.2623 28.6688 35.0034 30.8095 37.1549C32.9502 39.3064 35.6776 40.7715 38.6469 41.3651C41.6162 41.9587 44.6939 41.6541 47.4909 40.4897C50.2879 39.3253 52.6785 37.3535 54.3604 34.8237C56.0424 32.2938 56.9401 29.3195 56.9401 26.2769C56.9355 22.1982 55.3214 18.288 52.4517 15.4039C49.5821 12.5199 45.6914 10.8976 41.6331 10.893Z" fill="#1B3A6C"/>
<path d="M121.244 105.061H93.0855C92.6872 105.061 92.3054 105.177 92.0241 105.383C91.7428 105.588 91.585 105.867 91.5855 106.158V138.612H122.748V106.158C122.748 106.014 122.709 105.871 122.633 105.738C122.558 105.605 122.447 105.484 122.307 105.382C122.168 105.28 122.002 105.199 121.819 105.144C121.637 105.089 121.441 105.06 121.244 105.061ZM107.259 123.501C106.379 123.498 105.535 123.241 104.913 122.787C104.29 122.332 103.938 121.717 103.934 121.075V117.331C103.934 116.688 104.285 116.071 104.908 115.616C105.532 115.161 106.377 114.905 107.259 114.905C108.141 114.905 108.987 115.161 109.61 115.616C110.234 116.071 110.584 116.688 110.584 117.331V121.075C110.58 121.717 110.229 122.332 109.606 122.787C108.983 123.241 108.14 123.498 107.259 123.501Z" fill="#1B3A6C"/>
<path d="M168.021 24.6387H47.3221C46.2851 24.6403 45.2911 25.054 44.5578 25.789C43.8245 26.524 43.4118 27.5204 43.4102 28.5599V110.203C43.4112 111.243 43.8237 112.24 44.5571 112.975C45.2905 113.71 46.2849 114.123 47.3221 114.124H168.021C169.059 114.123 170.053 113.71 170.786 112.975C171.52 112.24 171.932 111.243 171.933 110.203V28.5599C171.932 27.5204 171.519 26.524 170.786 25.789C170.052 25.054 169.058 24.6403 168.021 24.6387Z" fill="#1B3A6C"/>
<path d="M167.014 27.4663H48.3309C47.7756 27.4675 47.2435 27.6895 46.8513 28.0835C46.4591 28.4775 46.2388 29.0113 46.2388 29.568V109.195C46.2397 109.751 46.4605 110.284 46.8526 110.677C47.2447 111.07 47.7763 111.292 48.3309 111.293H167.014C167.569 111.292 168.1 111.07 168.492 110.677C168.885 110.284 169.105 109.751 169.106 109.195V29.568C169.106 29.0113 168.886 28.4775 168.494 28.0835C168.101 27.6895 167.569 27.4675 167.014 27.4663Z" fill="#99C0FF"/>
<path d="M141.768 139.184H72.4269C72.2371 139.184 72.0497 139.141 71.8784 139.057C71.707 138.974 71.556 138.853 71.4364 138.702C71.3168 138.552 71.2316 138.376 71.1871 138.187C71.1425 137.999 71.1396 137.803 71.1787 137.613L72.2547 132.396C72.3159 132.104 72.4731 131.843 72.7001 131.655C72.9271 131.467 73.2103 131.363 73.5027 131.362H140.692C140.984 131.363 141.268 131.467 141.495 131.655C141.722 131.843 141.879 132.104 141.94 132.396L143.016 137.613C143.055 137.803 143.052 137.999 143.008 138.187C142.963 138.376 142.878 138.552 142.758 138.702C142.639 138.853 142.488 138.974 142.316 139.057C142.145 139.141 141.958 139.184 141.768 139.184Z" fill="#1B3A6C"/>
<path d="M161.048 38.4202H49.9968C49.8814 38.4176 49.7716 38.3699 49.6909 38.2873C49.6101 38.2047 49.5649 38.0937 49.5649 37.9782C49.5649 37.8626 49.6101 37.7516 49.6909 37.669C49.7716 37.5864 49.8814 37.5387 49.9968 37.5361H161.048C161.164 37.5387 161.274 37.5864 161.354 37.669C161.435 37.7516 161.48 37.8626 161.48 37.9782C161.48 38.0937 161.435 38.2047 161.354 38.2873C161.274 38.3699 161.164 38.4176 161.048 38.4202Z" fill="white"/>
<path d="M57.5559 35.4093C58.9853 35.4093 60.144 34.1944 60.144 32.6956C60.144 31.1969 58.9853 29.9819 57.5559 29.9819C56.1265 29.9819 54.9678 31.1969 54.9678 32.6956C54.9678 34.1944 56.1265 35.4093 57.5559 35.4093Z" fill="white"/>
<path d="M66.4963 35.4093C67.9257 35.4093 69.0844 34.1944 69.0844 32.6956C69.0844 31.1969 67.9257 29.9819 66.4963 29.9819C65.0669 29.9819 63.9082 31.1969 63.9082 32.6956C63.9082 34.1944 65.0669 35.4093 66.4963 35.4093Z" fill="white"/>
<path d="M75.4372 35.4093C76.8666 35.4093 78.0254 34.1944 78.0254 32.6956C78.0254 31.1969 76.8666 29.9819 75.4372 29.9819C74.0079 29.9819 72.8491 31.1969 72.8491 32.6956C72.8491 34.1944 74.0079 35.4093 75.4372 35.4093Z" fill="white"/>
<path d="M155.665 30.6387H149.314C149.188 30.6415 149.068 30.7004 148.98 30.8026C148.892 30.9048 148.842 31.0423 148.842 31.1855C148.842 31.3286 148.892 31.4661 148.98 31.5683C149.068 31.6706 149.188 31.7294 149.314 31.7323H155.665C155.791 31.7294 155.911 31.6706 155.999 31.5683C156.087 31.4661 156.136 31.3286 156.136 31.1855C156.136 31.0423 156.087 30.9048 155.999 30.8026C155.911 30.7004 155.791 30.6415 155.665 30.6387Z" fill="white"/>
<path d="M155.665 32.4463H149.314C149.188 32.4488 149.068 32.5006 148.98 32.5906C148.892 32.6806 148.843 32.8016 148.843 32.9276C148.843 33.0536 148.892 33.1746 148.98 33.2646C149.068 33.3546 149.188 33.4064 149.314 33.4089H155.665C155.791 33.4064 155.911 33.3546 155.999 33.2646C156.087 33.1746 156.136 33.0536 156.136 32.9276C156.136 32.8016 156.087 32.6806 155.999 32.5906C155.911 32.5006 155.791 32.4488 155.665 32.4463Z" fill="white"/>
<path d="M155.665 34.2505H149.314C149.188 34.253 149.068 34.3048 148.98 34.3948C148.892 34.4848 148.842 34.6058 148.842 34.7318C148.842 34.8579 148.892 34.9789 148.98 35.0689C149.068 35.1589 149.188 35.2107 149.314 35.2131H155.665C155.791 35.2107 155.911 35.1589 155.999 35.0689C156.087 34.9789 156.136 34.8579 156.136 34.7318C156.136 34.6058 156.087 34.4848 155.999 34.3948C155.911 34.3048 155.791 34.253 155.665 34.2505Z" fill="white"/>
<path d="M168.847 92.65H161.384V88.6532C161.384 87.6627 161.777 86.7127 162.477 86.0123C163.177 85.3119 164.126 84.9185 165.115 84.9185C166.105 84.9185 167.054 85.3119 167.754 86.0123C168.454 86.7127 168.847 87.6627 168.847 88.6532V92.65Z" fill="#2F2E41"/>
<path d="M172.178 137.119H173.783L174.547 130.921H172.178L172.178 137.119Z" fill="#FFB6B6"/>
<path d="M171.769 136.594H174.93C175.464 136.594 175.977 136.807 176.354 137.185C176.732 137.563 176.944 138.076 176.944 138.61V138.676H171.769V136.594Z" fill="#2F2E41"/>
<path d="M152.991 134.975L154.389 135.765L158.098 130.744L156.035 129.579L152.991 134.975Z" fill="#FFB6B6"/>
<path d="M152.892 134.316L155.645 135.871C156.11 136.134 156.452 136.571 156.595 137.087C156.738 137.602 156.671 138.153 156.409 138.618L156.377 138.675L151.87 136.129L152.892 134.316Z" fill="#2F2E41"/>
<path d="M163.249 109.25L163.125 109.869C163.125 109.869 162.754 110.241 162.94 110.427C163.125 110.613 163.064 111.481 163.064 111.481C162.96 113.064 160.894 121.956 160.524 123.693C160.524 123.693 157.675 125.553 155.446 129.21C153.217 132.867 153.155 133.797 153.155 133.797L155.632 134.851L161.824 127.35C161.824 127.35 163.558 126.296 164.178 125.367C164.797 124.437 168.637 114.828 168.637 114.828L170.806 124.871C170.806 124.871 170.682 128.528 171.239 130.884C171.582 132.37 171.789 133.885 171.858 135.409L174.769 135.099C174.769 135.099 174.583 126.296 174.274 125.367C174.274 125.367 175.574 114.643 172.973 110.365L170.877 104.771L168.824 103.98L163.249 109.25Z" fill="#2F2E41"/>
<path d="M165.077 85.8955C168.984 85.9623 168.984 91.7803 165.077 91.8464C161.169 91.7796 161.17 85.9617 165.077 85.8955Z" fill="#FFB8B8"/>
<path d="M168.084 88.7169H167.42L167.24 88.2643L167.33 88.7169H163.698L163.815 87.7698L162.932 88.7169H162.052V88.2037C162.051 87.8073 162.129 87.4146 162.28 87.0483C162.432 86.6819 162.654 86.3489 162.934 86.0684C163.214 85.7878 163.546 85.5652 163.912 85.4132C164.278 85.2613 164.67 85.1829 165.066 85.1826C165.462 85.1823 165.854 85.2601 166.22 85.4116C166.586 85.5631 166.919 85.7852 167.199 86.0653C167.479 86.3455 167.702 86.6781 167.854 87.0443C168.006 87.4105 168.084 87.803 168.084 88.1995V88.2037L168.084 88.7169Z" fill="#2F2E41"/>
<path d="M169.106 93.584L161.722 93.6439L163.282 109.489C163.282 109.489 171.918 109.033 171.923 106.395L171.114 104.05L169.106 93.584Z" fill="#3F3D56"/>
<path d="M161.405 111.021C161.518 110.882 161.6 110.719 161.644 110.545C161.688 110.371 161.694 110.189 161.66 110.013C161.626 109.836 161.554 109.67 161.449 109.524C161.344 109.378 161.208 109.258 161.051 109.17L161.372 106.381L159.726 105.772L159.328 109.718C159.2 109.991 159.176 110.302 159.261 110.592C159.346 110.882 159.534 111.13 159.79 111.291C160.045 111.451 160.351 111.512 160.648 111.462C160.946 111.413 161.215 111.256 161.405 111.021Z" fill="#FFB6B6"/>
<path d="M162.693 95.0087L161.722 93.6494C161.722 93.6494 161.057 93.5017 160.271 94.419C159.486 95.3363 159.028 106.803 159.028 106.803L161.908 107.458L163.61 99.3331L162.693 95.0087Z" fill="#3F3D56"/>
<path d="M178.969 107.443L178.755 117.63L172.166 121.115L160.168 118.971L159.873 108.382L167.479 105.701L178.969 107.443Z" fill="white"/>
<path d="M172.183 121.225L178.859 117.694L179.076 107.353L167.469 105.593L167.444 105.601L159.765 108.308L160.065 119.059L172.183 121.225ZM178.651 117.566L172.149 121.005L160.27 118.882L159.98 108.455L167.489 105.809L178.862 107.534L178.651 117.566Z" fill="#1B3A6C"/>
<path d="M172.313 110.205L172.339 110.195L179.008 107.541L178.93 107.345L172.287 109.989L159.887 108.277L159.858 108.486L172.313 110.205Z" fill="#1B3A6C"/>
<path d="M172.195 110.096L172.405 110.098L172.271 121.116L172.061 121.114L172.195 110.096Z" fill="#1B3A6C"/>
<path d="M173.156 109.678L175.56 108.703L163.987 106.857L161.583 107.832L173.156 109.678Z" fill="#1B3A6C"/>
<path d="M178.928 110.398L179.011 110.592L176.223 111.793L176.139 111.6L178.928 110.398Z" fill="#1B3A6C"/>
<path d="M177.665 113.873L177.748 114.067L174.96 115.268L174.877 115.075L177.665 113.873Z" fill="#1B3A6C"/>
<path d="M175.233 109.128C175.071 109.052 174.927 108.941 174.812 108.803C174.697 108.665 174.614 108.503 174.568 108.33C174.522 108.156 174.515 107.974 174.547 107.798C174.579 107.621 174.649 107.453 174.752 107.306L173.257 104.931L174.478 103.669L176.543 107.054C176.777 107.244 176.934 107.514 176.983 107.813C177.032 108.111 176.97 108.417 176.808 108.673C176.647 108.928 176.397 109.116 176.107 109.2C175.817 109.284 175.506 109.258 175.233 109.128V109.128Z" fill="#FFB6B6"/>
<path d="M167.972 94.2085L169.043 93.502C169.043 93.502 169.87 93.6875 170.749 95.3803C171.628 97.0731 175.174 104.641 175.174 104.641L173.717 106.122L169.828 100.185L167.972 94.2085Z" fill="#3F3D56"/>
<path d="M10.2997 133.291L18.021 127.825C15.4169 125.285 13.0484 121.67 10.7833 117.582L3.06201 123.048C6.14732 126.556 8.76092 129.997 10.2997 133.291Z" fill="#6C63FF"/>
<path d="M10.2978 127.472C9.03917 127.472 8.01888 126.45 8.01888 125.191C8.01888 123.931 9.03917 122.91 10.2978 122.91C11.5564 122.91 12.5767 123.931 12.5767 125.191C12.5767 126.45 11.5564 127.472 10.2978 127.472Z" fill="white"/>
<path d="M47.5464 108.347H48.394C48.4238 108.347 48.4524 108.359 48.4734 108.38C48.4945 108.401 48.5063 108.43 48.5063 108.46V108.832C48.5063 108.847 48.5034 108.861 48.4978 108.875C48.4921 108.889 48.4839 108.901 48.4734 108.912C48.463 108.922 48.4506 108.93 48.437 108.936C48.4233 108.942 48.4087 108.944 48.394 108.944H48.2535V109.502H47.6869V108.944H47.5464C47.5166 108.944 47.488 108.933 47.467 108.912C47.4459 108.89 47.4341 108.862 47.4341 108.832V108.46C47.4341 108.43 47.4459 108.401 47.467 108.38C47.488 108.359 47.5166 108.347 47.5464 108.347Z" fill="#E6E6E6"/>
<path d="M46.6976 111.755C47.2166 110.995 47.482 110.09 47.4556 109.169C47.4551 109.148 47.462 109.127 47.4751 109.11C47.4882 109.094 47.5066 109.082 47.5273 109.077V108.917H48.4225V109.075H48.4348C48.4469 109.075 48.4588 109.078 48.47 109.082C48.4811 109.087 48.4912 109.094 48.4997 109.102C48.5082 109.111 48.515 109.121 48.5196 109.132C48.5242 109.143 48.5266 109.155 48.5265 109.167C48.5265 109.169 48.5265 109.172 48.5263 109.174C48.4437 110.113 48.6968 111.051 49.2407 111.821C49.2721 111.866 49.2882 111.92 49.2865 111.975L49.1886 115.005C49.1863 115.073 49.1579 115.137 49.1095 115.184C49.0611 115.231 48.9963 115.258 48.9288 115.258H46.9041C46.8358 115.258 46.7703 115.23 46.7218 115.182C46.6732 115.134 46.6453 115.069 46.6441 115.001L46.6064 112.058C46.6053 111.95 46.6371 111.844 46.6976 111.755Z" fill="#6C63FF"/>
<path opacity="0.2" d="M47.7231 108.469C47.7231 108.533 47.7487 108.595 47.7942 108.64C47.8396 108.686 47.9013 108.711 47.9656 108.711C48.0299 108.711 48.0915 108.686 48.137 108.64C48.1825 108.595 48.208 108.533 48.208 108.469" fill="black"/>
<path d="M47.0921 112.339H48.8013V113.479H47.0921V112.339Z" fill="white"/>
<path d="M20.7251 120.186H22.3116C22.3674 120.186 22.4209 120.208 22.4604 120.248C22.4998 120.287 22.522 120.341 22.522 120.397V121.094C22.522 121.149 22.4998 121.203 22.4604 121.242C22.4209 121.282 22.3674 121.304 22.3116 121.304H22.0487V122.349H20.988V121.304H20.7251C20.6693 121.304 20.6158 121.282 20.5763 121.242C20.5369 121.203 20.5147 121.149 20.5147 121.094V120.397C20.5147 120.341 20.5369 120.287 20.5763 120.248C20.6158 120.208 20.6693 120.186 20.7251 120.186Z" fill="#E6E6E6"/>
<path d="M19.1359 126.565C20.1076 125.142 20.6043 123.448 20.5549 121.725C20.5541 121.685 20.567 121.646 20.5914 121.615C20.6159 121.584 20.6505 121.562 20.6892 121.553V121.252H22.3648V121.549H22.3879C22.4105 121.549 22.4329 121.553 22.4537 121.562C22.4746 121.571 22.4935 121.584 22.5094 121.6C22.5254 121.616 22.538 121.635 22.5466 121.655C22.5552 121.676 22.5597 121.699 22.5596 121.721C22.5596 121.725 22.5595 121.73 22.5592 121.734C22.4272 123.576 22.8729 125.227 23.8964 126.689C23.9553 126.773 23.9854 126.874 23.9822 126.976L23.799 132.649C23.7946 132.776 23.7415 132.896 23.6509 132.984C23.5602 133.072 23.439 133.122 23.3125 133.123H19.5226C19.3946 133.122 19.2722 133.071 19.1813 132.981C19.0903 132.891 19.0382 132.769 19.0358 132.641L18.9652 127.133C18.9631 126.931 19.0227 126.733 19.1359 126.565Z" fill="#6C63FF"/>
<path opacity="0.2" d="M21.0558 120.413C21.0558 120.534 21.1036 120.649 21.1887 120.734C21.2738 120.819 21.3892 120.867 21.5096 120.867C21.6299 120.867 21.7454 120.819 21.8305 120.734C21.9156 120.649 21.9634 120.534 21.9634 120.413" fill="black"/>
<path d="M19.736 128.45H23.0348C23.0837 128.45 23.1319 128.46 23.1763 128.481C23.2207 128.501 23.2601 128.531 23.2919 128.568C23.3237 128.605 23.3471 128.649 23.3605 128.696C23.3739 128.743 23.377 128.792 23.3696 128.84L22.8711 132.084H20.0086L19.4031 128.851C19.3939 128.802 19.3956 128.752 19.4081 128.704C19.4206 128.655 19.4436 128.611 19.4753 128.572C19.5071 128.534 19.5469 128.503 19.592 128.482C19.637 128.461 19.6862 128.45 19.736 128.45Z" fill="white"/>
<path d="M25.2521 133.282H34.7095C34.0483 129.704 34.2004 125.383 34.7095 120.736H25.2521C25.7476 125.383 25.8957 129.704 25.2521 133.282Z" fill="#6C63FF"/>
<path d="M29.9237 128.948C28.6651 128.948 27.6449 127.927 27.6449 126.667C27.6449 125.407 28.6651 124.386 29.9237 124.386C31.1823 124.386 32.2026 125.407 32.2026 126.667C32.2026 127.927 31.1823 128.948 29.9237 128.948Z" fill="white"/>
<path d="M63.9351 93.7994L61.812 93.6062L60.4608 90.3221L62.8735 88.9697L63.9351 93.7994Z" fill="#FFB8B8"/>
<path d="M44.4503 102.816C44.3797 102.64 44.352 102.449 44.3693 102.26C44.3867 102.071 44.4488 101.889 44.5503 101.728C44.6519 101.568 44.7901 101.434 44.9535 101.338C45.1169 101.241 45.3008 101.185 45.4902 101.174L48.7866 100.977L49.272 102.593L45.8785 103.525C45.5949 103.603 45.2926 103.574 45.0292 103.443C44.7658 103.312 44.5597 103.089 44.4503 102.816Z" fill="#FFB8B8"/>
<path d="M47.9898 103.552L48.0261 100.521L55.3482 99.3516L60.9891 92.8762C61.2825 92.5393 61.6881 92.3203 62.1306 92.2597C62.573 92.1992 63.0224 92.3012 63.3955 92.5468C63.6214 92.6956 63.8119 92.8922 63.9535 93.1227C64.0951 93.3533 64.1844 93.6121 64.2151 93.881C64.2458 94.1499 64.2171 94.4223 64.1311 94.6788C64.045 94.9354 63.9037 95.1699 63.7172 95.3658L59.0635 101.098L47.9898 103.552Z" fill="#575A89"/>
<path d="M65.5757 137.653H63.6456L58.8582 115.988L53.8986 122.681L51.0034 137.17H49.1698L49.5558 121.619L56.0217 105.004H62.391C64.1316 108.157 65.497 111.408 63.9351 114.76L65.5757 137.653Z" fill="#2F2E41"/>
<path d="M52.1865 138.969C52.2079 139.038 52.2144 139.11 52.2058 139.181C52.1971 139.252 52.1734 139.32 52.1362 139.382C52.099 139.443 52.0493 139.495 51.9902 139.536C51.9312 139.576 51.8642 139.604 51.7938 139.616L47.0708 140.455C46.8842 140.489 46.6915 140.454 46.5291 140.356C46.3667 140.258 46.2458 140.103 46.1892 139.922C46.1342 139.749 46.1419 139.562 46.211 139.394C46.28 139.226 46.4061 139.087 46.5669 139.003C47.6054 138.469 48.4992 137.691 49.1716 136.736C49.6907 137.22 50.2709 137.175 50.8869 136.818L51.5404 136.9L52.1865 138.969Z" fill="#2F2E41"/>
<path d="M66.4693 138.969C66.4906 139.038 66.4971 139.11 66.4885 139.181C66.4798 139.252 66.4561 139.32 66.4189 139.382C66.3818 139.443 66.332 139.495 66.273 139.536C66.2139 139.576 66.1469 139.604 66.0765 139.616L61.3535 140.455C61.1669 140.489 60.9742 140.454 60.8118 140.356C60.6494 140.258 60.5285 140.103 60.4719 139.922C60.4169 139.749 60.4246 139.562 60.4937 139.394C60.5627 139.226 60.6888 139.087 60.8496 139.003C61.8881 138.469 62.7819 137.691 63.4543 136.736C63.9734 137.22 64.5536 137.175 65.1697 136.818L65.8231 136.9L66.4693 138.969Z" fill="#2F2E41"/>
<path d="M60.4126 91.5294C58.9202 91.5294 57.7105 90.3185 57.7105 88.8248C57.7105 87.331 58.9202 86.1201 60.4126 86.1201C61.905 86.1201 63.1147 87.331 63.1147 88.8248C63.1147 90.3185 61.905 91.5294 60.4126 91.5294Z" fill="#FFB8B8"/>
<path d="M62.8254 105.729L55.7805 105.536L57.8494 99.0186C56.5637 96.9555 57.8577 94.8945 59.689 92.8339L61.1365 91.868L63.4527 91.6748C64.4555 92.7488 65.0042 94.1696 64.9838 95.6395C64.938 98.787 64.3812 102.213 62.8254 105.729Z" fill="#575A89"/>
<path d="M46.6392 110.116C46.5051 109.982 46.4047 109.817 46.3464 109.637C46.288 109.456 46.2735 109.264 46.3038 109.077C46.3341 108.889 46.4085 108.712 46.5209 108.559C46.6332 108.406 46.7803 108.282 46.9499 108.197L49.9032 106.718L50.9844 108.012L48.2311 110.206C48.001 110.389 47.7116 110.481 47.418 110.465C47.1244 110.448 46.8472 110.324 46.6392 110.116Z" fill="#FFB8B8"/>
<path d="M50.1833 109.4L49.0252 106.599L55.2974 102.64L57.9384 94.4659C58.0758 94.0406 58.3626 93.6796 58.7455 93.4497C59.1285 93.2198 59.5818 93.1366 60.0213 93.2156C60.2875 93.2634 60.5399 93.3691 60.7607 93.5253C60.9815 93.6815 61.1654 93.8843 61.2993 94.1195C61.4331 94.3546 61.5138 94.6163 61.5355 94.8861C61.5573 95.1558 61.5195 95.4271 61.425 95.6806L59.3995 102.783L50.1833 109.4Z" fill="#575A89"/>
<path d="M64.8516 87.7624C64.8516 88.8148 64.1687 90.4446 63.3075 91.1432C62.728 91.6133 61.9622 91.5935 61.6669 90.95C61.364 90.29 60.3199 88.7384 58.4822 87.7624C56.0325 86.4613 59.351 84.2354 61.6669 84.5748C63.4072 84.8299 64.8516 86.002 64.8516 87.7624Z" fill="#2F2E41"/>
<path d="M63.211 86.313C62.145 86.313 61.2809 85.4481 61.2809 84.3811C61.2809 83.3142 62.145 82.4492 63.211 82.4492C64.277 82.4492 65.1411 83.3142 65.1411 84.3811C65.1411 85.4481 64.277 86.313 63.211 86.313Z" fill="#2F2E41"/>
<path d="M60.9915 83.7053C60.9917 83.2183 61.1758 82.7493 61.5069 82.3924C61.838 82.0355 62.2916 81.817 62.7769 81.7808C62.7289 81.7772 62.681 81.7734 62.6321 81.7734C62.1202 81.7734 61.6293 81.977 61.2673 82.3393C60.9053 82.7016 60.702 83.193 60.702 83.7053C60.702 84.2177 60.9053 84.7091 61.2673 85.0714C61.6293 85.4337 62.1202 85.6372 62.6321 85.6372C62.681 85.6372 62.7289 85.6335 62.7769 85.6299C62.2916 85.5937 61.838 85.3752 61.5069 85.0183C61.1758 84.6613 60.9917 84.1924 60.9915 83.7053Z" fill="#2F2E41"/>
<path d="M60.3646 89.7905C60.1247 89.7905 59.9303 89.531 59.9303 89.2109C59.9303 88.8908 60.1247 88.6313 60.3646 88.6313C60.6044 88.6313 60.7988 88.8908 60.7988 89.2109C60.7988 89.531 60.6044 89.7905 60.3646 89.7905Z" fill="#FFB8B8"/>
<path d="M5.67844 134.11H35.7242L42.0867 104.005H47.5166V102.654H40.9927L34.6303 132.759H5.67844V134.11Z" fill="#3F3D56"/>
<path d="M31.3209 139.611C29.7236 139.611 28.4288 138.315 28.4288 136.716C28.4288 135.117 29.7236 133.821 31.3209 133.821C32.9181 133.821 34.2129 135.117 34.2129 136.716C34.2129 138.315 32.9181 139.611 31.3209 139.611Z" fill="#3F3D56"/>
<path d="M9.7271 139.611C8.12987 139.611 6.83506 138.315 6.83506 136.716C6.83506 135.117 8.12987 133.821 9.7271 133.821C11.3243 133.821 12.6191 135.117 12.6191 136.716C12.6191 138.315 11.3243 139.611 9.7271 139.611Z" fill="#3F3D56"/>
<path d="M6.22604 133.475H35.4589L40.6167 107.962H1.38572C1.18553 107.962 0.987732 108.005 0.805912 108.089C0.624092 108.173 0.462566 108.295 0.332455 108.448C0.202347 108.6 0.106735 108.779 0.0521965 108.971C-0.00234222 109.164 -0.0145226 109.366 0.01651 109.564L4.85704 132.303C4.90699 132.63 5.0727 132.928 5.32399 133.143C5.57528 133.359 5.8954 133.476 6.22604 133.475ZM35.1414 133.089H6.22604C5.98741 133.09 5.75637 133.005 5.57502 132.85C5.39368 132.694 5.27411 132.479 5.23812 132.243L0.397594 109.504C0.375153 109.362 0.3839 109.216 0.423241 109.076C0.462578 108.937 0.531582 108.808 0.625488 108.698C0.719391 108.588 0.835979 108.5 0.967216 108.44C1.09845 108.379 1.24123 108.348 1.38572 108.348H40.1486L35.1414 133.089Z" fill="#3F3D56"/>
<path d="M29.776 133.393L33.1538 108.186L32.7734 108.124L29.3956 133.33L29.776 133.393Z" fill="#3F3D56"/>
<path d="M10.9943 133.199L11.375 133.137L8.09584 108.124L7.71511 108.185L10.9943 133.199Z" fill="#3F3D56"/>
<path d="M19.9425 108.155H20.3281V133.361H19.9425V108.155Z" fill="#3F3D56"/>
<path d="M38.647 114.909L38.6479 115.295L1.32191 115.385L1.32098 114.999L38.647 114.909Z" fill="#3F3D56"/>
<path d="M3.95484 126.832L36.7466 127.056L36.7439 127.442L3.9522 127.218L3.95484 126.832Z" fill="#3F3D56"/>
<path d="M46.9383 104.295C45.767 104.295 44.8174 103.776 44.8174 103.137C44.8174 102.497 45.767 101.979 46.9383 101.979C48.1096 101.979 49.0591 102.497 49.0591 103.137C49.0591 103.776 48.1096 104.295 46.9383 104.295Z" fill="#3F3D56"/>
<path d="M140.963 105.05L134.868 100.735C136.924 98.7304 138.794 95.8764 140.582 92.6494L146.677 96.9644C144.241 99.733 142.178 102.45 140.963 105.05Z" fill="#6C63FF"/>
<path d="M140.965 100.456C141.958 100.456 142.764 99.6496 142.764 98.6551C142.764 97.6607 141.958 96.8545 140.965 96.8545C139.971 96.8545 139.166 97.6607 139.166 98.6551C139.166 99.6496 139.971 100.456 140.965 100.456Z" fill="white"/>
<path d="M132.733 94.7046H131.481C131.437 94.7046 131.395 94.7221 131.364 94.7533C131.332 94.7844 131.315 94.8267 131.315 94.8708V95.421C131.315 95.4651 131.332 95.5074 131.364 95.5385C131.395 95.5697 131.437 95.5872 131.481 95.5872H131.689V96.4117H132.526V95.5872H132.733C132.777 95.5872 132.82 95.5697 132.851 95.5385C132.882 95.5074 132.899 95.4651 132.899 95.421V94.8708C132.899 94.8267 132.882 94.7844 132.851 94.7533C132.82 94.7221 132.777 94.7046 132.733 94.7046Z" fill="white"/>
<path d="M133.988 99.7404C133.221 98.617 132.829 97.2794 132.868 95.9193C132.868 95.8879 132.858 95.8572 132.839 95.8325C132.82 95.8078 132.792 95.7905 132.762 95.7836V95.5459H131.439V95.7803H131.421C131.403 95.7804 131.385 95.7839 131.369 95.7908C131.352 95.7976 131.337 95.8076 131.325 95.8203C131.312 95.8329 131.302 95.8479 131.296 95.8644C131.289 95.8809 131.285 95.8985 131.285 95.9164C131.285 95.9197 131.285 95.923 131.286 95.9263C131.39 97.3802 131.038 98.6841 130.23 99.8379C130.183 99.9042 130.16 99.9838 130.162 100.065L130.307 104.543C130.31 104.643 130.352 104.737 130.424 104.807C130.495 104.877 130.591 104.916 130.691 104.917H133.683C133.784 104.916 133.88 104.876 133.952 104.805C134.024 104.734 134.065 104.637 134.067 104.536L134.123 100.188C134.124 100.029 134.077 99.8725 133.988 99.7404Z" fill="#6C63FF"/>
<path opacity="0.2" d="M132.472 94.8838C132.472 94.9789 132.435 95.0701 132.367 95.1373C132.3 95.2046 132.209 95.2424 132.114 95.2424C132.019 95.2424 131.928 95.2046 131.861 95.1373C131.794 95.0701 131.756 94.9789 131.756 94.8838" fill="black"/>
<path d="M133.515 101.228H130.91C130.872 101.228 130.834 101.236 130.799 101.252C130.764 101.268 130.733 101.292 130.708 101.321C130.682 101.35 130.664 101.385 130.653 101.422C130.643 101.459 130.64 101.498 130.646 101.536L131.04 104.096H133.299L133.777 101.544C133.785 101.506 133.783 101.466 133.773 101.428C133.763 101.39 133.745 101.355 133.72 101.324C133.695 101.294 133.664 101.27 133.628 101.253C133.593 101.236 133.554 101.228 133.515 101.228Z" fill="white"/>
<path d="M129.16 105.043H121.695C122.217 102.218 122.097 98.8072 121.695 95.1392H129.16C128.769 98.8072 128.652 102.218 129.16 105.043Z" fill="#6C63FF"/>
<path d="M125.472 101.621C126.466 101.621 127.271 100.815 127.271 99.8206C127.271 98.8262 126.466 98.02 125.472 98.02C124.479 98.02 123.673 98.8262 123.673 99.8206C123.673 100.815 124.479 101.621 125.472 101.621Z" fill="white"/>
<path d="M144.612 105.697H120.894L115.871 81.932H111.585V80.8657H116.735L121.757 104.63H144.612V105.697Z" fill="#3F3D56"/>
<path d="M124.369 110.038C125.63 110.038 126.652 109.015 126.652 107.753C126.652 106.491 125.63 105.468 124.369 105.468C123.109 105.468 122.086 106.491 122.086 107.753C122.086 109.015 123.109 110.038 124.369 110.038Z" fill="#3F3D56"/>
<path d="M141.415 110.038C142.676 110.038 143.698 109.015 143.698 107.753C143.698 106.491 142.676 105.468 141.415 105.468C140.154 105.468 139.132 106.491 139.132 107.753C139.132 109.015 140.154 110.038 141.415 110.038Z" fill="#3F3D56"/>
<path d="M144.179 105.194H121.103L117.031 85.0547H148C148.158 85.0547 148.314 85.089 148.458 85.1552C148.601 85.2213 148.729 85.3179 148.831 85.4381C148.934 85.5583 149.01 85.6993 149.053 85.8515C149.096 86.0037 149.105 86.1634 149.081 86.3197L145.26 104.269C145.22 104.528 145.09 104.763 144.891 104.933C144.693 105.103 144.44 105.195 144.179 105.194ZM121.353 104.89H144.179C144.367 104.89 144.55 104.824 144.693 104.701C144.836 104.578 144.931 104.408 144.959 104.222L148.78 86.2724C148.798 86.1596 148.791 86.0443 148.76 85.9344C148.729 85.8246 148.674 85.7228 148.6 85.636C148.526 85.5492 148.434 85.4796 148.33 85.4318C148.227 85.3841 148.114 85.3593 148 85.3594H117.401L121.353 104.89Z" fill="#3F3D56"/>
<path d="M125.589 105.13L122.922 85.2323L123.223 85.1826L125.889 105.081L125.589 105.13Z" fill="#3F3D56"/>
<path d="M140.415 104.977L140.115 104.928L142.703 85.1826L143.004 85.2314L140.415 104.977Z" fill="#3F3D56"/>
<path d="M133.351 85.207H133.047V105.105H133.351V85.207Z" fill="#3F3D56"/>
<path d="M118.586 90.5386L118.585 90.8433L148.05 90.9147L148.051 90.61L118.586 90.5386Z" fill="#3F3D56"/>
<path d="M145.972 99.9508L120.086 100.128L120.089 100.433L145.974 100.255L145.972 99.9508Z" fill="#3F3D56"/>
<path d="M112.041 82.1601C112.966 82.1601 113.716 81.7509 113.716 81.2461C113.716 80.7413 112.966 80.332 112.041 80.332C111.117 80.332 110.367 80.7413 110.367 81.2461C110.367 81.7509 111.117 82.1601 112.041 82.1601Z" fill="#3F3D56"/>
<path d="M71.8453 100.756C72.2279 97.6772 74.1345 94.6432 77.0685 93.6411C75.9114 96.8105 75.9117 100.287 77.0692 103.457C77.5201 104.677 78.1485 105.988 77.7244 107.218C77.4605 107.984 76.8151 108.569 76.0935 108.936C75.372 109.302 74.5712 109.476 73.7804 109.647L73.6248 109.776C72.3695 106.939 71.4627 103.836 71.8453 100.756Z" fill="#1B3A6C"/>
<path d="M77.0974 93.6992C75.3888 95.6154 74.3269 98.0218 74.0624 100.577C73.9957 101.125 74.0159 101.682 74.1222 102.224C74.2429 102.749 74.5018 103.233 74.8722 103.624C75.2102 103.996 75.599 104.337 75.8408 104.784C75.9612 105.015 76.0315 105.269 76.0471 105.529C76.0626 105.789 76.0231 106.049 75.931 106.293C75.7175 106.906 75.2966 107.406 74.8681 107.88C74.3923 108.407 73.8897 108.946 73.6875 109.644C73.663 109.729 73.5333 109.686 73.5577 109.601C73.9096 108.387 75.0877 107.697 75.6495 106.603C75.9117 106.092 76.0217 105.499 75.776 104.961C75.561 104.489 75.1604 104.137 74.8149 103.764C74.448 103.387 74.1788 102.927 74.0307 102.422C73.8971 101.887 73.8556 101.333 73.9078 100.783C74.0057 99.5442 74.2976 98.3285 74.7729 97.1803C75.308 95.867 76.0636 94.655 77.007 93.5966C77.0655 93.5312 77.1555 93.6342 77.0974 93.6992Z" fill="white"/>
<path d="M74.0992 99.7488C73.677 99.6462 73.305 99.3967 73.0496 99.0449C72.7942 98.6931 72.6721 98.2619 72.705 97.8283C72.7065 97.8106 72.7148 97.7942 72.7281 97.7825C72.7415 97.7709 72.7588 97.7648 72.7765 97.7657C72.7942 97.7666 72.8109 97.7743 72.823 97.7873C72.8351 97.8002 72.8417 97.8174 72.8415 97.8351C72.8101 98.2388 72.9239 98.6405 73.1624 98.9676C73.4009 99.2947 73.7484 99.5257 74.1421 99.6189C74.2276 99.6393 74.1843 99.769 74.0992 99.7488Z" fill="white"/>
<path d="M74.676 103.458C75.4386 103.003 76.0015 102.276 76.2526 101.423C76.2774 101.339 76.4071 101.382 76.3823 101.466C76.1194 102.353 75.5321 103.108 74.7375 103.581C74.6617 103.626 74.6007 103.503 74.676 103.458Z" fill="white"/>
<path d="M75.4349 95.9966C75.59 96.0704 75.761 96.1044 75.9324 96.0957C76.1039 96.087 76.2706 96.0358 76.4174 95.9467C76.4926 95.9007 76.5536 96.0232 76.4789 96.0688C76.3162 96.1665 76.1321 96.2228 75.9426 96.2329C75.7532 96.2429 75.5641 96.2064 75.392 96.1264C75.3752 96.1203 75.3613 96.1079 75.3532 96.0919C75.3452 96.0758 75.3435 96.0573 75.3486 96.0401C75.3543 96.0229 75.3666 96.0087 75.3828 96.0006C75.399 95.9924 75.4177 95.991 75.4349 95.9966Z" fill="white"/>
<path d="M86.0118 99.1409C85.9657 99.1709 85.9196 99.2009 85.8734 99.2321C85.2555 99.6388 84.6716 100.095 84.1275 100.596C84.0849 100.634 84.0422 100.674 84.0007 100.713C82.7027 101.935 81.6427 103.387 80.8745 104.996C80.5694 105.637 80.3134 106.3 80.1087 106.979C79.8262 107.918 79.5944 108.958 79.0351 109.725C78.9777 109.806 78.9153 109.883 78.8483 109.956H73.794C73.7825 109.95 73.771 109.946 73.7594 109.94L73.5576 109.949C73.5657 109.913 73.5749 109.876 73.583 109.841C73.5876 109.82 73.5934 109.799 73.598 109.778C73.6014 109.764 73.6049 109.751 73.6072 109.738C73.6084 109.733 73.6095 109.729 73.6107 109.725C73.613 109.713 73.6165 109.701 73.6188 109.689C73.6695 109.483 73.7218 109.276 73.7756 109.07C73.7756 109.068 73.7756 109.068 73.7767 109.067C74.1717 107.489 74.7523 105.963 75.5065 104.522C75.5295 104.479 75.5526 104.435 75.578 104.393C75.9272 103.755 76.3279 103.146 76.7761 102.574C77.0226 102.261 77.2847 101.961 77.5614 101.674C78.278 100.936 79.1061 100.315 80.0153 99.8346C81.8281 98.8766 83.9269 98.5095 85.8642 99.0947C85.9138 99.1098 85.9622 99.1248 86.0118 99.1409Z" fill="#1B3A6C"/>
<path d="M86.0004 99.2052C83.4835 99.7056 81.1881 100.987 79.4403 102.867C79.0569 103.266 78.7385 103.722 78.497 104.219C78.2773 104.711 78.1933 105.253 78.2537 105.789C78.3 106.289 78.4052 106.796 78.3292 107.299C78.2864 107.556 78.1899 107.801 78.0459 108.018C77.9019 108.235 77.7138 108.419 77.4937 108.558C76.9545 108.919 76.3179 109.064 75.6904 109.184C74.9937 109.318 74.268 109.446 73.6865 109.882C73.6161 109.934 73.5384 109.822 73.6087 109.769C74.6204 109.011 75.976 109.17 77.0827 108.635C77.5991 108.386 78.0435 107.979 78.1714 107.4C78.2833 106.895 78.1752 106.372 78.1239 105.866C78.0574 105.344 78.1194 104.814 78.3046 104.322C78.5201 103.814 78.8204 103.346 79.1926 102.939C80.016 102.009 80.9803 101.214 82.0504 100.584C83.2676 99.8577 84.6 99.3453 85.9899 99.0689C86.0759 99.0518 86.0859 99.1883 86.0004 99.2052Z" fill="white"/>
<path d="M79.9677 102.229C79.6923 101.892 79.5453 101.469 79.553 101.034C79.5607 100.599 79.7226 100.181 80.0097 99.8549C80.068 99.789 80.173 99.8767 80.1146 99.9426C79.8466 100.246 79.6959 100.635 79.6896 101.04C79.6832 101.445 79.8217 101.839 80.08 102.151C80.1361 102.218 80.0234 102.296 79.9677 102.229Z" fill="white"/>
<path d="M78.1967 105.538C79.0796 105.633 79.9662 105.392 80.6796 104.863C80.7502 104.81 80.8279 104.923 80.7574 104.975C80.014 105.525 79.0909 105.774 78.1722 105.672C78.0847 105.662 78.1096 105.528 78.1967 105.538Z" fill="white"/>
<path d="M83.2911 100.037C83.3706 100.189 83.4866 100.32 83.6288 100.416C83.7709 100.512 83.9348 100.572 84.1056 100.589C84.1933 100.598 84.1683 100.732 84.0812 100.724C83.8926 100.704 83.7117 100.638 83.5544 100.532C83.3971 100.426 83.2681 100.283 83.1788 100.115C83.169 100.1 83.1654 100.082 83.1686 100.064C83.1718 100.046 83.1816 100.031 83.196 100.02C83.211 100.01 83.2293 100.006 83.2471 100.009C83.2649 100.012 83.2807 100.022 83.2911 100.037Z" fill="white"/>
<path d="M76.2771 56.5266H59.555C59.0383 56.526 58.5429 56.3203 58.1775 55.9545C57.8121 55.5888 57.6065 55.0929 57.606 54.5757V45.4596C57.6065 44.9424 57.8121 44.4465 58.1775 44.0808C58.5429 43.7151 59.0383 43.5094 59.555 43.5088H76.2771C76.7939 43.5094 77.2893 43.7151 77.6547 44.0808C78.0201 44.4465 78.2256 44.9424 78.2262 45.4596V54.5757C78.2256 55.0929 78.0201 55.5888 77.6547 55.9545C77.2893 56.3203 76.7939 56.526 76.2771 56.5266Z" fill="white"/>
<path d="M101.807 56.5266H85.0848C84.5681 56.526 84.0726 56.3203 83.7072 55.9545C83.3418 55.5888 83.1363 55.0929 83.1357 54.5757V45.4596C83.1363 44.9424 83.3419 44.4465 83.7073 44.0808C84.0726 43.7151 84.5681 43.5094 85.0848 43.5088H101.807C102.324 43.5094 102.819 43.7151 103.184 44.0808C103.55 44.4465 103.755 44.9424 103.756 45.4596V54.5757C103.755 55.0929 103.55 55.5888 103.184 55.9545C102.819 56.3203 102.324 56.526 101.807 56.5266Z" fill="#1B3A6C"/>
<path d="M127.337 56.5266H110.615C110.098 56.526 109.602 56.3203 109.237 55.9545C108.872 55.5888 108.666 55.0929 108.666 54.5757V45.4596C108.666 44.9424 108.872 44.4465 109.237 44.0808C109.602 43.7151 110.098 43.5094 110.615 43.5088H127.337C127.853 43.5094 128.349 43.7151 128.714 44.0808C129.08 44.4465 129.285 44.9424 129.286 45.4596V54.5757C129.285 55.0929 129.08 55.5888 128.714 55.9545C128.349 56.3203 127.853 56.526 127.337 56.5266Z" fill="white"/>
<path d="M76.2771 76.8386H59.555C59.0383 76.838 58.5429 76.6323 58.1775 76.2665C57.8121 75.9008 57.6065 75.4049 57.606 74.8877V65.7716C57.6065 65.2544 57.8121 64.7585 58.1775 64.3928C58.5429 64.0271 59.0383 63.8214 59.555 63.8208H76.2771C76.7939 63.8214 77.2893 64.0271 77.6547 64.3928C78.0201 64.7585 78.2256 65.2544 78.2262 65.7716V74.8877C78.2256 75.4049 78.0201 75.9008 77.6547 76.2665C77.2893 76.6323 76.7939 76.838 76.2771 76.8386Z" fill="white"/>
<path d="M101.807 76.8386H85.0848C84.5681 76.838 84.0726 76.6323 83.7072 76.2665C83.3418 75.9008 83.1363 75.4049 83.1357 74.8877V65.7716C83.1363 65.2544 83.3419 64.7585 83.7073 64.3928C84.0726 64.0271 84.5681 63.8214 85.0848 63.8208H101.807C102.324 63.8214 102.819 64.0271 103.184 64.3928C103.55 64.7585 103.755 65.2544 103.756 65.7716V74.8877C103.755 75.4049 103.55 75.9008 103.184 76.2665C102.819 76.6323 102.324 76.838 101.807 76.8386Z" fill="white"/>
<path d="M102.988 78.5159C104.637 78.5159 105.974 77.1775 105.974 75.5265C105.974 73.8755 104.637 72.5371 102.988 72.5371C101.338 72.5371 100.001 73.8755 100.001 75.5265C100.001 77.1775 101.338 78.5159 102.988 78.5159Z" fill="#1B3A6C"/>
<path d="M104.228 75.2751H103.212V74.2587C103.212 74.2273 103.206 74.1962 103.194 74.1672C103.182 74.1382 103.164 74.1118 103.142 74.0896C103.12 74.0674 103.094 74.0498 103.065 74.0377C103.036 74.0257 103.005 74.0195 102.973 74.0195C102.942 74.0195 102.911 74.0257 102.882 74.0377C102.853 74.0498 102.827 74.0674 102.804 74.0896C102.782 74.1118 102.765 74.1382 102.753 74.1672C102.741 74.1962 102.734 74.2273 102.734 74.2587V75.2751H101.719C101.688 75.2751 101.656 75.2813 101.627 75.2933C101.598 75.3053 101.572 75.3229 101.55 75.3451C101.528 75.3673 101.51 75.3937 101.498 75.4227C101.486 75.4517 101.48 75.4828 101.48 75.5143C101.48 75.5457 101.486 75.5768 101.498 75.6058C101.51 75.6348 101.528 75.6612 101.55 75.6834C101.572 75.7056 101.598 75.7232 101.627 75.7352C101.656 75.7472 101.688 75.7534 101.719 75.7534H102.734V76.7698C102.734 76.8012 102.741 76.8323 102.753 76.8613C102.765 76.8904 102.782 76.9167 102.804 76.9389C102.827 76.9611 102.853 76.9788 102.882 76.9908C102.911 77.0028 102.942 77.009 102.973 77.009C103.037 77.009 103.097 76.9838 103.142 76.9389C103.187 76.8941 103.212 76.8332 103.212 76.7698V75.7534H104.228C104.259 75.7534 104.29 75.7472 104.319 75.7352C104.348 75.7232 104.374 75.7056 104.397 75.6834C104.419 75.6612 104.436 75.6348 104.448 75.6058C104.46 75.5768 104.467 75.5457 104.467 75.5142C104.467 75.4828 104.46 75.4517 104.448 75.4227C104.436 75.3937 104.419 75.3673 104.397 75.3451C104.374 75.3229 104.348 75.3053 104.319 75.2933C104.29 75.2813 104.259 75.2751 104.228 75.2751Z" fill="white"/>
<path d="M128.91 58.7283C130.56 58.7283 131.897 57.3899 131.897 55.7389C131.897 54.0879 130.56 52.7495 128.91 52.7495C127.261 52.7495 125.924 54.0879 125.924 55.7389C125.924 57.3899 127.261 58.7283 128.91 58.7283Z" fill="#1B3A6C"/>
<path d="M130.151 55.488H129.135V54.4716C129.135 54.4402 129.129 54.4091 129.117 54.3801C129.105 54.351 129.087 54.3247 129.065 54.3025C129.043 54.2803 129.017 54.2626 128.988 54.2506C128.959 54.2386 128.928 54.2324 128.896 54.2324C128.865 54.2324 128.834 54.2386 128.805 54.2506C128.776 54.2626 128.749 54.2803 128.727 54.3025C128.705 54.3247 128.687 54.351 128.675 54.3801C128.663 54.4091 128.657 54.4402 128.657 54.4716V55.488H127.642C127.61 55.488 127.579 55.4942 127.55 55.5062C127.521 55.5182 127.495 55.5358 127.473 55.558C127.451 55.5802 127.433 55.6066 127.421 55.6356C127.409 55.6646 127.403 55.6957 127.403 55.7271C127.403 55.7586 127.409 55.7897 127.421 55.8187C127.433 55.8477 127.451 55.8741 127.473 55.8963C127.495 55.9185 127.521 55.9361 127.55 55.9481C127.579 55.9601 127.61 55.9663 127.642 55.9663H128.657V56.9827C128.657 57.0141 128.663 57.0452 128.675 57.0742C128.687 57.1032 128.705 57.1296 128.727 57.1518C128.749 57.174 128.776 57.1916 128.805 57.2037C128.834 57.2157 128.865 57.2219 128.896 57.2219C128.96 57.2219 129.02 57.1967 129.065 57.1518C129.11 57.107 129.135 57.0461 129.135 56.9827V55.9663H130.151C130.182 55.9663 130.213 55.9601 130.242 55.9481C130.271 55.9361 130.297 55.9185 130.32 55.8963C130.342 55.874 130.359 55.8477 130.371 55.8187C130.383 55.7896 130.389 55.7585 130.389 55.7271C130.389 55.6957 130.383 55.6646 130.371 55.6356C130.359 55.6066 130.342 55.5802 130.32 55.558C130.297 55.5358 130.271 55.5182 130.242 55.5062C130.213 55.4942 130.182 55.488 130.151 55.488Z" fill="white"/>
<path d="M77.4578 58.4666C79.1073 58.4666 80.4444 57.1282 80.4444 55.4772C80.4444 53.8262 79.1073 52.4878 77.4578 52.4878C75.8084 52.4878 74.4712 53.8262 74.4712 55.4772C74.4712 57.1282 75.8084 58.4666 77.4578 58.4666Z" fill="#1B3A6C"/>
<path d="M78.6979 55.2258H77.6825V54.2094C77.6825 54.178 77.6763 54.1469 77.6643 54.1179C77.6523 54.0888 77.6347 54.0625 77.6125 54.0403C77.5903 54.0181 77.564 54.0004 77.535 53.9884C77.506 53.9764 77.4749 53.9702 77.4435 53.9702C77.4122 53.9702 77.3811 53.9764 77.3521 53.9884C77.3231 54.0004 77.2968 54.0181 77.2746 54.0403C77.2524 54.0625 77.2348 54.0888 77.2228 54.1179C77.2108 54.1469 77.2046 54.178 77.2046 54.2094V55.2258H76.1891C76.1578 55.2258 76.1267 55.232 76.0977 55.244C76.0687 55.256 76.0424 55.2736 76.0202 55.2958C75.998 55.318 75.9804 55.3444 75.9684 55.3734C75.9564 55.4024 75.9502 55.4335 75.9502 55.4649C75.9502 55.5284 75.9754 55.5892 76.0202 55.6341C76.065 55.6789 76.1258 55.7041 76.1891 55.7041H77.2046V56.7205C77.2046 56.7519 77.2108 56.783 77.2228 56.812C77.2348 56.841 77.2524 56.8674 77.2746 56.8896C77.2968 56.9118 77.3231 56.9294 77.3521 56.9415C77.3811 56.9535 77.4122 56.9597 77.4435 56.9597C77.4749 56.9597 77.506 56.9535 77.535 56.9415C77.564 56.9294 77.5903 56.9118 77.6125 56.8896C77.6347 56.8674 77.6523 56.841 77.6643 56.812C77.6763 56.783 77.6825 56.7519 77.6825 56.7205V55.7041H78.6979C78.7293 55.7041 78.7604 55.6979 78.7894 55.6859C78.8184 55.6739 78.8447 55.6563 78.8669 55.634C78.8891 55.6118 78.9067 55.5855 78.9187 55.5565C78.9307 55.5274 78.9369 55.4963 78.9369 55.4649C78.9369 55.4015 78.9117 55.3407 78.8669 55.2958C78.8221 55.251 78.7613 55.2258 78.6979 55.2258Z" fill="white"/>
<path d="M77.4578 78.2869C79.1073 78.2869 80.4444 76.9485 80.4444 75.2975C80.4444 73.6465 79.1073 72.3081 77.4578 72.3081C75.8084 72.3081 74.4712 73.6465 74.4712 75.2975C74.4712 76.9485 75.8084 78.2869 77.4578 78.2869Z" fill="#1B3A6C"/>
<path d="M78.6979 75.0466H77.6825V74.0302C77.6825 73.9988 77.6763 73.9677 77.6643 73.9387C77.6523 73.9096 77.6347 73.8833 77.6125 73.8611C77.5903 73.8389 77.564 73.8212 77.535 73.8092C77.506 73.7972 77.4749 73.791 77.4435 73.791C77.4122 73.791 77.3811 73.7972 77.3521 73.8092C77.3231 73.8212 77.2968 73.8389 77.2746 73.8611C77.2524 73.8833 77.2348 73.9096 77.2228 73.9387C77.2108 73.9677 77.2046 73.9988 77.2046 74.0302V75.0466H76.1891C76.1578 75.0466 76.1267 75.0528 76.0977 75.0648C76.0687 75.0768 76.0424 75.0944 76.0202 75.1166C75.998 75.1388 75.9804 75.1652 75.9684 75.1942C75.9564 75.2232 75.9502 75.2543 75.9502 75.2857C75.9502 75.3492 75.9754 75.41 76.0202 75.4549C76.065 75.4997 76.1258 75.5249 76.1891 75.5249H77.2046V76.5413C77.2046 76.5727 77.2108 76.6038 77.2228 76.6328C77.2348 76.6618 77.2524 76.6882 77.2746 76.7104C77.2968 76.7326 77.3231 76.7502 77.3521 76.7623C77.3811 76.7743 77.4122 76.7805 77.4435 76.7805C77.4749 76.7805 77.506 76.7743 77.535 76.7623C77.564 76.7502 77.5903 76.7326 77.6125 76.7104C77.6347 76.6882 77.6523 76.6618 77.6643 76.6328C77.6763 76.6038 77.6825 76.5727 77.6825 76.5413V75.5249H78.6979C78.7293 75.5249 78.7604 75.5187 78.7894 75.5067C78.8184 75.4947 78.8447 75.4771 78.8669 75.4549C78.8891 75.4326 78.9067 75.4063 78.9187 75.3773C78.9307 75.3482 78.9369 75.3171 78.9369 75.2857C78.9369 75.2223 78.9117 75.1615 78.8669 75.1166C78.8221 75.0718 78.7613 75.0466 78.6979 75.0466Z" fill="white"/>
<path d="M99.8182 51.3467C99.8727 51.5117 99.8904 51.6866 99.87 51.8592C99.8497 52.0317 99.7917 52.1977 99.7004 52.3455C99.609 52.4932 99.4864 52.6191 99.3411 52.7142C99.1959 52.8094 99.0316 52.8715 98.8597 52.8962L97.4787 62.3315L95.2134 61.224L97.4919 51.8059C97.4696 51.5142 97.5549 51.2245 97.7317 50.9916C97.9085 50.7586 98.1645 50.5987 98.4513 50.5421C98.738 50.4855 99.0355 50.5362 99.2875 50.6845C99.5394 50.8328 99.7282 51.0684 99.8182 51.3467Z" fill="#FFB8B8"/>
<path d="M83.3239 81.5653C83.4247 81.4239 83.4934 81.2621 83.525 81.0912C83.5566 80.9204 83.5503 80.7446 83.5068 80.5765C83.4632 80.4083 83.3833 80.2517 83.2727 80.1178C83.1621 79.9838 83.0235 79.8758 82.8667 79.8013L83.7984 69.7651L81.847 70.7663L81.2377 80.4374C81.1301 80.7094 81.1259 81.0114 81.2259 81.2863C81.3259 81.5612 81.5231 81.7898 81.7803 81.9288C82.0374 82.0679 82.3366 82.1076 82.6211 82.0407C82.9056 81.9737 83.1556 81.8045 83.3239 81.5653Z" fill="#FFB8B8"/>
<path d="M84.6567 76.4898L93.0306 76.1674L93.5137 67.4634H83.8516L84.6567 76.4898Z" fill="#FFB8B8"/>
<path d="M83.1028 107.229L84.5338 107.228L85.2144 101.704H83.1025L83.1028 107.229Z" fill="#FFB8B8"/>
<path d="M82.7476 106.522L85.0097 106.387V107.357L87.1602 108.843C87.2665 108.917 87.3465 109.022 87.3886 109.144C87.4307 109.267 87.4327 109.399 87.3942 109.522C87.3558 109.646 87.279 109.754 87.175 109.83C87.0711 109.907 86.9453 109.948 86.8162 109.948H84.1232L83.659 108.988L83.4778 109.948H82.4624L82.7476 106.522Z" fill="#2F2E41"/>
<path d="M89.4671 107.229L90.898 107.228L91.5787 101.704H89.4668L89.4671 107.229Z" fill="#FFB8B8"/>
<path d="M84.5404 74.4465C84.5404 74.4465 82.0349 76.4712 83.3931 83.7019C83.1863 83.7266 83.4205 84.1346 83.4205 84.1346L83.6165 90.0263L83.7679 90.7015L83.2644 91.7911L83.472 92.9749L82.832 103.719L85.1961 104.025L87.4585 92.8679L87.8893 91.6135L88.3215 90.5139L88.0884 89.3414L88.2796 87.5215L89.5838 81.3849L89.9031 92.0279L89.4575 93.044L89.7055 94.1594L89.1531 94.7515L88.9348 104.709L91.4556 104.827L93.5414 94.7891L93.3796 93.5081L93.6571 92.561V90.3486L94.1324 89.3044L95.1685 83.6109C95.1685 83.6109 95.4811 79.1609 93.2005 73.9243L84.5404 74.4465Z" fill="#2F2E41"/>
<path d="M85.5615 60.2295C85.5615 60.2295 82.397 60.8559 81.8517 63.5573C81.3064 66.2586 80.9556 72.3716 80.9556 72.3716L81.075 73.2229L84.1362 73.9334L86.09 65.3681L85.5615 60.2295Z" fill="#3F3D56"/>
<path d="M92.7837 61.1411C92.7837 61.1411 93.1045 60.6912 94.9009 60.6218C94.9748 60.619 94.8832 60.4721 94.8832 60.4721L95.7472 56.2456L98.6262 57.8411L98.1402 62.2721L93.4093 67.658L92.7837 61.1411Z" fill="#3F3D56"/>
<path d="M90.9891 73.7411C89.6337 73.7412 87.5935 73.5915 84.5221 73.1351C84.3243 73.1052 84.1411 73.0128 83.9995 72.8714C83.8578 72.73 83.7651 72.5469 83.7348 72.349C83.6345 72.243 83.5692 72.1086 83.5478 71.9642C83.5265 71.8198 83.5501 71.6723 83.6154 71.5417L83.6183 71.5361L83.5487 71.454C83.4411 71.3275 83.3779 71.1691 83.3687 71.0032C83.3596 70.8372 83.405 70.6729 83.4981 70.5352L82.5469 63.7243C82.4503 63.0479 82.5981 62.3593 82.9636 61.7822C83.329 61.2052 83.8882 60.7776 84.5405 60.5764L84.8917 60.467L86.2195 58.7285L86.2457 58.7288L90.5086 58.7856L91.892 60.544L94.1283 61.0718L94.1341 61.1058L94.6534 64.1086C94.9234 65.6703 94.3041 66.2847 93.5136 67.6581L93.7456 71.5152L93.8509 71.7067C93.9093 71.8126 93.9288 71.9357 93.9062 72.0546C93.8835 72.1735 93.82 72.2807 93.7268 72.3576C93.7973 72.5594 93.8021 72.7784 93.7405 72.983L93.6858 73.164C93.6859 73.1692 93.6713 73.2427 93.5532 73.3324C93.3403 73.4943 92.7291 73.7411 90.9891 73.7411Z" fill="#3F3D56"/>
<path d="M89.1124 106.522L91.3744 106.387V107.357L93.525 108.843C93.6312 108.917 93.7112 109.022 93.7533 109.144C93.7954 109.267 93.7974 109.399 93.759 109.522C93.7206 109.646 93.6438 109.754 93.5398 109.83C93.4358 109.907 93.3101 109.948 93.181 109.948H90.488L90.0238 108.988L89.8425 109.948H88.8271L89.1124 106.522Z" fill="#2F2E41"/>
<path d="M91.488 54.9401C91.7836 53.1166 90.5464 51.3984 88.7245 51.1024C86.9026 50.8065 85.1859 52.0449 84.8903 53.8685C84.5947 55.6921 85.8319 57.4103 87.6538 57.7062C89.4757 58.0021 91.1923 56.7637 91.488 54.9401Z" fill="#FFB8B8"/>
<path d="M90.1434 51.1358C88.9185 50.2926 87.8398 50.1642 86.9538 50.4033C86.8389 50.2255 86.6779 50.0823 86.4879 49.9892C85.7968 48.2463 83.6938 47.1996 81.8889 47.7085C80.0725 48.2206 78.8191 50.2345 79.1609 52.0922C79.3728 53.2437 80.0968 54.2408 80.388 55.3748C80.9517 57.5699 79.5765 60.0845 77.4253 60.7921C79.4621 61.2014 81.7042 59.9561 82.4349 58.0096C82.7898 57.0641 82.8112 56.0318 82.8563 55.0228C82.8682 54.3264 82.9534 53.6331 83.1107 52.9546C83.1887 52.6502 83.2989 52.3549 83.4395 52.0739C83.7457 51.4562 84.2543 50.9623 84.8804 50.6747C84.8244 50.8482 84.8103 51.0327 84.8395 51.2127C84.8687 51.3928 84.9402 51.5633 85.0482 51.7102C84.5706 52.3092 84.3106 52.9569 84.3106 53.3448C83.3182 55.1601 84.7373 56.7193 86.5509 57.7125C87.2743 58.1108 88.1096 58.2565 88.9249 58.1268L89.0008 57.8026L89.1036 58.0946L89.4468 59.0737C89.8426 59.2654 90.2351 59.4755 90.6241 59.7041C90.4763 59.0093 90.3568 58.3159 90.2745 57.6379C90.1606 56.7151 90.5577 55.3413 90.8441 54.5058C91.0217 53.9909 91.1129 53.4502 91.1139 52.9054V52.8816L91.3928 53.7783L92.4082 53.3448C92.2193 52.2602 92.4082 51.029 90.1434 51.1358Z" fill="#252439"/>
</svg>
