<svg width="60" height="60" viewBox="0 0 60 60" fill="none" xmlns="http://www.w3.org/2000/svg">
<path fill-rule="evenodd" clip-rule="evenodd" d="M0 30V37C0 49.7025 10.2975 60 23 60H30H37C49.7025 60 60 49.7025 60 37V30V23C60 10.2975 49.7025 0 37 0H30H23C10.2975 0 0 10.2975 0 23V30Z" fill="#6361E8"/>
<g clip-path="url(#clip0_379_3183)">
<path d="M12.2139 14.2142V19.6785C12.2139 21.2888 12.8535 22.8331 13.9921 23.9717C15.1308 25.1103 16.6751 25.7499 18.2853 25.7499C19.8955 25.7499 21.4398 25.1103 22.5784 23.9717C23.7171 22.8331 24.3567 21.2888 24.3567 19.6785V14.2142" stroke="#CECEFF" stroke-width="2.42857" stroke-linecap="round" stroke-linejoin="round"/>
<path d="M18.2861 14.2142V45.7857" stroke="#CECEFF" stroke-width="2.42857" stroke-linecap="round" stroke-linejoin="round"/>
<path d="M43.7857 45.7857C39.5991 45.7857 35.5839 44.1225 32.6235 41.1621C29.6631 38.2017 28 34.1866 28 29.9999C28 25.8133 29.6631 21.7982 32.6235 18.8378C35.5839 15.8774 39.5991 14.2142 43.7857 14.2142" fill="#CECEFF"/>
<path d="M43.7857 45.7857C39.5991 45.7857 35.5839 44.1225 32.6235 41.1621C29.6631 38.2017 28 34.1866 28 29.9999C28 25.8133 29.6631 21.7982 32.6235 18.8378C35.5839 15.8774 39.5991 14.2142 43.7857 14.2142" stroke="white" stroke-width="2.42857" stroke-linecap="round" stroke-linejoin="round"/>
<path d="M43.7861 38.5C41.5318 38.5 39.3698 37.6045 37.7757 36.0104C36.1817 34.4163 35.2861 32.2543 35.2861 30C35.2861 27.7457 36.1817 25.5837 37.7757 23.9896C39.3698 22.3955 41.5318 21.5 43.7861 21.5" fill="#C5C4FF"/>
<path d="M43.7861 38.5C41.5318 38.5 39.3698 37.6045 37.7757 36.0104C36.1817 34.4163 35.2861 32.2543 35.2861 30C35.2861 27.7457 36.1817 25.5837 37.7757 23.9896C39.3698 22.3955 41.5318 21.5 43.7861 21.5" stroke="white" stroke-width="2.42857" stroke-linecap="round" stroke-linejoin="round"/>
</g>
<defs>
<clipPath id="clip0_379_3183">
<rect width="34" height="34" fill="white" transform="translate(11 13)"/>
</clipPath>
</defs>
</svg>
