<svg width="81" height="81" viewBox="0 0 81 81" fill="none" xmlns="http://www.w3.org/2000/svg">
<path opacity="0.3" fill-rule="evenodd" clip-rule="evenodd" d="M0 40.5V49.95C0 67.0984 13.9016 81 31.05 81H40.5H49.95C67.0984 81 81 67.0984 81 49.95V40.5V31.05C81 13.9016 67.0984 0 49.95 0H40.5H31.05C13.9016 0 0 13.9016 0 31.05V40.5Z" fill="#FF9066"/>
<path d="M31.9497 19.1251V25.5376" stroke="#FF9068" stroke-width="3.20625" stroke-miterlimit="10" stroke-linecap="round" stroke-linejoin="round"/>
<path d="M49.0503 19.1251V25.5376" stroke="#FF9068" stroke-width="3.20625" stroke-miterlimit="10" stroke-linecap="round" stroke-linejoin="round"/>
<path d="M53.7526 60.5925C57.5302 60.5925 60.5926 57.5301 60.5926 53.7525C60.5926 49.9749 57.5302 46.9125 53.7526 46.9125C49.975 46.9125 46.9126 49.9749 46.9126 53.7525C46.9126 57.5301 49.975 60.5925 53.7526 60.5925Z" stroke="#CB5124" stroke-width="3.20625" stroke-linecap="round" stroke-linejoin="round"/>
<path d="M61.875 61.875L59.7375 59.7375" stroke="#CB5124" stroke-width="3.20625" stroke-linecap="round" stroke-linejoin="round"/>
<path d="M22.3311 34.2798H58.6686" stroke="#FF9068" stroke-width="3.20625" stroke-miterlimit="10" stroke-linecap="round" stroke-linejoin="round"/>
<path d="M43.4286 61.875H31.9502C24.4689 61.875 21.2627 57.6 21.2627 51.1875V33.0188C21.2627 26.6063 24.4689 22.3313 31.9502 22.3313H49.0502C56.5314 22.3313 59.7377 26.6063 59.7377 33.0188V42.6375" stroke="#FF9068" stroke-width="3.20625" stroke-miterlimit="10" stroke-linecap="round" stroke-linejoin="round"/>
<path d="M40.4904 44.1338H40.5096" stroke="#FF9068" stroke-width="4.275" stroke-linecap="round" stroke-linejoin="round"/>
<path d="M32.579 44.1338H32.5982" stroke="#FF9068" stroke-width="4.275" stroke-linecap="round" stroke-linejoin="round"/>
<path d="M32.579 50.5463H32.5982" stroke="#FF9068" stroke-width="4.275" stroke-linecap="round" stroke-linejoin="round"/>
</svg>
