<svg width="60" height="60" viewBox="0 0 60 60" fill="none" xmlns="http://www.w3.org/2000/svg">
<path opacity="0.3" fill-rule="evenodd" clip-rule="evenodd" d="M0 30V37C0 49.7025 10.2975 60 23 60H30H37C49.7025 60 60 49.7025 60 37V30V23C60 10.2975 49.7025 0 37 0H30H23C10.2975 0 0 10.2975 0 23V30Z" fill="#FF9066"/>
<path d="M37.7964 46.75H23.2039C17.5001 46.75 16.2651 43.4837 16.7364 39.4862L18.1989 27.2987C18.5726 24.1462 19.1251 21.5625 24.6501 21.5625H36.3501C41.8751 21.5625 42.4276 24.1462 42.8014 27.2987L44.0201 37.455L44.2639 39.4862C44.2801 39.6162 44.2964 39.7462 44.3126 39.8762C44.6539 43.695 43.3214 46.75 37.7964 46.75Z" fill="#E87B54"/>
<path d="M37 25.2187C36.3338 25.2187 35.7812 24.6662 35.7812 24V18.3125C35.7812 16.5575 34.6925 15.4687 32.9375 15.4687H28.0625C26.3075 15.4687 25.2188 16.5575 25.2188 18.3125V24C25.2188 24.6662 24.6662 25.2187 24 25.2187C23.3338 25.2187 22.7812 24.6662 22.7812 24V18.3125C22.7812 15.2087 24.9588 13.0312 28.0625 13.0312H32.9375C36.0412 13.0312 38.2188 15.2087 38.2188 18.3125V24C38.2188 24.6662 37.6662 25.2187 37 25.2187Z" fill="#FFA180"/>
<path d="M44.3125 39.8763C44.2638 39.8925 44.215 39.8925 44.1663 39.8925H24C23.3338 39.8925 22.7812 39.34 22.7812 38.6738C22.7812 37.9913 23.3338 37.455 24 37.455H44.02L44.2638 39.4863C44.28 39.6163 44.2963 39.7463 44.3125 39.8763Z" fill="white"/>
</svg>
