<svg width="142" height="142" viewBox="0 0 142 142" fill="none" xmlns="http://www.w3.org/2000/svg">
<circle cx="70.9778" cy="70.8577" r="70.8577" fill="#56DDE8"/>
<path d="M106.631 48.5689C108.031 50.9931 107.843 53.8797 106.139 56.1014L68.7392 104.906C67.1967 106.919 64.657 107.945 62.0601 107.447C59.517 106.957 57.5006 105.104 56.8009 102.61L51.2669 82.9148L50.6905 80.8662L49.2046 79.3427L34.9147 64.7024C33.1053 62.8498 32.5081 60.1767 33.3561 57.7297C34.1954 55.3109 36.3003 53.5557 38.8955 53.2156L99.862 45.2285C102.638 44.8641 105.231 46.1449 106.631 48.5689Z" fill="white"/>
<path d="M51.2668 82.9139L56.8006 102.61C57.5004 105.103 59.5167 106.956 62.0599 107.446C64.6569 107.944 67.1965 106.918 68.7389 104.906L106.139 56.1006C107.843 53.8788 108.03 50.9923 106.631 48.5681L50.6904 80.8652L51.2668 82.9139Z" fill="white"/>
<path d="M73.4546 67.7229C74.0238 68.7087 73.6869 69.9701 72.6998 70.5401L51.2669 82.9143L50.6906 80.8657L49.2046 79.3423L70.6374 66.968C71.6245 66.3983 72.8855 66.7371 73.4546 67.7229Z" fill="#56DDE8"/>
<path d="M51.267 82.9149L72.6999 70.5407C73.6869 69.9708 74.0239 68.7094 73.4547 67.7235L50.6906 80.8663L51.267 82.9149Z" fill="#56DDE8"/>
</svg>
