<svg width="169" height="166" viewBox="0 0 169 166" fill="none" xmlns="http://www.w3.org/2000/svg">
<path d="M113.227 154.87C141.653 154.87 164.701 131.793 164.701 103.32C164.701 74.8481 141.653 51.7713 113.227 51.7713C84.8015 51.7713 61.7535 74.8481 61.7535 103.32C61.7535 131.793 84.8015 154.87 113.227 154.87Z" stroke="#56DDE8" stroke-width="3.81162"/>
<path d="M107.609 156.979C139.525 156.979 165.404 131.069 165.404 99.1002C165.404 67.1318 139.525 41.2209 107.609 41.2209C75.6922 41.2209 49.814 67.1318 49.814 99.1002C49.814 131.069 75.6922 156.979 107.609 156.979Z" stroke="#56DDE8" stroke-width="3.81162"/>
<path d="M103.043 159.09C138.063 159.09 166.457 130.66 166.457 95.5836C166.457 60.5077 138.063 32.0776 103.043 32.0776C68.0232 32.0776 39.6294 60.5077 39.6294 95.5836C39.6294 130.66 68.0232 159.09 103.043 159.09Z" stroke="#56DDE8" stroke-width="3.81162"/>
<path d="M96.3668 160.496C134.102 160.496 164.697 129.862 164.697 92.0668C164.697 54.2717 134.102 23.6373 96.3668 23.6373C58.6317 23.6373 28.0367 54.2717 28.0367 92.0668C28.0367 129.862 58.6317 160.496 96.3668 160.496Z" stroke="#56DDE8" stroke-width="3.81162"/>
<path d="M89.8734 161.903C130.227 161.903 162.944 129.143 162.944 88.7257C162.944 48.3085 130.227 15.5485 89.8734 15.5485C49.5199 15.5485 16.8023 48.3086 16.8023 88.7258C16.8023 129.143 49.5199 161.903 89.8734 161.903Z" stroke="#56DDE8" stroke-width="3.81162"/>
<path d="M82.4982 163.662C126.925 163.662 162.944 127.595 162.944 83.0991C162.944 38.6032 126.925 2.53669 82.4982 2.5367C38.0717 2.5367 2.05229 38.6032 2.0523 83.0991C2.0523 127.595 38.0717 163.662 82.4982 163.662Z" stroke="#56DDE8" stroke-width="3.81162"/>
</svg>
