<svg width="1067" height="806" viewBox="0 0 1067 806" fill="none" xmlns="http://www.w3.org/2000/svg">
<g opacity="0.5">
<path fill-rule="evenodd" clip-rule="evenodd" d="M48.3062 188.381L-5.00024 157.604L49.2496 126.276V66.9111L-4.05664 97.6888V33.9489L-3.58301 33.6761L46.6218 4.69067C46.5366 4.37805 46.4779 4.05597 46.4779 3.71875C46.4779 1.66504 48.1433 -0.000305176 50.197 -0.000305176C52.2507 -0.000305176 53.9161 1.66504 53.9161 3.71875C53.9161 5.4447 52.7357 6.88092 51.1443 7.30151V64.7247L104.451 95.5005V157.054L105.398 157.602L104.451 158.149V159.244L103.503 158.697L52.0916 188.379L104.451 218.608L156.812 248.834L211.065 217.511V341.715L260.781 370.416C261.456 369.734 262.39 369.311 263.424 369.311C264.459 369.311 265.393 369.736 266.067 370.416L317.678 340.618V404.359L317.204 404.632L264.373 435.137V436.228L263.428 435.683L262.479 436.23V435.135L209.172 404.357V343.891L157.761 373.572V434.029L211.067 464.803V523.327C212.658 523.749 213.839 525.185 213.839 526.909C213.839 528.633 212.658 530.071 211.067 530.492V589.007L210.593 589.279L157.802 619.758V682.423L103.547 651.102L49.2952 682.423V682.363L-4.09839 713.19V649.446L-3.62476 649.173L49.2932 618.621V499.72C47.7018 499.299 46.5215 497.861 46.5215 496.137C46.5215 494.084 48.1869 492.418 50.2406 492.418C51.275 492.418 52.2071 492.839 52.8816 493.519L104.496 463.721V587.913L155.866 617.57V557.136L156.34 556.863L206.545 527.879C206.461 527.569 206.401 527.247 206.401 526.909C206.401 526.57 206.463 526.246 206.548 525.932L155.868 496.673V435.124L102.56 404.348V284.289C101.91 284.119 101.326 283.787 100.868 283.325L51.1481 312.03V374.679L51.1063 374.654V435.133L50.6327 435.406L-4.0946 467.002V403.266L-3.62097 402.995L48.2834 373.028L-4.05298 342.812V281.258L-5.00024 280.711L-4.05298 280.165V218.611L-3.57935 218.339L48.3062 188.381ZM-2.20178 463.721L49.2098 434.04V374.681L-2.20178 404.361V463.721ZM49.2535 190.022L-2.15833 219.705V279.068L49.2535 249.385V190.022ZM49.2535 312.032L-2.15833 282.349V341.713L49.2535 371.397V312.032ZM-1.21106 280.709L50.2008 310.391L99.9319 281.679C99.8485 281.368 99.788 281.048 99.788 280.709C99.788 280.37 99.8485 280.049 99.9319 279.739L50.1989 251.026L22.1437 267.225L-1.21106 280.709ZM104.453 284.289V341.705L130.16 356.545L155.866 371.386V312.026L130.16 297.186L106.148 283.323C105.688 283.787 105.102 284.117 104.453 284.289ZM51.1897 617.594L102.601 587.913V528.552L51.1897 558.233V617.594ZM102.601 526.362V467.002L53.8156 495.165C53.9008 495.476 53.9597 495.798 53.9597 496.135C53.9597 497.86 52.7811 499.296 51.1897 499.718V556.043L102.601 526.362ZM-2.20178 709.906L49.2098 680.224V620.859L-2.20178 650.541V709.906ZM102.601 590.102L51.1897 619.782V679.142L102.601 649.461V590.102ZM155.906 679.141V620.853L155.866 620.876V619.758L104.496 590.102V649.461L155.906 679.141ZM207.479 529.53L157.761 558.233V617.594L209.171 587.913V530.494C208.523 530.322 207.937 529.992 207.479 529.53ZM209.172 523.329V465.9L157.761 436.219V495.578L207.484 524.285C207.945 523.827 208.526 523.499 209.172 523.329ZM104.453 343.895V403.255L155.864 432.937V373.576L130.158 358.736L104.453 343.895ZM315.783 403.266V343.903L267.001 372.066C267.084 372.377 267.143 372.695 267.143 373.032C267.143 374.758 265.963 376.194 264.371 376.615V432.949L315.783 403.266ZM262.479 432.947V376.615C260.885 376.194 259.707 374.756 259.707 373.034C259.707 372.697 259.766 372.377 259.849 372.068L211.067 343.905V403.264L262.479 432.947ZM157.761 371.386L209.172 341.705V282.347L157.761 312.03V371.386ZM157.761 309.838L209.172 280.157V220.792L157.761 250.475V309.838ZM155.866 309.838V250.478L104.454 220.798V277.126C106.046 277.548 107.226 278.985 107.226 280.709C107.226 281.046 107.166 281.364 107.082 281.675L130.16 294.998L155.866 309.838ZM100.866 278.092C101.325 277.63 101.91 277.3 102.558 277.128V219.706L51.1461 190.024V249.387L100.866 278.092ZM50.2008 187.286L51.1481 186.74L101.611 157.604L50.1989 127.921L-1.21106 157.604L49.2535 186.739L50.2008 187.286ZM51.1461 126.278L102.558 155.961V96.5975L51.1461 66.9149V126.278ZM-2.15833 35.0459V94.4092L49.2515 64.7267V7.30334C48.6035 7.13281 48.0201 6.80316 47.5616 6.34088L-2.15833 35.0459ZM313.155 466.332C313.072 466.021 313.011 465.699 313.011 465.362C313.011 463.308 314.677 461.642 316.727 461.641C318.781 461.641 320.446 463.306 320.446 465.36C320.446 467.086 319.266 468.522 317.674 468.942V525.267L370.035 495.038L423.341 525.814L476.648 495.038L529.956 525.816L584.209 494.495V558.233L583.736 558.504L533.531 587.489C533.614 587.802 533.675 588.122 533.675 588.459C533.675 590.185 532.495 591.621 530.903 592.042V649.467L582.317 679.148V618.689L582.79 618.416L635.623 587.912V530.483C634.032 530.06 632.851 528.624 632.851 526.9C632.851 524.846 634.517 523.181 636.57 523.181C637.603 523.181 638.535 523.601 639.21 524.282L690.824 494.481V558.225L690.35 558.498L637.518 589.001V709.922L688.929 680.241V617.596L743.185 648.921L794.591 619.242L742.234 589.016V525.276L795.54 556.052V494.504L850.743 526.371V584.886C851.391 585.056 851.976 585.388 852.435 585.85L904.047 556.052V618.695L955.459 648.376V587.917L955.933 587.644L1010.66 556.044V618.693L1060.38 647.398C1061.05 646.72 1061.99 646.297 1063.02 646.297C1065.07 646.297 1066.74 647.963 1066.74 650.016C1066.74 652.07 1065.07 653.735 1063.02 653.735C1061.99 653.735 1061.05 653.313 1060.38 652.635L1010.66 681.338V743.986L957.354 713.211L902.153 681.342V620.881L850.743 650.562V713.205L796.488 681.885L744.13 712.11V713.203L743.183 712.657L742.236 713.203V712.11L690.824 682.429V742.884L690.35 743.157L635.625 774.753V774.739L582.319 805.517V742.886L532.601 714.184C532.14 714.647 531.555 714.978 530.905 715.151V774.762L476.651 743.437L475.704 743.984V742.891L424.292 713.209V773.665L423.819 773.936L369.091 805.534V741.794L369.565 741.521L422.398 711.02V650.562L421.45 650.014L422.398 649.467V587.917L422.871 587.644L474.757 557.685L423.345 528.003L370.988 558.229L370.986 620.877V677.2C372.579 677.621 373.758 679.059 373.758 680.783C373.758 682.836 372.092 684.502 370.039 684.502C367.985 684.502 366.32 682.836 366.32 680.783C366.32 680.444 366.38 680.123 366.464 679.813L316.73 651.102L265.288 680.802L317.594 711V774.741L262.395 742.872V682.412L209.087 713.194V652.896C207.496 652.476 206.315 651.038 206.315 649.313C206.315 647.26 207.981 645.594 210.034 645.594C211.283 645.594 212.382 646.214 213.056 647.159L262.477 618.625V495.59L262.95 495.317L313.155 466.332ZM314.093 467.98L264.373 496.683V556.044L314.838 526.909L315.785 526.362V468.944C315.135 468.772 314.552 468.442 314.093 467.98ZM317.678 587.913L369.091 617.594V558.233L317.678 528.55V587.913ZM264.371 617.594L315.783 587.913V528.552L264.371 558.233V617.594ZM315.785 590.102L264.373 619.782V679.142L315.785 649.461V590.102ZM210.984 652.89V709.906L262.393 680.224V620.859L213.718 648.961C213.729 649.079 213.754 649.19 213.754 649.31C213.754 651.034 212.575 652.47 210.984 652.89ZM264.288 741.777L315.7 771.46V712.097L264.288 682.414V741.777ZM367.398 678.164C367.856 677.702 368.442 677.372 369.09 677.2V619.782L317.678 590.102V649.459L367.398 678.164ZM528.061 650.014L476.65 620.332L448.594 636.531L425.24 650.014L476.651 679.697L504.707 663.498L528.061 650.014ZM527.317 708.95C527.777 708.487 528.361 708.158 529.009 707.985V651.655L478.544 680.792L527.317 708.95ZM526.383 710.596L477.599 682.431V740.699L526.383 712.534C526.299 712.223 526.239 711.903 526.239 711.566C526.239 711.229 526.299 710.907 526.383 710.596ZM477.599 559.326V618.691L529.01 648.374V592.042C527.417 591.619 526.239 590.183 526.239 588.459C526.239 588.124 526.299 587.804 526.383 587.493L477.599 559.326ZM527.315 585.845C527.775 585.38 528.359 585.051 529.009 584.878V528.55L478.544 557.685L527.315 585.845ZM475.704 559.326L424.292 589.01V648.374L475.704 618.691V559.326ZM370.986 802.249L422.398 772.568V713.207L370.986 742.888V802.249ZM424.292 651.655V711.019L475.704 740.701V681.338L424.292 651.655ZM527.317 714.182L478.546 742.342L529.01 771.479V715.149C528.361 714.976 527.775 714.647 527.317 714.182ZM584.211 742.884V802.234L635.623 772.551V713.203L584.211 742.884ZM744.128 650.564V709.923L795.54 680.243V620.883L744.128 650.564ZM848.847 709.922L797.435 680.243V620.883L823.141 635.724L848.847 650.564V709.922ZM823.141 574.176L797.435 559.335V618.697L823.141 633.537L848.847 648.378V592.051C847.255 591.631 846.075 590.193 846.075 588.469C846.075 588.129 846.133 587.809 846.219 587.499L823.141 574.176ZM955.459 650.566L904.047 620.883V680.246L955.459 709.929V650.566ZM957.354 711.02L1008.77 740.705V681.34L957.354 651.657V711.02ZM1009.71 679.699L1059.44 650.986C1059.36 650.676 1059.3 650.354 1059.3 650.016C1059.3 649.679 1059.36 649.357 1059.44 649.046L1009.71 620.334L981.656 636.533L958.301 650.016L1009.71 679.699ZM1008.77 559.328L957.354 589.012V648.376L1008.77 618.693V559.328ZM902.153 618.695V559.335L853.369 587.497C853.452 587.809 853.513 588.129 853.513 588.467C853.513 590.191 852.333 591.629 850.741 592.049V648.376L902.153 618.695ZM848.848 527.464L797.435 497.784V557.145L823.141 571.986L847.155 585.848C847.615 585.386 848.199 585.054 848.848 584.884V527.464ZM795.54 558.24L744.128 528.558V587.921L795.54 617.602V558.24ZM742.236 650.56L690.824 620.877V680.241L742.236 709.923V650.56ZM688.929 741.789V682.429L637.518 712.11V771.469L688.929 741.789ZM584.211 681.336V740.684L635.623 711.003V651.655L584.211 681.336ZM688.929 557.132V497.767L640.146 525.932C640.229 526.242 640.289 526.563 640.289 526.902C640.289 528.628 639.109 530.064 637.518 530.484V586.815L688.929 557.132ZM635.623 590.1L584.211 619.784V679.148L635.623 649.465V590.1ZM533.533 712.532L582.317 740.695V681.336L530.905 651.655V707.983C532.496 708.404 533.677 709.842 533.677 711.566C533.677 711.901 533.616 712.222 533.533 712.532ZM532.597 585.841L582.317 557.136H582.319V497.776L530.905 527.457V584.876C531.553 585.049 532.138 585.378 532.597 585.841ZM528.063 526.907L476.651 497.225L425.24 526.907L475.704 556.043L476.651 556.59L477.599 556.043L528.063 526.907ZM370.041 556.59L421.45 526.907L370.041 497.225L318.627 526.907L370.041 556.59Z" fill="url(#paint0_linear_17_23612)"/>
</g>
<defs>
<linearGradient id="paint0_linear_17_23612" x1="1182.92" y1="-484.513" x2="213.725" y2="914.136" gradientUnits="userSpaceOnUse">
<stop stop-color="#C8CACC"/>
<stop offset="0.1387" stop-color="#D5D6D7"/>
<stop offset="0.3812" stop-color="#E4E5E6"/>
<stop offset="0.5713" stop-color="#EAEBEB"/>
<stop offset="0.7471" stop-color="#EEEFEF"/>
<stop offset="0.9274" stop-color="#FAFAFB"/>
<stop offset="0.976" stop-color="white"/>
</linearGradient>
</defs>
</svg>
