<svg width="883" height="874" viewBox="0 0 883 874" fill="none" xmlns="http://www.w3.org/2000/svg">
<mask id="mask0_17_27703" style="mask-type:luminance" maskUnits="userSpaceOnUse" x="151" y="0" width="732" height="732">
<path d="M151.14 0H883V731.86H151.14V0Z" fill="white"/>
</mask>
<g mask="url(#mask0_17_27703)">
<path d="M881.363 58.074L931.401 138.647H831.358L881.363 58.074Z" fill="#1F303C"/>
<path d="M715.418 154.709L765.423 235.35H665.379L715.418 154.709Z" fill="#1F303C"/>
<path d="M658.872 252.607L708.877 333.18H608.833L658.872 252.607Z" fill="#486072"/>
<path d="M659.488 58.074L709.459 138.647H609.484L659.488 58.074Z" fill="#56DDE8"/>
<path d="M826.697 354.112L876.668 434.719H776.658L826.697 354.112Z" fill="#486072"/>
<path d="M659.522 231.676L609.484 151.069H709.459L659.522 231.676Z" fill="#486072"/>
<path d="M602.028 327.431L551.989 246.79H652.066L602.028 327.431Z" fill="#486072"/>
<path d="M715.085 325.593L665.114 244.987H765.09L715.085 325.593Z" fill="#1F303C"/>
<path d="M713.888 523.227L663.883 442.586H763.893L713.888 523.227Z" fill="#486072"/>
<path d="M572.005 664.641L522 584H622.01L572.005 664.641Z" fill="#1F303C"/>
<path d="M769.853 425.944L719.814 345.303H819.823L769.853 425.944Z" fill="#1F303C"/>
<path d="M436.7 426.517L386.661 345.91H486.637L436.7 426.517Z" fill="#486072"/>
<path d="M601.004 36.0794L550.999 -44.5613H650.975L601.004 36.0794Z" fill="#1F303C"/>
<path d="M826.084 328.451L720.152 150.388H931.982L826.084 328.451Z" fill="#1F303C"/>
<path d="M547.946 230.893L441.98 52.8301H653.879L547.946 230.893Z" fill="#1F303C"/>
<path d="M491.333 157.635L597.266 335.698H385.469L491.333 157.635Z" fill="#56DDE8"/>
<path d="M797.936 301.116L819.075 335.19H776.763L797.936 301.116Z" fill="#486072"/>
<path d="M742.272 301.116L763.411 335.19H721.133L742.272 301.116Z" fill="#486072"/>
<path d="M768.766 251.859L789.938 285.933H747.593L768.766 251.859Z" fill="#486072"/>
<path d="M602.788 153.346L623.961 187.488H581.615L602.788 153.346Z" fill="#486072"/>
<path d="M632.839 204.406L654.012 238.548H611.7L632.839 204.406Z" fill="#486072"/>
<path d="M576.328 204.406L597.467 238.548H555.189L576.328 204.406Z" fill="#486072"/>
<path d="M575.413 10.1721L596.586 44.2461H554.308L575.413 10.1721Z" fill="#486072"/>
<path d="M715.245 351.495L736.418 385.671H694.106L715.245 351.495Z" fill="#486072"/>
<path d="M741.973 397.718L763.146 431.826H720.834L741.973 397.718Z" fill="#486072"/>
<path d="M686.657 397.718L707.83 431.826H665.518L686.657 397.718Z" fill="#486072"/>
<path d="M827.722 445.171L848.86 479.245H806.549L827.722 445.171Z" fill="#486072"/>
<path d="M687.272 496.231L708.445 530.305H666.134L687.272 496.231Z" fill="#486072"/>
<path d="M770.163 329.266L748.956 295.157H791.302L770.163 329.266Z" fill="#56DDE8"/>
<path d="M601.426 231.675L580.253 197.567H622.564L601.426 231.675Z" fill="#486072"/>
<path d="M464.65 184.289L443.443 150.146H485.789L464.65 184.289Z" fill="#486072"/>
<path d="M714.233 429.583L693.06 395.441H735.372L714.233 429.583Z" fill="#486072"/>
<path d="M512.95 378.489L491.811 344.381H534.123L512.95 378.489Z" fill="#486072"/>
<path d="M849.139 90.1081L828 56H870.312L849.139 90.1081Z" fill="#486072"/>
<path d="M798.102 478.191L776.93 444.049H819.241L798.102 478.191Z" fill="#1F303C"/>
<path d="M599.268 347.406L649.307 428.046H549.229L599.268 347.406Z" fill="#486072"/>
<path d="M433.289 444.082L483.328 524.689H383.251L433.289 444.082Z" fill="#486072"/>
<path d="M376.744 541.98L426.783 622.587H326.774L376.744 541.98Z" fill="#486072"/>
<path d="M377.36 347.406L427.398 428.046H327.423L377.36 347.406Z" fill="#486072"/>
<path d="M377.428 521.049L327.423 440.442H427.398L377.428 521.049Z" fill="#56DDE8"/>
<path d="M375.932 325.487L325.86 244.812H425.869L375.932 325.487Z" fill="#1F303C"/>
<path d="M404.529 201.547L425.736 235.621H383.459L404.529 201.547Z" fill="#486072"/>
<path d="M515.876 590.456L536.98 624.564H494.669L515.876 590.456Z" fill="#486072"/>
<path d="M460.213 590.456L481.352 624.564H439.074L460.213 590.456Z" fill="#486072"/>
<path d="M486.639 541.166L507.846 575.342H465.5L486.639 541.166Z" fill="#486072"/>
<path d="M320.712 442.753L341.816 476.827H299.505L320.712 442.753Z" fill="#486072"/>
<path d="M350.779 493.813L371.918 527.887H329.64L350.779 493.813Z" fill="#486072"/>
<path d="M294.233 493.813L315.406 527.887H273.095L294.233 493.813Z" fill="#486072"/>
<path d="M319.729 249.375L340.936 283.517H298.658L319.729 249.375Z" fill="#486072"/>
<path d="M348.932 299.545L370.139 333.653H327.793L348.932 299.545Z" fill="#486072"/>
<path d="M293.353 299.545L314.492 333.653H272.18L293.353 299.545Z" fill="#486072"/>
<path d="M433.185 640.901L454.324 675.009H412.013L433.185 640.901Z" fill="#486072"/>
<path d="M404.529 687.091L425.736 721.199H383.425L404.529 687.091Z" fill="#486072"/>
<path d="M488.053 618.638L466.846 584.53H509.191L488.053 618.638Z" fill="#486072"/>
<path d="M321.193 328.65L300.02 294.542H342.332L321.193 328.65Z" fill="#56DDE8"/>
<path d="M182.557 473.628L161.384 439.52H203.662L182.557 473.628Z" fill="#486072"/>
<path d="M432.141 718.887L410.968 684.847H453.246L432.141 718.887Z" fill="#1F303C"/>
</g>
<mask id="mask1_17_27703" style="mask-type:luminance" maskUnits="userSpaceOnUse" x="0" y="535" width="348" height="339">
<path d="M0 535H348V874H0V535Z" fill="white"/>
</mask>
<g mask="url(#mask1_17_27703)">
<path d="M32.7077 825.879L11.0583 791.056H54.2891L32.7077 825.879Z" fill="#1F303C"/>
<path d="M104.394 784.11L82.8122 749.287H126.043L104.394 784.11Z" fill="#1F303C"/>
<path d="M128.878 741.834L107.262 707.011H150.459L128.878 741.834Z" fill="#486072"/>
<path d="M128.611 825.879L106.996 791.056H150.227L128.611 825.879Z" fill="#56DDE8"/>
<path d="M201.894 868.089L180.313 833.232H223.51L201.894 868.089Z" fill="#486072"/>
<path d="M56.3416 697.955L34.7262 663.098H77.957L56.3416 697.955Z" fill="#486072"/>
<path d="M128.611 750.891L150.227 785.714H106.996L128.611 750.891Z" fill="#486072"/>
<path d="M105.043 624.878L126.658 659.735H83.4614L105.043 624.878Z" fill="#486072"/>
<path d="M80.908 666.913L102.523 701.736H59.3267L80.908 666.913Z" fill="#1F303C"/>
<path d="M224.861 666.672L246.545 701.461H203.28L224.861 666.672Z" fill="#486072"/>
<path d="M129.242 835.442L150.857 870.231H107.661L129.242 835.442Z" fill="#1F303C"/>
<path d="M176.811 751.198L222.629 828.197H131.027L176.811 751.198Z" fill="#1F303C"/>
<path d="M201.278 782.853L155.461 705.923H246.994L201.278 782.853Z" fill="#56DDE8"/>
<path d="M68.7662 720.904L59.6435 706.13H77.957L68.7662 720.904Z" fill="#486072"/>
<path d="M81.3832 742.179L72.2264 727.405H90.5059L81.3832 742.179Z" fill="#486072"/>
<path d="M153.104 784.728L143.947 769.955H162.227L153.104 784.728Z" fill="#486072"/>
<path d="M140.106 762.664L130.915 747.891H149.229L140.106 762.664Z" fill="#486072"/>
<path d="M164.555 762.664L155.398 747.891H173.678L164.555 762.664Z" fill="#486072"/>
<path d="M153.486 868.257L144.363 853.518H162.643L153.486 868.257Z" fill="#56DDE8"/>
<path d="M140.886 846.608L131.729 831.869H150.043L140.886 846.608Z" fill="#486072"/>
<path d="M164.922 846.608L155.799 831.869H174.045L164.922 846.608Z" fill="#486072"/>
<path d="M104.504 699.079L95.3475 684.34H113.627L104.504 699.079Z" fill="#486072"/>
<path d="M92.9351 679.101L83.7783 664.361H102.092L92.9351 679.101Z" fill="#486072"/>
<path d="M116.819 679.101L107.73 664.361H126.01L116.819 679.101Z" fill="#486072"/>
<path d="M55.8862 658.607L46.7635 643.868H65.043L55.8862 658.607Z" fill="#486072"/>
<path d="M116.587 636.516L107.431 621.845H125.744L116.587 636.516Z" fill="#486072"/>
<path d="M153.719 750.891L162.842 765.596H144.562L153.719 750.891Z" fill="#486072"/>
<path d="M152.939 834.013L162.027 848.752H143.748L152.939 834.013Z" fill="#486072"/>
<path d="M212.825 771.351L221.947 786.125H203.668L212.825 771.351Z" fill="#486072"/>
<path d="M104.953 665.317L114.109 680.09H95.7959L104.953 665.317Z" fill="#486072"/>
<path d="M191.914 687.44L201.07 702.145H182.791L191.914 687.44Z" fill="#486072"/>
<path d="M68.685 644.341L77.8418 659.081H59.5623L68.685 644.341Z" fill="#1F303C"/>
<path d="M154.623 700.847L133.007 665.99H176.238L154.623 700.847Z" fill="#486072"/>
<path d="M226.343 659.053L204.727 624.23H247.992L226.343 659.053Z" fill="#486072"/>
<path d="M250.809 616.769L229.16 581.946H272.391L250.809 616.769Z" fill="#486072"/>
<path d="M250.544 700.847L228.894 665.99H272.125L250.544 700.847Z" fill="#486072"/>
<path d="M250.51 625.826L272.125 660.648H228.894L250.51 625.826Z" fill="#56DDE8"/>
<path d="M251.123 710.311L272.807 745.202H229.61L251.123 710.311Z" fill="#1F303C"/>
<path d="M238.768 763.893L229.611 749.154H247.959L238.768 763.893Z" fill="#486072"/>
<path d="M190.667 595.838L181.545 581.065H199.824L190.667 595.838Z" fill="#486072"/>
<path d="M214.701 595.838L205.612 581.065H223.857L214.701 595.838Z" fill="#486072"/>
<path d="M203.298 617.113L194.142 602.34H212.455L203.298 617.113Z" fill="#486072"/>
<path d="M275.019 659.663L265.896 644.89H284.176L275.019 659.663Z" fill="#486072"/>
<path d="M262.04 637.573L252.849 622.834H271.129L262.04 637.573Z" fill="#486072"/>
<path d="M286.455 637.573L277.298 622.834H295.611L286.455 637.573Z" fill="#486072"/>
<path d="M275.452 743.226L266.296 728.453H284.541L275.452 743.226Z" fill="#486072"/>
<path d="M262.802 721.543L253.679 706.804H271.959L262.802 721.543Z" fill="#486072"/>
<path d="M286.837 721.543L277.748 706.804H296.027L286.837 721.543Z" fill="#486072"/>
<path d="M226.402 574.014L217.211 559.275H235.559L226.402 574.014Z" fill="#486072"/>
<path d="M238.768 554.036L229.611 539.296H247.959L238.768 554.036Z" fill="#486072"/>
<path d="M202.683 583.65L211.84 598.355H193.56L202.683 583.65Z" fill="#486072"/>
<path d="M274.803 708.948L283.926 723.687H265.646L274.803 708.948Z" fill="#56DDE8"/>
<path d="M334.756 646.286L343.879 661.059H325.599L334.756 646.286Z" fill="#486072"/>
<path d="M226.885 540.285L236.008 555.025H217.728L226.885 540.285Z" fill="#1F303C"/>
<path d="M313.829 562.375L323.02 577.08H304.74L313.829 562.375Z" fill="#486072"/>
<path d="M44.1566 687L53.2793 701.739H34.9999L44.1566 687Z" fill="#56DDE8"/>
</g>
</svg>
