<svg width="517" height="328" viewBox="0 0 517 328" fill="none" xmlns="http://www.w3.org/2000/svg">
<g opacity="0.2">
<path fill-rule="evenodd" clip-rule="evenodd" d="M520.743 96.3229L548 80.5857L520.261 64.5675V34.2129L547.518 49.9501V17.3588L547.275 17.2193L521.605 2.39847C521.648 2.23862 521.678 2.07394 521.678 1.90152C521.678 0.851379 520.827 -0.00012207 519.777 -0.00012207C518.727 -0.00012207 517.875 0.851379 517.875 1.90152C517.875 2.78403 518.479 3.51837 519.292 3.73343V33.095L492.036 48.8313V80.3047L491.551 80.5847L492.036 80.8647V81.4246L492.52 81.1446L518.808 96.3219L492.036 111.778L465.263 127.233L437.522 111.217V174.725L412.101 189.401C411.756 189.052 411.279 188.836 410.75 188.836C410.221 188.836 409.743 189.053 409.398 189.401L383.009 174.164V206.757L383.251 206.896L410.264 222.494V223.052L410.748 222.773L411.233 223.053V222.493L438.49 206.756V175.838L464.777 191.014V221.927L437.521 237.662V267.587C436.707 267.803 436.104 268.537 436.104 269.419C436.104 270.3 436.707 271.035 437.521 271.251V301.17L437.763 301.31L464.756 316.894V348.936L492.498 332.921L520.238 348.936V348.905L547.539 364.667V332.074L547.297 331.934L520.239 316.313V255.516C521.052 255.301 521.656 254.566 521.656 253.684C521.656 252.634 520.804 251.783 519.754 251.783C519.225 251.783 518.749 251.998 518.404 252.346L492.013 237.109V300.611L465.746 315.775V284.874L465.504 284.734L439.833 269.915C439.876 269.756 439.907 269.591 439.907 269.419C439.907 269.245 439.875 269.08 439.831 268.919L465.745 253.959V222.487L493.003 206.751V145.363C493.335 145.275 493.633 145.106 493.868 144.869L519.29 159.547V191.58L519.312 191.568V222.492L519.554 222.631L547.537 238.787V206.198L547.295 206.059L520.755 190.736L547.516 175.286V143.813L548 143.533L547.516 143.254V111.78L547.273 111.641L520.743 96.3229ZM546.569 237.109L520.281 221.933V191.581L546.569 206.758V237.109ZM520.259 97.1618L546.547 112.339V142.693L520.259 127.515V97.1618ZM520.259 159.548L546.547 144.371V174.724L520.259 189.902V159.548ZM546.062 143.532L519.775 158.709L494.346 144.028C494.389 143.869 494.42 143.705 494.42 143.532C494.42 143.358 494.389 143.194 494.346 143.036L519.776 128.354L534.121 136.637L546.062 143.532ZM492.035 145.363V174.72L478.89 182.308L465.746 189.897V159.545L478.89 151.957L491.168 144.868C491.403 145.106 491.702 145.274 492.035 145.363ZM519.269 315.787L492.981 300.611V270.259L519.269 285.435V315.787ZM492.981 269.139V238.787L517.926 253.187C517.883 253.346 517.853 253.511 517.853 253.683C517.853 254.565 518.455 255.299 519.269 255.515V284.315L492.981 269.139ZM546.569 362.988L520.281 347.811V317.457L546.569 332.634V362.988ZM492.981 301.73L519.269 316.906V347.258L492.981 332.082V301.73ZM465.726 347.257V317.454L465.746 317.465V316.894L492.013 301.73V332.082L465.726 347.257ZM464.777 285.435V315.787L438.49 300.611V271.252C438.822 271.163 439.121 270.995 439.356 270.758L464.777 285.435ZM438.49 267.588V238.223L464.777 223.047V253.399L439.353 268.077C439.117 267.843 438.82 267.675 438.49 267.588ZM492.035 175.84V206.192L465.747 221.369V191.016L478.891 183.428L492.035 175.84ZM383.977 206.198V175.844L408.921 190.244C408.878 190.403 408.848 190.566 408.848 190.738C408.848 191.621 409.451 192.355 410.265 192.57V221.375L383.977 206.198ZM411.233 221.374V192.57C412.048 192.355 412.65 191.62 412.65 190.739C412.65 190.567 412.62 190.403 412.578 190.245L437.521 175.845V206.197L411.233 221.374ZM464.777 189.897L438.49 174.72V144.37L464.777 159.547V189.897ZM464.777 158.426L438.49 143.25V112.895L464.777 128.072V158.426ZM465.746 158.426V128.074L492.034 112.898V141.7C491.22 141.916 490.617 142.65 490.617 143.532C490.617 143.704 490.647 143.867 490.69 144.026L478.89 150.838L465.746 158.426ZM493.869 142.194C493.634 141.957 493.335 141.789 493.003 141.701V112.34L519.291 97.1628V127.516L493.869 142.194ZM519.775 95.7629L519.29 95.4839L493.488 80.5857L519.776 65.4084L546.062 80.5857L520.259 95.483V95.4839L519.775 95.7629ZM519.291 64.5685L493.003 79.7458V49.3922L519.291 34.2149V64.5685ZM546.547 17.9197V48.2733L520.26 33.096V3.73438C520.591 3.64719 520.89 3.47864 521.124 3.24225L546.547 17.9197ZM385.321 238.444C385.364 238.285 385.395 238.121 385.395 237.948C385.395 236.898 384.543 236.046 383.495 236.046C382.445 236.046 381.593 236.897 381.593 237.947C381.593 238.83 382.197 239.564 383.011 239.779V268.579L356.237 253.122L328.981 268.859L301.724 253.122L274.467 268.86L246.726 252.844V285.435L246.968 285.573L272.639 300.394C272.596 300.554 272.565 300.718 272.565 300.89C272.565 301.773 273.169 302.507 273.983 302.722V332.085L247.694 347.261V316.347L247.452 316.208L220.437 300.61V271.246C221.251 271.03 221.855 270.295 221.855 269.414C221.855 268.364 221.003 267.512 219.953 267.512C219.425 267.512 218.948 267.727 218.603 268.075L192.212 252.838V285.431L192.454 285.57L219.469 301.167V362.996L193.181 347.82V315.788L165.439 331.806L139.154 316.63L165.925 301.175V268.584L138.669 284.32V252.849L110.442 269.144V299.063C110.111 299.15 109.812 299.32 109.577 299.556L83.1869 284.32V316.35L56.8991 331.527V300.613L56.6569 300.474L28.6738 284.316V316.349L3.25111 331.027C2.9072 330.68 2.42962 330.464 1.90165 330.464C0.851537 330.464 0 331.315 0 332.366C0 333.416 0.851537 334.267 1.90165 334.267C2.42962 334.267 2.90623 334.051 3.25111 333.704L28.6738 348.381V380.414L55.9303 364.678L84.1556 348.383V317.468L110.442 332.645V364.675L138.184 348.661L164.955 364.115V364.674L165.44 364.395L165.924 364.674V364.115L192.212 348.939V379.85L192.454 379.99L220.436 396.146V396.139L247.693 411.876V379.851L273.115 365.176C273.35 365.412 273.649 365.582 273.982 365.67V396.15L301.722 380.133L302.207 380.413V379.854L328.495 364.677V395.59L328.737 395.728L356.72 411.885V379.293L356.478 379.154L329.463 363.558V332.645L329.948 332.365L329.463 332.085V300.613L329.221 300.474L302.691 285.155L328.979 269.978L355.75 285.433L355.751 317.466V346.265C354.936 346.48 354.334 347.215 354.334 348.097C354.334 349.147 355.185 349.999 356.236 349.999C357.286 349.999 358.137 349.147 358.137 348.097C358.137 347.924 358.106 347.76 358.064 347.601L383.493 332.921L409.796 348.107L383.051 363.547V396.14L411.276 379.845V348.93L438.533 364.669V333.838C439.347 333.623 439.95 332.888 439.95 332.006C439.95 330.956 439.099 330.105 438.049 330.105C437.41 330.105 436.848 330.421 436.504 330.905L411.234 316.314V253.404L410.992 253.265L385.321 238.444ZM384.842 239.287L410.264 253.963V284.316L384.461 269.419L383.976 269.139V239.78C384.309 239.692 384.607 239.523 384.842 239.287ZM383.009 300.611L356.72 315.787V285.435L383.009 270.258V300.611ZM410.265 315.787L383.977 300.611V270.259L410.265 285.435V315.787ZM383.976 301.73L410.264 316.906V347.258L383.976 332.082V301.73ZM437.563 333.835V362.988L411.277 347.811V317.457L436.165 331.826C436.16 331.886 436.147 331.943 436.147 332.004C436.147 332.886 436.75 333.62 437.563 333.835ZM410.308 379.285L384.02 394.462V364.108L410.308 348.931V379.285ZM357.586 346.758C357.352 346.522 357.052 346.353 356.721 346.265V316.906L383.009 301.73V332.081L357.586 346.758ZM275.436 332.365L301.723 317.187L316.069 325.47L328.01 332.365L301.722 347.542L287.377 339.259L275.436 332.365ZM275.816 362.499C275.581 362.263 275.283 362.094 274.951 362.006V333.204L300.755 348.102L275.816 362.499ZM276.294 363.341L301.238 348.94V378.733L276.294 364.332C276.337 364.173 276.368 364.01 276.368 363.837C276.368 363.665 276.337 363.5 276.294 363.341ZM301.238 285.994V316.348L274.95 331.526V302.722C275.765 302.506 276.368 301.772 276.368 300.89C276.368 300.719 276.337 300.555 276.294 300.396L301.238 285.994ZM275.817 299.553C275.582 299.316 275.284 299.147 274.951 299.059V270.258L300.755 285.155L275.817 299.553ZM302.207 285.994L328.495 301.172V331.526L302.207 316.348V285.994ZM355.751 410.205L329.463 395.029V364.676L355.751 379.852V410.205ZM328.495 333.204V363.557L302.207 378.734V348.381L328.495 333.204ZM275.816 365.175L300.754 379.573L274.95 394.472V365.669C275.283 365.581 275.582 365.412 275.816 365.175ZM246.725 379.85V410.197L220.437 395.02V364.674L246.725 379.85ZM164.956 332.646V362.997L138.669 347.821V317.469L164.956 332.646ZM111.412 362.997L137.7 347.821V317.469L124.556 325.057L111.412 332.646V362.997ZM124.556 293.587L137.7 285.999V316.351L124.556 323.939L111.412 331.528V302.727C112.226 302.512 112.829 301.777 112.829 300.895C112.829 300.722 112.799 300.558 112.756 300.399L124.556 293.587ZM56.8991 332.647L83.1869 317.469V347.823L56.8991 363V332.647ZM55.9303 363.558L29.6426 378.736V348.382L55.9303 333.205V363.558ZM29.1582 347.543L3.72967 332.862C3.7723 332.703 3.80329 332.538 3.80329 332.366C3.80329 332.193 3.7723 332.028 3.72967 331.87L29.1582 317.188L43.5043 325.471L55.446 332.366L29.1582 347.543ZM29.6426 285.995L55.9303 301.173V331.527L29.6426 316.349V285.995ZM84.1556 316.35V285.999L109.1 300.398C109.057 300.558 109.026 300.722 109.026 300.894C109.026 301.776 109.63 302.511 110.443 302.726V331.527L84.1556 316.35ZM111.411 269.703L137.7 254.526V284.879L124.556 292.467L112.277 299.555C112.042 299.319 111.743 299.149 111.411 299.062V269.703ZM138.669 285.439L164.956 270.261V300.615L138.669 315.791V285.439ZM165.924 332.644L192.212 317.466V347.82L165.924 362.997V332.644ZM193.181 379.29V348.939L219.469 364.115V394.467L193.181 379.29ZM246.725 348.38V378.726L220.437 363.549V333.204L246.725 348.38ZM193.181 284.872V254.517L218.125 268.919C218.082 269.078 218.051 269.241 218.051 269.415C218.051 270.297 218.655 271.032 219.469 271.247V300.049L193.181 284.872ZM220.437 301.729L246.725 316.907V347.261L220.437 332.084V301.729ZM272.638 364.331L247.694 378.732V348.38L273.982 333.204V362.005C273.168 362.22 272.564 362.956 272.564 363.837C272.564 364.009 272.595 364.172 272.638 364.331ZM273.116 299.551L247.694 284.874H247.693V254.522L273.982 269.699V299.058C273.65 299.146 273.351 299.315 273.116 299.551ZM275.435 269.418L301.722 254.24L328.01 269.418L302.207 284.315L301.722 284.595L301.238 284.315L275.435 269.418ZM356.235 284.595L329.948 269.418L356.235 254.24L382.523 269.418L356.235 284.595Z" fill="url(#paint0_linear_20_31750)"/>
</g>
<defs>
<linearGradient id="paint0_linear_20_31750" x1="-59.4065" y1="-247.74" x2="436.162" y2="467.415" gradientUnits="userSpaceOnUse">
<stop stop-color="#C8CACC"/>
<stop offset="0.1387" stop-color="#D5D6D7"/>
<stop offset="0.3812" stop-color="#E4E5E6"/>
<stop offset="0.5713" stop-color="#EAEBEB"/>
<stop offset="0.7471" stop-color="#EEEFEF"/>
<stop offset="0.9274" stop-color="#FAFAFB"/>
<stop offset="0.976" stop-color="white"/>
</linearGradient>
</defs>
</svg>
