<svg width="851" height="851" viewBox="0 0 851 851" fill="none" xmlns="http://www.w3.org/2000/svg">
<mask id="mask0_17_27703" style="mask-type:luminance" maskUnits="userSpaceOnUse" x="119" y="0" width="732" height="732">
<path d="M119.14 0H851V731.86H119.14V0Z" fill="white"/>
</mask>
<g mask="url(#mask0_17_27703)">
<path d="M849.362 58.074L899.401 138.647H799.357L849.362 58.074Z" fill="#1F303C"/>
<path d="M683.418 154.709L733.422 235.35H633.379L683.418 154.709Z" fill="#1F303C"/>
<path d="M626.873 252.607L676.877 333.18H576.834L626.873 252.607Z" fill="#486072"/>
<path d="M627.488 58.074L677.459 138.647H577.484L627.488 58.074Z" fill="#56DDE8"/>
<path d="M794.697 354.112L844.668 434.719H744.658L794.697 354.112Z" fill="#486072"/>
<path d="M627.522 231.676L577.484 151.069H677.459L627.522 231.676Z" fill="#486072"/>
<path d="M570.028 327.431L519.989 246.79H620.066L570.028 327.431Z" fill="#486072"/>
<path d="M683.085 325.593L633.114 244.987H733.09L683.085 325.593Z" fill="#1F303C"/>
<path d="M681.888 523.227L631.884 442.586H731.893L681.888 523.227Z" fill="#486072"/>
<path d="M540.005 664.641L490 584H590.009L540.005 664.641Z" fill="#1F303C"/>
<path d="M737.853 425.944L687.814 345.303H787.823L737.853 425.944Z" fill="#1F303C"/>
<path d="M404.7 426.517L354.661 345.91H454.637L404.7 426.517Z" fill="#486072"/>
<path d="M569.005 36.0794L519 -44.5613H618.976L569.005 36.0794Z" fill="#1F303C"/>
<path d="M794.084 328.451L688.152 150.388H899.982L794.084 328.451Z" fill="#1F303C"/>
<path d="M515.946 230.893L409.979 52.8301H621.878L515.946 230.893Z" fill="#1F303C"/>
<path d="M459.334 157.634L565.267 335.698H353.47L459.334 157.634Z" fill="#56DDE8"/>
<path d="M765.936 301.116L787.075 335.19H744.763L765.936 301.116Z" fill="#486072"/>
<path d="M710.273 301.116L731.412 335.19H689.134L710.273 301.116Z" fill="#486072"/>
<path d="M736.766 251.859L757.938 285.933H715.593L736.766 251.859Z" fill="#486072"/>
<path d="M570.788 153.346L591.96 187.488H549.615L570.788 153.346Z" fill="#486072"/>
<path d="M600.839 204.406L622.012 238.548H579.7L600.839 204.406Z" fill="#486072"/>
<path d="M544.327 204.406L565.466 238.548H523.189L544.327 204.406Z" fill="#486072"/>
<path d="M543.413 10.172L564.585 44.246H522.308L543.413 10.172Z" fill="#486072"/>
<path d="M683.246 351.495L704.418 385.671H662.107L683.246 351.495Z" fill="#486072"/>
<path d="M709.973 397.718L731.146 431.826H688.834L709.973 397.718Z" fill="#486072"/>
<path d="M654.658 397.718L675.831 431.826H633.519L654.658 397.718Z" fill="#486072"/>
<path d="M795.722 445.171L816.86 479.245H774.549L795.722 445.171Z" fill="#486072"/>
<path d="M655.273 496.231L676.446 530.305H634.134L655.273 496.231Z" fill="#486072"/>
<path d="M738.163 329.266L716.956 295.157H759.302L738.163 329.266Z" fill="#56DDE8"/>
<path d="M569.425 231.675L548.252 197.567H590.564L569.425 231.675Z" fill="#486072"/>
<path d="M432.65 184.289L411.443 150.146H453.789L432.65 184.289Z" fill="#486072"/>
<path d="M682.233 429.583L661.06 395.441H703.372L682.233 429.583Z" fill="#486072"/>
<path d="M480.95 378.489L459.811 344.381H502.123L480.95 378.489Z" fill="#486072"/>
<path d="M817.139 90.1081L796 56H838.312L817.139 90.1081Z" fill="#486072"/>
<path d="M766.103 478.191L744.93 444.049H787.242L766.103 478.191Z" fill="#1F303C"/>
<path d="M567.269 347.406L617.308 428.046H517.23L567.269 347.406Z" fill="#486072"/>
<path d="M401.291 444.082L451.33 524.689H351.252L401.291 444.082Z" fill="#486072"/>
<path d="M344.746 541.98L394.785 622.587H294.775L344.746 541.98Z" fill="#486072"/>
<path d="M345.361 347.406L395.4 428.046H295.424L345.361 347.406Z" fill="#486072"/>
<path d="M345.429 521.049L295.424 440.442H395.4L345.429 521.049Z" fill="#56DDE8"/>
<path d="M343.934 325.487L293.861 244.812H393.871L343.934 325.487Z" fill="#1F303C"/>
<path d="M372.531 201.547L393.738 235.621H351.46L372.531 201.547Z" fill="#486072"/>
<path d="M483.878 590.456L504.982 624.564H462.671L483.878 590.456Z" fill="#486072"/>
<path d="M428.213 590.456L449.352 624.564H407.074L428.213 590.456Z" fill="#486072"/>
<path d="M454.639 541.166L475.846 575.342H433.5L454.639 541.166Z" fill="#486072"/>
<path d="M288.713 442.753L309.818 476.827H267.506L288.713 442.753Z" fill="#486072"/>
<path d="M318.78 493.813L339.918 527.887H297.641L318.78 493.813Z" fill="#486072"/>
<path d="M262.234 493.813L283.407 527.887H241.095L262.234 493.813Z" fill="#486072"/>
<path d="M287.73 249.375L308.937 283.517H266.659L287.73 249.375Z" fill="#486072"/>
<path d="M316.933 299.545L338.14 333.653H295.794L316.933 299.545Z" fill="#486072"/>
<path d="M261.353 299.545L282.492 333.653H240.18L261.353 299.545Z" fill="#486072"/>
<path d="M401.186 640.901L422.325 675.009H380.013L401.186 640.901Z" fill="#486072"/>
<path d="M372.531 687.091L393.738 721.199H351.426L372.531 687.091Z" fill="#486072"/>
<path d="M456.053 618.638L434.846 584.53H477.192L456.053 618.638Z" fill="#486072"/>
<path d="M289.194 328.65L268.021 294.542H310.333L289.194 328.65Z" fill="#56DDE8"/>
<path d="M150.558 473.628L129.385 439.52H171.663L150.558 473.628Z" fill="#486072"/>
<path d="M400.141 718.887L378.968 684.847H421.246L400.141 718.887Z" fill="#1F303C"/>
</g>
<mask id="mask1_17_27703" style="mask-type:luminance" maskUnits="userSpaceOnUse" x="0" y="534" width="317" height="318">
<path d="M0.000213623 534.701H316.3V851H0.000213623V534.701Z" fill="white"/>
</mask>
<g mask="url(#mask1_17_27703)">
<path d="M0.708172 825.879L-20.9412 791.056H22.2896L0.708172 825.879Z" fill="#362B7D"/>
<path d="M72.3935 784.11L50.8122 749.287H94.043L72.3935 784.11Z" fill="#483486"/>
<path d="M96.8772 741.834L75.2618 707.011H118.458L96.8772 741.834Z" fill="#486072"/>
<path d="M96.6107 825.879L74.9953 791.056H118.226L96.6107 825.879Z" fill="#A060B2"/>
<path d="M169.893 868.089L148.312 833.232H191.509L169.893 868.089Z" fill="#6E4799"/>
<path d="M24.3426 697.955L2.72721 663.098H45.958L24.3426 697.955Z" fill="#486072"/>
<path d="M96.6107 750.891L118.226 785.714H74.9953L96.6107 750.891Z" fill="#6E4799"/>
<path d="M73.0418 624.878L94.6572 659.735H51.4604L73.0418 624.878Z" fill="#486072"/>
<path d="M48.9085 666.913L70.5239 701.736H27.3271L48.9085 666.913Z" fill="#1F303C"/>
<path d="M192.862 666.672L214.546 701.461H171.281L192.862 666.672Z" fill="#486072"/>
<path d="M97.2425 835.442L118.858 870.231H75.6611L97.2425 835.442Z" fill="#3E2F81"/>
<path d="M144.811 751.198L190.628 828.197H99.0268L144.811 751.198Z" fill="#3E2F81"/>
<path d="M169.278 782.853L123.461 705.923H214.994L169.278 782.853Z" fill="#56DDE8"/>
<path d="M36.7672 720.904L27.6445 706.13H45.958L36.7672 720.904Z" fill="#486072"/>
<path d="M49.3836 742.178L40.2269 727.405H58.5063L49.3836 742.178Z" fill="#6E4799"/>
<path d="M121.104 784.728L111.947 769.955H130.227L121.104 784.728Z" fill="#6E4799"/>
<path d="M108.106 762.664L98.9155 747.891H117.229L108.106 762.664Z" fill="#6E4799"/>
<path d="M132.556 762.664L123.399 747.891H141.679L132.556 762.664Z" fill="#6E4799"/>
<path d="M108.886 846.608L99.7295 831.869H118.043L108.886 846.608Z" fill="#6E4799"/>
<path d="M132.922 846.608L123.799 831.869H142.044L132.922 846.608Z" fill="#6E4799"/>
<path d="M72.5042 699.079L63.3475 684.34H81.627L72.5042 699.079Z" fill="#486072"/>
<path d="M60.9346 679.101L51.7778 664.361H70.0913L60.9346 679.101Z" fill="#486072"/>
<path d="M84.8185 679.101L75.7298 664.361H94.0093L84.8185 679.101Z" fill="#486072"/>
<path d="M23.8857 658.607L14.763 643.868H33.0425L23.8857 658.607Z" fill="#486072"/>
<path d="M84.5869 636.516L75.4301 621.845H93.7437L84.5869 636.516Z" fill="#486072"/>
<path d="M121.719 750.891L130.842 765.596H112.562L121.719 750.891Z" fill="#6E4799"/>
<path d="M120.939 834.013L130.028 848.752H111.748L120.939 834.013Z" fill="#6E4799"/>
<path d="M180.824 771.351L189.946 786.125H171.667L180.824 771.351Z" fill="#6E4799"/>
<path d="M72.9521 665.317L82.1089 680.09H63.7954L72.9521 665.317Z" fill="#486072"/>
<path d="M159.914 687.44L169.07 702.145H150.791L159.914 687.44Z" fill="#486072"/>
<path d="M36.6845 644.342L45.8413 659.081H27.5618L36.6845 644.342Z" fill="#1F303C"/>
<path d="M122.622 700.848L101.007 665.991H144.238L122.622 700.848Z" fill="#486072"/>
<path d="M194.341 659.053L172.726 624.23H215.991L194.341 659.053Z" fill="#486072"/>
<path d="M218.81 616.769L197.16 581.946H240.391L218.81 616.769Z" fill="#486072"/>
<path d="M218.544 700.848L196.894 665.991H240.125L218.544 700.848Z" fill="#486072"/>
<path d="M218.51 625.826L240.125 660.649H196.894L218.51 625.826Z" fill="#56DDE8"/>
<path d="M219.123 710.311L240.807 745.202H197.61L219.123 710.311Z" fill="#1F303C"/>
<path d="M206.767 763.894L197.61 749.154H215.958L206.767 763.894Z" fill="#6E4799"/>
<path d="M158.666 595.839L149.544 581.065H167.823L158.666 595.839Z" fill="#486072"/>
<path d="M182.701 595.839L173.612 581.065H191.857L182.701 595.839Z" fill="#486072"/>
<path d="M171.299 617.113L162.142 602.34H180.456L171.299 617.113Z" fill="#486072"/>
<path d="M243.019 659.663L233.896 644.89H252.175L243.019 659.663Z" fill="#486072"/>
<path d="M230.039 637.573L220.848 622.834H239.128L230.039 637.573Z" fill="#486072"/>
<path d="M254.454 637.573L245.297 622.834H263.611L254.454 637.573Z" fill="#486072"/>
<path d="M243.453 743.226L234.296 728.453H252.542L243.453 743.226Z" fill="#6E4799"/>
<path d="M230.802 721.543L221.679 706.804H239.959L230.802 721.543Z" fill="#486072"/>
<path d="M254.836 721.543L245.747 706.804H264.026L254.836 721.543Z" fill="#486072"/>
<path d="M194.402 574.014L185.211 559.275H203.559L194.402 574.014Z" fill="#486072"/>
<path d="M206.767 554.036L197.61 539.296H215.958L206.767 554.036Z" fill="#486072"/>
<path d="M170.683 583.65L179.84 598.355H161.56L170.683 583.65Z" fill="#486072"/>
<path d="M242.804 708.948L251.926 723.687H233.647L242.804 708.948Z" fill="#56DDE8"/>
<path d="M302.756 646.286L311.878 661.059H293.599L302.756 646.286Z" fill="#486072"/>
<path d="M194.885 540.285L204.007 555.025H185.728L194.885 540.285Z" fill="#1F303C"/>
<path d="M281.828 562.375L291.019 577.08H272.739L281.828 562.375Z" fill="#486072"/>
<path d="M12.1566 687L21.2793 701.739H2.99987L12.1566 687Z" fill="#56DDE8"/>
</g>
</svg>
