<svg width="68" height="51" viewBox="0 0 68 51" fill="none" xmlns="http://www.w3.org/2000/svg">
<g opacity="0.2">
<mask id="mask0_295_6640" style="mask-type:alpha" maskUnits="userSpaceOnUse" x="0" y="0" width="68" height="51">
<rect x="0.0701314" y="0.0701314" width="50.4946" height="67.1859" transform="matrix(4.37114e-08 1 1 -4.37114e-08 3.06554e-09 -9.15558e-05)" fill="url(#paint0_linear_295_6640)" stroke="#6246E5" stroke-width="0.140263"/>
</mask>
<g mask="url(#mask0_295_6640)">
<path d="M34.1533 63.1069C43.5675 63.1069 51.2007 55.4642 51.2007 46.0345C51.2007 36.6047 43.5675 28.962 34.1533 28.962C24.739 28.962 17.1058 36.6047 17.1058 46.0345C17.1058 55.4642 24.739 63.1069 34.1533 63.1069Z" stroke="#56DDE8" stroke-width="1.26237"/>
<path d="M32.2927 63.8057C42.8631 63.8057 51.4337 55.2243 51.4337 44.6368C51.4337 34.0492 42.8631 25.4678 32.2927 25.4678C21.7222 25.4678 13.1517 34.0492 13.1517 44.6368C13.1517 55.2243 21.7222 63.8057 32.2927 63.8057Z" stroke="#56DDE8" stroke-width="1.26237"/>
<path d="M30.7805 64.5046C42.3787 64.5046 51.7824 55.0889 51.7824 43.4721C51.7824 31.8554 42.3787 22.4396 30.7805 22.4396C19.1824 22.4396 9.77864 31.8554 9.77864 43.4721C9.77865 55.0889 19.1824 64.5046 30.7805 64.5046Z" stroke="#56DDE8" stroke-width="1.26237"/>
<path d="M28.569 64.9705C41.0665 64.9705 51.1992 54.8247 51.1992 42.3074C51.1992 29.7901 41.0665 19.6443 28.569 19.6443C16.0715 19.6443 5.9388 29.7901 5.9388 42.3074C5.9388 54.8247 16.0715 64.9705 28.569 64.9705Z" stroke="#56DDE8" stroke-width="1.26237"/>
<path d="M26.4184 65.4364C39.7831 65.4364 50.6188 54.5866 50.6188 41.2009C50.6188 27.8151 39.7831 16.9654 26.4184 16.9654C13.0538 16.9654 2.2181 27.8151 2.2181 41.2009C2.2181 54.5866 13.0538 65.4364 26.4184 65.4364Z" stroke="#56DDE8" stroke-width="1.26237"/>
<path d="M23.9761 66.0188C38.6897 66.0188 50.6189 54.074 50.6189 39.3374C50.6189 24.6008 38.6897 12.656 23.9761 12.656C9.26255 12.656 -2.66667 24.6008 -2.66667 39.3374C-2.66667 54.074 9.26256 66.0188 23.9761 66.0188Z" stroke="#56DDE8" stroke-width="1.26237"/>
</g>
</g>
<defs>
<linearGradient id="paint0_linear_295_6640" x1="35.9122" y1="1.88891" x2="1.08064" y2="67.8964" gradientUnits="userSpaceOnUse">
<stop stop-color="#747DEF"/>
<stop offset="1" stop-color="#5E3BE1"/>
</linearGradient>
</defs>
</svg>
