<svg width="1068" height="806" viewBox="0 0 1068 806" fill="none" xmlns="http://www.w3.org/2000/svg">
<path fill-rule="evenodd" clip-rule="evenodd" d="M1018.43 617.153L1071.74 647.931L1017.49 679.258V738.623L1070.79 707.845V771.585L1070.32 771.858L1020.12 800.844C1020.2 801.156 1020.26 801.478 1020.26 801.815C1020.26 803.869 1018.59 805.534 1016.54 805.534C1014.49 805.534 1012.82 803.869 1012.82 801.815C1012.82 800.089 1014 798.653 1015.59 798.233V740.809L962.288 710.034V648.48L961.34 647.933L962.288 647.385V646.29L963.235 646.838L1014.65 617.155L962.288 586.927L909.927 556.7L855.673 588.024V463.82L805.957 435.118C805.283 435.8 804.349 436.223 803.314 436.223C802.28 436.223 801.346 435.799 800.671 435.118L749.061 464.917V401.175L749.534 400.902L802.365 370.397V369.306L803.31 369.851L804.26 369.304V370.399L857.566 401.177V461.643L908.978 431.962V371.505L855.671 340.732V282.208C854.08 281.785 852.9 280.349 852.9 278.625C852.9 276.901 854.08 275.463 855.671 275.042V216.528L856.145 216.255L908.936 185.776V123.111L963.191 154.432L1017.44 123.111V123.171L1070.84 92.3445V156.088L1070.36 156.361L1017.45 186.913V305.814C1019.04 306.235 1020.22 307.673 1020.22 309.397C1020.22 311.451 1018.55 313.116 1016.5 313.116C1015.46 313.116 1014.53 312.695 1013.86 312.015L962.242 341.813V217.621L910.872 187.965V248.398L910.399 248.671L860.194 277.655C860.277 277.966 860.338 278.288 860.338 278.625C860.338 278.964 860.275 279.288 860.19 279.602L910.87 308.861V370.41L964.178 401.186V521.245C964.828 521.415 965.412 521.747 965.87 522.209L1015.59 493.504V430.856L1015.63 430.88V370.401L1016.11 370.128L1070.83 338.532V402.268L1070.36 402.539L1018.45 432.506L1070.79 462.723V524.276L1071.74 524.824L1070.79 525.369V586.923L1070.32 587.196L1018.43 617.153ZM1068.94 341.813L1017.53 371.494V430.854L1068.94 401.173V341.813ZM1017.48 615.512L1068.9 585.83V526.466L1017.48 556.149V615.512ZM1017.48 493.502L1068.9 523.185V463.822L1017.48 434.137V493.502ZM1067.95 524.826L1016.54 495.143L966.806 523.856C966.89 524.166 966.95 524.486 966.95 524.826C966.95 525.165 966.89 525.485 966.806 525.796L1016.54 554.508L1044.59 538.309L1067.95 524.826ZM962.286 521.245V463.829L936.578 448.989L910.872 434.148V493.508L936.578 508.348L960.59 522.211C961.051 521.747 961.636 521.417 962.286 521.245ZM1015.55 187.94L964.137 217.621V276.982L1015.55 247.301V187.94ZM964.137 279.172V338.532L1012.92 310.369C1012.84 310.058 1012.78 309.736 1012.78 309.399C1012.78 307.675 1013.96 306.239 1015.55 305.816V249.492L964.137 279.172ZM1068.94 95.6278L1017.53 125.31V184.676L1068.94 154.993V95.6278ZM964.137 215.433L1015.55 185.752V126.392L964.137 156.073V215.433ZM910.832 126.393V184.681L910.872 184.659V185.776L962.242 215.433V156.073L910.832 126.393ZM859.26 276.005L908.978 247.301V187.94L857.568 217.621V275.04C858.216 275.213 858.801 275.542 859.26 276.005ZM857.566 282.206V339.635L908.978 369.315V309.956L859.254 281.249C858.794 281.707 858.212 282.035 857.566 282.206ZM962.286 461.639V402.279L910.874 372.597V431.958L936.58 446.799L962.286 461.639ZM750.955 402.268V461.631L799.737 433.468C799.654 433.158 799.595 432.839 799.595 432.502C799.595 430.776 800.775 429.34 802.367 428.919V372.585L750.955 402.268ZM804.26 372.587V428.919C805.853 429.34 807.031 430.778 807.031 432.5C807.031 432.837 806.973 433.158 806.889 433.466L855.671 461.629V402.27L804.26 372.587ZM908.978 434.148L857.566 463.829V523.187L908.978 493.504V434.148ZM908.978 495.696L857.566 525.377V584.742L908.978 555.06V495.696ZM910.872 495.696V555.056L962.284 584.737V528.408C960.693 527.986 959.512 526.55 959.512 524.826C959.512 524.488 959.573 524.17 959.656 523.859L936.578 510.537L910.872 495.696ZM965.872 527.442C965.414 527.904 964.828 528.234 964.18 528.406V585.828L1015.59 615.51V556.147L965.872 527.442ZM1016.54 618.248L1015.59 618.794L965.128 647.931L1016.54 677.613L1067.95 647.931L1017.48 618.796L1016.54 618.248ZM1015.59 679.256L964.18 649.573V708.937L1015.59 738.619V679.256ZM1068.9 770.488V711.125L1017.49 740.807V798.231C1018.13 798.401 1018.72 798.731 1019.18 799.193L1068.9 770.488ZM753.583 339.203C753.666 339.513 753.727 339.835 753.727 340.173C753.727 342.226 752.061 343.892 750.011 343.894C747.958 343.894 746.292 342.228 746.292 340.175C746.292 338.449 747.473 337.012 749.064 336.592V280.267L696.703 310.496L643.397 279.72L590.091 310.496L536.782 279.718L482.529 311.039V247.301L483.002 247.031L533.207 218.045C533.124 217.733 533.063 217.412 533.063 217.075C533.063 215.349 534.244 213.913 535.835 213.492V156.067L484.421 126.387V186.845L483.948 187.118L431.115 217.623V275.052C432.707 275.474 433.887 276.91 433.887 278.634C433.887 280.688 432.222 282.353 430.168 282.353C429.135 282.353 428.203 281.933 427.529 281.253L375.914 311.053V247.309L376.388 247.036L429.221 216.533V95.6126L377.809 125.293V187.938L323.553 156.613L272.147 186.292L324.504 216.518V280.258L271.198 249.482V311.03L215.995 279.163V220.648C215.347 220.478 214.762 220.146 214.303 219.684L162.691 249.482V186.839L111.279 157.159V217.617L110.805 217.89L56.0782 249.49V186.841L6.35828 158.136C5.6857 158.814 4.75167 159.237 3.71912 159.237C1.66537 159.237 0 157.572 0 155.518C0 153.464 1.66537 151.799 3.71912 151.799C4.75167 151.799 5.6838 152.221 6.35828 152.9L56.0782 124.196V61.5478L109.384 92.3236L164.585 124.193V184.653L215.995 154.972V92.3293L270.251 123.649L322.608 93.4244V92.3312L323.555 92.8768L324.503 92.3312V93.4244L375.914 123.105V62.6505L376.388 62.3776L431.113 30.7815V30.7947L484.42 0.017042V62.6486L534.138 91.3498C534.598 90.8875 535.183 90.556 535.833 90.3836V30.772L590.087 62.0972L591.034 61.5497V62.6429L642.446 92.3255V31.869L642.92 31.5981L697.647 0V63.7399L697.173 64.0127L644.341 94.5138V154.972L645.288 155.52L644.341 156.067V217.617L643.867 217.89L591.981 247.849L643.393 277.532L695.75 247.305L695.752 184.657V128.334C694.159 127.914 692.98 126.476 692.98 124.751C692.98 122.698 694.646 121.032 696.7 121.032C698.753 121.032 700.419 122.698 700.419 124.751C700.419 125.091 700.358 125.411 700.275 125.722L750.008 154.432L801.45 124.733L749.144 94.5346V30.7929L804.343 62.6618V123.122L857.651 92.3407V152.638C859.243 153.059 860.423 154.497 860.423 156.221C860.423 158.274 858.758 159.94 856.704 159.94C855.455 159.94 854.356 159.32 853.682 158.375L804.261 186.909V309.944L803.788 310.217L753.583 339.203ZM752.645 337.554L802.365 308.851V249.49L751.901 278.625L750.953 279.172V336.59C751.603 336.762 752.187 337.092 752.645 337.554ZM749.061 217.621L697.647 187.94V247.301L749.061 276.984V217.621ZM802.367 187.94L750.955 217.621V276.982L802.367 247.301V187.94ZM750.953 215.433L802.365 185.752V126.392L750.953 156.073V215.433ZM855.755 152.644V95.6278L804.345 125.31V184.676L853.021 156.573C853.009 156.456 852.985 156.344 852.985 156.225C852.985 154.5 854.163 153.064 855.755 152.644ZM802.45 63.7569L751.038 34.0743V93.4376L802.45 123.12V63.7569ZM699.341 127.37C698.882 127.832 698.297 128.162 697.649 128.334V185.752L749.061 215.433V156.075L699.341 127.37ZM538.677 155.52L590.089 185.202L618.144 169.004L641.499 155.52L590.087 125.837L562.032 142.036L538.677 155.52ZM539.422 96.5846C538.961 97.0468 538.378 97.3765 537.73 97.5489V153.879L588.194 124.742L539.422 96.5846ZM540.356 94.9382L589.14 123.103V64.8349L540.356 93C540.439 93.3107 540.5 93.6309 540.5 93.9681C540.5 94.3054 540.439 94.6274 540.356 94.9382ZM589.14 246.208V186.843L537.728 157.16V213.492C539.321 213.915 540.5 215.351 540.5 217.075C540.5 217.41 540.439 217.731 540.356 218.041L589.14 246.208ZM539.423 219.69C538.963 220.154 538.38 220.484 537.73 220.656V276.984L588.194 247.849L539.423 219.69ZM591.034 246.208L642.446 216.524V157.16L591.034 186.843V246.208ZM695.752 3.28522L644.341 32.966V92.3274L695.752 62.6467V3.28522ZM642.446 153.879V94.5157L591.034 64.833V124.196L642.446 153.879ZM539.422 91.3517L588.192 63.1923L537.728 34.0553V90.3854C538.378 90.5579 538.963 90.8875 539.422 91.3517ZM482.527 62.6505V3.30038L431.115 32.983V92.3312L482.527 62.6505ZM322.61 154.97V95.6107L271.198 125.291V184.651L322.61 154.97ZM217.892 95.6118L269.303 125.291V184.651L243.598 169.811L217.892 154.97V95.6118ZM243.598 231.358L269.303 246.199V186.837L243.598 171.997L217.892 157.157V213.483C219.483 213.904 220.664 215.342 220.664 217.066C220.664 217.405 220.605 217.725 220.52 218.036L243.598 231.358ZM111.279 154.968L162.691 184.651V125.288L111.279 95.6051V154.968ZM109.384 94.5138L57.9727 64.8293V124.194L109.384 153.877V94.5138ZM57.0255 125.835L7.29422 154.548C7.37758 154.859 7.4382 155.181 7.4382 155.518C7.4382 155.855 7.37758 156.177 7.29422 156.488L57.0255 185.2L85.0825 169.002L108.437 155.518L57.0255 125.835ZM57.9727 246.206L109.384 216.522V157.159L57.9727 186.841V246.206ZM164.585 186.839V246.199L213.369 218.038C213.286 217.725 213.225 217.405 213.225 217.068C213.225 215.343 214.406 213.905 215.997 213.485V157.159L164.585 186.839ZM217.89 278.07L269.303 307.75V248.389L243.598 233.549L219.584 219.686C219.123 220.148 218.54 220.48 217.89 220.65V278.07ZM271.198 247.294L322.61 276.977V217.613L271.198 187.932V247.294ZM324.503 154.974L375.914 184.657V125.293L324.503 95.6107V154.974ZM377.809 63.7455V123.105L429.221 93.4244V34.0648L377.809 63.7455ZM482.527 124.198V64.8501L431.115 94.5308V153.879L482.527 124.198ZM377.809 248.402V307.768L426.593 279.602C426.509 279.292 426.449 278.972 426.449 278.632C426.449 276.906 427.629 275.47 429.221 275.05V218.72L377.809 248.402ZM431.115 215.434L482.527 185.75V126.387L431.115 156.069V215.434ZM533.205 93.0019L484.421 64.8387V124.198L535.833 153.879V97.5508C534.242 97.1302 533.061 95.6922 533.061 93.9681C533.061 93.6328 533.122 93.3126 533.205 93.0019ZM534.141 219.693L484.421 248.398H484.42V307.758L535.833 278.077V220.658C535.185 220.485 534.6 220.156 534.141 219.693ZM538.675 278.627L590.087 308.309L641.499 278.627L591.034 249.492L590.087 248.944L589.14 249.492L538.675 278.627ZM696.698 248.944L645.288 278.627L696.698 308.309L748.111 278.627L696.698 248.944Z" fill="url(#paint0_linear_17_23608)"/>
<defs>
<linearGradient id="paint0_linear_17_23608" x1="-116.183" y1="1290.05" x2="853.013" y2="-108.601" gradientUnits="userSpaceOnUse">
<stop stop-color="#C8CACC"/>
<stop offset="0.1387" stop-color="#D5D6D7"/>
<stop offset="0.3812" stop-color="#E4E5E6"/>
<stop offset="0.5713" stop-color="#EAEBEB"/>
<stop offset="0.7471" stop-color="#EEEFEF"/>
<stop offset="0.9274" stop-color="#FAFAFB"/>
<stop offset="0.976" stop-color="white"/>
</linearGradient>
</defs>
</svg>
